<svg xmlns="http://www.w3.org/2000/svg" xmlns:xlink="http://www.w3.org/1999/xlink" width="111" height="111" viewBox="0 0 111 111">
  <defs>
    <clipPath id="clip-path">
      <rect id="Rectángulo_52815" data-name="Rectángulo 52815" width="47.83" height="57.4" fill="#12263f"/>
    </clipPath>
  </defs>
  <g id="Grupo_1018680" data-name="Grupo 1018680" transform="translate(-1158 -5712.922)">
    <circle id="Elipse_8519" data-name="Elipse 8519" cx="55.5" cy="55.5" r="55.5" transform="translate(1158 5712.922)" fill="#4adbd1"/>
    <g id="Grupo_180439" data-name="Grupo 180439" transform="translate(1189.585 5741.5)">
      <g id="Grupo_173668" data-name="Grupo 173668" clip-path="url(#clip-path)">
        <path id="Trazado_214794" data-name="Trazado 214794" d="M0,65.913V39.843a3.2,3.2,0,0,1,3.526-2.291c3.186.073,6.374.021,9.562.021h.638A11.381,11.381,0,0,1,18.092,25.44c3.831-2.692,7.992-3.117,12.1-.864,5.1,2.793,6.872,7.287,5.819,12.974h2.671c-.728-2.4-.364-3.926,1.185-5.022a3.808,3.808,0,0,1,4.515.07,3.758,3.758,0,0,1,1.352,1.922,3.821,3.821,0,0,1-.325,2.988c1.952.651,2.427,1.837,2.418,3.585-.041,8.011-.017,16.023-.019,24.034a2.842,2.842,0,0,1-3.056,3.054q-5.319,0-10.638,0h-.756c.464.7.866,1.305,1.271,1.91.422.628.719,1.49,1.309,1.812s1.472.1,2.226.11h.06a2.836,2.836,0,0,1,2.89,2.921c0,.458,0,.917,0,1.375,0,1.206-.228,1.44-1.411,1.44H8.092c-.139,0-.279.005-.418,0a.92.92,0,0,1-.973-.974c-.016-.637-.009-1.275,0-1.913A2.739,2.739,0,0,1,8.783,72.14a5.735,5.735,0,0,1,1.952-.1,1.665,1.665,0,0,0,1.841-1c.54-.96,1.209-1.847,1.88-2.853h-.769q-5.319,0-10.638,0a3.815,3.815,0,0,1-.885-.087A3.028,3.028,0,0,1,0,65.913m1.98-1.557c-.231,1.308.046,1.937,1.535,1.934q20.525-.042,41.05-.017c1.007,0,1.338-.322,1.338-1.31q0-12.075,0-24.15c0-1-.322-1.329-1.318-1.33-2.868,0-5.736.012-8.6-.012a.939.939,0,0,0-1,.588,11.454,11.454,0,0,1-20.324-.151c-.136-.256-.25-.437-.609-.435-3.665.018-7.33.007-10.994.014a1.008,1.008,0,0,0-1.14,1.143c-.011,1.036,0,2.072,0,3.108,0,.489,0,.977,0,1.49,1.7,0,3.315,0,4.927,0a.957.957,0,0,1,1.094,1.046c.015.272,0,.546,0,.865.833,0,1.587,0,2.341,0a13.821,13.821,0,0,1,2.027.049c2.786.441,5.561.96,8.348,1.4A4.1,4.1,0,0,1,24.307,51.3a11.088,11.088,0,0,1,.261,1.085c.41.046.809.07,1.2.139a2.068,2.068,0,0,0,1.918-.675c1.653-1.585,3.364-3.109,5.055-4.655a3.733,3.733,0,0,1,3.486-.93,3.606,3.606,0,0,1,2.833,2.7,3.693,3.693,0,0,1-1.1,3.923q-4.206,3.9-8.448,7.764a6.792,6.792,0,0,1-4.791,1.8c-5.378-.02-10.755-.007-16.133-.007h-.7c0,.216,0,.335,0,.454-.01,1.25-.218,1.459-1.451,1.459H1.98M15.3,34.685a9.562,9.562,0,1,0,9.487-9.552A9.607,9.607,0,0,0,15.3,34.685M7.916,60.534h.631c5.339,0,10.678-.01,16.017.007a5.434,5.434,0,0,0,3.94-1.554c1.3-1.237,2.637-2.43,3.958-3.643,1.379-1.267,2.764-2.528,4.133-3.806a1.944,1.944,0,0,0,.539-2.234,1.728,1.728,0,0,0-1.6-1.15,2,2,0,0,0-1.557.621c-1.769,1.638-3.551,3.262-5.32,4.9a2.959,2.959,0,0,1-2.325.879c-.6-.047-1.193-.069-1.785-.139a.756.756,0,0,0-.779.38,3.583,3.583,0,0,1-3.584,1.556c-2.2-.336-4.39-.737-6.581-1.126a.993.993,0,0,1-.922-1.219,1.017,1.017,0,0,1,1.3-.719q3.139.565,6.279,1.124a1.906,1.906,0,0,0,2.265-1.528,1.86,1.86,0,0,0-1.562-2.172c-2.483-.452-4.982-.823-7.452-1.336a27.2,27.2,0,0,0-5.6-.315Zm6.341,11.446h19.3c-.833-1.251-1.615-2.442-2.422-3.616a.624.624,0,0,0-.457-.173q-6.776-.013-13.551,0a.573.573,0,0,0-.416.137c-.816,1.189-1.612,2.392-2.454,3.654m-8.319-24.8h-4V62.419h4ZM8.61,75.8H39.178c.119-1.611-.124-1.876-1.675-1.876H10.131a4.787,4.787,0,0,0-.6.01.962.962,0,0,0-.919.933c-.029.294-.005.594-.005.933M43.985,35.627a1.91,1.91,0,1,0-1.88,1.941,1.959,1.959,0,0,0,1.88-1.941" transform="translate(0 -20.351)" fill="#12263f"/>
        <path id="Trazado_214795" data-name="Trazado 214795" d="M344.406,0a1.386,1.386,0,0,1,.606,1.319c-.025,2.386-.015,4.773-.007,7.16,0,.464-.135.879-.589.988a1.343,1.343,0,0,1-.978-.16,1.137,1.137,0,0,1-.331-.828c-.025-2.466,0-4.932-.023-7.4a1.3,1.3,0,0,1,.6-1.079Z" transform="translate(-301.971)" fill="#12263f"/>
        <path id="Trazado_214796" data-name="Trazado 214796" d="M296.51,0a1.372,1.372,0,0,1,.606,1.318c-.032,1.41-.008,2.822-.012,4.233,0,.745-.365,1.16-.983,1.142-.593-.017-.921-.416-.922-1.143,0-1.411.02-2.822-.012-4.233A1.367,1.367,0,0,1,295.793,0Z" transform="translate(-259.813)" fill="#12263f"/>
        <path id="Trazado_214797" data-name="Trazado 214797" d="M112.966,0a1.362,1.362,0,0,1,.606,1.317c-.035,1.111-.005,2.224-.012,3.337,0,.694-.381,1.1-.983,1.082-.572-.016-.918-.413-.922-1.083-.006-1.112.023-2.226-.012-3.337A1.357,1.357,0,0,1,112.249,0Z" transform="translate(-98.263)" fill="#12263f"/>
        <path id="Trazado_214798" data-name="Trazado 214798" d="M57,0a1.316,1.316,0,0,1,.6,1.315c-.038.513,0,1.031-.012,1.547a.95.95,0,1,1-1.9,0,11.044,11.044,0,0,1,.023-1.9c.051-.341.37-.642.568-.961Z" transform="translate(-48.992)" fill="#12263f"/>
        <path id="Trazado_214799" data-name="Trazado 214799" d="M39.586,51.769a3.823,3.823,0,1,1-3.8-3.85,3.8,3.8,0,0,1,3.8,3.85m-1.914-.029a1.91,1.91,0,1,0-1.907,1.912,1.954,1.954,0,0,0,1.907-1.912" transform="translate(-28.113 -42.177)" fill="#12263f"/>
        <path id="Trazado_231950" data-name="Trazado 231950" d="M45.325,69.4l2.057,2.462,5.712-6.028,2.551,2.473-8.087,8.084L42.985,71.8l2.34-2.4" transform="translate(-24.502 -57.081)" fill="#12263f"/>
      </g>
    </g>
  </g>
</svg>
