<svg xmlns="http://www.w3.org/2000/svg" width="88.689" height="88.689" viewBox="0 0 88.689 88.689">
  <g id="Grupo_1018689" data-name="Grupo 1018689" transform="translate(-285 -13407.841)">
    <g id="Grupo_1018565" data-name="Grupo 1018565" transform="translate(285 13407.841)">
      <g id="Grupo_20664" data-name="Grupo 20664" transform="translate(0 0)">
        <path id="Trazado_99075" data-name="Trazado 99075" d="M44.345,0A44.345,44.345,0,1,1,0,44.345,44.345,44.345,0,0,1,44.345,0Z" fill="#4adbd1"/>
        <path id="Trazado_715274" data-name="Trazado 715274" d="M35.122,0A35.122,35.122,0,1,1,0,35.122,35.122,35.122,0,0,1,35.122,0Z" transform="translate(9.223 9.223)" fill="#f6f6f6"/>
      </g>
    </g>
    <path id="Trazado_732926" data-name="Trazado 732926" d="M16.333-9.112q0,4.571-1.892,6.993A6.6,6.6,0,0,1,8.9.3a6.651,6.651,0,0,1-5.51-2.376Q1.483-4.45,1.438-8.885v-4.057q0-4.617,1.915-7.008A6.654,6.654,0,0,1,8.87-22.342a6.66,6.66,0,0,1,5.51,2.369q1.907,2.369,1.953,6.8Zm-4.375-4.46a8.07,8.07,0,0,0-.749-3.993,2.532,2.532,0,0,0-2.339-1.25,2.487,2.487,0,0,0-2.278,1.189,7.553,7.553,0,0,0-.78,3.72v5.364a8.472,8.472,0,0,0,.734,4.008A2.5,2.5,0,0,0,8.9-3.224a2.457,2.457,0,0,0,2.316-1.258,8.269,8.269,0,0,0,.742-3.849ZM34.391,0H19.284V-3l7.129-7.6a17.588,17.588,0,0,0,2.172-2.8,4.5,4.5,0,0,0,.7-2.271,3.366,3.366,0,0,0-.742-2.308,2.677,2.677,0,0,0-2.119-.84,2.888,2.888,0,0,0-2.339,1.022,4.047,4.047,0,0,0-.855,2.687h-4.39a7.225,7.225,0,0,1,.961-3.678A6.774,6.774,0,0,1,22.523-21.4a8.258,8.258,0,0,1,3.981-.946,7.819,7.819,0,0,1,5.29,1.635,5.784,5.784,0,0,1,1.885,4.617,7.41,7.41,0,0,1-.848,3.33A18.506,18.506,0,0,1,29.925-8.81l-5.01,5.283h9.476Z" transform="translate(312 13464)" fill="#12263f"/>
  </g>
</svg>
