<svg xmlns="http://www.w3.org/2000/svg" xmlns:xlink="http://www.w3.org/1999/xlink" width="136.934" height="135.983" viewBox="0 0 136.934 135.983">
  <defs>
    <clipPath id="clip-path">
      <rect id="Rectángulo_351069" data-name="Rectángulo 351069" width="51.435" height="63.723" fill="none"/>
    </clipPath>
  </defs>
  <g id="Grupo_1015162" data-name="Grupo 1015162" transform="translate(-263 -595.534)">
    <g id="Grupo_156356" data-name="Grupo 156356" transform="translate(263 650.743)">
      <g id="Grupo_156332" data-name="Grupo 156332" transform="translate(0 0)">
        <path id="Trazado_99257" data-name="Trazado 99257" d="M419.306,105.213a2.549,2.549,0,1,1-2.548-2.434A2.492,2.492,0,0,1,419.306,105.213Z" transform="translate(-414.214 -102.779)" fill="#12263f"/>
        <path id="Trazado_116526" data-name="Trazado 116526" d="M419.306,105.213a2.549,2.549,0,1,1-2.548-2.434A2.492,2.492,0,0,1,419.306,105.213Z" transform="translate(-356.555 -102.779)" fill="#12263f"/>
        <path id="Trazado_99258" data-name="Trazado 99258" d="M427.752,105.213a2.549,2.549,0,1,1-2.545-2.434A2.492,2.492,0,0,1,427.752,105.213Z" transform="translate(-411.129 -102.779)" fill="#12263f"/>
        <path id="Trazado_116527" data-name="Trazado 116527" d="M427.752,105.213a2.549,2.549,0,1,1-2.545-2.434A2.492,2.492,0,0,1,427.752,105.213Z" transform="translate(-353.469 -102.779)" fill="#12263f"/>
        <path id="Trazado_99259" data-name="Trazado 99259" d="M436.2,105.213a2.549,2.549,0,1,1-2.545-2.434A2.492,2.492,0,0,1,436.2,105.213Z" transform="translate(-408.043 -102.779)" fill="#12263f"/>
        <path id="Trazado_116531" data-name="Trazado 116531" d="M436.2,105.213a2.549,2.549,0,1,1-2.545-2.434A2.492,2.492,0,0,1,436.2,105.213Z" transform="translate(-350.384 -102.779)" fill="#12263f"/>
        <path id="Trazado_99260" data-name="Trazado 99260" d="M444.645,105.213a2.549,2.549,0,1,1-2.547-2.434A2.492,2.492,0,0,1,444.645,105.213Z" transform="translate(-404.958 -102.779)" fill="#12263f"/>
        <path id="Trazado_116532" data-name="Trazado 116532" d="M444.645,105.213a2.549,2.549,0,1,1-2.547-2.434A2.492,2.492,0,0,1,444.645,105.213Z" transform="translate(-347.298 -102.779)" fill="#12263f"/>
        <path id="Trazado_99261" data-name="Trazado 99261" d="M453.091,105.213a2.549,2.549,0,1,1-2.545-2.434A2.492,2.492,0,0,1,453.091,105.213Z" transform="translate(-401.872 -102.779)" fill="#12263f"/>
      </g>
      <g id="Grupo_156331" data-name="Grupo 156331" transform="translate(0 12.649)">
        <ellipse id="Elipse_3975" data-name="Elipse 3975" cx="2.546" cy="2.435" rx="2.546" ry="2.435" transform="translate(0 0.001)" fill="#12263f"/>
        <ellipse id="Elipse_4742" data-name="Elipse 4742" cx="2.546" cy="2.435" rx="2.546" ry="2.435" transform="translate(57.659 0.001)" fill="#12263f"/>
        <path id="Trazado_99268" data-name="Trazado 99268" d="M427.752,112.721a2.549,2.549,0,1,1-2.545-2.434A2.493,2.493,0,0,1,427.752,112.721Z" transform="translate(-411.129 -110.287)" fill="#12263f"/>
        <path id="Trazado_116528" data-name="Trazado 116528" d="M427.752,112.721a2.549,2.549,0,1,1-2.545-2.434A2.493,2.493,0,0,1,427.752,112.721Z" transform="translate(-353.469 -110.287)" fill="#12263f"/>
        <ellipse id="Elipse_3976" data-name="Elipse 3976" cx="2.546" cy="2.435" rx="2.546" ry="2.435" transform="translate(23.064 0.001)" fill="#12263f"/>
        <ellipse id="Elipse_4743" data-name="Elipse 4743" cx="2.546" cy="2.435" rx="2.546" ry="2.435" transform="translate(80.723 0.001)" fill="#12263f"/>
        <path id="Trazado_99269" data-name="Trazado 99269" d="M444.645,112.721a2.549,2.549,0,1,1-2.547-2.434A2.494,2.494,0,0,1,444.645,112.721Z" transform="translate(-404.958 -110.287)" fill="#12263f"/>
        <path id="Trazado_116533" data-name="Trazado 116533" d="M444.645,112.721a2.549,2.549,0,1,1-2.547-2.434A2.494,2.494,0,0,1,444.645,112.721Z" transform="translate(-347.298 -110.287)" fill="#12263f"/>
        <path id="Trazado_99270" data-name="Trazado 99270" d="M453.091,112.721a2.549,2.549,0,1,1-2.545-2.434A2.493,2.493,0,0,1,453.091,112.721Z" transform="translate(-401.872 -110.287)" fill="#12263f"/>
      </g>
      <g id="Grupo_156330" data-name="Grupo 156330" transform="translate(0 25.3)">
        <path id="Trazado_99274" data-name="Trazado 99274" d="M419.306,120.23a2.549,2.549,0,1,1-2.548-2.436A2.494,2.494,0,0,1,419.306,120.23Z" transform="translate(-414.214 -117.794)" fill="#12263f"/>
        <path id="Trazado_116529" data-name="Trazado 116529" d="M419.306,120.23a2.549,2.549,0,1,1-2.548-2.436A2.494,2.494,0,0,1,419.306,120.23Z" transform="translate(-356.555 -117.794)" fill="#12263f"/>
        <path id="Trazado_99275" data-name="Trazado 99275" d="M427.752,120.23a2.549,2.549,0,1,1-2.545-2.436A2.493,2.493,0,0,1,427.752,120.23Z" transform="translate(-411.129 -117.794)" fill="#12263f"/>
        <path id="Trazado_116530" data-name="Trazado 116530" d="M427.752,120.23a2.549,2.549,0,1,1-2.545-2.436A2.493,2.493,0,0,1,427.752,120.23Z" transform="translate(-353.469 -117.794)" fill="#12263f"/>
        <path id="Trazado_99276" data-name="Trazado 99276" d="M436.2,120.23a2.549,2.549,0,1,1-2.545-2.436A2.493,2.493,0,0,1,436.2,120.23Z" transform="translate(-408.043 -117.794)" fill="#12263f"/>
        <path id="Trazado_116534" data-name="Trazado 116534" d="M436.2,120.23a2.549,2.549,0,1,1-2.545-2.436A2.493,2.493,0,0,1,436.2,120.23Z" transform="translate(-350.384 -117.794)" fill="#12263f"/>
        <path id="Trazado_99277" data-name="Trazado 99277" d="M444.645,120.23a2.549,2.549,0,1,1-2.547-2.436A2.494,2.494,0,0,1,444.645,120.23Z" transform="translate(-404.958 -117.794)" fill="#12263f"/>
        <path id="Trazado_116535" data-name="Trazado 116535" d="M444.645,120.23a2.549,2.549,0,1,1-2.547-2.436A2.494,2.494,0,0,1,444.645,120.23Z" transform="translate(-347.298 -117.794)" fill="#12263f"/>
        <path id="Trazado_99278" data-name="Trazado 99278" d="M453.091,120.23a2.549,2.549,0,1,1-2.545-2.436A2.493,2.493,0,0,1,453.091,120.23Z" transform="translate(-401.872 -117.794)" fill="#12263f"/>
      </g>
      <g id="Grupo_156327" data-name="Grupo 156327" transform="translate(0 63.252)">
        <path id="Trazado_116550" data-name="Trazado 116550" d="M419.306,120.23a2.549,2.549,0,1,1-2.548-2.436A2.494,2.494,0,0,1,419.306,120.23Z" transform="translate(-414.214 -117.794)" fill="#12263f"/>
        <path id="Trazado_116551" data-name="Trazado 116551" d="M419.306,120.23a2.549,2.549,0,1,1-2.548-2.436A2.494,2.494,0,0,1,419.306,120.23Z" transform="translate(-356.555 -117.794)" fill="#12263f"/>
        <path id="Trazado_116552" data-name="Trazado 116552" d="M427.752,120.23a2.549,2.549,0,1,1-2.545-2.436A2.493,2.493,0,0,1,427.752,120.23Z" transform="translate(-411.129 -117.794)" fill="#12263f"/>
        <path id="Trazado_116553" data-name="Trazado 116553" d="M427.752,120.23a2.549,2.549,0,1,1-2.545-2.436A2.493,2.493,0,0,1,427.752,120.23Z" transform="translate(-353.469 -117.794)" fill="#12263f"/>
        <path id="Trazado_116554" data-name="Trazado 116554" d="M436.2,120.23a2.549,2.549,0,1,1-2.545-2.436A2.493,2.493,0,0,1,436.2,120.23Z" transform="translate(-408.043 -117.794)" fill="#12263f"/>
        <path id="Trazado_116555" data-name="Trazado 116555" d="M436.2,120.23a2.549,2.549,0,1,1-2.545-2.436A2.493,2.493,0,0,1,436.2,120.23Z" transform="translate(-350.384 -117.794)" fill="#12263f"/>
        <path id="Trazado_116556" data-name="Trazado 116556" d="M444.645,120.23a2.549,2.549,0,1,1-2.547-2.436A2.494,2.494,0,0,1,444.645,120.23Z" transform="translate(-404.958 -117.794)" fill="#12263f"/>
        <path id="Trazado_116557" data-name="Trazado 116557" d="M444.645,120.23a2.549,2.549,0,1,1-2.547-2.436A2.494,2.494,0,0,1,444.645,120.23Z" transform="translate(-347.298 -117.794)" fill="#12263f"/>
        <path id="Trazado_116558" data-name="Trazado 116558" d="M453.091,120.23a2.549,2.549,0,1,1-2.545-2.436A2.493,2.493,0,0,1,453.091,120.23Z" transform="translate(-401.872 -117.794)" fill="#12263f"/>
      </g>
      <g id="Grupo_156329" data-name="Grupo 156329" transform="translate(0 37.951)">
        <ellipse id="Elipse_3980" data-name="Elipse 3980" cx="2.546" cy="2.435" rx="2.546" ry="2.435" transform="translate(0 0.002)" fill="#12263f"/>
        <ellipse id="Elipse_4744" data-name="Elipse 4744" cx="2.546" cy="2.435" rx="2.546" ry="2.435" transform="translate(57.659 0.002)" fill="#12263f"/>
        <path id="Trazado_99285" data-name="Trazado 99285" d="M427.752,127.738a2.549,2.549,0,1,1-2.545-2.436A2.491,2.491,0,0,1,427.752,127.738Z" transform="translate(-411.129 -125.302)" fill="#12263f"/>
        <path id="Trazado_116536" data-name="Trazado 116536" d="M427.752,127.738a2.549,2.549,0,1,1-2.545-2.436A2.491,2.491,0,0,1,427.752,127.738Z" transform="translate(-353.469 -125.302)" fill="#12263f"/>
        <ellipse id="Elipse_3981" data-name="Elipse 3981" cx="2.546" cy="2.435" rx="2.546" ry="2.435" transform="translate(23.064 0.002)" fill="#12263f"/>
        <ellipse id="Elipse_4745" data-name="Elipse 4745" cx="2.546" cy="2.435" rx="2.546" ry="2.435" transform="translate(80.723 0.002)" fill="#12263f"/>
        <path id="Trazado_99286" data-name="Trazado 99286" d="M444.645,127.738A2.549,2.549,0,1,1,442.1,125.3,2.492,2.492,0,0,1,444.645,127.738Z" transform="translate(-404.958 -125.302)" fill="#12263f"/>
        <path id="Trazado_116537" data-name="Trazado 116537" d="M444.645,127.738A2.549,2.549,0,1,1,442.1,125.3,2.492,2.492,0,0,1,444.645,127.738Z" transform="translate(-347.298 -125.302)" fill="#12263f"/>
        <path id="Trazado_99287" data-name="Trazado 99287" d="M453.091,127.738a2.549,2.549,0,1,1-2.545-2.436A2.491,2.491,0,0,1,453.091,127.738Z" transform="translate(-401.872 -125.302)" fill="#12263f"/>
      </g>
      <g id="Grupo_156326" data-name="Grupo 156326" transform="translate(0 75.904)">
        <ellipse id="Elipse_4754" data-name="Elipse 4754" cx="2.546" cy="2.435" rx="2.546" ry="2.435" transform="translate(0 0.001)" fill="#12263f"/>
        <ellipse id="Elipse_4750" data-name="Elipse 4750" cx="2.546" cy="2.435" rx="2.546" ry="2.435" transform="translate(57.659 0.001)" fill="#12263f"/>
        <path id="Trazado_116548" data-name="Trazado 116548" d="M427.752,127.738a2.549,2.549,0,1,1-2.545-2.436A2.491,2.491,0,0,1,427.752,127.738Z" transform="translate(-411.129 -125.302)" fill="#12263f"/>
        <path id="Trazado_116542" data-name="Trazado 116542" d="M427.752,127.738a2.549,2.549,0,1,1-2.545-2.436A2.491,2.491,0,0,1,427.752,127.738Z" transform="translate(-353.469 -125.302)" fill="#12263f"/>
        <ellipse id="Elipse_4751" data-name="Elipse 4751" cx="2.546" cy="2.435" rx="2.546" ry="2.435" transform="translate(23.064 0.001)" fill="#12263f"/>
        <ellipse id="Elipse_4752" data-name="Elipse 4752" cx="2.546" cy="2.435" rx="2.546" ry="2.435" transform="translate(80.723 0.001)" fill="#12263f"/>
        <path id="Trazado_116543" data-name="Trazado 116543" d="M444.645,127.738A2.549,2.549,0,1,1,442.1,125.3,2.492,2.492,0,0,1,444.645,127.738Z" transform="translate(-404.958 -125.302)" fill="#12263f"/>
        <path id="Trazado_116544" data-name="Trazado 116544" d="M444.645,127.738A2.549,2.549,0,1,1,442.1,125.3,2.492,2.492,0,0,1,444.645,127.738Z" transform="translate(-347.298 -125.302)" fill="#12263f"/>
        <path id="Trazado_116545" data-name="Trazado 116545" d="M453.091,127.738a2.549,2.549,0,1,1-2.545-2.436A2.491,2.491,0,0,1,453.091,127.738Z" transform="translate(-401.872 -125.302)" fill="#12263f"/>
      </g>
      <g id="Grupo_156328" data-name="Grupo 156328" transform="translate(0 50.602)">
        <ellipse id="Elipse_3985" data-name="Elipse 3985" cx="2.546" cy="2.435" rx="2.546" ry="2.435" transform="translate(0 0.001)" fill="#12263f"/>
        <ellipse id="Elipse_4746" data-name="Elipse 4746" cx="2.546" cy="2.435" rx="2.546" ry="2.435" transform="translate(57.659 0.001)" fill="#12263f"/>
        <path id="Trazado_99291" data-name="Trazado 99291" d="M427.752,135.246a2.549,2.549,0,1,1-2.545-2.436A2.491,2.491,0,0,1,427.752,135.246Z" transform="translate(-411.129 -132.81)" fill="#12263f"/>
        <path id="Trazado_116538" data-name="Trazado 116538" d="M427.752,135.246a2.549,2.549,0,1,1-2.545-2.436A2.491,2.491,0,0,1,427.752,135.246Z" transform="translate(-353.469 -132.81)" fill="#12263f"/>
        <ellipse id="Elipse_3986" data-name="Elipse 3986" cx="2.546" cy="2.435" rx="2.546" ry="2.435" transform="translate(23.064 0.001)" fill="#12263f"/>
        <ellipse id="Elipse_4747" data-name="Elipse 4747" cx="2.546" cy="2.435" rx="2.546" ry="2.435" transform="translate(80.723 0.001)" fill="#12263f"/>
        <path id="Trazado_99292" data-name="Trazado 99292" d="M444.645,135.246a2.549,2.549,0,1,1-2.547-2.436A2.492,2.492,0,0,1,444.645,135.246Z" transform="translate(-404.958 -132.81)" fill="#12263f"/>
        <path id="Trazado_116539" data-name="Trazado 116539" d="M444.645,135.246a2.549,2.549,0,1,1-2.547-2.436A2.492,2.492,0,0,1,444.645,135.246Z" transform="translate(-347.298 -132.81)" fill="#12263f"/>
        <path id="Trazado_99293" data-name="Trazado 99293" d="M453.091,135.246a2.549,2.549,0,1,1-2.545-2.436A2.491,2.491,0,0,1,453.091,135.246Z" transform="translate(-401.872 -132.81)" fill="#12263f"/>
      </g>
    </g>
    <g id="Grupo_1015138" data-name="Grupo 1015138" transform="translate(277.562 595.534)">
      <circle id="Elipse_8447" data-name="Elipse 8447" cx="61.186" cy="61.186" r="61.186" transform="translate(0 0)" fill="#6f88da"/>
      <circle id="Elipse_8448" data-name="Elipse 8448" cx="51.264" cy="51.264" r="51.264" transform="translate(9.922 9.922)" fill="#fff"/>
      <g id="Grupo_1014662" data-name="Grupo 1014662" transform="translate(35.469 29.324)">
        <g id="Grupo_1014661" data-name="Grupo 1014661" clip-path="url(#clip-path)">
          <path id="Trazado_728076" data-name="Trazado 728076" d="M0,59.242v-1c.232-.146.119-.377.119-.564q.009-21.963,0-43.926c0-.187.114-.418-.119-.564v-.249a1.15,1.15,0,0,1,1-.78c.51.081.877.3.874.889,0,.041-.006.083-.006.124q0,20.34,0,40.68c0,.181-.048.377.1.532-.119.37.044.259.222.131a5.367,5.367,0,0,1,3.542-.886c.167.009.378.1.507-.113.187-.216.1-.477.1-.716q.007-25.119,0-50.238c0-.23.121-.5-.134-.689a5.391,5.391,0,0,0-2.346.24,3.166,3.166,0,0,0-1.9,2.857.626.626,0,0,0-.1.472q0,2.074.006,4.149A.985.985,0,0,1,1,10.351a.832.832,0,0,1-.882-.759Q.12,7.343.123,5.1C.123,4.967.2,4.8,0,4.73V4.481c.154-.465.279-.942.468-1.393A5.006,5.006,0,0,1,5.2,0Q27.184.006,49.168,0c.083,0,.166,0,.249,0a2.066,2.066,0,0,1,1.978,1.728q.037.867.037,1.736,0,24.385,0,48.77c0,2.861.007,5.723-.006,8.585a5.444,5.444,0,0,1-.113,1.53c-.2.672-.776,1-1.3,1.371H4.106c-.019-.034-.034-.093-.058-.1A4.972,4.972,0,0,1,.8,61.325,8.362,8.362,0,0,1,0,59.242m49.519-3.726a3.773,3.773,0,0,0-2.225.015c0,1.98-.008,3.961,0,5.941,0,.122-.092.3.118.361a6.508,6.508,0,0,0,2.133-.1.417.417,0,0,0,.1-.342q0-2.748,0-5.5c0-.142.018-.293-.131-.386l.006.006m-1.873-1.89a4.462,4.462,0,0,0,1.87-.115l.021.014c.18-.194.105-.434.105-.653q.005-25.114,0-50.227c0-.22.074-.459-.1-.655a5.269,5.269,0,0,0-1.889-.1c-.082-.007-.165-.02-.247-.02q-19.436,0-38.872,0c-.139,0-.338-.115-.424.116-.006.083-.019.165-.019.248q0,25.449,0,50.9c0,.161-.119.379.127.486h2.725a1.114,1.114,0,0,1,.778.916.088.088,0,0,0,0,.1.98.98,0,0,1-.639.751l-.141.076c-2,.011-4,0-6,.043a2.891,2.891,0,0,0-2.708,1.867c-.124.115-.207.229,0,.342.227.007.455.02.682.021H17.037a2.487,2.487,0,0,1,.558.013.924.924,0,0,1,.817.915.906.906,0,0,1-.858.936,4.518,4.518,0,0,1-.5.006H2.137A2.987,2.987,0,0,0,5,61.853l37.992,0c.186,0,.372-.013.558-.021,1.94.107,1.94.107,1.875-1.81a.376.376,0,0,1,0-.062c.036-.258-.053-.371-.335-.356-.513.026-1.027.02-1.54.028-.227-.008-.455-.022-.682-.022q-10.6,0-21.2.011A.927.927,0,0,1,20.727,59c-.2-.42,0-.727.268-1.041.282-.336.648-.215.977-.216q10.444-.013,20.889-.008c.227,0,.455-.015.682-.023,1.986.124,2,.106,1.884-1.871-.015-.256-.061-.37-.343-.355-.512.027-1.026.022-1.539.031-.248-.009-.5-.025-.744-.025q-13.842,0-27.683,0c-.269,0-.537-.022-.806-.034-.062-.1-.1-.056-.132.022a.986.986,0,0,1-.639-.952c0-.393.281-.614.512-.88.3-.35.594.2.875-.029.248.007.5.019.745.019q12.1,0,24.2,0,3.887,0,7.775-.013" transform="translate(0 0)" fill="#12263f"/>
          <path id="Trazado_728077" data-name="Trazado 728077" d="M0,105.739c.232.146.119.377.119.564q.009,21.963,0,43.926c0,.187.113.418-.119.564Z" transform="translate(0 -92.546)" fill="#878383"/>
          <path id="Trazado_728078" data-name="Trazado 728078" d="M1,79.347a1.15,1.15,0,0,0-1,.78v-3.36l.058-.007.056.014A.832.832,0,0,0,1,77.533L1,79.347" transform="translate(0 -67.183)" fill="#f8f2f2"/>
          <path id="Trazado_728079" data-name="Trazado 728079" d="M.114,42.772l-.056-.014L0,42.765V37.911c.2.069.123.237.123.366,0,1.5,0,3-.009,4.5" transform="translate(0 -33.181)" fill="#878383"/>
          <path id="Trazado_728080" data-name="Trazado 728080" d="M64.98,14.93c.087-.231.285-.116.424-.116q19.436-.01,38.872,0c.082,0,.165.013.247.02q0,19.525,0,39.049,0,6.28-.008,12.56c-.29.005-.58.015-.869.015q-15.534,0-31.068,0c-.26,0-.541-.089-.779.1-.281.225-.573-.321-.875.029-.23.266-.51.487-.512.88l-1.6.014-.216,0a1.114,1.114,0,0,0-.778-.917,15.561,15.561,0,0,0-2.717-.115c-.006-.29-.016-.58-.016-.87q0-24.935-.006-49.87c0-.258.1-.54-.1-.777M82.639,47.923a9.986,9.986,0,0,0-2.383.1,1.916,1.916,0,0,0-1.622,1.514,12.5,12.5,0,0,0-.1,2.5.624.624,0,0,1-.208.095,1.877,1.877,0,0,0-1.8,1.975c.066.74.012,1.49.014,2.236A1.75,1.75,0,0,0,78.3,58.119q5.032,0,10.064-.006c1.614,0,3.228-.019,4.843-.029.079.028.1-.029.126-.085a1.672,1.672,0,0,0,1.492-1.616,6.551,6.551,0,0,0,0-2.625A1.8,1.8,0,0,0,93.768,52.3c-.294-.155-.774.007-.9-.309a3.143,3.143,0,0,1-.034-1.1c0-.268,0-.536,0-.8a2,2,0,0,0-1.743-2.059,10.984,10.984,0,0,0-2.346-.113q-.01-9.147-.029-18.293c0-.381.185-.375.457-.374,1.991.006,3.981.009,5.972,0,.4,0,.493.062.32.483-.825,2.011-1.577,4.053-2.424,6.055-.38.9-.485,2.006-1.562,2.483-.064.028-.1.128-.144.194-.623.851-.381,1.834-.344,2.752a2.821,2.821,0,0,0,2.622,2.467c2.3.015,4.6.009,6.905,0a2.056,2.056,0,0,0,1.358-.446,2.984,2.984,0,0,0,1.167-2.8,3.5,3.5,0,0,1,0-.931,1.528,1.528,0,0,0-.919-1.536.979.979,0,0,1-.448-.529c-1.21-3.052-2.439-6.1-3.641-9.153a1.266,1.266,0,0,0-1.344-.908c-2.488.023-4.977,0-7.465.019-.413,0-.561-.116-.5-.517a2.468,2.468,0,0,0,0-.435,2.968,2.968,0,0,0-2.433-3.116,2.811,2.811,0,0,0-2.9.967,3.594,3.594,0,0,0-.753,2.552c.017.431-.1.555-.54.551-2.447-.023-4.894-.011-7.341-.011-.9,0-1.117.168-1.449,1.008q-1.768,4.471-3.561,8.933c-.075.186-.1.411-.35.533a2.042,2.042,0,0,0-1.11,1.5,4.982,4.982,0,0,0,.047,2.056A3.011,3.011,0,0,0,71.1,43.678c2.115,0,4.231.027,6.345-.007a2.791,2.791,0,0,0,2.687-1.681,6.05,6.05,0,0,0,.2-2.976,1.079,1.079,0,0,0-.713-.931,1.161,1.161,0,0,1-.682-.795q-1-2.483-1.985-4.97c-.4-1-.785-2.013-1.19-3.053h6.862q0,9.325,0,18.651Z" transform="translate(-56.872 -12.941)" fill="#dee4f0"/>
          <path id="Trazado_728081" data-name="Trazado 728081" d="M7.985,25.2,7.979,23.39a.985.985,0,0,0,.878-.755.272.272,0,0,0,.115-.269q-.012-2.176-.025-4.352a3.166,3.166,0,0,1,1.9-2.857,5.39,5.39,0,0,1,2.346-.24c.005.269.015.539.015.808q0,25.014,0,50.027c0,.269.012.539.019.808-.129.21-.339.122-.507.113a5.368,5.368,0,0,0-3.542.886c-.178.127-.341.239-.221-.131.007-.082.019-.165.019-.247q0-20.289,0-40.577c0-.172.088-.377-.111-.512,0-.586-.364-.808-.874-.889" transform="translate(-6.983 -13.039)" fill="#6f88da"/>
          <path id="Trazado_728082" data-name="Trazado 728082" d="M26.933,437.043l1.6-.014a.985.985,0,0,0,.639.952l.132-.022c.269.012.537.034.806.034l27.683,0c.248,0,.5.017.744.025q0,1.1,0,2.2c-.227.008-.455.023-.682.023q-10.445,0-20.889.008c-.329,0-.695-.121-.977.216-.264.314-.466.622-.268,1.042a.927.927,0,0,0,.936.619q10.6-.026,21.2-.011c.227,0,.455.014.682.022v2.2c-.186.007-.372.02-.558.02l-37.992,0a2.986,2.986,0,0,1-2.858-2.241H32.05a4.543,4.543,0,0,0,.5-.006.906.906,0,0,0,.858-.937.924.924,0,0,0-.817-.915,2.486,2.486,0,0,0-.558-.013H17.916c-.227,0-.455-.013-.682-.021q0-.171,0-.342a2.892,2.892,0,0,1,2.708-1.868c2-.047,4-.032,6-.043.085.045.113-.015.141-.076a.979.979,0,0,0,.639-.751l.214-.1" transform="translate(-14.994 -382.5)" fill="#f8f2f2"/>
          <path id="Trazado_728083" data-name="Trazado 728083" d="M381.854,66.485q0-6.28.008-12.56,0-19.525,0-39.049a5.269,5.269,0,0,1,1.889.1c-.007.207-.019.414-.019.62q0,25.147,0,50.294c0,.207.01.414.015.621l-.021-.014-1.85.026Z" transform="translate(-334.21 -12.986)" fill="#c3cfe6"/>
          <path id="Trazado_728084" data-name="Trazado 728084" d="M382.074,451.122a6.507,6.507,0,0,1-2.133.1q0-3.149,0-6.3l2.113-.02-.006-.006.027,6.224" transform="translate(-332.534 -389.388)" fill="#c3cfe6"/>
          <path id="Trazado_728085" data-name="Trazado 728085" d="M64.678,15.945c.2.237.1.518.1.777q.008,24.935.006,49.87c0,.29.011.58.016.87a.421.421,0,0,0-.008.115c-.246-.107-.127-.325-.127-.486q-.01-25.449,0-50.9c0-.083.012-.165.019-.248" transform="translate(-56.571 -13.956)" fill="#29538c"/>
          <path id="Trazado_728086" data-name="Trazado 728086" d="M49.771,66.7c-.006-.269-.019-.538-.019-.808q0-25.014,0-50.027c0-.269-.01-.539-.015-.808.255.188.134.46.134.689q.01,25.119,0,50.238c0,.239.086.5-.1.716" transform="translate(-43.53 -13.18)" fill="#594619"/>
          <path id="Trazado_728087" data-name="Trazado 728087" d="M396.905,67.479c-.005-.207-.015-.414-.015-.621q0-25.147,0-50.294c0-.207.012-.414.019-.62.175.2.1.435.1.655q.005,25.114,0,50.227c0,.219.074.459-.105.653" transform="translate(-347.369 -13.954)" fill="#11213f"/>
          <path id="Trazado_728088" data-name="Trazado 728088" d="M14.929,104.624c.2.135.111.34.111.512q.007,20.289,0,40.577c0,.082-.012.165-.019.247-.15-.155-.1-.35-.1-.532q0-20.34,0-40.68c0-.041,0-.083.006-.124" transform="translate(-13.053 -91.57)" fill="#403212"/>
          <path id="Trazado_728089" data-name="Trazado 728089" d="M349,479.945v-2.2c.514-.008,1.028,0,1.54-.028.282-.014.371.1.335.356a.363.363,0,0,0,0,.062c.065,1.917.065,1.917-1.875,1.81" transform="translate(-305.454 -418.111)" fill="#dee4f0"/>
          <path id="Trazado_728090" data-name="Trazado 728090" d="M348.98,446.952q0-1.1,0-2.2c.513-.009,1.027,0,1.539-.031.282-.015.328.1.343.356.114,1.978.1,1.995-1.884,1.871" transform="translate(-305.437 -389.235)" fill="#dee4f0"/>
          <path id="Trazado_728091" data-name="Trazado 728091" d="M119.642,428.888c.239-.191.519-.1.779-.1q15.534-.007,31.068,0c.29,0,.58-.01.869-.015l.021.038q-.01.045-.021.09-3.888.007-7.775.013-12.1,0-24.2,0c-.248,0-.5-.012-.745-.019" transform="translate(-104.714 -375.268)" fill="#3c73b9"/>
          <path id="Trazado_728092" data-name="Trazado 728092" d="M378.979,445.026q0,3.149,0,6.3c-.21-.063-.118-.239-.118-.361,0-1.98,0-3.961,0-5.941l.056-.006Z" transform="translate(-331.574 -389.49)" fill="#3c73b9"/>
          <path id="Trazado_728093" data-name="Trazado 728093" d="M396.855,451.122l-.027-6.224c.149.093.131.244.131.386q0,2.748,0,5.5a.417.417,0,0,1-.1.342" transform="translate(-347.315 -389.388)" fill="#11213f"/>
          <path id="Trazado_728094" data-name="Trazado 728094" d="M15.039,39.879q.013,2.176.025,4.352a.272.272,0,0,1-.115.269q0-2.074-.006-4.149a.626.626,0,0,1,.1-.472" transform="translate(-13.077 -34.903)" fill="#403212"/>
          <path id="Trazado_728095" data-name="Trazado 728095" d="M65.878,428.911a.418.418,0,0,1,.008-.115,15.56,15.56,0,0,1,2.717.115H65.878" transform="translate(-57.657 -375.29)" fill="#3c73b9"/>
          <path id="Trazado_728096" data-name="Trazado 728096" d="M379.153,443.838l-.056-.011-.056.006a3.774,3.774,0,0,1,2.225-.015l-2.113.02" transform="translate(-331.748 -388.303)" fill="#11213f"/>
          <path id="Trazado_728097" data-name="Trazado 728097" d="M381.861,428.987l.021-.09,1.85-.026a4.464,4.464,0,0,1-1.87.115" transform="translate(-334.216 -375.361)" fill="#29538c"/>
          <path id="Trazado_728098" data-name="Trazado 728098" d="M17.058,459.856q0,.171,0,.342c-.209-.113-.126-.227,0-.342" transform="translate(-14.819 -402.479)" fill="#dbcee6"/>
          <path id="Trazado_728099" data-name="Trazado 728099" d="M94.067,437.109l-.214.1a.088.088,0,0,1,0-.1l.216,0" transform="translate(-82.128 -382.566)" fill="#dbcee6"/>
          <path id="Trazado_728100" data-name="Trazado 728100" d="M87.862,443.939c-.028.06-.057.12-.141.076l.141-.076" transform="translate(-76.776 -388.548)" fill="#333232"/>
          <path id="Trazado_728101" data-name="Trazado 728101" d="M113.779,444.088l-.132.022c.032-.078.071-.119.132-.022" transform="translate(-99.467 -388.629)" fill="#333232"/>
          <path id="Trazado_728102" data-name="Trazado 728102" d="M115.783,117.461c-1.614.01-3.228.026-4.843.029q-5.032.009-10.064.006a1.75,1.75,0,0,1-1.767-1.774c0-.746.052-1.5-.014-2.236a1.877,1.877,0,0,1,1.8-1.975.623.623,0,0,0,.208-.1,9.024,9.024,0,0,0,.1-2.5,1.917,1.917,0,0,1,1.622-1.514,8.7,8.7,0,0,0,2.383-.1l-.011-.006c.227-.119.12-.332.12-.5q.01-8.834,0-17.668c0-.16.113-.373-.121-.485H98.337c.4,1.04.792,2.049,1.19,3.053q.986,2.487,1.985,4.969a1.161,1.161,0,0,0,.683.795,1.08,1.08,0,0,1,.713.931,6.052,6.052,0,0,1-.2,2.976,2.791,2.791,0,0,1-2.687,1.681c-2.114.034-4.23.01-6.345.007a3.011,3.011,0,0,1-2.768-2.268,4.983,4.983,0,0,1-.047-2.056,2.041,2.041,0,0,1,1.11-1.5c.25-.122.275-.347.35-.533q1.8-4.46,3.561-8.933c.332-.84.55-1.008,1.449-1.008,2.447,0,4.894-.012,7.341.011.444,0,.556-.12.54-.55a3.594,3.594,0,0,1,.753-2.552,2.811,2.811,0,0,1,2.9-.967,2.968,2.968,0,0,1,2.433,3.116,2.47,2.47,0,0,1,0,.435c-.058.4.09.521.5.517,2.488-.02,4.977,0,7.465-.019a1.266,1.266,0,0,1,1.344.908c1.2,3.056,2.43,6.1,3.641,9.153a.977.977,0,0,0,.448.529,1.528,1.528,0,0,1,.919,1.536,3.5,3.5,0,0,0,0,.932,2.984,2.984,0,0,1-1.166,2.8,2.056,2.056,0,0,1-1.358.446c-2.3.008-4.6.014-6.905,0a2.821,2.821,0,0,1-2.622-2.468c-.037-.917-.279-1.9.344-2.752.048-.066.08-.165.144-.194,1.076-.477,1.182-1.584,1.562-2.483.847-2,1.6-4.043,2.424-6.055.173-.421.082-.485-.32-.483-1.991.011-3.981.008-5.972,0-.272,0-.458-.007-.457.374q.028,9.147.029,18.293a7.6,7.6,0,0,0,2.346.113,2,2,0,0,1,1.742,2.059c0,.268,0,.536,0,.8a3.142,3.142,0,0,0,.034,1.1c.128.316.608.155.9.31a1.8,1.8,0,0,1,1.057,1.461q0,1.312,0,2.625a1.672,1.672,0,0,1-1.492,1.616l-.126.085m-2.114-4.1c-.043-.061-.088-.065-.135,0l-10.87.014c-1.827,0-1.818,0-1.7,1.872.02.308.127.378.408.377q6.149-.019,12.3-.023l1.832.02a3.407,3.407,0,0,0,.02-2.235l-1.851.013Zm-4.249-8.171a3.518,3.518,0,0,0-2.222-.011q0,1.053-.005,2.106a3.458,3.458,0,0,0,2.23-.015q0-1.04,0-2.08m-6.312,6.205c.046.033.092.1.139.1,3.316,0,6.632,0,9.947.009.281,0,.332-.122.35-.372.144-1.911.087-1.973-1.826-1.86a.452.452,0,0,0-.061.012l-.239-.047a1.642,1.642,0,0,0-.354-.079q-3.76-.007-7.519,0c-.16,0-.337-.041-.454.126a13.606,13.606,0,0,0,.016,2.118M94.368,96.7c-.289.37-.034.386.25.386q2.342,0,4.684,0c.11,0,.257.049.292-.131l-2.583-6.584-.173.028-2.471,6.3m27.887.249c-.722-2.133-1.6-4.206-2.49-6.272-.16-.371-.3-.114-.387.116-.333.845-.692,1.679-1.016,2.527-.446,1.167-.994,2.295-1.349,3.5-.231.4.129.261.258.261q2.371.014,4.742,0c.073,0,.285.136.243-.129M107.2,103.176a3.431,3.431,0,0,0,2.225-.011q0-5.312.006-10.624c0-2.092.016-4.184-.011-6.275a1.773,1.773,0,0,0-.424-1.468,1.146,1.146,0,0,0-1.31-.159c-.478.244-.479.747-.48,1.14-.021,5.8-.009,11.6-.005,17.4m-10.368-1.988h2.424c.083,0,.166,0,.249,0,1.289.041,1.691-.352,1.614-1.6-.03-.487-.091-.662-.633-.654-2.362.034-4.724.007-7.086.018-.857,0-.76-.188-.757.8,0,1.034.419,1.433,1.455,1.436.912,0,1.823,0,2.735,0M119.6,98.944c-1.241,0-2.483,0-3.724,0-.154,0-.345-.078-.453.1a1.442,1.442,0,0,0,1.229,2.134c1.779.006,3.558,0,5.338,0,1.9.008,1.786-.382,1.766-1.787-.006-.4-.132-.473-.494-.467-1.22.021-2.441.008-3.662.008" transform="translate(-79.446 -72.317)" fill="#12263f"/>
          <path id="Trazado_728103" data-name="Trazado 728103" d="M206.4,130.841c.233.112.121.324.121.484q.01,8.834,0,17.669c0,.166.108.379-.12.5q0-9.325,0-18.651" transform="translate(-180.651 -114.516)" fill="#3c73b9"/>
          <path id="Trazado_728104" data-name="Trazado 728104" d="M304.177,329.768q0-1.312,0-2.625a6.55,6.55,0,0,1,0,2.625" transform="translate(-266.222 -286.325)" fill="#11213f"/>
          <path id="Trazado_728105" data-name="Trazado 728105" d="M173.585,293.313a9.028,9.028,0,0,1-.1,2.5,12.492,12.492,0,0,1,.1-2.5" transform="translate(-151.824 -256.716)" fill="#29538c"/>
          <path id="Trazado_728106" data-name="Trazado 728106" d="M189.792,280.2a8.711,8.711,0,0,1-2.383.1,9.988,9.988,0,0,1,2.383-.1" transform="translate(-164.026 -245.221)" fill="#29538c"/>
          <path id="Trazado_728107" data-name="Trazado 728107" d="M257.779,280.311a7.606,7.606,0,0,1-2.346-.113,10.983,10.983,0,0,1,2.346.113" transform="translate(-223.562 -245.229)" fill="#29538c"/>
          <path id="Trazado_728108" data-name="Trazado 728108" d="M291.228,361.218l.126-.085c-.024.056-.047.112-.126.085" transform="translate(-254.891 -316.074)" fill="#181818"/>
          <path id="Trazado_728109" data-name="Trazado 728109" d="M222.359,116.334c0-5.8-.016-11.6.005-17.4,0-.393,0-.9.48-1.14a1.146,1.146,0,0,1,1.31.159,1.773,1.773,0,0,1,.424,1.467c.027,2.091.012,4.183.011,6.275q0,5.312-.006,10.624l-2.225.011" transform="translate(-194.608 -85.475)" fill="#ffca28"/>
          <path id="Trazado_728110" data-name="Trazado 728110" d="M184.871,331.192q-6.149.009-12.3.023c-.281,0-.388-.069-.408-.377-.122-1.872-.13-1.87,1.7-1.872l10.871-.014.135,0,.006.033q0,1.1,0,2.2" transform="translate(-150.643 -287.908)" fill="#ffca28"/>
          <path id="Trazado_728111" data-name="Trazado 728111" d="M109.89,215.545c-.912,0-1.823,0-2.735,0-1.036,0-1.451-.4-1.455-1.436,0-.992-.1-.8.757-.8,2.362-.011,4.724.016,7.086-.019.542-.008.6.168.633.654.077,1.253-.325,1.646-1.614,1.605-.083,0-.166,0-.249,0H109.89" transform="translate(-92.508 -186.674)" fill="#ffca28"/>
          <path id="Trazado_728112" data-name="Trazado 728112" d="M301.078,151.976c.355-1.2.9-2.33,1.349-3.5.324-.848.683-1.683,1.016-2.527.091-.23.228-.487.388-.116.891,2.066,1.768,4.138,2.49,6.272q-2.368.006-4.737.011c-.179,0-.376.043-.506-.142" transform="translate(-263.512 -127.476)" fill="#dee4f0"/>
          <path id="Trazado_728113" data-name="Trazado 728113" d="M291.2,213.318c1.221,0,2.442.013,3.662-.008.363-.006.489.065.494.467.02,1.4.13,1.795-1.766,1.787-1.779-.007-3.559,0-5.338,0a1.442,1.442,0,0,1-1.229-2.134c.108-.183.3-.1.453-.105,1.241-.006,2.483,0,3.724,0" transform="translate(-251.048 -186.691)" fill="#ffca28"/>
          <path id="Trazado_728114" data-name="Trazado 728114" d="M119.594,151l2.471-6.3.172-.027,2.583,6.584c-1.564,0-3.128.009-4.692.007-.212,0-.478.078-.534-.259" transform="translate(-104.672 -126.616)" fill="#dee4f0"/>
          <path id="Trazado_728115" data-name="Trazado 728115" d="M197.6,295.9l.239.047c0,.5-.022.995.017,1.489s-.13.639-.626.634c-2.647-.022-5.294-.009-7.942-.008a13.6,13.6,0,0,1-.016-2.118l1.368-.007,6.96-.037" transform="translate(-165.628 -258.984)" fill="#e8e8e8"/>
          <path id="Trazado_728116" data-name="Trazado 728116" d="M189.637,298.071c2.647,0,5.295-.014,7.942.008.5,0,.664-.146.625-.634s-.014-.992-.017-1.489a.417.417,0,0,1,.061-.012c1.913-.113,1.969-.051,1.826,1.86-.019.25-.07.373-.35.372q-4.974-.01-9.947-.009c-.046,0-.093-.062-.139-.1" transform="translate(-165.976 -258.988)" fill="#e8e8e8"/>
          <path id="Trazado_728117" data-name="Trazado 728117" d="M222.38,265.513q0-1.053.005-2.106l2.222.012q0,1.04,0,2.08a14.057,14.057,0,0,1-2.23.015" transform="translate(-194.633 -230.541)" fill="#ffcf38"/>
          <path id="Trazado_728118" data-name="Trazado 728118" d="M274.326,331.362q0-1.1,0-2.2l1.851-.012a12.368,12.368,0,0,1-.02,2.235l-1.832-.019" transform="translate(-240.098 -288.079)" fill="#ffca28"/>
          <path id="Trazado_728119" data-name="Trazado 728119" d="M197.833,295.3l-6.96.037-1.368.007c.117-.166.294-.126.454-.126q3.76,0,7.519,0a1.636,1.636,0,0,1,.354.079" transform="translate(-165.861 -258.382)" fill="#403212"/>
          <path id="Trazado_728120" data-name="Trazado 728120" d="M300.547,196.363c.13.185.327.142.506.142q2.369,0,4.737-.011c.042.265-.169.128-.243.129q-2.371.015-4.742,0c-.129,0-.489.134-.258-.261" transform="translate(-262.981 -171.863)" fill="#3c73b9"/>
          <path id="Trazado_728121" data-name="Trazado 728121" d="M118.7,195.415c.056.337.322.259.534.259,1.564,0,3.128,0,4.692-.007-.035.18-.182.131-.292.131q-2.342.005-4.684,0c-.284,0-.54-.016-.25-.386" transform="translate(-103.778 -171.033)" fill="#3c73b9"/>
          <path id="Trazado_728122" data-name="Trazado 728122" d="M224.642,262.2l-2.222-.012a3.517,3.517,0,0,1,2.222.012" transform="translate(-194.668 -229.32)" fill="#594619"/>
          <path id="Trazado_728123" data-name="Trazado 728123" d="M289.01,331.382a12.359,12.359,0,0,0,.02-2.235,3.407,3.407,0,0,1-.02,2.235" transform="translate(-252.95 -288.079)" fill="#594619"/>
          <path id="Trazado_728124" data-name="Trazado 728124" d="M222.41,247.247l2.225-.011a3.431,3.431,0,0,1-2.225.011" transform="translate(-194.66 -216.388)" fill="#594619"/>
          <path id="Trazado_728125" data-name="Trazado 728125" d="M222.38,280.183a14.076,14.076,0,0,0,2.23-.015,3.457,3.457,0,0,1-2.23.015" transform="translate(-194.633 -245.211)" fill="#594619"/>
          <path id="Trazado_728126" data-name="Trazado 728126" d="M273.336,328.649l-.135,0c.047-.061.092-.057.135,0" transform="translate(-239.113 -287.601)" fill="#403212"/>
        </g>
      </g>
    </g>
  </g>
</svg>
