<svg xmlns="http://www.w3.org/2000/svg" width="88.689" height="88.689" viewBox="0 0 88.689 88.689">
  <g id="Grupo_1018688" data-name="Grupo 1018688" transform="translate(-285 -13294.841)">
    <g id="Grupo_1018564" data-name="Grupo 1018564" transform="translate(285 13294.841)">
      <g id="Grupo_20664" data-name="Grupo 20664" transform="translate(0 0)">
        <path id="Trazado_99075" data-name="Trazado 99075" d="M44.345,0A44.345,44.345,0,1,1,0,44.345,44.345,44.345,0,0,1,44.345,0Z" fill="#6f88da"/>
        <path id="Trazado_715274" data-name="Trazado 715274" d="M35.122,0A35.122,35.122,0,1,1,0,35.122,35.122,35.122,0,0,1,35.122,0Z" transform="translate(9.223 9.223)" fill="#f6f6f6"/>
      </g>
    </g>
    <path id="Trazado_732925" data-name="Trazado 732925" d="M16.333-9.112q0,4.571-1.892,6.993A6.6,6.6,0,0,1,8.9.3a6.651,6.651,0,0,1-5.51-2.376Q1.483-4.45,1.438-8.885v-4.057q0-4.617,1.915-7.008A6.654,6.654,0,0,1,8.87-22.342a6.66,6.66,0,0,1,5.51,2.369q1.907,2.369,1.953,6.8Zm-4.375-4.46a8.07,8.07,0,0,0-.749-3.993,2.532,2.532,0,0,0-2.339-1.25,2.487,2.487,0,0,0-2.278,1.189,7.553,7.553,0,0,0-.78,3.72v5.364a8.472,8.472,0,0,0,.734,4.008A2.5,2.5,0,0,0,8.9-3.224a2.457,2.457,0,0,0,2.316-1.258,8.269,8.269,0,0,0,.742-3.849ZM29.91,0H25.536V-16.862l-5.222,1.62V-18.8l9.127-3.27h.469Z" transform="translate(312 13349)" fill="#12263f"/>
  </g>
</svg>
