<svg xmlns="http://www.w3.org/2000/svg" xmlns:xlink="http://www.w3.org/1999/xlink" width="88.689" height="88.689" viewBox="0 0 88.689 88.689">
  <defs>
    <clipPath id="clip-path">
      <rect id="Rectángulo_352612" data-name="Rectángulo 352612" width="49.524" height="49.512" fill="#12263f"/>
    </clipPath>
  </defs>
  <g id="Grupo_1018691" data-name="Grupo 1018691" transform="translate(-285 -14755.793)">
    <g id="Grupo_1018611" data-name="Grupo 1018611" transform="translate(285 14755.793)">
      <g id="Grupo_20664" data-name="Grupo 20664" transform="translate(0 0)">
        <path id="Trazado_99075" data-name="Trazado 99075" d="M44.345,0A44.345,44.345,0,1,1,0,44.345,44.345,44.345,0,0,1,44.345,0Z" fill="#6f88da"/>
        <path id="Trazado_715274" data-name="Trazado 715274" d="M35.122,0A35.122,35.122,0,1,1,0,35.122,35.122,35.122,0,0,1,35.122,0Z" transform="translate(9.223 9.223)" fill="#f6f6f6"/>
      </g>
    </g>
    <g id="Grupo_1018614" data-name="Grupo 1018614" transform="translate(302.383 14775.536)">
      <g id="Grupo_1018613" data-name="Grupo 1018613" clip-path="url(#clip-path)">
        <path id="Trazado_732344" data-name="Trazado 732344" d="M30.361,203.731c-.883-.232-1.77-.451-2.645-.708a.8.8,0,0,1-.43-.391c-.209-.432-.317-.917-.556-1.329a.9.9,0,0,1,.066-1.079c.383-.583.709-1.2,1.082-1.792a.37.37,0,0,0-.072-.551q-1.9-1.876-3.776-3.775a.375.375,0,0,0-.554-.067c-.635.395-1.292.754-1.922,1.156a.7.7,0,0,1-.813.05,3.935,3.935,0,0,0-1.1-.465,1.053,1.053,0,0,1-.887-1.017c-.106-.6-.328-1.186-.441-1.788-.069-.368-.238-.432-.573-.429q-2.545.024-5.09,0c-.35,0-.53.065-.607.452a22.361,22.361,0,0,1-.561,2.169.9.9,0,0,1-.416.464c-.335.177-.743.231-1.055.436a1.26,1.26,0,0,1-1.61-.11,12.234,12.234,0,0,0-1.544-.911.536.536,0,0,0-.492.054q-1.927,1.883-3.811,3.81a.531.531,0,0,0-.058.491c.373.685.772,1.358,1.189,2.018a.654.654,0,0,1,.024.726c-.233.476-.389.989-.623,1.464a.87.87,0,0,1-.463.417c-.73.221-1.472.406-2.217.576-.288.066-.412.163-.409.488.018,1.763.015,3.526,0,5.288,0,.293.1.4.377.462.744.17,1.487.353,2.216.578a.941.941,0,0,1,.5.443c.239.472.388.99.628,1.462a.647.647,0,0,1-.044.725c-.4.649-.777,1.316-1.182,1.965a.375.375,0,0,0,.063.555q1.9,1.876,3.776,3.775a.373.373,0,0,0,.553.069c.648-.405,1.321-.77,1.965-1.182a.672.672,0,0,1,.771-.025,4.806,4.806,0,0,0,1.144.482,1.024,1.024,0,0,1,.836.946c.154.763.387,1.51.586,2.264H18.18c.2-.754.431-1.5.586-2.264a1.027,1.027,0,0,1,.834-.949c.429-.1.819-.361,1.242-.5a.8.8,0,0,1,.575.02c.7.381,1.383.793,2.06,1.215a.373.373,0,0,0,.553-.072q1.876-1.9,3.775-3.775a.373.373,0,0,0,.071-.553c-.38-.6-.716-1.237-1.107-1.835a.839.839,0,0,1-.06-.991c.241-.431.362-.927.578-1.374a.8.8,0,0,1,.432-.39c.875-.258,1.761-.476,2.644-.708v-5.989m-1.6,4.763c-.8.206-1.559.382-2.306.608a.832.832,0,0,0-.451.422q-.631,1.431-1.2,2.891a.769.769,0,0,0,.01.573c.38.7.8,1.374,1.224,2.089-.758.755-1.511,1.483-2.234,2.238a.42.42,0,0,1-.635.066c-.562-.355-1.13-.7-1.716-1.015a.772.772,0,0,0-.574-.025c-.972.379-1.924.806-2.9,1.179a.623.623,0,0,0-.453.506c-.174.756-.383,1.5-.579,2.257H13.411c-.2-.762-.411-1.511-.58-2.27a.617.617,0,0,0-.464-.495c-.944-.36-1.883-.735-2.8-1.151a.654.654,0,0,0-.72.013c-.656.414-1.331.8-1.937,1.155L4.37,215.005c.366-.62.742-1.285,1.148-1.931a.653.653,0,0,0,.031-.719c-.419-.919-.792-1.858-1.158-2.8-.1-.252-.191-.408-.486-.472-.771-.168-1.531-.387-2.277-.582v-3.555c.774-.2,1.535-.378,2.281-.6a.827.827,0,0,0,.453-.415c.421-.954.817-1.919,1.2-2.891a.769.769,0,0,0-.01-.573c-.379-.7-.8-1.375-1.157-1.98l2.545-2.552c.607.359,1.27.74,1.919,1.142a.62.62,0,0,0,.677.03c.935-.423,1.9-.782,2.839-1.194a.83.83,0,0,0,.429-.441c.232-.758.413-1.531.614-2.3h3.55c.185.729.382,1.447.546,2.173a.768.768,0,0,0,.586.623c.92.327,1.82.714,2.707,1.122a.652.652,0,0,0,.72-.016c.657-.413,1.333-.795,1.943-1.155L26,198.448c-.349.589-.707,1.227-1.1,1.842a.791.791,0,0,0-.037.9,23.291,23.291,0,0,1,1.083,2.615.8.8,0,0,0,.658.614c.722.16,1.436.359,2.158.543v3.536" transform="translate(19.163 -172.387)" fill="#12263f"/>
        <path id="Trazado_732345" data-name="Trazado 732345" d="M324.455,336.651a21.022,21.022,0,0,0,2.661-.783,8.706,8.706,0,0,0,4.275-11.937.874.874,0,0,1-.012-.837c.473-1.076.923-2.162,1.429-3.355-.888.1-1.685.185-2.481.278-.677.079-1.351.181-2.03.239a1.211,1.211,0,0,1-.607-.136,8.8,8.8,0,0,0-12.9,8.294,8.757,8.757,0,0,0,7.533,8.147,2.532,2.532,0,0,1,.331.091Zm1.737-7.548a11.715,11.715,0,0,0,.53-1.774,10.317,10.317,0,0,0,.014-1.992,3.244,3.244,0,0,0-3.009-3.055,3.116,3.116,0,0,0-3.319,2.794c-.11,1.336-.309,2.734.644,3.972-1.543.63-2.854,1.426-3.068,3.362a7.192,7.192,0,0,1,9.293-10.7,1.457,1.457,0,0,0,.785.164c.71-.045,1.416-.146,2.2-.233-.246.582-.452,1.1-.686,1.611a.723.723,0,0,0,.047.779,6.986,6.986,0,0,1,1.021,5.01,6.888,6.888,0,0,1-1.517,3.327c-.212-1.894-1.514-2.689-2.933-3.27m-6.341,2.739-.085-.138a7.833,7.833,0,0,1,.875-.68,14.072,14.072,0,0,1,1.559-.778c.415-.176.651-.408.56-.887-.07-.371.114-.761-.238-1.116a1.947,1.947,0,0,1-.532-1.025,10.152,10.152,0,0,1-.018-1.891,1.543,1.543,0,0,1,1.125-1.379,1.492,1.492,0,0,1,1.649.52c.54.669.676,2.916.077,3.505a2.065,2.065,0,0,0-.474,1.629.486.486,0,0,0,.335.528c.63.3,1.262.6,1.867.942a5.665,5.665,0,0,1,.8.662l-.084.108Zm8.067,1.644a6.914,6.914,0,0,1-8.732,0Z" transform="translate(-314.768 -287.139)" fill="#12263f"/>
        <path id="Trazado_732346" data-name="Trazado 732346" d="M23.964,1.9A2.574,2.574,0,0,0,22.058.06,3.5,3.5,0,0,0,21.365,0q-9.38,0-18.76,0A2.4,2.4,0,0,0,0,2.617Q0,7.206,0,11.8a2.4,2.4,0,0,0,2.591,2.579c2.043,0,4.086,0,6.173,0v3c.211-.119.349-.193.483-.273,1.411-.845,2.817-1.7,4.236-2.53a1.454,1.454,0,0,1,.695-.191c2.245-.014,4.492-.057,6.735.009a2.747,2.747,0,0,0,3.049-1.913ZM10.388,12.778H9.772q-3.542,0-7.085,0c-.824,0-1.087-.255-1.088-1.058q0-4.539,0-9.078c0-.778.268-1.043,1.052-1.043q9.33,0,18.66,0c.787,0,1.054.263,1.055,1.04q0,4.539,0,9.078c0,.806-.261,1.061-1.084,1.061-2.428,0-4.856.01-7.284-.008a2.124,2.124,0,0,0-1.212.343c-.766.485-1.553.936-2.4,1.441Z" transform="translate(25.561 0)" fill="#12263f"/>
        <path id="Trazado_732347" data-name="Trazado 732347" d="M275.489,83.5V79.841c.488,0,.945,0,1.4,0a2.412,2.412,0,0,0,2.608-2.614q0-5.39,0-10.781a2.4,2.4,0,0,0-2.595-2.575q-9.385,0-18.77,0a2.4,2.4,0,0,0-2.595,2.576q-.005,5.415,0,10.83A2.4,2.4,0,0,0,258.1,79.84c3.178,0,6.357-.005,9.535.011a2.244,2.244,0,0,1,.944.225c2.147,1.053,4.283,2.131,6.423,3.2.145.072.294.134.49.223m-1.577-2.567c-.226-.1-.375-.169-.521-.242-1.485-.743-2.965-1.5-4.459-2.222a2.146,2.146,0,0,0-.9-.214c-3.259-.015-6.519-.009-9.778-.01-.88,0-1.121-.241-1.121-1.125q0-5.237,0-10.474c0-.954.222-1.178,1.168-1.178h17.462c.416,0,.832-.008,1.247,0a.793.793,0,0,1,.887.852q.011,5.537,0,11.073a.788.788,0,0,1-.842.847c-.2.01-.4,0-.6,0h-2.546Z" transform="translate(-255.536 -57.481)" fill="#12263f"/>
        <path id="Trazado_732348" data-name="Trazado 732348" d="M65.485,247.511a9.582,9.582,0,1,0,9.591,9.576,9.6,9.6,0,0,0-9.591-9.576m.021,17.568a7.986,7.986,0,1,1,7.972-8.026,8,8,0,0,1-7.972,8.026" transform="translate(-31.143 -222.754)" fill="#12263f"/>
        <path id="Trazado_732349" data-name="Trazado 732349" d="M162.141,47.923a2.394,2.394,0,1,0,2.382,2.381,2.4,2.4,0,0,0-2.382-2.381m-.808,2.392a.795.795,0,1,1,.793.8.8.8,0,0,1-.793-.8" transform="translate(-130.975 -43.129)" fill="#12263f"/>
        <path id="Trazado_732350" data-name="Trazado 732350" d="M98.25,52.711a2.394,2.394,0,1,0-2.4-2.359,2.405,2.405,0,0,0,2.4,2.359m-.008-1.6a.795.795,0,1,1,.792-.8.8.8,0,0,1-.792.8" transform="translate(-60.697 -43.129)" fill="#12263f"/>
        <path id="Trazado_732351" data-name="Trazado 732351" d="M31.961,50.324a2.394,2.394,0,1,0,2.36-2.4,2.405,2.405,0,0,0-2.36,2.4m2.387.786a.795.795,0,1,1,.8-.787.8.8,0,0,1-.8.787" transform="translate(9.578 -43.128)" fill="#12263f"/>
        <path id="Trazado_732352" data-name="Trazado 732352" d="M318.154,100.918h-1.605v3.135H314.96V99.337h-1.605v4.724h-1.588V96.135h-1.605v7.916h-1.606V97.724h-1.588v6.335h-1.588V96.136h-1.6v9.51H319.7V104.1h-1.546Z" transform="translate(-300.561 -86.519)" fill="#12263f"/>
        <path id="Trazado_732353" data-name="Trazado 732353" d="M108.626,305.005a4.79,4.79,0,1,0-4.793-4.788,4.807,4.807,0,0,0,4.793,4.788m.015-1.6a3.193,3.193,0,1,1,3.176-3.223,3.2,3.2,0,0,1-3.176,3.223" transform="translate(-74.275 -265.877)" fill="#12263f"/>
      </g>
    </g>
  </g>
</svg>
