<svg xmlns="http://www.w3.org/2000/svg" xmlns:xlink="http://www.w3.org/1999/xlink" width="819.572" height="447.833" viewBox="0 0 819.572 447.833">
  <defs>
    <clipPath id="clip-path">
      <rect id="Rectángulo_352591" data-name="Rectángulo 352591" width="819.572" height="447.833" fill="none"/>
    </clipPath>
  </defs>
  <g id="Grupo_1018675" data-name="Grupo 1018675" transform="translate(-390.428 -857.227)">
    <path id="Trazado_732061" data-name="Trazado 732061" d="M346.744,253.6h28.9V388.455H3.187v89.9h801.42v-89.9h-368.6V253.6H461.05l-55.226-78.344Z" transform="translate(389.873 826.701)" fill="#12263f"/>
    <path id="Trazado_732850" data-name="Trazado 732850" d="M0,0H33.392V66.785H0Z" transform="translate(393.06 1138.097)" fill="#034867"/>
    <path id="Trazado_732851" data-name="Trazado 732851" d="M0,0H33.392V101.462H0Z" transform="translate(441.865 1103.42)" fill="#0c6188"/>
    <path id="Trazado_732852" data-name="Trazado 732852" d="M0,0H33.392V138.707H0Z" transform="translate(490.669 1066.174)" fill="#1b7fad"/>
    <path id="Trazado_732853" data-name="Trazado 732853" d="M0,0H33.392V177.237H0Z" transform="translate(539.474 1027.645)" fill="#219cd5"/>
    <path id="Trazado_732854" data-name="Trazado 732854" d="M0,0H33.392V217.052H0Z" transform="translate(588.278 987.83)" fill="#4adbd1"/>
    <path id="Trazado_732855" data-name="Trazado 732855" d="M0,0H33.392V258.15H0Z" transform="translate(637.082 946.732)" fill="#6f88da"/>
    <path id="Trazado_732856" data-name="Trazado 732856" d="M0,0H33.392V294.111H0Z" transform="translate(685.887 910.771)" fill="#12263f"/>
    <path id="Trazado_732857" data-name="Trazado 732857" d="M0,0H33.392V66.785H0Z" transform="translate(1161.087 1138.097)" fill="#034867"/>
    <path id="Trazado_732858" data-name="Trazado 732858" d="M0,0H33.392V101.462H0Z" transform="translate(1112.283 1103.42)" fill="#0c6188"/>
    <path id="Trazado_732859" data-name="Trazado 732859" d="M0,0H33.392V138.707H0Z" transform="translate(1063.479 1066.174)" fill="#1b7fad"/>
    <path id="Trazado_732860" data-name="Trazado 732860" d="M0,0H33.392V177.237H0Z" transform="translate(1014.674 1027.645)" fill="#219cd5"/>
    <path id="Trazado_732861" data-name="Trazado 732861" d="M0,0H33.392V217.052H0Z" transform="translate(965.87 987.83)" fill="#4adbd1"/>
    <path id="Trazado_732862" data-name="Trazado 732862" d="M0,0H33.392V258.15H0Z" transform="translate(917.065 946.732)" fill="#6f88da"/>
    <path id="Trazado_732863" data-name="Trazado 732863" d="M0,0H33.392V294.111H0Z" transform="translate(868.261 910.771)" fill="#12263f"/>
    <path id="Trazado_732864" data-name="Trazado 732864" d="M17.527-2.516A7.119,7.119,0,0,1,14.4-.458,13.111,13.111,0,0,1,9.912.273,8.883,8.883,0,0,1,5.38-.854,7.523,7.523,0,0,1,2.372-4.129,11.524,11.524,0,0,1,1.285-9.174v-1.354a12.239,12.239,0,0,1,1-5.161,7.434,7.434,0,0,1,2.9-3.336A8.349,8.349,0,0,1,9.625-20.18a8.314,8.314,0,0,1,5.537,1.688,7.216,7.216,0,0,1,2.365,4.915H13.535a3.969,3.969,0,0,0-1.21-2.5,3.864,3.864,0,0,0-2.577-.793A3.637,3.637,0,0,0,6.563-15.3a8.267,8.267,0,0,0-1.107,4.676v1.271a7.87,7.87,0,0,0,1.189,4.73,4.073,4.073,0,0,0,3.486,1.6,4.55,4.55,0,0,0,3.295-.984V-7.437H9.693v-3.021h7.834ZM32.088-4.1H24.9L23.529,0H19.168l7.41-19.906h3.8L37.83,0H33.469ZM26-7.424H30.98l-2.5-7.451Zm21.055.137H43.791V0h-4.1V-19.906h7.4a8.361,8.361,0,0,1,5.441,1.572,5.426,5.426,0,0,1,1.914,4.443,6.124,6.124,0,0,1-.882,3.4,6.014,6.014,0,0,1-2.673,2.167L55.193-.191V0h-4.4Zm-3.268-3.322H47.1a3.388,3.388,0,0,0,2.393-.786,2.81,2.81,0,0,0,.848-2.167,3.008,3.008,0,0,0-.8-2.215,3.324,3.324,0,0,0-2.454-.807H43.791ZM68.8-4.1H61.605L60.238,0H55.877l7.41-19.906h3.8L74.539,0H70.178ZM62.713-7.424h4.977l-2.5-7.451ZM92.586,0h-4.1L80.5-13.1V0H76.4V-19.906h4.1l8,13.125V-19.906h4.088Zm18.17-16.584h-6.1V0h-4.1V-16.584H94.541v-3.322h16.215ZM117.455,0h-4.1V-19.906h4.1ZM125.6-3.295h10.035V0H120.477V-2.406l9.844-14.178h-9.83v-3.322h14.93v2.352Zm24.2-.807h-7.191L141.248,0h-4.361l7.41-19.906h3.8L155.549,0h-4.361Zm-6.084-3.322H148.7l-2.5-7.451Zm21.055.137H161.51V0h-4.1V-19.906h7.4a8.361,8.361,0,0,1,5.441,1.572,5.426,5.426,0,0,1,1.914,4.443,6.124,6.124,0,0,1-.882,3.4,6.014,6.014,0,0,1-2.673,2.167l4.307,8.135V0h-4.4Zm-3.268-3.322h3.309a3.388,3.388,0,0,0,2.393-.786,2.81,2.81,0,0,0,.848-2.167,3.008,3.008,0,0,0-.8-2.215,3.324,3.324,0,0,0-2.454-.807H161.51Zm36.367,3.979A7.044,7.044,0,0,1,195.5-1.572a8.331,8.331,0,0,1-5.64,1.846A7.491,7.491,0,0,1,183.843-2.3a10.567,10.567,0,0,1-2.194-7.075V-10.6a11.933,11.933,0,0,1,1.012-5.059,7.582,7.582,0,0,1,2.892-3.356,8.1,8.1,0,0,1,4.368-1.169,8.115,8.115,0,0,1,5.551,1.846,7.57,7.57,0,0,1,2.434,5.182h-4.1a4.157,4.157,0,0,0-1.073-2.8,3.974,3.974,0,0,0-2.81-.868,3.485,3.485,0,0,0-3.069,1.47,8.237,8.237,0,0,0-1.046,4.56v1.5a8.816,8.816,0,0,0,.978,4.717,3.42,3.42,0,0,0,3.083,1.49,4.049,4.049,0,0,0,2.837-.868,3.921,3.921,0,0,0,1.073-2.687ZM216.922-9.5a12.017,12.017,0,0,1-1.039,5.154A7.825,7.825,0,0,1,212.909-.93a8.226,8.226,0,0,1-4.437,1.2,8.282,8.282,0,0,1-4.416-1.189,7.9,7.9,0,0,1-3.008-3.4,11.673,11.673,0,0,1-1.08-5.079v-.984a11.954,11.954,0,0,1,1.06-5.175,7.889,7.889,0,0,1,2.994-3.432,8.236,8.236,0,0,1,4.423-1.2,8.236,8.236,0,0,1,4.423,1.2,7.889,7.889,0,0,1,2.994,3.432,11.92,11.92,0,0,1,1.06,5.161Zm-4.156-.9a8.377,8.377,0,0,0-1.121-4.758,3.653,3.653,0,0,0-3.2-1.627,3.655,3.655,0,0,0-3.186,1.606,8.281,8.281,0,0,0-1.135,4.71V-9.5a8.482,8.482,0,0,0,1.121,4.73,3.644,3.644,0,0,0,3.227,1.682,3.611,3.611,0,0,0,3.172-1.62,8.432,8.432,0,0,0,1.121-4.724ZM236.09,0h-4.1L224-13.1V0h-4.1V-19.906H224l8,13.125V-19.906h4.088Zm3.582,0V-19.906H245.8a9.3,9.3,0,0,1,4.7,1.183,8.247,8.247,0,0,1,3.233,3.363,10.374,10.374,0,0,1,1.162,4.956v.916a10.4,10.4,0,0,1-1.142,4.936,8.176,8.176,0,0,1-3.22,3.35A9.372,9.372,0,0,1,245.838,0Zm4.1-16.584V-3.295h1.982a4.454,4.454,0,0,0,3.678-1.572,7.1,7.1,0,0,0,1.3-4.5v-1.053a7.218,7.218,0,0,0-1.258-4.6,4.439,4.439,0,0,0-3.678-1.565ZM262.23,0h-4.1V-19.906h4.1Zm19.428-6.631a7.044,7.044,0,0,1-2.372,5.059,8.331,8.331,0,0,1-5.64,1.846A7.491,7.491,0,0,1,267.624-2.3a10.567,10.567,0,0,1-2.194-7.075V-10.6a11.933,11.933,0,0,1,1.012-5.059,7.582,7.582,0,0,1,2.892-3.356A8.1,8.1,0,0,1,273.7-20.18a8.115,8.115,0,0,1,5.551,1.846,7.57,7.57,0,0,1,2.434,5.182h-4.1a4.157,4.157,0,0,0-1.073-2.8,3.974,3.974,0,0,0-2.81-.868,3.485,3.485,0,0,0-3.069,1.47,8.237,8.237,0,0,0-1.046,4.56v1.5a8.816,8.816,0,0,0,.978,4.717,3.42,3.42,0,0,0,3.083,1.49,4.049,4.049,0,0,0,2.837-.868,3.921,3.921,0,0,0,1.073-2.687ZM288.713,0h-4.1V-19.906h4.1Zm20.152-9.5a12.017,12.017,0,0,1-1.039,5.154A7.825,7.825,0,0,1,304.853-.93a8.226,8.226,0,0,1-4.437,1.2A8.282,8.282,0,0,1,296-.916a7.9,7.9,0,0,1-3.008-3.4,11.673,11.673,0,0,1-1.08-5.079v-.984a11.954,11.954,0,0,1,1.06-5.175,7.889,7.889,0,0,1,2.994-3.432,8.236,8.236,0,0,1,4.423-1.2,8.236,8.236,0,0,1,4.423,1.2,7.889,7.889,0,0,1,2.994,3.432,11.92,11.92,0,0,1,1.06,5.161Zm-4.156-.9a8.377,8.377,0,0,0-1.121-4.758,3.654,3.654,0,0,0-3.2-1.627,3.655,3.655,0,0,0-3.186,1.606,8.281,8.281,0,0,0-1.135,4.71V-9.5a8.482,8.482,0,0,0,1.121,4.73,3.644,3.644,0,0,0,3.227,1.682,3.611,3.611,0,0,0,3.172-1.62,8.433,8.433,0,0,0,1.121-4.724ZM328.033,0h-4.1l-7.984-13.1V0h-4.1V-19.906h4.1l8,13.125V-19.906h4.088Zm15.559-8.627h-7.875v5.332h9.242V0H331.615V-19.906h13.316v3.322h-9.215v4.744h7.875Zm14.1,3.4a2.1,2.1,0,0,0-.82-1.784,10.76,10.76,0,0,0-2.953-1.312,20.935,20.935,0,0,1-3.377-1.36q-3.391-1.832-3.391-4.936a4.807,4.807,0,0,1,.909-2.878,5.93,5.93,0,0,1,2.611-1.976,9.829,9.829,0,0,1,3.821-.711,8.946,8.946,0,0,1,3.8.772,6.052,6.052,0,0,1,2.591,2.181,5.706,5.706,0,0,1,.923,3.2h-4.1a2.684,2.684,0,0,0-.861-2.126,3.541,3.541,0,0,0-2.42-.759,3.783,3.783,0,0,0-2.338.636,2.005,2.005,0,0,0-.834,1.675,1.921,1.921,0,0,0,.978,1.627,11.044,11.044,0,0,0,2.878,1.23,12.435,12.435,0,0,1,5.1,2.611,5.2,5.2,0,0,1,1.6,3.883A4.791,4.791,0,0,1,359.848-1.2a8.559,8.559,0,0,1-5.264,1.47A10.164,10.164,0,0,1,350.4-.567a6.62,6.62,0,0,1-2.878-2.3,5.9,5.9,0,0,1-.991-3.391h4.115q0,3.295,3.938,3.295a3.83,3.83,0,0,0,2.283-.595A1.935,1.935,0,0,0,357.688-5.223ZM387.738,0h-4.1l-7.984-13.1V0h-4.1V-19.906h4.1l8,13.125V-19.906h4.088ZM403.3-8.627h-7.875v5.332h9.242V0H391.32V-19.906h13.316v3.322h-9.215v4.744H403.3Zm19.4,2a7.044,7.044,0,0,1-2.372,5.059,8.331,8.331,0,0,1-5.64,1.846A7.491,7.491,0,0,1,408.663-2.3a10.567,10.567,0,0,1-2.194-7.075V-10.6a11.933,11.933,0,0,1,1.012-5.059,7.582,7.582,0,0,1,2.892-3.356,8.1,8.1,0,0,1,4.368-1.169,8.115,8.115,0,0,1,5.551,1.846,7.57,7.57,0,0,1,2.434,5.182h-4.1a4.157,4.157,0,0,0-1.073-2.8,3.974,3.974,0,0,0-2.81-.868,3.485,3.485,0,0,0-3.069,1.47,8.237,8.237,0,0,0-1.046,4.56v1.5a8.816,8.816,0,0,0,.978,4.717,3.42,3.42,0,0,0,3.083,1.49,4.049,4.049,0,0,0,2.837-.868A3.921,3.921,0,0,0,418.6-6.631Zm14.67-2h-7.875v5.332h9.242V0H425.391V-19.906h13.316v3.322h-9.215v4.744h7.875Zm14.1,3.4a2.1,2.1,0,0,0-.82-1.784,10.76,10.76,0,0,0-2.953-1.312,20.935,20.935,0,0,1-3.377-1.36q-3.391-1.832-3.391-4.936a4.807,4.807,0,0,1,.909-2.878,5.93,5.93,0,0,1,2.611-1.976,9.829,9.829,0,0,1,3.821-.711,8.946,8.946,0,0,1,3.8.772,6.052,6.052,0,0,1,2.591,2.181,5.706,5.706,0,0,1,.923,3.2h-4.1a2.684,2.684,0,0,0-.861-2.126,3.541,3.541,0,0,0-2.42-.759,3.783,3.783,0,0,0-2.338.636,2.005,2.005,0,0,0-.834,1.675A1.921,1.921,0,0,0,446-12.975a11.044,11.044,0,0,0,2.878,1.23,12.435,12.435,0,0,1,5.1,2.611,5.2,5.2,0,0,1,1.6,3.883A4.791,4.791,0,0,1,453.623-1.2a8.559,8.559,0,0,1-5.264,1.47,10.164,10.164,0,0,1-4.184-.841,6.62,6.62,0,0,1-2.878-2.3,5.9,5.9,0,0,1-.991-3.391h4.115q0,3.295,3.938,3.295a3.83,3.83,0,0,0,2.283-.595A1.935,1.935,0,0,0,451.463-5.223ZM469.592-4.1H462.4L461.033,0h-4.361l7.41-19.906h3.8L475.334,0h-4.361Zm-6.084-3.322h4.977l-2.5-7.451Zm21.055.137h-3.268V0h-4.1V-19.906h7.4a8.361,8.361,0,0,1,5.441,1.572,5.426,5.426,0,0,1,1.914,4.443,6.124,6.124,0,0,1-.882,3.4,6.014,6.014,0,0,1-2.673,2.167L492.7-.191V0h-4.4Zm-3.268-3.322H484.6A3.388,3.388,0,0,0,487-11.4a2.81,2.81,0,0,0,.848-2.167,3.008,3.008,0,0,0-.8-2.215,3.324,3.324,0,0,0-2.454-.807h-3.295ZM499.424,0h-4.1V-19.906h4.1Zm15.285-4.1h-7.191L506.15,0h-4.361l7.41-19.906H513L520.451,0H516.09Zm-6.084-3.322H513.6l-2.5-7.451Zm24.008,2.2a2.1,2.1,0,0,0-.82-1.784,10.76,10.76,0,0,0-2.953-1.312,20.934,20.934,0,0,1-3.377-1.36q-3.391-1.832-3.391-4.936A4.807,4.807,0,0,1,523-17.493a5.931,5.931,0,0,1,2.611-1.976,9.829,9.829,0,0,1,3.821-.711,8.946,8.946,0,0,1,3.8.772,6.052,6.052,0,0,1,2.591,2.181,5.706,5.706,0,0,1,.923,3.2h-4.1a2.684,2.684,0,0,0-.861-2.126,3.541,3.541,0,0,0-2.42-.759,3.783,3.783,0,0,0-2.338.636,2.005,2.005,0,0,0-.834,1.675,1.921,1.921,0,0,0,.978,1.627,11.044,11.044,0,0,0,2.878,1.23,12.435,12.435,0,0,1,5.1,2.611,5.2,5.2,0,0,1,1.6,3.883A4.79,4.79,0,0,1,534.793-1.2a8.559,8.559,0,0,1-5.264,1.47,10.164,10.164,0,0,1-4.184-.841,6.62,6.62,0,0,1-2.878-2.3,5.9,5.9,0,0,1-.991-3.391h4.115q0,3.295,3.938,3.295a3.83,3.83,0,0,0,2.283-.595A1.935,1.935,0,0,0,532.633-5.223ZM550.6-7.014V0h-4.1V-19.906h7.766a8.984,8.984,0,0,1,3.944.82,6.045,6.045,0,0,1,2.618,2.331,6.5,6.5,0,0,1,.916,3.438,5.716,5.716,0,0,1-2,4.614,8.342,8.342,0,0,1-5.544,1.688Zm0-3.322h3.664a3.6,3.6,0,0,0,2.481-.766,2.785,2.785,0,0,0,.854-2.187,3.283,3.283,0,0,0-.861-2.365,3.217,3.217,0,0,0-2.379-.93H550.6ZM570.953-4.1h-7.191L562.395,0h-4.361l7.41-19.906h3.8L576.7,0h-4.361Zm-6.084-3.322h4.977l-2.5-7.451Zm21.055.137h-3.268V0h-4.1V-19.906h7.4a8.361,8.361,0,0,1,5.441,1.572,5.426,5.426,0,0,1,1.914,4.443,6.124,6.124,0,0,1-.882,3.4,6.014,6.014,0,0,1-2.673,2.167l4.307,8.135V0h-4.4Zm-3.268-3.322h3.309a3.388,3.388,0,0,0,2.393-.786,2.81,2.81,0,0,0,.848-2.167,3.008,3.008,0,0,0-.8-2.215,3.324,3.324,0,0,0-2.454-.807h-3.295ZM607.662-4.1h-7.191L599.1,0h-4.361l7.41-19.906h3.8L613.4,0h-4.361Zm-6.084-3.322h4.977l-2.5-7.451Zm24.76,4.129h8.709V0H622.237V-19.906h4.1ZM649.149-4.1h-7.191L640.59,0h-4.361l7.41-19.906h3.8L654.891,0H650.53Zm-6.084-3.322h4.977l-2.5-7.451Z" transform="translate(462.22 1253.598)" fill="#fff"/>
    <path id="Trazado_732865" data-name="Trazado 732865" d="M13.016-4.1H5.824L4.457,0H.1l7.41-19.906h3.8L18.758,0H14.4ZM6.932-7.424h4.977l-2.5-7.451Zm25.405-9.16h-6.1V0h-4.1V-16.584H16.122v-3.322H32.337ZM46.651-8.627H38.776v5.332h9.242V0H34.675V-19.906H47.991v3.322H38.776v4.744h7.875ZM66.612,0h-4.1L54.526-13.1V0h-4.1V-19.906h4.1l8,13.125V-19.906h4.088ZM85.821-6.631a7.044,7.044,0,0,1-2.372,5.059A8.331,8.331,0,0,1,77.81.273,7.491,7.491,0,0,1,71.787-2.3a10.567,10.567,0,0,1-2.194-7.075V-10.6A11.933,11.933,0,0,1,70.6-15.654,7.582,7.582,0,0,1,73.5-19.011a8.1,8.1,0,0,1,4.368-1.169,8.115,8.115,0,0,1,5.551,1.846,7.57,7.57,0,0,1,2.434,5.182h-4.1a4.157,4.157,0,0,0-1.073-2.8,3.974,3.974,0,0,0-2.81-.868,3.485,3.485,0,0,0-3.069,1.47,8.237,8.237,0,0,0-1.046,4.56v1.5a8.816,8.816,0,0,0,.978,4.717,3.42,3.42,0,0,0,3.083,1.49,4.049,4.049,0,0,0,2.837-.868A3.921,3.921,0,0,0,81.72-6.631ZM92.876,0h-4.1V-19.906h4.1Zm20.152-9.5a12.017,12.017,0,0,1-1.039,5.154A7.825,7.825,0,0,1,109.016-.93a8.226,8.226,0,0,1-4.437,1.2,8.282,8.282,0,0,1-4.416-1.189,7.9,7.9,0,0,1-3.008-3.4,11.673,11.673,0,0,1-1.08-5.079v-.984a11.954,11.954,0,0,1,1.06-5.175,7.889,7.889,0,0,1,2.994-3.432,8.236,8.236,0,0,1,4.423-1.2,8.236,8.236,0,0,1,4.423,1.2,7.889,7.889,0,0,1,2.994,3.432,11.92,11.92,0,0,1,1.06,5.161Zm-4.156-.9a8.377,8.377,0,0,0-1.121-4.758,3.653,3.653,0,0,0-3.2-1.627,3.655,3.655,0,0,0-3.186,1.606,8.281,8.281,0,0,0-1.135,4.71V-9.5a8.482,8.482,0,0,0,1.121,4.73,3.644,3.644,0,0,0,3.227,1.682,3.611,3.611,0,0,0,3.172-1.62,8.433,8.433,0,0,0,1.121-4.724Zm-3.527-14.834h4.307L105.864-21h-3.213ZM132.2,0h-4.1L120.11-13.1V0h-4.1V-19.906h4.1l8,13.125V-19.906H132.2Zm14.916,0h-4.1V-19.906h4.1ZM167.1,0H163l-7.984-13.1V0h-4.1V-19.906h4.1l8,13.125V-19.906H167.1Zm18.17-16.584h-6.1V0h-4.1V-16.584h-6.016v-3.322h16.215Zm14.314,7.957H191.71v5.332h9.242V0H187.608V-19.906h13.316v3.322H191.71v4.744h7.875Zm19.523,6.111a7.119,7.119,0,0,1-3.131,2.058,13.111,13.111,0,0,1-4.484.731,8.883,8.883,0,0,1-4.532-1.128,7.523,7.523,0,0,1-3.008-3.274,11.524,11.524,0,0,1-1.087-5.045v-1.354a12.239,12.239,0,0,1,1-5.161,7.434,7.434,0,0,1,2.9-3.336,8.349,8.349,0,0,1,4.437-1.155,8.314,8.314,0,0,1,5.537,1.688,7.216,7.216,0,0,1,2.365,4.915h-3.992a3.969,3.969,0,0,0-1.21-2.5,3.864,3.864,0,0,0-2.577-.793,3.637,3.637,0,0,0-3.186,1.572,8.267,8.267,0,0,0-1.107,4.676v1.271a7.87,7.87,0,0,0,1.189,4.73,4.073,4.073,0,0,0,3.486,1.6,4.55,4.55,0,0,0,3.295-.984V-7.437h-3.732v-3.021h7.834ZM229.8-7.287h-3.268V0h-4.1V-19.906h7.4a8.361,8.361,0,0,1,5.441,1.572,5.426,5.426,0,0,1,1.914,4.443,6.124,6.124,0,0,1-.882,3.4,6.014,6.014,0,0,1-2.673,2.167l4.307,8.135V0h-4.4Zm-3.268-3.322h3.309a3.388,3.388,0,0,0,2.393-.786,2.81,2.81,0,0,0,.848-2.167,3.008,3.008,0,0,0-.8-2.215,3.324,3.324,0,0,0-2.454-.807h-3.295ZM251.538-4.1h-7.191L242.98,0h-4.361l7.41-19.906h3.8L257.28,0h-4.361Zm-6.084-3.322h4.977l-2.5-7.451Zm17.787,4.129h8.709V0H259.14V-19.906h4.1Zm30.01-5.332h-7.875v5.332h9.242V0H281.274V-19.906h13.316v3.322h-9.215v4.744h7.875ZM313.212,0h-4.1l-7.984-13.1V0h-4.1V-19.906h4.1l8,13.125V-19.906h4.088Zm20.877-5.223a2.1,2.1,0,0,0-.82-1.784,10.76,10.76,0,0,0-2.953-1.312,20.935,20.935,0,0,1-3.377-1.36q-3.391-1.832-3.391-4.936a4.807,4.807,0,0,1,.909-2.878,5.93,5.93,0,0,1,2.611-1.976,9.829,9.829,0,0,1,3.821-.711,8.946,8.946,0,0,1,3.8.772,6.052,6.052,0,0,1,2.591,2.181,5.706,5.706,0,0,1,.923,3.2h-4.1a2.684,2.684,0,0,0-.861-2.126,3.541,3.541,0,0,0-2.42-.759,3.783,3.783,0,0,0-2.338.636,2.005,2.005,0,0,0-.834,1.675,1.921,1.921,0,0,0,.978,1.627,11.044,11.044,0,0,0,2.878,1.23,12.435,12.435,0,0,1,5.1,2.611,5.2,5.2,0,0,1,1.6,3.883A4.791,4.791,0,0,1,336.249-1.2a8.559,8.559,0,0,1-5.264,1.47A10.164,10.164,0,0,1,326.8-.567a6.62,6.62,0,0,1-2.878-2.3,5.9,5.9,0,0,1-.991-3.391h4.115q0,3.295,3.938,3.295a3.83,3.83,0,0,0,2.283-.595A1.935,1.935,0,0,0,334.089-5.223ZM352.218-4.1h-7.191L343.659,0H339.3l7.41-19.906h3.8L357.96,0H353.6Zm-6.084-3.322h4.977l-2.5-7.451Zm17.787,4.129h8.709V0H359.819V-19.906h4.1Zm25.491-16.611V-6.795a6.713,6.713,0,0,1-2.044,5.168,7.88,7.88,0,0,1-5.585,1.9,7.969,7.969,0,0,1-5.537-1.846,6.6,6.6,0,0,1-2.092-5.072V-19.906h4.1V-6.768a3.793,3.793,0,0,0,.937,2.851,3.6,3.6,0,0,0,2.591.9q3.459,0,3.514-3.637V-19.906ZM392.775,0V-19.906H398.9a9.3,9.3,0,0,1,4.7,1.183,8.247,8.247,0,0,1,3.233,3.363,10.373,10.373,0,0,1,1.162,4.956v.916a10.4,10.4,0,0,1-1.142,4.936,8.176,8.176,0,0,1-3.22,3.35A9.372,9.372,0,0,1,398.941,0Zm4.1-16.584V-3.295h1.982a4.454,4.454,0,0,0,3.678-1.572,7.1,7.1,0,0,0,1.3-4.5v-1.053a7.218,7.218,0,0,0-1.258-4.6,4.439,4.439,0,0,0-3.678-1.565Z" transform="translate(586.147 1287.504)" fill="#fff"/>
    <path id="Trazado_732866" data-name="Trazado 732866" d="M17.527-2.516A7.119,7.119,0,0,1,14.4-.458,13.111,13.111,0,0,1,9.912.273,8.883,8.883,0,0,1,5.38-.854,7.523,7.523,0,0,1,2.372-4.129,11.524,11.524,0,0,1,1.285-9.174v-1.354a12.239,12.239,0,0,1,1-5.161,7.434,7.434,0,0,1,2.9-3.336A8.349,8.349,0,0,1,9.625-20.18a8.314,8.314,0,0,1,5.537,1.688,7.216,7.216,0,0,1,2.365,4.915H13.535a3.969,3.969,0,0,0-1.21-2.5,3.864,3.864,0,0,0-2.577-.793A3.637,3.637,0,0,0,6.563-15.3a8.267,8.267,0,0,0-1.107,4.676v1.271a7.87,7.87,0,0,0,1.189,4.73,4.073,4.073,0,0,0,3.486,1.6,4.55,4.55,0,0,0,3.295-.984V-7.437H9.693v-3.021h7.834ZM29.162,0a4.388,4.388,0,0,1-.4-1.326,4.781,4.781,0,0,1-3.732,1.6,5.252,5.252,0,0,1-3.6-1.258A4.045,4.045,0,0,1,20-4.156a4.18,4.18,0,0,1,1.743-3.609,8.6,8.6,0,0,1,5.038-1.271H28.6v-.848a2.438,2.438,0,0,0-.526-1.641,2.071,2.071,0,0,0-1.661-.615,2.354,2.354,0,0,0-1.565.479,1.626,1.626,0,0,0-.567,1.313H20.33a3.969,3.969,0,0,1,.793-2.379,5.242,5.242,0,0,1,2.242-1.716,8.172,8.172,0,0,1,3.254-.622,6.456,6.456,0,0,1,4.341,1.374A4.807,4.807,0,0,1,32.566-9.83v6.412a7.072,7.072,0,0,0,.588,3.186V0ZM25.895-2.748a3.4,3.4,0,0,0,1.613-.39A2.559,2.559,0,0,0,28.6-4.184V-6.727H27.125q-2.967,0-3.158,2.051l-.014.232a1.582,1.582,0,0,0,.52,1.217A2.018,2.018,0,0,0,25.895-2.748ZM39.238-14.793l.123,1.709a5.165,5.165,0,0,1,4.252-1.982,4.292,4.292,0,0,1,3.5,1.381,6.443,6.443,0,0,1,1.176,4.129V0H44.338V-9.461a2.563,2.563,0,0,0-.547-1.825,2.448,2.448,0,0,0-1.818-.567,2.718,2.718,0,0,0-2.5,1.422V0H35.52V-14.793ZM59.855,0a4.388,4.388,0,0,1-.4-1.326,4.781,4.781,0,0,1-3.732,1.6,5.252,5.252,0,0,1-3.6-1.258A4.045,4.045,0,0,1,50.7-4.156a4.18,4.18,0,0,1,1.743-3.609,8.6,8.6,0,0,1,5.038-1.271h1.818v-.848a2.438,2.438,0,0,0-.526-1.641,2.071,2.071,0,0,0-1.661-.615,2.354,2.354,0,0,0-1.565.479,1.626,1.626,0,0,0-.567,1.313H51.023a3.969,3.969,0,0,1,.793-2.379,5.242,5.242,0,0,1,2.242-1.716,8.172,8.172,0,0,1,3.254-.622,6.456,6.456,0,0,1,4.341,1.374A4.807,4.807,0,0,1,63.26-9.83v6.412a7.072,7.072,0,0,0,.588,3.186V0ZM56.588-2.748a3.4,3.4,0,0,0,1.613-.39,2.559,2.559,0,0,0,1.094-1.046V-6.727H57.818q-2.967,0-3.158,2.051l-.014.232a1.582,1.582,0,0,0,.52,1.217A2.018,2.018,0,0,0,56.588-2.748ZM69.932-14.793l.123,1.709a5.165,5.165,0,0,1,4.252-1.982,4.292,4.292,0,0,1,3.5,1.381,6.443,6.443,0,0,1,1.176,4.129V0H75.031V-9.461a2.563,2.563,0,0,0-.547-1.825,2.448,2.448,0,0,0-1.818-.567,2.718,2.718,0,0,0-2.5,1.422V0H66.213V-14.793Zm18.2,11.881a2.591,2.591,0,0,0,1.777-.6,2.108,2.108,0,0,0,.711-1.6h3.705a5.068,5.068,0,0,1-.82,2.755A5.413,5.413,0,0,1,91.294-.417a6.91,6.91,0,0,1-3.1.69,6.422,6.422,0,0,1-5-2.017,7.98,7.98,0,0,1-1.832-5.571v-.26a7.889,7.889,0,0,1,1.818-5.455,6.347,6.347,0,0,1,4.99-2.037,6.222,6.222,0,0,1,4.45,1.579,5.591,5.591,0,0,1,1.7,4.2H90.617a2.715,2.715,0,0,0-.711-1.876,2.37,2.37,0,0,0-1.8-.722,2.38,2.38,0,0,0-2.085,1.006,5.833,5.833,0,0,0-.7,3.266V-7.2a5.907,5.907,0,0,0,.7,3.286A2.41,2.41,0,0,0,88.129-2.912ZM100.748,0H96.783V-14.793h3.965Zm-4.2-18.621a1.946,1.946,0,0,1,.595-1.463,2.234,2.234,0,0,1,1.62-.574,2.239,2.239,0,0,1,1.613.574,1.935,1.935,0,0,1,.6,1.463,1.94,1.94,0,0,1-.608,1.477,2.245,2.245,0,0,1-1.606.574,2.245,2.245,0,0,1-1.606-.574A1.94,1.94,0,0,1,96.551-18.621ZM112.574,0a4.388,4.388,0,0,1-.4-1.326,4.781,4.781,0,0,1-3.732,1.6,5.252,5.252,0,0,1-3.6-1.258,4.045,4.045,0,0,1-1.429-3.172,4.18,4.18,0,0,1,1.743-3.609A8.6,8.6,0,0,1,110.2-9.037h1.818v-.848a2.438,2.438,0,0,0-.526-1.641,2.071,2.071,0,0,0-1.661-.615,2.354,2.354,0,0,0-1.565.479,1.626,1.626,0,0,0-.567,1.313h-3.951a3.969,3.969,0,0,1,.793-2.379,5.242,5.242,0,0,1,2.242-1.716,8.172,8.172,0,0,1,3.254-.622,6.456,6.456,0,0,1,4.341,1.374,4.807,4.807,0,0,1,1.606,3.862v6.412a7.072,7.072,0,0,0,.588,3.186V0Zm-3.268-2.748a3.4,3.4,0,0,0,1.613-.39,2.559,2.559,0,0,0,1.094-1.046V-6.727h-1.477q-2.967,0-3.158,2.051l-.014.232a1.582,1.582,0,0,0,.52,1.217A2.018,2.018,0,0,0,109.307-2.748Zm17.719-1.34a1.273,1.273,0,0,0-.718-1.142,8.153,8.153,0,0,0-2.3-.745q-5.277-1.107-5.277-4.484a4.065,4.065,0,0,1,1.634-3.288,6.591,6.591,0,0,1,4.272-1.319,7.093,7.093,0,0,1,4.5,1.326,4.179,4.179,0,0,1,1.688,3.445h-3.951a1.912,1.912,0,0,0-.547-1.4,2.314,2.314,0,0,0-1.709-.554,2.365,2.365,0,0,0-1.545.451,1.424,1.424,0,0,0-.547,1.148,1.217,1.217,0,0,0,.622,1.06,6.4,6.4,0,0,0,2.1.7,17.141,17.141,0,0,1,2.488.663q3.131,1.148,3.131,3.979a3.859,3.859,0,0,1-1.736,3.274A7.49,7.49,0,0,1,124.646.273a7.823,7.823,0,0,1-3.3-.663,5.54,5.54,0,0,1-2.263-1.818,4.225,4.225,0,0,1-.82-2.5h3.746a2.063,2.063,0,0,0,.779,1.613,3.091,3.091,0,0,0,1.941.561,2.861,2.861,0,0,0,1.716-.431A1.34,1.34,0,0,0,127.025-4.088ZM147.191.273a7.262,7.262,0,0,1-5.3-2,7.1,7.1,0,0,1-2.044-5.318v-.383a8.936,8.936,0,0,1,.861-3.985,6.321,6.321,0,0,1,2.44-2.707,6.85,6.85,0,0,1,3.6-.95,6.139,6.139,0,0,1,4.778,1.914,7.778,7.778,0,0,1,1.743,5.428v1.613h-9.42a3.671,3.671,0,0,0,1.155,2.324,3.492,3.492,0,0,0,2.44.875,4.265,4.265,0,0,0,3.568-1.654l1.941,2.174a5.931,5.931,0,0,1-2.406,1.962A7.9,7.9,0,0,1,147.191.273Zm-.451-12.154a2.469,2.469,0,0,0-1.907.8A4.124,4.124,0,0,0,143.9-8.8h5.5v-.316a2.942,2.942,0,0,0-.711-2.039A2.547,2.547,0,0,0,146.74-11.881Zm12.414-2.912.123,1.709a5.165,5.165,0,0,1,4.252-1.982,4.292,4.292,0,0,1,3.5,1.381,6.443,6.443,0,0,1,1.176,4.129V0h-3.951V-9.461a2.563,2.563,0,0,0-.547-1.825,2.448,2.448,0,0,0-1.818-.567,2.718,2.718,0,0,0-2.5,1.422V0h-3.951V-14.793ZM186.184-4.088a1.273,1.273,0,0,0-.718-1.142,8.153,8.153,0,0,0-2.3-.745q-5.277-1.107-5.277-4.484a4.065,4.065,0,0,1,1.634-3.288,6.591,6.591,0,0,1,4.272-1.319,7.093,7.093,0,0,1,4.5,1.326,4.179,4.179,0,0,1,1.688,3.445h-3.951a1.912,1.912,0,0,0-.547-1.4,2.314,2.314,0,0,0-1.709-.554,2.365,2.365,0,0,0-1.545.451,1.424,1.424,0,0,0-.547,1.148,1.217,1.217,0,0,0,.622,1.06,6.4,6.4,0,0,0,2.1.7,17.142,17.142,0,0,1,2.488.663q3.131,1.148,3.131,3.979a3.859,3.859,0,0,1-1.736,3.274A7.49,7.49,0,0,1,183.8.273a7.823,7.823,0,0,1-3.3-.663,5.54,5.54,0,0,1-2.263-1.818,4.225,4.225,0,0,1-.82-2.5h3.746a2.063,2.063,0,0,0,.779,1.613,3.091,3.091,0,0,0,1.941.561A2.861,2.861,0,0,0,185.6-2.96,1.34,1.34,0,0,0,186.184-4.088ZM201.141,0a4.388,4.388,0,0,1-.4-1.326,4.781,4.781,0,0,1-3.732,1.6,5.252,5.252,0,0,1-3.6-1.258,4.045,4.045,0,0,1-1.429-3.172,4.18,4.18,0,0,1,1.743-3.609,8.6,8.6,0,0,1,5.038-1.271h1.818v-.848a2.438,2.438,0,0,0-.526-1.641,2.071,2.071,0,0,0-1.661-.615,2.354,2.354,0,0,0-1.565.479,1.626,1.626,0,0,0-.567,1.313h-3.951a3.969,3.969,0,0,1,.793-2.379,5.242,5.242,0,0,1,2.242-1.716,8.172,8.172,0,0,1,3.254-.622,6.456,6.456,0,0,1,4.341,1.374,4.807,4.807,0,0,1,1.606,3.862v6.412a7.072,7.072,0,0,0,.588,3.186V0Zm-3.268-2.748a3.4,3.4,0,0,0,1.613-.39,2.559,2.559,0,0,0,1.094-1.046V-6.727H199.1q-2.967,0-3.158,2.051l-.014.232a1.582,1.582,0,0,0,.52,1.217A2.018,2.018,0,0,0,197.873-2.748ZM211.75,0h-3.965V-21h3.965Zm12.113-1.5A4.955,4.955,0,0,1,219.816.273a4.673,4.673,0,0,1-3.63-1.367A5.836,5.836,0,0,1,214.908-5.1v-9.693h3.951v9.568q0,2.313,2.105,2.313a2.853,2.853,0,0,0,2.762-1.4V-14.793h3.965V0h-3.719Zm6.193-6a8.915,8.915,0,0,1,1.552-5.51,5.035,5.035,0,0,1,4.245-2.051,4.531,4.531,0,0,1,3.568,1.613V-21h3.965V0h-3.568l-.191-1.572a4.65,4.65,0,0,1-3.8,1.846,5.021,5.021,0,0,1-4.19-2.058A9.2,9.2,0,0,1,230.057-7.506Zm3.951.294a5.84,5.84,0,0,0,.725,3.19,2.36,2.36,0,0,0,2.105,1.109,2.644,2.644,0,0,0,2.584-1.547v-5.847a2.606,2.606,0,0,0-2.557-1.547Q234.008-11.854,234.008-7.212Z" transform="matrix(0.772, -0.636, 0.636, 0.772, 415.524, 1050.467)" fill="#12263f"/>
    <g id="Grupo_1018568" data-name="Grupo 1018568" transform="translate(390.428 857.227)" clip-path="url(#clip-path)">
      <text id="Carga_de_la_enfermedad" data-name="Carga de la enfermedad" transform="matrix(0.772, 0.636, -0.636, 0.772, 570.329, 18.088)" fill="#12263f" font-size="28" font-family="Roboto-Bold, Roboto" font-weight="700"><tspan x="0" y="0">Carga de la enfermedad</tspan></text>
    </g>
    <path id="Trazado_732867" data-name="Trazado 732867" d="M0,233.747,282.552,0" transform="translate(393.06 860.683)" fill="#fff"/>
    <g id="Grupo_1018570" data-name="Grupo 1018570" transform="translate(390.428 857.227)" clip-path="url(#clip-path)">
      <line id="Línea_3199" data-name="Línea 3199" y1="224.391" x2="271.241" transform="translate(2.632 12.812)" fill="none" stroke="#6f88da" stroke-miterlimit="10" stroke-width="10"/>
    </g>
    <path id="Trazado_732062" data-name="Trazado 732062" d="M318.719,46.013l2.908-30.664-30.665-2.89L305.207.675l30.655,2.9-2.9,30.655Z" transform="translate(339.75 857.109)" fill="#6f88da"/>
    <path id="Trazado_732868" data-name="Trazado 732868" d="M282.552,233.747,0,0" transform="translate(911.928 860.683)" fill="#fff"/>
    <g id="Grupo_1018572" data-name="Grupo 1018572" transform="translate(390.428 857.227)" clip-path="url(#clip-path)">
      <line id="Línea_3201" data-name="Línea 3201" x1="271.241" y1="224.391" transform="translate(532.81 12.812)" fill="none" stroke="#4adbd1" stroke-miterlimit="10" stroke-width="10"/>
    </g>
    <path id="Trazado_732063" data-name="Trazado 732063" d="M676.39,12.46l-30.665,2.89,2.908,30.664L634.387,34.229l-2.9-30.655,30.655-2.9Z" transform="translate(1838.723 1109.486) rotate(180)" fill="#4adbd1"/>
  </g>
</svg>
