<svg xmlns="http://www.w3.org/2000/svg" width="815.067" height="324.399" viewBox="0 0 815.067 324.399">
  <g id="Grupo_1018677" data-name="Grupo 1018677" transform="translate(-394.933 -2500.668)">
    <path id="Trazado_732869" data-name="Trazado 732869" d="M0,0H188V56H0Z" transform="translate(1022 2622)" fill="#ddd"/>
    <path id="Trazado_732870" data-name="Trazado 732870" d="M0,0H188V37H0Z" transform="translate(1022 2580)" fill="#ddd"/>
    <path id="Trazado_732871" data-name="Trazado 732871" d="M0,0H188V37H0Z" transform="translate(1022 2538)" fill="#ddd"/>
    <path id="Trazado_732064" data-name="Trazado 732064" d="M257.68,202.6l-30.35-52.567A223.6,223.6,0,0,0,115.5,343.784h60.691A162.93,162.93,0,0,1,257.68,202.6Z" transform="translate(379.641 2480.783)" fill="none" stroke="#000" stroke-miterlimit="10" stroke-width="1"/>
    <path id="Trazado_732065" data-name="Trazado 732065" d="M356.343,176.191a162.24,162.24,0,0,1,81.511,21.819l30.35-52.567a223.92,223.92,0,0,0-223.723,0l30.35,52.567A162.24,162.24,0,0,1,356.343,176.191Z" transform="translate(362.489 2485.375)" fill="#d2e1f1" stroke="#12263f" stroke-miterlimit="10" stroke-width="1"/>
    <path id="Trazado_732066" data-name="Trazado 732066" d="M549,343.784h60.692a223.6,223.6,0,0,0-111.83-193.749L467.513,202.6A162.93,162.93,0,0,1,549,343.784Z" transform="translate(332.831 2480.783)" fill="none" stroke="#12263f" stroke-miterlimit="10" stroke-width="1"/>
    <path id="Trazado_732067" data-name="Trazado 732067" d="M264.231,113.529,233.406,18.66A324.084,324.084,0,0,0,71.717,136.212L152.4,194.832a224.14,224.14,0,0,1,111.832-81.3" transform="translate(385.463 2498.253)" fill="#84eae3"/>
    <path id="Trazado_732068" data-name="Trazado 732068" d="M264.231,113.529,233.406,18.66A324.084,324.084,0,0,0,71.717,136.212L152.4,194.832A224.14,224.14,0,0,1,264.231,113.529Z" transform="translate(385.463 2498.253)" fill="none" stroke="#12263f" stroke-miterlimit="10" stroke-width="1"/>
    <path id="Trazado_732069" data-name="Trazado 732069" d="M565.074,194.832l80.682-58.619A324.086,324.086,0,0,0,484.066,18.661L453.242,113.53a224.145,224.145,0,0,1,111.832,81.3" transform="translate(334.729 2498.253)" fill="#f3f9ff"/>
    <path id="Trazado_732070" data-name="Trazado 732070" d="M565.074,194.832l80.682-58.619A324.086,324.086,0,0,0,484.066,18.661L453.242,113.53A224.145,224.145,0,0,1,565.074,194.832Z" transform="translate(334.729 2498.253)" fill="none" stroke="#12263f" stroke-miterlimit="10" stroke-width="1"/>
    <path id="Trazado_732071" data-name="Trazado 732071" d="M.5,344.343h99.707a222.66,222.66,0,0,1,42.722-131.482L62.247,154.242A321.935,321.935,0,0,0,.5,344.343" transform="translate(394.933 2480.224)" fill="#a7b9f4"/>
    <path id="Trazado_732072" data-name="Trazado 732072" d="M.5,344.343h99.707a222.66,222.66,0,0,1,42.722-131.482L62.247,154.242A321.935,321.935,0,0,0,.5,344.343Z" transform="translate(394.933 2480.224)" fill="none" stroke="#12263f" stroke-miterlimit="10" stroke-width="1"/>
    <path id="Trazado_732073" data-name="Trazado 732073" d="M358.168,100.207a223.472,223.472,0,0,1,69.138,10.907l30.825-94.869a325.2,325.2,0,0,0-199.926,0l30.825,94.869a223.472,223.472,0,0,1,69.138-10.907" transform="translate(360.664 2500.668)" fill="#ffe79d"/>
    <path id="Trazado_732074" data-name="Trazado 732074" d="M358.168,100.207a223.472,223.472,0,0,1,69.138,10.907l30.825-94.869a325.2,325.2,0,0,0-199.926,0l30.825,94.869A223.472,223.472,0,0,1,358.168,100.207Z" transform="translate(360.664 2500.668)" fill="none" stroke="#12263f" stroke-miterlimit="10" stroke-width="1"/>
    <path id="Trazado_732075" data-name="Trazado 732075" d="M624.948,344.343h99.707a321.936,321.936,0,0,0-61.747-190.1l-80.682,58.619a222.66,222.66,0,0,1,42.722,131.482" transform="translate(317.576 2480.224)" fill="#ddd"/>
    <path id="Trazado_732076" data-name="Trazado 732076" d="M624.948,344.343h99.707a321.936,321.936,0,0,0-61.747-190.1l-80.682,58.619A222.66,222.66,0,0,1,624.948,344.343Z" transform="translate(317.576 2480.224)" fill="none" stroke="#12263f" stroke-miterlimit="10" stroke-width="1"/>
    <path id="Trazado_732077" data-name="Trazado 732077" d="M459.933,361h86.7a162.212,162.212,0,0,0-21.83-81.5l-75.091,43.354A75.926,75.926,0,0,1,459.933,361Z" transform="translate(335.198 2463.567)" fill="#f3f9ff" stroke="#000" stroke-miterlimit="10" stroke-width="1"/>
    <path id="Trazado_732078" data-name="Trazado 732078" d="M445.432,313.7l75.09-43.354a163.794,163.794,0,0,0-59.659-59.677l-43.356,75.1A76.678,76.678,0,0,1,445.432,313.7Z" transform="translate(339.48 2472.721)" fill="#f6f6f6" stroke="#000" stroke-miterlimit="10" stroke-width="1"/>
    <path id="Trazado_732079" data-name="Trazado 732079" d="M185.5,361h86.7a75.926,75.926,0,0,1,10.219-38.151L207.33,279.495A162.212,162.212,0,0,0,185.5,361Z" transform="translate(370.333 2463.567)" fill="#dee4f0" stroke="#12263f" stroke-miterlimit="10" stroke-width="1"/>
    <path id="Trazado_732080" data-name="Trazado 732080" d="M313.694,285.761l-43.357-75.1a163.813,163.813,0,0,0-59.659,59.677l75.091,43.354A76.666,76.666,0,0,1,313.694,285.761Z" transform="translate(366.984 2472.721)" fill="#e8e8e8" stroke="#12263f" stroke-miterlimit="10" stroke-width="1"/>
    <path id="Trazado_732081" data-name="Trazado 732081" d="M361,272.2V185.5a162.24,162.24,0,0,0-81.511,21.819l43.357,75.1A75.944,75.944,0,0,1,361,272.2Z" transform="translate(357.834 2476.066)" fill="#b0c0d2" stroke="#12263f" stroke-miterlimit="10" stroke-width="1"/>
    <path id="Trazado_732082" data-name="Trazado 732082" d="M411.654,282.415l43.357-75.1A162.251,162.251,0,0,0,373.5,185.5v86.7A75.944,75.944,0,0,1,411.654,282.415Z" transform="translate(345.333 2476.066)" fill="#d2e1f1" stroke="#000" stroke-miterlimit="10" stroke-width="1"/>
    <path id="Trazado_732872" data-name="Trazado 732872" d="M0,0H815V324H0Z" transform="translate(395 2501)" fill="none"/>
    <path id="Trazado_732873" data-name="Trazado 732873" d="M3.946,0H1.31V-12.8H3.946Z" transform="translate(428.143 2811.177) rotate(-86.945)" fill="#12263f"/>
    <path id="Trazado_732874" data-name="Trazado 732874" d="M12.19,0H9.407L3.989-8.888V0H1.206V-13.508H3.989L9.417-4.6v-8.906H12.19Z" transform="matrix(0.085, -0.996, 0.996, 0.085, 429.367, 2805.783)" fill="#12263f"/>
    <path id="Trazado_732875" data-name="Trazado 732875" d="M8.21-3.544a1.428,1.428,0,0,0-.557-1.211,7.3,7.3,0,0,0-2-.891,14.205,14.205,0,0,1-2.292-.923,3.744,3.744,0,0,1-2.3-3.349,3.262,3.262,0,0,1,.617-1.953,4.024,4.024,0,0,1,1.772-1.341,6.669,6.669,0,0,1,2.593-.482,6.071,6.071,0,0,1,2.579.524,4.107,4.107,0,0,1,1.758,1.48A3.872,3.872,0,0,1,11-9.519H8.22a1.821,1.821,0,0,0-.584-1.443,2.4,2.4,0,0,0-1.642-.515,2.567,2.567,0,0,0-1.586.431,1.361,1.361,0,0,0-.566,1.136A1.3,1.3,0,0,0,4.5-8.8a7.494,7.494,0,0,0,1.953.835A8.438,8.438,0,0,1,9.917-6.2,3.529,3.529,0,0,1,11-3.562,3.251,3.251,0,0,1,9.676-.812,5.808,5.808,0,0,1,6.1.186,6.9,6.9,0,0,1,3.266-.385,4.492,4.492,0,0,1,1.313-1.948a4,4,0,0,1-.673-2.3H3.433q0,2.236,2.672,2.236a2.6,2.6,0,0,0,1.549-.4A1.313,1.313,0,0,0,8.21-3.544Z" transform="matrix(0.128, -0.992, 0.992, 0.128, 430.52, 2792.507)" fill="#12263f"/>
    <path id="Trazado_732876" data-name="Trazado 732876" d="M11.374-11.253H7.236V0H4.453V-11.253H.371v-2.254h11Z" transform="matrix(0.168, -0.986, 0.986, 0.168, 432.001, 2781.013)" fill="#12263f"/>
    <path id="Trazado_732877" data-name="Trazado 732877" d="M3.946,0H1.31V-12.8H3.946Z" transform="matrix(0.197, -0.98, 0.98, 0.197, 433.03, 2769.278)" fill="#12263f"/>
    <path id="Trazado_732878" data-name="Trazado 732878" d="M11.374-11.253H7.236V0H4.453V-11.253H.371v-2.254h11Z" transform="translate(435.039 2764.111) rotate(-76.923)" fill="#12263f"/>
    <path id="Trazado_732879" data-name="Trazado 732879" d="M10.828-12.8v8.429A4.315,4.315,0,0,1,9.514-1.046,5.066,5.066,0,0,1,5.924.176a5.123,5.123,0,0,1-3.56-1.187A4.242,4.242,0,0,1,1.02-4.271V-12.8H3.656v8.446a2.438,2.438,0,0,0,.6,1.833,2.311,2.311,0,0,0,1.666.576q2.224,0,2.259-2.338V-12.8Z" transform="translate(436.704 2752.482) rotate(-74.524)" fill="#12263f"/>
    <path id="Trazado_732880" data-name="Trazado 732880" d="M11.81-4.5A4.78,4.78,0,0,1,10.2-1.067,5.653,5.653,0,0,1,6.374.186,5.083,5.083,0,0,1,2.287-1.563,7.171,7.171,0,0,1,.8-6.364V-7.19a8.1,8.1,0,0,1,.687-3.433A5.145,5.145,0,0,1,3.447-12.9a5.5,5.5,0,0,1,2.964-.793,5.507,5.507,0,0,1,3.767,1.252,5.137,5.137,0,0,1,1.651,3.516H9.045a2.821,2.821,0,0,0-.728-1.9,2.7,2.7,0,0,0-1.906-.589,2.365,2.365,0,0,0-2.083,1,5.589,5.589,0,0,0-.71,3.094V-6.3a5.982,5.982,0,0,0,.663,3.2A2.321,2.321,0,0,0,6.374-2.087,2.748,2.748,0,0,0,8.3-2.677,2.661,2.661,0,0,0,9.027-4.5Z" transform="translate(440.975 2740.794) rotate(-72.057)" fill="#12263f"/>
    <path id="Trazado_732881" data-name="Trazado 732881" d="M3.946,0H1.31V-12.8H3.946Z" transform="translate(443.897 2728.698) rotate(-70.279)" fill="#12263f"/>
    <path id="Trazado_732882" data-name="Trazado 732882" d="M12.3-6.448a8.154,8.154,0,0,1-.705,3.5A5.31,5.31,0,0,1,9.579-.631a5.582,5.582,0,0,1-3.01.816,5.62,5.62,0,0,1-3-.807A5.362,5.362,0,0,1,1.531-2.927,7.921,7.921,0,0,1,.8-6.374v-.668a8.111,8.111,0,0,1,.719-3.511,5.353,5.353,0,0,1,2.032-2.329,5.589,5.589,0,0,1,3-.812,5.589,5.589,0,0,1,3,.812,5.353,5.353,0,0,1,2.032,2.329,8.088,8.088,0,0,1,.719,3.5ZM9.481-7.06a5.684,5.684,0,0,0-.761-3.229,2.479,2.479,0,0,0-2.171-1.1A2.48,2.48,0,0,0,4.388-10.3a5.619,5.619,0,0,0-.77,3.2v.659a5.755,5.755,0,0,0,.761,3.21A2.473,2.473,0,0,0,6.568-2.1,2.45,2.45,0,0,0,8.721-3.2,5.722,5.722,0,0,0,9.481-6.4Z" transform="translate(446.615 2723.889) rotate(-68.435)" fill="#12263f"/>
    <path id="Trazado_732883" data-name="Trazado 732883" d="M12.19,0H9.407L3.989-8.888V0H1.206V-13.508H3.989L9.417-4.6v-8.906H12.19Z" transform="translate(451.396 2711.776) rotate(-65.813)" fill="#12263f"/>
    <path id="Trazado_732884" data-name="Trazado 732884" d="M8.832-2.783H3.952L3.024,0H.065L5.093-13.508H7.672L12.729,0H9.769ZM4.7-5.038H8.081l-1.7-5.056Z" transform="matrix(0.45, -0.893, 0.893, 0.45, 456.861, 2699.618)" fill="#12263f"/>
    <path id="Trazado_732885" data-name="Trazado 732885" d="M3.989-2.236H9.9V0H1.206V-13.508H3.989Z" transform="matrix(0.485, -0.874, 0.874, 0.485, 462.6, 2688.294)" fill="#12263f"/>
    <path id="Trazado_732886" data-name="Trazado 732886" transform="translate(466.744 2678.843) rotate(-59.478)"/>
    <path id="Trazado_732887" data-name="Trazado 732887" d="M12.2,0H9.417V-5.789H3.989V0H1.206V-13.508H3.989v5.474H9.417v-5.474H12.2Z" transform="translate(524.456 2609.056) rotate(-40.735)"/>
    <path id="Trazado_732888" data-name="Trazado 732888" d="M12.3-6.448a8.154,8.154,0,0,1-.705,3.5A5.31,5.31,0,0,1,9.579-.631a5.582,5.582,0,0,1-3.01.816,5.62,5.62,0,0,1-3-.807A5.362,5.362,0,0,1,1.531-2.927,7.921,7.921,0,0,1,.8-6.374v-.668a8.111,8.111,0,0,1,.719-3.511,5.353,5.353,0,0,1,2.032-2.329,5.589,5.589,0,0,1,3-.812,5.589,5.589,0,0,1,3,.812,5.353,5.353,0,0,1,2.032,2.329,8.088,8.088,0,0,1,.719,3.5ZM9.481-7.06a5.684,5.684,0,0,0-.761-3.229,2.479,2.479,0,0,0-2.171-1.1A2.48,2.48,0,0,0,4.388-10.3a5.619,5.619,0,0,0-.77,3.2v.659a5.755,5.755,0,0,0,.761,3.21A2.473,2.473,0,0,0,6.568-2.1,2.45,2.45,0,0,0,8.721-3.2,5.722,5.722,0,0,0,9.481-6.4Z" transform="matrix(0.786, -0.618, 0.618, 0.786, 534.556, 2600.358)"/>
    <path id="Trazado_732889" data-name="Trazado 732889" d="M11.894-1.707a4.831,4.831,0,0,1-2.125,1.4,8.9,8.9,0,0,1-3.043.5A6.028,6.028,0,0,1,3.651-.58,5.1,5.1,0,0,1,1.61-2.8,7.82,7.82,0,0,1,.872-6.225v-.918a8.305,8.305,0,0,1,.682-3.5,5.044,5.044,0,0,1,1.967-2.264,5.665,5.665,0,0,1,3.01-.784,5.642,5.642,0,0,1,3.757,1.146,4.9,4.9,0,0,1,1.6,3.335H9.185a2.693,2.693,0,0,0-.821-1.7,2.622,2.622,0,0,0-1.749-.538,2.468,2.468,0,0,0-2.162,1.067A5.61,5.61,0,0,0,3.7-7.208v.863a5.341,5.341,0,0,0,.807,3.21A2.764,2.764,0,0,0,6.875-2.05,3.087,3.087,0,0,0,9.11-2.718V-5.047H6.578V-7.1h5.316Z" transform="translate(544.782 2592.325) rotate(-35.595)"/>
    <path id="Trazado_732890" data-name="Trazado 732890" d="M8.832-2.783H3.952L3.024,0H.065L5.093-13.508H7.672L12.729,0H9.769ZM4.7-5.038H8.081l-1.7-5.056Z" transform="translate(555.23 2584.845) rotate(-33.074)"/>
    <path id="Trazado_732891" data-name="Trazado 732891" d="M6.207-4.945H3.989V0H1.206V-13.508H6.225a5.674,5.674,0,0,1,3.692,1.067,3.682,3.682,0,0,1,1.3,3.015,4.156,4.156,0,0,1-.6,2.305A4.081,4.081,0,0,1,8.8-5.65L11.727-.13V0H8.739ZM3.989-7.2H6.234a2.3,2.3,0,0,0,1.624-.533A1.907,1.907,0,0,0,8.433-9.2a2.041,2.041,0,0,0-.543-1.5,2.255,2.255,0,0,0-1.665-.547H3.989Z" transform="translate(565.887 2577.91) rotate(-30.624)"/>
    <path id="Trazado_732892" data-name="Trazado 732892" transform="translate(575.817 2570.931) rotate(-28.968)"/>
    <path id="Trazado_732893" data-name="Trazado 732893" d="M8.842-5.546H3.779v3.428H9.721V0H1.143V-12.8H9.7v2.136H3.779v3.05H8.842Z" transform="matrix(0.984, -0.179, 0.179, 0.984, 660.828, 2539.26)" fill="#12263f"/>
    <path id="Trazado_732894" data-name="Trazado 732894" d="M1.206,0V-13.508H5.362a6.312,6.312,0,0,1,3.187.8,5.6,5.6,0,0,1,2.194,2.282,7.039,7.039,0,0,1,.789,3.363v.622a7.059,7.059,0,0,1-.775,3.349A5.548,5.548,0,0,1,8.572-.816,6.359,6.359,0,0,1,5.39,0ZM3.989-11.253v9.018H5.334A3.022,3.022,0,0,0,7.83-3.3a4.821,4.821,0,0,0,.881-3.052v-.714a4.9,4.9,0,0,0-.854-3.122,3.012,3.012,0,0,0-2.5-1.062Z" transform="translate(671.432 2538.329) rotate(-8.034)" fill="#12263f"/>
    <path id="Trazado_732895" data-name="Trazado 732895" d="M10.828-12.8v8.429A4.315,4.315,0,0,1,9.514-1.046,5.066,5.066,0,0,1,5.924.176a5.123,5.123,0,0,1-3.56-1.187A4.242,4.242,0,0,1,1.02-4.271V-12.8H3.656v8.446a2.438,2.438,0,0,0,.6,1.833,2.311,2.311,0,0,0,1.666.576q2.224,0,2.259-2.338V-12.8Z" transform="matrix(0.995, -0.098, 0.098, 0.995, 683.464, 2535.617)" fill="#12263f"/>
    <path id="Trazado_732896" data-name="Trazado 732896" d="M11.81-4.5A4.78,4.78,0,0,1,10.2-1.067,5.653,5.653,0,0,1,6.374.186,5.083,5.083,0,0,1,2.287-1.563,7.171,7.171,0,0,1,.8-6.364V-7.19a8.1,8.1,0,0,1,.687-3.433A5.145,5.145,0,0,1,3.447-12.9a5.5,5.5,0,0,1,2.964-.793,5.507,5.507,0,0,1,3.767,1.252,5.137,5.137,0,0,1,1.651,3.516H9.045a2.821,2.821,0,0,0-.728-1.9,2.7,2.7,0,0,0-1.906-.589,2.365,2.365,0,0,0-2.083,1,5.589,5.589,0,0,0-.71,3.094V-6.3a5.982,5.982,0,0,0,.663,3.2A2.321,2.321,0,0,0,6.374-2.087,2.748,2.748,0,0,0,8.3-2.677,2.661,2.661,0,0,0,9.027-4.5Z" transform="translate(695.912 2535.4) rotate(-3.168)" fill="#12263f"/>
    <path id="Trazado_732897" data-name="Trazado 732897" d="M8.832-2.783H3.952L3.024,0H.065L5.093-13.508H7.672L12.729,0H9.769ZM4.7-5.038H8.081l-1.7-5.056Z" transform="matrix(1, -0.016, 0.016, 1, 708.241, 2534.734)" fill="#12263f"/>
    <path id="Trazado_732898" data-name="Trazado 732898" d="M11.374-11.253H7.236V0H4.453V-11.253H.371v-2.254h11Z" transform="matrix(1, 0.025, -0.025, 1, 719.828, 2534.551)" fill="#12263f"/>
    <path id="Trazado_732899" data-name="Trazado 732899" d="M3.946,0H1.31V-12.8H3.946Z" transform="matrix(0.999, 0.054, -0.054, 0.999, 731.588, 2533.887)" fill="#12263f"/>
    <path id="Trazado_732900" data-name="Trazado 732900" d="M6.2-3.349,9.259-13.508h3.1L7.654,0H4.75L.065-13.508H3.154Z" transform="translate(736.987 2535.127) rotate(4.849)" fill="#12263f"/>
    <path id="Trazado_732901" data-name="Trazado 732901" d="M12.3-6.448a8.154,8.154,0,0,1-.705,3.5A5.31,5.31,0,0,1,9.579-.631a5.582,5.582,0,0,1-3.01.816,5.62,5.62,0,0,1-3-.807A5.362,5.362,0,0,1,1.531-2.927,7.921,7.921,0,0,1,.8-6.374v-.668a8.111,8.111,0,0,1,.719-3.511,5.353,5.353,0,0,1,2.032-2.329,5.589,5.589,0,0,1,3-.812,5.589,5.589,0,0,1,3,.812,5.353,5.353,0,0,1,2.032,2.329,8.088,8.088,0,0,1,.719,3.5ZM9.481-7.06a5.684,5.684,0,0,0-.761-3.229,2.479,2.479,0,0,0-2.171-1.1A2.48,2.48,0,0,0,4.388-10.3a5.619,5.619,0,0,0-.77,3.2v.659a5.755,5.755,0,0,0,.761,3.21A2.473,2.473,0,0,0,6.568-2.1,2.45,2.45,0,0,0,8.721-3.2,5.722,5.722,0,0,0,9.481-6.4Z" transform="translate(749.139 2536.145) rotate(7.324)" fill="#12263f"/>
    <path id="Trazado_732902" data-name="Trazado 732902" transform="translate(762.267 2536.888) rotate(9.082)"/>
    <path id="Trazado_732903" data-name="Trazado 732903" d="M3.989-2.236H9.9V0H1.206V-13.508H3.989Z" transform="matrix(0.885, 0.465, -0.465, 0.885, 848.26, 2565.241)" fill="#12263f"/>
    <path id="Trazado_732904" data-name="Trazado 732904" d="M8.832-2.783H3.952L3.024,0H.065L5.093-13.508H7.672L12.729,0H9.769ZM4.7-5.038H8.081l-1.7-5.056Z" transform="translate(857.453 2570.042) rotate(30.013)" fill="#12263f"/>
    <path id="Trazado_732905" data-name="Trazado 732905" d="M1.206,0V-13.508H5.938a6.213,6.213,0,0,1,3.729.942,3.22,3.22,0,0,1,1.271,2.76,3.052,3.052,0,0,1-.51,1.749A2.947,2.947,0,0,1,9.008-6.949,2.852,2.852,0,0,1,10.646-5.9a3.1,3.1,0,0,1,.6,1.93A3.565,3.565,0,0,1,10-1.021,5.6,5.6,0,0,1,6.457,0ZM3.989-5.882v3.646H6.374A2.3,2.3,0,0,0,7.909-2.7,1.607,1.607,0,0,0,8.461-4a1.7,1.7,0,0,0-1.92-1.883Zm0-1.967h2.06q2.106-.037,2.106-1.679a1.552,1.552,0,0,0-.533-1.322,2.806,2.806,0,0,0-1.684-.4H3.989Z" transform="translate(868.443 2576.395) rotate(32.46)" fill="#12263f"/>
    <path id="Trazado_732906" data-name="Trazado 732906" d="M12.3-6.448a8.154,8.154,0,0,1-.705,3.5A5.31,5.31,0,0,1,9.579-.631a5.582,5.582,0,0,1-3.01.816,5.62,5.62,0,0,1-3-.807A5.362,5.362,0,0,1,1.531-2.927,7.921,7.921,0,0,1,.8-6.374v-.668a8.111,8.111,0,0,1,.719-3.511,5.353,5.353,0,0,1,2.032-2.329,5.589,5.589,0,0,1,3-.812,5.589,5.589,0,0,1,3,.812,5.353,5.353,0,0,1,2.032,2.329,8.088,8.088,0,0,1,.719,3.5ZM9.481-7.06a5.684,5.684,0,0,0-.761-3.229,2.479,2.479,0,0,0-2.171-1.1A2.48,2.48,0,0,0,4.388-10.3a5.619,5.619,0,0,0-.77,3.2v.659a5.755,5.755,0,0,0,.761,3.21A2.473,2.473,0,0,0,6.568-2.1,2.45,2.45,0,0,0,8.721-3.2,5.722,5.722,0,0,0,9.481-6.4Z" transform="matrix(0.82, 0.573, -0.573, 0.82, 878.602, 2582.841)" fill="#12263f"/>
    <path id="Trazado_732907" data-name="Trazado 732907" d="M6.207-4.945H3.989V0H1.206V-13.508H6.225a5.674,5.674,0,0,1,3.692,1.067,3.682,3.682,0,0,1,1.3,3.015,4.156,4.156,0,0,1-.6,2.305A4.081,4.081,0,0,1,8.8-5.65L11.727-.13V0H8.739ZM3.989-7.2H6.234a2.3,2.3,0,0,0,1.624-.533A1.907,1.907,0,0,0,8.433-9.2a2.041,2.041,0,0,0-.543-1.5,2.255,2.255,0,0,0-1.665-.547H3.989Z" transform="matrix(0.794, 0.607, -0.607, 0.794, 889.263, 2590.298)" fill="#12263f"/>
    <path id="Trazado_732908" data-name="Trazado 732908" d="M8.832-2.783H3.952L3.024,0H.065L5.093-13.508H7.672L12.729,0H9.769ZM4.7-5.038H8.081l-1.7-5.056Z" transform="translate(898.829 2597.598) rotate(39.837)" fill="#12263f"/>
    <path id="Trazado_732909" data-name="Trazado 732909" d="M3.989-2.236H9.9V0H1.206V-13.508H3.989Z" transform="translate(908.574 2605.757) rotate(42.091)" fill="#12263f"/>
    <path id="Trazado_732910" data-name="Trazado 732910" transform="translate(916.848 2611.931) rotate(43.559)"/>
    <path id="Trazado_732911" data-name="Trazado 732911" d="M11.81-4.5A4.78,4.78,0,0,1,10.2-1.067,5.653,5.653,0,0,1,6.374.186,5.083,5.083,0,0,1,2.287-1.563,7.171,7.171,0,0,1,.8-6.364V-7.19a8.1,8.1,0,0,1,.687-3.433A5.145,5.145,0,0,1,3.447-12.9a5.5,5.5,0,0,1,2.964-.793,5.507,5.507,0,0,1,3.767,1.252,5.137,5.137,0,0,1,1.651,3.516H9.045a2.821,2.821,0,0,0-.728-1.9,2.7,2.7,0,0,0-1.906-.589,2.365,2.365,0,0,0-2.083,1,5.589,5.589,0,0,0-.71,3.094V-6.3a5.982,5.982,0,0,0,.663,3.2A2.321,2.321,0,0,0,6.374-2.087,2.748,2.748,0,0,0,8.3-2.677,2.661,2.661,0,0,0,9.027-4.5Z" transform="translate(971.828 2683.888) rotate(62.226)" fill="#12263f"/>
    <path id="Trazado_732912" data-name="Trazado 732912" d="M12.3-6.448a8.154,8.154,0,0,1-.705,3.5A5.31,5.31,0,0,1,9.579-.631a5.582,5.582,0,0,1-3.01.816,5.62,5.62,0,0,1-3-.807A5.362,5.362,0,0,1,1.531-2.927,7.921,7.921,0,0,1,.8-6.374v-.668a8.111,8.111,0,0,1,.719-3.511,5.353,5.353,0,0,1,2.032-2.329,5.589,5.589,0,0,1,3-.812,5.589,5.589,0,0,1,3,.812,5.353,5.353,0,0,1,2.032,2.329,8.088,8.088,0,0,1,.719,3.5ZM9.481-7.06a5.684,5.684,0,0,0-.761-3.229,2.479,2.479,0,0,0-2.171-1.1A2.48,2.48,0,0,0,4.388-10.3a5.619,5.619,0,0,0-.77,3.2v.659a5.755,5.755,0,0,0,.761,3.21A2.473,2.473,0,0,0,6.568-2.1,2.45,2.45,0,0,0,8.721-3.2,5.722,5.722,0,0,0,9.481-6.4Z" transform="translate(977.581 2694.787) rotate(64.742)" fill="#12263f"/>
    <path id="Trazado_732913" data-name="Trazado 732913" d="M4.588-12.8,7.875-3.516l3.27-9.281h3.463V0H11.962V-3.5l.264-6.038L8.771,0H6.961L3.516-9.527,3.779-3.5V0H1.143V-12.8Z" transform="translate(984.102 2706.151) rotate(67.683)" fill="#12263f"/>
    <path id="Trazado_732914" data-name="Trazado 732914" d="M10.828-12.8v8.429A4.315,4.315,0,0,1,9.514-1.046,5.066,5.066,0,0,1,5.924.176a5.123,5.123,0,0,1-3.56-1.187A4.242,4.242,0,0,1,1.02-4.271V-12.8H3.656v8.446a2.438,2.438,0,0,0,.6,1.833,2.311,2.311,0,0,0,1.666.576q2.224,0,2.259-2.338V-12.8Z" transform="translate(990.354 2721.51) rotate(70.563)" fill="#12263f"/>
    <path id="Trazado_732915" data-name="Trazado 732915" d="M12.19,0H9.407L3.989-8.888V0H1.206V-13.508H3.989L9.417-4.6v-8.906H12.19Z" transform="translate(993.552 2733.534) rotate(73.128)" fill="#12263f"/>
    <path id="Trazado_732916" data-name="Trazado 732916" d="M3.946,0H1.31V-12.8H3.946Z" transform="matrix(0.259, 0.966, -0.966, 0.259, 998.341, 2746.1)" fill="#12263f"/>
    <path id="Trazado_732917" data-name="Trazado 732917" d="M11.374-11.253H7.236V0H4.453V-11.253H.371v-2.254h11Z" transform="translate(998.83 2751.611) rotate(76.716)" fill="#12263f"/>
    <path id="Trazado_732918" data-name="Trazado 732918" d="M8.832-2.783H3.952L3.024,0H.065L5.093-13.508H7.672L12.729,0H9.769ZM4.7-5.038H8.081l-1.7-5.056Z" transform="translate(1001.287 2761.863) rotate(78.917)" fill="#12263f"/>
    <path id="Trazado_732919" data-name="Trazado 732919" d="M6.207-4.945H3.989V0H1.206V-13.508H6.225a5.674,5.674,0,0,1,3.692,1.067,3.682,3.682,0,0,1,1.3,3.015,4.156,4.156,0,0,1-.6,2.305A4.081,4.081,0,0,1,8.8-5.65L11.727-.13V0H8.739ZM3.989-7.2H6.234a2.3,2.3,0,0,0,1.624-.533A1.907,1.907,0,0,0,8.433-9.2a2.041,2.041,0,0,0-.543-1.5,2.255,2.255,0,0,0-1.665-.547H3.989Z" transform="matrix(0.15, 0.989, -0.989, 0.15, 1003.722, 2774.332)" fill="#12263f"/>
    <path id="Trazado_732920" data-name="Trazado 732920" d="M3.946,0H1.31V-12.8H3.946Z" transform="translate(1006.48 2786.163) rotate(83.111)" fill="#12263f"/>
    <path id="Trazado_732921" data-name="Trazado 732921" d="M12.3-6.448a8.154,8.154,0,0,1-.705,3.5A5.31,5.31,0,0,1,9.579-.631a5.582,5.582,0,0,1-3.01.816,5.62,5.62,0,0,1-3-.807A5.362,5.362,0,0,1,1.531-2.927,7.921,7.921,0,0,1,.8-6.374v-.668a8.111,8.111,0,0,1,.719-3.511,5.353,5.353,0,0,1,2.032-2.329,5.589,5.589,0,0,1,3-.812,5.589,5.589,0,0,1,3,.812,5.353,5.353,0,0,1,2.032,2.329,8.088,8.088,0,0,1,.719,3.5ZM9.481-7.06a5.684,5.684,0,0,0-.761-3.229,2.479,2.479,0,0,0-2.171-1.1A2.48,2.48,0,0,0,4.388-10.3a5.619,5.619,0,0,0-.77,3.2v.659a5.755,5.755,0,0,0,.761,3.21A2.473,2.473,0,0,0,6.568-2.1,2.45,2.45,0,0,0,8.721-3.2,5.722,5.722,0,0,0,9.481-6.4Z" transform="matrix(0.088, 0.996, -0.996, 0.088, 1006.202, 2791.686)" fill="#12263f"/>
    <path id="Trazado_732922" data-name="Trazado 732922" d="M3.989-4.759V0H1.206V-13.508h5.27a6.1,6.1,0,0,1,2.677.557,4.1,4.1,0,0,1,1.777,1.582,4.411,4.411,0,0,1,.622,2.333,3.878,3.878,0,0,1-1.359,3.131A5.661,5.661,0,0,1,6.429-4.759Zm0-2.254H6.476a2.445,2.445,0,0,0,1.684-.52,1.89,1.89,0,0,0,.58-1.484,2.228,2.228,0,0,0-.584-1.6,2.183,2.183,0,0,0-1.614-.631H3.989Z" transform="translate(540.917 2783.108) rotate(-75.086)" fill="#12263f"/>
    <path id="Trazado_732923" data-name="Trazado 732923" d="M8.842-5.546H3.779v3.428H9.721V0H1.143V-12.8H9.7v2.136H3.779v3.05H8.842Z" transform="translate(543.096 2771.121) rotate(-71.504)" fill="#12263f"/>
    <path id="Trazado_732924" data-name="Trazado 732924" d="M6.207-4.945H3.989V0H1.206V-13.508H6.225a5.674,5.674,0,0,1,3.692,1.067,3.682,3.682,0,0,1,1.3,3.015,4.156,4.156,0,0,1-.6,2.305A4.081,4.081,0,0,1,8.8-5.65L11.727-.13V0H8.739ZM3.989-7.2H6.234a2.3,2.3,0,0,0,1.624-.533A1.907,1.907,0,0,0,8.433-9.2a2.041,2.041,0,0,0-.543-1.5,2.255,2.255,0,0,0-1.665-.547H3.989Z" transform="translate(547.365 2761.423) rotate(-67.93)" fill="#12263f"/>
    <path id="Trazado_732925" data-name="Trazado 732925" d="M8.21-3.544a1.428,1.428,0,0,0-.557-1.211,7.3,7.3,0,0,0-2-.891,14.205,14.205,0,0,1-2.292-.923,3.744,3.744,0,0,1-2.3-3.349,3.262,3.262,0,0,1,.617-1.953,4.024,4.024,0,0,1,1.772-1.341,6.669,6.669,0,0,1,2.593-.482,6.071,6.071,0,0,1,2.579.524,4.107,4.107,0,0,1,1.758,1.48A3.872,3.872,0,0,1,11-9.519H8.22a1.821,1.821,0,0,0-.584-1.443,2.4,2.4,0,0,0-1.642-.515,2.567,2.567,0,0,0-1.586.431,1.361,1.361,0,0,0-.566,1.136A1.3,1.3,0,0,0,4.5-8.8a7.494,7.494,0,0,0,1.953.835A8.438,8.438,0,0,1,9.917-6.2,3.529,3.529,0,0,1,11-3.562,3.251,3.251,0,0,1,9.676-.812,5.808,5.808,0,0,1,6.1.186,6.9,6.9,0,0,1,3.266-.385,4.492,4.492,0,0,1,1.313-1.948a4,4,0,0,1-.673-2.3H3.433q0,2.236,2.672,2.236a2.6,2.6,0,0,0,1.549-.4A1.313,1.313,0,0,0,8.21-3.544Z" transform="translate(551.856 2750.345) rotate(-64.218)" fill="#12263f"/>
    <path id="Trazado_732926" data-name="Trazado 732926" d="M12.3-6.448a8.154,8.154,0,0,1-.705,3.5A5.31,5.31,0,0,1,9.579-.631a5.582,5.582,0,0,1-3.01.816,5.62,5.62,0,0,1-3-.807A5.362,5.362,0,0,1,1.531-2.927,7.921,7.921,0,0,1,.8-6.374v-.668a8.111,8.111,0,0,1,.719-3.511,5.353,5.353,0,0,1,2.032-2.329,5.589,5.589,0,0,1,3-.812,5.589,5.589,0,0,1,3,.812,5.353,5.353,0,0,1,2.032,2.329,8.088,8.088,0,0,1,.719,3.5ZM9.481-7.06a5.684,5.684,0,0,0-.761-3.229,2.479,2.479,0,0,0-2.171-1.1A2.48,2.48,0,0,0,4.388-10.3a5.619,5.619,0,0,0-.77,3.2v.659a5.755,5.755,0,0,0,.761,3.21A2.473,2.473,0,0,0,6.568-2.1,2.45,2.45,0,0,0,8.721-3.2,5.722,5.722,0,0,0,9.481-6.4Z" transform="translate(556.832 2739.972) rotate(-60.361)" fill="#12263f"/>
    <path id="Trazado_732927" data-name="Trazado 732927" d="M12.19,0H9.407L3.989-8.888V0H1.206V-13.508H3.989L9.417-4.6v-8.906H12.19Z" transform="translate(563.212 2728.732) rotate(-56.248)" fill="#12263f"/>
    <path id="Trazado_732928" data-name="Trazado 732928" d="M8.832-2.783H3.952L3.024,0H.065L5.093-13.508H7.672L12.729,0H9.769ZM4.7-5.038H8.081l-1.7-5.056Z" transform="matrix(0.613, -0.79, 0.79, 0.613, 570.577, 2717.717)" fill="#12263f"/>
    <path id="Trazado_732929" data-name="Trazado 732929" transform="translate(577.653 2707.118) rotate(-49.49)"/>
    <path id="Trazado_732930" data-name="Trazado 732930" d="M9.333-5.52H3.989V0H1.206V-13.508H10v2.254H3.989v3.488H9.333Z" transform="translate(676.253 2646.944) rotate(-11.677)" fill="#12263f"/>
    <path id="Trazado_732931" data-name="Trazado 732931" d="M8.832-2.783H3.952L3.024,0H.065L5.093-13.508H7.672L12.729,0H9.769ZM4.7-5.038H8.081l-1.7-5.056Z" transform="matrix(0.989, -0.15, 0.15, 0.989, 684.547, 2645.144)" fill="#12263f"/>
    <path id="Trazado_732932" data-name="Trazado 732932" d="M4.588-12.8,7.875-3.516l3.27-9.281h3.463V0H11.962V-3.5l.264-6.038L8.771,0H6.961L3.516-9.527,3.779-3.5V0H1.143V-12.8Z" transform="translate(696.894 2642.177) rotate(-4.068)" fill="#12263f"/>
    <path id="Trazado_732933" data-name="Trazado 732933" d="M3.946,0H1.31V-12.8H3.946Z" transform="matrix(1, -0.016, 0.016, 1, 713.453, 2641.176)" fill="#12263f"/>
    <path id="Trazado_732934" data-name="Trazado 732934" d="M3.989-2.236H9.9V0H1.206V-13.508H3.989Z" transform="translate(718.867 2642.046) rotate(1.74)" fill="#12263f"/>
    <path id="Trazado_732935" data-name="Trazado 732935" d="M3.946,0H1.31V-12.8H3.946Z" transform="translate(729.125 2641.406) rotate(4.17)" fill="#12263f"/>
    <path id="Trazado_732936" data-name="Trazado 732936" d="M8.832-2.783H3.952L3.024,0H.065L5.093-13.508H7.672L12.729,0H9.769ZM4.7-5.038H8.081l-1.7-5.056Z" transform="translate(734.446 2642.702) rotate(7.002)" fill="#12263f"/>
    <path id="Trazado_732937" data-name="Trazado 732937" transform="translate(747.185 2643.353) rotate(9.723)"/>
    <path id="Trazado_732938" data-name="Trazado 732938" d="M11.81-4.5A4.78,4.78,0,0,1,10.2-1.067,5.653,5.653,0,0,1,6.374.186,5.083,5.083,0,0,1,2.287-1.563,7.171,7.171,0,0,1,.8-6.364V-7.19a8.1,8.1,0,0,1,.687-3.433A5.145,5.145,0,0,1,3.447-12.9a5.5,5.5,0,0,1,2.964-.793,5.507,5.507,0,0,1,3.767,1.252,5.137,5.137,0,0,1,1.651,3.516H9.045a2.821,2.821,0,0,0-.728-1.9,2.7,2.7,0,0,0-1.906-.589,2.365,2.365,0,0,0-2.083,1,5.589,5.589,0,0,0-.71,3.094V-6.3a5.982,5.982,0,0,0,.663,3.2A2.321,2.321,0,0,0,6.374-2.087,2.748,2.748,0,0,0,8.3-2.677,2.661,2.661,0,0,0,9.027-4.5Z" transform="matrix(0.671, 0.742, -0.742, 0.671, 849.231, 2697.438)" fill="#12263f"/>
    <path id="Trazado_732939" data-name="Trazado 732939" d="M12.3-6.448a8.154,8.154,0,0,1-.705,3.5A5.31,5.31,0,0,1,9.579-.631a5.582,5.582,0,0,1-3.01.816,5.62,5.62,0,0,1-3-.807A5.362,5.362,0,0,1,1.531-2.927,7.921,7.921,0,0,1,.8-6.374v-.668a8.111,8.111,0,0,1,.719-3.511,5.353,5.353,0,0,1,2.032-2.329,5.589,5.589,0,0,1,3-.812,5.589,5.589,0,0,1,3,.812,5.353,5.353,0,0,1,2.032,2.329,8.088,8.088,0,0,1,.719,3.5ZM9.481-7.06a5.684,5.684,0,0,0-.761-3.229,2.479,2.479,0,0,0-2.171-1.1A2.48,2.48,0,0,0,4.388-10.3a5.619,5.619,0,0,0-.77,3.2v.659a5.755,5.755,0,0,0,.761,3.21A2.473,2.473,0,0,0,6.568-2.1,2.45,2.45,0,0,0,8.721-3.2,5.722,5.722,0,0,0,9.481-6.4Z" transform="matrix(0.618, 0.786, -0.786, 0.618, 857.458, 2706.503)" fill="#12263f"/>
    <path id="Trazado_732940" data-name="Trazado 732940" d="M4.588-12.8,7.875-3.516l3.27-9.281h3.463V0H11.962V-3.5l.264-6.038L8.771,0H6.961L3.516-9.527,3.779-3.5V0H1.143V-12.8Z" transform="translate(866.341 2716.049) rotate(56.41)" fill="#12263f"/>
    <path id="Trazado_732941" data-name="Trazado 732941" d="M10.828-12.8v8.429A4.315,4.315,0,0,1,9.514-1.046,5.066,5.066,0,0,1,5.924.176a5.123,5.123,0,0,1-3.56-1.187A4.242,4.242,0,0,1,1.02-4.271V-12.8H3.656v8.446a2.438,2.438,0,0,0,.6,1.833,2.311,2.311,0,0,0,1.666.576q2.224,0,2.259-2.338V-12.8Z" transform="translate(875.426 2729.863) rotate(60.934)" fill="#12263f"/>
    <path id="Trazado_732942" data-name="Trazado 732942" d="M12.19,0H9.407L3.989-8.888V0H1.206V-13.508H3.989L9.417-4.6v-8.906H12.19Z" transform="translate(880.564 2741.116) rotate(64.972)" fill="#12263f"/>
    <path id="Trazado_732943" data-name="Trazado 732943" d="M3.946,0H1.31V-12.8H3.946Z" transform="translate(887.027 2752.83) rotate(67.93)" fill="#12263f"/>
    <path id="Trazado_732944" data-name="Trazado 732944" d="M1.206,0V-13.508H5.362a6.312,6.312,0,0,1,3.187.8,5.6,5.6,0,0,1,2.194,2.282,7.039,7.039,0,0,1,.789,3.363v.622a7.059,7.059,0,0,1-.775,3.349A5.548,5.548,0,0,1,8.572-.816,6.359,6.359,0,0,1,5.39,0ZM3.989-11.253v9.018H5.334A3.022,3.022,0,0,0,7.83-3.3a4.821,4.821,0,0,0,.881-3.052v-.714a4.9,4.9,0,0,0-.854-3.122,3.012,3.012,0,0,0-2.5-1.062Z" transform="translate(888.21 2758.174) rotate(70.723)" fill="#12263f"/>
    <path id="Trazado_732945" data-name="Trazado 732945" d="M8.832-2.783H3.952L3.024,0H.065L5.093-13.508H7.672L12.729,0H9.769ZM4.7-5.038H8.081l-1.7-5.056Z" transform="translate(892.247 2769.67) rotate(74.657)" fill="#12263f"/>
    <path id="Trazado_732946" data-name="Trazado 732946" d="M1.206,0V-13.508H5.362a6.312,6.312,0,0,1,3.187.8,5.6,5.6,0,0,1,2.194,2.282,7.039,7.039,0,0,1,.789,3.363v.622a7.059,7.059,0,0,1-.775,3.349A5.548,5.548,0,0,1,8.572-.816,6.359,6.359,0,0,1,5.39,0ZM3.989-11.253v9.018H5.334A3.022,3.022,0,0,0,7.83-3.3a4.821,4.821,0,0,0,.881-3.052v-.714a4.9,4.9,0,0,0-.854-3.122,3.012,3.012,0,0,0-2.5-1.062Z" transform="translate(895.583 2781.826) rotate(78.581)" fill="#12263f"/>
    <path id="Trazado_732083" data-name="Trazado 732083" d="M89.948,315.618c-.329.655-.845.72-1.5.543q-10.182-2.756-20.372-5.476c-.584-.156-.782-.356-.552-.951a13.927,13.927,0,0,0,.4-1.485,2.241,2.241,0,0,1,.915.155q4.327,1.164,8.652,2.33a2.132,2.132,0,0,0,.848.157c.507-.018.9-.078,1.073-.725q3.87-14.5,7.8-29c.174-.646.371-1.287.558-1.93.255.079.508.165.766.234q5.188,1.411,10.377,2.819l0,.012c-.054.171-.114.34-.16.512q-4.276,15.879-8.55,31.76c-.093.345-.169.694-.253,1.041" transform="translate(386.033 2463.602)" fill="#12263f"/>
    <path id="Trazado_732084" data-name="Trazado 732084" d="M65.967,261.525c.444-2.224,2-3.733,3.514-5.208a6.04,6.04,0,0,1,3.385-1.6,4.63,4.63,0,0,1,2.416.286c.408.175.117.454.147.685a2.361,2.361,0,0,0-.31.878Q68.592,280.8,62.075,305.031a6.565,6.565,0,0,0-.11.655c-.206.7-.725.378-1.015.2a7.989,7.989,0,0,1-2.533-1.761,8.814,8.814,0,0,1-1.809-4.62c-.051-.545-.057-1.1-.129-1.639a6.316,6.316,0,0,1,.371-2.413.99.99,0,0,0,.024-.652c.055-.17.117-.337.164-.509q3.817-14.176,7.636-28.352a36.671,36.671,0,0,1,1.294-4.419" transform="translate(387.493 2466.869)" fill="#12263f"/>
    <path id="Trazado_732085" data-name="Trazado 732085" d="M83.16,256.4,104.03,262c.259.069.52.134.78.2l.13.062a2.624,2.624,0,0,1,.011,2.363c-.121.106-.254.053-.381.024-.239-.054-.477-.116-.714-.179L83.29,258.934c-.825-.222-.823-.224-.6-1.057q.19-.711.377-1.425a.083.083,0,0,0,.094-.053" transform="translate(384.021 2466.639)" fill="#12263f"/>
    <path id="Trazado_732086" data-name="Trazado 732086" d="M213.029,148.862l-.57-.709q-4.042-5.027-8.083-10.054a2.223,2.223,0,0,0-3.523-.394c-.734.585-1.47,1.17-2.2,1.766a2.188,2.188,0,0,0-.344,3.368q4.058,5.062,8.127,10.114l.566.7c-.2.179-.37.342-.552.488q-3.812,3.069-7.628,6.132a3.639,3.639,0,0,1-5.523-.61q-5.973-7.422-11.939-14.85l-.585-.727c-.807.649-1.587,1.281-2.372,1.9s-1.432,1.447-2.647.837a3.717,3.717,0,0,1-2.24-2.995,5.185,5.185,0,0,1,.035-1.181q1.536-14.189,3.084-28.378a3.661,3.661,0,0,1,4.4-3.569q14.263,1.545,28.525,3.1a3.7,3.7,0,0,1,3.531,3.605,1.253,1.253,0,0,1-.525,1.138c-1.006.76-1.973,1.568-2.952,2.363a2.568,2.568,0,0,0-.272.313l.517.642q5.923,7.368,11.844,14.736c1.686,2.1,1.469,4.1-.626,5.786q-3.7,2.974-7.4,5.946l-.655.527" transform="translate(371.928 2486.018)" fill="#12263f"/>
    <path id="Trazado_732087" data-name="Trazado 732087" d="M365.8,80.164a3.042,3.042,0,0,0,2.07,2.364,9.482,9.482,0,0,0,7.671-.005,4.43,4.43,0,0,0,.8-.466,2.6,2.6,0,0,0,1.233-1.908,9.245,9.245,0,0,1,3.237.884,9.615,9.615,0,0,1,5.439,9.616,3.959,3.959,0,0,1-3.723,3.808,28.058,28.058,0,0,1-4.048.283c-4.519.032-9.038.019-13.558.009a19.194,19.194,0,0,1-4.352-.336,4,4,0,0,1-3.455-4.1,9.617,9.617,0,0,1,8.443-10.15,2.262,2.262,0,0,1,.244,0" transform="translate(347.514 2490.076)" fill="#12263f"/>
    <path id="Trazado_732088" data-name="Trazado 732088" d="M362.3,59.845a1.75,1.75,0,0,0,.28.373.6.6,0,0,1,.058.988.517.517,0,0,0-.148.349c.127,1.894.256,3.786.408,5.677a5.682,5.682,0,0,1-.574,2.418,2.263,2.263,0,0,1-.2-.308,5.642,5.642,0,0,1-.408-2.759c.162-1.643.255-3.294.356-4.942a.764.764,0,0,0-.193-.482.619.619,0,0,1,.111-.942.7.7,0,0,0,.224-.425c.009-.073-.164-.188-.273-.251a4.006,4.006,0,0,1-.521-.248c-.148-.118-.339-.305-.335-.458s.213-.313.355-.447a1.063,1.063,0,0,1,.312-.15q4.56-1.974,9.121-3.948a3.287,3.287,0,0,1,2.7,0q4.562,1.97,9.12,3.951c.294.128.707.2.691.627-.016.393-.4.462-.691.589-.92.406-1.842.806-2.77,1.194a.4.4,0,0,0-.281.434c.014.8,0,1.6.008,2.4a.948.948,0,0,0,.049.34,9.089,9.089,0,0,1,.061,6.221,13.225,13.225,0,0,1-3.994,6.459,5.347,5.347,0,0,1-3.631,1.414,5.415,5.415,0,0,1-3.472-1.429,13.293,13.293,0,0,1-4.007-6.542,8.662,8.662,0,0,1-.133-5.408,11.861,11.861,0,0,0,.29-2.9.99.99,0,0,0-.805-1.226,14.9,14.9,0,0,1-1.6-.671l-.112.1m2.928,8.224c.18.7.329,1.457.575,2.182a11.271,11.271,0,0,0,3.394,5.219,4.583,4.583,0,0,0,3.226,1.189,5.024,5.024,0,0,0,3.274-1.576,12.426,12.426,0,0,0,3.282-5.91,4.347,4.347,0,0,0-.018-2.367,1.914,1.914,0,0,0-2.851-1.348c-.851.368-1.7.744-2.554,1.107a3.252,3.252,0,0,1-2.666,0c-.9-.388-1.793-.788-2.7-1.167a1.832,1.832,0,0,0-2.581,1.093,14.168,14.168,0,0,0-.383,1.581" transform="translate(346.984 2493.554)" fill="#12263f"/>
    <path id="Trazado_732089" data-name="Trazado 732089" d="M343.473,79.134a2.337,2.337,0,0,0,1.42,1.742A6.74,6.74,0,0,0,349,81.5a9.186,9.186,0,0,0,2.211-.643,2.2,2.2,0,0,0,1.432-1.742,7.38,7.38,0,0,1,4.161,1.769,11.378,11.378,0,0,0-4.066,9.561c-.114.008-.226.022-.338.022-3.408,0-6.817.012-10.225-.012a14.914,14.914,0,0,1-2.54-.215,3.106,3.106,0,0,1-2.918-3.2,7.48,7.48,0,0,1,6.758-7.909" transform="translate(350.228 2490.213)" fill="#12263f"/>
    <path id="Trazado_732090" data-name="Trazado 732090" d="M387.973,80.89a7.446,7.446,0,0,1,4.15-1.778,2.734,2.734,0,0,0,2.117,2.052,7.332,7.332,0,0,0,5.545-.242,2.349,2.349,0,0,0,1.522-1.8,6.776,6.776,0,0,1,3.362,1.167,7.309,7.309,0,0,1,3.355,7.106,3.011,3.011,0,0,1-2.733,2.825,14.119,14.119,0,0,1-2.461.235c-3.511.027-7.024.015-10.535.016-.075,0-.151-.008-.253-.014a11.368,11.368,0,0,0-4.07-9.565" transform="translate(343.408 2490.214)" fill="#12263f"/>
    <path id="Trazado_732091" data-name="Trazado 732091" d="M340.765,63.324a1.493,1.493,0,0,0,.2.29c.286.256.289.452.059.763a.788.788,0,0,0-.114.482q.134,2.124.3,4.247a3.553,3.553,0,0,1-.465,1.778,3.289,3.289,0,0,1-.481-1.738c.09-1.3.19-2.6.277-3.9.024-.357.137-.721-.186-1.046-.072-.073.022-.422.14-.552.28-.307.278-.418-.1-.6-.245-.116-.644-.163-.581-.508.036-.192.345-.383.571-.483,2.311-1.017,4.634-2.01,6.949-3.021a2.716,2.716,0,0,1,2.282,0c2.3,1.007,4.611,2,6.916,3a.791.791,0,0,1,.211.095c.146.129.383.272.386.413s-.218.331-.382.408c-.736.343-1.484.66-2.234.97a.39.39,0,0,0-.283.433c.016.567,0,1.136.008,1.7a.952.952,0,0,0,.045.342,7.355,7.355,0,0,1-.076,5.26,10.393,10.393,0,0,1-2.663,4.343,4.455,4.455,0,0,1-2.986,1.377,4.231,4.231,0,0,1-3.029-1.262,10.72,10.72,0,0,1-3.172-5.9,6.977,6.977,0,0,1,.255-3.735,9.005,9.005,0,0,0,.1-1.377,1.142,1.142,0,0,0-.981-1.493,5.432,5.432,0,0,1-.88-.367l-.08.072M348.459,76.4a3.85,3.85,0,0,0,2.739-1.255,9.1,9.1,0,0,0,2.536-4.737,4.018,4.018,0,0,0-.062-1.708,1.437,1.437,0,0,0-2.157-1.018q-.978.416-1.95.845a2.6,2.6,0,0,1-2.208-.007c-.659-.294-1.32-.584-1.985-.862a1.454,1.454,0,0,0-2.095.943,3.467,3.467,0,0,0-.01,2.165,9.173,9.173,0,0,0,2.954,4.793,3.486,3.486,0,0,0,2.237.84" transform="translate(349.813 2492.917)" fill="#12263f"/>
    <path id="Trazado_732092" data-name="Trazado 732092" d="M389.016,63.34a1.924,1.924,0,0,0,.225.284.467.467,0,0,1,.059.736.588.588,0,0,0-.135.36c.095,1.468.2,2.935.309,4.4a4.392,4.392,0,0,1-.46,1.873,4.141,4.141,0,0,1-.479-2.14c.122-1.349.207-2.7.289-4.054a.854.854,0,0,0-.155-.469.469.469,0,0,1,.069-.686c.342-.3.311-.394-.1-.61a3.8,3.8,0,0,1-.595-.483,2.78,2.78,0,0,1,.587-.488c2.336-1.027,4.681-2.033,7.022-3.049a2.57,2.57,0,0,1,2.136-.006q3.53,1.529,7.062,3.055a.876.876,0,0,1,.243.117c.118.106.31.24.3.348a.577.577,0,0,1-.3.386c-.747.349-1.505.675-2.268.989a.421.421,0,0,0-.322.486,5.771,5.771,0,0,1,0,.735,6.021,6.021,0,0,0,.251,1.976,7.193,7.193,0,0,1-.29,4.556,9.742,9.742,0,0,1-3.225,4.815,3.874,3.874,0,0,1-5.061-.03,10.036,10.036,0,0,1-3.328-5.239,7.378,7.378,0,0,1,.042-4.788,8.04,8.04,0,0,0,.084-1.532.912.912,0,0,0-.767-1.167,8,8,0,0,1-1.1-.466l-.094.089M396.7,76.394c.077,0,.155,0,.232,0a4.2,4.2,0,0,0,2.865-1.59,9.889,9.889,0,0,0,2.228-4.4,3.165,3.165,0,0,0-.088-1.751,1.457,1.457,0,0,0-2.135-.973c-.676.285-1.348.582-2.022.873a2.529,2.529,0,0,1-2.1,0c-.684-.3-1.366-.606-2.057-.891a1.424,1.424,0,0,0-2.063.931,3.337,3.337,0,0,0-.163,1.479,9.131,9.131,0,0,0,2.831,5.288,3.615,3.615,0,0,0,2.471,1.043" transform="translate(343.398 2492.918)" fill="#12263f"/>
    <path id="Trazado_732093" data-name="Trazado 732093" d="M544.22,153.137c2.891-4.118,5.673-8.108,8.5-12.065a2.9,2.9,0,0,1,1.237-.842,5.218,5.218,0,0,0,3.469-4.769,17.271,17.271,0,0,1,1.066-6.23,3.742,3.742,0,0,0-1.53-4.472c-1.4-1.026-2.832-2-4.319-3.042a10.656,10.656,0,0,1,.525-.942q3.7-5.289,7.415-10.568c.965-1.369,1.392-1.46,2.769-.5q10.312,7.214,20.6,14.459c1.281.9,1.353,1.39.44,2.691Q572.15,144.318,559.9,161.768c-.573.817-1.218,1.5-2.242.787-4.458-3.1-8.89-6.227-13.435-9.418M562.653,122.7c2.321,1.584,2.148,2.051,3.627-.1,2.089-3.045,2.227-2.338-.829-4.528-2.3-1.648-2.024-1.5-3.528.652-1.783,2.548-1.927,2.112.73,3.981m12.391,2.094c-2.421-1.7-2.427-1.7-3.783.245-1.938,2.781-2.036,2.267.766,4.247,2.468,1.744,2.128,1.743,3.713-.526,1.787-2.556,1.927-2.111-.7-3.965m-18.9,26.787c2.485,1.715,2.216,1.971,3.7-.186,2.005-2.92,2.192-2.242-.867-4.418-2.077-1.477-2.087-1.469-3.548.612-1.8,2.567-1.886,2.163.717,3.992m7.858-11.231c2.461,1.683,2.2,2.041,3.694-.14,2.046-2.989,2.154-2.237-.864-4.394-2.174-1.555-1.94-1.731-3.531.551-1.846,2.647-1.837,2.174.7,3.982" transform="translate(322.63 2486.23)" fill="#12263f"/>
    <path id="Trazado_732094" data-name="Trazado 732094" d="M545.425,135.667c-2.58.188-3.842-1.721-5.358-3.25a2.539,2.539,0,0,0-1.224-.7,4.313,4.313,0,0,1-2.917-1.992,2.034,2.034,0,0,0-1.138-.773A4.312,4.312,0,0,1,532,126.983a1.983,1.983,0,0,0-1.125-.788,4.17,4.17,0,0,1-2.844-2.085,2.444,2.444,0,0,0-1.079-.908c-1.975-.875-4.164-1.451-4.871-3.9-.39-.022-.735-.019-1.075-.063a3.162,3.162,0,0,1-2.767-2.562,3.2,3.2,0,0,1,1.7-3.372c.773-.393,1.631-.63,2.382-1.057a27.432,27.432,0,0,0,3.344-2.149,2.118,2.118,0,0,1,2.833-.209q11.795,8.288,23.6,16.567c.8.562,1.318,1.4.863,2.233-1.17,2.142-.956,4.458-1.161,6.732a3.118,3.118,0,0,1-2.637,2.974,3.205,3.205,0,0,1-3.454-1.982c-.1-.232-.182-.477-.285-.749" transform="translate(326.091 2486.182)" fill="#12263f"/>
    <path id="Trazado_732095" data-name="Trazado 732095" d="M525.122,144.654c1.835-2.616,3.524-5.091,5.294-7.508.7-.955.663-1.581-.377-2.2a24.42,24.42,0,0,1-2.563-1.794c-.861-.68-1.428-.488-2.02.378-1.712,2.509-3.48,4.983-5.265,7.524a5.638,5.638,0,0,1-.729-.364c-3.528-2.468-7.042-4.955-10.579-7.41-.825-.574-1.1-1.163-.472-2.052,2.362-3.337,4.7-6.687,7.059-10.029a4.938,4.938,0,0,1,.48-.479l29.916,21c-.628.893-1.19,1.694-1.751,2.494q-2.81,4-5.622,8.009c-.431.615-.936,1.145-1.715.605-3.85-2.677-7.681-5.382-11.656-8.172m-4.5-16.3c-.177-.126-.352-.252-.531-.374-3.469-2.349-2.533-2.612-5.159,1-.615.845-.42,1.385.4,1.91.946.61,1.841,1.3,2.774,1.93,3.493,2.364,2.5,2.676,5.223-1.1.528-.731.363-1.25-.358-1.721-.8-.52-1.564-1.088-2.344-1.637m13.424,15.662c.177.124.353.252.532.372,3.527,2.375,2.5,2.657,5.224-1.093.53-.73.381-1.241-.342-1.72-.975-.645-1.909-1.352-2.877-2.009-3.5-2.375-2.528-2.67-5.234,1.084a1.054,1.054,0,0,0,.353,1.728c.8.524,1.564,1.09,2.344,1.639" transform="translate(327.438 2484.682)" fill="#12263f"/>
    <path id="Trazado_732096" data-name="Trazado 732096" d="M629.913,300.582c-2.452-8.134-4.888-16.212-7.361-24.415l.987-.3c5.01-1.51,10.02-3.01,15.026-4.535a8.671,8.671,0,0,1,8.656,1.784,6.351,6.351,0,0,1,1.219,1.5,1.08,1.08,0,0,1-.069.889,8.217,8.217,0,0,0,1.086,9.585,9.85,9.85,0,0,0,2.333,1.788,1.085,1.085,0,0,1,.645,1.241c-.466,3.639-2.307,6.317-5.807,7.467-5.409,1.777-10.9,3.325-16.349,4.968a2.168,2.168,0,0,1-.366.028" transform="translate(312.214 2464.714)" fill="#12263f"/>
    <path id="Trazado_732097" data-name="Trazado 732097" d="M626.888,252.812c.258-.1.475-.213.7-.283,4-1.21,7.989-2.446,12-3.606a6.369,6.369,0,0,1,6.59,1.625,1.242,1.242,0,0,1,.267,1.757,6.545,6.545,0,0,0,2.773,8.966,1.107,1.107,0,0,1,.7,1.376,6.81,6.81,0,0,1-2.99,4.5,1.355,1.355,0,0,1-1.093.071,9.856,9.856,0,0,0-6.893-.336c-2.373.691-4.736,1.422-7.164,2.155l-4.892-16.225" transform="translate(311.637 2467.674)" fill="#12263f"/>
    <path id="Trazado_732098" data-name="Trazado 732098" d="M642.034,302.7c2.266-.683,4.45-1.365,6.648-2a10.268,10.268,0,0,0,6.085-4.272,1.35,1.35,0,0,1,.962-.468,6.6,6.6,0,0,1,4.928,1.993,1.107,1.107,0,0,1,.223,1.62,6.505,6.505,0,0,0,2.84,9.042.792.792,0,0,1,.581,1.032,6.245,6.245,0,0,1-4.535,5.434c-4.014,1.268-8.052,2.463-12.081,3.685-.23.069-.471.1-.758.162-1.627-5.4-3.24-10.748-4.893-16.229" transform="translate(309.623 2461.379)" fill="#12263f"/>
    <path id="Trazado_732099" data-name="Trazado 732099" d="M653.127,281.825a6.8,6.8,0,0,1,4.557-8.513,6.823,6.823,0,1,1-4.557,8.513" transform="translate(308.188 2464.429)" fill="#12263f"/>
    <path id="Trazado_732100" data-name="Trazado 732100" d="M653.515,271.671l-2.33-2.415a8.735,8.735,0,0,0,3.5-6.147c5.163-.44,7.025-2.16,7.7-7.146a6.216,6.216,0,0,1,3.8,2.4.834.834,0,0,1-.014.716c-1.966,3.915-.905,7.467,2.839,9.563a1.052,1.052,0,0,1,.433.83A6.383,6.383,0,0,1,667,273.913a8.606,8.606,0,0,0-6.116-4.52c-2.812-.512-5.155.541-7.366,2.278" transform="translate(308.406 2466.697)" fill="#12263f"/>
    <path id="Trazado_732101" data-name="Trazado 732101" d="M658.066,292.277c.223-1.171.425-2.229.646-3.388a8.442,8.442,0,0,0,9.946-9.3,6.349,6.349,0,0,1,4.573,2.433.975.975,0,0,1,.036.861c-1.958,3.81-.861,7.4,2.913,9.533a.976.976,0,0,1,.4.764,6.3,6.3,0,0,1-1.853,3.954,7.071,7.071,0,0,0-4.77-3.211,6.8,6.8,0,0,0-5.52,1.542,8.357,8.357,0,0,0-6.373-3.185" transform="translate(307.491 2463.556)" fill="#12263f"/>
    <path id="Trazado_732102" data-name="Trazado 732102" d="M671.211,307.9a5.294,5.294,0,0,1-6.559-3.462,5.355,5.355,0,0,1,3.62-6.516,5.2,5.2,0,1,1,2.939,9.978" transform="translate(306.642 2461.145)" fill="#12263f"/>
    <path id="Trazado_732103" data-name="Trazado 732103" d="M660.476,254.143a5.267,5.267,0,0,1-3.507,6.476,5.329,5.329,0,0,1-6.575-3.489,5.258,5.258,0,0,1,10.082-2.987" transform="translate(308.539 2467.432)" fill="#12263f"/>
    <path id="Trazado_732104" data-name="Trazado 732104" d="M686.429,285.069a5.219,5.219,0,1,1-6.462-3.489,5.2,5.2,0,0,1,6.462,3.489" transform="translate(305.078 2463.319)" fill="#12263f"/>
    <path id="Trazado_732105" data-name="Trazado 732105" d="M679.278,261.351a5.218,5.218,0,1,1-6.421-3.569,5.189,5.189,0,0,1,6.421,3.569" transform="translate(306.031 2466.481)" fill="#12263f"/>
    <path id="Trazado_732106" data-name="Trazado 732106" d="M235.907,341.878a2.484,2.484,0,0,0-.471,2.64,2.11,2.11,0,0,1-.067,1.786,1.808,1.808,0,0,1-1.7.975A1.739,1.739,0,0,1,232,346.144a6.287,6.287,0,0,1,1.38-7.088.822.822,0,0,0,.3-.727c-.049-.72-.027-1.447-.015-2.171a.422.422,0,0,0-.253-.443,9.475,9.475,0,0,1-3.379-3.042,1.893,1.893,0,1,1,3.1-2.163,5.88,5.88,0,0,0,9.145.784c.2-.2.37-.433.546-.655a1.891,1.891,0,1,1,3,2.3,9.509,9.509,0,0,1-3.359,2.856.414.414,0,0,0-.262.435c0,.782-.027,1.565-.018,2.348a.615.615,0,0,0,.208.371,6.126,6.126,0,0,1,1.916,3.531,6.873,6.873,0,0,1-.425,3.632,1.854,1.854,0,0,1-2.383,1.052,1.931,1.931,0,0,1-1.164-2.345,10.308,10.308,0,0,0,.237-1.675,1.224,1.224,0,0,0-.153-.577c-.1-.212-.2-.482-.385-.577-.148-.078-.419.043-.623.112a4.309,4.309,0,0,1-3.508-.227m-1.236-4.994c0,.493-.026.967,0,1.437a3.246,3.246,0,0,0,4.1,2.924c2.029-.574,2.684-2.327,2.386-4.361Z" transform="translate(364.463 2456.904)" fill="#12263f"/>
    <path id="Trazado_732107" data-name="Trazado 732107" d="M238.545,321.586a4.56,4.56,0,1,1-4.6,4.5,4.552,4.552,0,0,1,4.6-4.5" transform="translate(363.89 2457.971)" fill="#12263f"/>
    <path id="Trazado_732108" data-name="Trazado 732108" d="M281.279,263.736l-4.914,4.909v13.917a1.86,1.86,0,1,1-3.72,0v-6.455h-1.092v6.5a1.86,1.86,0,1,1-3.72,0V268.645l-5.005-4.914a1.606,1.606,0,0,1,2.271-2.271l3.864,3.864h6.231l3.858-3.864a1.589,1.589,0,0,1,2.724,1.135,1.526,1.526,0,0,1-.5,1.141m-5.458-2.777a3.732,3.732,0,1,1-1.092-2.681,3.733,3.733,0,0,1,1.092,2.681" transform="translate(360.11 2466.534)" fill="#12263f"/>
    <path id="Trazado_732109" data-name="Trazado 732109" d="M346.365,236.362q-.76.9-1.519,1.8-.722.858-1.441,1.72a1.826,1.826,0,0,1-2.3.646,2.093,2.093,0,0,1-1.081-2.329,2.574,2.574,0,0,1,.484-.991q1.994-2.433,4.035-4.824a6.289,6.289,0,0,1,4.994-2.31c1.3,0,2.6-.036,3.882.084a5.856,5.856,0,0,1,3.957,2.138c1.391,1.622,2.76,3.263,4.123,4.909a2.17,2.17,0,0,1-.407,3.206,1.754,1.754,0,0,1-2.374-.387c-.945-1.108-1.874-2.228-2.811-3.343-.093-.109-.19-.216-.321-.366a1.145,1.145,0,0,0,.157,1.02q1.488,2.678,2.979,5.356c.291.525.59,1.047.874,1.576a1.632,1.632,0,0,1-1.486,2.493c-.547.007-1.1,0-1.642.005-.721.005-.949.238-.949.972,0,1.911.005,3.821,0,5.732a1.966,1.966,0,0,1-1.465,1.926,1.906,1.906,0,0,1-2.233-.981,2.718,2.718,0,0,1-.238-1.116c-.023-1.87-.01-3.74-.011-5.61a3.084,3.084,0,0,0-.014-.4.531.531,0,0,0-.563-.512.524.524,0,0,0-.556.52c-.023.278-.017.56-.017.841,0,1.79.007,3.581,0,5.371a1.947,1.947,0,0,1-1.41,1.881,1.919,1.919,0,0,1-2.216-.868,2.513,2.513,0,0,1-.3-1.138c-.029-1.883-.012-3.767-.014-5.651,0-.724-.24-.966-.958-.968-.548,0-1.1.006-1.643,0a1.627,1.627,0,0,1-1.47-2.5c1.262-2.292,2.549-4.571,3.809-6.865a5.874,5.874,0,0,0,.329-.969l-.179-.066" transform="translate(349.791 2470.14)" fill="#12263f"/>
    <path id="Trazado_732110" data-name="Trazado 732110" d="M329.239,245.382c0,2.685.007,5.37,0,8.056a1.978,1.978,0,0,1-2.543,1.945,2,2,0,0,1-1.412-2.05c0-2.111,0-4.222,0-6.333,0-.775,0-1.549,0-2.324,0-.49-.19-.737-.542-.738s-.545.251-.546.733q0,4.368,0,8.737a1.974,1.974,0,0,1-3.914.434,4.425,4.425,0,0,1-.043-.678q0-7.876,0-15.751a.612.612,0,0,0,0-.2c-.057-.161-.131-.317-.2-.475a1.62,1.62,0,0,0-.451.258c-.664.768-1.308,1.552-1.96,2.33-.18.215-.358.434-.546.641a1.96,1.96,0,0,1-2.741.188,1.931,1.931,0,0,1-.289-2.7c1.486-1.8,2.967-3.614,4.52-5.359a6.055,6.055,0,0,1,4.6-2.023c1.029-.017,2.057-.011,3.087,0a6.251,6.251,0,0,1,4.867,2.23c1.441,1.667,2.849,3.363,4.251,5.063a1.961,1.961,0,0,1-1.236,3.238,1.893,1.893,0,0,1-1.807-.732c-.773-.92-1.538-1.848-2.325-2.757a2.655,2.655,0,0,0-.551-.381,2.3,2.3,0,0,0-.193.634c-.013,2.672-.009,5.343-.01,8.016" transform="translate(353.296 2470.142)" fill="#12263f"/>
    <path id="Trazado_732111" data-name="Trazado 732111" d="M346.831,222.322a3.342,3.342,0,0,0-.823.337,13.748,13.748,0,0,0-1.5,1.365c-.26.284-.4.266-.624.01a6.032,6.032,0,0,1-1.28-2.463,1.029,1.029,0,0,1,.561-1.138,3.484,3.484,0,0,1,2.43-.448c.627.094,1.237.294,1.916.461a4.547,4.547,0,0,1,7.658.012c.65-.166,1.26-.362,1.884-.468a3.612,3.612,0,0,1,2.263.322,1.148,1.148,0,0,1,.673,1.6,6.059,6.059,0,0,1-1.184,2.116c-.221.251-.36.281-.623-.005a13.932,13.932,0,0,0-1.5-1.366,3.335,3.335,0,0,0-.822-.336,4.651,4.651,0,0,1-1.689,4.053,4.323,4.323,0,0,1-2.927,1,4.391,4.391,0,0,1-3.281-1.522,4.68,4.68,0,0,1-1.131-3.534" transform="translate(349.445 2471.697)" fill="#12263f"/>
    <path id="Trazado_732112" data-name="Trazado 732112" d="M321.211,222.862a4.512,4.512,0,1,1,4.5,4.518,4.515,4.515,0,0,1-4.5-4.518" transform="translate(352.286 2471.699)" fill="#12263f"/>
    <path id="Trazado_732113" data-name="Trazado 732113" d="M407.929,229.381c-.653,2.747-1.232,5.514-2,8.228a8.037,8.037,0,0,1-1.508,2.146c-.7-.625-1.678-1.118-2.054-1.9-1.365-2.839-2.52-5.777-3.772-8.669-.274-.634-.625-1.234-.941-1.85l-.581.187a23.169,23.169,0,0,0,.815,3.65c1.77,4.5,3.663,8.955,5.485,13.437.879,2.165.558,3.247-1.7,3.482-3.665.381-4.79,2.291-4.969,5.687-.155,2.983-1.021,5.921-1.384,8.9-.266,2.2-1.733,1.927-3.213,1.971-1.517.045-2.706-.049-2.97-2.011-.529-3.923-1.3-7.813-1.849-11.733a2.147,2.147,0,0,0-1.968-2.146c-5.394-1.172-5.393-1.226-3.353-6.24,1.546-3.8,3.161-7.578,4.653-11.4a7.077,7.077,0,0,0,.342-3.759,6.466,6.466,0,0,0-.724,1.049q-2.119,4.835-4.185,9.692c-.428,1.007-.982,2.1-2.183,1.366a2.672,2.672,0,0,1-.463-2.4c1.674-5.081,3.5-10.111,5.27-15.162a4.3,4.3,0,0,1,4.453-3.212c2.055.022,4.111.023,6.165-.006a4.39,4.39,0,0,1,4.573,3.362c1.2,3.511,2.456,7,3.909,11.126.864-4.029,1.568-7.392,2.308-10.747.623-2.821,1.878-3.848,4.731-3.877,2.349-.024,4.7-.044,7.046,0a4.093,4.093,0,0,1,4.413,3.493c1.281,5.2,2.474,10.413,3.744,15.612.3,1.224.237,2.3-1.121,2.646-1.405.355-1.921-.671-2.2-1.849q-.949-3.956-1.935-7.9a2.052,2.052,0,0,0-.8-1.236c0,3.315-.239,6.651.049,9.941.621,7.084,1.516,14.144,2.291,21.214.258,2.341-.619,3.788-2.388,4s-2.938-1.046-3.188-3.371q-.916-8.531-1.85-17.06a3.95,3.95,0,0,0-.871-2.188,13.78,13.78,0,0,0-.382,1.638c-.63,5.685-1.239,11.373-1.859,17.059-.047.437-.115.872-.184,1.307-.271,1.7-1.265,2.726-2.983,2.582-1.838-.154-2.7-1.385-2.515-3.214.375-3.795.864-7.579,1.193-11.377.587-6.771,1.091-13.552,1.628-20.327Z" transform="translate(344.56 2471.675)" fill="#12263f"/>
    <path id="Trazado_732114" data-name="Trazado 732114" d="M414.132,210.411a4.7,4.7,0,1,1,4.666,4.809,4.694,4.694,0,0,1-4.666-4.809" transform="translate(339.929 2473.37)" fill="#12263f"/>
    <path id="Trazado_732115" data-name="Trazado 732115" d="M398.191,210.7a4.687,4.687,0,0,1-9.373.011,4.688,4.688,0,1,1,9.373-.011" transform="translate(343.296 2473.354)" fill="#12263f"/>
    <path id="Trazado_732116" data-name="Trazado 732116" d="M459.325,297.4c-1.355-.572-1.617-.836-2.032-2.039l-1.416-.568a2.124,2.124,0,0,1-2.723-.045,2.149,2.149,0,0,1-2.191.351,1.567,1.567,0,0,1-.969-2.026q3.838-12.577,7.681-25.154c.045-.149.108-.293.164-.443.518.034.4.323.3.627q-1.219,3.972-2.425,7.947-2.593,8.489-5.2,16.975a1.15,1.15,0,0,0,.268,1.4,1.51,1.51,0,0,0,1.737.119,7.094,7.094,0,0,0,.615-.468c1.182.929,1.684.929,2.765,0,1.3.915,1.716.916,2.7.07a4.644,4.644,0,0,0,1.485.566,4.756,4.756,0,0,0,1.52-.551c1.1.836,1.532.836,2.667-.082,1.232.912,1.715.913,2.762,0,1.374.9,1.741.9,2.815-.029a1.69,1.69,0,0,0,2.738.037,7.021,7.021,0,0,0,1.048.6,1.365,1.365,0,0,0,1.438-.341,1.092,1.092,0,0,0,.2-1.265q-3.5-11.43-6.982-22.868c-.045-.15-.084-.3-.133-.479.481-.173.545.145.638.455q1.61,5.289,3.229,10.577a15.154,15.154,0,0,0,.8,2.174v-9.332l.315-.055a2.491,2.491,0,0,0,1.839-3.761c-.659-1.25-1.284-2.519-1.942-3.77a.837.837,0,0,1,.066-.93,9.631,9.631,0,0,0,1.557-6.2,6.548,6.548,0,0,0-1.757-3.76c0,.193-.077.438.012.572a7.726,7.726,0,0,1,.313,8.128,17.4,17.4,0,0,1-3.742,4.934,1.358,1.358,0,0,1-1.938.009,1.4,1.4,0,0,1,.024-1.945c.941-1.133,1.94-2.229,2.77-3.439a5.8,5.8,0,0,0,1.081-4.307.461.461,0,0,0-.163-.28,9.735,9.735,0,0,1-3.187,6.628c.329-.456.574-.915.179-1.416.9-.788.86-1.128-.153-1.631.132-.833.048-.982-.731-1.241a13.356,13.356,0,0,1,3.243-9.427,25.615,25.615,0,0,1,2.593-2.38c.875-.763,1.955-.551,2.981-.539.092,0,.226.273.264.438.53,2.289,1.006,4.592,1.587,6.868a15.1,15.1,0,0,0,1.02,2.415,5.572,5.572,0,0,0,.526.749,10.266,10.266,0,0,0,.931-1.768c.643-2.194,1.223-4.409,1.8-6.623.174-.672.254-1.369.377-2.051a5.788,5.788,0,0,1,5.888,2.521,13.273,13.273,0,0,1,2.118,5.787,46.5,46.5,0,0,1-.047,12.117c-.048.456-.11.91-.167,1.366a2,2,0,0,1-2.212,1.92,2.049,2.049,0,0,1-1.734-2.429c.216-2.463.437-4.928.551-7.4a22.77,22.77,0,0,0-.583-6.3.769.769,0,0,0-.246-.437v.6q0,18.474,0,36.947c0,2.357-.558,3.146-2.739,3.872H482.8c-2.163-.771-2.683-1.522-2.683-3.85q0-10.088,0-20.176v-.7h-1.153v.706q0,10.357,0,20.716a3.039,3.039,0,0,1-1.3,2.68,8.417,8.417,0,0,1-1.336.62h-.838a3.383,3.383,0,0,1-2.7-2.75,2.189,2.189,0,0,1-2.794.2l-2.023.528a2.718,2.718,0,0,1-1.943,2.019h-.958a2.7,2.7,0,0,1-1.987-2.128l-.868-.063a2.7,2.7,0,0,1-2.056,2.191Zm25.849-42.587c.087-.176.358-.482.289-.64a1.665,1.665,0,0,0-.724-.78c-.171-.085-.5.156-.7.226-.239-.093-.545-.322-.692-.245a1.742,1.742,0,0,0-.756.751c-.079.171.178.5.258.687-.1.212-.34.506-.271.655a1.69,1.69,0,0,0,.716.786c.179.088.521-.158.738-.236.206.088.518.331.647.257a2.077,2.077,0,0,0,.786-.8c.074-.144-.2-.464-.29-.66" transform="translate(335.172 2467.654)" fill="#12263f"/>
    <path id="Trazado_732117" data-name="Trazado 732117" d="M483.856,234.136a3.761,3.761,0,0,0,.393.116,5.565,5.565,0,1,1-2.094.006,3.387,3.387,0,0,0,.383-.122Z" transform="translate(331.482 2469.6)" fill="#12263f"/>
    <path id="Trazado_732118" data-name="Trazado 732118" d="M480.387,301.072a8.408,8.408,0,0,0,1.335-.62,3.038,3.038,0,0,0,1.3-2.68q-.009-10.357,0-20.716v-.706h1.153v.7q0,10.088,0,20.176c0,2.328.519,3.079,2.683,3.85Z" transform="translate(331.119 2463.985)" fill="#fff"/>
    <path id="Trazado_732119" data-name="Trazado 732119" d="M469.5,253.369c-.337.664-.688,1.29-.977,1.943-.281.636-.5,1.3-.747,1.963-.989-.135-1.985-.321-2.99-.4a16.342,16.342,0,0,0-6.445.666c-.536.177-.682.413-.511,1,.5,1.716.929,3.455,1.384,5.185.029.111.044.226.065.339l-.171.088a4.236,4.236,0,0,1-.516-.906c-.5-1.783-.965-3.578-1.444-5.369-.04-.15-.094-.3-.148-.466a4.106,4.106,0,0,0-.14,5.266,10.18,10.18,0,0,0,3.451,2.624c.567.29,1.164.521,1.729.814a1.327,1.327,0,0,1,.628,1.78,1.311,1.311,0,0,1-1.706.692,16.653,16.653,0,0,1-5.479-3.346,7.063,7.063,0,0,1,2.642-11.844,17.777,17.777,0,0,1,11-.186,3.44,3.44,0,0,1,.375.159" transform="translate(334.727 2467.167)" fill="#12263f"/>
    <path id="Trazado_732120" data-name="Trazado 732120" d="M469.6,243.9a5.58,5.58,0,0,1-11.159.005A5.58,5.58,0,1,1,469.6,243.9" transform="translate(334.037 2469.045)" fill="#12263f"/>
    <path id="Trazado_732121" data-name="Trazado 732121" d="M472.642,247.46c-.632-1.579-1.2-3.148-1.884-4.669a13.3,13.3,0,0,0-2.775-4.086,6.558,6.558,0,0,0-9.864.138,16.064,16.064,0,0,0-3.576,6.16c-.673,2.017-1.149,4.1-1.685,6.159-.111.427-.221.808-.743.737s-.566-.47-.486-.91a28.149,28.149,0,0,1,4.481-11.676,8.878,8.878,0,0,1,5.268-3.8,7.758,7.758,0,0,1,7.686,2.53,19.949,19.949,0,0,1,4.136,7.411c.033.094.07.186.1.282.372,1.318.581.912-.655,1.726" transform="translate(334.947 2469.444)" fill="#12263f"/>
    <path id="Trazado_732122" data-name="Trazado 732122" d="M472.636,272.04c.58-.618,1.114-1.157,1.612-1.727.48-.55.923-1.131,1.352-1.664.394.809,1.321,2.694,1.321,2.694s.487,1.007.787,1.657a1.969,1.969,0,0,1-3.486,1.8c-.563-.891-1.053-1.828-1.585-2.76" transform="translate(332.149 2465.01)" fill="#12263f"/>
    <path id="Trazado_732123" data-name="Trazado 732123" d="M461.31,265.574c.673.67.951.649,1.483-.115.276.063.556.126.849.191.336,1.115.652,1.236,1.488.569l.76.443c-.047,1.007.1,1.164,1.107,1.076l-3.615,4.928c-.856-.331-1.709-.642-2.54-1-.121-.053-.175-.353-.184-.542a4.045,4.045,0,0,1,.1-.734c.38.151.7.3,1.04.413a1.85,1.85,0,0,0,1.437-3.4c-.461-.232-.944-.423-1.409-.649-.691-.335-.688-.341-.518-1.17" transform="translate(333.743 2465.434)" fill="#12263f"/>
    <path id="Trazado_732124" data-name="Trazado 732124" d="M481.8,251V248.78l1.923,1.078L481.8,251" transform="translate(330.931 2467.652)"/>
    <path id="Trazado_732125" data-name="Trazado 732125" d="M484.358,249.767l1.692-.968v2.16l-1.726-.98.034-.212" transform="translate(330.595 2467.649)"/>
    <path id="Trazado_732126" data-name="Trazado 732126" d="M484.73,256.6c-.358.217-.577.455-.747.423a.7.7,0,0,1-.408-.515c-.016-.115.3-.393.453-.386.19.008.37.238.7.478" transform="translate(330.695 2466.676)"/>
    <path id="Trazado_732127" data-name="Trazado 732127" d="M484.728,252.3c-.355.219-.573.46-.742.429a.708.708,0,0,1-.412-.514c-.016-.115.295-.394.451-.388.19.007.371.236.7.473" transform="translate(330.695 2467.247)"/>
    <path id="Trazado_732128" data-name="Trazado 732128" d="M484.043,253.519c.219.354.461.572.431.74a.711.711,0,0,1-.515.413c-.113.017-.393-.295-.387-.45.008-.191.234-.373.471-.7" transform="translate(330.695 2467.021)"/>
    <path id="Trazado_732129" data-name="Trazado 732129" d="M469.337,264.839a.9.9,0,0,1,.832-1.074.9.9,0,0,1-.832,1.074" transform="translate(332.589 2465.659)"/>
    <path id="Trazado_732130" data-name="Trazado 732130" d="M466.55,261.725a.914.914,0,0,1-.473,1.268.914.914,0,0,1,.473-1.268" transform="translate(333.035 2465.931)"/>
    <path id="Trazado_732131" data-name="Trazado 732131" d="M463.487,264.8a1.251,1.251,0,0,1,1.342-.6.955.955,0,0,1-1.342.6" transform="translate(333.366 2465.605)"/>
    <path id="Trazado_732132" data-name="Trazado 732132" d="M461.78,263.862l-1.086.952a.871.871,0,0,1,.942-1.125l.143.173" transform="translate(333.74 2465.67)"/>
    <path id="Trazado_732133" data-name="Trazado 732133" d="M470.522,266.99a.89.89,0,0,1-1.07-.819.89.89,0,0,1,1.07.819" transform="translate(332.573 2465.341)"/>
    <path id="Trazado_732134" data-name="Trazado 732134" d="M468.157,266.28a.915.915,0,0,1-.836,1.074.915.915,0,0,1,.836-1.074" transform="translate(332.857 2465.324)"/>
    <path id="Trazado_732135" data-name="Trazado 732135" d="M465.336,263.014a.9.9,0,0,1-.506-1.249.893.893,0,0,1,.506,1.249" transform="translate(333.2 2465.926)"/>
    <path id="Trazado_732136" data-name="Trazado 732136" d="M463.485,263.038a1.219,1.219,0,0,1,1.391.455c-.531.314-.946.181-1.391-.455" transform="translate(333.366 2465.764)"/>
    <path id="Trazado_732137" data-name="Trazado 732137" d="M462.4,262.157a1.152,1.152,0,0,1,.033-1.418c.46.4.451.891-.033,1.418" transform="translate(333.542 2466.062)"/>
    <path id="Trazado_732138" data-name="Trazado 732138" d="M461.717,262.455a1.265,1.265,0,0,1-.961-1.106c.672.055.965.387.961,1.106" transform="translate(333.729 2465.98)"/>
    <path id="Trazado_732139" data-name="Trazado 732139" d="M467.853,264.735c-.68.187-1.015.053-1.287-.485.538-.228.9-.1,1.287.485" transform="translate(332.957 2465.609)"/>
    <path id="Trazado_732140" data-name="Trazado 732140" d="M464.811,266a1.173,1.173,0,0,1,.564-1.333.928.928,0,0,1-.564,1.333" transform="translate(333.193 2465.539)"/>
    <path id="Trazado_732141" data-name="Trazado 732141" d="M468.768,266.212c-.216-.292-.447-.472-.423-.6.032-.178.263-.319.408-.477.146.139.4.272.409.415.007.174-.2.357-.394.666" transform="translate(332.72 2465.478)"/>
    <path id="Trazado_732142" data-name="Trazado 732142" d="M461.379,263.025a.886.886,0,0,1-1.346-.073.917.917,0,0,1,1.346.073" transform="translate(333.825 2465.802)"/>
    <path id="Trazado_732143" data-name="Trazado 732143" d="M462.335,263.731c-.207-.322-.429-.516-.4-.669a.647.647,0,0,1,.455-.4c.1-.019.37.261.37.406,0,.173-.207.346-.421.66" transform="translate(333.573 2465.806)"/>
    <path id="Trazado_732144" data-name="Trazado 732144" d="M471.043,265.383a1.3,1.3,0,0,1-1.463.187.944.944,0,0,1,1.463-.187" transform="translate(332.556 2465.479)"/>
    <path id="Trazado_732145" data-name="Trazado 732145" d="M467.766,262.972c-.2.539-.531.7-1.195.588a.853.853,0,0,1,1.195-.588" transform="translate(332.956 2465.772)"/>
    <path id="Trazado_732146" data-name="Trazado 732146" d="M469.014,267.832a.917.917,0,0,1-.147-1.358.917.917,0,0,1,.147,1.358" transform="translate(332.682 2465.299)"/>
    <path id="Trazado_732147" data-name="Trazado 732147" d="M462.207,265.3a.919.919,0,0,1,.069-1.324.848.848,0,0,1-.069,1.324" transform="translate(333.569 2465.631)"/>
    <path id="Trazado_732148" data-name="Trazado 732148" d="M466.656,265.952a.9.9,0,0,1-.563-1.241.9.9,0,0,1,.563,1.241" transform="translate(333.028 2465.533)"/>
    <path id="Trazado_732149" data-name="Trazado 732149" d="M466.358,263.856c-.287.226-.46.461-.59.44a.662.662,0,0,1-.444-.4c-.029-.107.225-.4.362-.412.174-.009.36.189.672.377" transform="translate(333.122 2465.697)"/>
    <path id="Trazado_732150" data-name="Trazado 732150" d="M462.89,262.254l1.044-.942c.151.932-.474.911-.874,1.118Z" transform="translate(333.445 2465.985)"/>
    <path id="Trazado_732151" data-name="Trazado 732151" d="M468.641,264.548c-.166-.411-.635-.812.115-1.382.044.543.079.966.114,1.388l-.229-.006" transform="translate(332.72 2465.739)"/>
    <path id="Trazado_732152" data-name="Trazado 732152" d="M469.658,268.958l.112-1.1.174.016c.036.37.484.763-.286,1.086" transform="translate(332.545 2465.115)"/>
    <path id="Trazado_732153" data-name="Trazado 732153" d="M490.184,255.522c.093.2.363.516.29.66a2.077,2.077,0,0,1-.786.8c-.129.075-.441-.168-.647-.257-.217.078-.558.323-.738.236a1.69,1.69,0,0,1-.716-.786c-.069-.148.175-.443.271-.655-.08-.192-.336-.516-.258-.687a1.742,1.742,0,0,1,.756-.751c.146-.076.453.153.692.245.2-.07.53-.311.7-.226a1.665,1.665,0,0,1,.724.78c.069.158-.2.464-.289.64" transform="translate(330.163 2466.949)" fill="#fff"/>
    <path id="Trazado_732154" data-name="Trazado 732154" d="M524.65,325.395c.379-1.208.765-2.413,1.127-3.625a.72.72,0,0,0-.09-.448c-.193-.419-.41-.827-.616-1.237h2.5c-.244.428-.487.838-.708,1.258a.706.706,0,0,0-.106.442c.294,1.138.61,2.268.923,3.4.006.023.032.039.09.106.2-.887.388-1.737.575-2.586.218-.991.425-1.985.659-2.972a1.046,1.046,0,0,1,.3-.426c.1-.1.268-.141.362-.246a2.217,2.217,0,0,1,2.288-.506,2.683,2.683,0,0,1,1.854,1.528q2.119,3.977,4.227,7.961,1.737,3.273,3.472,6.548a.782.782,0,0,0,.519.437,3.493,3.493,0,0,1,2.592,3.446c0,.721,0,1.443,0,2.165a.932.932,0,1,1-1.858.011c-.009-.708,0-1.417,0-2.125a1.6,1.6,0,0,0-.586-1.334,14.417,14.417,0,0,1-1.262,1.252,2.345,2.345,0,0,1-1.757.442v.537q0,11.385,0,22.771a2.977,2.977,0,0,1-.014.44.913.913,0,0,1-.881.784.9.9,0,0,1-.943-.7,1.925,1.925,0,0,1-.037-.436c0-7.938-.017-15.876.022-23.814a3.689,3.689,0,0,0-.478-1.874c-.886-1.631-1.747-3.276-2.618-4.915a.681.681,0,0,0-.257-.286v.454q0,5.211,0,10.423a2.462,2.462,0,0,1-.915,2.044,1.387,1.387,0,0,1-.792.295q-5.852.03-11.706.008a1.163,1.163,0,0,1-.65-.228,2.456,2.456,0,0,1-1-2.082q.007-5.873,0-11.746v-.433l-.076-.036c-.075.113-.156.222-.226.337-1.365,2.234-2.708,4.482-4.1,6.7a6.938,6.938,0,0,1-2.375,2.454,2.362,2.362,0,0,1-3.38-1c-.779-1.447-1.542-2.9-2.311-4.352a.787.787,0,0,0-.257-.307c.154,1.1.307,2.21.465,3.315q.817,5.73,1.639,11.461a1.146,1.146,0,0,1-.357,1.018,2.651,2.651,0,0,1-1.893.844q-8.178.018-16.355,0a2.685,2.685,0,0,1-1.868-.81,1.252,1.252,0,0,1-.373-1.164q1.077-7.475,2.13-14.954.3-2.082.6-4.164c.018-.13.029-.261.055-.505-.15.18-.236.273-.31.374q-2.86,3.843-5.721,7.683a.542.542,0,0,0-.087.54,4.614,4.614,0,0,1,.2,1.177q.017,11.766.008,23.533c0,.689-.278,1.076-.812,1.143a.92.92,0,0,1-1.059-.845c-.013-.133-.005-.267-.005-.4q0-11.586,0-23.172c0-.121,0-.24,0-.361,0-.35-.093-.57-.519-.575a2.361,2.361,0,0,1-1.553-.752.411.411,0,0,0-.533-.072,1.62,1.62,0,0,0-1,1.555c0,.7,0,1.39,0,2.085a.933.933,0,1,1-1.858.011c-.006-.708,0-1.417,0-2.125a3.4,3.4,0,0,1,2.21-3.266.684.684,0,0,0,.473-.554,2.657,2.657,0,0,1,.45-.926q5.08-6.859,10.182-13.7a2.452,2.452,0,0,1,3.344-.63,16.77,16.77,0,0,0,2.886,1.272,5.2,5.2,0,0,0,4.566-.851,2.689,2.689,0,0,1,3.345.091,3.225,3.225,0,0,1,.838,1c1.959,3.647,3.893,7.307,5.834,10.963.062.117.129.231.231.412.111-.172.2-.306.286-.444,2.435-3.99,4.861-7.986,7.315-11.965a5.366,5.366,0,0,1,1.059-1.181,2.631,2.631,0,0,1,2.013-.475.6.6,0,0,1,.271.145,2.6,2.6,0,0,0,.443.34,1.616,1.616,0,0,1,.917,1.447c.264,1.567.588,3.123.89,4.683.017.09.046.179.07.267l.079.017m-27-.577a.79.79,0,1,0-.805-.785.819.819,0,0,0,.805.785m0,14.507a.789.789,0,1,0-.8-.783.813.813,0,0,0,.8.783m-.01-9.678a.781.781,0,1,0-.793-.788.8.8,0,0,0,.793.788m.009,12.947a.8.8,0,0,0-.8.776.79.79,0,0,0,1.579.026.8.8,0,0,0-.776-.8m-.049-8.117a.79.79,0,0,0,.825-.752.79.79,0,0,0-1.577-.071.791.791,0,0,0,.753.823" transform="translate(331.576 2458.387)" fill="#12263f"/>
    <path id="Trazado_732155" data-name="Trazado 732155" d="M534.777,349.871h5.067c.007.127.017.231.017.336q0,7.892,0,15.783a2.526,2.526,0,0,1-3.615,2.316,2.459,2.459,0,0,1-1.465-2.38q-.006-5.669,0-11.337,0-2.2,0-4.406Z" transform="translate(323.886 2454.209)" fill="#12263f"/>
    <path id="Trazado_732156" data-name="Trazado 732156" d="M527.6,349.858h5.068v.4q0,7.851,0,15.7a2.53,2.53,0,0,1-1.982,2.533,2.481,2.481,0,0,1-2.809-1.346,3.248,3.248,0,0,1-.283-1.312c-.018-5.181-.011-10.363-.01-15.543,0-.132.01-.264.018-.432" transform="translate(324.844 2454.211)" fill="#12263f"/>
    <path id="Trazado_732157" data-name="Trazado 732157" d="M500.013,318.882a5.091,5.091,0,1,1,5.112-5.085,5.095,5.095,0,0,1-5.112,5.085" transform="translate(329.185 2459.684)" fill="#12263f"/>
    <path id="Trazado_732158" data-name="Trazado 732158" d="M538.1,312.649a5.09,5.09,0,1,1-5.063-5.132,5.067,5.067,0,0,1,5.063,5.132" transform="translate(324.798 2459.841)" fill="#12263f"/>
    <path id="Trazado_732159" data-name="Trazado 732159" d="M501.42,356.655h5.01a2.416,2.416,0,0,1,.038.306c0,3.3.009,6.6,0,9.894a2.547,2.547,0,0,1-4.131,2.036,2.28,2.28,0,0,1-.942-1.827c-.019-3.431-.01-6.862-.009-10.294a.577.577,0,0,1,.036-.115" transform="translate(328.327 2453.307)" fill="#12263f"/>
    <path id="Trazado_732160" data-name="Trazado 732160" d="M494.178,356.656h5.086v.436q0,4.846,0,9.692a2.545,2.545,0,1,1-5.084-.008q0-4.846,0-9.692Z" transform="translate(329.285 2453.307)" fill="#12263f"/>
    <path id="Trazado_732161" data-name="Trazado 732161" d="M503.23,307.9a6.15,6.15,0,0,0-5.682-.019,2.529,2.529,0,0,1,1-2.45,2.812,2.812,0,0,1,3.188-.3,2.779,2.779,0,0,1,1.49,2.765" transform="translate(328.844 2460.205)" fill="#12263f"/>
    <path id="Trazado_732162" data-name="Trazado 732162" d="M500.7,325.552a.79.79,0,1,1,.773-.815.823.823,0,0,1-.773.815" transform="translate(328.524 2457.653)" fill="#fff"/>
    <path id="Trazado_732163" data-name="Trazado 732163" d="M500.7,342.285a.789.789,0,1,1,.775-.812.815.815,0,0,1-.775.812" transform="translate(328.524 2455.428)" fill="#fff"/>
    <path id="Trazado_732164" data-name="Trazado 732164" d="M500.693,331.124a.781.781,0,1,1,.786-.8.8.8,0,0,1-.786.8" transform="translate(328.524 2456.909)" fill="#fff"/>
    <path id="Trazado_732165" data-name="Trazado 732165" d="M500.7,346.3a.794.794,0,0,1,.777.8.79.79,0,0,1-1.58-.025.8.8,0,0,1,.8-.776" transform="translate(328.524 2454.684)" fill="#fff"/>
    <path id="Trazado_732166" data-name="Trazado 732166" d="M500.653,336.7a.791.791,0,0,1-.753-.823.79.79,0,0,1,1.577.071.79.79,0,0,1-.825.752" transform="translate(328.524 2456.169)" fill="#fff"/>
    <path id="Trazado_732947" data-name="Trazado 732947" d="M0,0H815V324H0Z" transform="translate(395 2501)" fill="none"/>
    <path id="Trazado_732948" data-name="Trazado 732948" d="M8.842-5.546H3.779v3.428H9.721V0H1.143V-12.8H9.7v2.136H3.779v3.05H8.842ZM21.674,0H19.037L13.9-8.42V0H11.268V-12.8H13.9l5.142,8.438V-12.8h2.628ZM33.354-10.661h-3.92V0H26.8V-10.661H22.931V-12.8H33.354ZM44.871-6.108A7.725,7.725,0,0,1,44.2-2.795,5.03,5.03,0,0,1,42.291-.6a5.288,5.288,0,0,1-2.852.773A5.324,5.324,0,0,1,36.6-.589a5.08,5.08,0,0,1-1.934-2.184,7.5,7.5,0,0,1-.694-3.265v-.633A7.685,7.685,0,0,1,34.654-10,5.072,5.072,0,0,1,36.579-12.2a5.3,5.3,0,0,1,2.843-.769,5.3,5.3,0,0,1,2.843.769A5.072,5.072,0,0,1,44.19-10a7.663,7.663,0,0,1,.681,3.318ZM42.2-6.688a5.385,5.385,0,0,0-.721-3.059,2.349,2.349,0,0,0-2.057-1.046A2.349,2.349,0,0,0,37.374-9.76a5.324,5.324,0,0,0-.729,3.028v.624a5.453,5.453,0,0,0,.721,3.041,2.342,2.342,0,0,0,2.074,1.081,2.321,2.321,0,0,0,2.039-1.042A5.421,5.421,0,0,0,42.2-6.064Zm9.325,2h-2.1V0H46.787V-12.8h4.755a5.375,5.375,0,0,1,3.5,1.011A3.488,3.488,0,0,1,56.27-8.93,3.937,3.937,0,0,1,55.7-6.746a3.866,3.866,0,0,1-1.718,1.393L56.754-.123V0h-2.83Zm-2.1-2.136h2.127a2.178,2.178,0,0,0,1.538-.505,1.806,1.806,0,0,0,.545-1.393,1.933,1.933,0,0,0-.514-1.424,2.137,2.137,0,0,0-1.578-.519H49.424ZM68.681,0H66.044L60.911-8.42V0H58.274V-12.8h2.637l5.142,8.438V-12.8h2.628ZM81.5-6.108a7.725,7.725,0,0,1-.668,3.313A5.03,5.03,0,0,1,78.915-.6a5.288,5.288,0,0,1-2.852.773,5.324,5.324,0,0,1-2.839-.765,5.08,5.08,0,0,1-1.934-2.184A7.5,7.5,0,0,1,70.6-6.038v-.633A7.685,7.685,0,0,1,71.278-10,5.072,5.072,0,0,1,73.2-12.2a5.3,5.3,0,0,1,2.843-.769,5.3,5.3,0,0,1,2.843.769A5.072,5.072,0,0,1,80.814-10,7.663,7.663,0,0,1,81.5-6.68Zm-2.672-.58A5.385,5.385,0,0,0,78.1-9.747a2.349,2.349,0,0,0-2.057-1.046A2.349,2.349,0,0,0,74-9.76a5.324,5.324,0,0,0-.729,3.028v.624a5.453,5.453,0,0,0,.721,3.041,2.342,2.342,0,0,0,2.074,1.081A2.321,2.321,0,0,0,78.1-3.028a5.421,5.421,0,0,0,.721-3.037ZM90.047-3.357A1.353,1.353,0,0,0,89.519-4.5a6.917,6.917,0,0,0-1.9-.844,13.458,13.458,0,0,1-2.171-.875A3.547,3.547,0,0,1,83.27-9.4a3.09,3.09,0,0,1,.584-1.85,3.812,3.812,0,0,1,1.679-1.27,6.318,6.318,0,0,1,2.457-.457,5.751,5.751,0,0,1,2.443.5,3.891,3.891,0,0,1,1.666,1.4,3.668,3.668,0,0,1,.593,2.057H90.056a1.726,1.726,0,0,0-.554-1.367,2.276,2.276,0,0,0-1.556-.488,2.432,2.432,0,0,0-1.5.409,1.289,1.289,0,0,0-.536,1.077,1.235,1.235,0,0,0,.628,1.046,7.1,7.1,0,0,0,1.85.791,7.994,7.994,0,0,1,3.278,1.679,3.343,3.343,0,0,1,1.028,2.5A3.08,3.08,0,0,1,91.436-.769a5.5,5.5,0,0,1-3.384.945,6.534,6.534,0,0,1-2.689-.541,4.256,4.256,0,0,1-1.85-1.481,3.793,3.793,0,0,1-.637-2.18H85.52q0,2.118,2.531,2.118a2.462,2.462,0,0,0,1.468-.382A1.244,1.244,0,0,0,90.047-3.357Z" transform="translate(1065.127 2563.532)"/>
    <path id="Trazado_732949" data-name="Trazado 732949" d="M1.206,0V-13.508H5.362a6.312,6.312,0,0,1,3.187.8,5.6,5.6,0,0,1,2.194,2.282,7.039,7.039,0,0,1,.789,3.363v.622a7.059,7.059,0,0,1-.775,3.349A5.548,5.548,0,0,1,8.572-.816,6.359,6.359,0,0,1,5.39,0ZM3.989-11.253v9.018H5.334A3.022,3.022,0,0,0,7.83-3.3a4.821,4.821,0,0,0,.881-3.052v-.714a4.9,4.9,0,0,0-.854-3.122,3.012,3.012,0,0,0-2.5-1.062Zm17.692,5.4H16.337v3.618h6.271V0H13.554V-13.508H22.59v2.254H16.337v3.219h5.344Zm9.565,2.31a1.428,1.428,0,0,0-.557-1.211,7.3,7.3,0,0,0-2-.891,14.206,14.206,0,0,1-2.292-.923,3.744,3.744,0,0,1-2.3-3.349,3.262,3.262,0,0,1,.617-1.953,4.024,4.024,0,0,1,1.772-1.341,6.669,6.669,0,0,1,2.593-.482,6.071,6.071,0,0,1,2.579.524,4.107,4.107,0,0,1,1.758,1.48,3.872,3.872,0,0,1,.626,2.171H31.255a1.821,1.821,0,0,0-.584-1.443,2.4,2.4,0,0,0-1.642-.515,2.567,2.567,0,0,0-1.586.431,1.361,1.361,0,0,0-.566,1.136,1.3,1.3,0,0,0,.663,1.1,7.494,7.494,0,0,0,1.953.835A8.438,8.438,0,0,1,32.953-6.2a3.529,3.529,0,0,1,1.085,2.635A3.251,3.251,0,0,1,32.712-.812a5.808,5.808,0,0,1-3.572,1A6.9,6.9,0,0,1,26.3-.385a4.492,4.492,0,0,1-1.953-1.563,4,4,0,0,1-.673-2.3h2.792q0,2.236,2.672,2.236a2.6,2.6,0,0,0,1.549-.4A1.313,1.313,0,0,0,31.246-3.544ZM46.09-11.253H41.952V0H39.169V-11.253H35.087v-2.254h11ZM50.636,0H47.853V-13.508h2.783ZM64.2,0H61.416L56-8.888V0H53.215V-13.508H56L61.425-4.6v-8.906H64.2ZM74.423-2.783h-4.88L68.615,0H65.656l5.028-13.508h2.579L78.319,0H75.36ZM70.294-5.038h3.377l-1.7-5.056Zm17.2-6.216H83.358V0H80.575V-11.253H76.493v-2.254h11Zm7,8.47h-4.88L88.685,0H85.726l5.028-13.508h2.579L98.389,0H95.43ZM90.364-5.038h3.377l-1.7-5.056Zm14.287.093h-2.217V0H99.651V-13.508h5.019a5.674,5.674,0,0,1,3.692,1.067,3.682,3.682,0,0,1,1.3,3.015,4.156,4.156,0,0,1-.6,2.305,4.081,4.081,0,0,1-1.814,1.47l2.922,5.52V0h-2.987ZM102.434-7.2h2.245a2.3,2.3,0,0,0,1.624-.533,1.907,1.907,0,0,0,.575-1.47,2.041,2.041,0,0,0-.543-1.5,2.255,2.255,0,0,0-1.665-.547h-2.236Zm12.3,7.2h-2.783V-13.508h2.783Zm13.675-6.448a8.154,8.154,0,0,1-.705,3.5,5.31,5.31,0,0,1-2.018,2.319,5.582,5.582,0,0,1-3.01.816,5.62,5.62,0,0,1-3-.807,5.362,5.362,0,0,1-2.041-2.305,7.921,7.921,0,0,1-.733-3.447v-.668a8.111,8.111,0,0,1,.719-3.511,5.353,5.353,0,0,1,2.032-2.329,5.589,5.589,0,0,1,3-.812,5.589,5.589,0,0,1,3,.812,5.353,5.353,0,0,1,2.032,2.329,8.088,8.088,0,0,1,.719,3.5Zm-2.82-.612a5.684,5.684,0,0,0-.761-3.229,2.479,2.479,0,0,0-2.171-1.1A2.48,2.48,0,0,0,120.5-10.3a5.619,5.619,0,0,0-.77,3.2v.659a5.755,5.755,0,0,0,.761,3.21A2.473,2.473,0,0,0,122.677-2.1a2.45,2.45,0,0,0,2.152-1.1,5.722,5.722,0,0,0,.761-3.205Zm11.847,3.516a1.428,1.428,0,0,0-.557-1.211,7.3,7.3,0,0,0-2-.891,14.205,14.205,0,0,1-2.292-.923,3.744,3.744,0,0,1-2.3-3.349,3.262,3.262,0,0,1,.617-1.953,4.024,4.024,0,0,1,1.772-1.341,6.669,6.669,0,0,1,2.593-.482,6.071,6.071,0,0,1,2.579.524,4.107,4.107,0,0,1,1.758,1.48,3.872,3.872,0,0,1,.626,2.171h-2.783a1.821,1.821,0,0,0-.584-1.443,2.4,2.4,0,0,0-1.642-.515,2.567,2.567,0,0,0-1.586.431,1.361,1.361,0,0,0-.566,1.136,1.3,1.3,0,0,0,.663,1.1,7.494,7.494,0,0,0,1.953.835,8.438,8.438,0,0,1,3.46,1.772,3.529,3.529,0,0,1,1.085,2.635A3.251,3.251,0,0,1,138.9-.812a5.808,5.808,0,0,1-3.572,1,6.9,6.9,0,0,1-2.839-.571,4.492,4.492,0,0,1-1.953-1.563,4,4,0,0,1-.673-2.3h2.792q0,2.236,2.672,2.236a2.6,2.6,0,0,0,1.549-.4A1.313,1.313,0,0,0,137.438-3.544Z" transform="translate(1043.077 2604.76)"/>
    <path id="Trazado_732950" data-name="Trazado 732950" d="M4.588-12.8,7.875-3.516l3.27-9.281h3.463V0H11.962V-3.5l.264-6.038L8.771,0H6.961L3.516-9.527,3.779-3.5V0H1.143V-12.8ZM27.422-6.108a7.725,7.725,0,0,1-.668,3.313A5.03,5.03,0,0,1,24.842-.6,5.288,5.288,0,0,1,21.99.176a5.324,5.324,0,0,1-2.839-.765,5.08,5.08,0,0,1-1.934-2.184,7.5,7.5,0,0,1-.694-3.265v-.633A7.685,7.685,0,0,1,17.2-10,5.072,5.072,0,0,1,19.129-12.2a5.3,5.3,0,0,1,2.843-.769,5.3,5.3,0,0,1,2.843.769A5.072,5.072,0,0,1,26.741-10a7.663,7.663,0,0,1,.681,3.318Zm-2.672-.58a5.385,5.385,0,0,0-.721-3.059,2.349,2.349,0,0,0-2.057-1.046A2.349,2.349,0,0,0,19.925-9.76,5.324,5.324,0,0,0,19.2-6.732v.624a5.453,5.453,0,0,0,.721,3.041A2.342,2.342,0,0,0,21.99-1.986a2.321,2.321,0,0,0,2.039-1.042,5.421,5.421,0,0,0,.721-3.037ZM32.783-12.8,36.07-3.516,39.34-12.8H42.8V0H40.157V-3.5l.264-6.038L36.967,0H35.156L31.711-9.527,31.975-3.5V0H29.338V-12.8ZM52.8-5.546H47.742v3.428h5.941V0H45.105V-12.8h8.561v2.136H47.742v3.05H52.8ZM65.637,0H63L57.867-8.42V0H55.23V-12.8h2.637l5.142,8.438V-12.8h2.628ZM77.317-10.661H73.4V0H70.761V-10.661H66.894V-12.8H77.317ZM88.852-6.108a7.725,7.725,0,0,1-.668,3.313A5.03,5.03,0,0,1,86.272-.6,5.288,5.288,0,0,1,83.42.176a5.324,5.324,0,0,1-2.839-.765,5.08,5.08,0,0,1-1.934-2.184,7.5,7.5,0,0,1-.694-3.265v-.633A7.685,7.685,0,0,1,78.635-10,5.072,5.072,0,0,1,80.559-12.2a5.3,5.3,0,0,1,2.843-.769,5.3,5.3,0,0,1,2.843.769A5.072,5.072,0,0,1,88.171-10a7.663,7.663,0,0,1,.681,3.318Zm-2.672-.58a5.385,5.385,0,0,0-.721-3.059A2.349,2.349,0,0,0,83.4-10.793,2.349,2.349,0,0,0,81.355-9.76a5.324,5.324,0,0,0-.729,3.028v.624a5.453,5.453,0,0,0,.721,3.041A2.342,2.342,0,0,0,83.42-1.986a2.321,2.321,0,0,0,2.039-1.042,5.421,5.421,0,0,0,.721-3.037ZM97.4-3.357A1.353,1.353,0,0,0,96.876-4.5a6.917,6.917,0,0,0-1.9-.844,13.458,13.458,0,0,1-2.171-.875A3.547,3.547,0,0,1,90.627-9.4a3.09,3.09,0,0,1,.584-1.85,3.812,3.812,0,0,1,1.679-1.27,6.318,6.318,0,0,1,2.457-.457,5.751,5.751,0,0,1,2.443.5,3.891,3.891,0,0,1,1.666,1.4,3.668,3.668,0,0,1,.593,2.057H97.412a1.726,1.726,0,0,0-.554-1.367,2.276,2.276,0,0,0-1.556-.488,2.432,2.432,0,0,0-1.5.409,1.289,1.289,0,0,0-.536,1.077,1.235,1.235,0,0,0,.628,1.046,7.1,7.1,0,0,0,1.85.791,7.994,7.994,0,0,1,3.278,1.679,3.343,3.343,0,0,1,1.028,2.5A3.08,3.08,0,0,1,98.792-.769a5.5,5.5,0,0,1-3.384.945,6.534,6.534,0,0,1-2.689-.541,4.256,4.256,0,0,1-1.85-1.481,3.793,3.793,0,0,1-.637-2.18h2.646q0,2.118,2.531,2.118a2.462,2.462,0,0,0,1.468-.382A1.244,1.244,0,0,0,97.4-3.357ZM106.316,0V-12.8h3.938a5.98,5.98,0,0,1,3.019.76,5.3,5.3,0,0,1,2.079,2.162,6.669,6.669,0,0,1,.747,3.186V-6.1a6.688,6.688,0,0,1-.734,3.173,5.256,5.256,0,0,1-2.07,2.153A6.025,6.025,0,0,1,110.28,0Zm2.637-10.661v8.543h1.274a2.863,2.863,0,0,0,2.364-1.011,4.567,4.567,0,0,0,.835-2.892V-6.7a4.64,4.64,0,0,0-.809-2.958,2.854,2.854,0,0,0-2.364-1.006Zm16.761,5.115h-5.062v3.428h5.941V0h-8.578V-12.8h8.561v2.136h-5.924v3.05h5.063Zm5.062,3.428h5.6V0h-8.235V-12.8h2.637Z" transform="translate(1042.142 2643.988)"/>
    <path id="Trazado_732951" data-name="Trazado 732951" d="M11.81-4.5A4.78,4.78,0,0,1,10.2-1.067,5.653,5.653,0,0,1,6.374.186,5.083,5.083,0,0,1,2.287-1.563,7.171,7.171,0,0,1,.8-6.364V-7.19a8.1,8.1,0,0,1,.687-3.433A5.145,5.145,0,0,1,3.447-12.9a5.5,5.5,0,0,1,2.964-.793,5.507,5.507,0,0,1,3.767,1.252,5.137,5.137,0,0,1,1.651,3.516H9.045a2.821,2.821,0,0,0-.728-1.9,2.7,2.7,0,0,0-1.906-.589,2.365,2.365,0,0,0-2.083,1,5.589,5.589,0,0,0-.71,3.094V-6.3a5.982,5.982,0,0,0,.663,3.2A2.321,2.321,0,0,0,6.374-2.087,2.748,2.748,0,0,0,8.3-2.677,2.661,2.661,0,0,0,9.027-4.5Zm12.051-9.008v8.9A4.555,4.555,0,0,1,22.474-1.1a5.347,5.347,0,0,1-3.79,1.29,5.407,5.407,0,0,1-3.757-1.252,4.477,4.477,0,0,1-1.419-3.442v-9h2.783v8.916a2.574,2.574,0,0,0,.635,1.934,2.44,2.44,0,0,0,1.758.608q2.347,0,2.384-2.468v-8.99Zm7.283,8.563H28.927V0H26.144V-13.508h5.019a5.674,5.674,0,0,1,3.692,1.067,3.682,3.682,0,0,1,1.3,3.015,4.156,4.156,0,0,1-.6,2.305,4.081,4.081,0,0,1-1.814,1.47L36.664-.13V0H33.677ZM28.927-7.2h2.245A2.3,2.3,0,0,0,32.8-7.733a1.907,1.907,0,0,0,.575-1.47,2.041,2.041,0,0,0-.543-1.5,2.255,2.255,0,0,0-1.665-.547H28.927ZM45.273-3.544a1.428,1.428,0,0,0-.557-1.211,7.3,7.3,0,0,0-2-.891,14.205,14.205,0,0,1-2.292-.923,3.744,3.744,0,0,1-2.3-3.349,3.262,3.262,0,0,1,.617-1.953,4.024,4.024,0,0,1,1.772-1.341,6.669,6.669,0,0,1,2.593-.482,6.071,6.071,0,0,1,2.579.524,4.107,4.107,0,0,1,1.758,1.48,3.872,3.872,0,0,1,.626,2.171H45.283a1.821,1.821,0,0,0-.584-1.443,2.4,2.4,0,0,0-1.642-.515,2.567,2.567,0,0,0-1.586.431A1.361,1.361,0,0,0,40.9-9.908a1.3,1.3,0,0,0,.663,1.1,7.494,7.494,0,0,0,1.953.835A8.438,8.438,0,0,1,46.98-6.2a3.529,3.529,0,0,1,1.085,2.635A3.251,3.251,0,0,1,46.739-.812a5.808,5.808,0,0,1-3.572,1,6.9,6.9,0,0,1-2.839-.571,4.492,4.492,0,0,1-1.953-1.563,4,4,0,0,1-.673-2.3H40.5q0,2.236,2.672,2.236a2.6,2.6,0,0,0,1.549-.4A1.313,1.313,0,0,0,45.273-3.544Zm15.771-2.9a8.154,8.154,0,0,1-.705,3.5A5.31,5.31,0,0,1,58.322-.631a5.582,5.582,0,0,1-3.01.816,5.62,5.62,0,0,1-3-.807,5.362,5.362,0,0,1-2.041-2.305,7.921,7.921,0,0,1-.733-3.447v-.668a8.111,8.111,0,0,1,.719-3.511,5.353,5.353,0,0,1,2.032-2.329,5.589,5.589,0,0,1,3-.812,5.589,5.589,0,0,1,3,.812,5.353,5.353,0,0,1,2.032,2.329,8.088,8.088,0,0,1,.719,3.5Zm-2.82-.612a5.684,5.684,0,0,0-.761-3.229,2.479,2.479,0,0,0-2.171-1.1,2.48,2.48,0,0,0-2.162,1.09,5.619,5.619,0,0,0-.77,3.2v.659a5.755,5.755,0,0,0,.761,3.21A2.473,2.473,0,0,0,55.312-2.1a2.45,2.45,0,0,0,2.152-1.1A5.722,5.722,0,0,0,58.225-6.4ZM67.8,0V-13.508h4.156a6.312,6.312,0,0,1,3.187.8,5.6,5.6,0,0,1,2.194,2.282,7.039,7.039,0,0,1,.789,3.363v.622a7.059,7.059,0,0,1-.775,3.349A5.548,5.548,0,0,1,75.165-.816,6.359,6.359,0,0,1,71.983,0Zm2.783-11.253v9.018h1.345a3.022,3.022,0,0,0,2.5-1.067A4.821,4.821,0,0,0,75.3-6.355v-.714a4.9,4.9,0,0,0-.854-3.122,3.012,3.012,0,0,0-2.5-1.062Zm17.692,5.4H82.93v3.618H89.2V0H80.147V-13.508h9.036v2.254H82.93v3.219h5.344ZM98.349-2.236h5.91V0H95.566V-13.508h2.783Zm15.479-.547h-4.88L108.02,0h-2.959l5.028-13.508h2.579L117.724,0h-2.959ZM109.7-5.038h3.377l-1.7-5.056Zm19.009,1.688,3.062-10.159h3.1L130.165,0h-2.9l-4.685-13.508h3.089ZM139.1,0h-2.783V-13.508H139.1Zm2.579,0V-13.508h4.156a6.312,6.312,0,0,1,3.187.8,5.6,5.6,0,0,1,2.194,2.282A7.039,7.039,0,0,1,152-7.06v.622a7.059,7.059,0,0,1-.775,3.349,5.548,5.548,0,0,1-2.185,2.273A6.359,6.359,0,0,1,145.862,0Zm2.783-11.253v9.018h1.345A3.022,3.022,0,0,0,148.3-3.3a4.821,4.821,0,0,0,.881-3.052v-.714a4.9,4.9,0,0,0-.854-3.122,3.012,3.012,0,0,0-2.5-1.062Zm17,8.47h-4.88L155.65,0h-2.959l5.028-13.508H160.3L165.354,0h-2.959Zm-4.128-2.254h3.377l-1.7-5.056Z" transform="translate(1031.804 2667.878)"/>
  </g>
</svg>
