<svg xmlns="http://www.w3.org/2000/svg" xmlns:xlink="http://www.w3.org/1999/xlink" width="815" height="324" viewBox="0 0 815 324">
  <defs>
    <clipPath id="clip-path">
      <rect id="Rectángulo_352597" data-name="Rectángulo 352597" width="815" height="324" transform="translate(0 0.266)" fill="none"/>
    </clipPath>
  </defs>
  <g id="Grupo_1018695" data-name="Grupo 1018695" transform="translate(-395 -2501)">
    <path id="Trazado_732927" data-name="Trazado 732927" d="M0,0H188V56H0Z" transform="translate(1022 2622)" fill="#ddd"/>
    <path id="Trazado_732928" data-name="Trazado 732928" d="M0,0H188V37H0Z" transform="translate(1022 2580)" fill="#ddd"/>
    <path id="Trazado_732929" data-name="Trazado 732929" d="M0,0H188V37H0Z" transform="translate(1022 2538)" fill="#ddd"/>
    <g id="Enmascarar_grupo_1018574" data-name="Enmascarar grupo 1018574" transform="translate(395 2500.734)" clip-path="url(#clip-path)">
      <path id="Trazado_732064" data-name="Trazado 732064" d="M257.68,202.6l-30.35-52.567A223.6,223.6,0,0,0,115.5,343.784h60.691A162.93,162.93,0,0,1,257.68,202.6Z" transform="translate(-15.359 -19.951)" fill="none" stroke="#000" stroke-miterlimit="10" stroke-width="1"/>
      <path id="Trazado_732065" data-name="Trazado 732065" d="M356.343,176.191a162.24,162.24,0,0,1,81.511,21.819l30.35-52.567a223.92,223.92,0,0,0-223.723,0l30.35,52.567A162.24,162.24,0,0,1,356.343,176.191Z" transform="translate(-32.511 -15.359)" fill="#d2e1f1" stroke="#12263f" stroke-miterlimit="10" stroke-width="1"/>
      <path id="Trazado_732066" data-name="Trazado 732066" d="M549,343.784h60.692a223.6,223.6,0,0,0-111.83-193.749L467.513,202.6A162.93,162.93,0,0,1,549,343.784Z" transform="translate(-62.169 -19.951)" fill="none" stroke="#12263f" stroke-miterlimit="10" stroke-width="1"/>
      <path id="Trazado_732067" data-name="Trazado 732067" d="M264.231,113.529,233.406,18.66A324.084,324.084,0,0,0,71.717,136.212L152.4,194.832a224.14,224.14,0,0,1,111.832-81.3" transform="translate(-9.537 -2.481)" fill="#84eae3"/>
      <path id="Trazado_732068" data-name="Trazado 732068" d="M264.231,113.529,233.406,18.66A324.084,324.084,0,0,0,71.717,136.212L152.4,194.832A224.14,224.14,0,0,1,264.231,113.529Z" transform="translate(-9.537 -2.481)" fill="none" stroke="#12263f" stroke-miterlimit="10" stroke-width="1"/>
      <path id="Trazado_732069" data-name="Trazado 732069" d="M565.074,194.832l80.682-58.619A324.086,324.086,0,0,0,484.066,18.661L453.242,113.53a224.145,224.145,0,0,1,111.832,81.3" transform="translate(-60.272 -2.482)" fill="#f3f9ff"/>
      <path id="Trazado_732070" data-name="Trazado 732070" d="M565.074,194.832l80.682-58.619A324.086,324.086,0,0,0,484.066,18.661L453.242,113.53A224.145,224.145,0,0,1,565.074,194.832Z" transform="translate(-60.272 -2.482)" fill="none" stroke="#12263f" stroke-miterlimit="10" stroke-width="1"/>
      <path id="Trazado_732071" data-name="Trazado 732071" d="M.5,344.343h99.707a222.66,222.66,0,0,1,42.722-131.482L62.247,154.242A321.935,321.935,0,0,0,.5,344.343" transform="translate(-0.066 -20.511)" fill="#a7b9f4"/>
      <path id="Trazado_732072" data-name="Trazado 732072" d="M.5,344.343h99.707a222.66,222.66,0,0,1,42.722-131.482L62.247,154.242A321.935,321.935,0,0,0,.5,344.343Z" transform="translate(-0.066 -20.511)" fill="none" stroke="#12263f" stroke-miterlimit="10" stroke-width="1"/>
      <path id="Trazado_732073" data-name="Trazado 732073" d="M358.168,100.207a223.472,223.472,0,0,1,69.138,10.907l30.825-94.869a325.2,325.2,0,0,0-199.926,0l30.825,94.869a223.472,223.472,0,0,1,69.138-10.907" transform="translate(-34.336 -0.066)" fill="#ffe79d"/>
      <path id="Trazado_732074" data-name="Trazado 732074" d="M358.168,100.207a223.472,223.472,0,0,1,69.138,10.907l30.825-94.869a325.2,325.2,0,0,0-199.926,0l30.825,94.869A223.472,223.472,0,0,1,358.168,100.207Z" transform="translate(-34.336 -0.066)" fill="none" stroke="#12263f" stroke-miterlimit="10" stroke-width="1"/>
      <path id="Trazado_732075" data-name="Trazado 732075" d="M624.948,344.343h99.707a321.936,321.936,0,0,0-61.747-190.1l-80.682,58.619a222.66,222.66,0,0,1,42.722,131.482" transform="translate(-77.424 -20.511)" fill="#ddd"/>
      <path id="Trazado_732076" data-name="Trazado 732076" d="M624.948,344.343h99.707a321.936,321.936,0,0,0-61.747-190.1l-80.682,58.619A222.66,222.66,0,0,1,624.948,344.343Z" transform="translate(-77.424 -20.511)" fill="none" stroke="#12263f" stroke-miterlimit="10" stroke-width="1"/>
      <path id="Trazado_732077" data-name="Trazado 732077" d="M459.933,361h86.7a162.212,162.212,0,0,0-21.83-81.5l-75.091,43.354A75.926,75.926,0,0,1,459.933,361Z" transform="translate(-59.802 -37.167)" fill="#f3f9ff" stroke="#000" stroke-miterlimit="10" stroke-width="1"/>
      <path id="Trazado_732078" data-name="Trazado 732078" d="M445.432,313.7l75.09-43.354a163.794,163.794,0,0,0-59.659-59.677l-43.356,75.1A76.678,76.678,0,0,1,445.432,313.7Z" transform="translate(-55.52 -28.014)" fill="#f6f6f6" stroke="#000" stroke-miterlimit="10" stroke-width="1"/>
      <path id="Trazado_732079" data-name="Trazado 732079" d="M185.5,361h86.7a75.926,75.926,0,0,1,10.219-38.151L207.33,279.495A162.212,162.212,0,0,0,185.5,361Z" transform="translate(-24.668 -37.167)" fill="#dee4f0" stroke="#12263f" stroke-miterlimit="10" stroke-width="1"/>
      <path id="Trazado_732080" data-name="Trazado 732080" d="M313.694,285.761l-43.357-75.1a163.813,163.813,0,0,0-59.659,59.677l75.091,43.354A76.666,76.666,0,0,1,313.694,285.761Z" transform="translate(-28.016 -28.014)" fill="#e8e8e8" stroke="#12263f" stroke-miterlimit="10" stroke-width="1"/>
      <path id="Trazado_732081" data-name="Trazado 732081" d="M361,272.2V185.5a162.24,162.24,0,0,0-81.511,21.819l43.357,75.1A75.944,75.944,0,0,1,361,272.2Z" transform="translate(-37.166 -24.668)" fill="#b0c0d2" stroke="#12263f" stroke-miterlimit="10" stroke-width="1"/>
      <path id="Trazado_732082" data-name="Trazado 732082" d="M411.654,282.415l43.357-75.1A162.251,162.251,0,0,0,373.5,185.5v86.7A75.944,75.944,0,0,1,411.654,282.415Z" transform="translate(-49.668 -24.668)" fill="#d2e1f1" stroke="#000" stroke-miterlimit="10" stroke-width="1"/>
    </g>
    <path id="Trazado_732930" data-name="Trazado 732930" d="M3.946,0H1.31V-12.8H3.946Z" transform="translate(428.143 2811.177) rotate(-86.945)" fill="#12263f"/>
    <path id="Trazado_732931" data-name="Trazado 732931" d="M3.5-10.038l.083,1.16a3.5,3.5,0,0,1,2.885-1.345,2.913,2.913,0,0,1,2.375.937,4.372,4.372,0,0,1,.8,2.8V0H6.958V-6.42a1.739,1.739,0,0,0-.371-1.239,1.661,1.661,0,0,0-1.234-.385,1.844,1.844,0,0,0-1.7.965V0H.974V-10.038Z" transform="matrix(0.085, -0.996, 0.996, 0.085, 428.367, 2803.783)" fill="#12263f"/>
    <path id="Trazado_732932" data-name="Trazado 732932" d="M6.466-2.774a.864.864,0,0,0-.487-.775,5.533,5.533,0,0,0-1.563-.506Q.835-4.806.835-7.1A2.758,2.758,0,0,1,1.944-9.328a4.472,4.472,0,0,1,2.9-.9,4.813,4.813,0,0,1,3.057.9A2.836,2.836,0,0,1,9.045-6.986H6.364a1.3,1.3,0,0,0-.371-.951,1.57,1.57,0,0,0-1.16-.376,1.6,1.6,0,0,0-1.048.306.966.966,0,0,0-.371.779.826.826,0,0,0,.422.719,4.342,4.342,0,0,0,1.424.473,11.632,11.632,0,0,1,1.688.45,2.774,2.774,0,0,1,2.125,2.7A2.618,2.618,0,0,1,7.9-.663,5.083,5.083,0,0,1,4.852.186a5.309,5.309,0,0,1-2.24-.45A3.759,3.759,0,0,1,1.076-1.5,2.867,2.867,0,0,1,.52-3.191H3.062A1.4,1.4,0,0,0,3.59-2.1a2.1,2.1,0,0,0,1.317.38,1.941,1.941,0,0,0,1.164-.292A.909.909,0,0,0,6.466-2.774Z" transform="matrix(0.128, -0.992, 0.992, 0.128, 429.52, 2792.507)" fill="#12263f"/>
    <path id="Trazado_732933" data-name="Trazado 732933" d="M4.24-12.506v2.468H5.956v1.967H4.24v5.01a1.2,1.2,0,0,0,.213.8,1.072,1.072,0,0,0,.816.241,4.276,4.276,0,0,0,.789-.065V-.056A5.52,5.52,0,0,1,4.435.186,2.56,2.56,0,0,1,1.559-2.663V-8.071H.093v-1.967H1.559v-2.468Z" transform="matrix(0.168, -0.986, 0.986, 0.168, 432.001, 2781.013)" fill="#12263f"/>
    <path id="Trazado_732934" data-name="Trazado 732934" d="M3.656,0H1.107V-9.51H3.656ZM.958-11.971a1.251,1.251,0,0,1,.382-.94,1.436,1.436,0,0,1,1.042-.369,1.44,1.44,0,0,1,1.037.369,1.244,1.244,0,0,1,.387.94,1.247,1.247,0,0,1-.391.949,1.443,1.443,0,0,1-1.033.369,1.443,1.443,0,0,1-1.033-.369A1.247,1.247,0,0,1,.958-11.971Z" transform="matrix(0.197, -0.98, 0.98, 0.197, 434.03, 2771.278)" fill="#12263f"/>
    <path id="Trazado_732935" data-name="Trazado 732935" d="M4.24-12.506v2.468H5.956v1.967H4.24v5.01a1.2,1.2,0,0,0,.213.8,1.072,1.072,0,0,0,.816.241,4.276,4.276,0,0,0,.789-.065V-.056A5.52,5.52,0,0,1,4.435.186,2.56,2.56,0,0,1,1.559-2.663V-8.071H.093v-1.967H1.559v-2.468Z" transform="translate(435.039 2764.111) rotate(-76.923)" fill="#12263f"/>
    <path id="Trazado_732936" data-name="Trazado 732936" d="M6.671-.967A3.185,3.185,0,0,1,4.069.176,3,3,0,0,1,1.736-.7,3.752,3.752,0,0,1,.914-3.278V-9.51h2.54v6.151q0,1.487,1.354,1.487a1.834,1.834,0,0,0,1.775-.9V-9.51H9.132V0H6.741Z" transform="translate(436.704 2752.482) rotate(-74.524)" fill="#12263f"/>
    <path id="Trazado_732937" data-name="Trazado 732937" d="M5.2-1.976a1.759,1.759,0,0,0,1.206-.408A1.43,1.43,0,0,0,6.893-3.47H9.407A3.439,3.439,0,0,1,8.851-1.6a3.673,3.673,0,0,1-1.5,1.317,4.689,4.689,0,0,1-2.1.469,4.358,4.358,0,0,1-3.4-1.368A5.415,5.415,0,0,1,.612-4.963V-5.14a5.353,5.353,0,0,1,1.234-3.7,4.307,4.307,0,0,1,3.386-1.382,4.222,4.222,0,0,1,3.02,1.072A3.794,3.794,0,0,1,9.407-6.3H6.893a1.842,1.842,0,0,0-.482-1.273,1.608,1.608,0,0,0-1.225-.49,1.615,1.615,0,0,0-1.415.683,3.958,3.958,0,0,0-.478,2.216v.279a4.008,4.008,0,0,0,.473,2.23A1.635,1.635,0,0,0,5.2-1.976Z" transform="translate(440.975 2740.794) rotate(-72.057)" fill="#12263f"/>
    <path id="Trazado_732938" data-name="Trazado 732938" d="M3.656,0H1.107V-9.51H3.656ZM.958-11.971a1.251,1.251,0,0,1,.382-.94,1.436,1.436,0,0,1,1.042-.369,1.44,1.44,0,0,1,1.037.369,1.244,1.244,0,0,1,.387.94,1.247,1.247,0,0,1-.391.949,1.443,1.443,0,0,1-1.033.369,1.443,1.443,0,0,1-1.033-.369A1.247,1.247,0,0,1,.958-11.971Z" transform="translate(443.897 2728.698) rotate(-70.279)" fill="#12263f"/>
    <path id="Trazado_732939" data-name="Trazado 732939" d="M.612-5.112a5.953,5.953,0,0,1,.575-2.663A4.211,4.211,0,0,1,2.844-9.583a4.831,4.831,0,0,1,2.51-.64A4.571,4.571,0,0,1,8.67-8.98,4.989,4.989,0,0,1,10.1-5.6l.019.687a5.247,5.247,0,0,1-1.29,3.706,4.482,4.482,0,0,1-3.46,1.4A4.5,4.5,0,0,1,1.906-1.206,5.339,5.339,0,0,1,.612-4.991Zm2.681.19a3.752,3.752,0,0,0,.538,2.188,1.775,1.775,0,0,0,1.54.757,1.779,1.779,0,0,0,1.521-.748A4.106,4.106,0,0,0,7.44-5.117a3.715,3.715,0,0,0-.547-2.174,1.779,1.779,0,0,0-1.54-.771A1.75,1.75,0,0,0,3.832-7.3,4.175,4.175,0,0,0,3.293-4.921Z" transform="translate(446.615 2723.889) rotate(-68.435)" fill="#12263f"/>
    <path id="Trazado_732940" data-name="Trazado 732940" d="M3.5-10.038l.083,1.16a3.5,3.5,0,0,1,2.885-1.345,2.913,2.913,0,0,1,2.375.937,4.372,4.372,0,0,1,.8,2.8V0H6.958V-6.42a1.739,1.739,0,0,0-.371-1.239,1.661,1.661,0,0,0-1.234-.385,1.844,1.844,0,0,0-1.7.965V0H.974V-10.038Z" transform="translate(451.396 2711.776) rotate(-65.813)" fill="#12263f"/>
    <path id="Trazado_732941" data-name="Trazado 732941" d="M6.847,0a2.977,2.977,0,0,1-.269-.9A3.244,3.244,0,0,1,4.045.186,3.564,3.564,0,0,1,1.6-.668,2.745,2.745,0,0,1,.631-2.82,2.837,2.837,0,0,1,1.814-5.27a5.837,5.837,0,0,1,3.419-.863H6.466v-.575a1.654,1.654,0,0,0-.357-1.113,1.405,1.405,0,0,0-1.127-.417,1.6,1.6,0,0,0-1.062.325,1.1,1.1,0,0,0-.385.891H.854a2.693,2.693,0,0,1,.538-1.614A3.557,3.557,0,0,1,2.913-9.8a5.545,5.545,0,0,1,2.208-.422,4.381,4.381,0,0,1,2.946.932A3.262,3.262,0,0,1,9.157-6.67v4.351a4.8,4.8,0,0,0,.4,2.162V0ZM4.629-1.865a2.309,2.309,0,0,0,1.095-.264,1.737,1.737,0,0,0,.742-.71V-4.564h-1q-2.013,0-2.143,1.392l-.009.158a1.073,1.073,0,0,0,.353.826A1.369,1.369,0,0,0,4.629-1.865Z" transform="matrix(0.45, -0.893, 0.893, 0.45, 456.861, 2699.618)" fill="#12263f"/>
    <path id="Trazado_732942" data-name="Trazado 732942" d="M3.859,0H1.169V-14.25h2.69Z" transform="matrix(0.485, -0.874, 0.874, 0.485, 462.6, 2690.294)" fill="#12263f"/>
    <path id="Trazado_732943" data-name="Trazado 732943" transform="translate(466.744 2678.843) rotate(-59.478)"/>
    <path id="Trazado_732944" data-name="Trazado 732944" d="M12.2,0H9.417V-5.789H3.989V0H1.206V-13.508H3.989v5.474H9.417v-5.474H12.2Z" transform="translate(524.456 2609.056) rotate(-40.735)"/>
    <path id="Trazado_732945" data-name="Trazado 732945" d="M.612-5.112a5.953,5.953,0,0,1,.575-2.663A4.211,4.211,0,0,1,2.844-9.583a4.831,4.831,0,0,1,2.51-.64A4.571,4.571,0,0,1,8.67-8.98,4.989,4.989,0,0,1,10.1-5.6l.019.687a5.247,5.247,0,0,1-1.29,3.706,4.482,4.482,0,0,1-3.46,1.4A4.5,4.5,0,0,1,1.906-1.206,5.339,5.339,0,0,1,.612-4.991Zm2.681.19a3.752,3.752,0,0,0,.538,2.188,1.775,1.775,0,0,0,1.54.757,1.779,1.779,0,0,0,1.521-.748A4.106,4.106,0,0,0,7.44-5.117a3.715,3.715,0,0,0-.547-2.174,1.779,1.779,0,0,0-1.54-.771A1.75,1.75,0,0,0,3.832-7.3,4.175,4.175,0,0,0,3.293-4.921Z" transform="matrix(0.786, -0.618, 0.618, 0.786, 535.556, 2600.358)"/>
    <path id="Trazado_732946" data-name="Trazado 732946" d="M.64-5.093a5.883,5.883,0,0,1,1.1-3.72A3.562,3.562,0,0,1,4.7-10.224a3.124,3.124,0,0,1,2.57,1.132l.111-.946H9.815v9.7a4.29,4.29,0,0,1-.6,2.292A3.843,3.843,0,0,1,7.533,3.442a5.919,5.919,0,0,1-2.542.51,5.5,5.5,0,0,1-2.152-.441A3.82,3.82,0,0,1,1.252,2.375L2.44.742A3.141,3.141,0,0,0,4.871,1.865a2.3,2.3,0,0,0,1.661-.571A2.14,2.14,0,0,0,7.125-.325V-.863A3.1,3.1,0,0,1,4.685.186,3.553,3.553,0,0,1,1.758-1.229,5.881,5.881,0,0,1,.64-4.982Zm2.681.2a3.663,3.663,0,0,0,.547,2.142,1.741,1.741,0,0,0,1.5.776A1.862,1.862,0,0,0,7.125-2.9V-7.124a1.857,1.857,0,0,0-1.735-.92,1.752,1.752,0,0,0-1.517.79A4.129,4.129,0,0,0,3.321-4.894Z" transform="translate(544.782 2592.325) rotate(-35.595)"/>
    <path id="Trazado_732947" data-name="Trazado 732947" d="M6.847,0a2.977,2.977,0,0,1-.269-.9A3.244,3.244,0,0,1,4.045.186,3.564,3.564,0,0,1,1.6-.668,2.745,2.745,0,0,1,.631-2.82,2.837,2.837,0,0,1,1.814-5.27a5.837,5.837,0,0,1,3.419-.863H6.466v-.575a1.654,1.654,0,0,0-.357-1.113,1.405,1.405,0,0,0-1.127-.417,1.6,1.6,0,0,0-1.062.325,1.1,1.1,0,0,0-.385.891H.854a2.693,2.693,0,0,1,.538-1.614A3.557,3.557,0,0,1,2.913-9.8a5.545,5.545,0,0,1,2.208-.422,4.381,4.381,0,0,1,2.946.932A3.262,3.262,0,0,1,9.157-6.67v4.351a4.8,4.8,0,0,0,.4,2.162V0ZM4.629-1.865a2.309,2.309,0,0,0,1.095-.264,1.737,1.737,0,0,0,.742-.71V-4.564h-1q-2.013,0-2.143,1.392l-.009.158a1.073,1.073,0,0,0,.353.826A1.369,1.369,0,0,0,4.629-1.865Z" transform="translate(555.23 2584.845) rotate(-33.074)"/>
    <path id="Trazado_732948" data-name="Trazado 732948" d="M6.67-7.524A7.284,7.284,0,0,0,5.706-7.6a1.964,1.964,0,0,0-1.995,1.03V0H1.03V-10.038H3.563l.074,1.2a2.484,2.484,0,0,1,2.236-1.382,2.809,2.809,0,0,1,.835.121Z" transform="translate(565.887 2577.91) rotate(-30.624)"/>
    <path id="Trazado_732949" data-name="Trazado 732949" transform="translate(575.817 2570.931) rotate(-28.968)"/>
    <path id="Trazado_732950" data-name="Trazado 732950" d="M8.842-5.546H3.779v3.428H9.721V0H1.143V-12.8H9.7v2.136H3.779v3.05H8.842Z" transform="matrix(0.984, -0.179, 0.179, 0.984, 660.828, 2539.26)" fill="#12263f"/>
    <path id="Trazado_732951" data-name="Trazado 732951" d="M.612-5.093A6.049,6.049,0,0,1,1.665-8.832a3.417,3.417,0,0,1,2.881-1.392A3.074,3.074,0,0,1,6.967-9.129V-14.25h2.69V0H7.236l-.13-1.067A3.155,3.155,0,0,1,4.527.186a3.407,3.407,0,0,1-2.844-1.4A6.244,6.244,0,0,1,.612-5.093Zm2.681.2a3.963,3.963,0,0,0,.492,2.165,1.6,1.6,0,0,0,1.429.753,1.794,1.794,0,0,0,1.753-1.05V-6.994a1.768,1.768,0,0,0-1.735-1.05Q3.293-8.043,3.293-4.894Z" transform="translate(672.432 2537.329) rotate(-8.034)" fill="#12263f"/>
    <path id="Trazado_732952" data-name="Trazado 732952" d="M6.671-.967A3.185,3.185,0,0,1,4.069.176,3,3,0,0,1,1.736-.7,3.752,3.752,0,0,1,.914-3.278V-9.51h2.54v6.151q0,1.487,1.354,1.487a1.834,1.834,0,0,0,1.775-.9V-9.51H9.132V0H6.741Z" transform="matrix(0.995, -0.098, 0.098, 0.995, 684.464, 2535.617)" fill="#12263f"/>
    <path id="Trazado_732953" data-name="Trazado 732953" d="M5.2-1.976a1.759,1.759,0,0,0,1.206-.408A1.43,1.43,0,0,0,6.893-3.47H9.407A3.439,3.439,0,0,1,8.851-1.6a3.673,3.673,0,0,1-1.5,1.317,4.689,4.689,0,0,1-2.1.469,4.358,4.358,0,0,1-3.4-1.368A5.415,5.415,0,0,1,.612-4.963V-5.14a5.353,5.353,0,0,1,1.234-3.7,4.307,4.307,0,0,1,3.386-1.382,4.222,4.222,0,0,1,3.02,1.072A3.794,3.794,0,0,1,9.407-6.3H6.893a1.842,1.842,0,0,0-.482-1.273,1.608,1.608,0,0,0-1.225-.49,1.615,1.615,0,0,0-1.415.683,3.958,3.958,0,0,0-.478,2.216v.279a4.008,4.008,0,0,0,.473,2.23A1.635,1.635,0,0,0,5.2-1.976Z" transform="translate(696.912 2534.4) rotate(-3.168)" fill="#12263f"/>
    <path id="Trazado_732954" data-name="Trazado 732954" d="M6.847,0a2.977,2.977,0,0,1-.269-.9A3.244,3.244,0,0,1,4.045.186,3.564,3.564,0,0,1,1.6-.668,2.745,2.745,0,0,1,.631-2.82,2.837,2.837,0,0,1,1.814-5.27a5.837,5.837,0,0,1,3.419-.863H6.466v-.575a1.654,1.654,0,0,0-.357-1.113,1.405,1.405,0,0,0-1.127-.417,1.6,1.6,0,0,0-1.062.325,1.1,1.1,0,0,0-.385.891H.854a2.693,2.693,0,0,1,.538-1.614A3.557,3.557,0,0,1,2.913-9.8a5.545,5.545,0,0,1,2.208-.422,4.381,4.381,0,0,1,2.946.932A3.262,3.262,0,0,1,9.157-6.67v4.351a4.8,4.8,0,0,0,.4,2.162V0ZM4.629-1.865a2.309,2.309,0,0,0,1.095-.264,1.737,1.737,0,0,0,.742-.71V-4.564h-1q-2.013,0-2.143,1.392l-.009.158a1.073,1.073,0,0,0,.353.826A1.369,1.369,0,0,0,4.629-1.865Z" transform="matrix(1, -0.016, 0.016, 1, 708.241, 2533.734)" fill="#12263f"/>
    <path id="Trazado_732955" data-name="Trazado 732955" d="M4.24-12.506v2.468H5.956v1.967H4.24v5.01a1.2,1.2,0,0,0,.213.8,1.072,1.072,0,0,0,.816.241,4.276,4.276,0,0,0,.789-.065V-.056A5.52,5.52,0,0,1,4.435.186,2.56,2.56,0,0,1,1.559-2.663V-8.071H.093v-1.967H1.559v-2.468Z" transform="matrix(1, 0.025, -0.025, 1, 720.828, 2533.551)" fill="#12263f"/>
    <path id="Trazado_732956" data-name="Trazado 732956" d="M3.656,0H1.107V-9.51H3.656ZM.958-11.971a1.251,1.251,0,0,1,.382-.94,1.436,1.436,0,0,1,1.042-.369,1.44,1.44,0,0,1,1.037.369,1.244,1.244,0,0,1,.387.94,1.247,1.247,0,0,1-.391.949,1.443,1.443,0,0,1-1.033.369,1.443,1.443,0,0,1-1.033-.369A1.247,1.247,0,0,1,.958-11.971Z" transform="matrix(0.999, 0.054, -0.054, 0.999, 729.588, 2533.887)" fill="#12263f"/>
    <path id="Trazado_732957" data-name="Trazado 732957" d="M4.787-3.275l1.865-6.763h2.8L6.067,0H3.507L.121-10.038h2.8Z" transform="translate(735.987 2535.127) rotate(4.849)" fill="#12263f"/>
    <path id="Trazado_732958" data-name="Trazado 732958" d="M.612-5.112a5.953,5.953,0,0,1,.575-2.663A4.211,4.211,0,0,1,2.844-9.583a4.831,4.831,0,0,1,2.51-.64A4.571,4.571,0,0,1,8.67-8.98,4.989,4.989,0,0,1,10.1-5.6l.019.687a5.247,5.247,0,0,1-1.29,3.706,4.482,4.482,0,0,1-3.46,1.4A4.5,4.5,0,0,1,1.906-1.206,5.339,5.339,0,0,1,.612-4.991Zm2.681.19a3.752,3.752,0,0,0,.538,2.188,1.775,1.775,0,0,0,1.54.757,1.779,1.779,0,0,0,1.521-.748A4.106,4.106,0,0,0,7.44-5.117a3.715,3.715,0,0,0-.547-2.174,1.779,1.779,0,0,0-1.54-.771A1.75,1.75,0,0,0,3.832-7.3,4.175,4.175,0,0,0,3.293-4.921Z" transform="translate(747.139 2537.145) rotate(7.324)" fill="#12263f"/>
    <path id="Trazado_732959" data-name="Trazado 732959" transform="translate(762.267 2536.888) rotate(9.082)"/>
    <path id="Trazado_732960" data-name="Trazado 732960" d="M3.989-2.236H9.9V0H1.206V-13.508H3.989Z" transform="matrix(0.885, 0.465, -0.465, 0.885, 848.26, 2565.241)" fill="#12263f"/>
    <path id="Trazado_732961" data-name="Trazado 732961" d="M6.847,0a2.977,2.977,0,0,1-.269-.9A3.244,3.244,0,0,1,4.045.186,3.564,3.564,0,0,1,1.6-.668,2.745,2.745,0,0,1,.631-2.82,2.837,2.837,0,0,1,1.814-5.27a5.837,5.837,0,0,1,3.419-.863H6.466v-.575a1.654,1.654,0,0,0-.357-1.113,1.405,1.405,0,0,0-1.127-.417,1.6,1.6,0,0,0-1.062.325,1.1,1.1,0,0,0-.385.891H.854a2.693,2.693,0,0,1,.538-1.614A3.557,3.557,0,0,1,2.913-9.8a5.545,5.545,0,0,1,2.208-.422,4.381,4.381,0,0,1,2.946.932A3.262,3.262,0,0,1,9.157-6.67v4.351a4.8,4.8,0,0,0,.4,2.162V0ZM4.629-1.865a2.309,2.309,0,0,0,1.095-.264,1.737,1.737,0,0,0,.742-.71V-4.564h-1q-2.013,0-2.143,1.392l-.009.158a1.073,1.073,0,0,0,.353.826A1.369,1.369,0,0,0,4.629-1.865Z" transform="translate(857.453 2570.042) rotate(30.013)" fill="#12263f"/>
    <path id="Trazado_732962" data-name="Trazado 732962" d="M10.075-4.926a6.078,6.078,0,0,1-1.03,3.762A3.411,3.411,0,0,1,6.169.186,3.134,3.134,0,0,1,3.563-1.067L3.442,0H1.03V-14.25H3.711v5.112a3.054,3.054,0,0,1,2.44-1.085,3.439,3.439,0,0,1,2.881,1.35,6.087,6.087,0,0,1,1.044,3.8ZM7.394-5.121a3.993,3.993,0,0,0-.482-2.222,1.631,1.631,0,0,0-1.438-.7A1.769,1.769,0,0,0,3.711-7v3.961A1.793,1.793,0,0,0,5.492-1.976,1.655,1.655,0,0,0,7.2-3.256,6.6,6.6,0,0,0,7.394-5.121Z" transform="translate(868.443 2576.395) rotate(32.46)" fill="#12263f"/>
    <path id="Trazado_732963" data-name="Trazado 732963" d="M.612-5.112a5.953,5.953,0,0,1,.575-2.663A4.211,4.211,0,0,1,2.844-9.583a4.831,4.831,0,0,1,2.51-.64A4.571,4.571,0,0,1,8.67-8.98,4.989,4.989,0,0,1,10.1-5.6l.019.687a5.247,5.247,0,0,1-1.29,3.706,4.482,4.482,0,0,1-3.46,1.4A4.5,4.5,0,0,1,1.906-1.206,5.339,5.339,0,0,1,.612-4.991Zm2.681.19a3.752,3.752,0,0,0,.538,2.188,1.775,1.775,0,0,0,1.54.757,1.779,1.779,0,0,0,1.521-.748A4.106,4.106,0,0,0,7.44-5.117a3.715,3.715,0,0,0-.547-2.174,1.779,1.779,0,0,0-1.54-.771A1.75,1.75,0,0,0,3.832-7.3,4.175,4.175,0,0,0,3.293-4.921Z" transform="matrix(0.82, 0.573, -0.573, 0.82, 879.602, 2583.841)" fill="#12263f"/>
    <path id="Trazado_732964" data-name="Trazado 732964" d="M6.67-7.524A7.284,7.284,0,0,0,5.706-7.6a1.964,1.964,0,0,0-1.995,1.03V0H1.03V-10.038H3.563l.074,1.2a2.484,2.484,0,0,1,2.236-1.382,2.809,2.809,0,0,1,.835.121Z" transform="matrix(0.794, 0.607, -0.607, 0.794, 891.263, 2592.298)" fill="#12263f"/>
    <path id="Trazado_732965" data-name="Trazado 732965" d="M6.847,0a2.977,2.977,0,0,1-.269-.9A3.244,3.244,0,0,1,4.045.186,3.564,3.564,0,0,1,1.6-.668,2.745,2.745,0,0,1,.631-2.82,2.837,2.837,0,0,1,1.814-5.27a5.837,5.837,0,0,1,3.419-.863H6.466v-.575a1.654,1.654,0,0,0-.357-1.113,1.405,1.405,0,0,0-1.127-.417,1.6,1.6,0,0,0-1.062.325,1.1,1.1,0,0,0-.385.891H.854a2.693,2.693,0,0,1,.538-1.614A3.557,3.557,0,0,1,2.913-9.8a5.545,5.545,0,0,1,2.208-.422,4.381,4.381,0,0,1,2.946.932A3.262,3.262,0,0,1,9.157-6.67v4.351a4.8,4.8,0,0,0,.4,2.162V0ZM4.629-1.865a2.309,2.309,0,0,0,1.095-.264,1.737,1.737,0,0,0,.742-.71V-4.564h-1q-2.013,0-2.143,1.392l-.009.158a1.073,1.073,0,0,0,.353.826A1.369,1.369,0,0,0,4.629-1.865Z" transform="translate(898.829 2597.598) rotate(39.837)" fill="#12263f"/>
    <path id="Trazado_732966" data-name="Trazado 732966" d="M3.859,0H1.169V-14.25h2.69Z" transform="translate(908.574 2605.757) rotate(42.091)" fill="#12263f"/>
    <path id="Trazado_732967" data-name="Trazado 732967" transform="translate(916.848 2611.931) rotate(43.559)"/>
    <path id="Trazado_732968" data-name="Trazado 732968" d="M11.81-4.5A4.78,4.78,0,0,1,10.2-1.067,5.653,5.653,0,0,1,6.374.186,5.083,5.083,0,0,1,2.287-1.563,7.171,7.171,0,0,1,.8-6.364V-7.19a8.1,8.1,0,0,1,.687-3.433A5.145,5.145,0,0,1,3.447-12.9a5.5,5.5,0,0,1,2.964-.793,5.507,5.507,0,0,1,3.767,1.252,5.137,5.137,0,0,1,1.651,3.516H9.045a2.821,2.821,0,0,0-.728-1.9,2.7,2.7,0,0,0-1.906-.589,2.365,2.365,0,0,0-2.083,1,5.589,5.589,0,0,0-.71,3.094V-6.3a5.982,5.982,0,0,0,.663,3.2A2.321,2.321,0,0,0,6.374-2.087,2.748,2.748,0,0,0,8.3-2.677,2.661,2.661,0,0,0,9.027-4.5Z" transform="translate(971.828 2683.888) rotate(62.226)" fill="#12263f"/>
    <path id="Trazado_732969" data-name="Trazado 732969" d="M.612-5.112a5.953,5.953,0,0,1,.575-2.663A4.211,4.211,0,0,1,2.844-9.583a4.831,4.831,0,0,1,2.51-.64A4.571,4.571,0,0,1,8.67-8.98,4.989,4.989,0,0,1,10.1-5.6l.019.687a5.247,5.247,0,0,1-1.29,3.706,4.482,4.482,0,0,1-3.46,1.4A4.5,4.5,0,0,1,1.906-1.206,5.339,5.339,0,0,1,.612-4.991Zm2.681.19a3.752,3.752,0,0,0,.538,2.188,1.775,1.775,0,0,0,1.54.757,1.779,1.779,0,0,0,1.521-.748A4.106,4.106,0,0,0,7.44-5.117a3.715,3.715,0,0,0-.547-2.174,1.779,1.779,0,0,0-1.54-.771A1.75,1.75,0,0,0,3.832-7.3,4.175,4.175,0,0,0,3.293-4.921Z" transform="translate(977.581 2694.787) rotate(64.742)" fill="#12263f"/>
    <path id="Trazado_732970" data-name="Trazado 732970" d="M3.357-9.51l.079,1.063A3.342,3.342,0,0,1,6.17-9.686a2.536,2.536,0,0,1,2.522,1.45,3.265,3.265,0,0,1,2.856-1.45,2.836,2.836,0,0,1,2.3.9,4.141,4.141,0,0,1,.756,2.711V0H12.059V-6.064a1.811,1.811,0,0,0-.316-1.182,1.4,1.4,0,0,0-1.116-.374A1.585,1.585,0,0,0,9.044-6.53L9.053,0H6.513V-6.056a1.789,1.789,0,0,0-.325-1.2A1.416,1.416,0,0,0,5.08-7.62a1.646,1.646,0,0,0-1.564.9V0H.976V-9.51Z" transform="translate(984.102 2706.151) rotate(67.683)" fill="#12263f"/>
    <path id="Trazado_732971" data-name="Trazado 732971" d="M6.671-.967A3.185,3.185,0,0,1,4.069.176,3,3,0,0,1,1.736-.7,3.752,3.752,0,0,1,.914-3.278V-9.51h2.54v6.151q0,1.487,1.354,1.487a1.834,1.834,0,0,0,1.775-.9V-9.51H9.132V0H6.741Z" transform="translate(990.354 2721.51) rotate(70.563)" fill="#12263f"/>
    <path id="Trazado_732972" data-name="Trazado 732972" d="M3.5-10.038l.083,1.16a3.5,3.5,0,0,1,2.885-1.345,2.913,2.913,0,0,1,2.375.937,4.372,4.372,0,0,1,.8,2.8V0H6.958V-6.42a1.739,1.739,0,0,0-.371-1.239,1.661,1.661,0,0,0-1.234-.385,1.844,1.844,0,0,0-1.7.965V0H.974V-10.038Z" transform="translate(993.552 2733.534) rotate(73.128)" fill="#12263f"/>
    <path id="Trazado_732973" data-name="Trazado 732973" d="M3.656,0H1.107V-9.51H3.656ZM.958-11.971a1.251,1.251,0,0,1,.382-.94,1.436,1.436,0,0,1,1.042-.369,1.44,1.44,0,0,1,1.037.369,1.244,1.244,0,0,1,.387.94,1.247,1.247,0,0,1-.391.949,1.443,1.443,0,0,1-1.033.369,1.443,1.443,0,0,1-1.033-.369A1.247,1.247,0,0,1,.958-11.971Z" transform="matrix(0.259, 0.966, -0.966, 0.259, 997.341, 2745.1)" fill="#12263f"/>
    <path id="Trazado_732974" data-name="Trazado 732974" d="M4.24-12.506v2.468H5.956v1.967H4.24v5.01a1.2,1.2,0,0,0,.213.8,1.072,1.072,0,0,0,.816.241,4.276,4.276,0,0,0,.789-.065V-.056A5.52,5.52,0,0,1,4.435.186,2.56,2.56,0,0,1,1.559-2.663V-8.071H.093v-1.967H1.559v-2.468Z" transform="translate(998.83 2751.611) rotate(76.716)" fill="#12263f"/>
    <path id="Trazado_732975" data-name="Trazado 732975" d="M6.847,0a2.977,2.977,0,0,1-.269-.9A3.244,3.244,0,0,1,4.045.186,3.564,3.564,0,0,1,1.6-.668,2.745,2.745,0,0,1,.631-2.82,2.837,2.837,0,0,1,1.814-5.27a5.837,5.837,0,0,1,3.419-.863H6.466v-.575a1.654,1.654,0,0,0-.357-1.113,1.405,1.405,0,0,0-1.127-.417,1.6,1.6,0,0,0-1.062.325,1.1,1.1,0,0,0-.385.891H.854a2.693,2.693,0,0,1,.538-1.614A3.557,3.557,0,0,1,2.913-9.8a5.545,5.545,0,0,1,2.208-.422,4.381,4.381,0,0,1,2.946.932A3.262,3.262,0,0,1,9.157-6.67v4.351a4.8,4.8,0,0,0,.4,2.162V0ZM4.629-1.865a2.309,2.309,0,0,0,1.095-.264,1.737,1.737,0,0,0,.742-.71V-4.564h-1q-2.013,0-2.143,1.392l-.009.158a1.073,1.073,0,0,0,.353.826A1.369,1.369,0,0,0,4.629-1.865Z" transform="translate(1001.287 2761.863) rotate(78.917)" fill="#12263f"/>
    <path id="Trazado_732976" data-name="Trazado 732976" d="M6.67-7.524A7.284,7.284,0,0,0,5.706-7.6a1.964,1.964,0,0,0-1.995,1.03V0H1.03V-10.038H3.563l.074,1.2a2.484,2.484,0,0,1,2.236-1.382,2.809,2.809,0,0,1,.835.121Z" transform="matrix(0.15, 0.989, -0.989, 0.15, 1004.722, 2775.332)" fill="#12263f"/>
    <path id="Trazado_732977" data-name="Trazado 732977" d="M3.656,0H1.107V-9.51H3.656ZM.958-11.971a1.251,1.251,0,0,1,.382-.94,1.436,1.436,0,0,1,1.042-.369,1.44,1.44,0,0,1,1.037.369,1.244,1.244,0,0,1,.387.94,1.247,1.247,0,0,1-.391.949,1.443,1.443,0,0,1-1.033.369,1.443,1.443,0,0,1-1.033-.369A1.247,1.247,0,0,1,.958-11.971Z" transform="translate(1005.48 2785.163) rotate(83.111)" fill="#12263f"/>
    <path id="Trazado_732978" data-name="Trazado 732978" d="M.612-5.112a5.953,5.953,0,0,1,.575-2.663A4.211,4.211,0,0,1,2.844-9.583a4.831,4.831,0,0,1,2.51-.64A4.571,4.571,0,0,1,8.67-8.98,4.989,4.989,0,0,1,10.1-5.6l.019.687a5.247,5.247,0,0,1-1.29,3.706,4.482,4.482,0,0,1-3.46,1.4A4.5,4.5,0,0,1,1.906-1.206,5.339,5.339,0,0,1,.612-4.991Zm2.681.19a3.752,3.752,0,0,0,.538,2.188,1.775,1.775,0,0,0,1.54.757,1.779,1.779,0,0,0,1.521-.748A4.106,4.106,0,0,0,7.44-5.117a3.715,3.715,0,0,0-.547-2.174,1.779,1.779,0,0,0-1.54-.771A1.75,1.75,0,0,0,3.832-7.3,4.175,4.175,0,0,0,3.293-4.921Z" transform="matrix(0.088, 0.996, -0.996, 0.088, 1006.202, 2791.686)" fill="#12263f"/>
    <path id="Trazado_732979" data-name="Trazado 732979" d="M3.989-4.759V0H1.206V-13.508h5.27a6.1,6.1,0,0,1,2.677.557,4.1,4.1,0,0,1,1.777,1.582,4.411,4.411,0,0,1,.622,2.333,3.878,3.878,0,0,1-1.359,3.131A5.661,5.661,0,0,1,6.429-4.759Zm0-2.254H6.476a2.445,2.445,0,0,0,1.684-.52,1.89,1.89,0,0,0,.58-1.484,2.228,2.228,0,0,0-.584-1.6,2.183,2.183,0,0,0-1.614-.631H3.989Z" transform="translate(540.917 2783.108) rotate(-75.086)" fill="#12263f"/>
    <path id="Trazado_732980" data-name="Trazado 732980" d="M5.353.176A4.668,4.668,0,0,1,1.947-1.107,4.561,4.561,0,0,1,.633-4.526v-.246a5.745,5.745,0,0,1,.554-2.562,4.064,4.064,0,0,1,1.569-1.74,4.4,4.4,0,0,1,2.316-.611,3.947,3.947,0,0,1,3.072,1.23A5,5,0,0,1,9.264-4.966v1.037H3.208a2.36,2.36,0,0,0,.743,1.494,2.245,2.245,0,0,0,1.569.563A2.742,2.742,0,0,0,7.813-2.936l1.248,1.4A3.813,3.813,0,0,1,7.515-.277,5.075,5.075,0,0,1,5.353.176Zm-.29-7.813a1.587,1.587,0,0,0-1.226.512,2.651,2.651,0,0,0-.6,1.466H6.768v-.2a1.891,1.891,0,0,0-.457-1.311A1.638,1.638,0,0,0,5.063-7.638Z" transform="translate(543.096 2770.121) rotate(-71.504)" fill="#12263f"/>
    <path id="Trazado_732981" data-name="Trazado 732981" d="M6.67-7.524A7.284,7.284,0,0,0,5.706-7.6a1.964,1.964,0,0,0-1.995,1.03V0H1.03V-10.038H3.563l.074,1.2a2.484,2.484,0,0,1,2.236-1.382,2.809,2.809,0,0,1,.835.121Z" transform="translate(547.365 2758.423) rotate(-67.93)" fill="#12263f"/>
    <path id="Trazado_732982" data-name="Trazado 732982" d="M6.466-2.774a.864.864,0,0,0-.487-.775,5.533,5.533,0,0,0-1.563-.506Q.835-4.806.835-7.1A2.758,2.758,0,0,1,1.944-9.328a4.472,4.472,0,0,1,2.9-.9,4.813,4.813,0,0,1,3.057.9A2.836,2.836,0,0,1,9.045-6.986H6.364a1.3,1.3,0,0,0-.371-.951,1.57,1.57,0,0,0-1.16-.376,1.6,1.6,0,0,0-1.048.306.966.966,0,0,0-.371.779.826.826,0,0,0,.422.719,4.342,4.342,0,0,0,1.424.473,11.632,11.632,0,0,1,1.688.45,2.774,2.774,0,0,1,2.125,2.7A2.618,2.618,0,0,1,7.9-.663,5.083,5.083,0,0,1,4.852.186a5.309,5.309,0,0,1-2.24-.45A3.759,3.759,0,0,1,1.076-1.5,2.867,2.867,0,0,1,.52-3.191H3.062A1.4,1.4,0,0,0,3.59-2.1a2.1,2.1,0,0,0,1.317.38,1.941,1.941,0,0,0,1.164-.292A.909.909,0,0,0,6.466-2.774Z" transform="translate(550.856 2750.345) rotate(-64.218)" fill="#12263f"/>
    <path id="Trazado_732983" data-name="Trazado 732983" d="M.612-5.112a5.953,5.953,0,0,1,.575-2.663A4.211,4.211,0,0,1,2.844-9.583a4.831,4.831,0,0,1,2.51-.64A4.571,4.571,0,0,1,8.67-8.98,4.989,4.989,0,0,1,10.1-5.6l.019.687a5.247,5.247,0,0,1-1.29,3.706,4.482,4.482,0,0,1-3.46,1.4A4.5,4.5,0,0,1,1.906-1.206,5.339,5.339,0,0,1,.612-4.991Zm2.681.19a3.752,3.752,0,0,0,.538,2.188,1.775,1.775,0,0,0,1.54.757,1.779,1.779,0,0,0,1.521-.748A4.106,4.106,0,0,0,7.44-5.117a3.715,3.715,0,0,0-.547-2.174,1.779,1.779,0,0,0-1.54-.771A1.75,1.75,0,0,0,3.832-7.3,4.175,4.175,0,0,0,3.293-4.921Z" transform="translate(556.832 2738.972) rotate(-60.361)" fill="#12263f"/>
    <path id="Trazado_732984" data-name="Trazado 732984" d="M3.5-10.038l.083,1.16a3.5,3.5,0,0,1,2.885-1.345,2.913,2.913,0,0,1,2.375.937,4.372,4.372,0,0,1,.8,2.8V0H6.958V-6.42a1.739,1.739,0,0,0-.371-1.239,1.661,1.661,0,0,0-1.234-.385,1.844,1.844,0,0,0-1.7.965V0H.974V-10.038Z" transform="translate(563.212 2728.732) rotate(-56.248)" fill="#12263f"/>
    <path id="Trazado_732985" data-name="Trazado 732985" d="M6.847,0a2.977,2.977,0,0,1-.269-.9A3.244,3.244,0,0,1,4.045.186,3.564,3.564,0,0,1,1.6-.668,2.745,2.745,0,0,1,.631-2.82,2.837,2.837,0,0,1,1.814-5.27a5.837,5.837,0,0,1,3.419-.863H6.466v-.575a1.654,1.654,0,0,0-.357-1.113,1.405,1.405,0,0,0-1.127-.417,1.6,1.6,0,0,0-1.062.325,1.1,1.1,0,0,0-.385.891H.854a2.693,2.693,0,0,1,.538-1.614A3.557,3.557,0,0,1,2.913-9.8a5.545,5.545,0,0,1,2.208-.422,4.381,4.381,0,0,1,2.946.932A3.262,3.262,0,0,1,9.157-6.67v4.351a4.8,4.8,0,0,0,.4,2.162V0ZM4.629-1.865a2.309,2.309,0,0,0,1.095-.264,1.737,1.737,0,0,0,.742-.71V-4.564h-1q-2.013,0-2.143,1.392l-.009.158a1.073,1.073,0,0,0,.353.826A1.369,1.369,0,0,0,4.629-1.865Z" transform="matrix(0.613, -0.79, 0.79, 0.613, 570.577, 2717.717)" fill="#12263f"/>
    <path id="Trazado_732986" data-name="Trazado 732986" transform="translate(577.653 2707.118) rotate(-49.49)"/>
    <path id="Trazado_732987" data-name="Trazado 732987" d="M9.333-5.52H3.989V0H1.206V-13.508H10v2.254H3.989v3.488H9.333Z" transform="translate(677.253 2645.944) rotate(-11.677)" fill="#12263f"/>
    <path id="Trazado_732988" data-name="Trazado 732988" d="M6.847,0a2.977,2.977,0,0,1-.269-.9A3.244,3.244,0,0,1,4.045.186,3.564,3.564,0,0,1,1.6-.668,2.745,2.745,0,0,1,.631-2.82,2.837,2.837,0,0,1,1.814-5.27a5.837,5.837,0,0,1,3.419-.863H6.466v-.575a1.654,1.654,0,0,0-.357-1.113,1.405,1.405,0,0,0-1.127-.417,1.6,1.6,0,0,0-1.062.325,1.1,1.1,0,0,0-.385.891H.854a2.693,2.693,0,0,1,.538-1.614A3.557,3.557,0,0,1,2.913-9.8a5.545,5.545,0,0,1,2.208-.422,4.381,4.381,0,0,1,2.946.932A3.262,3.262,0,0,1,9.157-6.67v4.351a4.8,4.8,0,0,0,.4,2.162V0ZM4.629-1.865a2.309,2.309,0,0,0,1.095-.264,1.737,1.737,0,0,0,.742-.71V-4.564h-1q-2.013,0-2.143,1.392l-.009.158a1.073,1.073,0,0,0,.353.826A1.369,1.369,0,0,0,4.629-1.865Z" transform="matrix(0.989, -0.15, 0.15, 0.989, 686.547, 2644.144)" fill="#12263f"/>
    <path id="Trazado_732989" data-name="Trazado 732989" d="M3.357-9.51l.079,1.063A3.342,3.342,0,0,1,6.17-9.686a2.536,2.536,0,0,1,2.522,1.45,3.265,3.265,0,0,1,2.856-1.45,2.836,2.836,0,0,1,2.3.9,4.141,4.141,0,0,1,.756,2.711V0H12.059V-6.064a1.811,1.811,0,0,0-.316-1.182,1.4,1.4,0,0,0-1.116-.374A1.585,1.585,0,0,0,9.044-6.53L9.053,0H6.513V-6.056a1.789,1.789,0,0,0-.325-1.2A1.416,1.416,0,0,0,5.08-7.62a1.646,1.646,0,0,0-1.564.9V0H.976V-9.51Z" transform="translate(696.894 2642.177) rotate(-4.068)" fill="#12263f"/>
    <path id="Trazado_732990" data-name="Trazado 732990" d="M3.656,0H1.107V-9.51H3.656ZM.958-11.971a1.251,1.251,0,0,1,.382-.94,1.436,1.436,0,0,1,1.042-.369,1.44,1.44,0,0,1,1.037.369,1.244,1.244,0,0,1,.387.94,1.247,1.247,0,0,1-.391.949,1.443,1.443,0,0,1-1.033.369,1.443,1.443,0,0,1-1.033-.369A1.247,1.247,0,0,1,.958-11.971Z" transform="matrix(1, -0.016, 0.016, 1, 713.453, 2641.176)" fill="#12263f"/>
    <path id="Trazado_732991" data-name="Trazado 732991" d="M3.859,0H1.169V-14.25h2.69Z" transform="translate(720.867 2641.046) rotate(1.74)" fill="#12263f"/>
    <path id="Trazado_732992" data-name="Trazado 732992" d="M3.656,0H1.107V-9.51H3.656ZM.958-11.971a1.251,1.251,0,0,1,.382-.94,1.436,1.436,0,0,1,1.042-.369,1.44,1.44,0,0,1,1.037.369,1.244,1.244,0,0,1,.387.94,1.247,1.247,0,0,1-.391.949,1.443,1.443,0,0,1-1.033.369,1.443,1.443,0,0,1-1.033-.369A1.247,1.247,0,0,1,.958-11.971Z" transform="translate(727.125 2641.406) rotate(4.17)" fill="#12263f"/>
    <path id="Trazado_732993" data-name="Trazado 732993" d="M6.847,0a2.977,2.977,0,0,1-.269-.9A3.244,3.244,0,0,1,4.045.186,3.564,3.564,0,0,1,1.6-.668,2.745,2.745,0,0,1,.631-2.82,2.837,2.837,0,0,1,1.814-5.27a5.837,5.837,0,0,1,3.419-.863H6.466v-.575a1.654,1.654,0,0,0-.357-1.113,1.405,1.405,0,0,0-1.127-.417,1.6,1.6,0,0,0-1.062.325,1.1,1.1,0,0,0-.385.891H.854a2.693,2.693,0,0,1,.538-1.614A3.557,3.557,0,0,1,2.913-9.8a5.545,5.545,0,0,1,2.208-.422,4.381,4.381,0,0,1,2.946.932A3.262,3.262,0,0,1,9.157-6.67v4.351a4.8,4.8,0,0,0,.4,2.162V0ZM4.629-1.865a2.309,2.309,0,0,0,1.095-.264,1.737,1.737,0,0,0,.742-.71V-4.564h-1q-2.013,0-2.143,1.392l-.009.158a1.073,1.073,0,0,0,.353.826A1.369,1.369,0,0,0,4.629-1.865Z" transform="translate(733.446 2642.702) rotate(7.002)" fill="#12263f"/>
    <path id="Trazado_732994" data-name="Trazado 732994" transform="translate(747.185 2643.353) rotate(9.723)"/>
    <path id="Trazado_732995" data-name="Trazado 732995" d="M11.81-4.5A4.78,4.78,0,0,1,10.2-1.067,5.653,5.653,0,0,1,6.374.186,5.083,5.083,0,0,1,2.287-1.563,7.171,7.171,0,0,1,.8-6.364V-7.19a8.1,8.1,0,0,1,.687-3.433A5.145,5.145,0,0,1,3.447-12.9a5.5,5.5,0,0,1,2.964-.793,5.507,5.507,0,0,1,3.767,1.252,5.137,5.137,0,0,1,1.651,3.516H9.045a2.821,2.821,0,0,0-.728-1.9,2.7,2.7,0,0,0-1.906-.589,2.365,2.365,0,0,0-2.083,1,5.589,5.589,0,0,0-.71,3.094V-6.3a5.982,5.982,0,0,0,.663,3.2A2.321,2.321,0,0,0,6.374-2.087,2.748,2.748,0,0,0,8.3-2.677,2.661,2.661,0,0,0,9.027-4.5Z" transform="matrix(0.671, 0.742, -0.742, 0.671, 849.231, 2697.438)" fill="#12263f"/>
    <path id="Trazado_732996" data-name="Trazado 732996" d="M.612-5.112a5.953,5.953,0,0,1,.575-2.663A4.211,4.211,0,0,1,2.844-9.583a4.831,4.831,0,0,1,2.51-.64A4.571,4.571,0,0,1,8.67-8.98,4.989,4.989,0,0,1,10.1-5.6l.019.687a5.247,5.247,0,0,1-1.29,3.706,4.482,4.482,0,0,1-3.46,1.4A4.5,4.5,0,0,1,1.906-1.206,5.339,5.339,0,0,1,.612-4.991Zm2.681.19a3.752,3.752,0,0,0,.538,2.188,1.775,1.775,0,0,0,1.54.757,1.779,1.779,0,0,0,1.521-.748A4.106,4.106,0,0,0,7.44-5.117a3.715,3.715,0,0,0-.547-2.174,1.779,1.779,0,0,0-1.54-.771A1.75,1.75,0,0,0,3.832-7.3,4.175,4.175,0,0,0,3.293-4.921Z" transform="matrix(0.618, 0.786, -0.786, 0.618, 857.458, 2706.503)" fill="#12263f"/>
    <path id="Trazado_732997" data-name="Trazado 732997" d="M3.357-9.51l.079,1.063A3.342,3.342,0,0,1,6.17-9.686a2.536,2.536,0,0,1,2.522,1.45,3.265,3.265,0,0,1,2.856-1.45,2.836,2.836,0,0,1,2.3.9,4.141,4.141,0,0,1,.756,2.711V0H12.059V-6.064a1.811,1.811,0,0,0-.316-1.182,1.4,1.4,0,0,0-1.116-.374A1.585,1.585,0,0,0,9.044-6.53L9.053,0H6.513V-6.056a1.789,1.789,0,0,0-.325-1.2A1.416,1.416,0,0,0,5.08-7.62a1.646,1.646,0,0,0-1.564.9V0H.976V-9.51Z" transform="translate(865.341 2716.049) rotate(56.41)" fill="#12263f"/>
    <path id="Trazado_732998" data-name="Trazado 732998" d="M6.671-.967A3.185,3.185,0,0,1,4.069.176,3,3,0,0,1,1.736-.7,3.752,3.752,0,0,1,.914-3.278V-9.51h2.54v6.151q0,1.487,1.354,1.487a1.834,1.834,0,0,0,1.775-.9V-9.51H9.132V0H6.741Z" transform="translate(875.426 2730.863) rotate(60.934)" fill="#12263f"/>
    <path id="Trazado_732999" data-name="Trazado 732999" d="M3.5-10.038l.083,1.16a3.5,3.5,0,0,1,2.885-1.345,2.913,2.913,0,0,1,2.375.937,4.372,4.372,0,0,1,.8,2.8V0H6.958V-6.42a1.739,1.739,0,0,0-.371-1.239,1.661,1.661,0,0,0-1.234-.385,1.844,1.844,0,0,0-1.7.965V0H.974V-10.038Z" transform="translate(880.564 2741.116) rotate(64.972)" fill="#12263f"/>
    <path id="Trazado_733000" data-name="Trazado 733000" d="M3.656,0H1.107V-9.51H3.656ZM.958-11.971a1.251,1.251,0,0,1,.382-.94,1.436,1.436,0,0,1,1.042-.369,1.44,1.44,0,0,1,1.037.369,1.244,1.244,0,0,1,.387.94,1.247,1.247,0,0,1-.391.949,1.443,1.443,0,0,1-1.033.369,1.443,1.443,0,0,1-1.033-.369A1.247,1.247,0,0,1,.958-11.971Z" transform="translate(887.027 2752.83) rotate(67.93)" fill="#12263f"/>
    <path id="Trazado_733001" data-name="Trazado 733001" d="M.612-5.093A6.049,6.049,0,0,1,1.665-8.832a3.417,3.417,0,0,1,2.881-1.392A3.074,3.074,0,0,1,6.967-9.129V-14.25h2.69V0H7.236l-.13-1.067A3.155,3.155,0,0,1,4.527.186a3.407,3.407,0,0,1-2.844-1.4A6.244,6.244,0,0,1,.612-5.093Zm2.681.2a3.963,3.963,0,0,0,.492,2.165,1.6,1.6,0,0,0,1.429.753,1.794,1.794,0,0,0,1.753-1.05V-6.994a1.768,1.768,0,0,0-1.735-1.05Q3.293-8.043,3.293-4.894Z" transform="translate(888.21 2758.174) rotate(70.723)" fill="#12263f"/>
    <path id="Trazado_733002" data-name="Trazado 733002" d="M6.847,0a2.977,2.977,0,0,1-.269-.9A3.244,3.244,0,0,1,4.045.186,3.564,3.564,0,0,1,1.6-.668,2.745,2.745,0,0,1,.631-2.82,2.837,2.837,0,0,1,1.814-5.27a5.837,5.837,0,0,1,3.419-.863H6.466v-.575a1.654,1.654,0,0,0-.357-1.113,1.405,1.405,0,0,0-1.127-.417,1.6,1.6,0,0,0-1.062.325,1.1,1.1,0,0,0-.385.891H.854a2.693,2.693,0,0,1,.538-1.614A3.557,3.557,0,0,1,2.913-9.8a5.545,5.545,0,0,1,2.208-.422,4.381,4.381,0,0,1,2.946.932A3.262,3.262,0,0,1,9.157-6.67v4.351a4.8,4.8,0,0,0,.4,2.162V0ZM4.629-1.865a2.309,2.309,0,0,0,1.095-.264,1.737,1.737,0,0,0,.742-.71V-4.564h-1q-2.013,0-2.143,1.392l-.009.158a1.073,1.073,0,0,0,.353.826A1.369,1.369,0,0,0,4.629-1.865Z" transform="translate(892.247 2768.67) rotate(74.657)" fill="#12263f"/>
    <path id="Trazado_733003" data-name="Trazado 733003" d="M.612-5.093A6.049,6.049,0,0,1,1.665-8.832a3.417,3.417,0,0,1,2.881-1.392A3.074,3.074,0,0,1,6.967-9.129V-14.25h2.69V0H7.236l-.13-1.067A3.155,3.155,0,0,1,4.527.186a3.407,3.407,0,0,1-2.844-1.4A6.244,6.244,0,0,1,.612-5.093Zm2.681.2a3.963,3.963,0,0,0,.492,2.165,1.6,1.6,0,0,0,1.429.753,1.794,1.794,0,0,0,1.753-1.05V-6.994a1.768,1.768,0,0,0-1.735-1.05Q3.293-8.043,3.293-4.894Z" transform="translate(894.583 2778.826) rotate(78.581)" fill="#12263f"/>
    <g id="Grupo_1018576" data-name="Grupo 1018576" transform="translate(395 2500.734)" clip-path="url(#clip-path)">
      <path id="Trazado_732083" data-name="Trazado 732083" d="M89.948,315.618c-.329.655-.845.72-1.5.543q-10.182-2.756-20.372-5.476c-.584-.156-.782-.356-.552-.951a13.927,13.927,0,0,0,.4-1.485,2.241,2.241,0,0,1,.915.155q4.327,1.164,8.652,2.33a2.132,2.132,0,0,0,.848.157c.507-.018.9-.078,1.073-.725q3.87-14.5,7.8-29c.174-.646.371-1.287.558-1.93.255.079.508.165.766.234q5.188,1.411,10.377,2.819l0,.012c-.054.171-.114.34-.16.512q-4.276,15.879-8.55,31.76c-.093.345-.169.694-.253,1.041" transform="translate(-8.967 -37.133)" fill="#12263f"/>
      <path id="Trazado_732084" data-name="Trazado 732084" d="M65.967,261.525c.444-2.224,2-3.733,3.514-5.208a6.04,6.04,0,0,1,3.385-1.6,4.63,4.63,0,0,1,2.416.286c.408.175.117.454.147.685a2.361,2.361,0,0,0-.31.878Q68.592,280.8,62.075,305.031a6.565,6.565,0,0,0-.11.655c-.206.7-.725.378-1.015.2a7.989,7.989,0,0,1-2.533-1.761,8.814,8.814,0,0,1-1.809-4.62c-.051-.545-.057-1.1-.129-1.639a6.316,6.316,0,0,1,.371-2.413.99.99,0,0,0,.024-.652c.055-.17.117-.337.164-.509q3.817-14.176,7.636-28.352a36.671,36.671,0,0,1,1.294-4.419" transform="translate(-7.507 -33.865)" fill="#12263f"/>
      <path id="Trazado_732085" data-name="Trazado 732085" d="M83.16,256.4,104.03,262c.259.069.52.134.78.2l.13.062a2.624,2.624,0,0,1,.011,2.363c-.121.106-.254.053-.381.024-.239-.054-.477-.116-.714-.179L83.29,258.934c-.825-.222-.823-.224-.6-1.057q.19-.711.377-1.425a.083.083,0,0,0,.094-.053" transform="translate(-10.979 -34.096)" fill="#12263f"/>
      <path id="Trazado_732086" data-name="Trazado 732086" d="M213.029,148.862l-.57-.709q-4.042-5.027-8.083-10.054a2.223,2.223,0,0,0-3.523-.394c-.734.585-1.47,1.17-2.2,1.766a2.188,2.188,0,0,0-.344,3.368q4.058,5.062,8.127,10.114l.566.7c-.2.179-.37.342-.552.488q-3.812,3.069-7.628,6.132a3.639,3.639,0,0,1-5.523-.61q-5.973-7.422-11.939-14.85l-.585-.727c-.807.649-1.587,1.281-2.372,1.9s-1.432,1.447-2.647.837a3.717,3.717,0,0,1-2.24-2.995,5.185,5.185,0,0,1,.035-1.181q1.536-14.189,3.084-28.378a3.661,3.661,0,0,1,4.4-3.569q14.263,1.545,28.525,3.1a3.7,3.7,0,0,1,3.531,3.605,1.253,1.253,0,0,1-.525,1.138c-1.006.76-1.973,1.568-2.952,2.363a2.568,2.568,0,0,0-.272.313l.517.642q5.923,7.368,11.844,14.736c1.686,2.1,1.469,4.1-.626,5.786q-3.7,2.974-7.4,5.946l-.655.527" transform="translate(-23.072 -14.717)" fill="#12263f"/>
      <path id="Trazado_732087" data-name="Trazado 732087" d="M365.8,80.164a3.042,3.042,0,0,0,2.07,2.364,9.482,9.482,0,0,0,7.671-.005,4.43,4.43,0,0,0,.8-.466,2.6,2.6,0,0,0,1.233-1.908,9.245,9.245,0,0,1,3.237.884,9.615,9.615,0,0,1,5.439,9.616,3.959,3.959,0,0,1-3.723,3.808,28.058,28.058,0,0,1-4.048.283c-4.519.032-9.038.019-13.558.009a19.194,19.194,0,0,1-4.352-.336,4,4,0,0,1-3.455-4.1,9.617,9.617,0,0,1,8.443-10.15,2.262,2.262,0,0,1,.244,0" transform="translate(-47.486 -10.658)" fill="#12263f"/>
      <path id="Trazado_732088" data-name="Trazado 732088" d="M362.3,59.845a1.75,1.75,0,0,0,.28.373.6.6,0,0,1,.058.988.517.517,0,0,0-.148.349c.127,1.894.256,3.786.408,5.677a5.682,5.682,0,0,1-.574,2.418,2.263,2.263,0,0,1-.2-.308,5.642,5.642,0,0,1-.408-2.759c.162-1.643.255-3.294.356-4.942a.764.764,0,0,0-.193-.482.619.619,0,0,1,.111-.942.7.7,0,0,0,.224-.425c.009-.073-.164-.188-.273-.251a4.006,4.006,0,0,1-.521-.248c-.148-.118-.339-.305-.335-.458s.213-.313.355-.447a1.063,1.063,0,0,1,.312-.15q4.56-1.974,9.121-3.948a3.287,3.287,0,0,1,2.7,0q4.562,1.97,9.12,3.951c.294.128.707.2.691.627-.016.393-.4.462-.691.589-.92.406-1.842.806-2.77,1.194a.4.4,0,0,0-.281.434c.014.8,0,1.6.008,2.4a.948.948,0,0,0,.049.34,9.089,9.089,0,0,1,.061,6.221,13.225,13.225,0,0,1-3.994,6.459,5.347,5.347,0,0,1-3.631,1.414,5.415,5.415,0,0,1-3.472-1.429,13.293,13.293,0,0,1-4.007-6.542,8.662,8.662,0,0,1-.133-5.408,11.861,11.861,0,0,0,.29-2.9.99.99,0,0,0-.805-1.226,14.9,14.9,0,0,1-1.6-.671l-.112.1m2.928,8.224c.18.7.329,1.457.575,2.182a11.271,11.271,0,0,0,3.394,5.219,4.583,4.583,0,0,0,3.226,1.189,5.024,5.024,0,0,0,3.274-1.576,12.426,12.426,0,0,0,3.282-5.91,4.347,4.347,0,0,0-.018-2.367,1.914,1.914,0,0,0-2.851-1.348c-.851.368-1.7.744-2.554,1.107a3.252,3.252,0,0,1-2.666,0c-.9-.388-1.793-.788-2.7-1.167a1.832,1.832,0,0,0-2.581,1.093,14.168,14.168,0,0,0-.383,1.581" transform="translate(-48.016 -7.181)" fill="#12263f"/>
      <path id="Trazado_732089" data-name="Trazado 732089" d="M343.473,79.134a2.337,2.337,0,0,0,1.42,1.742A6.74,6.74,0,0,0,349,81.5a9.186,9.186,0,0,0,2.211-.643,2.2,2.2,0,0,0,1.432-1.742,7.38,7.38,0,0,1,4.161,1.769,11.378,11.378,0,0,0-4.066,9.561c-.114.008-.226.022-.338.022-3.408,0-6.817.012-10.225-.012a14.914,14.914,0,0,1-2.54-.215,3.106,3.106,0,0,1-2.918-3.2,7.48,7.48,0,0,1,6.758-7.909" transform="translate(-44.772 -10.521)" fill="#12263f"/>
      <path id="Trazado_732090" data-name="Trazado 732090" d="M387.973,80.89a7.446,7.446,0,0,1,4.15-1.778,2.734,2.734,0,0,0,2.117,2.052,7.332,7.332,0,0,0,5.545-.242,2.349,2.349,0,0,0,1.522-1.8,6.776,6.776,0,0,1,3.362,1.167,7.309,7.309,0,0,1,3.355,7.106,3.011,3.011,0,0,1-2.733,2.825,14.119,14.119,0,0,1-2.461.235c-3.511.027-7.024.015-10.535.016-.075,0-.151-.008-.253-.014a11.368,11.368,0,0,0-4.07-9.565" transform="translate(-51.592 -10.52)" fill="#12263f"/>
      <path id="Trazado_732091" data-name="Trazado 732091" d="M340.765,63.324a1.493,1.493,0,0,0,.2.29c.286.256.289.452.059.763a.788.788,0,0,0-.114.482q.134,2.124.3,4.247a3.553,3.553,0,0,1-.465,1.778,3.289,3.289,0,0,1-.481-1.738c.09-1.3.19-2.6.277-3.9.024-.357.137-.721-.186-1.046-.072-.073.022-.422.14-.552.28-.307.278-.418-.1-.6-.245-.116-.644-.163-.581-.508.036-.192.345-.383.571-.483,2.311-1.017,4.634-2.01,6.949-3.021a2.716,2.716,0,0,1,2.282,0c2.3,1.007,4.611,2,6.916,3a.791.791,0,0,1,.211.095c.146.129.383.272.386.413s-.218.331-.382.408c-.736.343-1.484.66-2.234.97a.39.39,0,0,0-.283.433c.016.567,0,1.136.008,1.7a.952.952,0,0,0,.045.342,7.355,7.355,0,0,1-.076,5.26,10.393,10.393,0,0,1-2.663,4.343,4.455,4.455,0,0,1-2.986,1.377,4.231,4.231,0,0,1-3.029-1.262,10.72,10.72,0,0,1-3.172-5.9,6.977,6.977,0,0,1,.255-3.735,9.005,9.005,0,0,0,.1-1.377,1.142,1.142,0,0,0-.981-1.493,5.432,5.432,0,0,1-.88-.367l-.08.072M348.459,76.4a3.85,3.85,0,0,0,2.739-1.255,9.1,9.1,0,0,0,2.536-4.737,4.018,4.018,0,0,0-.062-1.708,1.437,1.437,0,0,0-2.157-1.018q-.978.416-1.95.845a2.6,2.6,0,0,1-2.208-.007c-.659-.294-1.32-.584-1.985-.862a1.454,1.454,0,0,0-2.095.943,3.467,3.467,0,0,0-.01,2.165,9.173,9.173,0,0,0,2.954,4.793,3.486,3.486,0,0,0,2.237.84" transform="translate(-45.187 -7.818)" fill="#12263f"/>
      <path id="Trazado_732092" data-name="Trazado 732092" d="M389.016,63.34a1.924,1.924,0,0,0,.225.284.467.467,0,0,1,.059.736.588.588,0,0,0-.135.36c.095,1.468.2,2.935.309,4.4a4.392,4.392,0,0,1-.46,1.873,4.141,4.141,0,0,1-.479-2.14c.122-1.349.207-2.7.289-4.054a.854.854,0,0,0-.155-.469.469.469,0,0,1,.069-.686c.342-.3.311-.394-.1-.61a3.8,3.8,0,0,1-.595-.483,2.78,2.78,0,0,1,.587-.488c2.336-1.027,4.681-2.033,7.022-3.049a2.57,2.57,0,0,1,2.136-.006q3.53,1.529,7.062,3.055a.876.876,0,0,1,.243.117c.118.106.31.24.3.348a.577.577,0,0,1-.3.386c-.747.349-1.505.675-2.268.989a.421.421,0,0,0-.322.486,5.771,5.771,0,0,1,0,.735,6.021,6.021,0,0,0,.251,1.976,7.193,7.193,0,0,1-.29,4.556,9.742,9.742,0,0,1-3.225,4.815,3.874,3.874,0,0,1-5.061-.03,10.036,10.036,0,0,1-3.328-5.239,7.378,7.378,0,0,1,.042-4.788,8.04,8.04,0,0,0,.084-1.532.912.912,0,0,0-.767-1.167,8,8,0,0,1-1.1-.466l-.094.089M396.7,76.394c.077,0,.155,0,.232,0a4.2,4.2,0,0,0,2.865-1.59,9.889,9.889,0,0,0,2.228-4.4,3.165,3.165,0,0,0-.088-1.751,1.457,1.457,0,0,0-2.135-.973c-.676.285-1.348.582-2.022.873a2.529,2.529,0,0,1-2.1,0c-.684-.3-1.366-.606-2.057-.891a1.424,1.424,0,0,0-2.063.931,3.337,3.337,0,0,0-.163,1.479,9.131,9.131,0,0,0,2.831,5.288,3.615,3.615,0,0,0,2.471,1.043" transform="translate(-51.602 -7.817)" fill="#12263f"/>
      <path id="Trazado_732093" data-name="Trazado 732093" d="M544.22,153.137c2.891-4.118,5.673-8.108,8.5-12.065a2.9,2.9,0,0,1,1.237-.842,5.218,5.218,0,0,0,3.469-4.769,17.271,17.271,0,0,1,1.066-6.23,3.742,3.742,0,0,0-1.53-4.472c-1.4-1.026-2.832-2-4.319-3.042a10.656,10.656,0,0,1,.525-.942q3.7-5.289,7.415-10.568c.965-1.369,1.392-1.46,2.769-.5q10.312,7.214,20.6,14.459c1.281.9,1.353,1.39.44,2.691Q572.15,144.318,559.9,161.768c-.573.817-1.218,1.5-2.242.787-4.458-3.1-8.89-6.227-13.435-9.418M562.653,122.7c2.321,1.584,2.148,2.051,3.627-.1,2.089-3.045,2.227-2.338-.829-4.528-2.3-1.648-2.024-1.5-3.528.652-1.783,2.548-1.927,2.112.73,3.981m12.391,2.094c-2.421-1.7-2.427-1.7-3.783.245-1.938,2.781-2.036,2.267.766,4.247,2.468,1.744,2.128,1.743,3.713-.526,1.787-2.556,1.927-2.111-.7-3.965m-18.9,26.787c2.485,1.715,2.216,1.971,3.7-.186,2.005-2.92,2.192-2.242-.867-4.418-2.077-1.477-2.087-1.469-3.548.612-1.8,2.567-1.886,2.163.717,3.992m7.858-11.231c2.461,1.683,2.2,2.041,3.694-.14,2.046-2.989,2.154-2.237-.864-4.394-2.174-1.555-1.94-1.731-3.531.551-1.846,2.647-1.837,2.174.7,3.982" transform="translate(-72.37 -14.504)" fill="#12263f"/>
      <path id="Trazado_732094" data-name="Trazado 732094" d="M545.425,135.667c-2.58.188-3.842-1.721-5.358-3.25a2.539,2.539,0,0,0-1.224-.7,4.313,4.313,0,0,1-2.917-1.992,2.034,2.034,0,0,0-1.138-.773A4.312,4.312,0,0,1,532,126.983a1.983,1.983,0,0,0-1.125-.788,4.17,4.17,0,0,1-2.844-2.085,2.444,2.444,0,0,0-1.079-.908c-1.975-.875-4.164-1.451-4.871-3.9-.39-.022-.735-.019-1.075-.063a3.162,3.162,0,0,1-2.767-2.562,3.2,3.2,0,0,1,1.7-3.372c.773-.393,1.631-.63,2.382-1.057a27.432,27.432,0,0,0,3.344-2.149,2.118,2.118,0,0,1,2.833-.209q11.795,8.288,23.6,16.567c.8.562,1.318,1.4.863,2.233-1.17,2.142-.956,4.458-1.161,6.732a3.118,3.118,0,0,1-2.637,2.974,3.205,3.205,0,0,1-3.454-1.982c-.1-.232-.182-.477-.285-.749" transform="translate(-68.909 -14.553)" fill="#12263f"/>
      <path id="Trazado_732095" data-name="Trazado 732095" d="M525.122,144.654c1.835-2.616,3.524-5.091,5.294-7.508.7-.955.663-1.581-.377-2.2a24.42,24.42,0,0,1-2.563-1.794c-.861-.68-1.428-.488-2.02.378-1.712,2.509-3.48,4.983-5.265,7.524a5.638,5.638,0,0,1-.729-.364c-3.528-2.468-7.042-4.955-10.579-7.41-.825-.574-1.1-1.163-.472-2.052,2.362-3.337,4.7-6.687,7.059-10.029a4.938,4.938,0,0,1,.48-.479l29.916,21c-.628.893-1.19,1.694-1.751,2.494q-2.81,4-5.622,8.009c-.431.615-.936,1.145-1.715.605-3.85-2.677-7.681-5.382-11.656-8.172m-4.5-16.3c-.177-.126-.352-.252-.531-.374-3.469-2.349-2.533-2.612-5.159,1-.615.845-.42,1.385.4,1.91.946.61,1.841,1.3,2.774,1.93,3.493,2.364,2.5,2.676,5.223-1.1.528-.731.363-1.25-.358-1.721-.8-.52-1.564-1.088-2.344-1.637m13.424,15.662c.177.124.353.252.532.372,3.527,2.375,2.5,2.657,5.224-1.093.53-.73.381-1.241-.342-1.72-.975-.645-1.909-1.352-2.877-2.009-3.5-2.375-2.528-2.67-5.234,1.084a1.054,1.054,0,0,0,.353,1.728c.8.524,1.564,1.09,2.344,1.639" transform="translate(-67.562 -16.053)" fill="#12263f"/>
      <path id="Trazado_732096" data-name="Trazado 732096" d="M629.913,300.582c-2.452-8.134-4.888-16.212-7.361-24.415l.987-.3c5.01-1.51,10.02-3.01,15.026-4.535a8.671,8.671,0,0,1,8.656,1.784,6.351,6.351,0,0,1,1.219,1.5,1.08,1.08,0,0,1-.069.889,8.217,8.217,0,0,0,1.086,9.585,9.85,9.85,0,0,0,2.333,1.788,1.085,1.085,0,0,1,.645,1.241c-.466,3.639-2.307,6.317-5.807,7.467-5.409,1.777-10.9,3.325-16.349,4.968a2.168,2.168,0,0,1-.366.028" transform="translate(-82.786 -36.021)" fill="#12263f"/>
      <path id="Trazado_732097" data-name="Trazado 732097" d="M626.888,252.812c.258-.1.475-.213.7-.283,4-1.21,7.989-2.446,12-3.606a6.369,6.369,0,0,1,6.59,1.625,1.242,1.242,0,0,1,.267,1.757,6.545,6.545,0,0,0,2.773,8.966,1.107,1.107,0,0,1,.7,1.376,6.81,6.81,0,0,1-2.99,4.5,1.355,1.355,0,0,1-1.093.071,9.856,9.856,0,0,0-6.893-.336c-2.373.691-4.736,1.422-7.164,2.155l-4.892-16.225" transform="translate(-83.363 -33.06)" fill="#12263f"/>
      <path id="Trazado_732098" data-name="Trazado 732098" d="M642.034,302.7c2.266-.683,4.45-1.365,6.648-2a10.268,10.268,0,0,0,6.085-4.272,1.35,1.35,0,0,1,.962-.468,6.6,6.6,0,0,1,4.928,1.993,1.107,1.107,0,0,1,.223,1.62,6.505,6.505,0,0,0,2.84,9.042.792.792,0,0,1,.581,1.032,6.245,6.245,0,0,1-4.535,5.434c-4.014,1.268-8.052,2.463-12.081,3.685-.23.069-.471.1-.758.162-1.627-5.4-3.24-10.748-4.893-16.229" transform="translate(-85.377 -39.355)" fill="#12263f"/>
      <path id="Trazado_732099" data-name="Trazado 732099" d="M653.127,281.825a6.8,6.8,0,0,1,4.557-8.513,6.823,6.823,0,1,1-4.557,8.513" transform="translate(-86.813 -36.306)" fill="#12263f"/>
      <path id="Trazado_732100" data-name="Trazado 732100" d="M653.515,271.671l-2.33-2.415a8.735,8.735,0,0,0,3.5-6.147c5.163-.44,7.025-2.16,7.7-7.146a6.216,6.216,0,0,1,3.8,2.4.834.834,0,0,1-.014.716c-1.966,3.915-.905,7.467,2.839,9.563a1.052,1.052,0,0,1,.433.83A6.383,6.383,0,0,1,667,273.913a8.606,8.606,0,0,0-6.116-4.52c-2.812-.512-5.155.541-7.366,2.278" transform="translate(-86.594 -34.038)" fill="#12263f"/>
      <path id="Trazado_732101" data-name="Trazado 732101" d="M658.066,292.277c.223-1.171.425-2.229.646-3.388a8.442,8.442,0,0,0,9.946-9.3,6.349,6.349,0,0,1,4.573,2.433.975.975,0,0,1,.036.861c-1.958,3.81-.861,7.4,2.913,9.533a.976.976,0,0,1,.4.764,6.3,6.3,0,0,1-1.853,3.954,7.071,7.071,0,0,0-4.77-3.211,6.8,6.8,0,0,0-5.52,1.542,8.357,8.357,0,0,0-6.373-3.185" transform="translate(-87.509 -37.179)" fill="#12263f"/>
      <path id="Trazado_732102" data-name="Trazado 732102" d="M671.211,307.9a5.294,5.294,0,0,1-6.559-3.462,5.355,5.355,0,0,1,3.62-6.516,5.2,5.2,0,1,1,2.939,9.978" transform="translate(-88.358 -39.59)" fill="#12263f"/>
      <path id="Trazado_732103" data-name="Trazado 732103" d="M660.476,254.143a5.267,5.267,0,0,1-3.507,6.476,5.329,5.329,0,0,1-6.575-3.489,5.258,5.258,0,0,1,10.082-2.987" transform="translate(-86.461 -33.303)" fill="#12263f"/>
      <path id="Trazado_732104" data-name="Trazado 732104" d="M686.429,285.069a5.219,5.219,0,1,1-6.462-3.489,5.2,5.2,0,0,1,6.462,3.489" transform="translate(-89.922 -37.415)" fill="#12263f"/>
      <path id="Trazado_732105" data-name="Trazado 732105" d="M679.278,261.351a5.218,5.218,0,1,1-6.421-3.569,5.189,5.189,0,0,1,6.421,3.569" transform="translate(-88.969 -34.253)" fill="#12263f"/>
      <path id="Trazado_732106" data-name="Trazado 732106" d="M235.907,341.878a2.484,2.484,0,0,0-.471,2.64,2.11,2.11,0,0,1-.067,1.786,1.808,1.808,0,0,1-1.7.975A1.739,1.739,0,0,1,232,346.144a6.287,6.287,0,0,1,1.38-7.088.822.822,0,0,0,.3-.727c-.049-.72-.027-1.447-.015-2.171a.422.422,0,0,0-.253-.443,9.475,9.475,0,0,1-3.379-3.042,1.893,1.893,0,1,1,3.1-2.163,5.88,5.88,0,0,0,9.145.784c.2-.2.37-.433.546-.655a1.891,1.891,0,1,1,3,2.3,9.509,9.509,0,0,1-3.359,2.856.414.414,0,0,0-.262.435c0,.782-.027,1.565-.018,2.348a.615.615,0,0,0,.208.371,6.126,6.126,0,0,1,1.916,3.531,6.873,6.873,0,0,1-.425,3.632,1.854,1.854,0,0,1-2.383,1.052,1.931,1.931,0,0,1-1.164-2.345,10.308,10.308,0,0,0,.237-1.675,1.224,1.224,0,0,0-.153-.577c-.1-.212-.2-.482-.385-.577-.148-.078-.419.043-.623.112a4.309,4.309,0,0,1-3.508-.227m-1.236-4.994c0,.493-.026.967,0,1.437a3.246,3.246,0,0,0,4.1,2.924c2.029-.574,2.684-2.327,2.386-4.361Z" transform="translate(-30.537 -43.831)" fill="#12263f"/>
      <path id="Trazado_732107" data-name="Trazado 732107" d="M238.545,321.586a4.56,4.56,0,1,1-4.6,4.5,4.552,4.552,0,0,1,4.6-4.5" transform="translate(-31.11 -42.764)" fill="#12263f"/>
      <path id="Trazado_732108" data-name="Trazado 732108" d="M281.279,263.736l-4.914,4.909v13.917a1.86,1.86,0,1,1-3.72,0v-6.455h-1.092v6.5a1.86,1.86,0,1,1-3.72,0V268.645l-5.005-4.914a1.606,1.606,0,0,1,2.271-2.271l3.864,3.864h6.231l3.858-3.864a1.589,1.589,0,0,1,2.724,1.135,1.526,1.526,0,0,1-.5,1.141m-5.458-2.777a3.732,3.732,0,1,1-1.092-2.681,3.733,3.733,0,0,1,1.092,2.681" transform="translate(-34.89 -34.2)" fill="#12263f"/>
      <path id="Trazado_732109" data-name="Trazado 732109" d="M346.365,236.362q-.76.9-1.519,1.8-.722.858-1.441,1.72a1.826,1.826,0,0,1-2.3.646,2.093,2.093,0,0,1-1.081-2.329,2.574,2.574,0,0,1,.484-.991q1.994-2.433,4.035-4.824a6.289,6.289,0,0,1,4.994-2.31c1.3,0,2.6-.036,3.882.084a5.856,5.856,0,0,1,3.957,2.138c1.391,1.622,2.76,3.263,4.123,4.909a2.17,2.17,0,0,1-.407,3.206,1.754,1.754,0,0,1-2.374-.387c-.945-1.108-1.874-2.228-2.811-3.343-.093-.109-.19-.216-.321-.366a1.145,1.145,0,0,0,.157,1.02q1.488,2.678,2.979,5.356c.291.525.59,1.047.874,1.576a1.632,1.632,0,0,1-1.486,2.493c-.547.007-1.1,0-1.642.005-.721.005-.949.238-.949.972,0,1.911.005,3.821,0,5.732a1.966,1.966,0,0,1-1.465,1.926,1.906,1.906,0,0,1-2.233-.981,2.718,2.718,0,0,1-.238-1.116c-.023-1.87-.01-3.74-.011-5.61a3.084,3.084,0,0,0-.014-.4.531.531,0,0,0-.563-.512.524.524,0,0,0-.556.52c-.023.278-.017.56-.017.841,0,1.79.007,3.581,0,5.371a1.947,1.947,0,0,1-1.41,1.881,1.919,1.919,0,0,1-2.216-.868,2.513,2.513,0,0,1-.3-1.138c-.029-1.883-.012-3.767-.014-5.651,0-.724-.24-.966-.958-.968-.548,0-1.1.006-1.643,0a1.627,1.627,0,0,1-1.47-2.5c1.262-2.292,2.549-4.571,3.809-6.865a5.874,5.874,0,0,0,.329-.969l-.179-.066" transform="translate(-45.209 -30.594)" fill="#12263f"/>
      <path id="Trazado_732110" data-name="Trazado 732110" d="M329.239,245.382c0,2.685.007,5.37,0,8.056a1.978,1.978,0,0,1-2.543,1.945,2,2,0,0,1-1.412-2.05c0-2.111,0-4.222,0-6.333,0-.775,0-1.549,0-2.324,0-.49-.19-.737-.542-.738s-.545.251-.546.733q0,4.368,0,8.737a1.974,1.974,0,0,1-3.914.434,4.425,4.425,0,0,1-.043-.678q0-7.876,0-15.751a.612.612,0,0,0,0-.2c-.057-.161-.131-.317-.2-.475a1.62,1.62,0,0,0-.451.258c-.664.768-1.308,1.552-1.96,2.33-.18.215-.358.434-.546.641a1.96,1.96,0,0,1-2.741.188,1.931,1.931,0,0,1-.289-2.7c1.486-1.8,2.967-3.614,4.52-5.359a6.055,6.055,0,0,1,4.6-2.023c1.029-.017,2.057-.011,3.087,0a6.251,6.251,0,0,1,4.867,2.23c1.441,1.667,2.849,3.363,4.251,5.063a1.961,1.961,0,0,1-1.236,3.238,1.893,1.893,0,0,1-1.807-.732c-.773-.92-1.538-1.848-2.325-2.757a2.655,2.655,0,0,0-.551-.381,2.3,2.3,0,0,0-.193.634c-.013,2.672-.009,5.343-.01,8.016" transform="translate(-41.704 -30.593)" fill="#12263f"/>
      <path id="Trazado_732111" data-name="Trazado 732111" d="M346.831,222.322a3.342,3.342,0,0,0-.823.337,13.748,13.748,0,0,0-1.5,1.365c-.26.284-.4.266-.624.01a6.032,6.032,0,0,1-1.28-2.463,1.029,1.029,0,0,1,.561-1.138,3.484,3.484,0,0,1,2.43-.448c.627.094,1.237.294,1.916.461a4.547,4.547,0,0,1,7.658.012c.65-.166,1.26-.362,1.884-.468a3.612,3.612,0,0,1,2.263.322,1.148,1.148,0,0,1,.673,1.6,6.059,6.059,0,0,1-1.184,2.116c-.221.251-.36.281-.623-.005a13.932,13.932,0,0,0-1.5-1.366,3.335,3.335,0,0,0-.822-.336,4.651,4.651,0,0,1-1.689,4.053,4.323,4.323,0,0,1-2.927,1,4.391,4.391,0,0,1-3.281-1.522,4.68,4.68,0,0,1-1.131-3.534" transform="translate(-45.555 -29.037)" fill="#12263f"/>
      <path id="Trazado_732112" data-name="Trazado 732112" d="M321.211,222.862a4.512,4.512,0,1,1,4.5,4.518,4.515,4.515,0,0,1-4.5-4.518" transform="translate(-42.714 -29.036)" fill="#12263f"/>
      <path id="Trazado_732113" data-name="Trazado 732113" d="M407.929,229.381c-.653,2.747-1.232,5.514-2,8.228a8.037,8.037,0,0,1-1.508,2.146c-.7-.625-1.678-1.118-2.054-1.9-1.365-2.839-2.52-5.777-3.772-8.669-.274-.634-.625-1.234-.941-1.85l-.581.187a23.169,23.169,0,0,0,.815,3.65c1.77,4.5,3.663,8.955,5.485,13.437.879,2.165.558,3.247-1.7,3.482-3.665.381-4.79,2.291-4.969,5.687-.155,2.983-1.021,5.921-1.384,8.9-.266,2.2-1.733,1.927-3.213,1.971-1.517.045-2.706-.049-2.97-2.011-.529-3.923-1.3-7.813-1.849-11.733a2.147,2.147,0,0,0-1.968-2.146c-5.394-1.172-5.393-1.226-3.353-6.24,1.546-3.8,3.161-7.578,4.653-11.4a7.077,7.077,0,0,0,.342-3.759,6.466,6.466,0,0,0-.724,1.049q-2.119,4.835-4.185,9.692c-.428,1.007-.982,2.1-2.183,1.366a2.672,2.672,0,0,1-.463-2.4c1.674-5.081,3.5-10.111,5.27-15.162a4.3,4.3,0,0,1,4.453-3.212c2.055.022,4.111.023,6.165-.006a4.39,4.39,0,0,1,4.573,3.362c1.2,3.511,2.456,7,3.909,11.126.864-4.029,1.568-7.392,2.308-10.747.623-2.821,1.878-3.848,4.731-3.877,2.349-.024,4.7-.044,7.046,0a4.093,4.093,0,0,1,4.413,3.493c1.281,5.2,2.474,10.413,3.744,15.612.3,1.224.237,2.3-1.121,2.646-1.405.355-1.921-.671-2.2-1.849q-.949-3.956-1.935-7.9a2.052,2.052,0,0,0-.8-1.236c0,3.315-.239,6.651.049,9.941.621,7.084,1.516,14.144,2.291,21.214.258,2.341-.619,3.788-2.388,4s-2.938-1.046-3.188-3.371q-.916-8.531-1.85-17.06a3.95,3.95,0,0,0-.871-2.188,13.78,13.78,0,0,0-.382,1.638c-.63,5.685-1.239,11.373-1.859,17.059-.047.437-.115.872-.184,1.307-.271,1.7-1.265,2.726-2.983,2.582-1.838-.154-2.7-1.385-2.515-3.214.375-3.795.864-7.579,1.193-11.377.587-6.771,1.091-13.552,1.628-20.327Z" transform="translate(-50.44 -29.06)" fill="#12263f"/>
      <path id="Trazado_732114" data-name="Trazado 732114" d="M414.132,210.411a4.7,4.7,0,1,1,4.666,4.809,4.694,4.694,0,0,1-4.666-4.809" transform="translate(-55.071 -27.365)" fill="#12263f"/>
      <path id="Trazado_732115" data-name="Trazado 732115" d="M398.191,210.7a4.687,4.687,0,0,1-9.373.011,4.688,4.688,0,1,1,9.373-.011" transform="translate(-51.704 -27.381)" fill="#12263f"/>
      <path id="Trazado_732116" data-name="Trazado 732116" d="M459.325,297.4c-1.355-.572-1.617-.836-2.032-2.039l-1.416-.568a2.124,2.124,0,0,1-2.723-.045,2.149,2.149,0,0,1-2.191.351,1.567,1.567,0,0,1-.969-2.026q3.838-12.577,7.681-25.154c.045-.149.108-.293.164-.443.518.034.4.323.3.627q-1.219,3.972-2.425,7.947-2.593,8.489-5.2,16.975a1.15,1.15,0,0,0,.268,1.4,1.51,1.51,0,0,0,1.737.119,7.094,7.094,0,0,0,.615-.468c1.182.929,1.684.929,2.765,0,1.3.915,1.716.916,2.7.07a4.644,4.644,0,0,0,1.485.566,4.756,4.756,0,0,0,1.52-.551c1.1.836,1.532.836,2.667-.082,1.232.912,1.715.913,2.762,0,1.374.9,1.741.9,2.815-.029a1.69,1.69,0,0,0,2.738.037,7.021,7.021,0,0,0,1.048.6,1.365,1.365,0,0,0,1.438-.341,1.092,1.092,0,0,0,.2-1.265q-3.5-11.43-6.982-22.868c-.045-.15-.084-.3-.133-.479.481-.173.545.145.638.455q1.61,5.289,3.229,10.577a15.154,15.154,0,0,0,.8,2.174v-9.332l.315-.055a2.491,2.491,0,0,0,1.839-3.761c-.659-1.25-1.284-2.519-1.942-3.77a.837.837,0,0,1,.066-.93,9.631,9.631,0,0,0,1.557-6.2,6.548,6.548,0,0,0-1.757-3.76c0,.193-.077.438.012.572a7.726,7.726,0,0,1,.313,8.128,17.4,17.4,0,0,1-3.742,4.934,1.358,1.358,0,0,1-1.938.009,1.4,1.4,0,0,1,.024-1.945c.941-1.133,1.94-2.229,2.77-3.439a5.8,5.8,0,0,0,1.081-4.307.461.461,0,0,0-.163-.28,9.735,9.735,0,0,1-3.187,6.628c.329-.456.574-.915.179-1.416.9-.788.86-1.128-.153-1.631.132-.833.048-.982-.731-1.241a13.356,13.356,0,0,1,3.243-9.427,25.615,25.615,0,0,1,2.593-2.38c.875-.763,1.955-.551,2.981-.539.092,0,.226.273.264.438.53,2.289,1.006,4.592,1.587,6.868a15.1,15.1,0,0,0,1.02,2.415,5.572,5.572,0,0,0,.526.749,10.266,10.266,0,0,0,.931-1.768c.643-2.194,1.223-4.409,1.8-6.623.174-.672.254-1.369.377-2.051a5.788,5.788,0,0,1,5.888,2.521,13.273,13.273,0,0,1,2.118,5.787,46.5,46.5,0,0,1-.047,12.117c-.048.456-.11.91-.167,1.366a2,2,0,0,1-2.212,1.92,2.049,2.049,0,0,1-1.734-2.429c.216-2.463.437-4.928.551-7.4a22.77,22.77,0,0,0-.583-6.3.769.769,0,0,0-.246-.437v.6q0,18.474,0,36.947c0,2.357-.558,3.146-2.739,3.872H482.8c-2.163-.771-2.683-1.522-2.683-3.85q0-10.088,0-20.176v-.7h-1.153v.706q0,10.357,0,20.716a3.039,3.039,0,0,1-1.3,2.68,8.417,8.417,0,0,1-1.336.62h-.838a3.383,3.383,0,0,1-2.7-2.75,2.189,2.189,0,0,1-2.794.2l-2.023.528a2.718,2.718,0,0,1-1.943,2.019h-.958a2.7,2.7,0,0,1-1.987-2.128l-.868-.063a2.7,2.7,0,0,1-2.056,2.191Zm25.849-42.587c.087-.176.358-.482.289-.64a1.665,1.665,0,0,0-.724-.78c-.171-.085-.5.156-.7.226-.239-.093-.545-.322-.692-.245a1.742,1.742,0,0,0-.756.751c-.079.171.178.5.258.687-.1.212-.34.506-.271.655a1.69,1.69,0,0,0,.716.786c.179.088.521-.158.738-.236.206.088.518.331.647.257a2.077,2.077,0,0,0,.786-.8c.074-.144-.2-.464-.29-.66" transform="translate(-59.828 -33.08)" fill="#12263f"/>
      <path id="Trazado_732117" data-name="Trazado 732117" d="M483.856,234.136a3.761,3.761,0,0,0,.393.116,5.565,5.565,0,1,1-2.094.006,3.387,3.387,0,0,0,.383-.122Z" transform="translate(-63.518 -31.135)" fill="#12263f"/>
      <path id="Trazado_732118" data-name="Trazado 732118" d="M480.387,301.072a8.408,8.408,0,0,0,1.335-.62,3.038,3.038,0,0,0,1.3-2.68q-.009-10.357,0-20.716v-.706h1.153v.7q0,10.088,0,20.176c0,2.328.519,3.079,2.683,3.85Z" transform="translate(-63.881 -36.749)" fill="#fff"/>
      <path id="Trazado_732119" data-name="Trazado 732119" d="M469.5,253.369c-.337.664-.688,1.29-.977,1.943-.281.636-.5,1.3-.747,1.963-.989-.135-1.985-.321-2.99-.4a16.342,16.342,0,0,0-6.445.666c-.536.177-.682.413-.511,1,.5,1.716.929,3.455,1.384,5.185.029.111.044.226.065.339l-.171.088a4.236,4.236,0,0,1-.516-.906c-.5-1.783-.965-3.578-1.444-5.369-.04-.15-.094-.3-.148-.466a4.106,4.106,0,0,0-.14,5.266,10.18,10.18,0,0,0,3.451,2.624c.567.29,1.164.521,1.729.814a1.327,1.327,0,0,1,.628,1.78,1.311,1.311,0,0,1-1.706.692,16.653,16.653,0,0,1-5.479-3.346,7.063,7.063,0,0,1,2.642-11.844,17.777,17.777,0,0,1,11-.186,3.44,3.44,0,0,1,.375.159" transform="translate(-60.273 -33.568)" fill="#12263f"/>
      <path id="Trazado_732120" data-name="Trazado 732120" d="M469.6,243.9a5.58,5.58,0,0,1-11.159.005A5.58,5.58,0,1,1,469.6,243.9" transform="translate(-60.963 -31.689)" fill="#12263f"/>
      <path id="Trazado_732121" data-name="Trazado 732121" d="M472.642,247.46c-.632-1.579-1.2-3.148-1.884-4.669a13.3,13.3,0,0,0-2.775-4.086,6.558,6.558,0,0,0-9.864.138,16.064,16.064,0,0,0-3.576,6.16c-.673,2.017-1.149,4.1-1.685,6.159-.111.427-.221.808-.743.737s-.566-.47-.486-.91a28.149,28.149,0,0,1,4.481-11.676,8.878,8.878,0,0,1,5.268-3.8,7.758,7.758,0,0,1,7.686,2.53,19.949,19.949,0,0,1,4.136,7.411c.033.094.07.186.1.282.372,1.318.581.912-.655,1.726" transform="translate(-60.053 -31.29)" fill="#12263f"/>
      <path id="Trazado_732122" data-name="Trazado 732122" d="M472.636,272.04c.58-.618,1.114-1.157,1.612-1.727.48-.55.923-1.131,1.352-1.664.394.809,1.321,2.694,1.321,2.694s.487,1.007.787,1.657a1.969,1.969,0,0,1-3.486,1.8c-.563-.891-1.053-1.828-1.585-2.76" transform="translate(-62.851 -35.725)" fill="#12263f"/>
      <path id="Trazado_732123" data-name="Trazado 732123" d="M461.31,265.574c.673.67.951.649,1.483-.115.276.063.556.126.849.191.336,1.115.652,1.236,1.488.569l.76.443c-.047,1.007.1,1.164,1.107,1.076l-3.615,4.928c-.856-.331-1.709-.642-2.54-1-.121-.053-.175-.353-.184-.542a4.045,4.045,0,0,1,.1-.734c.38.151.7.3,1.04.413a1.85,1.85,0,0,0,1.437-3.4c-.461-.232-.944-.423-1.409-.649-.691-.335-.688-.341-.518-1.17" transform="translate(-61.257 -35.3)" fill="#12263f"/>
      <path id="Trazado_732124" data-name="Trazado 732124" d="M481.8,251V248.78l1.923,1.078L481.8,251" transform="translate(-64.069 -33.082)"/>
      <path id="Trazado_732125" data-name="Trazado 732125" d="M484.358,249.767l1.692-.968v2.16l-1.726-.98.034-.212" transform="translate(-64.405 -33.085)"/>
      <path id="Trazado_732126" data-name="Trazado 732126" d="M484.73,256.6c-.358.217-.577.455-.747.423a.7.7,0,0,1-.408-.515c-.016-.115.3-.393.453-.386.19.008.37.238.7.478" transform="translate(-64.305 -34.058)"/>
      <path id="Trazado_732127" data-name="Trazado 732127" d="M484.728,252.3c-.355.219-.573.46-.742.429a.708.708,0,0,1-.412-.514c-.016-.115.295-.394.451-.388.19.007.371.236.7.473" transform="translate(-64.305 -33.487)"/>
      <path id="Trazado_732128" data-name="Trazado 732128" d="M484.043,253.519c.219.354.461.572.431.74a.711.711,0,0,1-.515.413c-.113.017-.393-.295-.387-.45.008-.191.234-.373.471-.7" transform="translate(-64.305 -33.713)"/>
      <path id="Trazado_732129" data-name="Trazado 732129" d="M469.337,264.839a.9.9,0,0,1,.832-1.074.9.9,0,0,1-.832,1.074" transform="translate(-62.411 -35.075)"/>
      <path id="Trazado_732130" data-name="Trazado 732130" d="M466.55,261.725a.914.914,0,0,1-.473,1.268.914.914,0,0,1,.473-1.268" transform="translate(-61.965 -34.804)"/>
      <path id="Trazado_732131" data-name="Trazado 732131" d="M463.487,264.8a1.251,1.251,0,0,1,1.342-.6.955.955,0,0,1-1.342.6" transform="translate(-61.634 -35.129)"/>
      <path id="Trazado_732132" data-name="Trazado 732132" d="M461.78,263.862l-1.086.952a.871.871,0,0,1,.942-1.125l.143.173" transform="translate(-61.26 -35.065)"/>
      <path id="Trazado_732133" data-name="Trazado 732133" d="M470.522,266.99a.89.89,0,0,1-1.07-.819.89.89,0,0,1,1.07.819" transform="translate(-62.427 -35.393)"/>
      <path id="Trazado_732134" data-name="Trazado 732134" d="M468.157,266.28a.915.915,0,0,1-.836,1.074.915.915,0,0,1,.836-1.074" transform="translate(-62.143 -35.41)"/>
      <path id="Trazado_732135" data-name="Trazado 732135" d="M465.336,263.014a.9.9,0,0,1-.506-1.249.893.893,0,0,1,.506,1.249" transform="translate(-61.8 -34.809)"/>
      <path id="Trazado_732136" data-name="Trazado 732136" d="M463.485,263.038a1.219,1.219,0,0,1,1.391.455c-.531.314-.946.181-1.391-.455" transform="translate(-61.634 -34.97)"/>
      <path id="Trazado_732137" data-name="Trazado 732137" d="M462.4,262.157a1.152,1.152,0,0,1,.033-1.418c.46.4.451.891-.033,1.418" transform="translate(-61.458 -34.673)"/>
      <path id="Trazado_732138" data-name="Trazado 732138" d="M461.717,262.455a1.265,1.265,0,0,1-.961-1.106c.672.055.965.387.961,1.106" transform="translate(-61.271 -34.754)"/>
      <path id="Trazado_732139" data-name="Trazado 732139" d="M467.853,264.735c-.68.187-1.015.053-1.287-.485.538-.228.9-.1,1.287.485" transform="translate(-62.043 -35.126)"/>
      <path id="Trazado_732140" data-name="Trazado 732140" d="M464.811,266a1.173,1.173,0,0,1,.564-1.333.928.928,0,0,1-.564,1.333" transform="translate(-61.807 -35.196)"/>
      <path id="Trazado_732141" data-name="Trazado 732141" d="M468.768,266.212c-.216-.292-.447-.472-.423-.6.032-.178.263-.319.408-.477.146.139.4.272.409.415.007.174-.2.357-.394.666" transform="translate(-62.28 -35.257)"/>
      <path id="Trazado_732142" data-name="Trazado 732142" d="M461.379,263.025a.886.886,0,0,1-1.346-.073.917.917,0,0,1,1.346.073" transform="translate(-61.175 -34.932)"/>
      <path id="Trazado_732143" data-name="Trazado 732143" d="M462.335,263.731c-.207-.322-.429-.516-.4-.669a.647.647,0,0,1,.455-.4c.1-.019.37.261.37.406,0,.173-.207.346-.421.66" transform="translate(-61.427 -34.929)"/>
      <path id="Trazado_732144" data-name="Trazado 732144" d="M471.043,265.383a1.3,1.3,0,0,1-1.463.187.944.944,0,0,1,1.463-.187" transform="translate(-62.444 -35.256)"/>
      <path id="Trazado_732145" data-name="Trazado 732145" d="M467.766,262.972c-.2.539-.531.7-1.195.588a.853.853,0,0,1,1.195-.588" transform="translate(-62.044 -34.962)"/>
      <path id="Trazado_732146" data-name="Trazado 732146" d="M469.014,267.832a.917.917,0,0,1-.147-1.358.917.917,0,0,1,.147,1.358" transform="translate(-62.318 -35.435)"/>
      <path id="Trazado_732147" data-name="Trazado 732147" d="M462.207,265.3a.919.919,0,0,1,.069-1.324.848.848,0,0,1-.069,1.324" transform="translate(-61.431 -35.103)"/>
      <path id="Trazado_732148" data-name="Trazado 732148" d="M466.656,265.952a.9.9,0,0,1-.563-1.241.9.9,0,0,1,.563,1.241" transform="translate(-61.972 -35.201)"/>
      <path id="Trazado_732149" data-name="Trazado 732149" d="M466.358,263.856c-.287.226-.46.461-.59.44a.662.662,0,0,1-.444-.4c-.029-.107.225-.4.362-.412.174-.009.36.189.672.377" transform="translate(-61.878 -35.037)"/>
      <path id="Trazado_732150" data-name="Trazado 732150" d="M462.89,262.254l1.044-.942c.151.932-.474.911-.874,1.118Z" transform="translate(-61.555 -34.749)"/>
      <path id="Trazado_732151" data-name="Trazado 732151" d="M468.641,264.548c-.166-.411-.635-.812.115-1.382.044.543.079.966.114,1.388l-.229-.006" transform="translate(-62.28 -34.995)"/>
      <path id="Trazado_732152" data-name="Trazado 732152" d="M469.658,268.958l.112-1.1.174.016c.036.37.484.763-.286,1.086" transform="translate(-62.455 -35.619)"/>
      <path id="Trazado_732153" data-name="Trazado 732153" d="M490.184,255.522c.093.2.363.516.29.66a2.077,2.077,0,0,1-.786.8c-.129.075-.441-.168-.647-.257-.217.078-.558.323-.738.236a1.69,1.69,0,0,1-.716-.786c-.069-.148.175-.443.271-.655-.08-.192-.336-.516-.258-.687a1.742,1.742,0,0,1,.756-.751c.146-.076.453.153.692.245.2-.07.53-.311.7-.226a1.665,1.665,0,0,1,.724.78c.069.158-.2.464-.289.64" transform="translate(-64.837 -33.786)" fill="#fff"/>
      <path id="Trazado_732154" data-name="Trazado 732154" d="M524.65,325.395c.379-1.208.765-2.413,1.127-3.625a.72.72,0,0,0-.09-.448c-.193-.419-.41-.827-.616-1.237h2.5c-.244.428-.487.838-.708,1.258a.706.706,0,0,0-.106.442c.294,1.138.61,2.268.923,3.4.006.023.032.039.09.106.2-.887.388-1.737.575-2.586.218-.991.425-1.985.659-2.972a1.046,1.046,0,0,1,.3-.426c.1-.1.268-.141.362-.246a2.217,2.217,0,0,1,2.288-.506,2.683,2.683,0,0,1,1.854,1.528q2.119,3.977,4.227,7.961,1.737,3.273,3.472,6.548a.782.782,0,0,0,.519.437,3.493,3.493,0,0,1,2.592,3.446c0,.721,0,1.443,0,2.165a.932.932,0,1,1-1.858.011c-.009-.708,0-1.417,0-2.125a1.6,1.6,0,0,0-.586-1.334,14.417,14.417,0,0,1-1.262,1.252,2.345,2.345,0,0,1-1.757.442v.537q0,11.385,0,22.771a2.977,2.977,0,0,1-.014.44.913.913,0,0,1-.881.784.9.9,0,0,1-.943-.7,1.925,1.925,0,0,1-.037-.436c0-7.938-.017-15.876.022-23.814a3.689,3.689,0,0,0-.478-1.874c-.886-1.631-1.747-3.276-2.618-4.915a.681.681,0,0,0-.257-.286v.454q0,5.211,0,10.423a2.462,2.462,0,0,1-.915,2.044,1.387,1.387,0,0,1-.792.295q-5.852.03-11.706.008a1.163,1.163,0,0,1-.65-.228,2.456,2.456,0,0,1-1-2.082q.007-5.873,0-11.746v-.433l-.076-.036c-.075.113-.156.222-.226.337-1.365,2.234-2.708,4.482-4.1,6.7a6.938,6.938,0,0,1-2.375,2.454,2.362,2.362,0,0,1-3.38-1c-.779-1.447-1.542-2.9-2.311-4.352a.787.787,0,0,0-.257-.307c.154,1.1.307,2.21.465,3.315q.817,5.73,1.639,11.461a1.146,1.146,0,0,1-.357,1.018,2.651,2.651,0,0,1-1.893.844q-8.178.018-16.355,0a2.685,2.685,0,0,1-1.868-.81,1.252,1.252,0,0,1-.373-1.164q1.077-7.475,2.13-14.954.3-2.082.6-4.164c.018-.13.029-.261.055-.505-.15.18-.236.273-.31.374q-2.86,3.843-5.721,7.683a.542.542,0,0,0-.087.54,4.614,4.614,0,0,1,.2,1.177q.017,11.766.008,23.533c0,.689-.278,1.076-.812,1.143a.92.92,0,0,1-1.059-.845c-.013-.133-.005-.267-.005-.4q0-11.586,0-23.172c0-.121,0-.24,0-.361,0-.35-.093-.57-.519-.575a2.361,2.361,0,0,1-1.553-.752.411.411,0,0,0-.533-.072,1.62,1.62,0,0,0-1,1.555c0,.7,0,1.39,0,2.085a.933.933,0,1,1-1.858.011c-.006-.708,0-1.417,0-2.125a3.4,3.4,0,0,1,2.21-3.266.684.684,0,0,0,.473-.554,2.657,2.657,0,0,1,.45-.926q5.08-6.859,10.182-13.7a2.452,2.452,0,0,1,3.344-.63,16.77,16.77,0,0,0,2.886,1.272,5.2,5.2,0,0,0,4.566-.851,2.689,2.689,0,0,1,3.345.091,3.225,3.225,0,0,1,.838,1c1.959,3.647,3.893,7.307,5.834,10.963.062.117.129.231.231.412.111-.172.2-.306.286-.444,2.435-3.99,4.861-7.986,7.315-11.965a5.366,5.366,0,0,1,1.059-1.181,2.631,2.631,0,0,1,2.013-.475.6.6,0,0,1,.271.145,2.6,2.6,0,0,0,.443.34,1.616,1.616,0,0,1,.917,1.447c.264,1.567.588,3.123.89,4.683.017.09.046.179.07.267l.079.017m-27-.577a.79.79,0,1,0-.805-.785.819.819,0,0,0,.805.785m0,14.507a.789.789,0,1,0-.8-.783.813.813,0,0,0,.8.783m-.01-9.678a.781.781,0,1,0-.793-.788.8.8,0,0,0,.793.788m.009,12.947a.8.8,0,0,0-.8.776.79.79,0,0,0,1.579.026.8.8,0,0,0-.776-.8m-.049-8.117a.79.79,0,0,0,.825-.752.79.79,0,0,0-1.577-.071.791.791,0,0,0,.753.823" transform="translate(-63.424 -42.348)" fill="#12263f"/>
      <path id="Trazado_732155" data-name="Trazado 732155" d="M534.777,349.871h5.067c.007.127.017.231.017.336q0,7.892,0,15.783a2.526,2.526,0,0,1-3.615,2.316,2.459,2.459,0,0,1-1.465-2.38q-.006-5.669,0-11.337,0-2.2,0-4.406Z" transform="translate(-71.114 -46.525)" fill="#12263f"/>
      <path id="Trazado_732156" data-name="Trazado 732156" d="M527.6,349.858h5.068v.4q0,7.851,0,15.7a2.53,2.53,0,0,1-1.982,2.533,2.481,2.481,0,0,1-2.809-1.346,3.248,3.248,0,0,1-.283-1.312c-.018-5.181-.011-10.363-.01-15.543,0-.132.01-.264.018-.432" transform="translate(-70.156 -46.524)" fill="#12263f"/>
      <path id="Trazado_732157" data-name="Trazado 732157" d="M500.013,318.882a5.091,5.091,0,1,1,5.112-5.085,5.095,5.095,0,0,1-5.112,5.085" transform="translate(-65.815 -41.051)" fill="#12263f"/>
      <path id="Trazado_732158" data-name="Trazado 732158" d="M538.1,312.649a5.09,5.09,0,1,1-5.063-5.132,5.067,5.067,0,0,1,5.063,5.132" transform="translate(-70.202 -40.893)" fill="#12263f"/>
      <path id="Trazado_732159" data-name="Trazado 732159" d="M501.42,356.655h5.01a2.416,2.416,0,0,1,.038.306c0,3.3.009,6.6,0,9.894a2.547,2.547,0,0,1-4.131,2.036,2.28,2.28,0,0,1-.942-1.827c-.019-3.431-.01-6.862-.009-10.294a.577.577,0,0,1,.036-.115" transform="translate(-66.673 -47.428)" fill="#12263f"/>
      <path id="Trazado_732160" data-name="Trazado 732160" d="M494.178,356.656h5.086v.436q0,4.846,0,9.692a2.545,2.545,0,1,1-5.084-.008q0-4.846,0-9.692Z" transform="translate(-65.715 -47.428)" fill="#12263f"/>
      <path id="Trazado_732161" data-name="Trazado 732161" d="M503.23,307.9a6.15,6.15,0,0,0-5.682-.019,2.529,2.529,0,0,1,1-2.45,2.812,2.812,0,0,1,3.188-.3,2.779,2.779,0,0,1,1.49,2.765" transform="translate(-66.156 -40.529)" fill="#12263f"/>
      <path id="Trazado_732162" data-name="Trazado 732162" d="M500.7,325.552a.79.79,0,1,1,.773-.815.823.823,0,0,1-.773.815" transform="translate(-66.476 -43.081)" fill="#fff"/>
      <path id="Trazado_732163" data-name="Trazado 732163" d="M500.7,342.285a.789.789,0,1,1,.775-.812.815.815,0,0,1-.775.812" transform="translate(-66.476 -45.307)" fill="#fff"/>
      <path id="Trazado_732164" data-name="Trazado 732164" d="M500.693,331.124a.781.781,0,1,1,.786-.8.8.8,0,0,1-.786.8" transform="translate(-66.476 -43.825)" fill="#fff"/>
      <path id="Trazado_732165" data-name="Trazado 732165" d="M500.7,346.3a.794.794,0,0,1,.777.8.79.79,0,0,1-1.58-.025.8.8,0,0,1,.8-.776" transform="translate(-66.476 -46.05)" fill="#fff"/>
      <path id="Trazado_732166" data-name="Trazado 732166" d="M500.653,336.7a.791.791,0,0,1-.753-.823.79.79,0,0,1,1.577.071.79.79,0,0,1-.825.752" transform="translate(-66.476 -44.566)" fill="#fff"/>
    </g>
    <path id="Trazado_733004" data-name="Trazado 733004" d="M8.842-5.546H3.779v3.428H9.721V0H1.143V-12.8H9.7v2.136H3.779v3.05H8.842Zm4.6-3.964.079,1.1a3.32,3.32,0,0,1,2.733-1.274A2.759,2.759,0,0,1,18.5-8.8a4.142,4.142,0,0,1,.756,2.654V0h-2.54V-6.082a1.648,1.648,0,0,0-.352-1.173A1.574,1.574,0,0,0,15.2-7.62a1.747,1.747,0,0,0-1.608.914V0h-2.54V-9.51Zm10.784-2.338V-9.51h1.626v1.863H24.223V-2.9a1.133,1.133,0,0,0,.2.756,1.015,1.015,0,0,0,.773.229,4.051,4.051,0,0,0,.747-.062V-.053a5.229,5.229,0,0,1-1.538.229,2.425,2.425,0,0,1-2.725-2.7V-7.646H20.294V-9.51h1.389v-2.338Zm2.382,7a5.64,5.64,0,0,1,.545-2.522,3.989,3.989,0,0,1,1.569-1.714A4.577,4.577,0,0,1,31.1-9.686a4.33,4.33,0,0,1,3.142,1.178,4.727,4.727,0,0,1,1.358,3.2l.018.65a4.97,4.97,0,0,1-1.222,3.511A4.247,4.247,0,0,1,31.113.176a4.268,4.268,0,0,1-3.283-1.318A5.058,5.058,0,0,1,26.6-4.729Zm2.54.18a3.555,3.555,0,0,0,.51,2.073,1.682,1.682,0,0,0,1.459.717,1.686,1.686,0,0,0,1.441-.709,3.89,3.89,0,0,0,.519-2.267,3.519,3.519,0,0,0-.519-2.06A1.686,1.686,0,0,0,31.1-7.638a1.658,1.658,0,0,0-1.441.726A3.955,3.955,0,0,0,29.145-4.662ZM42.521-7.128a6.9,6.9,0,0,0-.914-.07,1.86,1.86,0,0,0-1.89.976V0h-2.54V-9.51h2.4l.07,1.134a2.354,2.354,0,0,1,2.118-1.31,2.662,2.662,0,0,1,.791.114Zm3.56-2.382.079,1.1a3.32,3.32,0,0,1,2.733-1.274,2.759,2.759,0,0,1,2.25.888A4.142,4.142,0,0,1,51.9-6.144V0h-2.54V-6.082a1.648,1.648,0,0,0-.352-1.173,1.574,1.574,0,0,0-1.169-.365,1.747,1.747,0,0,0-1.608.914V0H43.69V-9.51Zm7.348,4.667a5.64,5.64,0,0,1,.545-2.522,3.989,3.989,0,0,1,1.569-1.714,4.577,4.577,0,0,1,2.377-.606,4.33,4.33,0,0,1,3.142,1.178,4.727,4.727,0,0,1,1.358,3.2l.018.65a4.97,4.97,0,0,1-1.222,3.511A4.247,4.247,0,0,1,57.938.176a4.268,4.268,0,0,1-3.283-1.318,5.058,5.058,0,0,1-1.226-3.586Zm2.54.18a3.555,3.555,0,0,0,.51,2.073,1.682,1.682,0,0,0,1.459.717,1.686,1.686,0,0,0,1.441-.709A3.89,3.89,0,0,0,59.9-4.847a3.519,3.519,0,0,0-.519-2.06,1.686,1.686,0,0,0-1.459-.731,1.658,1.658,0,0,0-1.441.726A3.955,3.955,0,0,0,55.969-4.662ZM69.152-2.628a.818.818,0,0,0-.461-.734,5.241,5.241,0,0,0-1.481-.479q-3.393-.712-3.393-2.883a2.613,2.613,0,0,1,1.05-2.114,4.237,4.237,0,0,1,2.747-.848,4.56,4.56,0,0,1,2.9.853A2.687,2.687,0,0,1,71.6-6.618h-2.54a1.229,1.229,0,0,0-.352-.9,1.488,1.488,0,0,0-1.1-.356,1.52,1.52,0,0,0-.993.29.916.916,0,0,0-.352.738.783.783,0,0,0,.4.681,4.114,4.114,0,0,0,1.349.448,11.019,11.019,0,0,1,1.6.426,2.628,2.628,0,0,1,2.013,2.558,2.481,2.481,0,0,1-1.116,2.1,4.815,4.815,0,0,1-2.883.8A5.029,5.029,0,0,1,65.5-.25a3.561,3.561,0,0,1-1.455-1.169,2.716,2.716,0,0,1-.527-1.6h2.408a1.326,1.326,0,0,0,.5,1.037,1.987,1.987,0,0,0,1.248.36,1.839,1.839,0,0,0,1.1-.277A.861.861,0,0,0,69.152-2.628Z" transform="translate(1080 2564.111)"/>
    <path id="Trazado_733005" data-name="Trazado 733005" d="M1.206,0V-13.508H5.362a6.312,6.312,0,0,1,3.187.8,5.6,5.6,0,0,1,2.194,2.282,7.039,7.039,0,0,1,.789,3.363v.622a7.059,7.059,0,0,1-.775,3.349A5.548,5.548,0,0,1,8.572-.816,6.359,6.359,0,0,1,5.39,0ZM3.989-11.253v9.018H5.334A3.022,3.022,0,0,0,7.83-3.3a4.821,4.821,0,0,0,.881-3.052v-.714a4.9,4.9,0,0,0-.854-3.122,3.012,3.012,0,0,0-2.5-1.062ZM18,.186A4.928,4.928,0,0,1,14.4-1.169a4.815,4.815,0,0,1-1.387-3.609v-.26a6.064,6.064,0,0,1,.584-2.7,4.289,4.289,0,0,1,1.656-1.837,4.648,4.648,0,0,1,2.445-.645,4.166,4.166,0,0,1,3.242,1.3,5.278,5.278,0,0,1,1.183,3.683v1.095H15.734a2.491,2.491,0,0,0,.784,1.577,2.37,2.37,0,0,0,1.656.594A2.894,2.894,0,0,0,20.6-3.1l1.317,1.475A4.025,4.025,0,0,1,20.28-.292,5.357,5.357,0,0,1,18,.186Zm-.306-8.248a1.675,1.675,0,0,0-1.294.54,2.8,2.8,0,0,0-.635,1.547h3.729v-.214a2,2,0,0,0-.482-1.384A1.729,1.729,0,0,0,17.692-8.062ZM29.084-2.774a.864.864,0,0,0-.487-.775,5.533,5.533,0,0,0-1.563-.506Q23.453-4.806,23.453-7.1a2.758,2.758,0,0,1,1.109-2.231,4.472,4.472,0,0,1,2.9-.9,4.813,4.813,0,0,1,3.057.9,2.836,2.836,0,0,1,1.146,2.338H28.982a1.3,1.3,0,0,0-.371-.951,1.57,1.57,0,0,0-1.16-.376,1.6,1.6,0,0,0-1.048.306.966.966,0,0,0-.371.779.826.826,0,0,0,.422.719,4.342,4.342,0,0,0,1.424.473,11.632,11.632,0,0,1,1.688.45,2.774,2.774,0,0,1,2.125,2.7A2.618,2.618,0,0,1,30.513-.663,5.083,5.083,0,0,1,27.47.186a5.309,5.309,0,0,1-2.24-.45A3.759,3.759,0,0,1,23.694-1.5a2.867,2.867,0,0,1-.557-1.693H25.68A1.4,1.4,0,0,0,26.208-2.1a2.1,2.1,0,0,0,1.317.38,1.941,1.941,0,0,0,1.164-.292A.909.909,0,0,0,29.084-2.774Zm7.542-9.732v2.468h1.716v1.967H36.627v5.01a1.2,1.2,0,0,0,.213.8,1.072,1.072,0,0,0,.816.241,4.276,4.276,0,0,0,.789-.065V-.056a5.52,5.52,0,0,1-1.624.241,2.56,2.56,0,0,1-2.876-2.848V-8.071H32.48v-1.967h1.466v-2.468ZM42.667,0h-2.69V-10.038h2.69ZM39.818-12.636a1.32,1.32,0,0,1,.4-.993,1.516,1.516,0,0,1,1.1-.39,1.52,1.52,0,0,1,1.095.39,1.313,1.313,0,0,1,.408.993,1.316,1.316,0,0,1-.413,1,1.523,1.523,0,0,1-1.09.39,1.523,1.523,0,0,1-1.09-.39A1.316,1.316,0,0,1,39.818-12.636Zm7.524,2.6.083,1.16a3.5,3.5,0,0,1,2.885-1.345,2.913,2.913,0,0,1,2.375.937,4.372,4.372,0,0,1,.8,2.8V0H50.8V-6.42a1.739,1.739,0,0,0-.371-1.239A1.661,1.661,0,0,0,49.2-8.043a1.844,1.844,0,0,0-1.7.965V0H44.819V-10.038ZM61.333,0a2.977,2.977,0,0,1-.269-.9A3.244,3.244,0,0,1,58.531.186a3.564,3.564,0,0,1-2.445-.854,2.745,2.745,0,0,1-.969-2.152A2.837,2.837,0,0,1,56.3-5.27a5.837,5.837,0,0,1,3.419-.863h1.234v-.575a1.654,1.654,0,0,0-.357-1.113,1.405,1.405,0,0,0-1.127-.417,1.6,1.6,0,0,0-1.062.325,1.1,1.1,0,0,0-.385.891H55.339a2.693,2.693,0,0,1,.538-1.614A3.557,3.557,0,0,1,57.4-9.8a5.545,5.545,0,0,1,2.208-.422,4.381,4.381,0,0,1,2.946.932,3.262,3.262,0,0,1,1.09,2.621v4.351a4.8,4.8,0,0,0,.4,2.162V0ZM59.115-1.865a2.309,2.309,0,0,0,1.095-.264,1.737,1.737,0,0,0,.742-.71V-4.564h-1q-2.013,0-2.143,1.392l-.009.158a1.073,1.073,0,0,0,.353.826A1.369,1.369,0,0,0,59.115-1.865Zm9.8-10.641v2.468h1.716v1.967H68.912v5.01a1.2,1.2,0,0,0,.213.8,1.072,1.072,0,0,0,.816.241,4.276,4.276,0,0,0,.789-.065V-.056a5.52,5.52,0,0,1-1.624.241,2.56,2.56,0,0,1-2.876-2.848V-8.071H64.765v-1.967h1.466v-2.468ZM77.939,0a2.977,2.977,0,0,1-.269-.9A3.244,3.244,0,0,1,75.137.186a3.564,3.564,0,0,1-2.445-.854,2.745,2.745,0,0,1-.969-2.152A2.837,2.837,0,0,1,72.906-5.27a5.837,5.837,0,0,1,3.419-.863h1.234v-.575A1.654,1.654,0,0,0,77.2-7.821a1.405,1.405,0,0,0-1.127-.417,1.6,1.6,0,0,0-1.062.325,1.1,1.1,0,0,0-.385.891H71.946a2.693,2.693,0,0,1,.538-1.614A3.557,3.557,0,0,1,74.005-9.8a5.545,5.545,0,0,1,2.208-.422,4.381,4.381,0,0,1,2.946.932,3.262,3.262,0,0,1,1.09,2.621v4.351a4.8,4.8,0,0,0,.4,2.162V0ZM75.722-1.865a2.309,2.309,0,0,0,1.095-.264,1.737,1.737,0,0,0,.742-.71V-4.564h-1q-2.013,0-2.143,1.392l-.009.158a1.073,1.073,0,0,0,.353.826A1.369,1.369,0,0,0,75.722-1.865ZM87.949-7.524a7.284,7.284,0,0,0-.965-.074,1.964,1.964,0,0,0-1.995,1.03V0H82.309V-10.038h2.533l.074,1.2a2.484,2.484,0,0,1,2.236-1.382,2.809,2.809,0,0,1,.835.121ZM92.068,0h-2.69V-10.038h2.69ZM89.22-12.636a1.32,1.32,0,0,1,.4-.993,1.516,1.516,0,0,1,1.1-.39,1.52,1.52,0,0,1,1.095.39,1.313,1.313,0,0,1,.408.993,1.316,1.316,0,0,1-.413,1,1.523,1.523,0,0,1-1.09.39,1.523,1.523,0,0,1-1.09-.39A1.316,1.316,0,0,1,89.22-12.636Zm4.639,7.524a5.953,5.953,0,0,1,.575-2.663A4.211,4.211,0,0,1,96.09-9.583a4.831,4.831,0,0,1,2.51-.64,4.571,4.571,0,0,1,3.317,1.243A4.989,4.989,0,0,1,103.35-5.6l.019.687a5.247,5.247,0,0,1-1.29,3.706,4.482,4.482,0,0,1-3.46,1.4,4.5,4.5,0,0,1-3.465-1.392,5.339,5.339,0,0,1-1.294-3.785Zm2.681.19a3.752,3.752,0,0,0,.538,2.188,1.775,1.775,0,0,0,1.54.757,1.779,1.779,0,0,0,1.521-.748,4.106,4.106,0,0,0,.547-2.393,3.715,3.715,0,0,0-.547-2.174,1.779,1.779,0,0,0-1.54-.771,1.75,1.75,0,0,0-1.521.767A4.175,4.175,0,0,0,96.54-4.921Zm13.916,2.148a.864.864,0,0,0-.487-.775,5.533,5.533,0,0,0-1.563-.506q-3.581-.751-3.581-3.043a2.758,2.758,0,0,1,1.109-2.231,4.472,4.472,0,0,1,2.9-.9,4.813,4.813,0,0,1,3.057.9,2.836,2.836,0,0,1,1.146,2.338h-2.681a1.3,1.3,0,0,0-.371-.951,1.57,1.57,0,0,0-1.16-.376,1.6,1.6,0,0,0-1.048.306.966.966,0,0,0-.371.779.826.826,0,0,0,.422.719,4.342,4.342,0,0,0,1.424.473,11.632,11.632,0,0,1,1.688.45,2.774,2.774,0,0,1,2.125,2.7,2.618,2.618,0,0,1-1.178,2.222,5.083,5.083,0,0,1-3.043.849,5.309,5.309,0,0,1-2.24-.45A3.759,3.759,0,0,1,105.066-1.5a2.867,2.867,0,0,1-.557-1.693h2.542A1.4,1.4,0,0,0,107.58-2.1a2.1,2.1,0,0,0,1.317.38,1.941,1.941,0,0,0,1.164-.292A.909.909,0,0,0,110.456-2.774Z" transform="translate(1059 2606.111)"/>
    <path id="Trazado_733006" data-name="Trazado 733006" d="M4.588-12.8,7.875-3.516l3.27-9.281h3.463V0H11.962V-3.5l.264-6.038L8.771,0H6.961L3.516-9.527,3.779-3.5V0H1.143V-12.8Zm11.76,7.954a5.64,5.64,0,0,1,.545-2.522,3.989,3.989,0,0,1,1.569-1.714,4.577,4.577,0,0,1,2.377-.606,4.33,4.33,0,0,1,3.142,1.178,4.727,4.727,0,0,1,1.358,3.2l.018.65a4.97,4.97,0,0,1-1.222,3.511A4.247,4.247,0,0,1,20.856.176a4.268,4.268,0,0,1-3.283-1.318,5.058,5.058,0,0,1-1.226-3.586Zm2.54.18a3.555,3.555,0,0,0,.51,2.073,1.682,1.682,0,0,0,1.459.717A1.686,1.686,0,0,0,22.3-2.581a3.89,3.89,0,0,0,.519-2.267,3.519,3.519,0,0,0-.519-2.06,1.686,1.686,0,0,0-1.459-.731,1.658,1.658,0,0,0-1.441.726A3.955,3.955,0,0,0,18.888-4.662ZM29.3-9.51l.079,1.063a3.342,3.342,0,0,1,2.733-1.239,2.536,2.536,0,0,1,2.522,1.45,3.265,3.265,0,0,1,2.856-1.45,2.836,2.836,0,0,1,2.3.9,4.141,4.141,0,0,1,.756,2.711V0H38V-6.064a1.811,1.811,0,0,0-.316-1.182,1.4,1.4,0,0,0-1.116-.374,1.585,1.585,0,0,0-1.582,1.09L35,0h-2.54V-6.056a1.789,1.789,0,0,0-.325-1.2,1.416,1.416,0,0,0-1.107-.369,1.646,1.646,0,0,0-1.564.9V0h-2.54V-9.51ZM46.881.176a4.668,4.668,0,0,1-3.406-1.283,4.561,4.561,0,0,1-1.314-3.419v-.246a5.745,5.745,0,0,1,.554-2.562,4.064,4.064,0,0,1,1.569-1.74A4.4,4.4,0,0,1,46.6-9.686a3.947,3.947,0,0,1,3.072,1.23,5,5,0,0,1,1.121,3.489v1.037H44.736a2.36,2.36,0,0,0,.743,1.494,2.245,2.245,0,0,0,1.569.563,2.742,2.742,0,0,0,2.294-1.063l1.248,1.4A3.813,3.813,0,0,1,49.043-.277,5.075,5.075,0,0,1,46.881.176Zm-.29-7.813a1.587,1.587,0,0,0-1.226.512,2.651,2.651,0,0,0-.6,1.466H48.3v-.2a1.891,1.891,0,0,0-.457-1.311A1.638,1.638,0,0,0,46.591-7.638Zm7.98-1.872.079,1.1a3.32,3.32,0,0,1,2.733-1.274,2.759,2.759,0,0,1,2.25.888,4.142,4.142,0,0,1,.756,2.654V0H57.85V-6.082A1.648,1.648,0,0,0,57.5-7.255a1.574,1.574,0,0,0-1.169-.365,1.747,1.747,0,0,0-1.608.914V0h-2.54V-9.51Zm10.784-2.338V-9.51h1.626v1.863H65.355V-2.9a1.133,1.133,0,0,0,.2.756,1.015,1.015,0,0,0,.773.229,4.051,4.051,0,0,0,.747-.062V-.053A5.229,5.229,0,0,1,65.54.176a2.425,2.425,0,0,1-2.725-2.7V-7.646H61.427V-9.51h1.389v-2.338Zm2.382,7a5.64,5.64,0,0,1,.545-2.522,3.989,3.989,0,0,1,1.569-1.714,4.577,4.577,0,0,1,2.377-.606,4.33,4.33,0,0,1,3.142,1.178,4.727,4.727,0,0,1,1.358,3.2l.018.65a4.97,4.97,0,0,1-1.222,3.511A4.247,4.247,0,0,1,72.246.176a4.268,4.268,0,0,1-3.283-1.318,5.058,5.058,0,0,1-1.226-3.586Zm2.54.18a3.555,3.555,0,0,0,.51,2.073,1.682,1.682,0,0,0,1.459.717,1.686,1.686,0,0,0,1.441-.709,3.89,3.89,0,0,0,.519-2.267,3.519,3.519,0,0,0-.519-2.06,1.686,1.686,0,0,0-1.459-.731,1.658,1.658,0,0,0-1.441.726A3.955,3.955,0,0,0,70.277-4.662ZM83.461-2.628A.818.818,0,0,0,83-3.362a5.241,5.241,0,0,0-1.481-.479q-3.393-.712-3.393-2.883a2.613,2.613,0,0,1,1.05-2.114,4.237,4.237,0,0,1,2.747-.848,4.56,4.56,0,0,1,2.9.853A2.687,2.687,0,0,1,85.9-6.618h-2.54a1.229,1.229,0,0,0-.352-.9,1.488,1.488,0,0,0-1.1-.356,1.52,1.52,0,0,0-.993.29.916.916,0,0,0-.352.738.783.783,0,0,0,.4.681,4.114,4.114,0,0,0,1.349.448,11.019,11.019,0,0,1,1.6.426,2.628,2.628,0,0,1,2.013,2.558,2.481,2.481,0,0,1-1.116,2.1,4.815,4.815,0,0,1-2.883.8A5.029,5.029,0,0,1,79.809-.25a3.561,3.561,0,0,1-1.455-1.169,2.716,2.716,0,0,1-.527-1.6h2.408a1.326,1.326,0,0,0,.5,1.037,1.987,1.987,0,0,0,1.248.36,1.839,1.839,0,0,0,1.1-.277A.861.861,0,0,0,83.461-2.628Zm8.191-2.2a5.731,5.731,0,0,1,1-3.542,3.237,3.237,0,0,1,2.729-1.318,2.913,2.913,0,0,1,2.294,1.037V-13.5h2.549V0H97.928L97.8-1.011A2.989,2.989,0,0,1,95.361.176a3.228,3.228,0,0,1-2.694-1.323A5.916,5.916,0,0,1,91.652-4.825Zm2.54.189a3.754,3.754,0,0,0,.466,2.051,1.517,1.517,0,0,0,1.354.713,1.7,1.7,0,0,0,1.661-.995V-6.625a1.675,1.675,0,0,0-1.644-.995Q94.192-7.62,94.192-4.636ZM106.567.176a4.668,4.668,0,0,1-3.406-1.283,4.561,4.561,0,0,1-1.314-3.419v-.246a5.745,5.745,0,0,1,.554-2.562,4.064,4.064,0,0,1,1.569-1.74,4.4,4.4,0,0,1,2.316-.611,3.947,3.947,0,0,1,3.072,1.23,5,5,0,0,1,1.121,3.489v1.037h-6.056a2.36,2.36,0,0,0,.743,1.494,2.245,2.245,0,0,0,1.569.563,2.742,2.742,0,0,0,2.294-1.063l1.248,1.4a3.813,3.813,0,0,1-1.547,1.261A5.075,5.075,0,0,1,106.567.176Zm-.29-7.813a1.587,1.587,0,0,0-1.226.512,2.651,2.651,0,0,0-.6,1.466h3.533v-.2a1.891,1.891,0,0,0-.457-1.311A1.638,1.638,0,0,0,106.277-7.638ZM114.6,0h-2.549V-13.5H114.6Z" transform="translate(1058 2643.956)"/>
    <path id="Trazado_733007" data-name="Trazado 733007" d="M5.2-1.976a1.759,1.759,0,0,0,1.206-.408A1.43,1.43,0,0,0,6.893-3.47H9.407A3.439,3.439,0,0,1,8.851-1.6a3.673,3.673,0,0,1-1.5,1.317,4.689,4.689,0,0,1-2.1.469,4.358,4.358,0,0,1-3.4-1.368A5.415,5.415,0,0,1,.612-4.963V-5.14a5.353,5.353,0,0,1,1.234-3.7,4.307,4.307,0,0,1,3.386-1.382,4.222,4.222,0,0,1,3.02,1.072A3.794,3.794,0,0,1,9.407-6.3H6.893a1.842,1.842,0,0,0-.482-1.273,1.608,1.608,0,0,0-1.225-.49,1.615,1.615,0,0,0-1.415.683,3.958,3.958,0,0,0-.478,2.216v.279a4.008,4.008,0,0,0,.473,2.23A1.635,1.635,0,0,0,5.2-1.976Zm11.745.956A3.362,3.362,0,0,1,14.2.186,3.171,3.171,0,0,1,11.74-.742a3.96,3.96,0,0,1-.867-2.718v-6.578h2.681v6.492q0,1.57,1.429,1.57a1.936,1.936,0,0,0,1.874-.947v-7.115h2.69V0H17.024Zm10.261-6.5a7.284,7.284,0,0,0-.965-.074,1.964,1.964,0,0,0-1.995,1.03V0H21.57V-10.038H24.1l.074,1.2a2.484,2.484,0,0,1,2.236-1.382,2.809,2.809,0,0,1,.835.121Zm6.726,4.75a.864.864,0,0,0-.487-.775,5.533,5.533,0,0,0-1.563-.506Q28.305-4.806,28.305-7.1a2.758,2.758,0,0,1,1.109-2.231,4.472,4.472,0,0,1,2.9-.9,4.813,4.813,0,0,1,3.057.9,2.836,2.836,0,0,1,1.146,2.338H33.834a1.3,1.3,0,0,0-.371-.951,1.57,1.57,0,0,0-1.16-.376,1.6,1.6,0,0,0-1.048.306.966.966,0,0,0-.371.779.826.826,0,0,0,.422.719,4.342,4.342,0,0,0,1.424.473,11.632,11.632,0,0,1,1.688.45,2.774,2.774,0,0,1,2.125,2.7A2.618,2.618,0,0,1,35.365-.663a5.083,5.083,0,0,1-3.043.849,5.309,5.309,0,0,1-2.24-.45A3.759,3.759,0,0,1,28.546-1.5a2.867,2.867,0,0,1-.557-1.693h2.542A1.4,1.4,0,0,0,31.061-2.1a2.1,2.1,0,0,0,1.317.38,1.941,1.941,0,0,0,1.164-.292A.909.909,0,0,0,33.937-2.774Zm3.915-2.338a5.953,5.953,0,0,1,.575-2.663,4.211,4.211,0,0,1,1.656-1.809,4.831,4.831,0,0,1,2.51-.64A4.571,4.571,0,0,1,45.909-8.98,4.989,4.989,0,0,1,47.342-5.6l.019.687a5.247,5.247,0,0,1-1.29,3.706,4.482,4.482,0,0,1-3.46,1.4,4.5,4.5,0,0,1-3.465-1.392,5.339,5.339,0,0,1-1.294-3.785Zm2.681.19a3.752,3.752,0,0,0,.538,2.188,1.775,1.775,0,0,0,1.54.757,1.779,1.779,0,0,0,1.521-.748,4.106,4.106,0,0,0,.547-2.393,3.715,3.715,0,0,0-.547-2.174,1.779,1.779,0,0,0-1.54-.771,1.75,1.75,0,0,0-1.521.767A4.175,4.175,0,0,0,40.533-4.921Zm12.793-.172a6.049,6.049,0,0,1,1.053-3.739,3.417,3.417,0,0,1,2.881-1.392,3.074,3.074,0,0,1,2.421,1.095V-14.25h2.69V0H59.95l-.13-1.067A3.155,3.155,0,0,1,57.241.186a3.407,3.407,0,0,1-2.844-1.4A6.244,6.244,0,0,1,53.326-5.093Zm2.681.2A3.963,3.963,0,0,0,56.5-2.729a1.6,1.6,0,0,0,1.429.753,1.794,1.794,0,0,0,1.753-1.05V-6.994a1.768,1.768,0,0,0-1.735-1.05Q56.007-8.043,56.007-4.894ZM69.07.186a4.928,4.928,0,0,1-3.595-1.354,4.815,4.815,0,0,1-1.387-3.609v-.26a6.064,6.064,0,0,1,.584-2.7,4.289,4.289,0,0,1,1.656-1.837,4.648,4.648,0,0,1,2.445-.645,4.166,4.166,0,0,1,3.242,1.3A5.278,5.278,0,0,1,73.2-5.242v1.095H66.806A2.491,2.491,0,0,0,67.59-2.57a2.37,2.37,0,0,0,1.656.594A2.894,2.894,0,0,0,71.667-3.1l1.317,1.475A4.025,4.025,0,0,1,71.352-.292,5.357,5.357,0,0,1,69.07.186Zm-.306-8.248a1.675,1.675,0,0,0-1.294.54,2.8,2.8,0,0,0-.635,1.547h3.729v-.214a2,2,0,0,0-.482-1.384A1.729,1.729,0,0,0,68.764-8.062ZM82.281,0H79.59V-14.25h2.69Zm8.025,0a2.977,2.977,0,0,1-.269-.9A3.244,3.244,0,0,1,87.5.186a3.564,3.564,0,0,1-2.445-.854A2.745,2.745,0,0,1,84.09-2.82,2.837,2.837,0,0,1,85.273-5.27a5.837,5.837,0,0,1,3.419-.863h1.234v-.575a1.654,1.654,0,0,0-.357-1.113,1.405,1.405,0,0,0-1.127-.417,1.6,1.6,0,0,0-1.062.325,1.1,1.1,0,0,0-.385.891H84.313a2.693,2.693,0,0,1,.538-1.614A3.557,3.557,0,0,1,86.372-9.8a5.545,5.545,0,0,1,2.208-.422,4.381,4.381,0,0,1,2.946.932,3.262,3.262,0,0,1,1.09,2.621v4.351a4.8,4.8,0,0,0,.4,2.162V0ZM88.088-1.865a2.309,2.309,0,0,0,1.095-.264,1.737,1.737,0,0,0,.742-.71V-4.564h-1q-2.013,0-2.143,1.392l-.009.158a1.073,1.073,0,0,0,.353.826A1.369,1.369,0,0,0,88.088-1.865Zm15.076-1.41,1.865-6.763h2.8L104.444,0h-2.561L98.5-10.038h2.8ZM111.838,0h-2.69V-10.038h2.69ZM108.99-12.636a1.32,1.32,0,0,1,.4-.993,1.516,1.516,0,0,1,1.1-.39,1.52,1.52,0,0,1,1.095.39,1.313,1.313,0,0,1,.408.993,1.316,1.316,0,0,1-.413,1,1.523,1.523,0,0,1-1.09.39,1.523,1.523,0,0,1-1.09-.39A1.316,1.316,0,0,1,108.99-12.636Zm4.639,7.542a6.049,6.049,0,0,1,1.053-3.739,3.417,3.417,0,0,1,2.881-1.392,3.074,3.074,0,0,1,2.421,1.095V-14.25h2.69V0h-2.421l-.13-1.067A3.155,3.155,0,0,1,117.544.186a3.407,3.407,0,0,1-2.844-1.4A6.244,6.244,0,0,1,113.629-5.093Zm2.681.2a3.963,3.963,0,0,0,.492,2.165,1.6,1.6,0,0,0,1.429.753,1.794,1.794,0,0,0,1.753-1.05V-6.994a1.768,1.768,0,0,0-1.735-1.05Q116.31-8.043,116.31-4.894ZM130.569,0a2.977,2.977,0,0,1-.269-.9A3.244,3.244,0,0,1,127.768.186a3.564,3.564,0,0,1-2.445-.854,2.745,2.745,0,0,1-.969-2.152,2.837,2.837,0,0,1,1.183-2.449,5.837,5.837,0,0,1,3.419-.863h1.234v-.575a1.654,1.654,0,0,0-.357-1.113,1.405,1.405,0,0,0-1.127-.417,1.6,1.6,0,0,0-1.062.325,1.1,1.1,0,0,0-.385.891h-2.681a2.693,2.693,0,0,1,.538-1.614A3.557,3.557,0,0,1,126.636-9.8a5.545,5.545,0,0,1,2.208-.422,4.381,4.381,0,0,1,2.946.932,3.262,3.262,0,0,1,1.09,2.621v4.351a4.8,4.8,0,0,0,.4,2.162V0Zm-2.217-1.865a2.309,2.309,0,0,0,1.095-.264,1.737,1.737,0,0,0,.742-.71V-4.564h-1q-2.013,0-2.143,1.392l-.009.158a1.073,1.073,0,0,0,.353.826A1.369,1.369,0,0,0,128.352-1.865Z" transform="translate(1049 2666.884)"/>
  </g>
</svg>
