<svg xmlns="http://www.w3.org/2000/svg" xmlns:xlink="http://www.w3.org/1999/xlink" width="88.689" height="88.689" viewBox="0 0 88.689 88.689">
  <defs>
    <clipPath id="clip-path">
      <rect id="Rectángulo_351076" data-name="Rectángulo 351076" width="38.329" height="47.118" fill="#12263f"/>
    </clipPath>
  </defs>
  <g id="Grupo_1018678" data-name="Grupo 1018678" transform="translate(-180 -1167.799)">
    <g id="Grupo_1018677" data-name="Grupo 1018677">
      <g id="Grupo_1006754" data-name="Grupo 1006754" transform="translate(180 1167.799)" opacity="0.752">
        <g id="Grupo_20664" data-name="Grupo 20664" transform="translate(0 0)">
          <path id="Trazado_99075" data-name="Trazado 99075" d="M44.345,0A44.345,44.345,0,1,1,0,44.345,44.345,44.345,0,0,1,44.345,0Z" fill="#6f88da"/>
          <path id="Trazado_715274" data-name="Trazado 715274" d="M35.122,0A35.122,35.122,0,1,1,0,35.122,35.122,35.122,0,0,1,35.122,0Z" transform="translate(9.223 9.223)" fill="#f6f6f6"/>
        </g>
      </g>
      <g id="Grupo_1014677" data-name="Grupo 1014677" transform="translate(200.519 1188.793)">
        <g id="Grupo_1014677-2" data-name="Grupo 1014677" clip-path="url(#clip-path)">
          <path id="Trazado_728231" data-name="Trazado 728231" d="M6.653,47.118A1.719,1.719,0,0,1,5.59,45.284c.037-1.977.012-3.956.012-5.934v-.612c-.691.691-1.283,1.286-1.879,1.877-.52.517-.831.512-1.354-.013Q1.378,39.61.387,38.617C-.126,38.1-.13,37.81.379,37.3,2,35.671,3.625,34.041,5.262,32.425a1.078,1.078,0,0,0,.346-.845Q5.6,20.563,5.593,9.546a1.709,1.709,0,0,1,.541-1.337Q10.045,4.347,13.911.439A1.365,1.365,0,0,1,14.964,0Q25.818.016,36.672.006a1.491,1.491,0,0,1,1.3.431,2.111,2.111,0,0,1,.321.741,2.3,2.3,0,0,1,.023.6q0,13.179,0,26.359c0,.138.006.277-.008.414a.677.677,0,0,1-1.342.076,2.564,2.564,0,0,1-.028-.549q0-13.018,0-26.037v-.62H15.32V1.89q0,3.1,0,6.21c0,1.181-.465,1.646-1.642,1.648q-3.059.005-6.117,0h-.54v20.9c.247-.244.444-.438.639-.633.4-.4.8-.805,1.2-1.2.383-.375.79-.411,1.087-.108s.265.7-.119,1.087q-3.542,3.549-7.09,7.091c-.347.346-.708.677-1.071,1.023l1.348,1.279L15.31,26.893l-1.357-1.245c-.414.422-.912.93-1.412,1.437a5.364,5.364,0,0,1-.395.385.682.682,0,0,1-.955-.02.645.645,0,0,1-.005-.948c.483-.514.99-1.005,1.49-1.5.173-.172.36-.331.545-.5l-.858-1.56a8.909,8.909,0,0,1-1.235-.01,2.185,2.185,0,0,1-1.822-1.494,2.126,2.126,0,0,1,.412-2.32c1.178-1.248,2.395-2.462,3.639-3.645a2.268,2.268,0,0,1,2.7-.242,2.349,2.349,0,0,1,1.113,2.475c-.022.119-.038.239-.06.38a12.151,12.151,0,0,1,5.8,5.793,6.11,6.11,0,0,1,.963-.08,2.344,2.344,0,0,1,1.55,3.975C24.329,28.9,23.218,30,22.105,31.1a2.352,2.352,0,0,1-3.984-2.256c.01-.044.012-.09.021-.164-.262-.137-.532-.272-.8-.419s-.5-.293-.778-.455c-.085.074-.178.147-.261.23q-4.522,4.52-9.036,9.047a.942.942,0,0,0-.277.582c-.018,2.607-.011,5.213-.01,7.82,0,.061.012.121.022.219H36.936v-.52q0-6.578,0-13.156a2.384,2.384,0,0,1,.036-.548.675.675,0,0,1,1.332.086,4.44,4.44,0,0,1,.009.46c0,4.416-.016,8.832.014,13.248a1.76,1.76,0,0,1-1.042,1.848ZM18.981,27.512a2.822,2.822,0,0,0,.253-.2c.771-.767,1.531-1.546,2.314-2.3a.413.413,0,0,0,.092-.559,10.556,10.556,0,0,0-5.094-5.092.408.408,0,0,0-.553.108c-.726.748-1.457,1.491-2.212,2.208a.543.543,0,0,0-.129.75,10.527,10.527,0,0,0,4.992,4.948c.1.046.2.084.337.143M8.131,8.364h.4c1.637,0,3.275-.014,4.912.012.424.007.51-.137.506-.525-.018-1.653-.007-3.306-.009-4.959,0-.131-.014-.262-.017-.324l-5.791,5.8m3.342,13.37a5.574,5.574,0,0,0,.84-.547c1.051-1.026,2.085-2.069,3.12-3.112A.986.986,0,1,0,14.057,16.7c-.687.676-1.365,1.361-2.046,2.044-.41.412-.83.815-1.224,1.242a.817.817,0,0,0-.138,1.056,4.234,4.234,0,0,0,.824.695m7.944,7.6a.991.991,0,0,0,.589,1.055.93.93,0,0,0,1.091-.236q1.643-1.634,3.277-3.278a.975.975,0,1,0-1.387-1.363c-1.088,1.075-2.172,2.154-3.24,3.25a2.2,2.2,0,0,0-.33.571" transform="translate(0 0)" fill="#12263f"/>
          <path id="Trazado_728232" data-name="Trazado 728232" d="M203.57,48.8a15.361,15.361,0,0,1,1.711-1.1,4.538,4.538,0,0,1,5.55,1.418,4.594,4.594,0,0,1-.174,5.738c-.389.452-.822.867-1.251,1.284a.7.7,0,0,1-1.023.056.673.673,0,0,1,.043-1.018c.315-.334.652-.649.97-.981a3.226,3.226,0,1,0-4.576-4.546c-.209.2-.408.416-.62.616a.7.7,0,0,1-1.122.007c-.246-.231-.475-.479-.721-.709a3.22,3.22,0,0,0-4.55,4.557c1.049,1.1,2.139,2.152,3.212,3.225l2.621,2.624L205.8,57.8c.119-.119.233-.244.361-.354a.689.689,0,0,1,.956-.019.668.668,0,0,1,.01.985c-.406.438-.839.852-1.261,1.275-.53.532-1.058,1.066-1.592,1.594-.475.469-.8.476-1.256.018-2.039-2.035-4.086-4.064-6.11-6.114a4.6,4.6,0,0,1,6.4-6.617c.1.092.2.182.259.233" transform="translate(-177.501 -42.924)" fill="#12263f"/>
          <path id="Trazado_728233" data-name="Trazado 728233" d="M135.992,406.42c-.558,1.142-1.066,2.186-1.578,3.229-.406.828-.962.922-1.46.15a2,2,0,0,0-2.126-1.02,16.639,16.639,0,0,1-2.16.014c-.527-.006-.8-.245-.8-.678s.283-.692.794-.7c1.226-.01,2.454-.024,3.679.014a1.55,1.55,0,0,1,.743.363,2.854,2.854,0,0,1,.442.529l1.654-3.387c.067-.138.137-.274.2-.412.144-.3.378-.551.71-.452a1.078,1.078,0,0,1,.619.509c.549,1.23,1.047,2.482,1.563,3.726.063.153.133.3.225.513.174-.344.323-.625.461-.912a.793.793,0,0,1,.764-.491c1.257,0,2.515-.009,3.772,0a.689.689,0,1,1-.026,1.37c-.981.009-1.963.024-2.943-.007a.626.626,0,0,0-.688.442c-.22.5-.486.989-.73,1.484-.148.3-.379.549-.712.448a1.087,1.087,0,0,1-.625-.507c-.535-1.2-1.018-2.428-1.52-3.644-.069-.167-.145-.33-.258-.587" transform="translate(-116.081 -366.807)" fill="#12263f"/>
          <path id="Trazado_728234" data-name="Trazado 728234" d="M139.588,370.859H128.926a3.2,3.2,0,0,1-.459-.01.681.681,0,0,1-.1-1.33,1.771,1.771,0,0,1,.5-.038q10.73,0,21.461,0a2.225,2.225,0,0,1,.412.013.651.651,0,0,1,.6.695.643.643,0,0,1-.63.664,3.988,3.988,0,0,1-.459.008H139.588" transform="translate(-116.084 -335.42)" fill="#12263f"/>
          <path id="Trazado_728235" data-name="Trazado 728235" d="M258.2,335.561q2.5,0,5.006,0c.181,0,.421-.028.529.072a1.276,1.276,0,0,1,.432.671c.045.332-.214.556-.553.621a2.213,2.213,0,0,1-.412.013H253.149a2.327,2.327,0,0,1-.412-.013.586.586,0,0,1-.552-.624,1.324,1.324,0,0,1,.437-.671c.1-.092.319-.068.485-.068q2.549-.006,5.1,0" transform="translate(-228.935 -304.63)" fill="#12263f"/>
          <path id="Trazado_728236" data-name="Trazado 728236" d="M293.753,303.048c-1.148,0-2.3,0-3.444,0-.555,0-.848-.238-.855-.673s.3-.7.876-.7q3.4,0,6.8,0c.582,0,.9.243.908.68s-.32.7-.929.7q-1.676,0-3.352,0" transform="translate(-262.773 -273.861)" fill="#12263f"/>
          <path id="Trazado_728237" data-name="Trazado 728237" d="M298.805,269.1c-1.073,0-2.146,0-3.218,0-.514,0-.812-.251-.823-.664-.011-.431.3-.711.83-.712q3.218-.007,6.437,0c.525,0,.84.289.824.719-.015.41-.315.654-.831.657-1.073,0-2.146,0-3.218,0" transform="translate(-267.594 -243.041)" fill="#12263f"/>
          <path id="Trazado_728238" data-name="Trazado 728238" d="M260.536,97.4c0-.327-.016-.6,0-.873a.676.676,0,0,1,.7-.7.667.667,0,0,1,.669.719c.007.138,0,.276,0,.414,0,.121,0,.242,0,.436.3,0,.565-.007.834,0a.688.688,0,1,1,.015,1.374c-.259.013-.519,0-.85,0,0,.3.008.565,0,.834a.685.685,0,1,1-1.368.04c-.021-.271,0-.546,0-.874-.311,0-.583.012-.853,0a.7.7,0,0,1-.719-.687.694.694,0,0,1,.716-.685c.259-.012.518,0,.857,0" transform="translate(-235.094 -86.995)" fill="#12263f"/>
        </g>
      </g>
    </g>
  </g>
</svg>
