<svg xmlns="http://www.w3.org/2000/svg" xmlns:xlink="http://www.w3.org/1999/xlink" width="649.015" height="639.047" viewBox="0 0 649.015 639.047">
  <defs>
    <clipPath id="clip-path">
      <rect id="Rectángulo_351110" data-name="Rectángulo 351110" width="649.015" height="639.047" fill="none"/>
    </clipPath>
    <clipPath id="clip-path-3">
      <rect id="Rectángulo_351111" data-name="Rectángulo 351111" width="44.512" height="44.215" fill="#12263f"/>
    </clipPath>
    <clipPath id="clip-path-6">
      <rect id="Rectángulo_351108" data-name="Rectángulo 351108" width="64.113" height="64.113" fill="none"/>
    </clipPath>
    <clipPath id="clip-path-7">
      <rect id="Rectángulo_351108-2" data-name="Rectángulo 351108" width="56.357" height="56.358" fill="none"/>
    </clipPath>
    <clipPath id="clip-path-8">
      <rect id="Rectángulo_351114" data-name="Rectángulo 351114" width="34.598" height="31.243" fill="#fff"/>
    </clipPath>
    <clipPath id="clip-path-9">
      <rect id="Rectángulo_351115" data-name="Rectángulo 351115" width="43.348" height="40.936" fill="#12263f"/>
    </clipPath>
    <clipPath id="clip-path-10">
      <rect id="Rectángulo_351112" data-name="Rectángulo 351112" width="48.694" height="48.709" fill="#12263f"/>
    </clipPath>
    <clipPath id="clip-path-11">
      <rect id="Rectángulo_351113" data-name="Rectángulo 351113" width="44.269" height="51.086" fill="#12263f"/>
    </clipPath>
    <clipPath id="clip-path-12">
      <rect id="Rectángulo_351116" data-name="Rectángulo 351116" width="53.423" height="29.991" fill="#12263f"/>
    </clipPath>
    <clipPath id="clip-path-13">
      <rect id="Rectángulo_351117" data-name="Rectángulo 351117" width="42.856" height="30.624" fill="#12263f"/>
    </clipPath>
  </defs>
  <g id="Grupo_1018678" data-name="Grupo 1018678" transform="translate(-455.985 -1043.057)">
    <g id="Grupo_1014723" data-name="Grupo 1014723" transform="translate(455.985 1043.057)" clip-path="url(#clip-path)">
      <g id="Grupo_1014715" data-name="Grupo 1014715">
        <g id="Grupo_1014714" data-name="Grupo 1014714" clip-path="url(#clip-path)">
          <path id="Trazado_728330" data-name="Trazado 728330" d="M313.132,468.124s3.889,27.223-20.742,29.815-182.784,0-182.784,0-73.891,5.187-80.374-82.965a46.314,46.314,0,0,1,6.483-25.927c7.778-12.964,92.04-163.34,92.04-163.34s15.7-32.408,43.5-15.555l42.06,36.3,100.041,77.781Z" transform="translate(15.462 108.89)" fill="#ffca28"/>
          <path id="Trazado_728331" data-name="Trazado 728331" d="M238.6,468.124s-3.889,27.223,20.742,29.815,182.784,0,182.784,0,73.891,5.187,80.374-82.965a46.314,46.314,0,0,0-6.483-25.927c-7.777-12.964-92.04-163.34-92.04-163.34s-15.7-32.408-43.5-15.555l-42.06,36.3L238.375,324.231Z" transform="translate(126.435 108.89)" fill="#4adbd1"/>
          <path id="Trazado_728332" data-name="Trazado 728332" d="M127.71,227.475s-10.37,23.334,6.481,38.891,53.151,42.075,53.151,42.075H375.311l57.038-45.964s12.964-12.964,0-35S342.9,74.507,342.9,74.507s-62.289-81.667-125.744,0Z" transform="translate(66.064 20.267)" fill="#6f88da"/>
          <path id="Trazado_728333" data-name="Trazado 728333" d="M446.475,317.6A163.339,163.339,0,1,1,283.137,154.257,163.338,163.338,0,0,1,446.475,317.6" transform="translate(63.542 81.819)" fill="#12263f"/>
          <path id="Trazado_728334" data-name="Trazado 728334" d="M285.467,61.73a43.421,43.421,0,1,1-43.421-43.421A43.421,43.421,0,0,1,285.467,61.73" transform="translate(105.351 9.711)" fill="#091c30"/>
          <path id="Trazado_728335" data-name="Trazado 728335" d="M276.852,59.513a37.024,37.024,0,1,1-37.024-37.024,37.023,37.023,0,0,1,37.024,37.024" transform="translate(107.569 11.928)" fill="#fff"/>
          <path id="Trazado_728336" data-name="Trazado 728336" d="M443.02,276.035A43.421,43.421,0,1,1,399.6,232.614a43.421,43.421,0,0,1,43.421,43.421" transform="translate(188.919 123.38)" fill="#091c30"/>
          <path id="Trazado_728337" data-name="Trazado 728337" d="M434.4,273.818a37.024,37.024,0,1,1-37.023-37.024A37.023,37.023,0,0,1,434.4,273.818" transform="translate(191.136 125.597)" fill="#fff"/>
          <path id="Trazado_728338" data-name="Trazado 728338" d="M128.479,276.035a43.421,43.421,0,1,1-43.421-43.421,43.421,43.421,0,0,1,43.421,43.421" transform="translate(22.084 123.38)" fill="#091c30"/>
          <path id="Trazado_728339" data-name="Trazado 728339" d="M119.864,273.818a37.024,37.024,0,1,1-37.024-37.024,37.023,37.023,0,0,1,37.024,37.024" transform="translate(24.302 125.597)" fill="#fff"/>
          <text id="Entidad_Territorial" data-name="Entidad Territorial" transform="translate(286.193 11.037)" fill="#091c30" font-size="14" font-family="Roboto-Bold, Roboto" font-weight="700"><tspan x="0" y="0">Entidad</tspan><tspan y="0" letter-spacing="-0.029em"> </tspan><tspan y="0">Terri</tspan><tspan y="0" letter-spacing="-0.015em">t</tspan><tspan y="0">orial</tspan></text>
          <text id="Entidades_de_otros_sectores" data-name="Entidades de otros sectores" transform="translate(247.659 632.118)" fill="#091c30" font-size="15" font-family="Roboto-Bold, Roboto" font-weight="700"><tspan x="0" y="0">Entidades de ot</tspan><tspan y="0" letter-spacing="-0.016em">r</tspan><tspan y="0">os sec</tspan><tspan y="0" letter-spacing="-0.013em">t</tspan><tspan y="0">ores</tspan></text>
          <g id="Grupo_1014739" data-name="Grupo 1014739" transform="translate(324.507 47.239)">
            <g id="Grupo_1014724" data-name="Grupo 1014724" clip-path="url(#clip-path-3)">
              <path id="Trazado_728403" data-name="Trazado 728403" d="M36.957,0h2.876l2.11.015a2.85,2.85,0,0,1,1.648.419,2.17,2.17,0,0,1,.908,1.7c.012.148.008.3.012.446V9.81c-.024.916-.056,1.833,0,2.749q0,3.836,0,7.672c-.057.595-.007,1.19-.007,1.785q-.008,5.357,0,10.715c0,.117.007.233.011.35,0,.968.011,1.937-.015,2.9a2.16,2.16,0,0,1-2.268,2.271c-.329.017-.659.007-.988.01L38.1,38.24c-.019-.028-.039-.028-.06,0q-2.931.006-5.863.01c-.477,0-.955-.014-1.432-.022l-.023-.02-.028.012-.459.017c-.036-.025-.051-.006-.059.027,0,1.107-.017,2.214,0,3.321a2.893,2.893,0,0,1-.646,1.993c-.044-.01-.06.009-.055.051l-.328.257a.479.479,0,0,0-.322.12,2.251,2.251,0,0,1-1.08.2c-1.117,0-2.235,0-3.352,0q-10.9,0-21.808.008a3.1,3.1,0,0,1-1.548-.336l-.2-.145L.593,43.5.334,43.15a.023.023,0,0,0-.017-.033l-.05-.081A3.8,3.8,0,0,1,0,41.371Q.012,30.484.013,19.6a2.162,2.162,0,0,1,1.465-1.964c.027.026.045.016.06-.013a1.242,1.242,0,0,1,.445-.094l.094-.011q3.668-.007,7.335-.012a2.1,2.1,0,0,1,1.854.842c-.027.222.064.345.294.352a6,6,0,0,1,.72.889c-.008.151.028.264.213.252l.105.135c0,.109.013.2.157.183.143.171.3.333.426.515a.929.929,0,0,0,.842.4c1.171-.011,2.342-.007,3.513-.014.123,0,.257.031.367-.062.26-.05.24-.254.246-.445,0-1.137.011-2.273.01-3.41q0-3.761-.01-7.522c0-1.076.019-2.152.005-3.227a1.566,1.566,0,0,1,.452-1.152q.636-.673,1.269-1.349Q21.4,2.374,22.925.86A.123.123,0,0,0,22.964.75c.163,0,.22-.153.309-.245A1.507,1.507,0,0,1,24.4.029L29.382.013c.117,0,.233-.009.35-.014h4.987l1.6,0h.641M28.4,42.352l.059-.064.079-.195.039-.1c0-.16.007-.319.007-.479q0-5.913,0-11.826c0-.327-.031-.654-.055-.98a.437.437,0,0,0-.364-.426,3.5,3.5,0,0,0-.856-.073H3.008c-.224,0-.449-.008-.671.013a.624.624,0,0,0-.618.383,2.1,2.1,0,0,0-.108.8q-.006,6.041,0,12.082a3.437,3.437,0,0,0,.034.347c0,.009-.012.02-.01.025a.318.318,0,0,0,.029.046c.1.2.011.5.326.577l.051.051a1.438,1.438,0,0,0,.77.059q12.27.01,24.539,0a2.309,2.309,0,0,0,.98-.185c.092.045.047-.039.063-.066l0,0M1.612,26.543l.006.007c.058.12.154.067.241.052.043,0,.085.007.127.007H26.532q.9,0,1.79.009c.137,0,.264,0,.259-.188-.027-1.086.029-2.172-.045-3.257,0-.008.015-.018.013-.023a.3.3,0,0,0-.029-.044c-.137-.4-.459-.447-.821-.447q-6.854,0-13.708.007a2.838,2.838,0,0,1-1.439-.331l-.264-.209c-.784-.843-1.443-1.788-2.18-2.67.162-.43-.273-.363-.44-.508-.14-.123-.147.076-.205.143L5.281,19.08c-.872,0-1.747-.037-2.617.01-.9.049-1.034.17-1.048,1-.036,2.138-.008,4.277-.006,6.416l-.05.023.054.013m18.212-5.486.064-.016.253,0,.067,0c.042,0,.085.011.127.011,2.626.05,5.254-.081,7.878.073a1.591,1.591,0,0,1,1.225.5,2.579,2.579,0,0,0,.249.247,1.546,1.546,0,0,1,.479,1.15c.023,4.451.016,8.9.007,13.353,0,.258.1.286.312.283,2.987-.039,5.975.08,8.962-.06,1.041-.049,2.086.03,3.126-.068l.07-.043.14-.188a1.788,1.788,0,0,0,.1-.827c.025-2.352.008-4.705,0-7.058q0-.48,0-.959c0-.043,0-.085,0-.128,0-.988.012-1.975.011-2.963q0-3.569-.011-7.138,0-3.165,0-6.33v-.7c0-1.191.012-2.381.012-3.572,0-1.4,0-2.807-.009-4.211,0-.524-.222-.721-.742-.722-.829,0-1.659-.005-2.488,0q-1.866,0-3.731.009l-5.5,0c-.137,0-.274-.012-.412-.012l-3.937-.009c-.02-.029-.041-.029-.061,0l-.956.039-.023.014.006.026-.024.126c0,.008-.008.016-.007.024a.319.319,0,0,0,.014.044q0,.606,0,1.212c-.013.892-.008,1.785-.044,2.676-.025.615-.135.941-.826,1.046l-.063,0H22.188c-.787-.014-1.574-.032-2.361.012-.058.011-.074.047-.061.1q0,4.4,0,8.8,0,2.471-.007,4.942c-.008.006-.025.014-.024.017a.284.284,0,0,0,.022.046q.006.094.012.188c-.038.022-.074.053-.038.093s.071.008.094-.03M23.4,5.035a14.538,14.538,0,0,1-.056-1.685c-.007-.1.064-.249-.033-.279s-.2.089-.277.173c-.534.545-1.072,1.086-1.607,1.63-.112.114-.279.186-.326.4.716,0,1.405,0,2.094,0,.144,0,.182-.076.207-.187a.111.111,0,0,0,0-.052" transform="translate(0 0.001)" fill="#12263f"/>
              <path id="Trazado_728404" data-name="Trazado 728404" d="M132.674,86.566a.921.921,0,0,1-.268.755c-.233.248-.449.514-.7.74a3.026,3.026,0,0,0-.9,1.739,1.967,1.967,0,0,1-.407.925,1.773,1.773,0,0,0-.4,1.762,3,3,0,0,1,.063.728,2.87,2.87,0,0,0,.165.819,2.6,2.6,0,0,1,.1,1.289.7.7,0,0,1-.862.386,5,5,0,0,1-1.1-.626,1.01,1.01,0,0,0-1.317,0,4.441,4.441,0,0,1-.995.568.668.668,0,0,1-.764-.116.729.729,0,0,1-.251-.854,12.4,12.4,0,0,0,.417-2.346c.009-.052-.013-.111,0-.159a1,1,0,0,0-.182-1.042,3.613,3.613,0,0,1-.691-1.587,3.5,3.5,0,0,0-1.025-1.693A4.629,4.629,0,0,1,122.8,87a.787.787,0,0,1,.135-.862,6.4,6.4,0,0,0,1.411-1.621,8.523,8.523,0,0,0,.4-1.272c.241-.864.265-.885,1.276-.9a6.488,6.488,0,0,0,1.955.329,2.639,2.639,0,0,0,.686-.132,3.516,3.516,0,0,1,1.089-.19c.54-.033.753.172.876.7.1.411.243.81.373,1.213a4.68,4.68,0,0,0,1.2,1.587,2.524,2.524,0,0,1,.468.715m-3.369-2.6c-.426.176-.9.188-1.346.324a.8.8,0,0,1-.5.014c-.413-.149-.851-.175-1.269-.293-.129-.036-.159-.009-.17.123a3.453,3.453,0,0,1-1.193,2.287c-.24.224-.213.338,0,.545a4.451,4.451,0,0,1,1.137,1.785c.069.207-.055.494.16.612s.45-.083.686-.054a.261.261,0,0,0,.092-.02,3.536,3.536,0,0,1,2.215.147c.152.058.215.06.247-.132a3.884,3.884,0,0,1,1.307-2.346c.208-.181.2-.294,0-.484a4.35,4.35,0,0,1-1.362-2.508m-.769,9.345c.087-.176,0-.318-.018-.46-.08-.6-.024-1.2-.12-1.8-.028-.172-.062-.278-.263-.27-.3.011-.595.012-.891,0-.181-.007-.264.088-.257.239.032.679-.077,1.352-.072,2.029,0,.16.086.2.195.153a1.528,1.528,0,0,1,1.426.11" transform="translate(-91.24 -61.22)" fill="#12263f"/>
              <path id="Trazado_728405" data-name="Trazado 728405" d="M88.409,34.464l6.457,0h6.2l3.507.011a.668.668,0,0,1,.714.711.779.779,0,0,1-.71.815c-.7.01-1.4.005-2.1.007H96.4c-.413-.005-.827-.015-1.24-.014q-2.417,0-4.834.013c-.584-.009-1.169-.04-1.753-.021a.821.821,0,0,1-.83-.558.742.742,0,0,1,.227-.8l.222-.143.216-.017" transform="translate(-65.198 -25.62)" fill="#12263f"/>
              <path id="Trazado_728406" data-name="Trazado 728406" d="M101.484,68.353l3.066.011a.7.7,0,0,1,.77.7.786.786,0,0,1-.771.831c-1.32.007-2.641,0-3.961,0-.128,0-.255.007-.383.01-1.225,0-2.45-.009-3.675-.01q-3.9,0-7.8,0a.92.92,0,0,1-.94-.551.712.712,0,0,1,.4-.922,1.643,1.643,0,0,1,.535-.063l3.931-.011h8.823" transform="translate(-65.23 -50.818)" fill="#12263f"/>
              <path id="Trazado_728407" data-name="Trazado 728407" d="M102.777,51.389a15.88,15.88,0,0,0,1.594,0,.813.813,0,0,1,.954,1.03,1.085,1.085,0,0,1-1.039.512c-1.44-.024-2.881,0-4.322,0-.466-.005-.933-.015-1.4-.015q-2.689,0-5.378.012-1.959-.008-3.919-.017c-.244,0-.49-.031-.732-.011a.779.779,0,0,1-.639-1.211.809.809,0,0,1,.728-.29c.914-.005,1.828,0,2.741,0,.117,0,.233-.006.35-.01h11.06" transform="translate(-65.246 -38.201)" fill="#12263f"/>
              <path id="Trazado_728408" data-name="Trazado 728408" d="M114.48,17.515h5.626l1.5.011a.68.68,0,0,1,.726.49.719.719,0,0,1-.284.841,2.309,2.309,0,0,1-.276.154.74.74,0,0,1-.37.043l-4.36,0q-2.721-.012-5.442-.025a1.807,1.807,0,0,1-.349-.031c-.474-.1-.658-.376-.6-.891.045-.395.274-.58.732-.583,1.033-.006,2.067-.008,3.1-.012" transform="translate(-82.254 -13.022)" fill="#12263f"/>
            </g>
          </g>
        </g>
      </g>
      <text id="EPS" transform="translate(618.13 359.66)" fill="#091c30" font-size="13" font-family="Roboto-Bold, Roboto" font-weight="700"><tspan x="0" y="0">EPS</tspan></text>
      <g id="Grupo_1014717" data-name="Grupo 1014717">
        <g id="Grupo_1014716" data-name="Grupo 1014716" clip-path="url(#clip-path)">
          <text id="IPS_-_RED" data-name="IPS - RED" transform="translate(0 361.66)" fill="#091c30" font-size="15" font-family="Roboto-Bold, Roboto" font-weight="700"><tspan x="0" y="0">IPS - RED</tspan></text>
          <path id="Trazado_728340" data-name="Trazado 728340" d="M430.512,313.8A150.828,150.828,0,1,1,279.685,162.968,150.827,150.827,0,0,1,430.512,313.8M279.685,204.972A108.826,108.826,0,1,0,388.51,313.8,108.826,108.826,0,0,0,279.685,204.972" transform="translate(68.347 86.439)" fill="#fff"/>
          <path id="Trazado_728341" data-name="Trazado 728341" d="M377.817,313.837A150.827,150.827,0,0,0,226.989,163.009l-.4,42v.014c.135,0,.266-.011.4-.011a108.809,108.809,0,0,1,76.324,186.374l28.075,31.249a150.35,150.35,0,0,0,46.428-108.8" transform="translate(120.184 86.461)" fill="#c0f2ef"/>
          <path id="Trazado_728342" data-name="Trazado 728342" d="M294,210.552a3.846,3.846,0,0,1-2.912.9,4.542,4.542,0,0,1-2.816-1.6,4.1,4.1,0,0,1-1.171-3.376,5.8,5.8,0,0,1,2.055-3.483l.49-.445a6.5,6.5,0,0,1,2.412-1.448,4.15,4.15,0,0,1,2.418-.064,4.931,4.931,0,0,1,3.365,4.253,4.124,4.124,0,0,1-1.2,2.882l-1.5-1.654a2.277,2.277,0,0,0,.733-1.46,2.16,2.16,0,0,0-.679-1.452,1.894,1.894,0,0,0-1.72-.7,4.487,4.487,0,0,0-2.224,1.249l-.608.552a4.78,4.78,0,0,0-1.544,2.124,1.862,1.862,0,0,0,.53,1.792,2.211,2.211,0,0,0,1.391.826,2.131,2.131,0,0,0,1.477-.552Z" transform="translate(152.261 106.55)" fill="#091c30"/>
          <path id="Trazado_728343" data-name="Trazado 728343" d="M293.638,214.4a2.7,2.7,0,0,1-2.127-1.136,2.548,2.548,0,0,1-.634-2.019,3.173,3.173,0,0,1,1.286-1.9l4.158-3.264,1.331,1.7-4.1,3.223a1.066,1.066,0,0,0-.28,1.682,1.548,1.548,0,0,0,1.526.715l4.5-3.532,1.335,1.7-6.347,4.985-1.252-1.595Z" transform="translate(154.268 109.307)" fill="#091c30"/>
          <path id="Trazado_728344" data-name="Trazado 728344" d="M294.952,217.713,293.7,215.95l6.585-4.666,1.252,1.766Zm6.966-7.739a1.072,1.072,0,0,1,.839-.2,1.4,1.4,0,0,1,1.021,1.44,1.045,1.045,0,0,1-.461.727,1.06,1.06,0,0,1-.851.2,1.223,1.223,0,0,1-.761-.534,1.238,1.238,0,0,1-.254-.9,1.06,1.06,0,0,1,.467-.736" transform="translate(155.782 111.257)" fill="#091c30"/>
          <path id="Trazado_728345" data-name="Trazado 728345" d="M298.1,214.505a4.865,4.865,0,0,1,2.99-.9,2.75,2.75,0,0,1,2.185,1.353,2.462,2.462,0,0,1,.3,2.114l3.474-2.211,1.162,1.824-9.66,6.157L297.5,221.2l.667-.549a2.54,2.54,0,0,1-1.965-1.207,2.741,2.741,0,0,1-.28-2.53,5.022,5.022,0,0,1,2.17-2.4m1.022,1.905a3.2,3.2,0,0,0-1.256,1.267,1.29,1.29,0,0,0,.109,1.295,1.44,1.44,0,0,0,1.469.735l2.69-1.714a1.42,1.42,0,0,0-.04-1.628q-.836-1.318-2.972.046" transform="translate(156.862 113.291)" fill="#091c30"/>
          <path id="Trazado_728346" data-name="Trazado 728346" d="M300.1,225.646a2.352,2.352,0,0,1,.53-.536,2.614,2.614,0,0,1-1.746-1.365,2.877,2.877,0,0,1-.343-2.054,2.206,2.206,0,0,1,1.142-1.517,2.278,2.278,0,0,1,2.182-.112,4.667,4.667,0,0,1,1.93,2.075l.478.868.407-.222a1.3,1.3,0,0,0,.644-.683,1.111,1.111,0,0,0-.141-.953,1.3,1.3,0,0,0-.638-.627.889.889,0,0,0-.776.075l-1.038-1.889a2.163,2.163,0,0,1,1.345-.246,2.854,2.854,0,0,1,1.408.623,4.465,4.465,0,0,1,1.152,1.393,3.517,3.517,0,0,1,.481,2.435,2.616,2.616,0,0,1-1.423,1.783l-3.065,1.683a3.842,3.842,0,0,0-1.368,1.117l-.113.061Zm.455-2.283a1.856,1.856,0,0,0,.612.669,1.38,1.38,0,0,0,.787.248l1.215-.667-.387-.7q-.778-1.421-1.809-.973l-.116.055a.85.85,0,0,0-.444.568,1.1,1.1,0,0,0,.142.805" transform="translate(158.315 115.863)" fill="#091c30"/>
          <path id="Trazado_728347" data-name="Trazado 728347" d="M303.863,223.942a4.862,4.862,0,0,1,3.082-.505,2.738,2.738,0,0,1,1.991,1.624,2.47,2.47,0,0,1,.026,2.138l3.731-1.742.915,1.957-10.378,4.85-.823-1.765.733-.456a2.552,2.552,0,0,1-1.792-1.455,2.741,2.741,0,0,1,.052-2.545,5,5,0,0,1,2.462-2.1m.767,2.022a3.189,3.189,0,0,0-1.41,1.094,1.286,1.286,0,0,0-.063,1.3,1.446,1.446,0,0,0,1.362.921l2.888-1.35a1.421,1.421,0,0,0,.176-1.622q-.661-1.41-2.954-.34" transform="translate(159.685 118.471)" fill="#091c30"/>
          <path id="Trazado_728348" data-name="Trazado 728348" d="M306.3,229.039a4.819,4.819,0,0,1,2.161-.344,3.4,3.4,0,0,1,1.838.718,3.872,3.872,0,0,1,1.207,1.694,3.66,3.66,0,0,1,.034,2.848,4.021,4.021,0,0,1-2.114,2.057l-.51.211a4.224,4.224,0,0,1-3.153.113,4.02,4.02,0,0,1-2.016-5.191,4.272,4.272,0,0,1,2.459-2.071Zm.635,2.065a3.039,3.039,0,0,0-1.484,1.041,1.554,1.554,0,0,0,.885,2.3,3.29,3.29,0,0,0,1.951-.286,2.956,2.956,0,0,0,1.471-1.042,1.432,1.432,0,0,0,.132-1.379,1.411,1.411,0,0,0-1.018-.918,3.388,3.388,0,0,0-1.936.288" transform="translate(160.926 121.293)" fill="#091c30"/>
          <path id="Trazado_728349" data-name="Trazado 728349" d="M170.3,313.837A108.819,108.819,0,0,1,278.723,205.022v-.014l.4-42a150.783,150.783,0,0,0-108.8,255.226l28.931-30.507A108.42,108.42,0,0,1,170.3,313.837" transform="translate(68.048 86.461)" fill="#cdd5f2"/>
          <path id="Trazado_728350" data-name="Trazado 728350" d="M152.852,296.6l1.6,3.583,2.345-.23.97,2.17-11.564.732-.845-1.893,8.263-8.134.969,2.175Zm-.3,3.769-1.108-2.479-3.154,2.9Z" transform="translate(77.099 155.318)" fill="#091c30"/>
          <path id="Trazado_728351" data-name="Trazado 728351" d="M143.939,294.915l1.856-.7-.488-1.29,1.481-.56.484,1.293,3.771-1.423a.949.949,0,0,0,.539-.387.866.866,0,0,0-.051-.681,3.433,3.433,0,0,0-.272-.575l1.529-.575a4.373,4.373,0,0,1,.641,1.152,2.056,2.056,0,0,1-1.325,2.971l-4.068,1.535.415,1.1-1.48.557-.415-1.1-1.856.7Z" transform="translate(76.346 153.826)" fill="#091c30"/>
          <path id="Trazado_728352" data-name="Trazado 728352" d="M151.682,287.928a3.949,3.949,0,0,1-.164,3.084,3.863,3.863,0,0,1-2.424,1.944l-.2.063a4.878,4.878,0,0,1-2.215.211,3.447,3.447,0,0,1-1.81-.819,3.725,3.725,0,0,1-1.091-1.716,3.341,3.341,0,0,1,.205-2.8,4.23,4.23,0,0,1,2.531-1.8l.84-.268,1.556,4.9a2,2,0,0,0,1.018-.986,1.9,1.9,0,0,0,.05-1.413,2.32,2.32,0,0,0-1.451-1.581l.81-1.368a3.248,3.248,0,0,1,1.417.924,4.331,4.331,0,0,1,.924,1.633m-6.244,2.245a1.354,1.354,0,0,0,.728.862,2.273,2.273,0,0,0,1.344.107l-.912-2.856-.164.052a1.624,1.624,0,0,0-.943.709,1.381,1.381,0,0,0-.054,1.126" transform="translate(76.151 151.363)" fill="#091c30"/>
          <path id="Trazado_728353" data-name="Trazado 728353" d="M142.8,286.7l.888-.289a2.816,2.816,0,0,1-1.607-1.991,2.33,2.33,0,0,1,.272-2.034,3.5,3.5,0,0,1,2.032-1.166l5.058-1.253.52,2.091-5.012,1.244a1.4,1.4,0,0,0-.894.53,1.328,1.328,0,0,0-.061,1.036,1.482,1.482,0,0,0,1.08,1.139l5.523-1.37.519,2.092-7.833,1.942Z" transform="translate(75.304 148.497)" fill="#091c30"/>
          <path id="Trazado_728354" data-name="Trazado 728354" d="M147.537,278.138a1.42,1.42,0,0,0-.5-.9,1.153,1.153,0,0,0-.929-.225l-.358-1.988a2.757,2.757,0,0,1,1.559.171,2.961,2.961,0,0,1,1.256,1,3.822,3.822,0,0,1,.672,1.592,3.518,3.518,0,0,1-.6,2.883,4.337,4.337,0,0,1-2.811,1.523l-.139.024a4.28,4.28,0,0,1-3.105-.447,3.463,3.463,0,0,1-1.576-2.481,3.393,3.393,0,0,1,.416-2.542,3.047,3.047,0,0,1,2.092-1.321l.358,1.99a1.483,1.483,0,0,0-.938.563,1.442,1.442,0,0,0,.533,2.06,3.17,3.17,0,0,0,1.82.06l.219-.037a3.261,3.261,0,0,0,1.7-.693,1.314,1.314,0,0,0,.332-1.235" transform="translate(74.751 145.854)" fill="#091c30"/>
          <path id="Trazado_728355" data-name="Trazado 728355" d="M139.666,276.117a1.059,1.059,0,0,1-.831-.216,1.4,1.4,0,0,1-.236-1.749,1.139,1.139,0,0,1,1.592-.208,1.382,1.382,0,0,1,.233,1.737,1.071,1.071,0,0,1-.758.436m9.77-3.607.283,2.143-8,1.062-.288-2.144Z" transform="translate(73.403 144.541)" fill="#091c30"/>
          <path id="Trazado_728356" data-name="Trazado 728356" d="M137.85,270.911l-.2-2.338,2.475,1.864.145,1.748Zm7.67,3.616a4.8,4.8,0,0,1-2.17-.285,3.4,3.4,0,0,1-1.561-1.206,3.889,3.889,0,0,1-.68-1.968,3.685,3.685,0,0,1,.774-2.742,4.033,4.033,0,0,1,2.611-1.371l.548-.058a4.214,4.214,0,0,1,3.056.785,4.014,4.014,0,0,1,.464,5.548,4.286,4.286,0,0,1-2.946,1.289Zm-.026-2.162a3,3,0,0,0,1.717-.578,1.415,1.415,0,0,0,.505-1.283,1.431,1.431,0,0,0-.7-1.169,3.3,3.3,0,0,0-1.954-.277,2.966,2.966,0,0,0-1.7.582,1.422,1.422,0,0,0-.514,1.286,1.4,1.4,0,0,0,.715,1.168,3.33,3.33,0,0,0,1.936.272" transform="translate(73.013 141.552)" fill="#091c30"/>
          <path id="Trazado_728357" data-name="Trazado 728357" d="M139.8,266.479l.932-.084a2.818,2.818,0,0,1-1.12-2.3,2.339,2.339,0,0,1,.721-1.921,3.517,3.517,0,0,1,2.242-.678l5.213-.087.037,2.156-5.161.084a1.413,1.413,0,0,0-.992.315,1.343,1.343,0,0,0-.292.995,1.487,1.487,0,0,0,.8,1.354l5.689-.093.038,2.155-8.068.133Z" transform="translate(74.05 138.653)" fill="#091c30"/>
          <path id="Trazado_728358" data-name="Trazado 728358" d="M145.177,258.462l3.815.321-.188,2.228-10.822-.908.357-4.221a4.86,4.86,0,0,1,.626-2.107,3.272,3.272,0,0,1,1.385-1.316,3.538,3.538,0,0,1,1.911-.341,3.109,3.109,0,0,1,2.416,1.3,4.549,4.549,0,0,1,.663,3.091Zm-1.8-.151.168-1.991a1.969,1.969,0,0,0-.3-1.383,1.515,1.515,0,0,0-1.151-.563,1.8,1.8,0,0,0-1.324.358,1.756,1.756,0,0,0-.615,1.25l-.171,2.045Z" transform="translate(73.187 133.717)" fill="#091c30"/>
          <path id="Trazado_728359" data-name="Trazado 728359" d="M143.076,248.328a5.86,5.86,0,0,0-.168.759,1.578,1.578,0,0,0,.589,1.7l5.228.754-.309,2.132-7.987-1.149.291-2.014.963.077a1.99,1.99,0,0,1-.843-1.936,2.244,2.244,0,0,1,.19-.652Z" transform="translate(74.484 131.542)" fill="#091c30"/>
          <path id="Trazado_728360" data-name="Trazado 728360" d="M139.967,247.834a1.059,1.059,0,0,1-.728-.464,1.4,1.4,0,0,1,.317-1.732,1.043,1.043,0,0,1,.845-.179,1.057,1.057,0,0,1,.733.47,1.384,1.384,0,0,1-.315,1.723,1.047,1.047,0,0,1-.851.182m10.4-.433-.384,2.127-7.941-1.445.389-2.126Z" transform="translate(73.759 130.181)" fill="#091c30"/>
          <path id="Trazado_728361" data-name="Trazado 728361" d="M141.952,246.133l.891.155a2.837,2.837,0,0,1-.455-2.505,2.157,2.157,0,0,1,1.716-1.777,2.762,2.762,0,0,1-.6-2.649,2.409,2.409,0,0,1,1.215-1.711,3.535,3.535,0,0,1,2.389-.06l5,1.256-.528,2.1-4.989-1.255a1.537,1.537,0,0,0-1.039.015,1.2,1.2,0,0,0-.539.843,1.344,1.344,0,0,0,.571,1.526l5.376,1.345-.528,2.087-4.983-1.25a1.514,1.514,0,0,0-1.053.02,1.207,1.207,0,0,0-.531.836,1.394,1.394,0,0,0,.413,1.471l5.534,1.393-.528,2.091-7.823-1.97Z" transform="translate(75.03 125.925)" fill="#091c30"/>
          <path id="Trazado_728362" data-name="Trazado 728362" d="M152.669,235.861a2.374,2.374,0,0,1-.754-.026,2.6,2.6,0,0,1,.17,2.207,2.859,2.859,0,0,1-1.286,1.638,2.2,2.2,0,0,1-1.885.181,2.288,2.288,0,0,1-1.559-1.536,4.687,4.687,0,0,1,.231-2.824l.321-.94-.441-.148a1.332,1.332,0,0,0-.938-.017,1.121,1.121,0,0,0-.609.75,1.278,1.278,0,0,0-.031.891.892.892,0,0,0,.578.525l-.695,2.04a2.191,2.191,0,0,1-1.09-.826,2.873,2.873,0,0,1-.49-1.462,4.524,4.524,0,0,1,.249-1.791,3.536,3.536,0,0,1,1.472-2,2.626,2.626,0,0,1,2.279-.148L151.5,233.5a3.875,3.875,0,0,0,1.749.257l.119.04Zm-1.993,1.2a1.883,1.883,0,0,0,.083-.9,1.43,1.43,0,0,0-.347-.748l-1.315-.448-.259.765q-.523,1.531.5,1.991l.116.049a.871.871,0,0,0,.721-.057,1.111,1.111,0,0,0,.5-.649" transform="translate(76.474 123.154)" fill="#091c30"/>
          <path id="Trazado_728363" data-name="Trazado 728363" d="M149.161,228.558a6.022,6.022,0,0,0-.343.7,1.578,1.578,0,0,0,.171,1.8l4.9,1.967-.8,2-7.487-3.009.759-1.889.914.3a2,2,0,0,1-.363-2.081,2.23,2.23,0,0,1,.34-.585Z" transform="translate(77.226 120.806)" fill="#091c30"/>
          <path id="Trazado_728364" data-name="Trazado 728364" d="M146.01,227.3a1.072,1.072,0,0,1-.6-.62,1.4,1.4,0,0,1,.718-1.613,1.137,1.137,0,0,1,1.463.657,1.225,1.225,0,0,1-.07.927,1.242,1.242,0,0,1-.641.675,1.076,1.076,0,0,1-.874-.026m10.212,2.043-.88,1.974-7.37-3.283.878-1.977Z" transform="translate(77.097 119.335)" fill="#091c30"/>
          <path id="Trazado_728365" data-name="Trazado 728365" d="M157.19,225.659a2.412,2.412,0,0,1-.742-.133,2.618,2.618,0,0,1-.136,2.211,2.861,2.861,0,0,1-1.5,1.446,2.2,2.2,0,0,1-1.893-.081,2.28,2.28,0,0,1-1.333-1.734,4.678,4.678,0,0,1,.617-2.767l.445-.886-.413-.208a1.317,1.317,0,0,0-.927-.145,1.135,1.135,0,0,0-.709.66,1.284,1.284,0,0,0-.152.878.884.884,0,0,0,.5.6l-.969,1.925a2.166,2.166,0,0,1-.966-.969,2.846,2.846,0,0,1-.285-1.512,4.462,4.462,0,0,1,.493-1.74,3.514,3.514,0,0,1,1.734-1.777,2.619,2.619,0,0,1,2.277.162l3.124,1.572a3.851,3.851,0,0,0,1.7.5l.113.057Zm-2.141.917a1.84,1.84,0,0,0,.207-.88,1.41,1.41,0,0,0-.24-.791l-1.241-.621-.363.719c-.484.961-.41,1.644.228,2.042l.109.061a.85.85,0,0,0,.719.046,1.09,1.09,0,0,0,.582-.575" transform="translate(78.884 117.345)" fill="#091c30"/>
          <rect id="Rectángulo_351104" data-name="Rectángulo 351104" width="4.199" height="1.736" transform="translate(234.803 333.894) rotate(-58.471)" fill="#091c30"/>
          <path id="Trazado_728366" data-name="Trazado 728366" d="M163.576,212.534a1.144,1.144,0,0,0-1.045-.222,5.837,5.837,0,0,0-1.537.865,11.143,11.143,0,0,1-1.7,1.035,3,3,0,0,1-3.263-.122,2.619,2.619,0,0,1-.966-1.334,3.265,3.265,0,0,1-.014-1.786,5.429,5.429,0,0,1,.934-1.905,4.866,4.866,0,0,1,1.576-1.41,3.307,3.307,0,0,1,1.8-.425,3.129,3.129,0,0,1,1.7.637l-1.338,1.8a1.453,1.453,0,0,0-1.207-.317,1.932,1.932,0,0,0-1.122.813,2.085,2.085,0,0,0-.482,1.229,1.093,1.093,0,0,0,.462.911,1.036,1.036,0,0,0,1.028.1,6.016,6.016,0,0,0,1.478-.857,6.749,6.749,0,0,1,2.8-1.382,2.835,2.835,0,0,1,2.221.565,2.612,2.612,0,0,1,1.137,2.175,4.639,4.639,0,0,1-1.071,2.781,5.492,5.492,0,0,1-1.729,1.559,3.623,3.623,0,0,1-1.945.51,3.227,3.227,0,0,1-1.807-.67l1.342-1.8c.96.718,1.867.5,2.721-.65a2.1,2.1,0,0,0,.485-1.194,1.049,1.049,0,0,0-.462-.9" transform="translate(82.181 109.912)" fill="#091c30"/>
          <path id="Trazado_728367" data-name="Trazado 728367" d="M168.27,209.681a2.481,2.481,0,0,1-.69-.308,2.616,2.616,0,0,1-.66,2.114,2.865,2.865,0,0,1-1.8,1.047A2.2,2.2,0,0,1,163.3,212a2.28,2.28,0,0,1-.88-2,4.74,4.74,0,0,1,1.261-2.54l.644-.753-.35-.3a1.338,1.338,0,0,0-.865-.363,1.13,1.13,0,0,0-.846.47,1.284,1.284,0,0,0-.357.817.885.885,0,0,0,.343.7l-1.4,1.641a2.181,2.181,0,0,1-.7-1.174,2.877,2.877,0,0,1,.083-1.537,4.441,4.441,0,0,1,.9-1.57,3.532,3.532,0,0,1,2.106-1.312,2.621,2.621,0,0,1,2.17.705l2.66,2.273a3.823,3.823,0,0,0,1.529.888l.095.083Zm-2.3.378a1.866,1.866,0,0,0,.412-.808,1.41,1.41,0,0,0-.044-.823l-1.056-.9-.523.612q-1.051,1.23-.271,2.035l.093.09a.86.86,0,0,0,.687.216,1.088,1.088,0,0,0,.7-.419" transform="translate(84.905 108.228)" fill="#091c30"/>
          <rect id="Rectángulo_351105" data-name="Rectángulo 351105" width="2.163" height="11.456" transform="matrix(0.686, -0.728, 0.728, 0.686, 247.21, 307.416)" fill="#091c30"/>
          <path id="Trazado_728368" data-name="Trazado 728368" d="M173.549,203.922a2.693,2.693,0,0,1-.92,2.228,2.545,2.545,0,0,1-1.942.836,3.181,3.181,0,0,1-2.019-1.091L165,202.082l1.553-1.492,3.619,3.762a1.067,1.067,0,0,0,1.7.112,1.553,1.553,0,0,0,.557-1.593l-3.964-4.121,1.559-1.5,5.594,5.816-1.462,1.406Z" transform="translate(87.518 104.622)" fill="#091c30"/>
          <path id="Trazado_728369" data-name="Trazado 728369" d="M171.195,202.093a4.857,4.857,0,0,1-1.287-2.843,2.738,2.738,0,0,1,1.05-2.348,2.478,2.478,0,0,1,2.057-.582l-2.652-3.148,1.654-1.394,7.378,8.763-1.488,1.253-.635-.588a2.537,2.537,0,0,1-.935,2.106,2.742,2.742,0,0,1-2.473.612,5.021,5.021,0,0,1-2.669-1.832m1.752-1.266a3.2,3.2,0,0,0,1.425,1.077,1.286,1.286,0,0,0,1.267-.277,1.446,1.446,0,0,0,.536-1.553l-2.057-2.439a1.42,1.42,0,0,0-1.608.251q-1.2,1.006.438,2.941" transform="translate(90.118 101.72)" fill="#091c30"/>
          <path id="Trazado_728370" data-name="Trazado 728370" d="M183.861,192.481l-3.5,2.484,2.565,3.619-1.827,1.295-6.276-8.861,5.77-4.086,1.047,1.478-3.942,2.793,1.619,2.288,3.506-2.482Z" transform="translate(92.724 99.15)" fill="#091c30"/>
          <path id="Trazado_728371" data-name="Trazado 728371" d="M188.272,193.315a2.394,2.394,0,0,1-.56-.507,2.6,2.6,0,0,1-1.29,1.8,2.851,2.851,0,0,1-2.035.432,2.2,2.2,0,0,1-1.563-1.076,2.279,2.279,0,0,1-.207-2.176,4.677,4.677,0,0,1,1.988-2.017l.851-.514-.24-.395a1.319,1.319,0,0,0-.709-.617,1.126,1.126,0,0,0-.949.182,1.286,1.286,0,0,0-.6.666.9.9,0,0,0,.106.774l-1.844,1.116a2.192,2.192,0,0,1-.3-1.334,2.866,2.866,0,0,1,.562-1.434A4.458,4.458,0,0,1,182.827,187a3.529,3.529,0,0,1,2.413-.586,2.622,2.622,0,0,1,1.84,1.348l1.812,2.992a3.863,3.863,0,0,0,1.175,1.321l.067.107Zm-2.3-.358a1.859,1.859,0,0,0,.643-.638,1.409,1.409,0,0,0,.217-.8l-.721-1.186-.689.419q-1.382.836-.892,1.847l.058.112a.857.857,0,0,0,.588.422,1.1,1.1,0,0,0,.8-.178" transform="translate(95.958 98.858)" fill="#091c30"/>
          <path id="Trazado_728372" data-name="Trazado 728372" d="M186.984,185.715l.464.777a2.829,2.829,0,0,1,1.607-1.976,2.154,2.154,0,0,1,2.464.145,2.766,2.766,0,0,1,1.619-2.182,2.4,2.4,0,0,1,2.087-.188,3.524,3.524,0,0,1,1.6,1.774l2.3,4.611-1.933.966-2.3-4.6a1.537,1.537,0,0,0-.686-.779,1.193,1.193,0,0,0-.987.139,1.344,1.344,0,0,0-.791,1.426l2.479,4.955-1.928.963-2.293-4.6a1.535,1.535,0,0,0-.7-.785,1.213,1.213,0,0,0-.983.139,1.4,1.4,0,0,0-.848,1.275l2.547,5.105-1.93.961-3.6-7.22Z" transform="translate(98.218 96.603)" fill="#091c30"/>
          <path id="Trazado_728373" data-name="Trazado 728373" d="M192.69,180.528a1.066,1.066,0,0,1-.009-.86,1.4,1.4,0,0,1,1.63-.68,1.057,1.057,0,0,1,.612.609,1.072,1.072,0,0,1,0,.871,1.386,1.386,0,0,1-1.618.676,1.067,1.067,0,0,1-.618-.617m6.028,8.492-2,.834-3.108-7.447,2-.834Z" transform="translate(102.153 94.899)" fill="#091c30"/>
          <rect id="Rectángulo_351106" data-name="Rectángulo 351106" width="2.164" height="11.456" transform="translate(298.487 272.538) rotate(-20.846)" fill="#091c30"/>
          <path id="Trazado_728374" data-name="Trazado 728374" d="M197.877,178.469a1.067,1.067,0,0,1,.047-.86,1.392,1.392,0,0,1,1.665-.577,1.138,1.138,0,0,1,.522,1.517,1.378,1.378,0,0,1-1.656.572,1.059,1.059,0,0,1-.578-.652m5.482,8.852-2.043.707-2.637-7.628,2.046-.707Z" transform="translate(104.919 93.848)" fill="#091c30"/>
          <path id="Trazado_728375" data-name="Trazado 728375" d="M207.6,185.158a2.415,2.415,0,0,1-.413-.634,2.605,2.605,0,0,1-1.706,1.41,2.872,2.872,0,0,1-2.08-.106,2.209,2.209,0,0,1-1.234-1.443,2.282,2.282,0,0,1,.358-2.156,4.7,4.7,0,0,1,2.444-1.437l.952-.279-.13-.444a1.327,1.327,0,0,0-.526-.779,1.121,1.121,0,0,0-.963-.066,1.285,1.285,0,0,0-.748.49.9.9,0,0,0-.1.774l-2.068.6a2.17,2.17,0,0,1,.049-1.367,2.876,2.876,0,0,1,.912-1.241,4.456,4.456,0,0,1,1.61-.826,3.525,3.525,0,0,1,2.482.055,2.621,2.621,0,0,1,1.432,1.775l.981,3.359a3.861,3.861,0,0,0,.8,1.576l.035.122Zm-2.133-.938a1.852,1.852,0,0,0,.787-.451,1.374,1.374,0,0,0,.41-.713l-.387-1.333-.776.226q-1.55.455-1.338,1.558l.029.122a.856.856,0,0,0,.458.559,1.1,1.1,0,0,0,.817.032" transform="translate(106.773 94.127)" fill="#091c30"/>
          <path id="Trazado_728376" data-name="Trazado 728376" d="M211.182,178.107a5.918,5.918,0,0,0-.77.121,1.57,1.57,0,0,0-1.368,1.172l1.208,5.139-2.1.5-1.852-7.854,1.982-.468.28.923a2,2,0,0,1,1.5-1.494,2.228,2.228,0,0,1,.675-.06Z" transform="translate(109.425 93.393)" fill="#091c30"/>
          <path id="Trazado_728377" data-name="Trazado 728377" d="M264.558,344.78a108.514,108.514,0,0,1-79.869-34.935l-28.931,30.507a150.683,150.683,0,0,0,213.2,4.4L340.882,313.5a108.454,108.454,0,0,1-76.324,31.277" transform="translate(82.615 164.344)" fill="#ffedb4"/>
          <circle id="Elipse_8454" data-name="Elipse 8454" cx="109.871" cy="109.871" r="109.871" transform="translate(238.16 290.365)" fill="none" stroke="#fff" stroke-miterlimit="10" stroke-width="2"/>
          <path id="Trazado_728378" data-name="Trazado 728378" d="M221.736,184.552l7.924,8.824-8.824,7.923" transform="translate(117.133 97.888)" fill="none" stroke="#fff" stroke-miterlimit="10" stroke-width="2"/>
          <path id="Trazado_728379" data-name="Trazado 728379" d="M304.335,290.341l-10.347,5.8-5.8-10.349" transform="translate(152.859 151.584)" fill="none" stroke="#fff" stroke-miterlimit="10" stroke-width="2"/>
          <path id="Trazado_728380" data-name="Trazado 728380" d="M159.6,302.652l3.485-11.336,11.336,3.485" transform="translate(84.652 154.516)" fill="none" stroke="#fff" stroke-miterlimit="10" stroke-width="2"/>
          <path id="Trazado_728381" data-name="Trazado 728381" d="M256.955,340.6l3.209,10.372-3.194.99a5.071,5.071,0,0,1-2.637.138,4.5,4.5,0,0,1-2.227-1.23,5.664,5.664,0,0,1-1.4-2.4l-.147-.478a5.644,5.644,0,0,1-.2-2.756,4.445,4.445,0,0,1,1.137-2.263,5.131,5.131,0,0,1,2.248-1.385Zm.536,9.3-2.141-6.927-1.033.321a2.423,2.423,0,0,0-1.664,1.411,3.888,3.888,0,0,0,.047,2.553l.17.549a3.945,3.945,0,0,0,1.4,2.195,2.419,2.419,0,0,0,2.17.222Z" transform="translate(132.743 180.654)" fill="#1a1818"/>
          <path id="Trazado_728382" data-name="Trazado 728382" d="M247.15,342.925l2.1-.525,1.959,7.827-2.1.526Zm4.689,9.3a1.055,1.055,0,0,1-.119.852,1.229,1.229,0,0,1-.78.517,1.21,1.21,0,0,1-.929-.09,1.046,1.046,0,0,1-.514-.693,1.059,1.059,0,0,1,.125-.862,1.378,1.378,0,0,1,1.7-.426,1.042,1.042,0,0,1,.516.7" transform="translate(131.09 181.611)" fill="#1a1818"/>
          <path id="Trazado_728383" data-name="Trazado 728383" d="M246.527,343.079l1.342,6.347,1.175-.248.327,1.546-1.177.249.142.672a2.786,2.786,0,0,1-.324,2.222,3.024,3.024,0,0,1-1.98,1.186,5.086,5.086,0,0,1-1.1.08l-.324-1.639a2.714,2.714,0,0,0,.658-.07c.793-.168,1.11-.623.953-1.368l-.136-.634-1.569.331-.326-1.547,1.567-.332-1.342-6.347Z" transform="translate(129.518 181.971)" fill="#1a1818"/>
          <path id="Trazado_728384" data-name="Trazado 728384" d="M241.269,344.017a3.956,3.956,0,0,1,3.024.631,3.875,3.875,0,0,1,1.547,2.7l.034.207a4.865,4.865,0,0,1-.129,2.221,3.435,3.435,0,0,1-1.085,1.662,3.733,3.733,0,0,1-1.862.817,3.355,3.355,0,0,1-2.738-.629,4.235,4.235,0,0,1-1.4-2.779l-.136-.869,5.076-.794a2,2,0,0,0-.819-1.154,1.892,1.892,0,0,0-1.39-.265,2.322,2.322,0,0,0-1.781,1.189l-1.23-1.005a3.226,3.226,0,0,1,1.132-1.261,4.344,4.344,0,0,1,1.752-.664m1.266,6.515a1.345,1.345,0,0,0,.96-.589,2.239,2.239,0,0,0,.315-1.309l-2.963.462.028.17a1.6,1.6,0,0,0,.556,1.041,1.392,1.392,0,0,0,1.1.225" transform="translate(126.44 182.435)" fill="#1a1818"/>
          <path id="Trazado_728385" data-name="Trazado 728385" d="M234.881,350.964a6.2,6.2,0,0,0,.777-.02,1.584,1.584,0,0,0,1.512-.986l-.533-5.254,2.144-.217.814,8.03-2.026.205-.155-.953a2,2,0,0,1-1.679,1.289,2.237,2.237,0,0,1-.675-.029Z" transform="translate(124.582 182.718)" fill="#1a1818"/>
          <path id="Trazado_728386" data-name="Trazado 728386" d="M232.577,344.862a3.951,3.951,0,0,1,2.938.95,3.86,3.86,0,0,1,1.252,2.844l.011.21a4.9,4.9,0,0,1-.367,2.191,3.443,3.443,0,0,1-1.258,1.538,3.728,3.728,0,0,1-1.939.612,3.362,3.362,0,0,1-2.655-.917,4.272,4.272,0,0,1-1.09-2.912l-.04-.88,5.13-.245a1.982,1.982,0,0,0-.689-1.237,1.894,1.894,0,0,0-1.35-.413,2.323,2.323,0,0,0-1.9.993l-1.114-1.134a3.214,3.214,0,0,1,1.261-1.131,4.25,4.25,0,0,1,1.814-.47m.562,6.611a1.355,1.355,0,0,0,1.018-.485,2.251,2.251,0,0,0,.453-1.266l-3,.142.008.171a1.6,1.6,0,0,0,.442,1.093,1.4,1.4,0,0,0,1.076.344" transform="translate(121.691 182.914)" fill="#1a1818"/>
          <path id="Trazado_728387" data-name="Trazado 728387" d="M228.925,353.14l-.05-.934a2.815,2.815,0,0,1-2.338,1.038,2.345,2.345,0,0,1-1.9-.785,3.53,3.53,0,0,1-.6-2.265l.093-5.211,2.155.04-.093,5.159a1.4,1.4,0,0,0,.28,1,1.348,1.348,0,0,0,.987.327,1.486,1.486,0,0,0,1.379-.753l.1-5.689,2.155.04-.144,8.067Z" transform="translate(118.832 182.981)" fill="#1a1818"/>
          <path id="Trazado_728388" data-name="Trazado 728388" d="M222.152,346.393a1.416,1.416,0,0,0-.993.246,1.144,1.144,0,0,0-.458.839l-2.016-.164a2.76,2.76,0,0,1,.568-1.461,2.952,2.952,0,0,1,1.287-.957,3.74,3.74,0,0,1,1.716-.239,3.506,3.506,0,0,1,2.629,1.318,4.344,4.344,0,0,1,.748,3.111l-.011.142a4.3,4.3,0,0,1-1.23,2.885,3.469,3.469,0,0,1-2.805.885,3.4,3.4,0,0,1-2.349-1.056,3.059,3.059,0,0,1-.736-2.361l2.012.164a1.492,1.492,0,0,0,.3,1.053,1.444,1.444,0,0,0,2.127.018,3.192,3.192,0,0,0,.53-1.746l.018-.223a3.178,3.178,0,0,0-.236-1.815,1.309,1.309,0,0,0-1.1-.638" transform="translate(115.889 182.8)" fill="#1a1818"/>
          <path id="Trazado_728389" data-name="Trazado 728389" d="M218.061,354.637a1.06,1.06,0,0,1-.422.748,1.227,1.227,0,0,1-.918.2,1.208,1.208,0,0,1-.833-.424,1.14,1.14,0,0,1,.208-1.59,1.386,1.386,0,0,1,1.739.225,1.06,1.06,0,0,1,.226.842m-.976-10.367,2.146.276-1.028,8-2.146-.275Z" transform="translate(114.384 182.603)" fill="#1a1818"/>
          <path id="Trazado_728390" data-name="Trazado 728390" d="M213.484,343.74a2.447,2.447,0,0,1,.086.751,2.6,2.6,0,0,1,2.158-.505A2.877,2.877,0,0,1,217.542,345a2.211,2.211,0,0,1,.465,1.841,2.28,2.28,0,0,1-1.278,1.772,4.688,4.688,0,0,1-2.828.205l-.976-.174-.08.458a1.324,1.324,0,0,0,.127.93,1.129,1.129,0,0,0,.833.488,1.28,1.28,0,0,0,.886-.109.888.888,0,0,0,.43-.65l2.123.373a2.158,2.158,0,0,1-.654,1.2,2.843,2.843,0,0,1-1.367.709,4.514,4.514,0,0,1-1.806.026,3.536,3.536,0,0,1-2.2-1.152,2.626,2.626,0,0,1-.5-2.227l.609-3.445a3.856,3.856,0,0,0-.012-1.768l.02-.122Zm1.494,1.786a1.867,1.867,0,0,0-.9.058,1.356,1.356,0,0,0-.687.456l-.242,1.367.793.141c1.062.188,1.693-.081,1.89-.8l.031-.124a.868.868,0,0,0-.162-.7,1.115,1.115,0,0,0-.719-.393" transform="translate(111.737 182.121)" fill="#1a1818"/>
          <path id="Trazado_728391" data-name="Trazado 728391" d="M209.42,344.313a1.419,1.419,0,0,0-1.019.092,1.144,1.144,0,0,0-.583.756l-1.964-.474a2.758,2.758,0,0,1,.788-1.356,2.944,2.944,0,0,1,1.419-.745,3.754,3.754,0,0,1,1.732.031,3.5,3.5,0,0,1,2.394,1.711,4.343,4.343,0,0,1,.257,3.188l-.034.138a4.3,4.3,0,0,1-1.665,2.66,3.45,3.45,0,0,1-2.906.439,3.393,3.393,0,0,1-2.158-1.408,3.052,3.052,0,0,1-.363-2.446l1.965.474a1.476,1.476,0,0,0,.136,1.085,1.44,1.44,0,0,0,2.1.349,3.173,3.173,0,0,0,.791-1.641l.054-.219a3.239,3.239,0,0,0,.054-1.832,1.32,1.32,0,0,0-1-.8" transform="translate(108.848 181.663)" fill="#1a1818"/>
          <path id="Trazado_728392" data-name="Trazado 728392" d="M204.374,351.92a1.075,1.075,0,0,1-.536.675,1.4,1.4,0,0,1-1.693-.493,1.048,1.048,0,0,1-.093-.857,1.066,1.066,0,0,1,.545-.681,1.214,1.214,0,0,1,.927-.057,1.235,1.235,0,0,1,.756.546,1.067,1.067,0,0,1,.093.866m.64-10.393,2.077.6-2.257,7.747-2.075-.6Z" transform="translate(107.143 181.148)" fill="#1a1818"/>
          <path id="Trazado_728393" data-name="Trazado 728393" d="M198.848,351.323l-2.221-.765,2.7-1.512,1.657.571Zm6.4-5.563a4.8,4.8,0,0,1-1.134,1.873,3.393,3.393,0,0,1-1.732.94,3.864,3.864,0,0,1-2.075-.171,3.666,3.666,0,0,1-2.195-1.814,4,4,0,0,1-.205-2.941l.167-.526a4.213,4.213,0,0,1,1.95-2.479,4.02,4.02,0,0,1,5.265,1.812,4.29,4.29,0,0,1-.009,3.215Zm-1.988-.846a3.019,3.019,0,0,0,.165-1.8,1.555,1.555,0,0,0-2.325-.81,3.306,3.306,0,0,0-1.042,1.674,2.977,2.977,0,0,0-.155,1.8,1.426,1.426,0,0,0,.967.99,1.412,1.412,0,0,0,1.357-.182,3.373,3.373,0,0,0,1.032-1.664" transform="translate(104.292 180.464)" fill="#1a1818"/>
          <path id="Trazado_728394" data-name="Trazado 728394" d="M195.8,347l.3-.886a2.813,2.813,0,0,1-2.556.1,2.35,2.35,0,0,1-1.469-1.436,3.53,3.53,0,0,1,.283-2.325l2.02-4.805,1.986.836-2,4.756a1.392,1.392,0,0,0-.11,1.033,1.329,1.329,0,0,0,.794.67,1.476,1.476,0,0,0,1.558-.187l2.207-5.242,1.986.833-3.128,7.439Z" transform="translate(101.828 179.092)" fill="#1a1818"/>
          <path id="Trazado_728395" data-name="Trazado 728395" d="M291.984,354.918a90.527,90.527,0,0,0-64.693-153.1l-.764,80.241Z" transform="translate(120.151 107.048)" fill="#e4faf8"/>
          <path id="Trazado_728396" data-name="Trazado 728396" d="M258.679,201.829c-.257,0-.508-.02-.765-.02A90.557,90.557,0,0,0,190.648,353l67.266-70.933Z" transform="translate(88.764 107.041)" fill="#e9edfa"/>
          <path id="Trazado_728397" data-name="Trazado 728397" d="M249.84,254.253l-67.266,70.934A90.512,90.512,0,0,0,315.3,327.108Z" transform="translate(96.838 134.857)" fill="#fff7df"/>
          <text id="Gestión_Integral_de_" data-name="Gestión Integral de " transform="translate(271.678 162.726)" fill="#fff" font-size="16" font-family="Roboto-Bold, Roboto" font-weight="700"><tspan x="0" y="0">Gestión Integ</tspan><tspan y="0" letter-spacing="-0.015em">r</tspan><tspan y="0">al de </tspan></text>
          <text id="Riesgo_de_Salud" data-name="Riesgo de Salud" transform="translate(285.143 180.361)" fill="#fff" font-size="16" font-family="Roboto-Bold, Roboto" font-weight="700"><tspan x="0" y="0">Riesgo de Salud</tspan></text>
        </g>
      </g>
      <g id="Grupo_1014722" data-name="Grupo 1014722">
        <g id="Grupo_1014721" data-name="Grupo 1014721" clip-path="url(#clip-path)">
          <g id="Grupo_1014720" data-name="Grupo 1014720" transform="translate(313.717 367.358)" opacity="0.16">
            <g id="Grupo_1014719" data-name="Grupo 1014719" transform="translate(0 0)">
              <g id="Grupo_1014718" data-name="Grupo 1014718" clip-path="url(#clip-path-6)">
                <path id="Trazado_728399" data-name="Trazado 728399" d="M262.911,265.9a32.057,32.057,0,1,1-32.056-32.057A32.056,32.056,0,0,1,262.911,265.9" transform="translate(-198.798 -233.848)" fill="#091c30"/>
              </g>
            </g>
          </g>
          <g id="Grupo_1014732" data-name="Grupo 1014732" transform="translate(317.595 371.235)">
            <g id="Grupo_1014719-2" data-name="Grupo 1014719">
              <g id="Grupo_1014718-2" data-name="Grupo 1014718" clip-path="url(#clip-path-7)">
                <path id="Trazado_728399-2" data-name="Trazado 728399" d="M255.156,262.027a28.179,28.179,0,1,1-28.179-28.179,28.179,28.179,0,0,1,28.179,28.179" transform="translate(-198.798 -233.848)" fill="#091c30"/>
              </g>
            </g>
          </g>
          <g id="Grupo_1014733" data-name="Grupo 1014733" transform="translate(328.831 383.19)">
            <g id="Grupo_1014730" data-name="Grupo 1014730" clip-path="url(#clip-path-8)">
              <path id="Trazado_728425" data-name="Trazado 728425" d="M34.6,25a5.743,5.743,0,0,1-.355.709,2.059,2.059,0,0,1-1.82.905h-6.2c0,.863.007,1.692,0,2.522a2.024,2.024,0,0,1-1.529,2.017,2.68,2.68,0,0,1-.7.075c-4.434,0-8.869-.015-13.3.013a2.139,2.139,0,0,1-2.295-2.315c.036-.751.007-1.506.007-2.312H2.288A2.065,2.065,0,0,1,.02,24.362c0-2.633.064-5.268-.017-7.9a5.956,5.956,0,0,1,4.823-6.145c-.177-.219-.35-.419-.509-.631a5.819,5.819,0,0,1-1.2-3.235c-.024-.413.148-.665.469-.687.3-.021.516.195.553.588A4.88,4.88,0,0,0,6.95,10.541a4.872,4.872,0,0,0,4.208.094.53.53,0,0,0,.348-.485,5.96,5.96,0,0,1,2.279-4.2.741.741,0,0,0,.3-.786A5.032,5.032,0,0,0,8.8,1.07a4.971,4.971,0,0,0-4,2.506c-.149.249-.25.526-.376.789-.17.355-.431.483-.724.358a.539.539,0,0,1-.24-.745,6.05,6.05,0,0,1,11.57.709c.1.42.1.419.505.281a5.994,5.994,0,0,1,4,0c.387.133.387.133.484-.272A6.071,6.071,0,0,1,25.3.033a5.944,5.944,0,0,1,2.688.334c.357.131.531.4.435.685a.536.536,0,0,1-.746.307,5.058,5.058,0,0,0-3.08-.134,5.008,5.008,0,0,0-3.625,4.1.668.668,0,0,0,.214.515,6.307,6.307,0,0,1,2.4,4.335.664.664,0,0,0,.327.445A5,5,0,0,0,30.874,6.78a4.885,4.885,0,0,0-1.386-4.233c-.386-.4-.44-.668-.18-.926s.541-.192.921.2a6.026,6.026,0,0,1,.112,8.355c-.06.065-.117.133-.2.222A6.01,6.01,0,0,1,32.51,11.6a5.734,5.734,0,0,1,2.025,3.623,1.14,1.14,0,0,0,.063.19Zm-26.2.559V25.25c0-1.5-.025-2.994.013-4.489a6.381,6.381,0,0,1,.281-1.818,9.538,9.538,0,0,1,.875-1.733.5.5,0,0,1,.75-.2.52.52,0,0,1,.112.771c-.075.125-.159.245-.238.368a4.171,4.171,0,0,0-.718,2.248q-.026,4.371-.02,8.743A.988.988,0,0,0,10.537,30.2q6.77.005,13.54,0a.99.99,0,0,0,1.086-1.064c0-2.881.028-5.762-.017-8.642a4.671,4.671,0,0,0-3.587-4.44,1.755,1.755,0,0,0-1.281,0,6,6,0,0,1-5.512,0,1.847,1.847,0,0,0-.811-.13A4.587,4.587,0,0,0,11.9,16.5a.533.533,0,0,1-.783-.186.542.542,0,0,1,.329-.74c.375-.177.764-.322,1.145-.486.328-.141.416-.36.211-.636a6.858,6.858,0,0,1-1.16-2.376.4.4,0,0,0-.546-.3c-.1.022-.194.057-.291.085a5.627,5.627,0,0,1-4.138-.314A2.625,2.625,0,0,0,4.809,11.4a4.76,4.76,0,0,0-3.756,4.8c-.013,2.734-.005,5.469,0,8.2a1.013,1.013,0,0,0,1.157,1.16c1.463,0,2.926,0,4.389,0H8.4M21.834,15.032a.184.184,0,0,0,.061.035,5.858,5.858,0,0,1,4.328,5.851c-.028,1.417,0,2.835,0,4.253v.373c.127.008.215.017.3.017q2.954,0,5.908,0a1.007,1.007,0,0,0,1.136-1.147c0-2.745.015-5.49,0-8.235a4.782,4.782,0,0,0-3.775-4.788,1.925,1.925,0,0,0-1.357.143,5.66,5.66,0,0,1-3.874.4c-.343-.081-.678-.2-.974-.286a16.011,16.011,0,0,1-.679,1.771,16.861,16.861,0,0,1-1.068,1.609m.7-4.334a5,5,0,1,0-4.87,4.988,4.986,4.986,0,0,0,4.87-4.988" transform="translate(0 0)" fill="#fff"/>
            </g>
          </g>
        </g>
      </g>
      <text id="Dispersas" transform="translate(284.956 343.498)" fill="#1a1818" font-size="9" font-family="Roboto-Bold, Roboto" font-weight="700"><tspan x="0" y="0">Dispersas</tspan></text>
      <text id="Rurales" transform="translate(362.443 345.592)" fill="#1a1818" font-size="9" font-family="Roboto-Bold, Roboto" font-weight="700"><tspan x="0" y="0">Ru</tspan><tspan y="0" letter-spacing="-0.014em">r</tspan><tspan y="0">ales</tspan></text>
      <text id="Urbanas" transform="translate(331.516 477.133)" fill="#1a1818" font-size="9" font-family="Roboto-Bold, Roboto" font-weight="700"><tspan x="0" y="0">Urbanas</tspan></text>
      <g id="Grupo_1014735" data-name="Grupo 1014735" transform="translate(264.34 363.078)">
        <g id="Grupo_1014734" data-name="Grupo 1014734" clip-path="url(#clip-path-9)">
          <path id="Trazado_728426" data-name="Trazado 728426" d="M296.453,7.461c-.391.529-.661.571-1.2.187-.24-.171-.478-.344-.768-.553v7.662c.243,0,.491-.007.738,0,.483.016.788.271.788.65s-.3.638-.789.647q-1.164.019-2.328,0c-.506-.008-.788-.244-.8-.631s.27-.631.765-.668l.3-.02V14.32c0-2.581,0-5.163.006-7.744a.76.76,0,0,0-.346-.7C290.807,4.423,288.8,2.959,286.8,1.5c-.091-.066-.186-.126-.3-.2l-5.03,3.654c-.456.331-.922.651-1.362,1a.668.668,0,0,0-.243.445c-.013,2.736-.008,5.473-.005,8.21a.6.6,0,0,0,.028.111h3.951v-.452q0-2.666,0-5.332c0-.808.341-1.175,1.14-1.186q1.523-.022,3.047,0c.8.01,1.149.37,1.151,1.175,0,1.777,0,3.555,0,5.332,0,.152,0,.3,0,.467.224.021.407.023.584.057a.6.6,0,0,1,.541.649.58.58,0,0,1-.549.595,3.67,3.67,0,0,1-.463.03q-5.629,0-11.258,0a2.941,2.941,0,0,1-.38-.013.673.673,0,0,1-.647-.654.682.682,0,0,1,.68-.628c.278-.02.558,0,.864,0V7.094c-.308.219-.575.411-.845.6-.4.28-.772.258-1.011-.056s-.156-.68.247-.974Q281.3,3.49,285.667.323a1.269,1.269,0,0,1,1.71.015c.593.421,1.179.852,1.813,1.31.023-.14.037-.219.049-.3a1.081,1.081,0,0,1,1.119-.989c.508-.009,1.016-.009,1.524,0a1.111,1.111,0,0,1,1.166,1.175q.019,1.29,0,2.581a.589.589,0,0,0,.286.554c.864.61,1.717,1.235,2.566,1.864a7.31,7.31,0,0,1,.556.5ZM287.88,9.086h-2.746V14.74h2.746Zm2.668-7.42a1.45,1.45,0,0,0,1.169,1.725V1.666Z" transform="translate(-253.105 0.001)" fill="#12263f"/>
          <path id="Trazado_728427" data-name="Trazado 728427" d="M37.842,113.591c.575,0,1.108-.015,1.639,0,.5.018.822.4.652.8a1.084,1.084,0,0,1-.49.446,1.135,1.135,0,0,1-.5.038q-12.887,0-25.774,0c-.141,0-.282,0-.423-.011a.618.618,0,0,1-.628-.617.635.635,0,0,1,.642-.653c.478-.025.959-.008,1.439-.011.068,0,.136-.01.229-.017V101.109l-1.523,1.1a5.724,5.724,0,0,1-.485.339.6.6,0,0,1-.831-.15.614.614,0,0,1,.1-.872c.324-.271.676-.507,1.018-.756a20.9,20.9,0,0,0,1.705-1.339H1.58c-.127,0-.255.007-.381,0A.667.667,0,0,1,.524,98.8a.648.648,0,0,1,.689-.644c.363-.014.728,0,1.121,0V88.8c-.378.272-.716.514-1.053.758-.526.381-.88.4-1.148.051s-.136-.7.379-1.08L10.055,81.6c.239-.174.477-.351.721-.518a1.258,1.258,0,0,1,1.569.005c.7.5,1.393,1.009,2.089,1.514.111.08.225.155.354.244a.812.812,0,0,0,.046-.147c.079-1.166.375-1.445,1.537-1.445.508,0,1.016,0,1.524,0a1.12,1.12,0,0,1,1.219,1.205c.01,1.058.012,2.116,0,3.174a.632.632,0,0,0,.3.593c1.068.76,2.125,1.536,3.185,2.308a2.407,2.407,0,0,1,.327.266.625.625,0,0,1-.755.983c-.347-.215-.669-.468-1-.7-.112-.079-.228-.152-.383-.256v6.2c.147-.1.264-.165.373-.244q2.054-1.49,4.106-2.983a1.388,1.388,0,0,1,1.988.006l3.4,2.472c0-.422,0-.763,0-1.1a1.068,1.068,0,0,1,1.142-1.17q1.4-.007,2.793,0a1.073,1.073,0,0,1,1.137,1.138c.006,1.481.01,2.962-.005,4.443a.667.667,0,0,0,.323.619c1.4,1,2.786,2.017,4.178,3.028.114.083.232.161.34.252a.654.654,0,0,1,.178.9.635.635,0,0,1-.933.135c-.533-.369-1.052-.759-1.577-1.139-.1-.073-.2-.144-.385-.271v.5c0,1.749,0,3.5,0,5.247a.746.746,0,0,1-.36.754.619.619,0,0,1-.906-.549c-.023-.549-.009-1.1-.01-1.65,0-1.608.01-3.216-.012-4.824a.849.849,0,0,0-.272-.6q-4.962-3.64-9.948-7.245a.788.788,0,0,0-.108-.049c-1.239.9-2.492,1.807-3.745,2.717q-3.1,2.25-6.194,4.5a.74.74,0,0,0-.369.655q.015,6.348.009,12.7c0,.1.008.192.014.317h6.593v-.512q0-4.253,0-8.506c0-1.048.408-1.457,1.451-1.457,1.51,0,3.021.041,4.528-.014a1.316,1.316,0,0,1,1.456,1.479c-.035,2.821-.013,5.642-.013,8.463v.541h6.61c0-.213,0-.433,0-.653,0-.889,0-1.777,0-2.666,0-.495.239-.789.622-.8.4-.007.646.3.647.819,0,.959,0,1.918,0,2.878v.455M14.584,98.154c.546,0,1.038.023,1.526-.01a1.444,1.444,0,0,0,.692-.222c.8-.55,1.575-1.141,2.372-1.7a.67.67,0,0,0,.311-.628q-.016-3.639,0-7.279a.794.794,0,0,0-.367-.738c-1.754-1.255-3.494-2.53-5.239-3.8L11.564,82.1c-.116.08-.211.143-.3.209q-3.626,2.637-7.255,5.268a.8.8,0,0,0-.375.733c.012,3.131.007,6.263.008,9.395,0,.137.013.273.02.421H8.532V96.96c0-1.933,0-3.865,0-5.8,0-.757.294-1.188.945-1.207,1.394-.04,2.791-.033,4.185,0a.912.912,0,0,1,.909.974c.023.436.016.874.009,1.311-.008.508-.237.772-.642.767s-.628-.287-.636-.785c-.005-.331,0-.662,0-.986H9.852v6.89H13.3c0-.766,0-1.51,0-2.254,0-.518.25-.827.647-.827s.629.3.633.83c.005.732,0,1.465,0,2.274m9.282,15.412h4.772v-9.18H23.866Zm8.052-20.283a9.332,9.332,0,0,1-.008,1.107,1.16,1.16,0,0,0,.631,1.27c.643.387,1.227.871,1.88,1.345V93.283ZM16.125,82.539c.028.469-.106,1.025.113,1.3a8,8,0,0,0,1.535,1.188V82.539Z" transform="translate(0 -73.951)" fill="#12263f"/>
          <path id="Trazado_728428" data-name="Trazado 728428" d="M201.911,347.229c0-.846-.006-1.692,0-2.537a1.117,1.117,0,0,1,1.255-1.244c.606,0,1.212,0,1.819,0a1.085,1.085,0,0,1,1.182,1.143c.02.591.005,1.184.005,1.776,0,1.142,0,2.284,0,3.425,0,.88-.412,1.28-1.3,1.285-.592,0-1.184.007-1.776,0a1.09,1.09,0,0,1-1.185-1.183c-.013-.888,0-1.776,0-2.664m2.924-2.489h-1.591v5.04h1.591Z" transform="translate(-184.781 -314.315)" fill="#12263f"/>
          <path id="Trazado_728429" data-name="Trazado 728429" d="M366.319,347.245c0-.9,0-1.8,0-2.705a1.059,1.059,0,0,1,1.108-1.117c.676-.007,1.353-.008,2.029,0a1.065,1.065,0,0,1,1.088,1.1q.01,2.705,0,5.411a1.055,1.055,0,0,1-1.073,1.112q-1.035.024-2.071,0a1.044,1.044,0,0,1-1.081-1.1c-.007-.9,0-1.8,0-2.705m2.948-2.526h-1.652v5.018h1.652Z" transform="translate(-335.246 -314.288)" fill="#12263f"/>
        </g>
      </g>
    </g>
    <g id="Grupo_1014726" data-name="Grupo 1014726" transform="translate(1019.951 1415.382)" clip-path="url(#clip-path-10)">
      <path id="Trazado_728409" data-name="Trazado 728409" d="M23.3,0h2.092a1.06,1.06,0,0,0,.213.086,8.992,8.992,0,0,1,7.514,6.53c.183.564.26,1.163.394,1.785.7,0,1.395-.007,2.089,0a3.568,3.568,0,0,1,3.674,3.7c0,2.234,0,4.469,0,6.7v.557h.566c1.014,0,2.029-.012,3.042.005a1.441,1.441,0,0,1,1.519,1.382c.019,1.22.015,2.441,0,3.66a1.426,1.426,0,0,1-1.116,1.367,3.334,3.334,0,0,1-.752.072c-1.072.007-2.143,0-3.22,0V28.67c1.19,0,2.346-.009,3.5,0a1.487,1.487,0,0,1,1.6,1.6q0,1.593,0,3.185a1.542,1.542,0,0,1-1.708,1.7c-.824.007-1.648,0-2.472,0h-.915v2.785c1.238,0,2.441-.009,3.644,0a1.454,1.454,0,0,1,1.452,1.45q.015,1.759,0,3.518a1.467,1.467,0,0,1-1.514,1.489c-1.046.007-2.092,0-3.138,0H39.3v2.824h7.967v-.547q0-13.834,0-27.668c0-.127,0-.254,0-.38a2.129,2.129,0,0,0-2.178-2.106c-1.014-.006-2.028,0-3.043,0-.548,0-.864-.287-.862-.736s.3-.706.829-.71c1.062-.01,2.124-.03,3.185.008a3.517,3.517,0,0,1,3.394,2.682,1.183,1.183,0,0,0,.1.2V47.65a1.916,1.916,0,0,1-1.97,1.059q-22.537-.031-45.074-.015A1.478,1.478,0,0,1,0,47.06Q0,32.892,0,18.723a3.614,3.614,0,0,1,.052-.708,3.548,3.548,0,0,1,3.626-2.929c1.7-.016,3.392,0,5.087,0,.182,0,.364-.016.579-.026,0-1,0-1.954,0-2.9a3.676,3.676,0,0,1,.88-2.5A3.6,3.6,0,0,1,13.04,8.4c.723-.006,1.446,0,2.165,0,.042-.224.073-.379.1-.535A8.978,8.978,0,0,1,21.431.484,18.523,18.523,0,0,1,23.3,0M37.853,47.248V46.7q0-17.189,0-34.378c0-.143.005-.286,0-.428a2.077,2.077,0,0,0-1.736-1.984c-.862-.074-1.736-.016-2.644-.016a9.188,9.188,0,0,1-2.734,5.759,8.914,8.914,0,0,1-5.809,2.6A8.793,8.793,0,0,1,19.3,16.737a9.179,9.179,0,0,1-4.085-6.869c-.7,0-1.354.043-2-.009a2.23,2.23,0,0,0-2.418,2.4c.031,11.491.017,22.982.018,34.473,0,.168.014.337.023.516h5.71V43.566c0-.861.21-1.21.723-1.2s.7.353.7,1.225q0,.951,0,1.9v1.751h5.606v-12.5H17.972v.5q0,2.14,0,4.279c0,.627-.263.976-.724.968s-.7-.346-.7-.988q0-.927,0-1.854V34.756c-1.062-.16-1.426-.583-1.426-1.618,0-.46-.005-.919,0-1.379a1.255,1.255,0,0,1,1.3-1.325c.507-.01,1.014,0,1.521,0q7.109,0,14.217,0a1.273,1.273,0,0,1,1.409,1.41c0,.523,0,1.046,0,1.569a1.216,1.216,0,0,1-.793,1.184,3.694,3.694,0,0,1-.609.164V47.248Zm-36.43,0H9.31V44.414c-1.174,0-2.313,0-3.451,0a1.479,1.479,0,0,1-1.573-1.576q-.01-1.688,0-3.375a1.465,1.465,0,0,1,1.491-1.509c.65-.009,1.3,0,1.949,0H9.308V35.166c-1.16,0-2.283.013-3.406,0a1.522,1.522,0,0,1-1.617-1.65q-.007-1.593,0-3.185a1.5,1.5,0,0,1,1.64-1.657c.919-.007,1.838,0,2.757,0h.638V25.852c-1.135,0-2.241.006-3.347,0a1.538,1.538,0,0,1-1.684-1.679q-.006-1.593,0-3.185A1.487,1.487,0,0,1,5.9,19.364c.618-.007,1.236,0,1.854,0H9.307V16.545c-2.033,0-4.028,0-6.022,0a1.053,1.053,0,0,0-.277.059,2.156,2.156,0,0,0-1.585,2.26q0,13.953,0,27.907ZM24.36,1.426a7.7,7.7,0,1,0,7.691,7.73,7.746,7.746,0,0,0-7.691-7.73m.744,45.81h5.578V34.747H25.1ZM16.567,33.25H32.123V31.884H16.567ZM39.29,42.967h3.661v-3.55H39.29Zm-33.54,0H9.313V39.4H5.75ZM39.3,24.343h3.656V20.835H39.3Zm.013,9.32h3.643v-3.5H39.315ZM5.728,24.351H9.321v-3.5H5.728Zm.021,9.317H9.309v-3.5H5.718c0,1.088,0,2.145,0,3.2,0,.091.018.182.03.3" transform="translate(0)" fill="#12263f"/>
      <path id="Trazado_728410" data-name="Trazado 728410" d="M198.036,38.363h2.6a1.455,1.455,0,0,0,1.258-.539,4.877,4.877,0,0,0,0-3.257,1.409,1.409,0,0,0-1.214-.525c-.866,0-1.731,0-2.642,0,0-.233,0-.4,0-.574,0-.713.013-1.426,0-2.138a1.3,1.3,0,0,0-1.433-1.406c-.539,0-1.077-.01-1.616,0a1.223,1.223,0,0,0-1.208,1.008,4.36,4.36,0,0,0-.057.8c-.007.754,0,1.509,0,2.278-.156.012-.248.026-.341.026-.792,0-1.584-.011-2.376.005a1.3,1.3,0,0,0-1.4,1.438c0,.523-.008,1.046,0,1.568a1.219,1.219,0,0,0,1.065,1.256,8.769,8.769,0,0,0,1.231.053c.595.008,1.19,0,1.817,0,0,.245,0,.417,0,.589,0,.713-.015,1.426.005,2.138a1.3,1.3,0,0,0,1.408,1.383c.428,0,.855,0,1.283,0,1.169,0,1.623-.459,1.625-1.647,0-.8,0-1.607,0-2.464" transform="translate(-171.529 -27.068)" fill="#12263f"/>
      <path id="Trazado_728411" data-name="Trazado 728411" d="M147.723,221.57c1.03,0,2.06,0,3.09,0a1.451,1.451,0,0,1,1.52,1.522q.008,1.711,0,3.422a1.458,1.458,0,0,1-1.532,1.515q-3.09.009-6.179,0a1.477,1.477,0,0,1-1.565-1.5q-.03-1.782.035-3.564a1.424,1.424,0,0,1,1.494-1.4c1.046-.006,2.091,0,3.137,0m-3.183,5h6.342v-3.545H144.54Z" transform="translate(-129.416 -200.454)" fill="#12263f"/>
      <path id="Trazado_728412" data-name="Trazado 728412" d="M275.051,221.566c1.03,0,2.06,0,3.089,0a1.45,1.45,0,0,1,1.533,1.511c.01,1.172,0,2.345-.018,3.517a1.433,1.433,0,0,1-1.421,1.428q-3.185.02-6.369,0a1.444,1.444,0,0,1-1.429-1.47q-.012-1.759,0-3.517a1.445,1.445,0,0,1,1.477-1.467c1.046-.008,2.091,0,3.137,0m3.162,1.458h-6.33v3.549h6.33Z" transform="translate(-244.659 -200.45)" fill="#12263f"/>
      <path id="Trazado_728413" data-name="Trazado 728413" d="M217.84,416.52a6.252,6.252,0,0,1,.006-.755.678.678,0,0,1,.707-.678.656.656,0,0,1,.723.655,10.1,10.1,0,0,1,0,1.556.657.657,0,0,1-.723.655.68.68,0,0,1-.707-.678,6.008,6.008,0,0,1-.005-.755" transform="translate(-197.072 -375.531)" fill="#12263f"/>
      <path id="Trazado_728414" data-name="Trazado 728414" d="M198.036,38.364c0,.858,0,1.661,0,2.464,0,1.188-.456,1.647-1.625,1.647-.428,0-.855,0-1.283,0a1.3,1.3,0,0,1-1.408-1.383c-.02-.712,0-1.426-.005-2.138,0-.172,0-.344,0-.589-.627,0-1.222.006-1.817,0a8.785,8.785,0,0,1-1.231-.053,1.219,1.219,0,0,1-1.065-1.256c-.009-.523,0-1.045,0-1.568a1.3,1.3,0,0,1,1.4-1.438c.792-.016,1.584,0,2.376-.006.092,0,.185-.014.341-.026,0-.769,0-1.523,0-2.278a4.362,4.362,0,0,1,.057-.8,1.223,1.223,0,0,1,1.208-1.008c.538-.013,1.077-.006,1.616,0a1.3,1.3,0,0,1,1.433,1.406c.018.712,0,1.426,0,2.139v.574c.911,0,1.777,0,2.642,0a1.409,1.409,0,0,1,1.214.525,4.877,4.877,0,0,1,0,3.257,1.455,1.455,0,0,1-1.258.539h-2.6m-2.853-6.992v2.312c0,1.648-.178,1.827-1.824,1.827h-2.312V36.9h2.716c1.087,0,1.418.331,1.419,1.416,0,.9,0,1.8,0,2.708h1.386c0-1.011-.011-1.991,0-2.97a1.051,1.051,0,0,1,1.154-1.152c.316-.008.633,0,.95,0H200.7V35.572c-.05-.024-.077-.048-.1-.048q-1.306-.009-2.612-.013c-1.078,0-1.418-.343-1.419-1.423,0-.9,0-1.8,0-2.716Z" transform="translate(-171.529 -27.069)" fill="#12263f"/>
      <path id="Trazado_728415" data-name="Trazado 728415" d="M277.8,416.5a5.476,5.476,0,0,1,.008-.8.661.661,0,0,1,.708-.621.642.642,0,0,1,.7.62,10.1,10.1,0,0,1-.007,1.649.636.636,0,0,1-.721.6.648.648,0,0,1-.678-.6,5.809,5.809,0,0,1-.008-.847H277.8" transform="translate(-251.315 -375.526)" fill="#12263f"/>
    </g>
    <g id="Grupo_1014728" data-name="Grupo 1014728" transform="translate(541.331 1415.011)" clip-path="url(#clip-path-11)">
      <path id="Trazado_728416" data-name="Trazado 728416" d="M88.569,51.086a2.968,2.968,0,0,1-.5-.913c-.067-.472.353-.783.919-.786,1.363-.006,2.726,0,4.125,0V17.057H87.22a2.593,2.593,0,0,1-2,2.456,2.461,2.461,0,0,1-.63.064q-5.053.006-10.107,0a2.517,2.517,0,0,1-2.616-2.607,6.79,6.79,0,0,1,.05-1.325,2.512,2.512,0,0,1,2.517-2.023c.3,0,.6,0,.908,0a3.25,3.25,0,0,1,2.626-2.455,11.164,11.164,0,0,1,3.115,0,3.236,3.236,0,0,1,2.62,2.463,10.91,10.91,0,0,1,1.232.008,2.128,2.128,0,0,1,1.776,1.113c.325.683.8.6,1.337.547.874-3.5,3.118-5.177,6.742-5.1a2.779,2.779,0,0,1-.228-.429A8.215,8.215,0,0,1,94.025,7.9c-.083-1.307-.051-2.624-.018-3.936a4.255,4.255,0,0,1,8.5.094c.009.732-.285,1.041-1.013,1.042-1.72,0-3.44,0-5.16,0h-.6A26.5,26.5,0,0,0,95.747,8a2.5,2.5,0,0,0,2.568,2.216A2.592,2.592,0,0,0,100.8,7.821a1.753,1.753,0,0,1,.045-.42.8.8,0,0,1,.9-.581.786.786,0,0,1,.754.813,4.285,4.285,0,0,1-.8,2.54,17.135,17.135,0,0,1,1.747.131,5.868,5.868,0,0,1,4.927,4.839.752.752,0,0,0,.094.182v8.621c-.041.094-.089.186-.121.283a3,3,0,0,1-4.765,1.5,1.121,1.121,0,0,0-.627-.177c-2.535-.012-5.07-.008-7.6-.007-.154,0-.308.016-.5.027v.659q0,7.288,0,14.575c0,.749.372,1.042,1.127.89A1.733,1.733,0,0,0,97.4,39.851q.008-4.867,0-9.735c0-.789.265-1.158.836-1.165s.862.364.862,1.14q0,3.351,0,6.7c0,1.064-.014,2.128.006,3.192a1.717,1.717,0,0,0,1.557,1.729,1.764,1.764,0,0,0,1.754-1.339,3.167,3.167,0,0,0,.089-.786q.008-5.692.006-11.384c0-.6.316-.949.829-.958a.827.827,0,0,1,.865.922c0,3.99.016,7.979-.006,11.969a3.451,3.451,0,0,1-3.335,3.287,3.626,3.626,0,0,1-2.627-1.116,3.52,3.52,0,0,1-3.392,1.028v.615c0,1.986-.013,3.972.009,5.958a1.237,1.237,0,0,1-.539,1.176Zm1.3-35.76c1.334,0,2.627,0,3.92,0,.773,0,1.054.281,1.054,1.055q0,3.431,0,6.862c0,.188,0,.376,0,.562h7.665v-.4q0-3.537,0-7.075c0-.591.264-.94.734-1,.571-.07.961.32.962.983,0,2.323,0,4.646.005,6.968a1.315,1.315,0,0,0,1.225,1.409,1.337,1.337,0,0,0,1.32-1.385c.015-2.429.054-4.86-.015-7.287a4.172,4.172,0,0,0-4.15-4.088q-4.359-.07-8.72,0a4.14,4.14,0,0,0-4,3.393M79.526,17.88c1.63,0,3.26,0,4.89,0,.745,0,1.056-.324,1.068-1.074,0-.124,0-.248,0-.372-.009-.79-.311-1.1-1.087-1.109-.443,0-.886,0-1.329,0-.655-.007-.917-.249-.993-.907a1.739,1.739,0,0,0-1.811-1.645c-.478-.008-.957-.006-1.435,0a1.731,1.731,0,0,0-1.861,1.7.838.838,0,0,1-.941.85c-.5.008-.992-.008-1.488,0a.893.893,0,0,0-.975.951c-.008.159,0,.319,0,.479.007.818.307,1.123,1.124,1.125,1.612,0,3.225,0,4.837,0M100.6,3.384a2.541,2.541,0,0,0-2.516-1.676c-.99.075-2.087.893-2.141,1.7h4.25c.12,0,.241-.012.407-.02" transform="translate(-64.196 0)" fill="#12263f"/>
      <path id="Trazado_728417" data-name="Trazado 728417" d="M.539,179.451A1.244,1.244,0,0,1,0,178.276q.017-16.7.009-33.406c0-.95.233-1.178,1.2-1.179q1.835,0,3.669,0c.725,0,1.095.3,1.087.862s-.376.836-1.113.837c-1.025,0-2.05,0-3.108,0v32.36h.624c6.24,0,12.479.011,18.719-.016.677,0,1.225.477,1.007,1.118-.077.228-.318.4-.484.6Z" transform="translate(0 -128.365)" fill="#12263f"/>
      <path id="Trazado_728418" data-name="Trazado 728418" d="M103.482,207.207c0,.6.007,1.116,0,1.63a.829.829,0,0,1-.919.922q-1.622.014-3.244,0c-.631,0-.929-.315-.937-.957-.006-.511,0-1.022,0-1.6-.548,0-1.056,0-1.564,0-.678-.006-.984-.3-.988-.96q-.01-1.6,0-3.192a.837.837,0,0,1,.943-.95c.512-.007,1.024,0,1.609,0,0-.554-.005-1.079,0-1.6a.837.837,0,0,1,.944-.949q1.622-.011,3.244,0a.83.83,0,0,1,.912.928c.006.266,0,.532,0,.8v.825c.506,0,.994,0,1.482,0,.8,0,1.07.275,1.071,1.092,0,1.011,0,2.022,0,3.032,0,.672-.3.971-.97.979-.51.006-1.019,0-1.582,0m-3.4-5.948c0,.54.007,1.081,0,1.621a.831.831,0,0,1-.921.919c-.527.009-1.053,0-1.6,0v1.707h1.3c1,0,1.225.222,1.225,1.2,0,.437,0,.874,0,1.315h1.659a.379.379,0,0,0,.033-.083c.005-.5.006-.992.014-1.488a.84.84,0,0,1,.948-.945c.524-.007,1.048,0,1.6,0V203.8h-.982c-1.478,0-1.572-.092-1.572-1.547v-.995Z" transform="translate(-85.602 -178.261)" fill="#12263f"/>
      <path id="Trazado_728419" data-name="Trazado 728419" d="M111.418,352.953c-2.107,0-4.214.017-6.32-.02a1.138,1.138,0,0,1-.8-.459.91.91,0,0,1,.039-.821,1.022,1.022,0,0,1,.744-.381c4.213-.023,8.427-.018,12.64-.014a.826.826,0,0,1,.92.865.839.839,0,0,1-.957.83q-3.133.007-6.267,0" transform="translate(-93.102 -313.79)" fill="#12263f"/>
      <path id="Trazado_728420" data-name="Trazado 728420" d="M111.068,423.083c2.107,0,4.214-.017,6.32.02a1.137,1.137,0,0,1,.8.459.909.909,0,0,1-.04.821,1.023,1.023,0,0,1-.744.382c-4.213.023-8.427.018-12.64.014a.826.826,0,0,1-.919-.866c.01-.512.362-.827.957-.828q3.133-.007,6.267,0" transform="translate(-92.768 -377.955)" fill="#12263f"/>
      <path id="Trazado_728421" data-name="Trazado 728421" d="M42.154,308.491c-.639-.651-1.223-1.241-1.8-1.837a.868.868,0,1,1,1.21-1.217c.314.311.6.646.953,1.024l2.032-2.038c.238-.238.471-.482.716-.713a.864.864,0,1,1,1.2,1.228c-1.124,1.132-2.259,2.253-3.389,3.379-.034.034-.062.072-.15.174.464,0,.863-.007,1.262,0a.85.85,0,1,1,0,1.694q-1.648.013-3.3,0a.847.847,0,1,1-.009-1.693c.406-.011.812,0,1.273,0" transform="translate(-35.733 -271.027)" fill="#12263f"/>
      <path id="Trazado_728422" data-name="Trazado 728422" d="M42.537,391.161c.531,0,1.061-.006,1.592,0a.827.827,0,0,1,.932.9q.015,1.645,0,3.29a.826.826,0,0,1-.93.906q-1.618.012-3.236,0a.835.835,0,0,1-.932-.957q-.01-1.592,0-3.184c0-.661.309-.954.983-.96.531,0,1.061,0,1.592,0m.8,1.737H41.7v1.659h1.631Z" transform="translate(-35.696 -349.439)" fill="#12263f"/>
      <path id="Trazado_728423" data-name="Trazado 728423" d="M117.724,392.875q-2.442,0-4.884,0c-.667,0-1.032-.321-1.017-.876.015-.528.37-.821,1.017-.821q4.937,0,9.875,0c.665,0,1.033.323,1.017.875-.015.527-.372.821-1.018.822q-2.5,0-4.991,0" transform="translate(-99.896 -349.454)" fill="#12263f"/>
      <path id="Trazado_728424" data-name="Trazado 728424" d="M117.346,321.023c-1.5,0-3.008,0-4.512,0-.641,0-1-.3-1.01-.83-.011-.553.353-.867,1.024-.868q4.512,0,9.024,0c.642,0,1,.3,1.01.829.011.551-.357.867-1.025.869q-2.256,0-4.512,0" transform="translate(-99.897 -285.266)" fill="#12263f"/>
    </g>
    <g id="Grupo_1014736" data-name="Grupo 1014736" transform="translate(835.629 1410.563)" clip-path="url(#clip-path-12)">
      <path id="Trazado_728430" data-name="Trazado 728430" d="M52.708,29.99H.683l.072-.044c-.006-.007-.009-.013-.012-.013-.021,0-.042-.007-.063-.009a.68.68,0,0,1-.63-.485.717.717,0,0,1,.178-.791.91.91,0,0,1,.7-.236c.722,0,1.444,0,2.166,0h.22V18.264a2.5,2.5,0,0,1-2.041-1.07,2.31,2.31,0,0,1-.444-1.482,2.434,2.434,0,0,1,.9-1.774c.28-.235.559-.469.844-.7.489-.391.981-.777,1.473-1.164a.249.249,0,0,0,.119-.213q-.007-2.1,0-4.209a1.4,1.4,0,0,1,.056-.4.719.719,0,0,1,.578-.539,3.2,3.2,0,0,1,.557-.046c.861,0,1.723,0,2.584,0a4.032,4.032,0,0,1,.4.023.759.759,0,0,1,.7.628,3.686,3.686,0,0,1,.03.543c0,.049,0,.1,0,.17.052-.038.086-.062.119-.088.334-.257.66-.526,1-.771a2.3,2.3,0,0,1,2.438-.263,5.6,5.6,0,0,1,1.044.7c1.213.954,2.415,1.922,3.621,2.884.035.028.073.055.126.094.046-.176.089-.329.126-.483q.42-1.751.839-3.5a1.677,1.677,0,0,1,.1-.308.753.753,0,0,1,.853-.422.789.789,0,0,1,.6.648q.617,2.574,1.229,5.149c.01.044.025.086.038.129l.045.023a.308.308,0,0,1,.03-.072,2.556,2.556,0,0,0,.5-1.939,5.459,5.459,0,0,1,.119-1.991,5.68,5.68,0,0,1,3.13-3.9,5.608,5.608,0,0,1,3.579-.49,5.814,5.814,0,0,1,2.436,1.094A7.1,7.1,0,0,1,32.2,5.664c.065.077.106.075.177.013.153-.135.313-.263.47-.394q2.1-1.747,4.2-3.493c.525-.435,1.044-.88,1.59-1.289A2.381,2.381,0,0,1,41.506.459c.262.186.513.389.76.594Q46.384,4.474,50.5,7.9a16.319,16.319,0,0,1,1.452,1.288,2.238,2.238,0,0,1,.493,2.408,2.354,2.354,0,0,1-1.97,1.613c-.122.02-.246.029-.365.043V28.4l.023,0q1.129,0,2.258,0a2.483,2.483,0,0,1,.325.018.763.763,0,0,1,.706.73.778.778,0,0,1-.439.714,1.894,1.894,0,0,1-.3.082l.032.038M33.383,9.179c.026-.02.067-.05.106-.082l3.6-2.991c.819-.68,1.636-1.364,2.459-2.04a.77.77,0,0,1,1.06-.022c.337.259.662.536.981.818a1.011,1.011,0,0,1,.252.342.723.723,0,0,1-.217.858.7.7,0,0,1-.871.066A5.406,5.406,0,0,1,40.2,5.7a.123.123,0,0,0-.195,0q-1.345,1.135-2.7,2.261-1.87,1.555-3.747,3.1a.145.145,0,0,0-.039.226c.23.388.451.781.685,1.167a.228.228,0,0,0,.171.074c.84,0,1.679,0,2.519,0,.47,0,.94,0,1.41,0a.829.829,0,0,1,.761.368,1.072,1.072,0,0,1,.14.587q0,1.883,0,3.766a2.611,2.611,0,0,1-.02.312.769.769,0,0,1-.647.673,2.36,2.36,0,0,1-.363.028q-1.612,0-3.224,0c-.35,0-.358-.005-.488.324a6.941,6.941,0,0,1-.869,1.582,7.176,7.176,0,0,1-1.8,1.762.262.262,0,0,0-.127.248c.006.708,0,1.416.005,2.124q0,1.948,0,3.9c0,.2,0,.2.2.2l2.388,0,14.069.013h.2v-.19q0-7.539.009-15.077a.959.959,0,0,0-.4-.841c-1.61-1.313-3.2-2.653-4.792-3.986a2.269,2.269,0,0,1-.377-.376.689.689,0,0,1-.028-.818.725.725,0,0,1,.725-.367,1.1,1.1,0,0,1,.592.307q1.263,1.041,2.522,2.085c.785.654,1.564,1.314,2.349,1.968a4.816,4.816,0,0,0,.6.455.885.885,0,0,0,1.287-.586.858.858,0,0,0-.273-.852c-.212-.192-.442-.365-.662-.549Q46.367,6.5,42.654,3.412c-.588-.49-1.166-.991-1.757-1.477a1.956,1.956,0,0,0-.547-.342.887.887,0,0,0-.9.223c-.242.2-.479.416-.723.619Q35.908,4.77,33.09,7.1a.142.142,0,0,0-.056.178,2.9,2.9,0,0,1,.122.424c.081.487.151.975.227,1.476M28.321,21.644a.43.43,0,0,0,.075,0c.175-.03.353-.052.526-.094a5.785,5.785,0,0,0,3.269-2.079,5.723,5.723,0,0,0,1.246-4.123,5.6,5.6,0,0,0-.823-2.563c-.184-.3-.345-.61-.513-.918a2.051,2.051,0,0,1-.094-.228A4.94,4.94,0,0,1,31.763,9.4a4.136,4.136,0,0,0-.2-1.655,4.2,4.2,0,0,0-4.333-2.829,4.526,4.526,0,0,0-1.761.518,3.968,3.968,0,0,0-1.619,1.635,4.045,4.045,0,0,0-.532,1.751c-.015.333.017.668.035,1a4.524,4.524,0,0,1-.165,1.558,5.439,5.439,0,0,1-.678,1.372,6.372,6.372,0,0,0-.648,1.443.559.559,0,0,0-.013.291q.6,2.551,1.213,5.1a.43.43,0,0,0,.1.206c.274.26.543.528.84.759a5.586,5.586,0,0,0,2.216,1.027c.175.04.353.072.55.112V21.5c0-.678,0-1.355,0-2.033a3.222,3.222,0,0,1,.02-.364.76.76,0,0,1,1.517.01c.011.112.017.225.017.338,0,.565,0,1.129,0,1.694v.5m-9.933,3.322c-.04,0-.061-.01-.082-.01-.535,0-1.07,0-1.605,0-.088,0-.1.039-.1.11,0,.291,0,.583-.024.872a.729.729,0,0,1-.66.664,3.225,3.225,0,0,1-.377.023c-.8,0-1.592,0-2.388,0-1.818,0-3.637,0-5.455,0a1.511,1.511,0,0,1-.547-.09.819.819,0,0,1-.485-.837q-.014-1.538,0-3.075a.835.835,0,0,1,.767-.882,3.986,3.986,0,0,1,.443-.014h6.486a2.94,2.94,0,0,0,.326,0,.156.156,0,0,0,.11-.09c.067-.256.122-.514.184-.771.371-1.547.737-3.095,1.12-4.638a.442.442,0,0,0-.183-.544c-1.393-1.1-2.771-2.213-4.152-3.326a.158.158,0,0,0-.242,0,5.779,5.779,0,0,1-.67.494.708.708,0,0,1-.925-.183.731.731,0,0,1,.1-1.068c.328-.291.672-.564,1.018-.835a.807.807,0,0,1,1.176-.006c.572.446,1.137.9,1.7,1.354q1.277,1.022,2.553,2.047a.5.5,0,0,0,.085.045c.145-.592.284-1.173.434-1.752a.215.215,0,0,0-.087-.263q-1.989-1.573-3.972-3.154c-.255-.2-.5-.423-.763-.611a.88.88,0,0,0-1.1.021c-.2.146-.385.312-.578.466L6.1,12.417Q4.732,13.507,3.369,14.6a9.465,9.465,0,0,0-.76.632.855.855,0,0,0-.054,1.112.881.881,0,0,0,1.1.268A2.807,2.807,0,0,0,4.1,16.3c1.043-.832,2.082-1.669,3.126-2.5a2.23,2.23,0,0,1,.449-.285.68.68,0,0,1,.736.1.726.726,0,0,1,.294.7.913.913,0,0,1-.4.6q-1.664,1.333-3.33,2.662a.223.223,0,0,0-.094.2q0,5.238,0,10.477v.157h.387l6.656,0q3.158,0,6.317,0c.113,0,.147-.029.146-.146-.005-1.012,0-2.024,0-3.036v-.258m-2.413-1.59a.54.54,0,0,0,.089.017c.739,0,1.479,0,2.219,0,.1,0,.109-.049.108-.13q0-.665,0-1.329a2.759,2.759,0,0,1,.022-.324.768.768,0,0,1,.493-.652.71.71,0,0,1,.776.144.826.826,0,0,1,.267.654c.006.508.01,1.016.006,1.524,0,.1.029.114.118.114.735,0,1.47,0,2.205,0,.029,0,.059,0,.1-.008L19.194,10.026l-.039,0-3.18,13.347m3.986,5.02c.042,0,.072.006.1.006q3.276,0,6.551,0c.124,0,.152-.031.151-.15q0-2.189,0-4.378c0-.174,0-.348,0-.521,0-.094-.018-.14-.125-.147a4.029,4.029,0,0,1-.451-.063,7.554,7.554,0,0,1-2.353-.851c-.039-.021-.081-.037-.147-.067.067.278.13.524.185.771.082.368.178.734.233,1.106a.722.722,0,0,1-.586.8,2.308,2.308,0,0,1-.44.045c-.992,0-1.984,0-2.976,0h-.145ZM14.4,23.285h-.37q-2.831,0-5.662,0c-.106,0-.14.023-.139.136.006.46,0,.92,0,1.381,0,.085,0,.169,0,.255.043,0,.064.007.086.007l5.727,0c.287,0,.574,0,.861,0a.839.839,0,0,0,.173-.039c0-.017,0-.034,0-.051-.081-.021-.162-.043-.243-.062a.7.7,0,0,1-.576-.567,2.072,2.072,0,0,1,.039-.6c.02-.148.066-.293.1-.458m15.707-.464c-.05.013-.079.019-.107.028a8,8,0,0,1-1.532.354c-.128.014-.151.064-.15.18q.008,2.462.008,4.924a.648.648,0,0,0,.012.087h1.77Zm6.23-6.117h0c.4,0,.8,0,1.2,0,.082,0,.1-.021.1-.1q0-1.205,0-2.411c0-.076-.018-.106-.1-.106q-1.2.005-2.4,0c-.087,0-.118.017-.117.115q.007,1.186,0,2.371c0,.112.034.131.13.13.4,0,.792,0,1.188,0m-30.612-6c.04-.026.064-.037.084-.054.542-.434,1.084-.867,1.621-1.307A.263.263,0,0,0,7.5,9.167c.006-.23,0-.46,0-.689,0-.08,0-.159,0-.228H5.728Z" transform="translate(0 0)" fill="#12263f"/>
      <path id="Trazado_728431" data-name="Trazado 728431" d="M319.859,194.912q0-1.14,0-2.28a1.9,1.9,0,0,1,.023-.3.767.767,0,0,1,.76-.688c.213-.013.426-.014.639-.014q1.514,0,3.028,0c.144,0,.287,0,.43.009a.828.828,0,0,1,.863.915q0,1.961,0,3.922c0,.33,0,.661-.019.99a.75.75,0,0,1-.7.718,3.737,3.737,0,0,1-.39.021q-1.8,0-3.6,0a2.122,2.122,0,0,1-.364-.028.78.78,0,0,1-.658-.817c-.013-.525-.009-1.051-.011-1.577,0-.291,0-.582,0-.873h.005m1.561-1.705c0,.1,0,.188,0,.275,0,1.012,0,2.023,0,3.035,0,.107.027.132.129.132.8,0,1.591,0,2.387,0a.935.935,0,0,0,.1-.01v-3.43Z" transform="translate(-286.394 -171.584)" fill="#12263f"/>
      <path id="Trazado_728432" data-name="Trazado 728432" d="M397.7,194.924c0,.738,0,1.477,0,2.215a2.114,2.114,0,0,1-.049.451.755.755,0,0,1-.7.6c-.134.013-.269.02-.4.02q-1.794,0-3.588,0a2.28,2.28,0,0,1-.338-.025.759.759,0,0,1-.662-.728c-.015-.464-.012-.929-.012-1.394q0-1.687,0-3.374a2.259,2.259,0,0,1,.019-.377.765.765,0,0,1,.755-.663c.161-.01.322-.013.483-.013q1.716,0,3.432,0a2.123,2.123,0,0,1,.427.04.721.721,0,0,1,.584.579,1.977,1.977,0,0,1,.052.437c.005.743,0,1.485,0,2.228m-4.192-1.72c0,.044-.007.066-.007.087q0,1.628,0,3.256c0,.093.04.107.118.106.787,0,1.574,0,2.361,0,.119,0,.154-.028.153-.151q-.009-1.582,0-3.165c0-.111-.03-.14-.138-.139-.757,0-1.513,0-2.27,0h-.214" transform="translate(-350.946 -171.59)" fill="#12263f"/>
      <path id="Trazado_728433" data-name="Trazado 728433" d="M391.918,122.66c0-.63,0-1.259,0-1.889a1.756,1.756,0,0,1,.054-.45.784.784,0,0,1,.82-.538c.57-.006,1.139,0,1.709,0,.722,0,1.444,0,2.166,0a1.715,1.715,0,0,1,.363.032.727.727,0,0,1,.589.59,2.153,2.153,0,0,1,.051.451q.006,1.817,0,3.634a1.959,1.959,0,0,1-.023.285.806.806,0,0,1-.771.733,2.2,2.2,0,0,1-.221.009q-1.853,0-3.705,0a2.354,2.354,0,0,1-.35-.024.75.75,0,0,1-.67-.745c-.012-.695,0-1.389,0-2.084h-.012m4.168,1.293a.4.4,0,0,0,.012-.058c0-.82,0-1.64.006-2.46,0-.1-.056-.1-.125-.1-.791,0-1.582,0-2.373,0-.113,0-.135.038-.134.141q.005,1.159,0,2.317c0,.125.033.162.159.161.778-.006,1.556,0,2.334,0h.122" transform="translate(-350.919 -107.25)" fill="#12263f"/>
      <path id="Trazado_728434" data-name="Trazado 728434" d="M92.669,146.171c0,.525,0,1.051,0,1.576a.8.8,0,0,1-.57.848,1.125,1.125,0,0,1-.3.044c-1.065,0-2.131.009-3.2,0a.785.785,0,0,1-.834-.829c-.016-1.046-.012-2.092-.008-3.138a.815.815,0,0,1,.4-.793,1.116,1.116,0,0,1,.485-.122q1.565-.017,3.131,0a1.193,1.193,0,0,1,.5.125.657.657,0,0,1,.373.6c.01.564,0,1.129,0,1.693Zm-3.336.893c.006,0,.014.012.021.012.565,0,1.13.009,1.7.007.026,0,.074-.058.074-.089,0-.534,0-1.068,0-1.6,0-.075-.029-.1-.1-.095q-.789.005-1.579,0c-.085,0-.114.026-.113.111,0,.551,0,1.1,0,1.653" transform="translate(-78.581 -128.707)" fill="#12263f"/>
    </g>
    <g id="Grupo_1014737" data-name="Grupo 1014737" transform="translate(783.343 1477.073)" clip-path="url(#clip-path-13)">
      <path id="Trazado_728435" data-name="Trazado 728435" d="M39.583,30.624H4.626l.133-.044c-.1-.012-.176-.015-.252-.033a1.5,1.5,0,0,1-1.131-1.2,6.009,6.009,0,0,1-.033-.865q0-5.712,0-11.425v-.911a.293.293,0,0,0-.061-.015l-.805-.007c-.5-.006-1-.006-1.506-.02a.989.989,0,0,1-.935-.743c0-.018-.023-.033-.035-.049V15.02c.017-.008.047-.014.05-.026a1.346,1.346,0,0,1,.541-.747l2.958-2.242q.979-.743,1.955-1.488c.809-.618,1.614-1.24,2.424-1.856q1.306-.995,2.616-1.982c.689-.522,1.375-1.048,2.065-1.568a1.842,1.842,0,0,1,2.338.029Q16.427,6.319,17.9,7.5c.047.038.1.075.157.122,0-.046.006-.072.006-.1q0-3.7,0-7.394c0-.1.025-.134.133-.134q7.059,0,14.118,0h.133c0,.067.012.122.012.177q0,6.7,0,13.4a.15.15,0,0,0,.1.158q1.661.8,3.319,1.607,2.8,1.357,5.59,2.716.437.212.863.445a1,1,0,0,1,.472.528.777.777,0,0,1-.6,1.05,3.837,3.837,0,0,1-.694.076c-.2.012-.4,0-.612,0v.226q0,4.235,0,8.471a2.717,2.717,0,0,1-.048.519,1.44,1.44,0,0,1-.493.84,1.234,1.234,0,0,1-.9.352l.133.057m-23-1.482H16.8l5.212,0c.132,0,.156-.014.163-.145.008-.153,0-.306,0-.46q0-4.314,0-8.627,0-1.757,0-3.514c0-.19-.006-.191-.2-.191H5.045c-.244,0-.244,0-.244.249q0,6.186,0,12.371c0,.073,0,.146,0,.22a.084.084,0,0,0,.1.094c.038,0,.077,0,.115,0h5.369V23.914h5.444c.22,0,.44.005.659,0,.08,0,.1.026.1.1q0,2.348,0,4.7v.427M2.525,14.624l.009.029,22,.079a.213.213,0,0,0-.074-.091c-.2-.156-.4-.309-.6-.468q-2.667-2.141-5.332-4.285-2.208-1.777-4.41-3.562a.524.524,0,0,0-.716,0c-.21.178-.431.343-.65.51L8.522,10.058,3.264,14.064l-.738.56M19.538,1.488c0,.182,0,.352,0,.522q0,3.357,0,6.714a.2.2,0,0,0,.067.139c.479.389.963.772,1.444,1.158L24.889,13.1c.3.244.606.491.915.742.031-.028.057-.05.081-.074q.507-.507,1.013-1.014a2.255,2.255,0,0,1,1.081-.68,1.941,1.941,0,0,1,1.231.045c.378.159.746.344,1.117.52.216.1.43.208.647.314V1.488ZM39.295,18.66l.006-.024c-.107-.049-.215-.1-.321-.148l-1.906-.929q-2.795-1.358-5.59-2.715c-.886-.431-1.769-.868-2.655-1.3a.978.978,0,0,0-.316-.1.563.563,0,0,0-.464.219q-1.026,1.045-2.056,2.085c-.757.762-1.519,1.518-2.277,2.279a.253.253,0,0,0-.075.139c-.011.117,0,.237-.006.355,0,.061.018.086.084.086.635,0,1.269,0,1.9,0l13.352.043h.32m-1.9,1.505c0,.042,0,.066,0,.09q0,4.4,0,8.793c0,.07.015.1.092.1.6,0,1.2,0,1.8,0,.129,0,.146-.012.15-.141.005-.16,0-.32,0-.481q0-3.649,0-7.3c0-.31-.007-.62-.007-.93,0-.1-.037-.131-.138-.13-.593,0-1.186,0-1.779,0Zm-13.747,0c0,.031,0,.051,0,.071q0,4.412-.009,8.824c0,.064.018.083.083.083.6,0,1.207,0,1.81-.007.167,0,.167,0,.167-.171v-8.8ZM35.92,27.221V25.4c0-.154,0-.154-.149-.154h-8.5c-.034,0-.067,0-.1,0a.365.365,0,0,0-.008.05c0,.62,0,1.241,0,1.861,0,.066.032.073.084.072q.188-.005.377-.005h8.192c.031,0,.061,0,.1-.007m-8.746-5.046a.507.507,0,0,0-.006.052c0,.617,0,1.233-.007,1.85,0,.068.032.069.084.069l8.568,0c.033,0,.066,0,.1-.006V22.175ZM15.105,29.142a.543.543,0,0,0,.009-.058q0-1.808,0-3.616c0-.078-.037-.08-.1-.08q-1.517,0-3.033,0c-.093,0-.149.011-.127.123a.718.718,0,0,1,0,.135q0,1.7-.005,3.407c0,.091.044.091.109.091l2.887,0h.256M27.168,20.2c0,.256.005.5,0,.736,0,.1.019.123.119.123q4.264,0,8.529,0c.033,0,.067,0,.1-.006V20.2Zm0,8.134c0,.2,0,.382,0,.566,0,.241,0,.241.236.24h8.067c.126,0,.251,0,.377,0,.025,0,.071-.03.071-.047,0-.25,0-.5,0-.754Z" transform="translate(0 0)" fill="#12263f"/>
      <path id="Trazado_728436" data-name="Trazado 728436" d="M190.065,212.566h-.115q-2.48,0-4.96,0c-.082,0-.1-.028-.1-.1q0-2.5,0-5.008c0-.017,0-.034.005-.061h5.168Zm-1.47-3.7h-2.217v2.214h2.217Z" transform="translate(-169.381 -189.997)" fill="#12263f"/>
      <path id="Trazado_728437" data-name="Trazado 728437" d="M77.079,212.437c-.83,0-1.66,0-2.491,0-.1,0-.1-.044-.1-.113q0-2.128,0-4.256c0-.237,0-.474,0-.711,0-.087.026-.106.106-.106.38,0,.76,0,1.141,0q1.92,0,3.841,0c.077,0,.1.019.1.1q0,2.436,0,4.873c0,.208,0,.208-.2.208h-2.4v0m1.119-3.705H75.965v2.218H78.2Z" transform="translate(-68.24 -189.867)" fill="#12263f"/>
      <path id="Trazado_728438" data-name="Trazado 728438" d="M261.476,38.035a3.631,3.631,0,1,1-3.637,3.62,3.636,3.636,0,0,1,3.637-3.62m0,1.464a2.171,2.171,0,1,0,2.166,2.143,2.164,2.164,0,0,0-2.166-2.143" transform="translate(-236.208 -34.844)" fill="#12263f"/>
    </g>
  </g>
</svg>
