<svg xmlns="http://www.w3.org/2000/svg" xmlns:xlink="http://www.w3.org/1999/xlink" width="241.705" height="104.149" viewBox="0 0 241.705 104.149">
  <defs>
    <clipPath id="clip-path">
      <rect id="Rect치ngulo_34881" data-name="Rect치ngulo 34881" width="127.991" height="65.295" fill="#12263f"/>
    </clipPath>
  </defs>
  <g id="Grupo_159242" data-name="Grupo 159242" transform="translate(-219 -8287.014)">
    <g id="Grupo_158318" data-name="Grupo 158318" transform="translate(219 8287.014)">
      <g id="Grupo_157916" data-name="Grupo 157916" transform="translate(0 0)">
        <g id="Enmascarar_grupo_63" data-name="Enmascarar grupo 63" opacity="0.311" clip-path="url(#clip-path)">
          <path id="Trazado_151731" data-name="Trazado 151731" d="M60.941,25.659A35.282,35.282,0,1,0,96.223,60.941,35.322,35.322,0,0,0,60.941,25.659M60.941,0A60.941,60.941,0,1,1,0,60.941,60.941,60.941,0,0,1,60.941,0Z" transform="translate(2.644 -60.941)" fill="#12263f"/>
        </g>
        <path id="Trazado_145968" data-name="Trazado 145968" d="M26.22,52.44A26.22,26.22,0,1,0,0,26.22,26.22,26.22,0,0,0,26.22,52.44Z" transform="translate(189.265 39.708)" fill="#31313c" opacity="0.444" style="mix-blend-mode: multiply;isolation: isolate"/>
        <g id="Grupo_78276" data-name="Grupo 78276" transform="translate(157.109 9.477)">
          <g id="Grupo_53306" data-name="Grupo 53306" transform="translate(0 60.06)">
            <path id="Trazado_99200" data-name="Trazado 99200" d="M415.641,50.907a.714.714,0,1,0-.714.682A.7.7,0,0,0,415.641,50.907Z" transform="translate(-414.214 -50.224)" fill="#fff"/>
            <path id="Trazado_99201" data-name="Trazado 99201" d="M424.087,50.907a.714.714,0,1,0-.713.682A.7.7,0,0,0,424.087,50.907Z" transform="translate(-416.237 -50.224)" fill="#fff"/>
            <path id="Trazado_99202" data-name="Trazado 99202" d="M432.533,50.907a.714.714,0,1,0-.713.682A.7.7,0,0,0,432.533,50.907Z" transform="translate(-418.26 -50.224)" fill="#fff"/>
            <path id="Trazado_99203" data-name="Trazado 99203" d="M440.98,50.907a.714.714,0,1,0-.714.682A.7.7,0,0,0,440.98,50.907Z" transform="translate(-420.284 -50.224)" fill="#fff"/>
            <path id="Trazado_99204" data-name="Trazado 99204" d="M449.426,50.907a.714.714,0,1,0-.713.682A.7.7,0,0,0,449.426,50.907Z" transform="translate(-422.307 -50.224)" fill="#fff"/>
            <path id="Trazado_99205" data-name="Trazado 99205" d="M457.872,50.907a.714.714,0,1,0-.713.682A.7.7,0,0,0,457.872,50.907Z" transform="translate(-424.33 -50.224)" fill="#fff"/>
            <path id="Trazado_99206" data-name="Trazado 99206" d="M466.319,50.907a.714.714,0,1,0-.714.682A.7.7,0,0,0,466.319,50.907Z" transform="translate(-426.354 -50.224)" fill="#fff"/>
            <path id="Trazado_99207" data-name="Trazado 99207" d="M474.766,50.907a.714.714,0,1,0-.713.682A.7.7,0,0,0,474.766,50.907Z" transform="translate(-428.377 -50.224)" fill="#fff"/>
            <path id="Trazado_99208" data-name="Trazado 99208" d="M483.211,50.907a.714.714,0,1,0-.713.682A.7.7,0,0,0,483.211,50.907Z" transform="translate(-430.4 -50.224)" fill="#fff"/>
            <path id="Trazado_99209" data-name="Trazado 99209" d="M491.658,50.907a.714.714,0,1,0-.714.682A.7.7,0,0,0,491.658,50.907Z" transform="translate(-432.424 -50.224)" fill="#fff"/>
            <path id="Trazado_99210" data-name="Trazado 99210" d="M500.1,50.907a.714.714,0,1,0-.714.682A.7.7,0,0,0,500.1,50.907Z" transform="translate(-434.447 -50.224)" fill="#fff"/>
          </g>
          <g id="Grupo_53307" data-name="Grupo 53307" transform="translate(0 54.6)">
            <path id="Trazado_99211" data-name="Trazado 99211" d="M415.641,58.415a.714.714,0,1,0-.714.682A.7.7,0,0,0,415.641,58.415Z" transform="translate(-414.214 -57.732)" fill="#fff"/>
            <path id="Trazado_99212" data-name="Trazado 99212" d="M424.087,58.415a.714.714,0,1,0-.713.682A.7.7,0,0,0,424.087,58.415Z" transform="translate(-416.237 -57.732)" fill="#fff"/>
            <path id="Trazado_99213" data-name="Trazado 99213" d="M432.533,58.415a.714.714,0,1,0-.713.682A.7.7,0,0,0,432.533,58.415Z" transform="translate(-418.26 -57.732)" fill="#fff"/>
            <path id="Trazado_99214" data-name="Trazado 99214" d="M440.98,58.415a.714.714,0,1,0-.714.682A.7.7,0,0,0,440.98,58.415Z" transform="translate(-420.284 -57.732)" fill="#fff"/>
            <path id="Trazado_99215" data-name="Trazado 99215" d="M449.426,58.415a.714.714,0,1,0-.713.682A.7.7,0,0,0,449.426,58.415Z" transform="translate(-422.307 -57.732)" fill="#fff"/>
            <path id="Trazado_99216" data-name="Trazado 99216" d="M457.872,58.415a.714.714,0,1,0-.713.682A.7.7,0,0,0,457.872,58.415Z" transform="translate(-424.33 -57.732)" fill="#fff"/>
            <path id="Trazado_99217" data-name="Trazado 99217" d="M466.319,58.415a.714.714,0,1,0-.714.682A.7.7,0,0,0,466.319,58.415Z" transform="translate(-426.354 -57.732)" fill="#fff"/>
            <path id="Trazado_99218" data-name="Trazado 99218" d="M474.766,58.415a.714.714,0,1,0-.713.682A.7.7,0,0,0,474.766,58.415Z" transform="translate(-428.377 -57.732)" fill="#fff"/>
            <path id="Trazado_99219" data-name="Trazado 99219" d="M483.211,58.415a.714.714,0,1,0-.713.682A.7.7,0,0,0,483.211,58.415Z" transform="translate(-430.4 -57.732)" fill="#fff"/>
            <path id="Trazado_99220" data-name="Trazado 99220" d="M491.658,58.415a.714.714,0,1,0-.714.682A.7.7,0,0,0,491.658,58.415Z" transform="translate(-432.424 -57.732)" fill="#fff"/>
            <path id="Trazado_99221" data-name="Trazado 99221" d="M500.1,58.415a.714.714,0,1,0-.714.682A.7.7,0,0,0,500.1,58.415Z" transform="translate(-434.447 -57.732)" fill="#fff"/>
          </g>
          <g id="Grupo_53308" data-name="Grupo 53308" transform="translate(0 49.14)">
            <ellipse id="Elipse_3955" data-name="Elipse 3955" cx="0.714" cy="0.683" rx="0.714" ry="0.683" transform="translate(0 0)" fill="#fff"/>
            <path id="Trazado_99222" data-name="Trazado 99222" d="M424.087,65.923a.714.714,0,1,0-.713.682A.7.7,0,0,0,424.087,65.923Z" transform="translate(-416.237 -65.24)" fill="#fff"/>
            <ellipse id="Elipse_3956" data-name="Elipse 3956" cx="0.714" cy="0.683" rx="0.714" ry="0.683" transform="translate(12.846 0)" fill="#fff"/>
            <path id="Trazado_99223" data-name="Trazado 99223" d="M440.98,65.923a.714.714,0,1,0-.714.682A.7.7,0,0,0,440.98,65.923Z" transform="translate(-420.284 -65.24)" fill="#fff"/>
            <path id="Trazado_99224" data-name="Trazado 99224" d="M449.426,65.923a.714.714,0,1,0-.713.682A.7.7,0,0,0,449.426,65.923Z" transform="translate(-422.307 -65.24)" fill="#fff"/>
            <ellipse id="Elipse_3957" data-name="Elipse 3957" cx="0.714" cy="0.683" rx="0.714" ry="0.683" transform="translate(32.115 0)" fill="#fff"/>
            <path id="Trazado_99225" data-name="Trazado 99225" d="M466.319,65.923a.714.714,0,1,0-.714.682A.7.7,0,0,0,466.319,65.923Z" transform="translate(-426.354 -65.24)" fill="#fff"/>
            <ellipse id="Elipse_3958" data-name="Elipse 3958" cx="0.714" cy="0.683" rx="0.714" ry="0.683" transform="translate(44.961 0)" fill="#fff"/>
            <ellipse id="Elipse_3959" data-name="Elipse 3959" cx="0.714" cy="0.683" rx="0.714" ry="0.683" transform="translate(51.384 0)" fill="#fff"/>
            <path id="Trazado_99226" data-name="Trazado 99226" d="M491.658,65.923a.714.714,0,1,0-.714.682A.7.7,0,0,0,491.658,65.923Z" transform="translate(-432.423 -65.24)" fill="#fff"/>
            <path id="Trazado_99227" data-name="Trazado 99227" d="M500.1,65.923a.714.714,0,1,0-.714.682A.7.7,0,0,0,500.1,65.923Z" transform="translate(-434.447 -65.24)" fill="#fff"/>
          </g>
          <g id="Grupo_53309" data-name="Grupo 53309" transform="translate(0 43.68)">
            <ellipse id="Elipse_3960" data-name="Elipse 3960" cx="0.714" cy="0.683" rx="0.714" ry="0.683" fill="#fff"/>
            <path id="Trazado_99228" data-name="Trazado 99228" d="M424.087,73.429a.714.714,0,1,0-.713.683A.7.7,0,0,0,424.087,73.429Z" transform="translate(-416.237 -72.747)" fill="#fff"/>
            <ellipse id="Elipse_3961" data-name="Elipse 3961" cx="0.714" cy="0.683" rx="0.714" ry="0.683" transform="translate(12.846)" fill="#fff"/>
            <path id="Trazado_99229" data-name="Trazado 99229" d="M440.98,73.429a.714.714,0,1,0-.714.683A.7.7,0,0,0,440.98,73.429Z" transform="translate(-420.284 -72.747)" fill="#fff"/>
            <path id="Trazado_99230" data-name="Trazado 99230" d="M449.426,73.429a.714.714,0,1,0-.713.683A.7.7,0,0,0,449.426,73.429Z" transform="translate(-422.307 -72.747)" fill="#fff"/>
            <ellipse id="Elipse_3962" data-name="Elipse 3962" cx="0.714" cy="0.683" rx="0.714" ry="0.683" transform="translate(32.115)" fill="#fff"/>
            <path id="Trazado_99231" data-name="Trazado 99231" d="M466.319,73.429a.714.714,0,1,0-.714.683A.7.7,0,0,0,466.319,73.429Z" transform="translate(-426.354 -72.747)" fill="#fff"/>
            <ellipse id="Elipse_3963" data-name="Elipse 3963" cx="0.714" cy="0.683" rx="0.714" ry="0.683" transform="translate(44.961)" fill="#fff"/>
            <ellipse id="Elipse_3964" data-name="Elipse 3964" cx="0.714" cy="0.683" rx="0.714" ry="0.683" transform="translate(51.384)" fill="#fff"/>
            <path id="Trazado_99232" data-name="Trazado 99232" d="M491.658,73.429a.714.714,0,1,0-.714.683A.7.7,0,0,0,491.658,73.429Z" transform="translate(-432.423 -72.747)" fill="#fff"/>
            <path id="Trazado_99233" data-name="Trazado 99233" d="M500.1,73.429a.714.714,0,1,0-.714.683A.7.7,0,0,0,500.1,73.429Z" transform="translate(-434.447 -72.747)" fill="#fff"/>
          </g>
          <g id="Grupo_53310" data-name="Grupo 53310" transform="translate(0 38.221)">
            <path id="Trazado_99234" data-name="Trazado 99234" d="M415.641,80.937a.714.714,0,1,0-.714.683A.7.7,0,0,0,415.641,80.937Z" transform="translate(-414.214 -80.255)" fill="#fff"/>
            <path id="Trazado_99235" data-name="Trazado 99235" d="M424.087,80.937a.714.714,0,1,0-.713.683A.7.7,0,0,0,424.087,80.937Z" transform="translate(-416.237 -80.255)" fill="#fff"/>
            <path id="Trazado_99236" data-name="Trazado 99236" d="M432.533,80.937a.714.714,0,1,0-.713.683A.7.7,0,0,0,432.533,80.937Z" transform="translate(-418.26 -80.255)" fill="#fff"/>
            <path id="Trazado_99237" data-name="Trazado 99237" d="M440.98,80.937a.714.714,0,1,0-.714.683A.7.7,0,0,0,440.98,80.937Z" transform="translate(-420.284 -80.255)" fill="#fff"/>
            <path id="Trazado_99238" data-name="Trazado 99238" d="M449.426,80.937a.714.714,0,1,0-.713.683A.7.7,0,0,0,449.426,80.937Z" transform="translate(-422.307 -80.255)" fill="#fff"/>
            <path id="Trazado_99239" data-name="Trazado 99239" d="M457.872,80.937a.714.714,0,1,0-.713.683A.7.7,0,0,0,457.872,80.937Z" transform="translate(-424.33 -80.255)" fill="#fff"/>
            <path id="Trazado_99240" data-name="Trazado 99240" d="M466.319,80.937a.714.714,0,1,0-.714.683A.7.7,0,0,0,466.319,80.937Z" transform="translate(-426.354 -80.255)" fill="#fff"/>
            <path id="Trazado_99241" data-name="Trazado 99241" d="M474.766,80.937a.714.714,0,1,0-.713.683A.7.7,0,0,0,474.766,80.937Z" transform="translate(-428.377 -80.255)" fill="#fff"/>
            <path id="Trazado_99242" data-name="Trazado 99242" d="M483.211,80.937a.714.714,0,1,0-.713.683A.7.7,0,0,0,483.211,80.937Z" transform="translate(-430.4 -80.255)" fill="#fff"/>
            <path id="Trazado_99243" data-name="Trazado 99243" d="M491.658,80.937a.714.714,0,1,0-.714.683A.7.7,0,0,0,491.658,80.937Z" transform="translate(-432.424 -80.255)" fill="#fff"/>
            <path id="Trazado_99244" data-name="Trazado 99244" d="M500.1,80.937a.714.714,0,1,0-.714.683A.7.7,0,0,0,500.1,80.937Z" transform="translate(-434.447 -80.255)" fill="#fff"/>
          </g>
          <g id="Grupo_53311" data-name="Grupo 53311" transform="translate(0 32.761)">
            <ellipse id="Elipse_3965" data-name="Elipse 3965" cx="0.714" cy="0.683" rx="0.714" ry="0.683" fill="#fff"/>
            <path id="Trazado_99245" data-name="Trazado 99245" d="M424.087,88.445a.714.714,0,1,0-.713.683A.7.7,0,0,0,424.087,88.445Z" transform="translate(-416.237 -87.763)" fill="#fff"/>
            <ellipse id="Elipse_3966" data-name="Elipse 3966" cx="0.714" cy="0.683" rx="0.714" ry="0.683" transform="translate(12.846)" fill="#fff"/>
            <path id="Trazado_99246" data-name="Trazado 99246" d="M440.98,88.445a.714.714,0,1,0-.714.683A.7.7,0,0,0,440.98,88.445Z" transform="translate(-420.284 -87.763)" fill="#fff"/>
            <path id="Trazado_99247" data-name="Trazado 99247" d="M449.426,88.445a.714.714,0,1,0-.713.683A.7.7,0,0,0,449.426,88.445Z" transform="translate(-422.307 -87.763)" fill="#fff"/>
            <ellipse id="Elipse_3967" data-name="Elipse 3967" cx="0.714" cy="0.683" rx="0.714" ry="0.683" transform="translate(32.115)" fill="#fff"/>
            <path id="Trazado_99248" data-name="Trazado 99248" d="M466.319,88.445a.714.714,0,1,0-.714.683A.7.7,0,0,0,466.319,88.445Z" transform="translate(-426.354 -87.763)" fill="#fff"/>
            <ellipse id="Elipse_3968" data-name="Elipse 3968" cx="0.714" cy="0.683" rx="0.714" ry="0.683" transform="translate(44.961)" fill="#fff"/>
            <ellipse id="Elipse_3969" data-name="Elipse 3969" cx="0.714" cy="0.683" rx="0.714" ry="0.683" transform="translate(51.384)" fill="#fff"/>
            <path id="Trazado_99249" data-name="Trazado 99249" d="M491.658,88.445a.714.714,0,1,0-.714.683A.7.7,0,0,0,491.658,88.445Z" transform="translate(-432.423 -87.763)" fill="#fff"/>
            <path id="Trazado_99250" data-name="Trazado 99250" d="M500.1,88.445a.714.714,0,1,0-.714.683A.7.7,0,0,0,500.1,88.445Z" transform="translate(-434.447 -87.763)" fill="#fff"/>
          </g>
          <g id="Grupo_53312" data-name="Grupo 53312" transform="translate(0 27.3)">
            <ellipse id="Elipse_3970" data-name="Elipse 3970" cx="0.714" cy="0.683" rx="0.714" ry="0.683" transform="translate(0 0)" fill="#fff"/>
            <path id="Trazado_99251" data-name="Trazado 99251" d="M424.087,95.954a.714.714,0,1,0-.713.682A.7.7,0,0,0,424.087,95.954Z" transform="translate(-416.237 -95.271)" fill="#fff"/>
            <ellipse id="Elipse_3971" data-name="Elipse 3971" cx="0.714" cy="0.683" rx="0.714" ry="0.683" transform="translate(12.846 0)" fill="#fff"/>
            <path id="Trazado_99252" data-name="Trazado 99252" d="M440.98,95.954a.714.714,0,1,0-.714.682A.7.7,0,0,0,440.98,95.954Z" transform="translate(-420.284 -95.271)" fill="#fff"/>
            <path id="Trazado_99253" data-name="Trazado 99253" d="M449.426,95.954a.714.714,0,1,0-.713.682A.7.7,0,0,0,449.426,95.954Z" transform="translate(-422.307 -95.271)" fill="#fff"/>
            <ellipse id="Elipse_3972" data-name="Elipse 3972" cx="0.714" cy="0.683" rx="0.714" ry="0.683" transform="translate(32.115 0)" fill="#fff"/>
            <path id="Trazado_99254" data-name="Trazado 99254" d="M466.319,95.954a.714.714,0,1,0-.714.682A.7.7,0,0,0,466.319,95.954Z" transform="translate(-426.354 -95.271)" fill="#fff"/>
            <ellipse id="Elipse_3973" data-name="Elipse 3973" cx="0.714" cy="0.683" rx="0.714" ry="0.683" transform="translate(44.961 0)" fill="#fff"/>
            <ellipse id="Elipse_3974" data-name="Elipse 3974" cx="0.714" cy="0.683" rx="0.714" ry="0.683" transform="translate(51.384 0)" fill="#fff"/>
            <path id="Trazado_99255" data-name="Trazado 99255" d="M491.658,95.954a.714.714,0,1,0-.714.682A.7.7,0,0,0,491.658,95.954Z" transform="translate(-432.423 -95.271)" fill="#fff"/>
            <path id="Trazado_99256" data-name="Trazado 99256" d="M500.1,95.954a.714.714,0,1,0-.714.682A.7.7,0,0,0,500.1,95.954Z" transform="translate(-434.447 -95.271)" fill="#fff"/>
          </g>
          <g id="Grupo_53313" data-name="Grupo 53313" transform="translate(0 21.84)">
            <path id="Trazado_99257" data-name="Trazado 99257" d="M415.641,103.462a.714.714,0,1,0-.714.682A.7.7,0,0,0,415.641,103.462Z" transform="translate(-414.214 -102.779)" fill="#fff"/>
            <path id="Trazado_99258" data-name="Trazado 99258" d="M424.087,103.462a.714.714,0,1,0-.713.682A.7.7,0,0,0,424.087,103.462Z" transform="translate(-416.237 -102.779)" fill="#fff"/>
            <path id="Trazado_99259" data-name="Trazado 99259" d="M432.533,103.462a.714.714,0,1,0-.713.682A.7.7,0,0,0,432.533,103.462Z" transform="translate(-418.26 -102.779)" fill="#fff"/>
            <path id="Trazado_99260" data-name="Trazado 99260" d="M440.98,103.462a.714.714,0,1,0-.714.682A.7.7,0,0,0,440.98,103.462Z" transform="translate(-420.284 -102.779)" fill="#fff"/>
            <path id="Trazado_99261" data-name="Trazado 99261" d="M449.426,103.462a.714.714,0,1,0-.713.682A.7.7,0,0,0,449.426,103.462Z" transform="translate(-422.307 -102.779)" fill="#fff"/>
            <path id="Trazado_99262" data-name="Trazado 99262" d="M457.872,103.462a.714.714,0,1,0-.713.682A.7.7,0,0,0,457.872,103.462Z" transform="translate(-424.33 -102.779)" fill="#fff"/>
            <path id="Trazado_99263" data-name="Trazado 99263" d="M466.319,103.462a.714.714,0,1,0-.714.682A.7.7,0,0,0,466.319,103.462Z" transform="translate(-426.354 -102.779)" fill="#fff"/>
            <path id="Trazado_99264" data-name="Trazado 99264" d="M474.766,103.462a.714.714,0,1,0-.713.682A.7.7,0,0,0,474.766,103.462Z" transform="translate(-428.377 -102.779)" fill="#fff"/>
            <path id="Trazado_99265" data-name="Trazado 99265" d="M483.211,103.462a.714.714,0,1,0-.713.682A.7.7,0,0,0,483.211,103.462Z" transform="translate(-430.4 -102.779)" fill="#fff"/>
            <path id="Trazado_99266" data-name="Trazado 99266" d="M491.658,103.462a.714.714,0,1,0-.714.682A.7.7,0,0,0,491.658,103.462Z" transform="translate(-432.424 -102.779)" fill="#fff"/>
            <path id="Trazado_99267" data-name="Trazado 99267" d="M500.1,103.462a.714.714,0,1,0-.714.682A.7.7,0,0,0,500.1,103.462Z" transform="translate(-434.447 -102.779)" fill="#fff"/>
          </g>
          <g id="Grupo_53314" data-name="Grupo 53314" transform="translate(0 16.38)">
            <ellipse id="Elipse_3975" data-name="Elipse 3975" cx="0.714" cy="0.683" rx="0.714" ry="0.683" transform="translate(0 0)" fill="#fff"/>
            <path id="Trazado_99268" data-name="Trazado 99268" d="M424.087,110.97a.714.714,0,1,0-.713.682A.7.7,0,0,0,424.087,110.97Z" transform="translate(-416.237 -110.287)" fill="#fff"/>
            <ellipse id="Elipse_3976" data-name="Elipse 3976" cx="0.714" cy="0.683" rx="0.714" ry="0.683" transform="translate(12.846 0)" fill="#fff"/>
            <path id="Trazado_99269" data-name="Trazado 99269" d="M440.98,110.97a.714.714,0,1,0-.714.682A.7.7,0,0,0,440.98,110.97Z" transform="translate(-420.284 -110.287)" fill="#fff"/>
            <path id="Trazado_99270" data-name="Trazado 99270" d="M449.426,110.97a.714.714,0,1,0-.713.682A.7.7,0,0,0,449.426,110.97Z" transform="translate(-422.307 -110.287)" fill="#fff"/>
            <ellipse id="Elipse_3977" data-name="Elipse 3977" cx="0.714" cy="0.683" rx="0.714" ry="0.683" transform="translate(32.115 0)" fill="#fff"/>
            <path id="Trazado_99271" data-name="Trazado 99271" d="M466.319,110.97a.714.714,0,1,0-.714.682A.7.7,0,0,0,466.319,110.97Z" transform="translate(-426.354 -110.287)" fill="#fff"/>
            <ellipse id="Elipse_3978" data-name="Elipse 3978" cx="0.714" cy="0.683" rx="0.714" ry="0.683" transform="translate(44.961 0)" fill="#fff"/>
            <ellipse id="Elipse_3979" data-name="Elipse 3979" cx="0.714" cy="0.683" rx="0.714" ry="0.683" transform="translate(51.384 0)" fill="#fff"/>
            <path id="Trazado_99272" data-name="Trazado 99272" d="M491.658,110.97a.714.714,0,1,0-.714.682A.7.7,0,0,0,491.658,110.97Z" transform="translate(-432.423 -110.287)" fill="#fff"/>
            <path id="Trazado_99273" data-name="Trazado 99273" d="M500.1,110.97a.714.714,0,1,0-.714.682A.7.7,0,0,0,500.1,110.97Z" transform="translate(-434.447 -110.287)" fill="#fff"/>
          </g>
          <g id="Grupo_53315" data-name="Grupo 53315" transform="translate(0 10.92)">
            <path id="Trazado_99274" data-name="Trazado 99274" d="M415.641,118.477a.714.714,0,1,0-.714.683A.7.7,0,0,0,415.641,118.477Z" transform="translate(-414.214 -117.794)" fill="#fff"/>
            <path id="Trazado_99275" data-name="Trazado 99275" d="M424.087,118.477a.714.714,0,1,0-.713.683A.7.7,0,0,0,424.087,118.477Z" transform="translate(-416.237 -117.794)" fill="#fff"/>
            <path id="Trazado_99276" data-name="Trazado 99276" d="M432.533,118.477a.714.714,0,1,0-.713.683A.7.7,0,0,0,432.533,118.477Z" transform="translate(-418.26 -117.794)" fill="#fff"/>
            <path id="Trazado_99277" data-name="Trazado 99277" d="M440.98,118.477a.714.714,0,1,0-.714.683A.7.7,0,0,0,440.98,118.477Z" transform="translate(-420.284 -117.794)" fill="#fff"/>
            <path id="Trazado_99278" data-name="Trazado 99278" d="M449.426,118.477a.714.714,0,1,0-.713.683A.7.7,0,0,0,449.426,118.477Z" transform="translate(-422.307 -117.794)" fill="#fff"/>
            <path id="Trazado_99279" data-name="Trazado 99279" d="M457.872,118.477a.714.714,0,1,0-.713.683A.7.7,0,0,0,457.872,118.477Z" transform="translate(-424.33 -117.794)" fill="#fff"/>
            <path id="Trazado_99280" data-name="Trazado 99280" d="M466.319,118.477a.714.714,0,1,0-.714.683A.7.7,0,0,0,466.319,118.477Z" transform="translate(-426.354 -117.794)" fill="#fff"/>
            <path id="Trazado_99281" data-name="Trazado 99281" d="M474.766,118.477a.714.714,0,1,0-.713.683A.7.7,0,0,0,474.766,118.477Z" transform="translate(-428.377 -117.794)" fill="#fff"/>
            <path id="Trazado_99282" data-name="Trazado 99282" d="M483.211,118.477a.714.714,0,1,0-.713.683A.7.7,0,0,0,483.211,118.477Z" transform="translate(-430.4 -117.794)" fill="#fff"/>
            <path id="Trazado_99283" data-name="Trazado 99283" d="M491.658,118.477a.714.714,0,1,0-.714.683A.7.7,0,0,0,491.658,118.477Z" transform="translate(-432.424 -117.794)" fill="#fff"/>
            <path id="Trazado_99284" data-name="Trazado 99284" d="M500.1,118.477a.714.714,0,1,0-.714.683A.7.7,0,0,0,500.1,118.477Z" transform="translate(-434.447 -117.794)" fill="#fff"/>
          </g>
          <g id="Grupo_53316" data-name="Grupo 53316" transform="translate(0 5.461)">
            <ellipse id="Elipse_3980" data-name="Elipse 3980" cx="0.714" cy="0.683" rx="0.714" ry="0.683" fill="#fff"/>
            <path id="Trazado_99285" data-name="Trazado 99285" d="M424.087,125.984a.714.714,0,1,0-.713.683A.7.7,0,0,0,424.087,125.984Z" transform="translate(-416.237 -125.302)" fill="#fff"/>
            <ellipse id="Elipse_3981" data-name="Elipse 3981" cx="0.714" cy="0.683" rx="0.714" ry="0.683" transform="translate(12.846)" fill="#fff"/>
            <path id="Trazado_99286" data-name="Trazado 99286" d="M440.98,125.984a.714.714,0,1,0-.714.683A.7.7,0,0,0,440.98,125.984Z" transform="translate(-420.284 -125.302)" fill="#fff"/>
            <path id="Trazado_99287" data-name="Trazado 99287" d="M449.426,125.984a.714.714,0,1,0-.713.683A.7.7,0,0,0,449.426,125.984Z" transform="translate(-422.307 -125.302)" fill="#fff"/>
            <ellipse id="Elipse_3982" data-name="Elipse 3982" cx="0.714" cy="0.683" rx="0.714" ry="0.683" transform="translate(32.115)" fill="#fff"/>
            <path id="Trazado_99288" data-name="Trazado 99288" d="M466.319,125.984a.714.714,0,1,0-.714.683A.7.7,0,0,0,466.319,125.984Z" transform="translate(-426.354 -125.302)" fill="#fff"/>
            <ellipse id="Elipse_3983" data-name="Elipse 3983" cx="0.714" cy="0.683" rx="0.714" ry="0.683" transform="translate(44.961)" fill="#fff"/>
            <ellipse id="Elipse_3984" data-name="Elipse 3984" cx="0.714" cy="0.683" rx="0.714" ry="0.683" transform="translate(51.384)" fill="#fff"/>
            <path id="Trazado_99289" data-name="Trazado 99289" d="M491.658,125.984a.714.714,0,1,0-.714.683A.7.7,0,0,0,491.658,125.984Z" transform="translate(-432.423 -125.302)" fill="#fff"/>
            <path id="Trazado_99290" data-name="Trazado 99290" d="M500.1,125.984a.714.714,0,1,0-.714.683A.7.7,0,0,0,500.1,125.984Z" transform="translate(-434.447 -125.302)" fill="#fff"/>
          </g>
          <g id="Grupo_53317" data-name="Grupo 53317" transform="translate(0)">
            <ellipse id="Elipse_3985" data-name="Elipse 3985" cx="0.714" cy="0.683" rx="0.714" ry="0.683" fill="#fff"/>
            <path id="Trazado_99291" data-name="Trazado 99291" d="M424.087,133.492a.714.714,0,1,0-.713.683A.7.7,0,0,0,424.087,133.492Z" transform="translate(-416.237 -132.81)" fill="#fff"/>
            <ellipse id="Elipse_3986" data-name="Elipse 3986" cx="0.714" cy="0.683" rx="0.714" ry="0.683" transform="translate(12.846)" fill="#fff"/>
            <path id="Trazado_99292" data-name="Trazado 99292" d="M440.98,133.492a.714.714,0,1,0-.714.683A.7.7,0,0,0,440.98,133.492Z" transform="translate(-420.284 -132.81)" fill="#fff"/>
            <path id="Trazado_99293" data-name="Trazado 99293" d="M449.426,133.492a.714.714,0,1,0-.713.683A.7.7,0,0,0,449.426,133.492Z" transform="translate(-422.307 -132.81)" fill="#fff"/>
            <ellipse id="Elipse_3987" data-name="Elipse 3987" cx="0.714" cy="0.683" rx="0.714" ry="0.683" transform="translate(32.115)" fill="#fff"/>
            <path id="Trazado_99294" data-name="Trazado 99294" d="M466.319,133.492a.714.714,0,1,0-.714.683A.7.7,0,0,0,466.319,133.492Z" transform="translate(-426.354 -132.81)" fill="#fff"/>
            <ellipse id="Elipse_3988" data-name="Elipse 3988" cx="0.714" cy="0.683" rx="0.714" ry="0.683" transform="translate(44.961)" fill="#fff"/>
            <ellipse id="Elipse_3989" data-name="Elipse 3989" cx="0.714" cy="0.683" rx="0.714" ry="0.683" transform="translate(51.384)" fill="#fff"/>
            <path id="Trazado_99295" data-name="Trazado 99295" d="M491.658,133.492a.714.714,0,1,0-.714.683A.7.7,0,0,0,491.658,133.492Z" transform="translate(-432.423 -132.81)" fill="#fff"/>
            <path id="Trazado_99296" data-name="Trazado 99296" d="M500.1,133.492a.714.714,0,1,0-.714.683A.7.7,0,0,0,500.1,133.492Z" transform="translate(-434.447 -132.81)" fill="#fff"/>
          </g>
        </g>
      </g>
    </g>
    <g id="Grupo_158748" data-name="Grupo 158748" transform="translate(219 8287.014)">
      <g id="Grupo_158749" data-name="Grupo 158749" transform="translate(0 0)">
        <path id="Trazado_154001" data-name="Trazado 154001" d="M283.684,27.609s15.582,21.613-.89,31.552S267,54.714,267,54.714l10.352-27.1Z" transform="translate(-116.933 -12.091)"/>
        <path id="Trazado_154002" data-name="Trazado 154002" d="M248.444,66.311s-8.515,1.218-14.028,11.24-10.142,37.657-9.3,38.529,19.234,3.491,34.479,3.491,20.023-.582,21.494-1.455-4.816-41.342-13.258-45.1-10.33-9.712-19.389-6.711" transform="translate(-98.548 -28.683)" fill="#6876aa"/>
        <path id="Trazado_154003" data-name="Trazado 154003" d="M247.987,65.646s-13.377,20.972-16.02,34.543a186.489,186.489,0,0,0-3.155,23.177l48.608.3.87-36.921L265,66l-6.013-3.046Z" transform="translate(-100.209 -27.571)" fill="#6f88da"/>
        <path id="Trazado_154004" data-name="Trazado 154004" d="M248.185,67.743s-6.823,25.249-8.264,34.07a155.436,155.436,0,0,0-1.739,17.25l-8.919-1.332,3.406-20.7,12.173-26.49Z" transform="translate(-100.407 -29.668)" fill="#31313c"/>
        <path id="Trazado_154005" data-name="Trazado 154005" d="M234.47,67.642s-8.734-1.729-18.825,7.476-21.274,31.345-16.605,40.128c5.009,9.422,21.762,9.993,21.762,9.993l.863-19.148L226.683,78.3Z" transform="translate(-86.692 -29.568)" fill="#31313c"/>
        <path id="Trazado_154006" data-name="Trazado 154006" d="M264.729,69.463a13.89,13.89,0,0,1-2.133-.146.353.353,0,0,1,.117-.7c.058.01,5.86.928,10.238-2.381a.353.353,0,1,1,.425.563,14.426,14.426,0,0,1-8.647,2.659" transform="translate(-114.876 -28.979)" fill="#465884"/>
        <path id="Trazado_154007" data-name="Trazado 154007" d="M228.259,132.166a.39.39,0,0,1-.247-.088,74.455,74.455,0,0,0-10.675-7.15.392.392,0,0,1,.357-.7,75.274,75.274,0,0,1,10.812,7.24.392.392,0,0,1-.247.7" transform="translate(-95.091 -54.389)" fill="#465884"/>
        <path id="Trazado_154008" data-name="Trazado 154008" d="M273.618,54.076l-.105,9.221s-1.693,2.632-7.093,3.009c-4.023.281-5.271-1.8-5.271-1.8l1.065-8.059,9.766-2.032Z" transform="translate(-114.371 -23.683)" fill="#f48462"/>
        <path id="Trazado_154009" data-name="Trazado 154009" d="M272.338,54.686a3.045,3.045,0,0,1-.278.887c-2.116,4.583-7.769,5.511-10.092,5.693l.6-4.548Z" transform="translate(-114.73 -23.95)"/>
        <path id="Trazado_154010" data-name="Trazado 154010" d="M257.05,18.242s-4.971,11.507-3.137,17.952,7.71,5.406,11.222,4.144a11.641,11.641,0,0,0,5.137-3.426,4.96,4.96,0,0,0,5.476-1.964c2.185-3.065.817-6.569-1.062-7.365s-4.105.568-4.105.568l1.735-3.345s-7.427-16.934-15.266-6.564" transform="translate(-111.025 -6.517)" fill="#f48462"/>
        <path id="Trazado_154011" data-name="Trazado 154011" d="M284.312,44.269a.392.392,0,0,1-.252-.692l3.672-3.075a.392.392,0,0,1,.5.6l-3.672,3.075a.387.387,0,0,1-.251.092" transform="translate(-124.344 -17.698)"/>
        <path id="Trazado_154012" data-name="Trazado 154012" d="M289.1,45.711a.388.388,0,0,1-.168-.038l-2.329-1.109a.392.392,0,1,1,.337-.708l2.329,1.108a.392.392,0,0,1-.169.746" transform="translate(-125.423 -19.19)"/>
        <path id="Trazado_154013" data-name="Trazado 154013" d="M272.279,26.3a10.363,10.363,0,0,1-6.6-3.688,27.212,27.212,0,0,1-3.774-6.691,5.018,5.018,0,0,0-2.789,1.656c-.8,1-1.733,2.458-1.733,2.458s-.117-4.65,2.212-6.945,4.341-1.513,4.341-1.513,5.122-2.947,10.369,1.656,2.838,13,2.838,13a6.719,6.719,0,0,0-4.866.067" transform="translate(-112.722 -4.661)"/>
        <path id="Trazado_154014" data-name="Trazado 154014" d="M259.747,42.292a.391.391,0,0,1-.379-.293,4.334,4.334,0,0,1,1.435-4.378.392.392,0,0,1,.486.615,3.549,3.549,0,0,0-1.163,3.564.392.392,0,0,1-.28.478.378.378,0,0,1-.1.013" transform="translate(-113.528 -16.44)"/>
        <path id="Trazado_154015" data-name="Trazado 154015" d="M256.653,35.206a.381.381,0,0,1-.075-.007.392.392,0,0,1-.311-.459l.543-2.824-.457-.533a.392.392,0,1,1,.6-.51l.58.677a.391.391,0,0,1,.087.329l-.579,3.01a.392.392,0,0,1-.384.318" transform="translate(-112.23 -13.46)"/>
        <path id="Trazado_154016" data-name="Trazado 154016" d="M268.3,36.529a.391.391,0,0,1-.387-.459l.5-2.905-.57-.782a.392.392,0,1,1,.633-.462l.669.916a.393.393,0,0,1,.07.3l-.529,3.069a.393.393,0,0,1-.386.325" transform="translate(-117.268 -13.91)"/>
        <path id="Trazado_154017" data-name="Trazado 154017" d="M256.793,28.032a.392.392,0,0,1-.065-.778l1.98-.337a.392.392,0,1,1,.132.773l-1.98.337a.377.377,0,0,1-.066.006" transform="translate(-112.293 -11.786)"/>
        <path id="Trazado_154018" data-name="Trazado 154018" d="M269.352,28.938a.4.4,0,0,1-.1-.013l-3.718-1.008a.392.392,0,0,1,.205-.757l3.719,1.008a.392.392,0,0,1-.1.771" transform="translate(-116.164 -11.888)"/>
        <path id="Trazado_154019" data-name="Trazado 154019" d="M261.5,51.253c-1.438,0-2.209-1.754-2.241-1.832a.39.39,0,0,1,.017-.345.4.4,0,0,1,.284-.2l3.978-.6a.389.389,0,0,1,.36.137.393.393,0,0,1,.069.379c-.083.239-.852,2.342-2.33,2.456-.047,0-.093.006-.138.006m-1.265-1.683a1.638,1.638,0,0,0,1.343.9c.579-.044,1.071-.728,1.374-1.308Z" transform="translate(-113.53 -21.14)"/>
        <path id="Trazado_154020" data-name="Trazado 154020" d="M284.305,11.181s-.389-11.607,8.506-8.871,2.929,12.76-2.326,14.976a5.492,5.492,0,0,1-7.446-2.56Z" transform="translate(-123.958 -0.829)"/>
        <path id="Trazado_154021" data-name="Trazado 154021" d="M266,74.017a8.028,8.028,0,0,1-5.437-1.956.392.392,0,0,1,.56-.549c.175.178,4.387,4.3,11.8-.751a.392.392,0,0,1,.441.648A13.106,13.106,0,0,1,266,74.017" transform="translate(-114.066 -30.96)" fill="#465884"/>
        <path id="Trazado_154022" data-name="Trazado 154022" d="M138.491,111.32l12.846,33.726-17.2-.7L128.988,118.2Z" transform="translate(-56.491 -48.753)" fill="#f48462"/>
        <path id="Trazado_154023" data-name="Trazado 154023" d="M19.79,101.483s3.6-23.33,17.5-32.429,37.606-3.363,44.49.917C90.8,75.58,97.43,98.223,97.43,98.223L86.65,108.392,88.4,123.9l-48.889.079.894-22.615Z" transform="translate(-8.667 -28.121)" fill="#ffca28"/>
        <rect id="Rect치ngulo_35596" data-name="Rect치ngulo 35596" width="236.769" height="12.73" transform="translate(0 91.419)" fill="#12263f"/>
        <path id="Trazado_154024" data-name="Trazado 154024" d="M248.191,93.121s-3.047-15.958-4.618-17.686S231.667,69.144,230.35,70.4s.022,2.833.022,2.833-1.965-1.122-2.7.053.694,3,.694,3-1.567-.986-1.36,1.2,4.5,6.189,4.5,6.189a23.283,23.283,0,0,0,3,9.274c2.748,4.8,11.112,5.019,11.112,5.019Z" transform="translate(-99.409 -30.737)" fill="#f48462"/>
        <path id="Trazado_154025" data-name="Trazado 154025" d="M240.947,79.522a.381.381,0,0,1-.181-.044L232.574,75.2a.392.392,0,1,1,.363-.7l8.192,4.273a.392.392,0,0,1-.182.74" transform="translate(-101.765 -32.612)"/>
        <path id="Trazado_154026" data-name="Trazado 154026" d="M237.145,86.149a.392.392,0,0,1-.208-.06l-8.015-5.018a.392.392,0,0,1,.416-.664l8.016,5.018a.392.392,0,0,1-.209.724" transform="translate(-100.177 -35.188)"/>
        <path id="Trazado_154027" data-name="Trazado 154027" d="M95.452,12.162s3.34-9.04-1.557-11.869c-2.528-1.46-7.572,3-7.572,3S77.887,4.6,75.732,8.678s.073,9.939.073,9.939,3.076-1.274,5-.837,14.645-5.618,14.645-5.618" transform="translate(-32.756 0)"/>
        <path id="Trazado_154028" data-name="Trazado 154028" d="M239.32,95.036s16.712,31.268,38.947,29.581,13.367-38.468,6.384-48.394-20.593-13.028-20.593-13.028l-.472,25.519-7.427-6.329Z" transform="translate(-104.811 -27.676)" fill="#31313c"/>
        <path id="Trazado_154029" data-name="Trazado 154029" d="M296.229,121.6a.391.391,0,0,1-.265-.1l-14.04-12.919a.392.392,0,0,1,.531-.577l14.04,12.919a.392.392,0,0,1-.265.681" transform="translate(-123.415 -47.256)"/>
        <path id="Trazado_154030" data-name="Trazado 154030" d="M302.326,119.771a37.364,37.364,0,0,1-8.537-1.478.391.391,0,0,1,.019-.757c1-.241,9.828-2.3,11.705-.638a1.187,1.187,0,0,1,.405,1.064,1.654,1.654,0,0,1-.777,1.228,5.332,5.332,0,0,1-2.816.58m-6.783-1.818c2.913.722,7.638,1.6,9.166.584a.881.881,0,0,0,.431-.665.4.4,0,0,0-.146-.387c-1.027-.909-5.83-.283-9.451.468" transform="translate(-128.543 -50.915)"/>
        <path id="Trazado_154031" data-name="Trazado 154031" d="M84.974,50.345l.291,8.593s1.817,2.45,7.453,2.792c4.2.255,5.641-.609,5.641-.609l-.731-4.345-.719-4.237L86.689,50.661Z" transform="translate(-37.215 -22.049)" fill="#f48462"/>
        <path id="Trazado_154032" data-name="Trazado 154032" d="M88.021,50.948a3.158,3.158,0,0,0,.3.922c2.259,4.757,8.165,5.661,10.591,5.824l-.682-4.737Z" transform="translate(-38.549 -22.313)"/>
        <path id="Trazado_154033" data-name="Trazado 154033" d="M93.144,12.749s5.315,11.946,3.475,18.69-7.981,5.726-11.659,4.449a12.147,12.147,0,0,1-5.4-3.516,5.174,5.174,0,0,1-5.734-1.987c-2.314-3.172-.927-6.842,1.025-7.694s4.288.546,4.288.546l-1.847-3.47S84.85,2.021,93.144,12.749" transform="translate(-31.805 -4.074)" fill="#f48462"/>
        <path id="Trazado_154034" data-name="Trazado 154034" d="M80.474,40.814a.389.389,0,0,1-.285-.123l-3.255-3.449a.392.392,0,1,1,.57-.538l3.255,3.449a.392.392,0,0,1-.285.661" transform="translate(-33.647 -16.021)"/>
        <path id="Trazado_154035" data-name="Trazado 154035" d="M76.881,41.591a.392.392,0,0,1-.059-.78l2.252-.341a.392.392,0,1,1,.118.775l-2.252.341a.41.41,0,0,1-.058,0" transform="translate(-33.499 -17.722)"/>
        <path id="Trazado_154036" data-name="Trazado 154036" d="M98.255,33.1a.392.392,0,0,1-.388-.342l-.394-3.089a.392.392,0,1,1,.778-.1l.394,3.089a.392.392,0,0,1-.339.438.381.381,0,0,1-.05,0" transform="translate(-42.687 -12.799)"/>
        <path id="Trazado_154037" data-name="Trazado 154037" d="M110.022,32.107a.392.392,0,0,1-.387-.335l-.446-3.033a.392.392,0,0,1,.776-.114l.446,3.033a.392.392,0,0,1-.33.445.34.34,0,0,1-.058,0" transform="translate(-47.818 -12.39)"/>
        <path id="Trazado_154038" data-name="Trazado 154038" d="M94.667,25.588a.387.387,0,0,1-.179-.044.392.392,0,0,1-.17-.528c.816-1.586,2.824-1.172,2.909-1.153a.392.392,0,0,1-.165.766c-.061-.012-1.507-.3-2.047.745a.392.392,0,0,1-.349.213" transform="translate(-41.288 -10.423)"/>
        <path id="Trazado_154039" data-name="Trazado 154039" d="M109.974,24.553a.392.392,0,0,1-.283-.12,2.226,2.226,0,0,0-2.222-.579.392.392,0,1,1-.267-.737,3.013,3.013,0,0,1,3.055.774.391.391,0,0,1-.283.662" transform="translate(-46.836 -10.053)"/>
        <path id="Trazado_154040" data-name="Trazado 154040" d="M102.407,45.159a4.993,4.993,0,0,1-3.629-1.793.392.392,0,0,1,.594-.511,4.191,4.191,0,0,0,3.048,1.521.392.392,0,0,1,.022.784h-.036" transform="translate(-43.219 -18.708)"/>
        <path id="Trazado_154041" data-name="Trazado 154041" d="M95.267,11.737s-.042-1.242-2.649-1.295A5.637,5.637,0,0,0,88.464,12.2a7.133,7.133,0,0,1-2.932,6.231,9.442,9.442,0,0,1-5.873,2.055l-3.416-.609L75.8,15.457,81.61,6.85,94.057,2.885Z" transform="translate(-33.195 -1.263)"/>
        <path id="Trazado_154042" data-name="Trazado 154042" d="M109.607,32.151a3.99,3.99,0,0,1-3.734-3.812,3.7,3.7,0,1,1,7.3-.676,3.939,3.939,0,0,1-3.27,4.474c-.1.009-.2.014-.3.014m-.162-7.516c-.076,0-.152,0-.229.011a3.158,3.158,0,0,0-2.562,3.62,2.919,2.919,0,1,0,5.744-.531,3.209,3.209,0,0,0-2.952-3.1" transform="translate(-46.359 -10.445)" fill="#6f88da"/>
        <path id="Trazado_154043" data-name="Trazado 154043" d="M92.691,34.8a4.157,4.157,0,1,1,.39-.018c-.13.012-.261.018-.39.018m.01-7.524c-.1,0-.208,0-.312.014a3.372,3.372,0,1,0,.313-.014" transform="translate(-38.779 -11.6)" fill="#6f88da"/>
        <path id="Trazado_154044" data-name="Trazado 154044" d="M101.948,31.5a.392.392,0,0,1-.164-.749,3.271,3.271,0,0,1,2.5-.185.392.392,0,1,1-.381.686c-.488-.27-1.486.071-1.8.212a.389.389,0,0,1-.162.035" transform="translate(-44.477 -13.3)" fill="#6f88da"/>
        <path id="Trazado_154045" data-name="Trazado 154045" d="M83.207,33.819a.4.4,0,0,1-.21-.061c-2.323-1.478-7.069-.722-7.117-.714a.392.392,0,0,1-.127-.774c.207-.033,5.089-.812,7.665.826a.392.392,0,0,1-.211.723" transform="translate(-33.033 -14.039)" fill="#6f88da"/>
        <path id="Trazado_154046" data-name="Trazado 154046" d="M105.741,36.783a.392.392,0,0,1-.374-.508,3.588,3.588,0,0,0-1-3.611.392.392,0,1,1,.513-.594,4.337,4.337,0,0,1,1.241,4.436.393.393,0,0,1-.375.277" transform="translate(-45.647 -14.003)"/>
        <path id="Trazado_154047" data-name="Trazado 154047" d="M86.058,131.587l17.667,10.783a1.92,1.92,0,0,0,2.232-.368l23.871-24.063a1.091,1.091,0,0,0-.094-1.788l-17.667-10.783a1.919,1.919,0,0,0-2.232.368L85.964,129.8a1.091,1.091,0,0,0,.094,1.788" transform="translate(-37.466 -46.053)"/>
        <path id="Trazado_154048" data-name="Trazado 154048" d="M89.735,133.818,107.4,144.6a1.92,1.92,0,0,0,2.232-.368l23.871-24.063a1.091,1.091,0,0,0-.094-1.788L115.745,107.6a1.918,1.918,0,0,0-2.232.368L89.641,132.03a1.091,1.091,0,0,0,.094,1.788" transform="translate(-39.076 -47.03)" fill="#31313c"/>
        <path id="Trazado_154049" data-name="Trazado 154049" d="M80.1,116.4c1-1.2,5.424-3.119,6.983-3.023,2.546.156,6.39.455,7.278.866a35.632,35.632,0,0,1,4.433,3.1l-1.268,1.8s11.706,6.112,10.759,8.522c-.645,1.641-5.839-.709-5.839-.709s5.194,2.878,4.292,4.678-7.6-1.033-7.6-1.033,5.162,3.311,2.424,4.125-21.391-4.313-22.369-9.8c-.644-3.612-.961-6.269.9-8.522" transform="translate(-34.464 -49.651)" fill="#f48462"/>
        <path id="Trazado_154050" data-name="Trazado 154050" d="M22.736,124.092s-3.985,15.145,9.89,17.2,26.366-11.8,26.366-11.8l1.728-13.964-25.948,8.349Z" transform="translate(-9.725 -50.596)" fill="#f48462"/>
        <path id="Trazado_154051" data-name="Trazado 154051" d="M114.639,134.564a.388.388,0,0,1-.178-.043l-7.711-3.927a.392.392,0,0,1,.356-.7l7.711,3.928a.392.392,0,0,1-.178.741" transform="translate(-46.658 -56.87)"/>
        <path id="Trazado_154052" data-name="Trazado 154052" d="M109.153,141.268a.383.383,0,0,1-.176-.042l-7.206-3.645a.392.392,0,0,1,.354-.7l7.205,3.645a.392.392,0,0,1-.177.741" transform="translate(-44.477 -59.929)"/>
        <path id="Trazado_154053" data-name="Trazado 154053" d="M93.079,68.717A11.143,11.143,0,0,1,84.906,65.6a.392.392,0,1,1,.559-.55c4.78,4.865,12.6,2.117,12.681,2.089a.392.392,0,0,1,.266.738,17.644,17.644,0,0,1-5.334.837" transform="translate(-37.136 -28.439)" fill="#31313c"/>
        <path id="Trazado_154054" data-name="Trazado 154054" d="M369.229,96.061s4.813-16.921,6.6-16.541-12.165,37.955-13.24,37.718,6.637-21.177,6.637-21.177" transform="translate(-158.754 -34.823)" fill="#465884"/>
        <path id="Trazado_154055" data-name="Trazado 154055" d="M360.248,115.509c-1.021.406-6.315-21.269-6.315-21.269s-2.638-8.111-3.668-13.263c-.454-2.25-.6-3.942-.085-4.15.341-.133.984,1.3,1.8,3.706,3.242,9.632,9.085,34.655,8.272,34.977" transform="translate(-153.221 -33.643)" fill="#a37b90"/>
        <path id="Trazado_154056" data-name="Trazado 154056" d="M363.8,134.952h-9.944a1.317,1.317,0,0,1-1.294-1.127l-2.55-16.554a1.325,1.325,0,0,1,1.293-1.539h15.044a1.325,1.325,0,0,1,1.294,1.539l-2.55,16.554a1.317,1.317,0,0,1-1.294,1.127" transform="translate(-153.285 -50.685)" fill="#31313c"/>
        <path id="Trazado_154057" data-name="Trazado 154057" d="M351.976,80.531l-1.711.444c-.454-2.249-.6-3.942-.085-4.15.341-.133.984,1.3,1.8,3.706" transform="translate(-153.221 -33.642)" fill="#f7b369"/>
        <path id="Trazado_154058" data-name="Trazado 154058" d="M309.245,170.257H365.2a3.632,3.632,0,0,0,3.631-3.631v-.181a3.632,3.632,0,0,0-3.631-3.631H309.245Z" transform="translate(-135.435 -71.305)" fill="#b58868"/>
        <path id="Trazado_154059" data-name="Trazado 154059" d="M308.481,170.257h35.866a3.425,3.425,0,0,0,3.425-3.425v-.594a3.426,3.426,0,0,0-3.425-3.425H308.481a1.219,1.219,0,0,0-1.219,1.219v5.006a1.219,1.219,0,0,0,1.219,1.219" transform="translate(-134.567 -71.305)" fill="#785549"/>
        <path id="Trazado_154060" data-name="Trazado 154060" d="M307.262,169.817h36.531a2.331,2.331,0,0,0,2.331-2.331v-.065a2.331,2.331,0,0,0-2.331-2.331H307.262Z" transform="translate(-134.567 -72.302)" fill="#ece8ef"/>
        <path id="Trazado_154061" data-name="Trazado 154061" d="M360.636,157.17H326.513a3.621,3.621,0,0,1,0-7.242h34.123a1.134,1.134,0,0,1,1.134,1.134v4.975a1.134,1.134,0,0,1-1.134,1.134" transform="translate(-141.412 -65.662)" fill="#ece8ef"/>
        <path id="Trazado_154062" data-name="Trazado 154062" d="M375.441,157.17H341.318a3.621,3.621,0,0,1,0-7.242h34.123a1.134,1.134,0,0,1,1.134,1.134v4.975a1.134,1.134,0,0,1-1.134,1.134" transform="translate(-147.896 -65.662)" fill="#c8bcce"/>
        <path id="Trazado_154063" data-name="Trazado 154063" d="M377.808,156.742h-35a2.3,2.3,0,1,1,0-4.6h35Z" transform="translate(-149.129 -66.632)" fill="#fff"/>
        <path id="Trazado_154064" data-name="Trazado 154064" d="M168.176,108.537s-6.882-3.913-13.154-4.436a43.893,43.893,0,0,0-11.76.7l1.48,5.551Z" transform="translate(-62.742 -45.535)" fill="#eeedef"/>
        <path id="Trazado_154065" data-name="Trazado 154065" d="M185.885,107.99s3.31-2.69,10.105-4a70.136,70.136,0,0,1,13.242-1.148l1.22,6.358Z" transform="translate(-81.409 -45.039)" fill="#eeedef"/>
        <path id="Trazado_154066" data-name="Trazado 154066" d="M197.653,146.841H147.279l-5.927-36.23h50.382Z" transform="translate(-61.906 -48.442)" fill="#afafaf"/>
        <path id="Trazado_154067" data-name="Trazado 154067" d="M192.546,146.841h-4.383l-5.66-36.23h4.21Z" transform="translate(-79.928 -48.442)" fill="#ddd5e2"/>
        <path id="Trazado_154068" data-name="Trazado 154068" d="M201.966,175.16H151.587a.392.392,0,1,1,0-.784h50.379a.392.392,0,0,1,0,.784" transform="translate(-66.217 -76.369)" fill="#b1a5b7"/>
        <path id="Trazado_154069" data-name="Trazado 154069" d="M198.029,170.762a.392.392,0,0,1-.385-.32l-.855-4.618a.863.863,0,0,0-.848-.706H174.882a.863.863,0,0,0-.856.969l.523,4.236a.393.393,0,0,1-.341.437.4.4,0,0,1-.437-.341l-.523-4.236a1.648,1.648,0,0,1,1.634-1.85H195.94a1.647,1.647,0,0,1,1.619,1.347l.855,4.618a.393.393,0,0,1-.386.463" transform="translate(-75.869 -71.97)" fill="#b1a5b7"/>
      </g>
    </g>
  </g>
</svg>
