<svg id="Grupo_158100" data-name="Grupo 158100" xmlns="http://www.w3.org/2000/svg" xmlns:xlink="http://www.w3.org/1999/xlink" width="204.871" height="100.765" viewBox="0 0 204.871 100.765">
  <defs>
    <clipPath id="clip-path">
      <rect id="Rectángulo_34881" data-name="Rectángulo 34881" width="109.084" height="55.649" fill="#12263f"/>
    </clipPath>
  </defs>
  <g id="Grupo_157916" data-name="Grupo 157916" transform="translate(0 2.27)">
    <g id="Enmascarar_grupo_63" data-name="Enmascarar grupo 63" transform="translate(0 33.114)" opacity="0.311" clip-path="url(#clip-path)">
      <path id="Trazado_151731" data-name="Trazado 151731" d="M51.939,82.008a30.07,30.07,0,1,1,30.07-30.07,30.1,30.1,0,0,1-30.07,30.07m0,21.869A51.939,51.939,0,1,0,0,51.939,51.939,51.939,0,0,0,51.939,103.877Z" transform="translate(2.253 3.711)" fill="#12263f"/>
    </g>
    <path id="Trazado_145968" data-name="Trazado 145968" d="M22.347,0A22.347,22.347,0,1,1,0,22.347,22.347,22.347,0,0,1,22.347,0Z" transform="translate(160.177)" fill="#31313c" opacity="0.444" style="mix-blend-mode: multiply;isolation: isolate"/>
    <g id="Grupo_78276" data-name="Grupo 78276" transform="translate(132.772 18.108)">
      <g id="Grupo_53306" data-name="Grupo 53306">
        <path id="Trazado_99200" data-name="Trazado 99200" d="M415.431,50.805a.609.609,0,1,1-.609-.581A.6.6,0,0,1,415.431,50.805Z" transform="translate(-414.214 -50.224)" fill="#fff"/>
        <path id="Trazado_99201" data-name="Trazado 99201" d="M423.877,50.805a.609.609,0,1,1-.608-.581A.6.6,0,0,1,423.877,50.805Z" transform="translate(-417.186 -50.224)" fill="#fff"/>
        <path id="Trazado_99202" data-name="Trazado 99202" d="M432.322,50.805a.609.609,0,1,1-.608-.581A.6.6,0,0,1,432.322,50.805Z" transform="translate(-420.158 -50.224)" fill="#fff"/>
        <path id="Trazado_99203" data-name="Trazado 99203" d="M440.77,50.805a.609.609,0,1,1-.609-.581A.6.6,0,0,1,440.77,50.805Z" transform="translate(-423.13 -50.224)" fill="#fff"/>
        <path id="Trazado_99204" data-name="Trazado 99204" d="M449.216,50.805a.609.609,0,1,1-.608-.581A.6.6,0,0,1,449.216,50.805Z" transform="translate(-426.102 -50.224)" fill="#fff"/>
        <path id="Trazado_99205" data-name="Trazado 99205" d="M457.662,50.805a.609.609,0,1,1-.608-.581A.6.6,0,0,1,457.662,50.805Z" transform="translate(-429.074 -50.224)" fill="#fff"/>
        <path id="Trazado_99206" data-name="Trazado 99206" d="M466.109,50.805a.609.609,0,1,1-.609-.581A.6.6,0,0,1,466.109,50.805Z" transform="translate(-432.047 -50.224)" fill="#fff"/>
        <path id="Trazado_99207" data-name="Trazado 99207" d="M474.555,50.805a.609.609,0,1,1-.608-.581A.6.6,0,0,1,474.555,50.805Z" transform="translate(-435.019 -50.224)" fill="#fff"/>
        <path id="Trazado_99208" data-name="Trazado 99208" d="M483,50.805a.609.609,0,1,1-.608-.581A.6.6,0,0,1,483,50.805Z" transform="translate(-437.991 -50.224)" fill="#fff"/>
        <path id="Trazado_99209" data-name="Trazado 99209" d="M491.448,50.805a.609.609,0,1,1-.609-.581A.6.6,0,0,1,491.448,50.805Z" transform="translate(-440.963 -50.224)" fill="#fff"/>
        <path id="Trazado_99210" data-name="Trazado 99210" d="M499.894,50.805a.609.609,0,1,1-.609-.581A.6.6,0,0,1,499.894,50.805Z" transform="translate(-443.935 -50.224)" fill="#fff"/>
      </g>
      <g id="Grupo_53307" data-name="Grupo 53307" transform="translate(0 4.653)">
        <path id="Trazado_99211" data-name="Trazado 99211" d="M415.431,58.313a.609.609,0,1,1-.609-.581A.6.6,0,0,1,415.431,58.313Z" transform="translate(-414.214 -57.732)" fill="#fff"/>
        <path id="Trazado_99212" data-name="Trazado 99212" d="M423.877,58.313a.609.609,0,1,1-.608-.581A.6.6,0,0,1,423.877,58.313Z" transform="translate(-417.186 -57.732)" fill="#fff"/>
        <path id="Trazado_99213" data-name="Trazado 99213" d="M432.322,58.313a.609.609,0,1,1-.608-.581A.6.6,0,0,1,432.322,58.313Z" transform="translate(-420.158 -57.732)" fill="#fff"/>
        <path id="Trazado_99214" data-name="Trazado 99214" d="M440.77,58.313a.609.609,0,1,1-.609-.581A.6.6,0,0,1,440.77,58.313Z" transform="translate(-423.13 -57.732)" fill="#fff"/>
        <path id="Trazado_99215" data-name="Trazado 99215" d="M449.216,58.313a.609.609,0,1,1-.608-.581A.6.6,0,0,1,449.216,58.313Z" transform="translate(-426.102 -57.732)" fill="#fff"/>
        <path id="Trazado_99216" data-name="Trazado 99216" d="M457.662,58.313a.609.609,0,1,1-.608-.581A.6.6,0,0,1,457.662,58.313Z" transform="translate(-429.074 -57.732)" fill="#fff"/>
        <path id="Trazado_99217" data-name="Trazado 99217" d="M466.109,58.313a.609.609,0,1,1-.609-.581A.6.6,0,0,1,466.109,58.313Z" transform="translate(-432.047 -57.732)" fill="#fff"/>
        <path id="Trazado_99218" data-name="Trazado 99218" d="M474.555,58.313a.609.609,0,1,1-.608-.581A.6.6,0,0,1,474.555,58.313Z" transform="translate(-435.019 -57.732)" fill="#fff"/>
        <path id="Trazado_99219" data-name="Trazado 99219" d="M483,58.313a.609.609,0,1,1-.608-.581A.6.6,0,0,1,483,58.313Z" transform="translate(-437.991 -57.732)" fill="#fff"/>
        <path id="Trazado_99220" data-name="Trazado 99220" d="M491.448,58.313a.609.609,0,1,1-.609-.581A.6.6,0,0,1,491.448,58.313Z" transform="translate(-440.963 -57.732)" fill="#fff"/>
        <path id="Trazado_99221" data-name="Trazado 99221" d="M499.894,58.313a.609.609,0,1,1-.609-.581A.6.6,0,0,1,499.894,58.313Z" transform="translate(-443.935 -57.732)" fill="#fff"/>
      </g>
      <g id="Grupo_53308" data-name="Grupo 53308" transform="translate(0 9.307)">
        <ellipse id="Elipse_3955" data-name="Elipse 3955" cx="0.608" cy="0.582" rx="0.608" ry="0.582" fill="#fff"/>
        <path id="Trazado_99222" data-name="Trazado 99222" d="M423.877,65.821a.609.609,0,1,1-.608-.581A.6.6,0,0,1,423.877,65.821Z" transform="translate(-417.186 -65.24)" fill="#fff"/>
        <ellipse id="Elipse_3956" data-name="Elipse 3956" cx="0.608" cy="0.582" rx="0.608" ry="0.582" transform="translate(10.948)" fill="#fff"/>
        <path id="Trazado_99223" data-name="Trazado 99223" d="M440.77,65.821a.609.609,0,1,1-.609-.581A.6.6,0,0,1,440.77,65.821Z" transform="translate(-423.13 -65.24)" fill="#fff"/>
        <path id="Trazado_99224" data-name="Trazado 99224" d="M449.216,65.821a.609.609,0,1,1-.608-.581A.6.6,0,0,1,449.216,65.821Z" transform="translate(-426.102 -65.24)" fill="#fff"/>
        <ellipse id="Elipse_3957" data-name="Elipse 3957" cx="0.608" cy="0.582" rx="0.608" ry="0.582" transform="translate(27.371)" fill="#fff"/>
        <path id="Trazado_99225" data-name="Trazado 99225" d="M466.109,65.821a.609.609,0,1,1-.609-.581A.6.6,0,0,1,466.109,65.821Z" transform="translate(-432.047 -65.24)" fill="#fff"/>
        <ellipse id="Elipse_3958" data-name="Elipse 3958" cx="0.608" cy="0.582" rx="0.608" ry="0.582" transform="translate(38.319)" fill="#fff"/>
        <ellipse id="Elipse_3959" data-name="Elipse 3959" cx="0.608" cy="0.582" rx="0.608" ry="0.582" transform="translate(43.794)" fill="#fff"/>
        <path id="Trazado_99226" data-name="Trazado 99226" d="M491.448,65.821a.609.609,0,1,1-.609-.581A.6.6,0,0,1,491.448,65.821Z" transform="translate(-440.963 -65.24)" fill="#fff"/>
        <path id="Trazado_99227" data-name="Trazado 99227" d="M499.894,65.821a.609.609,0,1,1-.609-.581A.6.6,0,0,1,499.894,65.821Z" transform="translate(-443.935 -65.24)" fill="#fff"/>
      </g>
      <g id="Grupo_53309" data-name="Grupo 53309" transform="translate(0 13.96)">
        <ellipse id="Elipse_3960" data-name="Elipse 3960" cx="0.608" cy="0.582" rx="0.608" ry="0.582" transform="translate(0 0)" fill="#fff"/>
        <path id="Trazado_99228" data-name="Trazado 99228" d="M423.877,73.329a.609.609,0,1,1-.608-.582A.6.6,0,0,1,423.877,73.329Z" transform="translate(-417.186 -72.747)" fill="#fff"/>
        <ellipse id="Elipse_3961" data-name="Elipse 3961" cx="0.608" cy="0.582" rx="0.608" ry="0.582" transform="translate(10.948 0)" fill="#fff"/>
        <path id="Trazado_99229" data-name="Trazado 99229" d="M440.77,73.329a.609.609,0,1,1-.609-.582A.6.6,0,0,1,440.77,73.329Z" transform="translate(-423.13 -72.747)" fill="#fff"/>
        <path id="Trazado_99230" data-name="Trazado 99230" d="M449.216,73.329a.609.609,0,1,1-.608-.582A.6.6,0,0,1,449.216,73.329Z" transform="translate(-426.102 -72.747)" fill="#fff"/>
        <ellipse id="Elipse_3962" data-name="Elipse 3962" cx="0.608" cy="0.582" rx="0.608" ry="0.582" transform="translate(27.371 0)" fill="#fff"/>
        <path id="Trazado_99231" data-name="Trazado 99231" d="M466.109,73.329a.609.609,0,1,1-.609-.582A.6.6,0,0,1,466.109,73.329Z" transform="translate(-432.047 -72.747)" fill="#fff"/>
        <ellipse id="Elipse_3963" data-name="Elipse 3963" cx="0.608" cy="0.582" rx="0.608" ry="0.582" transform="translate(38.319 0)" fill="#fff"/>
        <ellipse id="Elipse_3964" data-name="Elipse 3964" cx="0.608" cy="0.582" rx="0.608" ry="0.582" transform="translate(43.794 0)" fill="#fff"/>
        <path id="Trazado_99232" data-name="Trazado 99232" d="M491.448,73.329a.609.609,0,1,1-.609-.582A.6.6,0,0,1,491.448,73.329Z" transform="translate(-440.963 -72.747)" fill="#fff"/>
        <path id="Trazado_99233" data-name="Trazado 99233" d="M499.894,73.329a.609.609,0,1,1-.609-.582A.6.6,0,0,1,499.894,73.329Z" transform="translate(-443.935 -72.747)" fill="#fff"/>
      </g>
      <g id="Grupo_53310" data-name="Grupo 53310" transform="translate(0 18.613)">
        <path id="Trazado_99234" data-name="Trazado 99234" d="M415.431,80.837a.609.609,0,1,1-.609-.582A.6.6,0,0,1,415.431,80.837Z" transform="translate(-414.214 -80.255)" fill="#fff"/>
        <path id="Trazado_99235" data-name="Trazado 99235" d="M423.877,80.837a.609.609,0,1,1-.608-.582A.6.6,0,0,1,423.877,80.837Z" transform="translate(-417.186 -80.255)" fill="#fff"/>
        <path id="Trazado_99236" data-name="Trazado 99236" d="M432.322,80.837a.609.609,0,1,1-.608-.582A.6.6,0,0,1,432.322,80.837Z" transform="translate(-420.158 -80.255)" fill="#fff"/>
        <path id="Trazado_99237" data-name="Trazado 99237" d="M440.77,80.837a.609.609,0,1,1-.609-.582A.6.6,0,0,1,440.77,80.837Z" transform="translate(-423.13 -80.255)" fill="#fff"/>
        <path id="Trazado_99238" data-name="Trazado 99238" d="M449.216,80.837a.609.609,0,1,1-.608-.582A.6.6,0,0,1,449.216,80.837Z" transform="translate(-426.102 -80.255)" fill="#fff"/>
        <path id="Trazado_99239" data-name="Trazado 99239" d="M457.662,80.837a.609.609,0,1,1-.608-.582A.6.6,0,0,1,457.662,80.837Z" transform="translate(-429.074 -80.255)" fill="#fff"/>
        <path id="Trazado_99240" data-name="Trazado 99240" d="M466.109,80.837a.609.609,0,1,1-.609-.582A.6.6,0,0,1,466.109,80.837Z" transform="translate(-432.047 -80.255)" fill="#fff"/>
        <path id="Trazado_99241" data-name="Trazado 99241" d="M474.555,80.837a.609.609,0,1,1-.608-.582A.6.6,0,0,1,474.555,80.837Z" transform="translate(-435.019 -80.255)" fill="#fff"/>
        <path id="Trazado_99242" data-name="Trazado 99242" d="M483,80.837a.609.609,0,1,1-.608-.582A.6.6,0,0,1,483,80.837Z" transform="translate(-437.991 -80.255)" fill="#fff"/>
        <path id="Trazado_99243" data-name="Trazado 99243" d="M491.448,80.837a.609.609,0,1,1-.609-.582A.6.6,0,0,1,491.448,80.837Z" transform="translate(-440.963 -80.255)" fill="#fff"/>
        <path id="Trazado_99244" data-name="Trazado 99244" d="M499.894,80.837a.609.609,0,1,1-.609-.582A.6.6,0,0,1,499.894,80.837Z" transform="translate(-443.935 -80.255)" fill="#fff"/>
      </g>
      <g id="Grupo_53311" data-name="Grupo 53311" transform="translate(0 23.267)">
        <ellipse id="Elipse_3965" data-name="Elipse 3965" cx="0.608" cy="0.582" rx="0.608" ry="0.582" transform="translate(0 0)" fill="#fff"/>
        <path id="Trazado_99245" data-name="Trazado 99245" d="M423.877,88.345a.609.609,0,1,1-.608-.582A.6.6,0,0,1,423.877,88.345Z" transform="translate(-417.186 -87.763)" fill="#fff"/>
        <ellipse id="Elipse_3966" data-name="Elipse 3966" cx="0.608" cy="0.582" rx="0.608" ry="0.582" transform="translate(10.948 0)" fill="#fff"/>
        <path id="Trazado_99246" data-name="Trazado 99246" d="M440.77,88.345a.609.609,0,1,1-.609-.582A.6.6,0,0,1,440.77,88.345Z" transform="translate(-423.13 -87.763)" fill="#fff"/>
        <path id="Trazado_99247" data-name="Trazado 99247" d="M449.216,88.345a.609.609,0,1,1-.608-.582A.6.6,0,0,1,449.216,88.345Z" transform="translate(-426.102 -87.763)" fill="#fff"/>
        <ellipse id="Elipse_3967" data-name="Elipse 3967" cx="0.608" cy="0.582" rx="0.608" ry="0.582" transform="translate(27.371 0)" fill="#fff"/>
        <path id="Trazado_99248" data-name="Trazado 99248" d="M466.109,88.345a.609.609,0,1,1-.609-.582A.6.6,0,0,1,466.109,88.345Z" transform="translate(-432.047 -87.763)" fill="#fff"/>
        <ellipse id="Elipse_3968" data-name="Elipse 3968" cx="0.608" cy="0.582" rx="0.608" ry="0.582" transform="translate(38.319 0)" fill="#fff"/>
        <ellipse id="Elipse_3969" data-name="Elipse 3969" cx="0.608" cy="0.582" rx="0.608" ry="0.582" transform="translate(43.794 0)" fill="#fff"/>
        <path id="Trazado_99249" data-name="Trazado 99249" d="M491.448,88.345a.609.609,0,1,1-.609-.582A.6.6,0,0,1,491.448,88.345Z" transform="translate(-440.963 -87.763)" fill="#fff"/>
        <path id="Trazado_99250" data-name="Trazado 99250" d="M499.894,88.345a.609.609,0,1,1-.609-.582A.6.6,0,0,1,499.894,88.345Z" transform="translate(-443.935 -87.763)" fill="#fff"/>
      </g>
      <g id="Grupo_53312" data-name="Grupo 53312" transform="translate(0 27.921)">
        <ellipse id="Elipse_3970" data-name="Elipse 3970" cx="0.608" cy="0.582" rx="0.608" ry="0.582" fill="#fff"/>
        <path id="Trazado_99251" data-name="Trazado 99251" d="M423.877,95.852a.609.609,0,1,1-.608-.581A.6.6,0,0,1,423.877,95.852Z" transform="translate(-417.186 -95.271)" fill="#fff"/>
        <ellipse id="Elipse_3971" data-name="Elipse 3971" cx="0.608" cy="0.582" rx="0.608" ry="0.582" transform="translate(10.948)" fill="#fff"/>
        <path id="Trazado_99252" data-name="Trazado 99252" d="M440.77,95.852a.609.609,0,1,1-.609-.581A.6.6,0,0,1,440.77,95.852Z" transform="translate(-423.13 -95.271)" fill="#fff"/>
        <path id="Trazado_99253" data-name="Trazado 99253" d="M449.216,95.852a.609.609,0,1,1-.608-.581A.6.6,0,0,1,449.216,95.852Z" transform="translate(-426.102 -95.271)" fill="#fff"/>
        <ellipse id="Elipse_3972" data-name="Elipse 3972" cx="0.608" cy="0.582" rx="0.608" ry="0.582" transform="translate(27.371)" fill="#fff"/>
        <path id="Trazado_99254" data-name="Trazado 99254" d="M466.109,95.852a.609.609,0,1,1-.609-.581A.6.6,0,0,1,466.109,95.852Z" transform="translate(-432.047 -95.271)" fill="#fff"/>
        <ellipse id="Elipse_3973" data-name="Elipse 3973" cx="0.608" cy="0.582" rx="0.608" ry="0.582" transform="translate(38.319)" fill="#fff"/>
        <ellipse id="Elipse_3974" data-name="Elipse 3974" cx="0.608" cy="0.582" rx="0.608" ry="0.582" transform="translate(43.794)" fill="#fff"/>
        <path id="Trazado_99255" data-name="Trazado 99255" d="M491.448,95.852a.609.609,0,1,1-.609-.581A.6.6,0,0,1,491.448,95.852Z" transform="translate(-440.963 -95.271)" fill="#fff"/>
        <path id="Trazado_99256" data-name="Trazado 99256" d="M499.894,95.852a.609.609,0,1,1-.609-.581A.6.6,0,0,1,499.894,95.852Z" transform="translate(-443.935 -95.271)" fill="#fff"/>
      </g>
      <g id="Grupo_53313" data-name="Grupo 53313" transform="translate(0 32.574)">
        <path id="Trazado_99257" data-name="Trazado 99257" d="M415.431,103.36a.609.609,0,1,1-.609-.581A.6.6,0,0,1,415.431,103.36Z" transform="translate(-414.214 -102.779)" fill="#fff"/>
        <path id="Trazado_99258" data-name="Trazado 99258" d="M423.877,103.36a.609.609,0,1,1-.608-.581A.6.6,0,0,1,423.877,103.36Z" transform="translate(-417.186 -102.779)" fill="#fff"/>
        <path id="Trazado_99259" data-name="Trazado 99259" d="M432.322,103.36a.609.609,0,1,1-.608-.581A.6.6,0,0,1,432.322,103.36Z" transform="translate(-420.158 -102.779)" fill="#fff"/>
        <path id="Trazado_99260" data-name="Trazado 99260" d="M440.77,103.36a.609.609,0,1,1-.609-.581A.6.6,0,0,1,440.77,103.36Z" transform="translate(-423.13 -102.779)" fill="#fff"/>
        <path id="Trazado_99261" data-name="Trazado 99261" d="M449.216,103.36a.609.609,0,1,1-.608-.581A.6.6,0,0,1,449.216,103.36Z" transform="translate(-426.102 -102.779)" fill="#fff"/>
        <path id="Trazado_99262" data-name="Trazado 99262" d="M457.662,103.36a.609.609,0,1,1-.608-.581A.6.6,0,0,1,457.662,103.36Z" transform="translate(-429.074 -102.779)" fill="#fff"/>
        <path id="Trazado_99263" data-name="Trazado 99263" d="M466.109,103.36a.609.609,0,1,1-.609-.581A.6.6,0,0,1,466.109,103.36Z" transform="translate(-432.047 -102.779)" fill="#fff"/>
        <path id="Trazado_99264" data-name="Trazado 99264" d="M474.555,103.36a.609.609,0,1,1-.608-.581A.6.6,0,0,1,474.555,103.36Z" transform="translate(-435.019 -102.779)" fill="#fff"/>
        <path id="Trazado_99265" data-name="Trazado 99265" d="M483,103.36a.609.609,0,1,1-.608-.581A.6.6,0,0,1,483,103.36Z" transform="translate(-437.991 -102.779)" fill="#fff"/>
        <path id="Trazado_99266" data-name="Trazado 99266" d="M491.448,103.36a.609.609,0,1,1-.609-.581A.6.6,0,0,1,491.448,103.36Z" transform="translate(-440.963 -102.779)" fill="#fff"/>
        <path id="Trazado_99267" data-name="Trazado 99267" d="M499.894,103.36a.609.609,0,1,1-.609-.581A.6.6,0,0,1,499.894,103.36Z" transform="translate(-443.935 -102.779)" fill="#fff"/>
      </g>
      <g id="Grupo_53314" data-name="Grupo 53314" transform="translate(0 37.227)">
        <ellipse id="Elipse_3975" data-name="Elipse 3975" cx="0.608" cy="0.582" rx="0.608" ry="0.582" fill="#fff"/>
        <path id="Trazado_99268" data-name="Trazado 99268" d="M423.877,110.868a.609.609,0,1,1-.608-.581A.6.6,0,0,1,423.877,110.868Z" transform="translate(-417.186 -110.287)" fill="#fff"/>
        <ellipse id="Elipse_3976" data-name="Elipse 3976" cx="0.608" cy="0.582" rx="0.608" ry="0.582" transform="translate(10.948)" fill="#fff"/>
        <path id="Trazado_99269" data-name="Trazado 99269" d="M440.77,110.868a.609.609,0,1,1-.609-.581A.6.6,0,0,1,440.77,110.868Z" transform="translate(-423.13 -110.287)" fill="#fff"/>
        <path id="Trazado_99270" data-name="Trazado 99270" d="M449.216,110.868a.609.609,0,1,1-.608-.581A.6.6,0,0,1,449.216,110.868Z" transform="translate(-426.102 -110.287)" fill="#fff"/>
        <ellipse id="Elipse_3977" data-name="Elipse 3977" cx="0.608" cy="0.582" rx="0.608" ry="0.582" transform="translate(27.371)" fill="#fff"/>
        <path id="Trazado_99271" data-name="Trazado 99271" d="M466.109,110.868a.609.609,0,1,1-.609-.581A.6.6,0,0,1,466.109,110.868Z" transform="translate(-432.047 -110.287)" fill="#fff"/>
        <ellipse id="Elipse_3978" data-name="Elipse 3978" cx="0.608" cy="0.582" rx="0.608" ry="0.582" transform="translate(38.319)" fill="#fff"/>
        <ellipse id="Elipse_3979" data-name="Elipse 3979" cx="0.608" cy="0.582" rx="0.608" ry="0.582" transform="translate(43.794)" fill="#fff"/>
        <path id="Trazado_99272" data-name="Trazado 99272" d="M491.448,110.868a.609.609,0,1,1-.609-.581A.6.6,0,0,1,491.448,110.868Z" transform="translate(-440.963 -110.287)" fill="#fff"/>
        <path id="Trazado_99273" data-name="Trazado 99273" d="M499.894,110.868a.609.609,0,1,1-.609-.581A.6.6,0,0,1,499.894,110.868Z" transform="translate(-443.935 -110.287)" fill="#fff"/>
      </g>
      <g id="Grupo_53315" data-name="Grupo 53315" transform="translate(0 41.881)">
        <path id="Trazado_99274" data-name="Trazado 99274" d="M415.431,118.376a.609.609,0,1,1-.609-.582A.6.6,0,0,1,415.431,118.376Z" transform="translate(-414.214 -117.794)" fill="#fff"/>
        <path id="Trazado_99275" data-name="Trazado 99275" d="M423.877,118.376a.609.609,0,1,1-.608-.582A.6.6,0,0,1,423.877,118.376Z" transform="translate(-417.186 -117.794)" fill="#fff"/>
        <path id="Trazado_99276" data-name="Trazado 99276" d="M432.322,118.376a.609.609,0,1,1-.608-.582A.6.6,0,0,1,432.322,118.376Z" transform="translate(-420.158 -117.794)" fill="#fff"/>
        <path id="Trazado_99277" data-name="Trazado 99277" d="M440.77,118.376a.609.609,0,1,1-.609-.582A.6.6,0,0,1,440.77,118.376Z" transform="translate(-423.13 -117.794)" fill="#fff"/>
        <path id="Trazado_99278" data-name="Trazado 99278" d="M449.216,118.376a.609.609,0,1,1-.608-.582A.6.6,0,0,1,449.216,118.376Z" transform="translate(-426.102 -117.794)" fill="#fff"/>
        <path id="Trazado_99279" data-name="Trazado 99279" d="M457.662,118.376a.609.609,0,1,1-.608-.582A.6.6,0,0,1,457.662,118.376Z" transform="translate(-429.074 -117.794)" fill="#fff"/>
        <path id="Trazado_99280" data-name="Trazado 99280" d="M466.109,118.376a.609.609,0,1,1-.609-.582A.6.6,0,0,1,466.109,118.376Z" transform="translate(-432.047 -117.794)" fill="#fff"/>
        <path id="Trazado_99281" data-name="Trazado 99281" d="M474.555,118.376a.609.609,0,1,1-.608-.582A.6.6,0,0,1,474.555,118.376Z" transform="translate(-435.019 -117.794)" fill="#fff"/>
        <path id="Trazado_99282" data-name="Trazado 99282" d="M483,118.376a.609.609,0,1,1-.608-.582A.6.6,0,0,1,483,118.376Z" transform="translate(-437.991 -117.794)" fill="#fff"/>
        <path id="Trazado_99283" data-name="Trazado 99283" d="M491.448,118.376a.609.609,0,1,1-.609-.582A.6.6,0,0,1,491.448,118.376Z" transform="translate(-440.963 -117.794)" fill="#fff"/>
        <path id="Trazado_99284" data-name="Trazado 99284" d="M499.894,118.376a.609.609,0,1,1-.609-.582A.6.6,0,0,1,499.894,118.376Z" transform="translate(-443.935 -117.794)" fill="#fff"/>
      </g>
      <g id="Grupo_53316" data-name="Grupo 53316" transform="translate(0 46.534)">
        <ellipse id="Elipse_3980" data-name="Elipse 3980" cx="0.608" cy="0.582" rx="0.608" ry="0.582" transform="translate(0 0)" fill="#fff"/>
        <path id="Trazado_99285" data-name="Trazado 99285" d="M423.877,125.884a.609.609,0,1,1-.608-.582A.6.6,0,0,1,423.877,125.884Z" transform="translate(-417.186 -125.302)" fill="#fff"/>
        <ellipse id="Elipse_3981" data-name="Elipse 3981" cx="0.608" cy="0.582" rx="0.608" ry="0.582" transform="translate(10.948 0)" fill="#fff"/>
        <path id="Trazado_99286" data-name="Trazado 99286" d="M440.77,125.884a.609.609,0,1,1-.609-.582A.6.6,0,0,1,440.77,125.884Z" transform="translate(-423.13 -125.302)" fill="#fff"/>
        <path id="Trazado_99287" data-name="Trazado 99287" d="M449.216,125.884a.609.609,0,1,1-.608-.582A.6.6,0,0,1,449.216,125.884Z" transform="translate(-426.102 -125.302)" fill="#fff"/>
        <ellipse id="Elipse_3982" data-name="Elipse 3982" cx="0.608" cy="0.582" rx="0.608" ry="0.582" transform="translate(27.371 0)" fill="#fff"/>
        <path id="Trazado_99288" data-name="Trazado 99288" d="M466.109,125.884a.609.609,0,1,1-.609-.582A.6.6,0,0,1,466.109,125.884Z" transform="translate(-432.047 -125.302)" fill="#fff"/>
        <ellipse id="Elipse_3983" data-name="Elipse 3983" cx="0.608" cy="0.582" rx="0.608" ry="0.582" transform="translate(38.319 0)" fill="#fff"/>
        <ellipse id="Elipse_3984" data-name="Elipse 3984" cx="0.608" cy="0.582" rx="0.608" ry="0.582" transform="translate(43.794 0)" fill="#fff"/>
        <path id="Trazado_99289" data-name="Trazado 99289" d="M491.448,125.884a.609.609,0,1,1-.609-.582A.6.6,0,0,1,491.448,125.884Z" transform="translate(-440.963 -125.302)" fill="#fff"/>
        <path id="Trazado_99290" data-name="Trazado 99290" d="M499.894,125.884a.609.609,0,1,1-.609-.582A.6.6,0,0,1,499.894,125.884Z" transform="translate(-443.935 -125.302)" fill="#fff"/>
      </g>
      <g id="Grupo_53317" data-name="Grupo 53317" transform="translate(0 51.188)">
        <ellipse id="Elipse_3985" data-name="Elipse 3985" cx="0.608" cy="0.582" rx="0.608" ry="0.582" transform="translate(0 0)" fill="#fff"/>
        <path id="Trazado_99291" data-name="Trazado 99291" d="M423.877,133.392a.609.609,0,1,1-.608-.582A.6.6,0,0,1,423.877,133.392Z" transform="translate(-417.186 -132.81)" fill="#fff"/>
        <ellipse id="Elipse_3986" data-name="Elipse 3986" cx="0.608" cy="0.582" rx="0.608" ry="0.582" transform="translate(10.948 0)" fill="#fff"/>
        <path id="Trazado_99292" data-name="Trazado 99292" d="M440.77,133.392a.609.609,0,1,1-.609-.582A.6.6,0,0,1,440.77,133.392Z" transform="translate(-423.13 -132.81)" fill="#fff"/>
        <path id="Trazado_99293" data-name="Trazado 99293" d="M449.216,133.392a.609.609,0,1,1-.608-.582A.6.6,0,0,1,449.216,133.392Z" transform="translate(-426.102 -132.81)" fill="#fff"/>
        <ellipse id="Elipse_3987" data-name="Elipse 3987" cx="0.608" cy="0.582" rx="0.608" ry="0.582" transform="translate(27.371 0)" fill="#fff"/>
        <path id="Trazado_99294" data-name="Trazado 99294" d="M466.109,133.392a.609.609,0,1,1-.609-.582A.6.6,0,0,1,466.109,133.392Z" transform="translate(-432.047 -132.81)" fill="#fff"/>
        <ellipse id="Elipse_3988" data-name="Elipse 3988" cx="0.608" cy="0.582" rx="0.608" ry="0.582" transform="translate(38.319 0)" fill="#fff"/>
        <ellipse id="Elipse_3989" data-name="Elipse 3989" cx="0.608" cy="0.582" rx="0.608" ry="0.582" transform="translate(43.794 0)" fill="#fff"/>
        <path id="Trazado_99295" data-name="Trazado 99295" d="M491.448,133.392a.609.609,0,1,1-.609-.582A.6.6,0,0,1,491.448,133.392Z" transform="translate(-440.963 -132.81)" fill="#fff"/>
        <path id="Trazado_99296" data-name="Trazado 99296" d="M499.894,133.392a.609.609,0,1,1-.609-.582A.6.6,0,0,1,499.894,133.392Z" transform="translate(-443.935 -132.81)" fill="#fff"/>
      </g>
    </g>
  </g>
  <g id="Grupo_158097" data-name="Grupo 158097" transform="translate(23.939 0)">
    <g id="Grupo_158098" data-name="Grupo 158098">
      <g id="Grupo_158095" data-name="Grupo 158095">
        <g id="Grupo_158099" data-name="Grupo 158099">
          <path id="Trazado_152760" data-name="Trazado 152760" d="M908.338,517.084A7.083,7.083,0,0,0,901.255,510h-7.144v37.724h46.124v-30.64Z" transform="translate(-783.052 -447.39)" fill="#eac145"/>
          <path id="Trazado_152761" data-name="Trazado 152761" d="M1201.617,749.148a2.7,2.7,0,1,1-2.7-2.7,2.7,2.7,0,0,1,2.7,2.7" transform="translate(-1047.575 -654.424)" fill="#fffeeb"/>
          <path id="Trazado_152762" data-name="Trazado 152762" d="M1122.474,749.757a3.05,3.05,0,1,1,3.05-3.05,3.054,3.054,0,0,1-3.05,3.05m0-5.407a2.357,2.357,0,1,0,2.357,2.357,2.359,2.359,0,0,0-2.357-2.357" transform="translate(-980.34 -651.983)" fill="#fffeeb"/>
          <path id="Trazado_152764" data-name="Trazado 152764" d="M521.536,235.724s-.033-2.259-.067-4.111a5.38,5.38,0,0,1,3.914-5.692c2.993-1.118,3.611-4.777,5.508-4.569s.922,2.654-.139,4.538a32.725,32.725,0,0,1,2.354-3.623c.614-.6,1.7-1.464,2.344-.686,0,0,.951-1.456,2.223-.886s.413,2.037.413,2.037a1.841,1.841,0,0,1,2.775.554c1.024,1.812-2,3.277-2,3.277s1.718.662-.382,2.76-4.681,4.463-4.681,4.463l.11,1.255Z" transform="translate(-456.678 -193.39)" fill="#ffa194"/>
          <path id="Trazado_152765" data-name="Trazado 152765" d="M261.854,366.226c-5.08,7.368-13.873,10.817-22.748,10.367-10.4-.527-14.642-4.089-23.646-12.194l12.205-12.976c4.035,4.3,11.774,5.489,17.455,3.783,5.708-1.713,9.06-9.565,8.47-17.556l12.374-.683c2.9,14.493,1.787,20.7-4.11,29.258" transform="translate(-188.699 -295.613)" fill="#e8e8e8"/>
          <path id="Trazado_152766" data-name="Trazado 152766" d="M227.665,453.184,215.46,466.16c6.822,6.14,10.913,9.672,17.015,11.253l.084-5.507a12.994,12.994,0,0,0,2.3-7.67,17.542,17.542,0,0,0-1.275-7.48,13.985,13.985,0,0,1-5.914-3.573" transform="translate(-188.69 -397.416)" fill="#ddd4d1"/>
          <path id="Trazado_152767" data-name="Trazado 152767" d="M603.1,241.11a.347.347,0,0,1-.224-.612l6.161-5.206a.347.347,0,0,1,.448.53l-6.161,5.206a.345.345,0,0,1-.224.082" transform="translate(-527.859 -206.206)" fill="#db5349"/>
          <path id="Trazado_152768" data-name="Trazado 152768" d="M552.018,270.852a.353.353,0,0,1-.056,0,.347.347,0,0,1-.287-.4,4.652,4.652,0,0,1,1.982-3.244c2.341-1.6,5.884-1.069,6.716-.916,3.38-2.922,5.07-1.744,5.141-1.692l-.41.559c-.008-.005-1.4-.885-4.4,1.766a.347.347,0,0,1-.3.079c-.039-.009-3.99-.836-6.353.778a3.984,3.984,0,0,0-1.687,2.78.347.347,0,0,1-.342.291" transform="translate(-483.125 -231.729)" fill="#db5349"/>
          <path id="Trazado_152769" data-name="Trazado 152769" d="M144.412,281.858a6.024,6.024,0,1,0,6.024-6.024,6.024,6.024,0,0,0-6.024,6.024" transform="translate(-126.45 -241.841)" fill="#28121f"/>
          <path id="Trazado_152770" data-name="Trazado 152770" d="M40.951,400.166a8.853,8.853,0,1,1-8.853-8.853,8.853,8.853,0,0,1,8.853,8.853" transform="translate(-20.355 -343.119)" fill="#28121f"/>
          <path id="Trazado_152771" data-name="Trazado 152771" d="M105.33,346.85a5.833,5.833,0,1,1-5.833-5.833,5.833,5.833,0,0,1,5.833,5.833" transform="translate(-82.014 -298.989)" fill="#28121f"/>
          <path id="Trazado_152772" data-name="Trazado 152772" d="M91.839,345.841a6.18,6.18,0,1,1,6.18-6.18,6.187,6.187,0,0,1-6.18,6.18m0-11.666a5.486,5.486,0,1,0,5.486,5.486,5.492,5.492,0,0,0-5.486-5.486" transform="translate(-75.004 -292.386)" fill="#28121f"/>
          <path id="Trazado_152773" data-name="Trazado 152773" d="M194.5,366.223a4.83,4.83,0,1,0,4.83-4.83,4.83,4.83,0,0,0-4.83,4.83" transform="translate(-170.335 -316.845)" fill="#28121f"/>
          <path id="Trazado_152774" data-name="Trazado 152774" d="M688.737,153.771a.347.347,0,0,1-.283-.547l2.953-4.187a.347.347,0,0,1,.483-.083l2.1,1.483,2.552-3.618a.347.347,0,1,1,.567.4l-2.752,3.9a.347.347,0,0,1-.483.083l-2.1-1.483-2.754,3.9a.346.346,0,0,1-.284.147" transform="translate(-602.855 -128.588)" fill="#31313c"/>
          <path id="Trazado_152775" data-name="Trazado 152775" d="M62.867,721.78H98.3l-2.979-11.413H62.867Z" transform="translate(-55.047 -622.833)" fill="#28121f"/>
          <path id="Trazado_152776" data-name="Trazado 152776" d="M40.158,447.121l.185-12.162a13.181,13.181,0,0,0,2.3-7.67c.2-8.617-3.686-11.5-6.994-13.779-4.3-2.958-15.532-4.075-22.021.926C3.73,422.06-.463,435.423.04,444.9c.491,9.251,8.13,15.393,16.794,15.915,9.521.573,15.116-3.888,23.793-9.135Z" transform="translate(0 -360.692)" fill="#e8e8e8"/>
          <path id="Trazado_152777" data-name="Trazado 152777" d="M460.706,69.921a.347.347,0,0,1-.32-.212l-1.273-3.024a.347.347,0,1,1,.639-.269l1.273,3.024a.347.347,0,0,1-.319.481" transform="translate(-402.04 -57.969)" fill="#31313c"/>
          <path id="Trazado_152778" data-name="Trazado 152778" d="M409.791,119.61a.345.345,0,0,1-.182-.052l-4.848-2.992a.347.347,0,1,1,.364-.59l4.848,2.992a.347.347,0,0,1-.182.642" transform="translate(-354.322 -101.505)" fill="#31313c"/>
          <path id="Trazado_152779" data-name="Trazado 152779" d="M18.172,706.814a9.954,9.954,0,0,0-7,2.863c2.634,5.984,8.731,9.763,15.444,10.167.358.021.709.035,1.056.042a9.993,9.993,0,0,0-9.5-13.073" transform="translate(-9.783 -619.723)" fill="#ffca28"/>
          <path id="Trazado_152780" data-name="Trazado 152780" d="M123.484,440.054c-5.073,0-10.338-2.43-13.862-4.469l-.792-.458a.347.347,0,0,1,.347-.6l.792.458c3.45,2,8.6,4.376,13.515,4.376.274,0,.549-.008.815-.022a8.981,8.981,0,0,0,7.512-4.487.347.347,0,0,1,.595.357,9.647,9.647,0,0,1-8.068,4.822c-.279.016-.566.024-.853.024" transform="translate(-95.142 -380.902)" fill="#31313c"/>
          <path id="Trazado_152781" data-name="Trazado 152781" d="M144.837,413.443c-3.963-2.638-13.48-3.757-20.02-.235,3.237,1.873,8.642,4.442,13.554,4.168a7.583,7.583,0,0,0,6.466-3.933" transform="translate(-109.292 -360.311)" fill="#ffa194"/>
          <path id="Trazado_152782" data-name="Trazado 152782" d="M181.4,304.147l-.3-3.223c4.854-.456,5-1.473,4.266-6.728-.228-1.627-.407-3.359-2.776-4.815a5.633,5.633,0,0,0-8.373,3.36q-.016.067-.031.135c-.5,2.308-.536,4.381.962,5.676l.576,6.128Z" transform="translate(-152.247 -253.018)" fill="#ffa194"/>
          <path id="Trazado_152783" data-name="Trazado 152783" d="M211.058,388.76a5.127,5.127,0,0,0,2.748,1.64l-.232-2.467-2.244.178a.4.4,0,0,0-.272.649" transform="translate(-184.724 -340.083)" fill="#db5349"/>
          <path id="Trazado_152784" data-name="Trazado 152784" d="M225.7,326.024c0-.006-.623-.3-.623-.3a1.087,1.087,0,0,1,1.8-.191l-.551.422a.4.4,0,0,0-.627.074" transform="translate(-197.079 -285.025)" fill="#28121f"/>
          <path id="Trazado_152785" data-name="Trazado 152785" d="M203.439,348.408l.06-.125c-.022.041-.041.083-.06.125" transform="translate(-178.135 -305.315)" fill="#3180b5"/>
          <path id="Trazado_152786" data-name="Trazado 152786" d="M141.519,358.011a4.991,4.991,0,1,1-3.971-5.835,4.99,4.99,0,0,1,3.971,5.835" transform="translate(-115.253 -308.688)" fill="#28121f"/>
          <path id="Trazado_152787" data-name="Trazado 152787" d="M250.091,494.378h-.021a.347.347,0,0,1-.325-.367c.311-5.214.526-10.218-.255-14.131a25.059,25.059,0,0,0-2.969-7.859.347.347,0,0,1,.583-.376,25.264,25.264,0,0,1,3.066,8.1c.8,3.995.581,9.048.267,14.308a.347.347,0,0,1-.346.326" transform="translate(-215.841 -413.456)" fill="#31313c"/>
          <path id="Trazado_152788" data-name="Trazado 152788" d="M185.878,536.852a2.507,2.507,0,1,1-2.506-2.506,2.506,2.506,0,0,1,2.506,2.506" transform="translate(-158.368 -468.45)" fill="#fffeeb"/>
          <path id="Trazado_152789" data-name="Trazado 152789" d="M246.241,355.3l-2.115.238a.26.26,0,0,0-.2.38,1.39,1.39,0,0,0,1.346.721,1.253,1.253,0,0,0,1.253-1.014.261.261,0,0,0-.282-.326" transform="translate(-213.587 -311.472)" fill="#fffeeb"/>
          <path id="Trazado_152790" data-name="Trazado 152790" d="M232.091,337.939a.348.348,0,1,1-.348-.348.348.348,0,0,1,.348.348" transform="translate(-202.613 -295.944)" fill="#28121f"/>
          <path id="Trazado_152791" data-name="Trazado 152791" d="M258.368,334.8a.348.348,0,1,1-.348-.348.348.348,0,0,1,.348.348" transform="translate(-225.653 -293.195)" fill="#28121f"/>
          <path id="Trazado_152792" data-name="Trazado 152792" d="M250.54,328.76a.347.347,0,0,1-.282-.548l.458-.642-.466.044a.346.346,0,0,1-.352-.21,2.56,2.56,0,0,1-.025-2.131.347.347,0,1,1,.573.39,1.658,1.658,0,0,0,.007,1.236l.5-.047a.555.555,0,0,1,.5.875l-.635.889a.346.346,0,0,1-.282.145" transform="translate(-218.614 -285.021)" fill="#db5349"/>
          <path id="Trazado_152793" data-name="Trazado 152793" d="M251.974,322.9c0-.006-.623-.3-.623-.3a1.087,1.087,0,0,1,1.8-.191l-.551.422a.4.4,0,0,0-.627.074" transform="translate(-220.118 -282.283)" fill="#28121f"/>
          <path id="Trazado_152794" data-name="Trazado 152794" d="M175.873,280.379c-.379-2.7-3.059-4.81-6.782-3.768,0,0-5.5,1.947-5.635,5.549-.112,2.9,2.613,6.2,2.613,6.2a2.136,2.136,0,0,0,1.43-2.782c3.061-.538,1.956-6.269,1.956-6.269a3.089,3.089,0,0,1,1.147,1.829.4.4,0,0,0,.442.308l4.488-.612a.4.4,0,0,0,.34-.451" transform="translate(-143.122 -242.284)" fill="#28121f"/>
          <path id="Trazado_152795" data-name="Trazado 152795" d="M182.567,339.238a1.677,1.677,0,1,0,1.145-2.076,1.676,1.676,0,0,0-1.145,2.076" transform="translate(-159.8 -295.518)" fill="#ffa194"/>
          <path id="Trazado_152796" data-name="Trazado 152796" d="M187.76,343.628a1.028,1.028,0,1,0,.7-1.273,1.028,1.028,0,0,0-.7,1.273" transform="translate(-164.37 -300.089)" fill="#db5349"/>
          <path id="Trazado_152797" data-name="Trazado 152797" d="M193.415,361.015a1.091,1.091,0,1,1-.983-1.189,1.091,1.091,0,0,1,.983,1.189" transform="translate(-167.451 -315.437)" fill="#fffeeb"/>
          <path id="Trazado_152798" data-name="Trazado 152798" d="M205.317,271.074a.347.347,0,0,1-.221-.614,5.3,5.3,0,0,1,1.79-.892,4.337,4.337,0,0,1,3.993.833.347.347,0,1,1-.43.544,4,4,0,0,0-4.913.05.345.345,0,0,1-.22.079" transform="translate(-179.501 -236.164)" fill="#28121f"/>
          <path id="Trazado_152799" data-name="Trazado 152799" d="M187.617,301.728a.347.347,0,0,1-.231-.605,4.069,4.069,0,0,0,.966-3.33.347.347,0,0,1,.684-.113,4.7,4.7,0,0,1-1.187,3.96.345.345,0,0,1-.231.088" transform="translate(-163.977 -260.714)" fill="#70529e"/>
          <path id="Trazado_152800" data-name="Trazado 152800" d="M225.17,347.534a1.028,1.028,0,1,1-.818-1.2,1.028,1.028,0,0,1,.818,1.2" transform="translate(-195.378 -303.595)" fill="#f4756e"/>
          <path id="Trazado_152801" data-name="Trazado 152801" d="M519.576,335.557a.347.347,0,0,1-.019-.693l12.374-.683a.347.347,0,1,1,.038.692l-12.374.683h-.019" transform="translate(-454.715 -292.956)" fill="#31313c"/>
          <path id="Trazado_152802" data-name="Trazado 152802" d="M243.488,295.8a.347.347,0,0,1-.341-.289,2.357,2.357,0,0,0-.581-1.217.347.347,0,1,1,.476-.5,3.014,3.014,0,0,1,.79,1.607.347.347,0,0,1-.284.4.358.358,0,0,1-.058,0" transform="translate(-212.328 -257.465)" fill="#70529e"/>
          <path id="Trazado_152803" data-name="Trazado 152803" d="M343.548,520.55a7.083,7.083,0,0,0-7.083-7.083h-7.144V551.19h46.124V520.55Z" transform="translate(-288.415 -450.425)" fill="#12263f"/>
          <path id="Trazado_152804" data-name="Trazado 152804" d="M636.827,752.614a2.7,2.7,0,1,1-2.7-2.7,2.7,2.7,0,0,1,2.7,2.7" transform="translate(-552.961 -657.458)" fill="#fffeeb"/>
          <path id="Trazado_152805" data-name="Trazado 152805" d="M557.684,753.223a3.05,3.05,0,1,1,3.05-3.05,3.054,3.054,0,0,1-3.05,3.05m0-5.407a2.357,2.357,0,1,0,2.357,2.357,2.359,2.359,0,0,0-2.357-2.357" transform="translate(-485.717 -655.018)" fill="#fffeeb"/>
          <path id="Trazado_152807" data-name="Trazado 152807" d="M491.66,87.157a13.271,13.271,0,1,1-13.271-13.271A13.271,13.271,0,0,1,491.66,87.157" transform="translate(-407.333 -64.696)" fill="#6f88da"/>
          <path id="Trazado_152808" data-name="Trazado 152808" d="M505.541,184.5a11.045,11.045,0,0,0-9.414,5.278,11.035,11.035,0,0,0,18.828,0,11.046,11.046,0,0,0-9.414-5.278" transform="translate(-434.485 -161.758)" fill="#fffeeb"/>
          <path id="Trazado_152809" data-name="Trazado 152809" d="M543.76,105.17a4.645,4.645,0,1,1-4.645-4.645,4.645,4.645,0,0,1,4.645,4.645" transform="translate(-468.061 -88.021)" fill="#fffeeb"/>
          <path id="Trazado_152811" data-name="Trazado 152811" d="M337.189,268.041a9.434,9.434,0,1,1-9.434-9.434,9.434,9.434,0,0,1,9.434,9.434" transform="translate(-278.77 -226.761)" fill="#31313c"/>
          <path id="Trazado_152812" data-name="Trazado 152812" d="M347.057,337.241a7.852,7.852,0,0,0-6.692,3.752,7.845,7.845,0,0,0,13.385,0,7.852,7.852,0,0,0-6.692-3.752" transform="translate(-298.074 -295.662)" fill="#fffeeb"/>
          <path id="Trazado_152813" data-name="Trazado 152813" d="M374.227,280.847a3.3,3.3,0,1,1-3.3-3.3,3.3,3.3,0,0,1,3.3,3.3" transform="translate(-321.943 -243.323)" fill="#fffeeb"/>
          <path id="Trazado_152814" data-name="Trazado 152814" d="M1049.088,405.072a9.434,9.434,0,1,1-9.434-9.434,9.434,9.434,0,0,1,9.434,9.434" transform="translate(-902.23 -346.918)" fill="#12263f"/>
          <path id="Trazado_152815" data-name="Trazado 152815" d="M1058.956,474.271a7.852,7.852,0,0,0-6.692,3.752,7.845,7.845,0,0,0,13.385,0,7.852,7.852,0,0,0-6.693-3.752" transform="translate(-921.533 -415.797)" fill="#fffeeb"/>
          <path id="Trazado_152816" data-name="Trazado 152816" d="M1086.126,417.877a3.3,3.3,0,1,1-3.3-3.3,3.3,3.3,0,0,1,3.3,3.3" transform="translate(-945.401 -363.457)" fill="#fffeeb"/>
          <path id="Trazado_152817" data-name="Trazado 152817" d="M863.183,562.28a9.434,9.434,0,1,1-9.434-9.434,9.434,9.434,0,0,1,9.434,9.434" transform="translate(-739.412 -484.906)" fill="#12263f"/>
          <path id="Trazado_152818" data-name="Trazado 152818" d="M873.051,631.479a7.852,7.852,0,0,0-6.692,3.752,7.845,7.845,0,0,0,13.385,0,7.852,7.852,0,0,0-6.692-3.752" transform="translate(-758.713 -553.622)" fill="#fffeeb"/>
          <path id="Trazado_152819" data-name="Trazado 152819" d="M900.22,575.085a3.3,3.3,0,1,1-3.3-3.3,3.3,3.3,0,0,1,3.3,3.3" transform="translate(-782.578 -501.28)" fill="#fffeeb"/>
          <path id="Trazado_152820" data-name="Trazado 152820" d="M674.855,403.692a9.434,9.434,0,1,1-9.434-9.434,9.434,9.434,0,0,1,9.434,9.434" transform="translate(-574.483 -345.708)" fill="#31313c"/>
          <path id="Trazado_152821" data-name="Trazado 152821" d="M685.049,418.116l-1.635,3.313a.514.514,0,0,1-.387.281l-3.656.531a.514.514,0,0,0-.285.877l2.646,2.579a.514.514,0,0,1,.148.455l-.625,3.641a.514.514,0,0,0,.746.542l3.27-1.719a.514.514,0,0,1,.479,0l3.27,1.719a.514.514,0,0,0,.746-.542l-.625-3.641a.514.514,0,0,1,.148-.455l2.646-2.579a.514.514,0,0,0-.285-.877l-3.656-.531a.515.515,0,0,1-.387-.281l-1.635-3.313a.514.514,0,0,0-.922,0" transform="translate(-594.572 -366.34)" fill="#fffeeb"/>
          <path id="Trazado_152822" data-name="Trazado 152822" d="M260.8,156.621l-1.141,2.312a.359.359,0,0,1-.27.2l-2.551.371a.359.359,0,0,0-.2.612l1.846,1.8a.358.358,0,0,1,.1.318l-.436,2.541a.359.359,0,0,0,.521.378l2.282-1.2a.359.359,0,0,1,.334,0l2.282,1.2a.359.359,0,0,0,.521-.378l-.436-2.541a.359.359,0,0,1,.1-.318l1.846-1.8a.359.359,0,0,0-.2-.612l-2.551-.371a.359.359,0,0,1-.27-.2l-1.141-2.312a.359.359,0,0,0-.644,0" transform="translate(-224.651 -137.138)" fill="#ffca28"/>
          <path id="Trazado_152823" data-name="Trazado 152823" d="M914.06,418.129l-1.141,2.312a.359.359,0,0,1-.27.2l-2.551.371a.359.359,0,0,0-.2.612l1.846,1.8a.358.358,0,0,1,.1.318l-.436,2.541a.359.359,0,0,0,.521.378l2.282-1.2a.359.359,0,0,1,.334,0l2.282,1.2a.359.359,0,0,0,.521-.378l-.436-2.541a.359.359,0,0,1,.1-.318l1.846-1.8a.359.359,0,0,0-.2-.612l-2.551-.371a.359.359,0,0,1-.27-.2l-1.141-2.312a.359.359,0,0,0-.644,0" transform="translate(-796.744 -366.408)" fill="#ffca28"/>
          <path id="Trazado_152824" data-name="Trazado 152824" d="M547.808.147l-.837,1.7a.263.263,0,0,1-.2.144l-1.872.272a.263.263,0,0,0-.146.449l1.354,1.32a.263.263,0,0,1,.076.233l-.32,1.864a.263.263,0,0,0,.382.277l1.674-.88a.263.263,0,0,1,.245,0l1.674.88a.263.263,0,0,0,.382-.277l-.32-1.864a.263.263,0,0,1,.076-.233l1.354-1.32a.263.263,0,0,0-.146-.449l-1.872-.272a.264.264,0,0,1-.2-.144l-.837-1.7a.263.263,0,0,0-.472,0" transform="translate(-476.996 0)" fill="#785549"/>
          <path id="Trazado_152825" data-name="Trazado 152825" d="M841.156,205.224l-2.671,5.412a.84.84,0,0,1-.632.459l-5.972.868a.84.84,0,0,0-.466,1.433l4.322,4.212a.839.839,0,0,1,.241.744l-1.02,5.948a.84.84,0,0,0,1.219.885l5.342-2.808a.839.839,0,0,1,.782,0l5.342,2.808a.84.84,0,0,0,1.219-.885l-1.02-5.948a.841.841,0,0,1,.242-.744L852.4,213.4a.84.84,0,0,0-.466-1.433l-5.972-.868a.84.84,0,0,1-.633-.459l-2.671-5.412a.84.84,0,0,0-1.507,0" transform="translate(-727.895 -179.546)" fill="#ffca28"/>
          <path id="Trazado_152826" data-name="Trazado 152826" d="M702.255,202.944l-1.141,2.312a.359.359,0,0,1-.27.2l-2.551.371a.359.359,0,0,0-.2.612l1.846,1.8a.358.358,0,0,1,.1.318l-.436,2.541a.359.359,0,0,0,.521.378l2.282-1.2a.359.359,0,0,1,.334,0l2.282,1.2a.359.359,0,0,0,.521-.378l-.436-2.541a.359.359,0,0,1,.1-.318l1.846-1.8a.359.359,0,0,0-.2-.612l-2.551-.371a.359.359,0,0,1-.27-.2l-1.141-2.312a.359.359,0,0,0-.644,0" transform="translate(-611.256 -177.75)" fill="#ffca28"/>
          <path id="Trazado_152827" data-name="Trazado 152827" d="M284.436,577.835s2.274-5.092,3.078-6.474a1.628,1.628,0,0,1,3.029,1.169c-.156.828-.33,1.86-.548,3,0,0,1.941-1.163,3.379-1.905,4.07-2.1,4.92-1.518,5.394-.739.444.729.468,1.677-1.067,2.549-.425.241-1.026.579-1.9,1.127,3.4-2.011,4.5-1.161,4.938-.552a1.782,1.782,0,0,1-.684,2.777c-.181.11-.387.2-.593.309a1.615,1.615,0,0,1,1.835.743c.529.844.378,1.862-1.177,2.9-.263.174-.558.361-.868.55a1.138,1.138,0,0,1,1.287.844c.484,1.68-1.571,2.266-4.143,3.369s-9.882,3.781-9.882,3.781l-5.7-11.068Z" transform="translate(-245.931 -500.288)" fill="#ffa194"/>
          <path id="Trazado_152828" data-name="Trazado 152828" d="M355.468,616.923a.347.347,0,0,1-.163-.653l6.007-3.2a.347.347,0,0,1,.326.612l-6.007,3.2a.346.346,0,0,1-.163.041" transform="translate(-310.995 -537.418)" fill="#db5349"/>
          <path id="Trazado_152829" data-name="Trazado 152829" d="M368.4,641.869a.347.347,0,0,1-.157-.656l7.449-3.776a.347.347,0,1,1,.314.618l-7.449,3.776a.345.345,0,0,1-.156.038" transform="translate(-322.316 -558.79)" fill="#db5349"/>
          <path id="Trazado_152830" data-name="Trazado 152830" d="M380.2,673.407a.347.347,0,0,1-.142-.663l5.983-2.689a.347.347,0,1,1,.284.632l-5.983,2.689a.345.345,0,0,1-.142.031" transform="translate(-332.65 -587.51)" fill="#db5349"/>
          <path id="Trazado_152831" data-name="Trazado 152831" d="M343.426,590.434c.218-1.136.392-2.168.548-3l-2.1,3.463a.2.2,0,0,0,.278.282Z" transform="translate(-299.364 -514.987)" fill="#db5349"/>
          <path id="Trazado_152832" data-name="Trazado 152832" d="M160.78,547.9a.347.347,0,0,1-.308-.188l-5.524-10.686c-.626.239-1.36.557-2.131.891a34,34,0,0,1-7.394,2.534,9.48,9.48,0,0,1-3.744-.009,5.787,5.787,0,0,1-3.151-1.881,6.834,6.834,0,0,1-1.294-4.887,23.687,23.687,0,0,1,1.17-5.894,50.047,50.047,0,0,1,2.9-7.111.347.347,0,1,1,.615.32,49.306,49.306,0,0,0-2.86,7.007c-1.063,3.389-1.927,7.9-.011,10.112a5.472,5.472,0,0,0,4.394,1.831,11.065,11.065,0,0,0,1.861-.17,33.5,33.5,0,0,0,7.235-2.486c.9-.391,1.752-.76,2.456-1.013a.347.347,0,0,1,.426.167l5.665,10.959a.347.347,0,0,1-.308.506" transform="translate(-120.153 -456.57)" fill="#31313c"/>
          <path id="Trazado_152833" data-name="Trazado 152833" d="M735.974,685.916a2.546,2.546,0,1,1-2.546-2.546,2.546,2.546,0,0,1,2.546,2.546" transform="translate(-640.064 -599.195)" fill="#31313c"/>
          <path id="Trazado_152834" data-name="Trazado 152834" d="M776.915,289.91a2.546,2.546,0,1,1-2.546-2.546,2.546,2.546,0,0,1,2.546,2.546" transform="translate(-675.918 -251.926)" fill="#31313c"/>
          <path id="Trazado_152835" data-name="Trazado 152835" d="M1027.488,275.768a2.546,2.546,0,1,1-2.546-2.546,2.546,2.546,0,0,1,2.546,2.546" transform="translate(-895.38 -239.528)" fill="#31313c"/>
        </g>
      </g>
    </g>
  </g>
</svg>
