<svg xmlns="http://www.w3.org/2000/svg" width="103.887" height="116.263" viewBox="0 0 103.887 116.263">
  <g id="Grupo_1018674" data-name="Grupo 1018674" transform="translate(40.412) rotate(25)">
    <g id="Grupo_80184" data-name="Grupo 80184">
      <path id="Trazado_151717" data-name="Trazado 151717" d="M0,95.624s8.885-22.04,11.282-44.86c2.394-22.792,0-38.747,0-38.747S31.5,10.153,45.17,7.044A252.166,252.166,0,0,0,70.035,0s.118,22.468-1.658,36.053c-3.765,28.8-10.222,41.958-10.222,41.958s-6.1,5.508-25,10.671A252.128,252.128,0,0,1,0,95.624" fill="#fff"/>
      <path id="Trazado_151718" data-name="Trazado 151718" d="M37.561,27.876a.414.414,0,0,1-.047-.826c.1-.011,9.6-1.122,17.089-2.755s15.35-4.245,15.429-4.271a.414.414,0,1,1,.262.786c-.079.026-7.982,2.651-15.514,4.294S37.705,27.862,37.61,27.873a.364.364,0,0,1-.049,0" transform="translate(-10.211 -5.499)" fill="#31313c"/>
      <path id="Trazado_151719" data-name="Trazado 151719" d="M28.287,56.394a.414.414,0,0,1-.05-.825c.138-.017,13.9-1.725,21.4-3.359s19.578-5.292,19.7-5.329a.415.415,0,0,1,.241.793c-.122.037-12.236,3.7-19.763,5.345s-21.333,3.355-21.472,3.372a.416.416,0,0,1-.051,0" transform="translate(-7.662 -12.882)" fill="#31313c"/>
      <path id="Trazado_151720" data-name="Trazado 151720" d="M26.929,68.11a.414.414,0,0,1-.05-.824c.138-.017,13.905-1.725,21.4-3.36s19.577-5.291,19.7-5.328a.415.415,0,0,1,.241.793c-.122.037-12.235,3.7-19.763,5.345s-21.333,3.354-21.471,3.372l-.052,0" transform="translate(-7.289 -16.103)" fill="#31313c"/>
      <path id="Trazado_151721" data-name="Trazado 151721" d="M25.75,80.111a.415.415,0,0,1-.05-.826c.138-.017,13.905-1.724,21.4-3.359s19.579-5.292,19.7-5.329a.415.415,0,0,1,.241.793c-.123.037-12.238,3.7-19.764,5.345S25.94,80.091,25.8,80.108a.327.327,0,0,1-.052,0" transform="translate(-6.965 -19.402)" fill="#31313c"/>
      <path id="Trazado_151722" data-name="Trazado 151722" d="M24.079,94.137a.414.414,0,0,1-.05-.825c.138-.017,13.9-1.725,21.4-3.359a.414.414,0,0,1,.177.809c-7.529,1.643-21.333,3.355-21.471,3.372a.416.416,0,0,1-.051,0" transform="translate(-6.505 -24.724)" fill="#31313c"/>
    </g>
  </g>
</svg>
