<svg xmlns="http://www.w3.org/2000/svg" xmlns:xlink="http://www.w3.org/1999/xlink" width="74.812" height="53.829" viewBox="0 0 74.812 53.829">
  <defs>
    <clipPath id="clip-path">
      <rect id="Rectángulo_34871" data-name="Rectángulo 34871" width="67.526" height="33.679" fill="none"/>
    </clipPath>
  </defs>
  <g id="Grupo_1015140" data-name="Grupo 1015140" transform="translate(10.965 0) rotate(19)">
    <path id="Trazado_151728" data-name="Trazado 151728" d="M0,0,67.526,5.733,61.318,14.32,59.9,29.914,50.73,27.366l-4.592,6.313Z" transform="translate(0 0)" fill="#afafaf"/>
    <path id="Trazado_151729" data-name="Trazado 151729" d="M7.215,29.691l9.174,2.547L17.8,16.645Z" transform="translate(43.516 -2.325)" fill="#361524"/>
    <g id="Grupo_80186" data-name="Grupo 80186" transform="translate(0 0)">
      <g id="Grupo_80185" data-name="Grupo 80185" clip-path="url(#clip-path)">
        <path id="Trazado_151730" data-name="Trazado 151730" d="M66.482,14.837a.492.492,0,0,0,.112-.97L7.818.2A.492.492,0,1,0,7.6,1.16L66.371,14.825a.494.494,0,0,0,.111.013" transform="translate(-5.654 -0.027)" fill="#361524"/>
      </g>
    </g>
  </g>
</svg>
