<svg id="Grupo_1015142" data-name="Grupo 1015142" xmlns="http://www.w3.org/2000/svg" xmlns:xlink="http://www.w3.org/1999/xlink" width="64.062" height="74.378" viewBox="0 0 64.062 74.378">
  <defs>
    <clipPath id="clip-path">
      <rect id="Rectángulo_34870" data-name="Rectángulo 34870" width="64.062" height="74.378" fill="none"/>
    </clipPath>
  </defs>
  <g id="Grupo_80182" data-name="Grupo 80182" transform="translate(0 0)" clip-path="url(#clip-path)">
    <path id="Trazado_151723" data-name="Trazado 151723" d="M20.6,73.916l11.22,12.9S20.91,98.789,14.769,92.954a11.528,11.528,0,0,1-1.223-3.445c-.744-6.41,1.837-18.357,1.837-18.357Z" transform="translate(22.631 -20.179)" fill="#08101a"/>
    <path id="Trazado_151724" data-name="Trazado 151724" d="M1.476,28.864l3.644,4.447.573.712L21.882,53.8l.557.7,4.823,5.888.614.753L37.4,72.771a.132.132,0,0,0-.008-.032c-.123-.385-1.2-4.447,2.98-11.374A19.392,19.392,0,0,1,45.465,56.3c7.279-5.364,18.6-9.826,18.6-9.826S54.456,36.079,42.419,22.109C34.238,12.627,25.608,0,25.608,0S12.834,6.96,7.307,12.488C3.572,16.221-2.929,21.593,1.476,28.864" transform="translate(0 0)" fill="#31313c"/>
    <path id="Trazado_151725" data-name="Trazado 151725" d="M22.14,77.043l.614.753a23.819,23.819,0,0,1,2.588-5.814c3.914-6.231,10.8-9.843,17.458-12.414.491-.188.279-.983-.213-.794-6.87,2.654-13.92,6.371-17.949,12.791a23.7,23.7,0,0,0-2.5,5.478" transform="translate(5.123 -16.66)" fill="#fff"/>
    <path id="Trazado_151726" data-name="Trazado 151726" d="M31.178,67.865l.557.7A36.023,36.023,0,0,1,50.749,50.423c.484-.2.27-.991-.221-.794A36.932,36.932,0,0,0,31.178,67.865" transform="translate(-9.296 -14.066)" fill="#fff"/>
    <path id="Trazado_151727" data-name="Trazado 151727" d="M53.681,38.709l.573.712A36.035,36.035,0,0,1,73.9,19.859c.475-.2.262-.991-.221-.794a36.955,36.955,0,0,0-20,19.644" transform="translate(-48.56 -5.398)" fill="#fff"/>
  </g>
</svg>
