<svg xmlns="http://www.w3.org/2000/svg" xmlns:xlink="http://www.w3.org/1999/xlink" width="83.769" height="72.21" viewBox="0 0 83.769 72.21">
  <defs>
    <clipPath id="clip-path">
      <rect id="Rectángulo_34868" data-name="Rectángulo 34868" width="73.259" height="58.252" fill="none"/>
    </clipPath>
  </defs>
  <g id="Grupo_1015146" data-name="Grupo 1015146" transform="matrix(0.978, -0.208, 0.208, 0.978, 100, 2.231)">
    <g id="Grupo_80178" data-name="Grupo 80178" transform="translate(-100.518 -8.075)" clip-path="url(#clip-path)">
      <path id="Trazado_151703" data-name="Trazado 151703" d="M18.537,4.985,3.16,5.038A3.17,3.17,0,0,0,0,8.221L.143,49.432a4.927,4.927,0,0,0,4.943,4.911l53.923-.187a2.981,2.981,0,0,0,2.971-2.99l-.134-38.385a2.579,2.579,0,0,0-2.589-2.571L27.8,10.318Z" transform="translate(0 3.904)" fill="#c99905"/>
      <path id="Trazado_151704" data-name="Trazado 151704" d="M61.954,42.591l-.093-26.657L.032,16.148.125,42.805a2.978,2.978,0,0,0,2.99,2.969l55.868-.193a2.98,2.98,0,0,0,2.971-2.99" transform="translate(0.025 12.478)" fill="#ffca28"/>
      <path id="Trazado_151705" data-name="Trazado 151705" d="M1.957,17.58l.007,1.936,54.761-.191-.007-1.935A5.793,5.793,0,0,0,50.9,11.617l-43.176.15A5.792,5.792,0,0,0,1.957,17.58" transform="translate(1.533 9.097)" fill="#fff"/>
      <path id="Trazado_151706" data-name="Trazado 151706" d="M31.117,14.39l.012,3.718-2.4.009L28.715,14.4a1.2,1.2,0,1,1,2.4-.009" transform="translate(22.487 10.332)" fill="#f0e8e0"/>
      <path id="Trazado_151707" data-name="Trazado 151707" d="M28.077,14.4l.012,3.718-2.4.009-.012-3.718a1.2,1.2,0,0,1,2.4-.009" transform="translate(20.106 10.34)" fill="#f0e8e0"/>
      <path id="Trazado_151708" data-name="Trazado 151708" d="M25.038,14.411l.012,3.718-2.4.009-.012-3.718a1.2,1.2,0,1,1,2.4-.009" transform="translate(17.726 10.349)" fill="#f0e8e0"/>
      <path id="Trazado_151709" data-name="Trazado 151709" d="M22,14.421l.012,3.718-2.4.009L19.6,14.43a1.2,1.2,0,1,1,2.4-.009" transform="translate(15.346 10.356)" fill="#f0e8e0"/>
      <path id="Trazado_151710" data-name="Trazado 151710" d="M18.958,14.432l.012,3.718-2.4.009-.012-3.718a1.2,1.2,0,0,1,2.4-.009" transform="translate(12.965 10.365)" fill="#f0e8e0"/>
      <path id="Trazado_151711" data-name="Trazado 151711" d="M15.919,14.442l.012,3.718-2.4.009-.012-3.718a1.2,1.2,0,0,1,2.4-.009" transform="translate(10.585 10.373)" fill="#f0e8e0"/>
      <path id="Trazado_151712" data-name="Trazado 151712" d="M12.879,14.453l.012,3.718-2.4.009-.012-3.718a1.2,1.2,0,0,1,2.4-.009" transform="translate(8.205 10.382)" fill="#f0e8e0"/>
      <path id="Trazado_151713" data-name="Trazado 151713" d="M9.839,14.463l.012,3.718-2.4.009-.012-3.718a1.2,1.2,0,0,1,2.4-.009" transform="translate(5.824 10.389)" fill="#f0e8e0"/>
      <path id="Trazado_151714" data-name="Trazado 151714" d="M6.8,14.474l.012,3.718-2.4.009L4.4,14.483a1.2,1.2,0,1,1,2.4-.009" transform="translate(3.443 10.398)" fill="#f0e8e0"/>
      <path id="Trazado_151715" data-name="Trazado 151715" d="M53.323,13.933A13.933,13.933,0,1,1,39.39,0,13.932,13.932,0,0,1,53.323,13.933" transform="translate(19.935 0)" fill="#12263f"/>
      <path id="Trazado_151716" data-name="Trazado 151716" d="M33.764,17.342h0a1.352,1.352,0,0,1-.956-.4l-3.415-3.415a1.352,1.352,0,0,1,1.911-1.911l2.459,2.459L43.345,4.5a1.352,1.352,0,1,1,1.911,1.911L34.72,16.946a1.352,1.352,0,0,1-.956.4" transform="translate(22.708 3.212)" fill="#fff"/>
    </g>
  </g>
</svg>
