<svg xmlns="http://www.w3.org/2000/svg" xmlns:xlink="http://www.w3.org/1999/xlink" width="71.932" height="71.932" viewBox="0 0 71.932 71.932">
  <defs>
    <clipPath id="clip-path">
      <rect id="Rectángulo_351069" data-name="Rectángulo 351069" width="30.234" height="37.457" fill="none"/>
    </clipPath>
  </defs>
  <g id="Grupo_1015138" data-name="Grupo 1015138" transform="translate(-968.333 -135)">
    <circle id="Elipse_8447" data-name="Elipse 8447" cx="35.966" cy="35.966" r="35.966" transform="translate(968.333 135)" fill="#f1f5fa"/>
    <circle id="Elipse_8448" data-name="Elipse 8448" cx="30.134" cy="30.134" r="30.134" transform="translate(974.165 140.832)" fill="#fff"/>
    <g id="Grupo_1014662" data-name="Grupo 1014662" transform="translate(989.182 152.237)">
      <g id="Grupo_1014661" data-name="Grupo 1014661" clip-path="url(#clip-path)">
        <path id="Trazado_728076" data-name="Trazado 728076" d="M0,34.823v-.585c.136-.086.07-.222.07-.332Q.075,21,.07,8.086c0-.11.067-.246-.07-.331V7.609a.676.676,0,0,1,.589-.458c.3.048.516.178.514.523,0,.024,0,.049,0,.073q0,11.956,0,23.912c0,.107-.028.222.06.313-.07.218.026.152.13.077a3.155,3.155,0,0,1,2.082-.521c.1.005.222.057.3-.067.11-.127.059-.28.059-.421q0-14.765,0-29.53c0-.135.071-.295-.079-.405a3.169,3.169,0,0,0-1.379.141A1.861,1.861,0,0,0,1.154,2.925.368.368,0,0,0,1.1,3.2q0,1.219,0,2.439a.579.579,0,0,1-.516.444.489.489,0,0,1-.518-.446Q.07,4.317.072,3c0-.076.043-.174-.072-.215V2.634c.091-.273.164-.554.275-.819A2.942,2.942,0,0,1,3.057,0Q15.979,0,28.9,0c.049,0,.1,0,.146,0A1.214,1.214,0,0,1,30.21,1.018q.022.51.022,1.02,0,14.334,0,28.667c0,1.682,0,3.364,0,5.046a3.2,3.2,0,0,1-.066.9c-.116.395-.456.586-.762.806H2.414c-.011-.02-.02-.055-.034-.057A2.923,2.923,0,0,1,.47,36.047,4.915,4.915,0,0,1,0,34.823m29.107-2.19a2.218,2.218,0,0,0-1.308.009c0,1.164,0,2.328,0,3.492,0,.072-.054.175.07.212a3.825,3.825,0,0,0,1.254-.058.245.245,0,0,0,.061-.2q0-1.615,0-3.231c0-.083.011-.172-.077-.227l0,0m-1.1-1.111a2.623,2.623,0,0,0,1.1-.068l.012.008c.106-.114.062-.255.062-.384q0-14.762,0-29.524c0-.129.044-.27-.059-.385a3.1,3.1,0,0,0-1.11-.059c-.048,0-.1-.012-.145-.012q-11.425,0-22.849,0c-.082,0-.2-.068-.249.068,0,.049-.011.1-.011.146q0,14.959,0,29.918c0,.094-.07.223.075.286h1.6a.655.655,0,0,1,.457.539.052.052,0,0,0,0,.06.576.576,0,0,1-.375.442l-.083.044c-1.175.007-2.351,0-3.526.025a1.7,1.7,0,0,0-1.592,1.1c-.073.067-.122.135,0,.2.134,0,.267.012.4.012h8.3a1.462,1.462,0,0,1,.328.008.543.543,0,0,1,.48.538.532.532,0,0,1-.5.55,2.656,2.656,0,0,1-.292,0H1.256a1.756,1.756,0,0,0,1.68,1.318H25.268c.109,0,.219-.008.328-.012,1.14.063,1.14.063,1.1-1.064a.221.221,0,0,1,0-.036c.021-.152-.031-.218-.2-.209-.3.015-.6.012-.905.016-.134,0-.267-.013-.4-.013q-6.231,0-12.461.006a.545.545,0,0,1-.55-.364c-.116-.247,0-.427.158-.612s.381-.126.574-.127q6.139-.008,12.279,0c.134,0,.267-.009.4-.013,1.168.073,1.175.063,1.108-1.1-.009-.15-.036-.218-.2-.209-.3.016-.6.013-.9.018-.146-.005-.292-.015-.437-.015l-16.272,0c-.158,0-.316-.013-.474-.02-.036-.057-.059-.033-.078.013a.579.579,0,0,1-.375-.56c0-.231.165-.361.3-.517.177-.206.349.115.514-.017.146,0,.292.011.438.011q7.112,0,14.223,0,2.285,0,4.57-.008" fill="#12263f"/>
        <path id="Trazado_728077" data-name="Trazado 728077" d="M0,105.739c.137.086.07.221.07.331q.006,12.91,0,25.82c0,.11.067.246-.07.331Z" transform="translate(0 -97.984)" fill="#878383"/>
        <path id="Trazado_728078" data-name="Trazado 728078" d="M.589,78.281A.676.676,0,0,0,0,78.739V76.764l.034,0,.033.008a.489.489,0,0,0,.518.446l0,1.066" transform="translate(0 -71.13)" fill="#f8f2f2"/>
        <path id="Trazado_728079" data-name="Trazado 728079" d="M.067,40.768.034,40.76l-.034,0V37.911c.115.041.072.139.072.215,0,.881,0,1.762-.005,2.642" transform="translate(0 -35.131)" fill="#878383"/>
        <path id="Trazado_728080" data-name="Trazado 728080" d="M64.98,14.871c.051-.136.167-.068.249-.068q11.425-.006,22.849,0c.048,0,.1.008.145.012q0,11.477,0,22.953,0,3.691,0,7.383c-.17,0-.341.009-.511.009q-9.131,0-18.262,0c-.153,0-.318-.053-.458.06-.165.132-.337-.189-.514.017-.135.157-.3.286-.3.517l-.942.008-.127,0a.655.655,0,0,0-.457-.539,9.146,9.146,0,0,0-1.6-.068c0-.17-.01-.341-.01-.511q0-14.657,0-29.314c0-.152.057-.317-.058-.457M75.36,34.264a5.87,5.87,0,0,0-1.4.059,1.126,1.126,0,0,0-.954.89,7.348,7.348,0,0,0-.061,1.471.367.367,0,0,1-.122.056A1.1,1.1,0,0,0,71.764,37.9c.039.435.007.876.008,1.314a1.029,1.029,0,0,0,1.039,1.042q2.958,0,5.916,0c.949,0,1.9-.011,2.847-.017.047.016.06-.017.074-.05a.983.983,0,0,0,.877-.95,3.851,3.851,0,0,0,0-1.543,1.057,1.057,0,0,0-.621-.859c-.173-.091-.455,0-.53-.182a1.847,1.847,0,0,1-.02-.648c0-.158,0-.315,0-.473a1.176,1.176,0,0,0-1.024-1.21,6.456,6.456,0,0,0-1.379-.066q-.006-5.376-.017-10.753c0-.224.109-.22.269-.22,1.17,0,2.34.005,3.51,0,.236,0,.29.036.188.284-.485,1.182-.927,2.382-1.425,3.559-.223.528-.285,1.179-.918,1.46-.038.017-.056.075-.084.114a2.345,2.345,0,0,0-.2,1.617,1.658,1.658,0,0,0,1.541,1.45c1.353.009,2.706.005,4.059,0a1.209,1.209,0,0,0,.8-.262,1.754,1.754,0,0,0,.686-1.647,2.058,2.058,0,0,1,0-.547.9.9,0,0,0-.54-.9.576.576,0,0,1-.263-.311c-.711-1.794-1.433-3.584-2.14-5.38a.744.744,0,0,0-.79-.534c-1.463.014-2.925,0-4.388.011-.243,0-.33-.068-.3-.3a1.451,1.451,0,0,0,0-.256,1.745,1.745,0,0,0-1.43-1.832,1.652,1.652,0,0,0-1.7.569,2.112,2.112,0,0,0-.443,1.5c.01.253-.056.326-.317.324-1.438-.014-2.877-.007-4.315-.007-.528,0-.657.1-.852.592q-1.039,2.628-2.093,5.251c-.044.109-.059.242-.206.313a1.2,1.2,0,0,0-.653.883,2.928,2.928,0,0,0,.028,1.209,1.77,1.77,0,0,0,1.627,1.333c1.243,0,2.487.016,3.73,0a1.641,1.641,0,0,0,1.579-.988,3.556,3.556,0,0,0,.117-1.75.634.634,0,0,0-.419-.547.683.683,0,0,1-.4-.467q-.586-1.46-1.167-2.921c-.234-.59-.461-1.183-.7-1.794h4.034q0,5.482,0,10.963Z" transform="translate(-60.214 -13.701)" fill="#dee4f0"/>
        <path id="Trazado_728081" data-name="Trazado 728081" d="M7.983,20.956l0-1.066a.579.579,0,0,0,.516-.444.16.16,0,0,0,.067-.158q-.007-1.279-.015-2.558a1.861,1.861,0,0,1,1.115-1.679,3.168,3.168,0,0,1,1.379-.141c0,.158.009.317.009.475q0,14.7,0,29.407c0,.158.007.317.011.475-.076.123-.2.072-.3.067a3.155,3.155,0,0,0-2.082.521c-.1.075-.2.14-.13-.077,0-.048.011-.1.011-.145q0-11.926,0-23.852c0-.1.052-.222-.065-.3,0-.344-.214-.475-.514-.523" transform="translate(-7.394 -13.805)" fill="#6f88da"/>
        <path id="Trazado_728082" data-name="Trazado 728082" d="M22.893,437.037l.942-.008a.579.579,0,0,0,.376.56l.078-.013c.158.007.316.02.474.02l16.272,0c.146,0,.292.01.437.015q0,.645,0,1.291c-.134,0-.267.013-.4.013q-6.139,0-12.279,0c-.193,0-.408-.071-.574.127s-.274.366-.158.612a.545.545,0,0,0,.55.364q6.231-.015,12.461-.006c.134,0,.267.008.4.013v1.293c-.109,0-.219.012-.328.012H18.811a1.755,1.755,0,0,1-1.68-1.318H25.9a2.671,2.671,0,0,0,.292,0,.533.533,0,0,0,.5-.55.543.543,0,0,0-.48-.538,1.461,1.461,0,0,0-.328-.008h-8.3c-.134,0-.267-.008-.4-.012q0-.1,0-.2a1.7,1.7,0,0,1,1.592-1.1c1.175-.027,2.351-.019,3.526-.025.05.026.066-.009.083-.044a.576.576,0,0,0,.375-.442l.126-.057" transform="translate(-15.875 -404.977)" fill="#f8f2f2"/>
        <path id="Trazado_728083" data-name="Trazado 728083" d="M381.854,45.2q0-3.691,0-7.383,0-11.477,0-22.953a3.1,3.1,0,0,1,1.11.059c0,.122-.011.243-.011.365q0,14.782,0,29.563c0,.122.006.243.009.365l-.012-.008-1.087.015Z" transform="translate(-353.848 -13.75)" fill="#c3cfe6"/>
        <path id="Trazado_728084" data-name="Trazado 728084" d="M381.194,448.557a3.825,3.825,0,0,1-1.254.058q0-1.851,0-3.7l1.242-.012,0,0,.016,3.659" transform="translate(-352.074 -412.268)" fill="#c3cfe6"/>
        <path id="Trazado_728085" data-name="Trazado 728085" d="M64.661,15.945c.116.139.058.3.058.457q0,14.657,0,29.314c0,.17.006.341.009.511a.248.248,0,0,0,0,.067c-.145-.063-.075-.191-.075-.286q-.006-14.959,0-29.918c0-.049.007-.1.011-.146" transform="translate(-59.895 -14.776)" fill="#29538c"/>
        <path id="Trazado_728086" data-name="Trazado 728086" d="M49.757,45.415c0-.158-.011-.317-.011-.475q0-14.7,0-29.406c0-.158-.006-.317-.009-.475.15.11.079.27.079.405q.006,14.765,0,29.53c0,.141.051.294-.059.421" transform="translate(-46.088 -13.955)" fill="#594619"/>
        <path id="Trazado_728087" data-name="Trazado 728087" d="M396.9,46.236c0-.122-.009-.243-.009-.365q0-14.782,0-29.563c0-.122.007-.243.011-.365.1.115.059.256.059.385q0,14.762,0,29.524c0,.129.044.27-.062.384" transform="translate(-367.781 -14.774)" fill="#11213f"/>
        <path id="Trazado_728088" data-name="Trazado 728088" d="M14.923,104.624c.117.079.065.2.065.3q0,11.926,0,23.852c0,.048-.007.1-.011.145-.088-.091-.06-.206-.06-.313q0-11.956,0-23.912c0-.024,0-.049,0-.073" transform="translate(-13.82 -96.951)" fill="#403212"/>
        <path id="Trazado_728089" data-name="Trazado 728089" d="M349,479.026v-1.293c.3,0,.6,0,.905-.017.166-.009.218.058.2.209a.219.219,0,0,0,0,.036c.038,1.127.038,1.127-1.1,1.064" transform="translate(-323.403 -442.68)" fill="#dee4f0"/>
        <path id="Trazado_728090" data-name="Trazado 728090" d="M348.98,446.033q0-.645,0-1.291c.3-.005.6,0,.9-.018.166-.009.193.059.2.209.067,1.162.06,1.173-1.108,1.1" transform="translate(-323.385 -412.107)" fill="#dee4f0"/>
        <path id="Trazado_728091" data-name="Trazado 728091" d="M119.642,428.837c.14-.112.305-.059.458-.06q9.131,0,18.262,0c.17,0,.341-.006.511-.009l.013.022-.012.053q-2.285,0-4.57.008-7.112,0-14.223,0c-.146,0-.292-.007-.438-.011" transform="translate(-110.867 -397.319)" fill="#3c73b9"/>
        <path id="Trazado_728092" data-name="Trazado 728092" d="M378.923,445.021q0,1.851,0,3.7c-.123-.037-.069-.14-.07-.212,0-1.164,0-2.328,0-3.492l.033,0Z" transform="translate(-351.058 -412.377)" fill="#3c73b9"/>
        <path id="Trazado_728093" data-name="Trazado 728093" d="M396.844,448.557l-.016-3.659c.088.054.077.144.077.227q0,1.616,0,3.231a.245.245,0,0,1-.061.2" transform="translate(-367.724 -412.268)" fill="#11213f"/>
        <path id="Trazado_728094" data-name="Trazado 728094" d="M15,39.879q.008,1.279.015,2.558a.16.16,0,0,1-.067.158q0-1.219,0-2.439A.368.368,0,0,1,15,39.879" transform="translate(-13.845 -36.954)" fill="#403212"/>
        <path id="Trazado_728095" data-name="Trazado 728095" d="M65.877,428.862a.246.246,0,0,1,0-.068,9.147,9.147,0,0,1,1.6.068h-1.6" transform="translate(-61.045 -397.343)" fill="#3c73b9"/>
        <path id="Trazado_728096" data-name="Trazado 728096" d="M379.107,443.764l-.033-.006-.033,0a2.219,2.219,0,0,1,1.308-.009l-1.242.012" transform="translate(-351.242 -411.12)" fill="#11213f"/>
        <path id="Trazado_728097" data-name="Trazado 728097" d="M381.861,428.94l.012-.053,1.087-.015a2.624,2.624,0,0,1-1.1.068" transform="translate(-353.855 -397.418)" fill="#29538c"/>
        <path id="Trazado_728098" data-name="Trazado 728098" d="M17.006,459.856q0,.1,0,.2c-.123-.066-.074-.134,0-.2" transform="translate(-15.69 -426.129)" fill="#dbcee6"/>
        <path id="Trazado_728099" data-name="Trazado 728099" d="M93.972,437.107l-.126.057a.051.051,0,0,1,0-.06l.127,0" transform="translate(-86.954 -405.046)" fill="#dbcee6"/>
        <path id="Trazado_728100" data-name="Trazado 728100" d="M87.8,443.939c-.017.036-.033.071-.083.044l.083-.044" transform="translate(-81.287 -411.38)" fill="#333232"/>
        <path id="Trazado_728101" data-name="Trazado 728101" d="M113.725,444.065l-.078.013c.019-.046.042-.07.078-.013" transform="translate(-105.312 -411.465)" fill="#333232"/>
        <path id="Trazado_728102" data-name="Trazado 728102" d="M105.473,103.1c-.949.006-1.9.015-2.847.017q-2.958.005-5.916,0a1.029,1.029,0,0,1-1.039-1.043c0-.438.031-.879-.008-1.314A1.1,1.1,0,0,1,96.722,99.6a.367.367,0,0,0,.122-.056,5.3,5.3,0,0,0,.061-1.47,1.127,1.127,0,0,1,.954-.89,5.116,5.116,0,0,0,1.4-.059l-.007,0c.134-.07.07-.2.07-.293q.006-5.193,0-10.386c0-.094.066-.219-.071-.285H95.218c.238.612.465,1.2.7,1.795q.58,1.462,1.167,2.921a.682.682,0,0,0,.4.467.635.635,0,0,1,.419.547,3.557,3.557,0,0,1-.117,1.75,1.641,1.641,0,0,1-1.579.988c-1.243.02-2.487.006-3.73,0A1.77,1.77,0,0,1,90.852,93.3a2.929,2.929,0,0,1-.028-1.209,1.2,1.2,0,0,1,.653-.883c.147-.072.162-.2.206-.313q1.056-2.622,2.093-5.251c.2-.494.324-.592.852-.592,1.438,0,2.877-.007,4.315.006.261,0,.327-.07.317-.324a2.113,2.113,0,0,1,.443-1.5,1.652,1.652,0,0,1,1.7-.569,1.745,1.745,0,0,1,1.43,1.832,1.452,1.452,0,0,1,0,.256c-.034.236.053.306.3.3,1.463-.012,2.925,0,4.388-.011a.744.744,0,0,1,.79.534c.707,1.8,1.429,3.586,2.14,5.38a.574.574,0,0,0,.263.311.9.9,0,0,1,.54.9,2.058,2.058,0,0,0,0,.548,1.754,1.754,0,0,1-.686,1.647,1.208,1.208,0,0,1-.8.262c-1.353,0-2.706.008-4.059,0a1.658,1.658,0,0,1-1.541-1.451,2.345,2.345,0,0,1,.2-1.617c.028-.039.047-.1.084-.114.633-.281.695-.931.918-1.46.5-1.177.94-2.377,1.425-3.559.1-.248.048-.285-.188-.284-1.17.007-2.34,0-3.51,0-.16,0-.269,0-.269.22q.016,5.377.017,10.753a4.466,4.466,0,0,0,1.379.066,1.176,1.176,0,0,1,1.024,1.21c0,.158,0,.315,0,.473a1.847,1.847,0,0,0,.02.648c.075.186.357.091.53.182a1.057,1.057,0,0,1,.621.859q0,.771,0,1.543a.983.983,0,0,1-.877.95l-.074.05m-1.243-2.408c-.025-.036-.052-.038-.079,0l-6.39.009c-1.074,0-1.069,0-1,1.1.012.181.075.222.24.221q3.615-.011,7.229-.014l1.077.012a2,2,0,0,0,.012-1.314l-1.088.007Zm-2.5-4.8a2.068,2.068,0,0,0-1.306-.007q0,.619,0,1.238a2.032,2.032,0,0,0,1.311-.009q0-.611,0-1.222m-3.71,3.647c.027.02.054.056.082.056,1.949,0,3.9,0,5.847.005.165,0,.195-.072.206-.219.084-1.123.051-1.16-1.073-1.093a.263.263,0,0,0-.036.007l-.141-.028a.966.966,0,0,0-.208-.047q-2.21,0-4.42,0c-.094,0-.2-.024-.267.074a8,8,0,0,0,.01,1.245M92.885,90.9c-.17.218-.02.227.147.227q1.377,0,2.753,0c.064,0,.151.029.172-.077l-1.518-3.87-.1.016L92.885,90.9m16.392.147c-.424-1.254-.94-2.472-1.464-3.687-.094-.218-.174-.067-.228.068-.2.5-.407.987-.6,1.486-.262.686-.584,1.349-.793,2.056-.136.232.076.153.152.154q1.394.008,2.787,0c.043,0,.168.08.143-.076m-8.851,3.66a2.017,2.017,0,0,0,1.308-.006q0-3.123,0-6.245c0-1.23.009-2.459-.006-3.689a1.042,1.042,0,0,0-.249-.863.674.674,0,0,0-.77-.093c-.281.144-.282.439-.282.67-.013,3.408-.005,6.817,0,10.226m-6.095-1.168h1.425c.049,0,.1,0,.146,0,.758.024.994-.207.949-.943-.018-.286-.054-.389-.372-.385-1.388.02-2.777,0-4.165.011-.5,0-.447-.111-.445.473,0,.608.246.842.855.844.536,0,1.072,0,1.608,0m13.384-1.319c-.73,0-1.459,0-2.189,0-.09,0-.2-.046-.266.062a.848.848,0,0,0,.723,1.254c1.046,0,2.092,0,3.138,0,1.114,0,1.05-.225,1.038-1.05,0-.236-.078-.278-.291-.275-.717.012-1.435,0-2.152,0" transform="translate(-84.114 -76.567)" fill="#12263f"/>
        <path id="Trazado_728103" data-name="Trazado 728103" d="M206.4,130.841c.137.066.071.191.071.285q.006,5.193,0,10.386c0,.1.063.223-.07.293q0-5.482,0-10.963" transform="translate(-191.266 -121.245)" fill="#3c73b9"/>
        <path id="Trazado_728104" data-name="Trazado 728104" d="M304.176,328.686q0-.771,0-1.543a3.85,3.85,0,0,1,0,1.543" transform="translate(-281.865 -303.15)" fill="#11213f"/>
        <path id="Trazado_728105" data-name="Trazado 728105" d="M173.536,293.313a5.307,5.307,0,0,1-.061,1.47,7.343,7.343,0,0,1,.061-1.47" transform="translate(-160.745 -271.801)" fill="#29538c"/>
        <path id="Trazado_728106" data-name="Trazado 728106" d="M188.81,280.193a5.119,5.119,0,0,1-1.4.059,5.871,5.871,0,0,1,1.4-.059" transform="translate(-173.664 -259.631)" fill="#29538c"/>
        <path id="Trazado_728107" data-name="Trazado 728107" d="M256.812,280.261a4.47,4.47,0,0,1-1.379-.066,6.457,6.457,0,0,1,1.379.066" transform="translate(-236.699 -259.639)" fill="#29538c"/>
        <path id="Trazado_728108" data-name="Trazado 728108" d="M291.228,361.183l.074-.05c-.014.033-.028.066-.074.05" transform="translate(-269.869 -334.647)" fill="#181818"/>
        <path id="Trazado_728109" data-name="Trazado 728109" d="M222.356,108.637c0-3.409-.01-6.817,0-10.226,0-.231,0-.527.282-.67a.674.674,0,0,1,.77.093,1.042,1.042,0,0,1,.249.863c.016,1.229.007,2.459.006,3.689q0,3.123,0,6.245l-1.308.006" transform="translate(-206.044 -90.498)" fill="#ffca28"/>
        <path id="Trazado_728110" data-name="Trazado 728110" d="M179.614,330.269q-3.615.005-7.229.014c-.165,0-.228-.041-.24-.221-.072-1.1-.077-1.1,1-1.1l6.39-.008.079,0,0,.019q0,.648,0,1.295" transform="translate(-159.495 -304.826)" fill="#ffca28"/>
        <path id="Trazado_728111" data-name="Trazado 728111" d="M108.161,214.614c-.536,0-1.072,0-1.608,0-.609,0-.853-.236-.855-.844,0-.583-.059-.47.445-.473,1.388-.007,2.777.009,4.165-.011.319,0,.355.1.372.385.045.737-.191.968-.949.943-.049,0-.1,0-.146,0h-1.425" transform="translate(-97.943 -197.643)" fill="#ffca28"/>
        <path id="Trazado_728112" data-name="Trazado 728112" d="M301.078,149.368c.209-.707.53-1.37.793-2.056.191-.5.4-.989.6-1.486.053-.135.134-.286.228-.068.523,1.214,1.039,2.433,1.464,3.687q-1.392,0-2.784.006c-.105,0-.221.025-.3-.083" transform="translate(-278.996 -134.967)" fill="#dee4f0"/>
        <path id="Trazado_728113" data-name="Trazado 728113" d="M289.4,213.312c.717,0,1.435.008,2.152,0,.213,0,.287.038.291.275.012.826.076,1.055-1.038,1.05-1.046,0-2.092,0-3.138,0a.848.848,0,0,1-.723-1.254c.064-.107.176-.061.266-.062.73,0,1.459,0,2.189,0" transform="translate(-265.8 -197.661)" fill="#ffca28"/>
        <path id="Trazado_728114" data-name="Trazado 728114" d="M119.594,148.388l1.452-3.706.1-.016,1.518,3.87c-.919,0-1.839.005-2.758,0-.124,0-.281.046-.314-.152" transform="translate(-110.823 -134.056)" fill="#dee4f0"/>
        <path id="Trazado_728115" data-name="Trazado 728115" d="M194.154,295.9l.141.028c0,.292-.013.585.01.875s-.076.375-.368.373c-1.556-.013-3.112-.005-4.668,0a8,8,0,0,1-.01-1.245l.8,0,4.091-.022" transform="translate(-175.36 -274.202)" fill="#e8e8e8"/>
        <path id="Trazado_728116" data-name="Trazado 728116" d="M189.637,297.18c1.556,0,3.112-.008,4.668,0,.291,0,.39-.086.368-.373s-.008-.583-.01-.875a.247.247,0,0,1,.036-.007c1.125-.066,1.158-.03,1.073,1.093-.011.147-.041.219-.206.219-1.949,0-3.9,0-5.847-.005-.027,0-.054-.037-.082-.056" transform="translate(-175.729 -274.207)" fill="#e8e8e8"/>
        <path id="Trazado_728117" data-name="Trazado 728117" d="M222.38,264.645q0-.619,0-1.238l1.306.007q0,.611,0,1.222a8.265,8.265,0,0,1-1.311.009" transform="translate(-206.07 -244.088)" fill="#ffcf38"/>
        <path id="Trazado_728118" data-name="Trazado 728118" d="M274.326,330.449q0-.647,0-1.295l1.088-.007a7.27,7.27,0,0,1-.012,1.314l-1.077-.011" transform="translate(-254.206 -305.007)" fill="#ffca28"/>
        <path id="Trazado_728119" data-name="Trazado 728119" d="M194.4,295.267l-4.091.022-.8,0c.069-.1.173-.074.267-.074q2.21,0,4.42,0a.965.965,0,0,1,.208.047" transform="translate(-175.607 -273.565)" fill="#403212"/>
        <path id="Trazado_728120" data-name="Trazado 728120" d="M300.516,196.363c.076.109.192.084.3.083q1.392,0,2.784-.006c.025.156-.1.075-.143.076q-1.394.009-2.787,0c-.076,0-.288.079-.152-.154" transform="translate(-278.434 -181.961)" fill="#3c73b9"/>
        <path id="Trazado_728121" data-name="Trazado 728121" d="M118.647,195.415c.033.2.189.152.314.152.919,0,1.839,0,2.758,0-.021.106-.107.077-.171.077q-1.377,0-2.753,0c-.167,0-.317-.009-.147-.227" transform="translate(-109.876 -181.083)" fill="#3c73b9"/>
        <path id="Trazado_728122" data-name="Trazado 728122" d="M223.726,262.121l-1.306-.007a2.067,2.067,0,0,1,1.306.007" transform="translate(-206.107 -242.795)" fill="#594619"/>
        <path id="Trazado_728123" data-name="Trazado 728123" d="M289.01,330.461a7.265,7.265,0,0,0,.012-1.314,2,2,0,0,1-.012,1.314" transform="translate(-267.814 -305.007)" fill="#594619"/>
        <path id="Trazado_728124" data-name="Trazado 728124" d="M222.41,247.242l1.308-.006a2.017,2.017,0,0,1-1.308.006" transform="translate(-206.098 -229.103)" fill="#594619"/>
        <path id="Trazado_728125" data-name="Trazado 728125" d="M222.38,280.177a8.272,8.272,0,0,0,1.311-.009,2.032,2.032,0,0,1-1.311.009" transform="translate(-206.07 -259.62)" fill="#594619"/>
        <path id="Trazado_728126" data-name="Trazado 728126" d="M273.28,328.629l-.079,0c.028-.036.054-.034.079,0" transform="translate(-253.164 -304.501)" fill="#403212"/>
      </g>
    </g>
  </g>
</svg>
