<svg id="Grupo_970372" data-name="Grupo 970372" xmlns="http://www.w3.org/2000/svg" xmlns:xlink="http://www.w3.org/1999/xlink" width="204.871" height="100.765" viewBox="0 0 204.871 100.765">
  <defs>
    <clipPath id="clip-path">
      <rect id="Rect치ngulo_34881" data-name="Rect치ngulo 34881" width="109.084" height="55.649" fill="#6f88da"/>
    </clipPath>
    <clipPath id="clip-path-2">
      <rect id="Rect치ngulo_35129" data-name="Rect치ngulo 35129" width="131.88" height="92.194" fill="none"/>
    </clipPath>
  </defs>
  <g id="Grupo_157945" data-name="Grupo 157945" transform="translate(0 0)">
    <g id="Enmascarar_grupo_63" data-name="Enmascarar grupo 63" transform="translate(0 0)" opacity="0.311" clip-path="url(#clip-path)">
      <path id="Trazado_151731" data-name="Trazado 151731" d="M51.939,21.869a30.07,30.07,0,1,0,30.07,30.07,30.1,30.1,0,0,0-30.07-30.07M51.939,0A51.939,51.939,0,1,1,0,51.939,51.939,51.939,0,0,1,51.939,0Z" transform="translate(2.253 -51.939)" fill="#6f88da"/>
    </g>
    <path id="Trazado_145968" data-name="Trazado 145968" d="M22.347,44.693A22.347,22.347,0,1,0,0,22.347,22.347,22.347,0,0,0,22.347,44.693Z" transform="translate(160.177 56.072)" fill="#31313c" opacity="0.444" style="mix-blend-mode: multiply;isolation: isolate"/>
    <g id="Grupo_78276" data-name="Grupo 78276" transform="translate(132.772 24.337)">
      <g id="Grupo_53306" data-name="Grupo 53306" transform="translate(0 51.188)">
        <path id="Trazado_99200" data-name="Trazado 99200" d="M415.431,50.806a.609.609,0,1,0-.609.581A.6.6,0,0,0,415.431,50.806Z" transform="translate(-414.214 -50.224)" fill="#fff"/>
        <path id="Trazado_99201" data-name="Trazado 99201" d="M423.877,50.806a.609.609,0,1,0-.608.581A.6.6,0,0,0,423.877,50.806Z" transform="translate(-417.186 -50.224)" fill="#fff"/>
        <path id="Trazado_99202" data-name="Trazado 99202" d="M432.322,50.806a.609.609,0,1,0-.608.581A.6.6,0,0,0,432.322,50.806Z" transform="translate(-420.158 -50.224)" fill="#fff"/>
        <path id="Trazado_99203" data-name="Trazado 99203" d="M440.77,50.806a.609.609,0,1,0-.609.581A.6.6,0,0,0,440.77,50.806Z" transform="translate(-423.13 -50.224)" fill="#fff"/>
        <path id="Trazado_99204" data-name="Trazado 99204" d="M449.216,50.806a.609.609,0,1,0-.608.581A.6.6,0,0,0,449.216,50.806Z" transform="translate(-426.102 -50.224)" fill="#fff"/>
        <path id="Trazado_99205" data-name="Trazado 99205" d="M457.662,50.806a.609.609,0,1,0-.608.581A.6.6,0,0,0,457.662,50.806Z" transform="translate(-429.074 -50.224)" fill="#fff"/>
        <path id="Trazado_99206" data-name="Trazado 99206" d="M466.109,50.806a.609.609,0,1,0-.609.581A.6.6,0,0,0,466.109,50.806Z" transform="translate(-432.047 -50.224)" fill="#fff"/>
        <path id="Trazado_99207" data-name="Trazado 99207" d="M474.555,50.806a.609.609,0,1,0-.608.581A.6.6,0,0,0,474.555,50.806Z" transform="translate(-435.019 -50.224)" fill="#fff"/>
        <path id="Trazado_99208" data-name="Trazado 99208" d="M483,50.806a.609.609,0,1,0-.608.581A.6.6,0,0,0,483,50.806Z" transform="translate(-437.991 -50.224)" fill="#fff"/>
        <path id="Trazado_99209" data-name="Trazado 99209" d="M491.448,50.806a.609.609,0,1,0-.609.581A.6.6,0,0,0,491.448,50.806Z" transform="translate(-440.963 -50.224)" fill="#fff"/>
        <path id="Trazado_99210" data-name="Trazado 99210" d="M499.894,50.806a.609.609,0,1,0-.609.581A.6.6,0,0,0,499.894,50.806Z" transform="translate(-443.935 -50.224)" fill="#fff"/>
      </g>
      <g id="Grupo_53307" data-name="Grupo 53307" transform="translate(0 46.535)">
        <path id="Trazado_99211" data-name="Trazado 99211" d="M415.431,58.314a.609.609,0,1,0-.609.581A.6.6,0,0,0,415.431,58.314Z" transform="translate(-414.214 -57.732)" fill="#fff"/>
        <path id="Trazado_99212" data-name="Trazado 99212" d="M423.877,58.314a.609.609,0,1,0-.608.581A.6.6,0,0,0,423.877,58.314Z" transform="translate(-417.186 -57.732)" fill="#fff"/>
        <path id="Trazado_99213" data-name="Trazado 99213" d="M432.322,58.314a.609.609,0,1,0-.608.581A.6.6,0,0,0,432.322,58.314Z" transform="translate(-420.158 -57.732)" fill="#fff"/>
        <path id="Trazado_99214" data-name="Trazado 99214" d="M440.77,58.314a.609.609,0,1,0-.609.581A.6.6,0,0,0,440.77,58.314Z" transform="translate(-423.13 -57.732)" fill="#fff"/>
        <path id="Trazado_99215" data-name="Trazado 99215" d="M449.216,58.314a.609.609,0,1,0-.608.581A.6.6,0,0,0,449.216,58.314Z" transform="translate(-426.102 -57.732)" fill="#fff"/>
        <path id="Trazado_99216" data-name="Trazado 99216" d="M457.662,58.314a.609.609,0,1,0-.608.581A.6.6,0,0,0,457.662,58.314Z" transform="translate(-429.074 -57.732)" fill="#fff"/>
        <path id="Trazado_99217" data-name="Trazado 99217" d="M466.109,58.314a.609.609,0,1,0-.609.581A.6.6,0,0,0,466.109,58.314Z" transform="translate(-432.047 -57.732)" fill="#fff"/>
        <path id="Trazado_99218" data-name="Trazado 99218" d="M474.555,58.314a.609.609,0,1,0-.608.581A.6.6,0,0,0,474.555,58.314Z" transform="translate(-435.019 -57.732)" fill="#fff"/>
        <path id="Trazado_99219" data-name="Trazado 99219" d="M483,58.314a.609.609,0,1,0-.608.581A.6.6,0,0,0,483,58.314Z" transform="translate(-437.991 -57.732)" fill="#fff"/>
        <path id="Trazado_99220" data-name="Trazado 99220" d="M491.448,58.314a.609.609,0,1,0-.609.581A.6.6,0,0,0,491.448,58.314Z" transform="translate(-440.963 -57.732)" fill="#fff"/>
        <path id="Trazado_99221" data-name="Trazado 99221" d="M499.894,58.314a.609.609,0,1,0-.609.581A.6.6,0,0,0,499.894,58.314Z" transform="translate(-443.935 -57.732)" fill="#fff"/>
      </g>
      <g id="Grupo_53308" data-name="Grupo 53308" transform="translate(0 41.881)">
        <ellipse id="Elipse_3955" data-name="Elipse 3955" cx="0.608" cy="0.582" rx="0.608" ry="0.582" transform="translate(0 0)" fill="#fff"/>
        <path id="Trazado_99222" data-name="Trazado 99222" d="M423.877,65.822a.609.609,0,1,0-.608.581A.6.6,0,0,0,423.877,65.822Z" transform="translate(-417.186 -65.24)" fill="#fff"/>
        <ellipse id="Elipse_3956" data-name="Elipse 3956" cx="0.608" cy="0.582" rx="0.608" ry="0.582" transform="translate(10.948 0)" fill="#fff"/>
        <path id="Trazado_99223" data-name="Trazado 99223" d="M440.77,65.822a.609.609,0,1,0-.609.581A.6.6,0,0,0,440.77,65.822Z" transform="translate(-423.13 -65.24)" fill="#fff"/>
        <path id="Trazado_99224" data-name="Trazado 99224" d="M449.216,65.822a.609.609,0,1,0-.608.581A.6.6,0,0,0,449.216,65.822Z" transform="translate(-426.102 -65.24)" fill="#fff"/>
        <ellipse id="Elipse_3957" data-name="Elipse 3957" cx="0.608" cy="0.582" rx="0.608" ry="0.582" transform="translate(27.371 0)" fill="#fff"/>
        <path id="Trazado_99225" data-name="Trazado 99225" d="M466.109,65.822a.609.609,0,1,0-.609.581A.6.6,0,0,0,466.109,65.822Z" transform="translate(-432.047 -65.24)" fill="#fff"/>
        <ellipse id="Elipse_3958" data-name="Elipse 3958" cx="0.608" cy="0.582" rx="0.608" ry="0.582" transform="translate(38.319 0)" fill="#fff"/>
        <ellipse id="Elipse_3959" data-name="Elipse 3959" cx="0.608" cy="0.582" rx="0.608" ry="0.582" transform="translate(43.794 0)" fill="#fff"/>
        <path id="Trazado_99226" data-name="Trazado 99226" d="M491.448,65.822a.609.609,0,1,0-.609.581A.6.6,0,0,0,491.448,65.822Z" transform="translate(-440.963 -65.24)" fill="#fff"/>
        <path id="Trazado_99227" data-name="Trazado 99227" d="M499.894,65.822a.609.609,0,1,0-.609.581A.6.6,0,0,0,499.894,65.822Z" transform="translate(-443.935 -65.24)" fill="#fff"/>
      </g>
      <g id="Grupo_53309" data-name="Grupo 53309" transform="translate(0 37.228)">
        <ellipse id="Elipse_3960" data-name="Elipse 3960" cx="0.608" cy="0.582" rx="0.608" ry="0.582" transform="translate(0 0)" fill="#fff"/>
        <path id="Trazado_99228" data-name="Trazado 99228" d="M423.877,73.328a.609.609,0,1,0-.608.582A.6.6,0,0,0,423.877,73.328Z" transform="translate(-417.186 -72.747)" fill="#fff"/>
        <ellipse id="Elipse_3961" data-name="Elipse 3961" cx="0.608" cy="0.582" rx="0.608" ry="0.582" transform="translate(10.948 0)" fill="#fff"/>
        <path id="Trazado_99229" data-name="Trazado 99229" d="M440.77,73.328a.609.609,0,1,0-.609.582A.6.6,0,0,0,440.77,73.328Z" transform="translate(-423.13 -72.747)" fill="#fff"/>
        <path id="Trazado_99230" data-name="Trazado 99230" d="M449.216,73.328a.609.609,0,1,0-.608.582A.6.6,0,0,0,449.216,73.328Z" transform="translate(-426.102 -72.747)" fill="#fff"/>
        <ellipse id="Elipse_3962" data-name="Elipse 3962" cx="0.608" cy="0.582" rx="0.608" ry="0.582" transform="translate(27.371 0)" fill="#fff"/>
        <path id="Trazado_99231" data-name="Trazado 99231" d="M466.109,73.328a.609.609,0,1,0-.609.582A.6.6,0,0,0,466.109,73.328Z" transform="translate(-432.047 -72.747)" fill="#fff"/>
        <ellipse id="Elipse_3963" data-name="Elipse 3963" cx="0.608" cy="0.582" rx="0.608" ry="0.582" transform="translate(38.319 0)" fill="#fff"/>
        <ellipse id="Elipse_3964" data-name="Elipse 3964" cx="0.608" cy="0.582" rx="0.608" ry="0.582" transform="translate(43.794 0)" fill="#fff"/>
        <path id="Trazado_99232" data-name="Trazado 99232" d="M491.448,73.328a.609.609,0,1,0-.609.582A.6.6,0,0,0,491.448,73.328Z" transform="translate(-440.963 -72.747)" fill="#fff"/>
        <path id="Trazado_99233" data-name="Trazado 99233" d="M499.894,73.328a.609.609,0,1,0-.609.582A.6.6,0,0,0,499.894,73.328Z" transform="translate(-443.935 -72.747)" fill="#fff"/>
      </g>
      <g id="Grupo_53310" data-name="Grupo 53310" transform="translate(0 32.575)">
        <path id="Trazado_99234" data-name="Trazado 99234" d="M415.431,80.836a.609.609,0,1,0-.609.582A.6.6,0,0,0,415.431,80.836Z" transform="translate(-414.214 -80.255)" fill="#fff"/>
        <path id="Trazado_99235" data-name="Trazado 99235" d="M423.877,80.836a.609.609,0,1,0-.608.582A.6.6,0,0,0,423.877,80.836Z" transform="translate(-417.186 -80.255)" fill="#fff"/>
        <path id="Trazado_99236" data-name="Trazado 99236" d="M432.322,80.836a.609.609,0,1,0-.608.582A.6.6,0,0,0,432.322,80.836Z" transform="translate(-420.158 -80.255)" fill="#fff"/>
        <path id="Trazado_99237" data-name="Trazado 99237" d="M440.77,80.836a.609.609,0,1,0-.609.582A.6.6,0,0,0,440.77,80.836Z" transform="translate(-423.13 -80.255)" fill="#fff"/>
        <path id="Trazado_99238" data-name="Trazado 99238" d="M449.216,80.836a.609.609,0,1,0-.608.582A.6.6,0,0,0,449.216,80.836Z" transform="translate(-426.102 -80.255)" fill="#fff"/>
        <path id="Trazado_99239" data-name="Trazado 99239" d="M457.662,80.836a.609.609,0,1,0-.608.582A.6.6,0,0,0,457.662,80.836Z" transform="translate(-429.074 -80.255)" fill="#fff"/>
        <path id="Trazado_99240" data-name="Trazado 99240" d="M466.109,80.836a.609.609,0,1,0-.609.582A.6.6,0,0,0,466.109,80.836Z" transform="translate(-432.047 -80.255)" fill="#fff"/>
        <path id="Trazado_99241" data-name="Trazado 99241" d="M474.555,80.836a.609.609,0,1,0-.608.582A.6.6,0,0,0,474.555,80.836Z" transform="translate(-435.019 -80.255)" fill="#fff"/>
        <path id="Trazado_99242" data-name="Trazado 99242" d="M483,80.836a.609.609,0,1,0-.608.582A.6.6,0,0,0,483,80.836Z" transform="translate(-437.991 -80.255)" fill="#fff"/>
        <path id="Trazado_99243" data-name="Trazado 99243" d="M491.448,80.836a.609.609,0,1,0-.609.582A.6.6,0,0,0,491.448,80.836Z" transform="translate(-440.963 -80.255)" fill="#fff"/>
        <path id="Trazado_99244" data-name="Trazado 99244" d="M499.894,80.836a.609.609,0,1,0-.609.582A.6.6,0,0,0,499.894,80.836Z" transform="translate(-443.935 -80.255)" fill="#fff"/>
      </g>
      <g id="Grupo_53311" data-name="Grupo 53311" transform="translate(0 27.921)">
        <ellipse id="Elipse_3965" data-name="Elipse 3965" cx="0.608" cy="0.582" rx="0.608" ry="0.582" transform="translate(0 0)" fill="#fff"/>
        <path id="Trazado_99245" data-name="Trazado 99245" d="M423.877,88.344a.609.609,0,1,0-.608.582A.6.6,0,0,0,423.877,88.344Z" transform="translate(-417.186 -87.763)" fill="#fff"/>
        <ellipse id="Elipse_3966" data-name="Elipse 3966" cx="0.608" cy="0.582" rx="0.608" ry="0.582" transform="translate(10.948 0)" fill="#fff"/>
        <path id="Trazado_99246" data-name="Trazado 99246" d="M440.77,88.344a.609.609,0,1,0-.609.582A.6.6,0,0,0,440.77,88.344Z" transform="translate(-423.13 -87.763)" fill="#fff"/>
        <path id="Trazado_99247" data-name="Trazado 99247" d="M449.216,88.344a.609.609,0,1,0-.608.582A.6.6,0,0,0,449.216,88.344Z" transform="translate(-426.102 -87.763)" fill="#fff"/>
        <ellipse id="Elipse_3967" data-name="Elipse 3967" cx="0.608" cy="0.582" rx="0.608" ry="0.582" transform="translate(27.371 0)" fill="#fff"/>
        <path id="Trazado_99248" data-name="Trazado 99248" d="M466.109,88.344a.609.609,0,1,0-.609.582A.6.6,0,0,0,466.109,88.344Z" transform="translate(-432.047 -87.763)" fill="#fff"/>
        <ellipse id="Elipse_3968" data-name="Elipse 3968" cx="0.608" cy="0.582" rx="0.608" ry="0.582" transform="translate(38.319 0)" fill="#fff"/>
        <ellipse id="Elipse_3969" data-name="Elipse 3969" cx="0.608" cy="0.582" rx="0.608" ry="0.582" transform="translate(43.794 0)" fill="#fff"/>
        <path id="Trazado_99249" data-name="Trazado 99249" d="M491.448,88.344a.609.609,0,1,0-.609.582A.6.6,0,0,0,491.448,88.344Z" transform="translate(-440.963 -87.763)" fill="#fff"/>
        <path id="Trazado_99250" data-name="Trazado 99250" d="M499.894,88.344a.609.609,0,1,0-.609.582A.6.6,0,0,0,499.894,88.344Z" transform="translate(-443.935 -87.763)" fill="#fff"/>
      </g>
      <g id="Grupo_53312" data-name="Grupo 53312" transform="translate(0 23.267)">
        <ellipse id="Elipse_3970" data-name="Elipse 3970" cx="0.608" cy="0.582" rx="0.608" ry="0.582" transform="translate(0 0)" fill="#fff"/>
        <path id="Trazado_99251" data-name="Trazado 99251" d="M423.877,95.853a.609.609,0,1,0-.608.581A.6.6,0,0,0,423.877,95.853Z" transform="translate(-417.186 -95.271)" fill="#fff"/>
        <ellipse id="Elipse_3971" data-name="Elipse 3971" cx="0.608" cy="0.582" rx="0.608" ry="0.582" transform="translate(10.948 0)" fill="#fff"/>
        <path id="Trazado_99252" data-name="Trazado 99252" d="M440.77,95.853a.609.609,0,1,0-.609.581A.6.6,0,0,0,440.77,95.853Z" transform="translate(-423.13 -95.271)" fill="#fff"/>
        <path id="Trazado_99253" data-name="Trazado 99253" d="M449.216,95.853a.609.609,0,1,0-.608.581A.6.6,0,0,0,449.216,95.853Z" transform="translate(-426.102 -95.271)" fill="#fff"/>
        <ellipse id="Elipse_3972" data-name="Elipse 3972" cx="0.608" cy="0.582" rx="0.608" ry="0.582" transform="translate(27.371 0)" fill="#fff"/>
        <path id="Trazado_99254" data-name="Trazado 99254" d="M466.109,95.853a.609.609,0,1,0-.609.581A.6.6,0,0,0,466.109,95.853Z" transform="translate(-432.047 -95.271)" fill="#fff"/>
        <ellipse id="Elipse_3973" data-name="Elipse 3973" cx="0.608" cy="0.582" rx="0.608" ry="0.582" transform="translate(38.319 0)" fill="#fff"/>
        <ellipse id="Elipse_3974" data-name="Elipse 3974" cx="0.608" cy="0.582" rx="0.608" ry="0.582" transform="translate(43.794 0)" fill="#fff"/>
        <path id="Trazado_99255" data-name="Trazado 99255" d="M491.448,95.853a.609.609,0,1,0-.609.581A.6.6,0,0,0,491.448,95.853Z" transform="translate(-440.963 -95.271)" fill="#fff"/>
        <path id="Trazado_99256" data-name="Trazado 99256" d="M499.894,95.853a.609.609,0,1,0-.609.581A.6.6,0,0,0,499.894,95.853Z" transform="translate(-443.935 -95.271)" fill="#fff"/>
      </g>
      <g id="Grupo_53313" data-name="Grupo 53313" transform="translate(0 18.614)">
        <path id="Trazado_99257" data-name="Trazado 99257" d="M415.431,103.361a.609.609,0,1,0-.609.581A.6.6,0,0,0,415.431,103.361Z" transform="translate(-414.214 -102.779)" fill="#fff"/>
        <path id="Trazado_99258" data-name="Trazado 99258" d="M423.877,103.361a.609.609,0,1,0-.608.581A.6.6,0,0,0,423.877,103.361Z" transform="translate(-417.186 -102.779)" fill="#fff"/>
        <path id="Trazado_99259" data-name="Trazado 99259" d="M432.322,103.361a.609.609,0,1,0-.608.581A.6.6,0,0,0,432.322,103.361Z" transform="translate(-420.158 -102.779)" fill="#fff"/>
        <path id="Trazado_99260" data-name="Trazado 99260" d="M440.77,103.361a.609.609,0,1,0-.609.581A.6.6,0,0,0,440.77,103.361Z" transform="translate(-423.13 -102.779)" fill="#fff"/>
        <path id="Trazado_99261" data-name="Trazado 99261" d="M449.216,103.361a.609.609,0,1,0-.608.581A.6.6,0,0,0,449.216,103.361Z" transform="translate(-426.102 -102.779)" fill="#fff"/>
        <path id="Trazado_99262" data-name="Trazado 99262" d="M457.662,103.361a.609.609,0,1,0-.608.581A.6.6,0,0,0,457.662,103.361Z" transform="translate(-429.074 -102.779)" fill="#fff"/>
        <path id="Trazado_99263" data-name="Trazado 99263" d="M466.109,103.361a.609.609,0,1,0-.609.581A.6.6,0,0,0,466.109,103.361Z" transform="translate(-432.047 -102.779)" fill="#fff"/>
        <path id="Trazado_99264" data-name="Trazado 99264" d="M474.555,103.361a.609.609,0,1,0-.608.581A.6.6,0,0,0,474.555,103.361Z" transform="translate(-435.019 -102.779)" fill="#fff"/>
        <path id="Trazado_99265" data-name="Trazado 99265" d="M483,103.361a.609.609,0,1,0-.608.581A.6.6,0,0,0,483,103.361Z" transform="translate(-437.991 -102.779)" fill="#fff"/>
        <path id="Trazado_99266" data-name="Trazado 99266" d="M491.448,103.361a.609.609,0,1,0-.609.581A.6.6,0,0,0,491.448,103.361Z" transform="translate(-440.963 -102.779)" fill="#fff"/>
        <path id="Trazado_99267" data-name="Trazado 99267" d="M499.894,103.361a.609.609,0,1,0-.609.581A.6.6,0,0,0,499.894,103.361Z" transform="translate(-443.935 -102.779)" fill="#fff"/>
      </g>
      <g id="Grupo_53314" data-name="Grupo 53314" transform="translate(0 13.96)">
        <ellipse id="Elipse_3975" data-name="Elipse 3975" cx="0.608" cy="0.582" rx="0.608" ry="0.582" transform="translate(0 0)" fill="#fff"/>
        <path id="Trazado_99268" data-name="Trazado 99268" d="M423.877,110.869a.609.609,0,1,0-.608.581A.6.6,0,0,0,423.877,110.869Z" transform="translate(-417.186 -110.287)" fill="#fff"/>
        <ellipse id="Elipse_3976" data-name="Elipse 3976" cx="0.608" cy="0.582" rx="0.608" ry="0.582" transform="translate(10.948 0)" fill="#fff"/>
        <path id="Trazado_99269" data-name="Trazado 99269" d="M440.77,110.869a.609.609,0,1,0-.609.581A.6.6,0,0,0,440.77,110.869Z" transform="translate(-423.13 -110.287)" fill="#fff"/>
        <path id="Trazado_99270" data-name="Trazado 99270" d="M449.216,110.869a.609.609,0,1,0-.608.581A.6.6,0,0,0,449.216,110.869Z" transform="translate(-426.102 -110.287)" fill="#fff"/>
        <ellipse id="Elipse_3977" data-name="Elipse 3977" cx="0.608" cy="0.582" rx="0.608" ry="0.582" transform="translate(27.371 0)" fill="#fff"/>
        <path id="Trazado_99271" data-name="Trazado 99271" d="M466.109,110.869a.609.609,0,1,0-.609.581A.6.6,0,0,0,466.109,110.869Z" transform="translate(-432.047 -110.287)" fill="#fff"/>
        <ellipse id="Elipse_3978" data-name="Elipse 3978" cx="0.608" cy="0.582" rx="0.608" ry="0.582" transform="translate(38.319 0)" fill="#fff"/>
        <ellipse id="Elipse_3979" data-name="Elipse 3979" cx="0.608" cy="0.582" rx="0.608" ry="0.582" transform="translate(43.794 0)" fill="#fff"/>
        <path id="Trazado_99272" data-name="Trazado 99272" d="M491.448,110.869a.609.609,0,1,0-.609.581A.6.6,0,0,0,491.448,110.869Z" transform="translate(-440.963 -110.287)" fill="#fff"/>
        <path id="Trazado_99273" data-name="Trazado 99273" d="M499.894,110.869a.609.609,0,1,0-.609.581A.6.6,0,0,0,499.894,110.869Z" transform="translate(-443.935 -110.287)" fill="#fff"/>
      </g>
      <g id="Grupo_53315" data-name="Grupo 53315" transform="translate(0 9.307)">
        <path id="Trazado_99274" data-name="Trazado 99274" d="M415.431,118.376a.609.609,0,1,0-.609.582A.6.6,0,0,0,415.431,118.376Z" transform="translate(-414.214 -117.794)" fill="#fff"/>
        <path id="Trazado_99275" data-name="Trazado 99275" d="M423.877,118.376a.609.609,0,1,0-.608.582A.6.6,0,0,0,423.877,118.376Z" transform="translate(-417.186 -117.794)" fill="#fff"/>
        <path id="Trazado_99276" data-name="Trazado 99276" d="M432.322,118.376a.609.609,0,1,0-.608.582A.6.6,0,0,0,432.322,118.376Z" transform="translate(-420.158 -117.794)" fill="#fff"/>
        <path id="Trazado_99277" data-name="Trazado 99277" d="M440.77,118.376a.609.609,0,1,0-.609.582A.6.6,0,0,0,440.77,118.376Z" transform="translate(-423.13 -117.794)" fill="#fff"/>
        <path id="Trazado_99278" data-name="Trazado 99278" d="M449.216,118.376a.609.609,0,1,0-.608.582A.6.6,0,0,0,449.216,118.376Z" transform="translate(-426.102 -117.794)" fill="#fff"/>
        <path id="Trazado_99279" data-name="Trazado 99279" d="M457.662,118.376a.609.609,0,1,0-.608.582A.6.6,0,0,0,457.662,118.376Z" transform="translate(-429.074 -117.794)" fill="#fff"/>
        <path id="Trazado_99280" data-name="Trazado 99280" d="M466.109,118.376a.609.609,0,1,0-.609.582A.6.6,0,0,0,466.109,118.376Z" transform="translate(-432.047 -117.794)" fill="#fff"/>
        <path id="Trazado_99281" data-name="Trazado 99281" d="M474.555,118.376a.609.609,0,1,0-.608.582A.6.6,0,0,0,474.555,118.376Z" transform="translate(-435.019 -117.794)" fill="#fff"/>
        <path id="Trazado_99282" data-name="Trazado 99282" d="M483,118.376a.609.609,0,1,0-.608.582A.6.6,0,0,0,483,118.376Z" transform="translate(-437.991 -117.794)" fill="#fff"/>
        <path id="Trazado_99283" data-name="Trazado 99283" d="M491.448,118.376a.609.609,0,1,0-.609.582A.6.6,0,0,0,491.448,118.376Z" transform="translate(-440.963 -117.794)" fill="#fff"/>
        <path id="Trazado_99284" data-name="Trazado 99284" d="M499.894,118.376a.609.609,0,1,0-.609.582A.6.6,0,0,0,499.894,118.376Z" transform="translate(-443.935 -117.794)" fill="#fff"/>
      </g>
      <g id="Grupo_53316" data-name="Grupo 53316" transform="translate(0 4.654)">
        <ellipse id="Elipse_3980" data-name="Elipse 3980" cx="0.608" cy="0.582" rx="0.608" ry="0.582" transform="translate(0 0)" fill="#fff"/>
        <path id="Trazado_99285" data-name="Trazado 99285" d="M423.877,125.883a.609.609,0,1,0-.608.582A.6.6,0,0,0,423.877,125.883Z" transform="translate(-417.186 -125.302)" fill="#fff"/>
        <ellipse id="Elipse_3981" data-name="Elipse 3981" cx="0.608" cy="0.582" rx="0.608" ry="0.582" transform="translate(10.948 0)" fill="#fff"/>
        <path id="Trazado_99286" data-name="Trazado 99286" d="M440.77,125.883a.609.609,0,1,0-.609.582A.6.6,0,0,0,440.77,125.883Z" transform="translate(-423.13 -125.302)" fill="#fff"/>
        <path id="Trazado_99287" data-name="Trazado 99287" d="M449.216,125.883a.609.609,0,1,0-.608.582A.6.6,0,0,0,449.216,125.883Z" transform="translate(-426.102 -125.302)" fill="#fff"/>
        <ellipse id="Elipse_3982" data-name="Elipse 3982" cx="0.608" cy="0.582" rx="0.608" ry="0.582" transform="translate(27.371 0)" fill="#fff"/>
        <path id="Trazado_99288" data-name="Trazado 99288" d="M466.109,125.883a.609.609,0,1,0-.609.582A.6.6,0,0,0,466.109,125.883Z" transform="translate(-432.047 -125.302)" fill="#fff"/>
        <ellipse id="Elipse_3983" data-name="Elipse 3983" cx="0.608" cy="0.582" rx="0.608" ry="0.582" transform="translate(38.319 0)" fill="#fff"/>
        <ellipse id="Elipse_3984" data-name="Elipse 3984" cx="0.608" cy="0.582" rx="0.608" ry="0.582" transform="translate(43.794 0)" fill="#fff"/>
        <path id="Trazado_99289" data-name="Trazado 99289" d="M491.448,125.883a.609.609,0,1,0-.609.582A.6.6,0,0,0,491.448,125.883Z" transform="translate(-440.963 -125.302)" fill="#fff"/>
        <path id="Trazado_99290" data-name="Trazado 99290" d="M499.894,125.883a.609.609,0,1,0-.609.582A.6.6,0,0,0,499.894,125.883Z" transform="translate(-443.935 -125.302)" fill="#fff"/>
      </g>
      <g id="Grupo_53317" data-name="Grupo 53317" transform="translate(0 0)">
        <ellipse id="Elipse_3985" data-name="Elipse 3985" cx="0.608" cy="0.582" rx="0.608" ry="0.582" fill="#fff"/>
        <path id="Trazado_99291" data-name="Trazado 99291" d="M423.877,133.391a.609.609,0,1,0-.608.582A.6.6,0,0,0,423.877,133.391Z" transform="translate(-417.186 -132.81)" fill="#fff"/>
        <ellipse id="Elipse_3986" data-name="Elipse 3986" cx="0.608" cy="0.582" rx="0.608" ry="0.582" transform="translate(10.948)" fill="#fff"/>
        <path id="Trazado_99292" data-name="Trazado 99292" d="M440.77,133.391a.609.609,0,1,0-.609.582A.6.6,0,0,0,440.77,133.391Z" transform="translate(-423.13 -132.81)" fill="#fff"/>
        <path id="Trazado_99293" data-name="Trazado 99293" d="M449.216,133.391a.609.609,0,1,0-.608.582A.6.6,0,0,0,449.216,133.391Z" transform="translate(-426.102 -132.81)" fill="#fff"/>
        <ellipse id="Elipse_3987" data-name="Elipse 3987" cx="0.608" cy="0.582" rx="0.608" ry="0.582" transform="translate(27.371)" fill="#fff"/>
        <path id="Trazado_99294" data-name="Trazado 99294" d="M466.109,133.391a.609.609,0,1,0-.609.582A.6.6,0,0,0,466.109,133.391Z" transform="translate(-432.047 -132.81)" fill="#fff"/>
        <ellipse id="Elipse_3988" data-name="Elipse 3988" cx="0.608" cy="0.582" rx="0.608" ry="0.582" transform="translate(38.319)" fill="#fff"/>
        <ellipse id="Elipse_3989" data-name="Elipse 3989" cx="0.608" cy="0.582" rx="0.608" ry="0.582" transform="translate(43.794)" fill="#fff"/>
        <path id="Trazado_99295" data-name="Trazado 99295" d="M491.448,133.391a.609.609,0,1,0-.609.582A.6.6,0,0,0,491.448,133.391Z" transform="translate(-440.963 -132.81)" fill="#fff"/>
        <path id="Trazado_99296" data-name="Trazado 99296" d="M499.894,133.391a.609.609,0,1,0-.609.582A.6.6,0,0,0,499.894,133.391Z" transform="translate(-443.935 -132.81)" fill="#fff"/>
      </g>
    </g>
  </g>
  <g id="Grupo_158116" data-name="Grupo 158116" transform="translate(8.907 2.717)">
    <g id="Grupo_158110" data-name="Grupo 158110" transform="translate(12.389 5.854)">
      <g id="Grupo_158109" data-name="Grupo 158109" clip-path="url(#clip-path-2)">
        <path id="Trazado_152936" data-name="Trazado 152936" d="M139.212,42.359l21.46,38.584c3.523,6.334-.476,14.6-7.064,14.6H95.676a8.176,8.176,0,0,1-7.064-4.425L64.255,47.324c-3.523-6.334.477-14.6,7.064-14.6h57.932a8.177,8.177,0,0,1,7.064,4.426Z" transform="translate(-30.101 -13.293)" fill="#f5e8df"/>
        <path id="Trazado_152937" data-name="Trazado 152937" d="M93.6,115.8l8.807,15.836c1.446,2.6-.2,5.992-2.9,5.992H75.735a3.355,3.355,0,0,1-2.9-1.816l-10-17.974c-1.446-2.6.2-5.992,2.9-5.992H89.515a3.356,3.356,0,0,1,2.9,1.816Z" transform="translate(-29.793 -45.432)" fill="#636363"/>
        <path id="Trazado_152938" data-name="Trazado 152938" d="M93.86,119.572s.922-1.745,2.687-.266l9.905,10.156s.935,1.508-.981,1.7H92.366s-2.83.161-2.149-2.207Z" transform="translate(-43.091 -48.222)" fill="#fff"/>
        <path id="Trazado_152939" data-name="Trazado 152939" d="M159.346,80.918l-3.86-6.94-.521-.938a1.645,1.645,0,0,0-1.428-.894H143.115a1.65,1.65,0,0,0-1.48,1,2.124,2.124,0,0,0,.053,1.956l4.381,7.878a1.644,1.644,0,0,0,1.428.895h10.42a1.65,1.65,0,0,0,1.481-1,2.123,2.123,0,0,0-.052-1.956" transform="translate(-67.628 -29.306)" fill="#785549"/>
        <path id="Trazado_152940" data-name="Trazado 152940" d="M74.9,9.313,85.165,27.772c1.685,3.03-.228,6.985-3.379,6.985H54.07a3.912,3.912,0,0,1-3.379-2.117L39.038,11.688c-1.685-3.03.228-6.985,3.379-6.985H70.132A3.911,3.911,0,0,1,73.512,6.82Z" transform="translate(-15.081 -4.69)" fill="#acbefa"/>
        <path id="Trazado_152941" data-name="Trazado 152941" d="M45.318,5.829H82.239L79.813,1.643A4.291,4.291,0,0,0,77.524.249c-1.7-.521-28.685.019-28.685.019s-4.221.458-3.521,5.561" transform="translate(-21.634 -0.009)" fill="#12263f"/>
        <path id="Trazado_152942" data-name="Trazado 152942" d="M97.75,4.451c-.449.425-1.242.182-1.77-.542a1.675,1.675,0,0,1-.142-2.079c.449-.425,1.242-.182,1.77.542a1.675,1.675,0,0,1,.142,2.079" transform="translate(-45.686 -0.658)" fill="#fff"/>
        <path id="Trazado_152943" data-name="Trazado 152943" d="M89.935,4.451c-.449.425-1.242.182-1.77-.542a1.675,1.675,0,0,1-.142-2.079c.449-.425,1.242-.182,1.77.542a1.676,1.676,0,0,1,.142,2.079" transform="translate(-41.949 -0.658)" fill="#fff"/>
        <path id="Trazado_152944" data-name="Trazado 152944" d="M6,71.63c-1.138,1.075-3.143.461-4.48-1.372s-1.5-4.189-.36-5.263,3.143-.461,4.48,1.372,1.5,4.189.36,5.263" transform="translate(-0.193 -26.187)" fill="#ffca28"/>
        <path id="Trazado_152953" data-name="Trazado 152953" d="M172.6,56.149h-15.76a2.819,2.819,0,0,1-2.449-1.535l-2.023-3.991a3.637,3.637,0,0,1-.086-3.347,2.83,2.83,0,0,1,2.54-1.708h18.632A2.821,2.821,0,0,1,175.9,47.1l2.023,3.991a3.622,3.622,0,0,1,.186,3.117.2.2,0,0,1-.279.119.253.253,0,0,1-.1-.317,3.1,3.1,0,0,0-.163-2.671l-2.022-3.991a2.408,2.408,0,0,0-2.089-1.3H154.821a2.418,2.418,0,0,0-2.171,1.46,3.116,3.116,0,0,0,.077,2.868l2.022,3.991a2.4,2.4,0,0,0,2.089,1.3H172.6a.242.242,0,0,1,0,.48" transform="translate(-72.645 -18.51)"/>
        <path id="Trazado_152954" data-name="Trazado 152954" d="M177.286,50.512H161.681a.242.242,0,0,1,0-.48h15.606a.242.242,0,0,1,0,.48" transform="translate(-77.215 -20.323)"/>
        <path id="Trazado_152955" data-name="Trazado 152955" d="M180.3,55.973h-15.6a.242.242,0,0,1,0-.48h15.6a.242.242,0,0,1,0,.48" transform="translate(-78.655 -22.542)"/>
        <path id="Trazado_152956" data-name="Trazado 152956" d="M107.9,83.391H92.3a.242.242,0,0,1,0-.479h15.6a.242.242,0,0,1,0,.479" transform="translate(-44.037 -33.68)"/>
        <path id="Trazado_152957" data-name="Trazado 152957" d="M110.915,88.852H95.309a.242.242,0,0,1,0-.479h15.606a.242.242,0,0,1,0,.479" transform="translate(-45.476 -35.898)"/>
        <path id="Trazado_152958" data-name="Trazado 152958" d="M122.325,107.4H106.72a.242.242,0,0,1,0-.479h15.605a.242.242,0,0,1,0,.479" transform="translate(-50.932 -43.433)"/>
        <path id="Trazado_152959" data-name="Trazado 152959" d="M125.334,112.863H109.729a.242.242,0,0,1,0-.479h15.606a.242.242,0,0,1,0,.479" transform="translate(-52.371 -45.652)"/>
        <path id="Trazado_152960" data-name="Trazado 152960" d="M82.918,9.877H51.944a.242.242,0,0,1,0-.48H82.918a.242.242,0,0,1,0,.48" transform="translate(-24.739 -3.817)"/>
        <path id="Trazado_152961" data-name="Trazado 152961" d="M105.579,20.312H92.241a.242.242,0,0,1,0-.48h13.337a.242.242,0,0,1,0,.48" transform="translate(-44.009 -8.056)"/>
        <path id="Trazado_152962" data-name="Trazado 152962" d="M111,28.65H97.663a.242.242,0,0,1,0-.48H111a.242.242,0,0,1,0,.48" transform="translate(-46.602 -11.443)"/>
        <path id="Trazado_152963" data-name="Trazado 152963" d="M116.125,36.987H102.788a.242.242,0,0,1,0-.48h13.337a.242.242,0,0,1,0,.48" transform="translate(-49.053 -14.83)"/>
        <path id="Trazado_152964" data-name="Trazado 152964" d="M105.756,4.451c-.449.425-1.242.182-1.77-.542a1.675,1.675,0,0,1-.142-2.079c.449-.425,1.242-.182,1.77.542a1.676,1.676,0,0,1,.142,2.079" transform="translate(-49.515 -0.658)" fill="#4adbd1"/>
        <path id="Trazado_152965" data-name="Trazado 152965" d="M97.021,4.736a1.276,1.276,0,0,1-.37-.058,2.058,2.058,0,0,1-1.022-.78,1.93,1.93,0,0,1-.115-2.417,1.025,1.025,0,0,1,1.045-.207,2.057,2.057,0,0,1,1.022.78A1.93,1.93,0,0,1,97.7,4.471a.959.959,0,0,1-.674.265m-.83-3.04a.577.577,0,0,0-.408.154c-.353.334-.276,1.132.17,1.742a1.636,1.636,0,0,0,.807.623.652.652,0,0,0,.666-.113c.353-.334.276-1.131-.17-1.742a1.639,1.639,0,0,0-.807-.623.9.9,0,0,0-.258-.041" transform="translate(-45.497 -0.494)"/>
        <path id="Trazado_152966" data-name="Trazado 152966" d="M147.982,58.159a1.259,1.259,0,0,1-.37-.058,2.058,2.058,0,0,1-1.022-.78,1.93,1.93,0,0,1-.115-2.417,1.024,1.024,0,0,1,1.045-.207,2.058,2.058,0,0,1,1.022.78,1.931,1.931,0,0,1,.115,2.417.961.961,0,0,1-.674.265m-.831-3.04a.579.579,0,0,0-.407.154c-.353.334-.276,1.132.17,1.742a1.632,1.632,0,0,0,.807.623.655.655,0,0,0,.666-.112c.353-.334.276-1.132-.17-1.742a1.634,1.634,0,0,0-.807-.623.877.877,0,0,0-.259-.042" transform="translate(-69.866 -22.195)"/>
        <path id="Trazado_152967" data-name="Trazado 152967" d="M73.277,69.315c-.449.425-1.242.182-1.77-.542a1.675,1.675,0,0,1-.142-2.079c.449-.425,1.242-.182,1.77.542a1.676,1.676,0,0,1,.142,2.079" transform="translate(-33.983 -27.007)" fill="#fff"/>
        <path id="Trazado_152968" data-name="Trazado 152968" d="M72.546,69.6a1.832,1.832,0,0,1-1.394-.834,2.517,2.517,0,0,1-.486-1.287,1.387,1.387,0,0,1,.372-1.13,1.024,1.024,0,0,1,1.045-.207,2.055,2.055,0,0,1,1.022.78,2.514,2.514,0,0,1,.486,1.286,1.389,1.389,0,0,1-.371,1.131.957.957,0,0,1-.672.261m-.832-3.036a.577.577,0,0,0-.408.154.89.89,0,0,0-.22.724,1.992,1.992,0,0,0,.39,1.018c.446.61,1.12.843,1.473.511a.893.893,0,0,0,.22-.724,2,2,0,0,0-.39-1.018,1.645,1.645,0,0,0-.807-.623.894.894,0,0,0-.258-.041" transform="translate(-33.79 -26.842)"/>
        <path id="Trazado_152969" data-name="Trazado 152969" d="M4.443,72.23a4.336,4.336,0,0,1-3.276-1.983A5.96,5.96,0,0,1,.012,67.2a3.128,3.128,0,0,1,.823-2.55,2.31,2.31,0,0,1,2.355-.452,4.9,4.9,0,0,1,2.422,1.854c1.408,1.93,1.558,4.443.332,5.6a2.136,2.136,0,0,1-1.5.58m-2.1-7.69a1.754,1.754,0,0,0-1.236.475,2.637,2.637,0,0,0-.673,2.144,5.445,5.445,0,0,0,1.06,2.782c1.261,1.727,3.137,2.328,4.183,1.34s.873-3.2-.387-4.925a4.472,4.472,0,0,0-2.207-1.7,2.521,2.521,0,0,0-.74-.118" transform="translate(0 -26.022)"/>
        <path id="Trazado_152970" data-name="Trazado 152970" d="M63.187,135.569a1.831,1.831,0,0,1-1.394-.834,2.516,2.516,0,0,1-.486-1.286,1.387,1.387,0,0,1,.371-1.131c.538-.51,1.466-.251,2.067.573a2.514,2.514,0,0,1,.486,1.286,1.388,1.388,0,0,1-.371,1.131.959.959,0,0,1-.673.261m-.835-3.034a.575.575,0,0,0-.4.153.892.892,0,0,0-.22.724,1.994,1.994,0,0,0,.39,1.017c.446.612,1.121.842,1.474.511a.893.893,0,0,0,.22-.724,2,2,0,0,0-.39-1.018,1.45,1.45,0,0,0-1.069-.663" transform="translate(-29.315 -53.643)"/>
        <path id="Trazado_152971" data-name="Trazado 152971" d="M133.09,88.385a1.832,1.832,0,0,1-1.394-.834,2.437,2.437,0,0,1-.485-1.572,1.276,1.276,0,0,1,.37-.845c.539-.509,1.466-.251,2.066.573a2.514,2.514,0,0,1,.486,1.286,1.389,1.389,0,0,1-.371,1.131.957.957,0,0,1-.672.261m-.835-3.034a.575.575,0,0,0-.4.153.8.8,0,0,0-.22.521,1.9,1.9,0,0,0,.389,1.221c.445.611,1.12.843,1.473.511a.893.893,0,0,0,.22-.724,2,2,0,0,0-.39-1.018,1.45,1.45,0,0,0-1.068-.663" transform="translate(-62.742 -34.476)"/>
        <path id="Trazado_152972" data-name="Trazado 152972" d="M89.207,4.734A1.832,1.832,0,0,1,87.813,3.9,1.93,1.93,0,0,1,87.7,1.484c.537-.509,1.465-.252,2.067.572a1.931,1.931,0,0,1,.115,2.417.958.958,0,0,1-.673.261M88.372,1.7a.572.572,0,0,0-.4.153c-.353.334-.276,1.131.17,1.742s1.121.843,1.474.511.276-1.131-.17-1.742A1.451,1.451,0,0,0,88.372,1.7" transform="translate(-41.759 -0.496)"/>
        <path id="Trazado_152973" data-name="Trazado 152973" d="M128.815,73.676a.2.2,0,0,1-.174-.105,16.964,16.964,0,0,1-1.195-2.447.253.253,0,0,1,.106-.316.2.2,0,0,1,.279.121,16.5,16.5,0,0,0,1.159,2.374.262.262,0,0,1-.056.333.194.194,0,0,1-.118.041m-1.982-5.009a.218.218,0,0,1-.2-.18,18.118,18.118,0,0,1-.411-2.759.231.231,0,0,1,.193-.258.222.222,0,0,1,.226.22,17.567,17.567,0,0,0,.4,2.676.244.244,0,0,1-.151.292.184.184,0,0,1-.053.008m-.351-5.468a.153.153,0,0,1-.043-.005.24.24,0,0,1-.163-.284,4.812,4.812,0,0,1,1.263-2.461.193.193,0,0,1,.3.012.263.263,0,0,1-.011.338,4.328,4.328,0,0,0-1.138,2.209.219.219,0,0,1-.206.191m3.254-3.777a.212.212,0,0,1-.194-.147.252.252,0,0,1,.113-.314,12.491,12.491,0,0,1,2.353-.827.21.21,0,0,1,.252.182.242.242,0,0,1-.161.286,12.155,12.155,0,0,0-2.281.8.191.191,0,0,1-.081.019m4.716-1.243a.222.222,0,0,1-.209-.216.234.234,0,0,1,.188-.263,21.038,21.038,0,0,1,2.324-.144h.132a.228.228,0,0,1,.206.245.226.226,0,0,1-.211.234h-.126a20.435,20.435,0,0,0-2.281.142h-.021" transform="translate(-60.357 -23.38)"/>
        <path id="Trazado_152974" data-name="Trazado 152974" d="M44.464,69.98H42.039a.242.242,0,0,1,0-.479h2.424a.242.242,0,0,1,0,.479m-4.849,0H37.19a.242.242,0,0,1,0-.479h2.424a.242.242,0,0,1,0,.479m-4.849,0H32.341a.242.242,0,0,1,0-.479h2.425a.242.242,0,0,1,0,.479m-4.849,0H27.492a.242.242,0,0,1,0-.479h2.425a.242.242,0,0,1,0,.479m-4.85,0H22.642a.242.242,0,0,1,0-.479h2.425a.242.242,0,0,1,0,.479m-4.849,0H17.793a.242.242,0,0,1,0-.479h2.425a.242.242,0,0,1,0,.479" transform="translate(-8.408 -28.232)"/>
        <path id="Trazado_152975" data-name="Trazado 152975" d="M53.047,135.091H50.622a.242.242,0,0,1,0-.479h2.424a.242.242,0,0,1,0,.479m-4.849,0H46.315a.242.242,0,0,1,0-.479H48.2a.242.242,0,0,1,0,.479" transform="translate(-22.047 -54.681)"/>
        <path id="Trazado_152976" data-name="Trazado 152976" d="M29.3,112.249a.207.207,0,0,1-.178-.112l-.417-.751a.259.259,0,0,1,.066-.33.2.2,0,0,1,.291.074l.417.75a.26.26,0,0,1-.066.331.188.188,0,0,1-.112.037m-1.714-3.082a.206.206,0,0,1-.178-.111l-1.3-2.331a.26.26,0,0,1,.066-.331.2.2,0,0,1,.291.074l1.3,2.331a.26.26,0,0,1-.065.331.189.189,0,0,1-.113.037M24.989,104.5a.207.207,0,0,1-.178-.112l-1.3-2.331a.259.259,0,0,1,.066-.33.2.2,0,0,1,.291.074l1.3,2.331a.26.26,0,0,1-.066.331.187.187,0,0,1-.112.037M22.4,99.841a.206.206,0,0,1-.178-.111l-1.3-2.331a.26.26,0,0,1,.066-.331.2.2,0,0,1,.291.074l1.3,2.331a.26.26,0,0,1-.065.331.189.189,0,0,1-.113.037M19.8,95.178a.207.207,0,0,1-.178-.112l-1.3-2.332a.259.259,0,0,1,.065-.33.2.2,0,0,1,.291.074l1.3,2.331a.26.26,0,0,1-.066.331.187.187,0,0,1-.112.037m-2.593-4.663a.206.206,0,0,1-.178-.111l-1.3-2.332a.26.26,0,0,1,.066-.331.2.2,0,0,1,.291.074l1.3,2.332a.26.26,0,0,1-.066.331.188.188,0,0,1-.112.037m-2.593-4.663a.207.207,0,0,1-.178-.111l-1.3-2.332a.259.259,0,0,1,.065-.33.2.2,0,0,1,.291.074l1.3,2.331a.26.26,0,0,1-.065.331.189.189,0,0,1-.113.037M12.022,81.19a.206.206,0,0,1-.178-.111l-1.3-2.332a.26.26,0,0,1,.066-.331.2.2,0,0,1,.291.074l1.3,2.332a.26.26,0,0,1-.066.331.192.192,0,0,1-.112.037" transform="translate(-5.028 -31.838)"/>
        <path id="Trazado_152978" data-name="Trazado 152978" d="M77.361,30.3a.2.2,0,0,1-.178-.112L68.309,14.233a.26.26,0,0,1,.065-.331.2.2,0,0,1,.291.074l8.874,15.955a.261.261,0,0,1-.065.331.2.2,0,0,1-.113.037" transform="translate(-32.65 -5.632)"/>
      </g>
    </g>
    <g id="Grupo_158034" data-name="Grupo 158034" transform="translate(60.361 0)">
      <g id="Grupo_158108" data-name="Grupo 158108">
        <path id="Trazado_152232" data-name="Trazado 152232" d="M484.7,110.61a21.93,21.93,0,1,1,14.238,8.834A21.689,21.689,0,0,1,484.7,110.61m3.015-15.173A14.987,14.987,0,1,0,504.94,83.111a14.98,14.98,0,0,0-17.226,12.326" transform="translate(-415.599 -65.743)" fill="#f2e6dc"/>
        <path id="Trazado_152233" data-name="Trazado 152233" d="M490.932,115.639a21.064,21.064,0,1,1,13.676,8.485,20.833,20.833,0,0,1-13.676-8.485m1.459-14.81a15.851,15.851,0,1,0,18.22-13.037,15.844,15.844,0,0,0-18.22,13.037" transform="translate(-421.13 -71.275)" fill="#fff"/>
        <path id="Trazado_152234" data-name="Trazado 152234" d="M509.9,88.021a15.879,15.879,0,0,0-13.884,11.951l-5.13-.844a21.049,21.049,0,0,1,18.932-16.3Z" transform="translate(-424.498 -71.646)" fill="#4adbd1"/>
        <path id="Trazado_152235" data-name="Trazado 152235" d="M492.244,222.736a15.847,15.847,0,0,0,25.021,14.19l3.357,3.972c-.107.08-.214.159-.323.237a21.031,21.031,0,0,1-33.184-19.244Z" transform="translate(-421.627 -191.94)" fill="#31313c"/>
        <path id="Trazado_152236" data-name="Trazado 152236" d="M658.775,91.515a15.768,15.768,0,0,0-7.705-3.576q-.791-.13-1.576-.18l-.082-5.191a21.445,21.445,0,0,1,2.5.262,20.915,20.915,0,0,1,10.546,5.007Z" transform="translate(-561.589 -71.423)" fill="#12263f"/>
        <path id="Trazado_152237" data-name="Trazado 152237" d="M730.951,136.514a22.357,22.357,0,0,1,3.66,16.285,21.957,21.957,0,0,1-6.259,12.279l-3.358-4.135a16.591,16.591,0,0,0,4.5-9.021,16.877,16.877,0,0,0-3.586-13.356l3.683-3.825a22.139,22.139,0,0,1,1.362,1.773" transform="translate(-626.95 -116.739)" fill="#ffca28"/>
        <path id="Trazado_152238" data-name="Trazado 152238" d="M225.49,390.68a44.575,44.575,0,0,1,6.777,10.011c4.194,8.5,4.693,22.3,4.608,26.841H213.161c-.087-1.939-.175-9.75-.262-11.689-1.786.942-8.634,10.637-9.624,11.676h-28.2c5.6-7.549,15.357-18.626,22.228-24.173-.5-2.706-.994-4.685-1.491-7.39l29.682-5.276" transform="translate(-151.395 -329.484)" fill="#12263f"/>
        <path id="Trazado_152239" data-name="Trazado 152239" d="M27.852,249.554c-7.405,1.374-29.02,4.032-27.8,13.078,1.008,7.482,21.943,3.966,29.386,3.078l-1.584-16.155" transform="translate(0 -211.9)" fill="#f8b8a4"/>
        <path id="Trazado_152240" data-name="Trazado 152240" d="M195.559,214.966l-2.44,18.128,43.914-10.552L228.9,210.366l8.4-.541-.271-17.587-53.943,7.576.813,18.669Z" transform="translate(-158.33 -161.784)" fill="#4adbd1"/>
        <path id="Trazado_152241" data-name="Trazado 152241" d="M501.8,212.81c2.486.088,19.407-.612,21.576,3.717,2.278,4.547-10.134,23.921-14.367,29.289A6.854,6.854,0,0,1,506.774,249c-1.454,1.1-2.351.7-4.066,1.623-2.895,1.556-3.152,4.3-4.252,3.925-.756-.261-.676-1.869-.22-3.316.468-1.486,1.4-2.251,1.22-2.435-.194-.2-1.037.7-2.188,1.718-.535.475-1.2,2.68-2.285,2.476-.865-.163-.749-2.629.472-4.4.864-1.256,2.295-1.638,2.171-1.887-.093-.187-.94.062-1.606.493-1.1.712-1.8,2.961-2.8,2.754-.975-.2-.836-2.355.184-4.059.859-1.436,2.476-1.786,2.323-2.1-.107-.218-.863-.212-2.372.271-1.259.4-3.447,2-4.066.744-.521-1.053,1.738-2.781,4.115-3.989,1.575-.8,3.262-1.427,4.221-1.828a12.321,12.321,0,0,0-2.169-1.082c-1.718-.655-2.42-.666-2.55-1.486-.134-.845,1.3-1.183,2.964-1.134a11.756,11.756,0,0,1,4.262,1.2l5.218-9.47c-.949.068-2.381.12-3.33.188-.045-4.508-.221-9.161-.219-14.39" transform="translate(-423.056 -179.001)" fill="#f8b8a4"/>
        <path id="Trazado_152242" data-name="Trazado 152242" d="M607.838,272.693a.135.135,0,0,1-.12-.2l3.61-6.851a.135.135,0,0,1,.239.126l-3.61,6.851a.135.135,0,0,1-.12.072" transform="translate(-525.521 -226.046)" fill="#363e44"/>
        <path id="Trazado_152243" data-name="Trazado 152243" d="M281.21,316.813l-.024,0a.135.135,0,0,1-.109-.157l.772-4.33a.135.135,0,0,1,.266.048l-.773,4.33a.135.135,0,0,1-.133.111" transform="translate(-243.064 -265.873)" fill="#fff"/>
        <path id="Trazado_152244" data-name="Trazado 152244" d="M270.082,314.789l-.024,0a.135.135,0,0,1-.109-.157l.772-4.33a.135.135,0,0,1,.266.048l-.773,4.33a.135.135,0,0,1-.133.111" transform="translate(-233.441 -264.149)" fill="#fff"/>
        <path id="Trazado_152245" data-name="Trazado 152245" d="M249.2,317.859a2.348,2.348,0,0,1-1.935-1.021,2.319,2.319,0,0,1-.366-1.751l2.418-12.766a1.091,1.091,0,0,1,1.275-.868l2.456.464a1.09,1.09,0,0,1,.87,1.273L251.5,315.955a2.345,2.345,0,0,1-2.3,1.9m1.187-16.155a.821.821,0,0,0-.8.667l-2.418,12.766a2.068,2.068,0,0,0,1.65,2.415,2.073,2.073,0,0,0,2.42-1.647l2.418-12.766a.82.82,0,0,0-.654-.957l-2.456-.464a.842.842,0,0,0-.154-.014" transform="translate(-213.47 -256.04)" fill="#fff"/>
        <path id="Trazado_152246" data-name="Trazado 152246" d="M275.812,209.133l-2.726-.514,2.8-14.795,2.726.515Zm-2.41-.729,2.194.414,2.7-14.264-2.195-.414Z" transform="translate(-236.156 -164.681)" fill="#fff"/>
        <path id="Trazado_152247" data-name="Trazado 152247" d="M12.1,300.118c6.2,1.3,20.946,3.639,22.376,3.924,2.674.534,8.4,1.513,8.423,3.381a1.922,1.922,0,0,1-1.056,1.6,1.941,1.941,0,0,1,.388,2.115,2.037,2.037,0,0,1-1.471,1.1,1.629,1.629,0,0,1,.626,1.532,1.711,1.711,0,0,1-1.881,1.272,1.905,1.905,0,0,1,.021,1.381,2.007,2.007,0,0,1-1.86,1.186c-2.376-.472-6.2-.6-10.766-1.04-10.721-1.024-15.459-1.93-20.548-3.361a8.532,8.532,0,0,1-6.107-6.974c3.979-2.063,7.875-4.051,11.854-6.114" transform="translate(-0.213 -254.853)" fill="#f8b8a4"/>
        <path id="Trazado_152248" data-name="Trazado 152248" d="M98.16,299.5l-.027,0c-1.266-.259-4.068-.809-6.778-1.341s-5.514-1.082-6.78-1.342a.135.135,0,1,1,.054-.264c1.266.259,4.068.809,6.778,1.341s5.514,1.082,6.78,1.342a.135.135,0,0,1-.027.267" transform="translate(-73.044 -252.612)" fill="#363e44"/>
        <path id="Trazado_152249" data-name="Trazado 152249" d="M285.636,346.753a.138.138,0,0,1-.035,0,.135.135,0,0,1-.1-.165l.312-1.157a.135.135,0,0,1,.261.07l-.312,1.157a.135.135,0,0,1-.13.1" transform="translate(-246.891 -294.239)" fill="#363e44"/>
        <path id="Trazado_152250" data-name="Trazado 152250" d="M279.814,368.5a.135.135,0,0,1-.131-.17l.312-1.157a.135.135,0,0,1,.261.07l-.312,1.157a.135.135,0,0,1-.131.1" transform="translate(-241.856 -312.773)" fill="#363e44"/>
        <path id="Trazado_152251" data-name="Trazado 152251" d="M274.129,390.717a.137.137,0,0,1-.035,0,.135.135,0,0,1-.1-.165l.312-1.157a.135.135,0,0,1,.261.07l-.312,1.157a.135.135,0,0,1-.131.1" transform="translate(-236.94 -331.7)" fill="#363e44"/>
        <path id="Trazado_152252" data-name="Trazado 152252" d="M268.559,410.758a.135.135,0,0,1-.131-.17l.312-1.157a.135.135,0,0,1,.261.07l-.312,1.157a.135.135,0,0,1-.131.1" transform="translate(-232.123 -348.776)" fill="#363e44"/>
        <path id="Trazado_152253" data-name="Trazado 152253" d="M355.811,6.228A6.24,6.24,0,1,1,349.572,0a6.234,6.234,0,0,1,6.24,6.228" transform="translate(-296.902)" fill="#363e44"/>
        <path id="Trazado_152254" data-name="Trazado 152254" d="M393.058,80.006c5.1.433,7.091,2.358,7.929,3.856,1.626,2.909.689,4.91,2.236,8.726a14.066,14.066,0,0,0,5.286,6.223,15.437,15.437,0,0,1-12.334,4.262,41.169,41.169,0,0,0-3.117-23.066" transform="translate(-339.903 -69.206)" fill="#363e44"/>
        <path id="Trazado_152255" data-name="Trazado 152255" d="M347.084,89.523c.342-.033,3.625-.3,5.6,1.939,1.471,1.667,1.648,3.807,1.4,7.441-.291,4.279-1.064,6.8-2.3,7.641-1.95,1.335-7.793-1.65-9.99-5.387a8.6,8.6,0,0,1,.271-8.839,6.482,6.482,0,0,1,5.015-2.8" transform="translate(-294.63 -77.416)" fill="#f8b8a4"/>
        <path id="Trazado_152256" data-name="Trazado 152256" d="M364.549,196.62h0a3.147,3.147,0,0,1-3.15-3.144v-2.964a3.15,3.15,0,0,1,6.3,0v2.964a3.147,3.147,0,0,1-3.15,3.144" transform="translate(-312.526 -159.412)" fill="#f8b8a4"/>
        <path id="Trazado_152257" data-name="Trazado 152257" d="M356.843,181.939a5.376,5.376,0,0,1-1.162-.143,13.588,13.588,0,0,1-7.786-5.591.135.135,0,0,1,.233-.136,13.285,13.285,0,0,0,7.613,5.464,2.938,2.938,0,0,0,2.224-.141.135.135,0,1,1,.153.223,2.243,2.243,0,0,1-1.274.324" transform="translate(-300.831 -149.842)" fill="#363e44"/>
        <path id="Trazado_152258" data-name="Trazado 152258" d="M354.6,84.129c1.315,2.958-3.32,6.028-7.4,4.871-2.385-.676-4.612-3.147-4.123-4.649.842-2.584,10.171-3.26,11.521-.222" transform="translate(-296.624 -71.034)" fill="#363e44"/>
        <path id="Trazado_152259" data-name="Trazado 152259" d="M442.775,129.8a5.666,5.666,0,0,1-1.294,2.123c-.2.2-1.411-1.765-1.132-1.864a5.7,5.7,0,0,1,2.426-.26" transform="translate(-380.764 -110.551)" fill="#fff"/>
        <path id="Trazado_152260" data-name="Trazado 152260" d="M419.949,135a5.349,5.349,0,0,0,3.252-.658,4,4,0,0,0,.674-.544,2.228,2.228,0,0,0-1.131-1.863,4.025,4.025,0,0,0-.827.4A5.33,5.33,0,0,0,419.949,135" transform="translate(-363.158 -112.386)" fill="#363e44"/>
        <path id="Trazado_152261" data-name="Trazado 152261" d="M235.5,58.284a14.18,14.18,0,1,1-14.18-14.154A14.167,14.167,0,0,1,235.5,58.284" transform="translate(-179.123 -38.173)" fill="#e2a18d"/>
        <path id="Trazado_152262" data-name="Trazado 152262" d="M220.451,71.708a14.289,14.289,0,1,1,14.316-14.289,14.272,14.272,0,0,1-14.316,14.289m0-28.309a14.048,14.048,0,0,0-14.045,14.019,14.033,14.033,0,0,0,14.045,14.019,14.019,14.019,0,1,0,0-28.039" transform="translate(-178.259 -37.308)" fill="#fff"/>
        <path id="Trazado_152263" data-name="Trazado 152263" d="M263.735,219.727a11.924,11.924,0,0,1-7.5-2.613.135.135,0,1,1,.168-.211,11.8,11.8,0,0,0,12.527,1.348.135.135,0,1,1,.12.242,11.935,11.935,0,0,1-5.32,1.234" transform="translate(-221.543 -184.743)" fill="#fff"/>
        <path id="Trazado_152264" data-name="Trazado 152264" d="M374.566,89.476a.135.135,0,0,1-.13-.1,11.73,11.73,0,0,0-3.324-5.49.135.135,0,1,1,.185-.2,12,12,0,0,1,3.4,5.616.135.135,0,0,1-.131.17" transform="translate(-320.888 -72.361)" fill="#fff"/>
        <path id="Trazado_152265" data-name="Trazado 152265" d="M285.373,62.085a.136.136,0,0,1-.073-.021,11.807,11.807,0,0,0-11.277-.734.135.135,0,1,1-.114-.245,12.077,12.077,0,0,1,11.537.751.135.135,0,0,1-.073.249" transform="translate(-236.799 -51.871)" fill="#fff"/>
        <path id="Trazado_152266" data-name="Trazado 152266" d="M230.846,182.025a.135.135,0,0,1-.1-.041,12.1,12.1,0,0,1-2.722-4.361.135.135,0,0,1,.255-.09,11.825,11.825,0,0,0,2.66,4.263.135.135,0,0,1-.1.229" transform="translate(-197.184 -151.108)" fill="#fff"/>
        <path id="Trazado_152267" data-name="Trazado 152267" d="M337.832,130.536a22.137,22.137,0,0,1-9.4,2.288c-1.093,0,.969-8.733,2.007-8.238a22.144,22.144,0,0,1,7.395,5.95" transform="translate(-283.747 -106.002)" fill="#fff"/>
        <path id="Trazado_152268" data-name="Trazado 152268" d="M242.075,114.936a15.7,15.7,0,0,0-3.378-1.176c-6.5-1.433-12.768,1.933-12.768,1.933s4.266,5.689,10.764,7.122a15.621,15.621,0,0,0,3.363.355,8.671,8.671,0,0,0,2.019-8.234" transform="translate(-195.376 -96.475)" fill="#363e44"/>
      </g>
    </g>
    <g id="Grupo_158114" data-name="Grupo 158114" transform="translate(0 30.895)">
      <g id="Grupo_158115" data-name="Grupo 158115" transform="translate(0 0)">
        <path id="Trazado_152982" data-name="Trazado 152982" d="M223.808,82.774H211.987a2.808,2.808,0,0,1-2.808-2.808v-12.1h17.437v12.1a2.808,2.808,0,0,1-2.808,2.808" transform="translate(-176.704 -57.541)" fill="#dee4f0"/>
        <path id="Trazado_152983" data-name="Trazado 152983" d="M79.273,207.1H6.348c-2.449,0-4.525-2.658-4.864-6.231-.414-4.351,1.881-8.237,4.864-8.237H79.273c2.983,0,5.278,3.885,4.864,8.237-.34,3.573-2.415,6.231-4.864,6.231" transform="translate(-1.436 -162.805)" fill="#12263f"/>
        <path id="Trazado_152985" data-name="Trazado 152985" d="M61.924,228.283a1.7,1.7,0,1,1-1.7-1.7,1.7,1.7,0,0,1,1.7,1.7" transform="translate(-49.594 -191.442)" fill="#fff"/>
        <path id="Trazado_152986" data-name="Trazado 152986" d="M104.092,228.283a1.7,1.7,0,1,1-1.7-1.7,1.7,1.7,0,0,1,1.7,1.7" transform="translate(-85.17 -191.442)" fill="#fff"/>
        <path id="Trazado_152987" data-name="Trazado 152987" d="M146.26,228.283a1.7,1.7,0,1,1-1.7-1.7,1.7,1.7,0,0,1,1.7,1.7" transform="translate(-120.746 -191.442)" fill="#fff"/>
        <path id="Trazado_152988" data-name="Trazado 152988" d="M188.428,228.283a1.7,1.7,0,1,1-1.7-1.7,1.7,1.7,0,0,1,1.7,1.7" transform="translate(-156.323 -191.442)" fill="#fff"/>
        <path id="Trazado_152989" data-name="Trazado 152989" d="M230.6,228.283a1.7,1.7,0,1,1-1.7-1.7,1.7,1.7,0,0,1,1.7,1.7" transform="translate(-191.899 -191.442)" fill="#fff"/>
        <path id="Trazado_152990" data-name="Trazado 152990" d="M272.764,228.283a1.7,1.7,0,1,1-1.7-1.7,1.7,1.7,0,0,1,1.7,1.7" transform="translate(-227.475 -191.442)" fill="#fff"/>
        <path id="Trazado_152991" data-name="Trazado 152991" d="M314.932,228.283a1.7,1.7,0,1,1-1.7-1.7,1.7,1.7,0,0,1,1.7,1.7" transform="translate(-263.051 -191.442)" fill="#fff"/>
        <path id="Trazado_152992" data-name="Trazado 152992" d="M357.1,228.283a1.7,1.7,0,1,1-1.7-1.7,1.7,1.7,0,0,1,1.7,1.7" transform="translate(-298.628 -191.442)" fill="#fff"/>
        <path id="Trazado_152993" data-name="Trazado 152993" d="M399.268,228.283a1.7,1.7,0,1,1-1.7-1.7,1.7,1.7,0,0,1,1.7,1.7" transform="translate(-334.204 -191.442)" fill="#fff"/>
        <path id="Trazado_152994" data-name="Trazado 152994" d="M441.436,228.283a1.7,1.7,0,1,1-1.7-1.7,1.7,1.7,0,0,1,1.7,1.7" transform="translate(-369.78 -191.442)" fill="#fff"/>
        <path id="Trazado_152995" data-name="Trazado 152995" d="M223.172,82.774H212.623a3.444,3.444,0,0,1-3.444-3.444V67.869h17.437V79.33A3.444,3.444,0,0,1,223.172,82.774Z" transform="translate(-176.704 -57.541)" fill="none" stroke="#231f20" stroke-linecap="round" stroke-linejoin="round" stroke-width="1"/>
        <path id="Trazado_152996" data-name="Trazado 152996" d="M226.616,6.56A4.757,4.757,0,0,0,221.859,1.8h-7.923a4.757,4.757,0,0,0-4.757,4.757v5.57" transform="translate(-176.704 -1.803)" fill="none" stroke="#231f20" stroke-linecap="round" stroke-linejoin="round" stroke-width="1"/>
        <path id="Trazado_152997" data-name="Trazado 152997" d="M256.936,95.644a1.823,1.823,0,1,0-3.047,1.351v3.618h2.448V96.995a1.818,1.818,0,0,0,.6-1.351" transform="translate(-213.92 -79.437)" fill="#31313c"/>
      </g>
    </g>
  </g>
</svg>
