<svg xmlns="http://www.w3.org/2000/svg" xmlns:xlink="http://www.w3.org/1999/xlink" width="136.934" height="135.983" viewBox="0 0 136.934 135.983">
  <defs>
    <clipPath id="clip-path">
      <rect id="Rectángulo_352272" data-name="Rectángulo 352272" width="62.209" height="62.209" fill="none"/>
    </clipPath>
  </defs>
  <g id="Grupo_1018678" data-name="Grupo 1018678" transform="translate(-215.5 -1931.159)">
    <g id="Grupo_1017981" data-name="Grupo 1017981" transform="translate(-47.5 1335.625)">
      <g id="Grupo_156356" data-name="Grupo 156356" transform="translate(263 650.743)">
        <g id="Grupo_156332" data-name="Grupo 156332" transform="translate(0 0)">
          <path id="Trazado_99257" data-name="Trazado 99257" d="M419.306,105.213a2.549,2.549,0,1,1-2.548-2.434A2.492,2.492,0,0,1,419.306,105.213Z" transform="translate(-414.214 -102.779)" fill="#12263f"/>
          <path id="Trazado_116526" data-name="Trazado 116526" d="M419.306,105.213a2.549,2.549,0,1,1-2.548-2.434A2.492,2.492,0,0,1,419.306,105.213Z" transform="translate(-356.555 -102.779)" fill="#12263f"/>
          <path id="Trazado_99258" data-name="Trazado 99258" d="M427.752,105.213a2.549,2.549,0,1,1-2.545-2.434A2.492,2.492,0,0,1,427.752,105.213Z" transform="translate(-411.129 -102.779)" fill="#12263f"/>
          <path id="Trazado_116527" data-name="Trazado 116527" d="M427.752,105.213a2.549,2.549,0,1,1-2.545-2.434A2.492,2.492,0,0,1,427.752,105.213Z" transform="translate(-353.469 -102.779)" fill="#12263f"/>
          <path id="Trazado_99259" data-name="Trazado 99259" d="M436.2,105.213a2.549,2.549,0,1,1-2.545-2.434A2.492,2.492,0,0,1,436.2,105.213Z" transform="translate(-408.043 -102.779)" fill="#12263f"/>
          <path id="Trazado_116531" data-name="Trazado 116531" d="M436.2,105.213a2.549,2.549,0,1,1-2.545-2.434A2.492,2.492,0,0,1,436.2,105.213Z" transform="translate(-350.384 -102.779)" fill="#12263f"/>
          <path id="Trazado_99260" data-name="Trazado 99260" d="M444.645,105.213a2.549,2.549,0,1,1-2.547-2.434A2.492,2.492,0,0,1,444.645,105.213Z" transform="translate(-404.958 -102.779)" fill="#12263f"/>
          <path id="Trazado_116532" data-name="Trazado 116532" d="M444.645,105.213a2.549,2.549,0,1,1-2.547-2.434A2.492,2.492,0,0,1,444.645,105.213Z" transform="translate(-347.298 -102.779)" fill="#12263f"/>
          <path id="Trazado_99261" data-name="Trazado 99261" d="M453.091,105.213a2.549,2.549,0,1,1-2.545-2.434A2.492,2.492,0,0,1,453.091,105.213Z" transform="translate(-401.872 -102.779)" fill="#12263f"/>
        </g>
        <g id="Grupo_156331" data-name="Grupo 156331" transform="translate(0 12.649)">
          <ellipse id="Elipse_3975" data-name="Elipse 3975" cx="2.546" cy="2.435" rx="2.546" ry="2.435" transform="translate(0 0.001)" fill="#12263f"/>
          <ellipse id="Elipse_4742" data-name="Elipse 4742" cx="2.546" cy="2.435" rx="2.546" ry="2.435" transform="translate(57.659 0.001)" fill="#12263f"/>
          <path id="Trazado_99268" data-name="Trazado 99268" d="M427.752,112.721a2.549,2.549,0,1,1-2.545-2.434A2.493,2.493,0,0,1,427.752,112.721Z" transform="translate(-411.129 -110.287)" fill="#12263f"/>
          <path id="Trazado_116528" data-name="Trazado 116528" d="M427.752,112.721a2.549,2.549,0,1,1-2.545-2.434A2.493,2.493,0,0,1,427.752,112.721Z" transform="translate(-353.469 -110.287)" fill="#12263f"/>
          <ellipse id="Elipse_3976" data-name="Elipse 3976" cx="2.546" cy="2.435" rx="2.546" ry="2.435" transform="translate(23.064 0.001)" fill="#12263f"/>
          <ellipse id="Elipse_4743" data-name="Elipse 4743" cx="2.546" cy="2.435" rx="2.546" ry="2.435" transform="translate(80.723 0.001)" fill="#12263f"/>
          <path id="Trazado_99269" data-name="Trazado 99269" d="M444.645,112.721a2.549,2.549,0,1,1-2.547-2.434A2.494,2.494,0,0,1,444.645,112.721Z" transform="translate(-404.958 -110.287)" fill="#12263f"/>
          <path id="Trazado_116533" data-name="Trazado 116533" d="M444.645,112.721a2.549,2.549,0,1,1-2.547-2.434A2.494,2.494,0,0,1,444.645,112.721Z" transform="translate(-347.298 -110.287)" fill="#12263f"/>
          <path id="Trazado_99270" data-name="Trazado 99270" d="M453.091,112.721a2.549,2.549,0,1,1-2.545-2.434A2.493,2.493,0,0,1,453.091,112.721Z" transform="translate(-401.872 -110.287)" fill="#12263f"/>
        </g>
        <g id="Grupo_156330" data-name="Grupo 156330" transform="translate(0 25.3)">
          <path id="Trazado_99274" data-name="Trazado 99274" d="M419.306,120.23a2.549,2.549,0,1,1-2.548-2.436A2.494,2.494,0,0,1,419.306,120.23Z" transform="translate(-414.214 -117.794)" fill="#12263f"/>
          <path id="Trazado_116529" data-name="Trazado 116529" d="M419.306,120.23a2.549,2.549,0,1,1-2.548-2.436A2.494,2.494,0,0,1,419.306,120.23Z" transform="translate(-356.555 -117.794)" fill="#12263f"/>
          <path id="Trazado_99275" data-name="Trazado 99275" d="M427.752,120.23a2.549,2.549,0,1,1-2.545-2.436A2.493,2.493,0,0,1,427.752,120.23Z" transform="translate(-411.129 -117.794)" fill="#12263f"/>
          <path id="Trazado_116530" data-name="Trazado 116530" d="M427.752,120.23a2.549,2.549,0,1,1-2.545-2.436A2.493,2.493,0,0,1,427.752,120.23Z" transform="translate(-353.469 -117.794)" fill="#12263f"/>
          <path id="Trazado_99276" data-name="Trazado 99276" d="M436.2,120.23a2.549,2.549,0,1,1-2.545-2.436A2.493,2.493,0,0,1,436.2,120.23Z" transform="translate(-408.043 -117.794)" fill="#12263f"/>
          <path id="Trazado_116534" data-name="Trazado 116534" d="M436.2,120.23a2.549,2.549,0,1,1-2.545-2.436A2.493,2.493,0,0,1,436.2,120.23Z" transform="translate(-350.384 -117.794)" fill="#12263f"/>
          <path id="Trazado_99277" data-name="Trazado 99277" d="M444.645,120.23a2.549,2.549,0,1,1-2.547-2.436A2.494,2.494,0,0,1,444.645,120.23Z" transform="translate(-404.958 -117.794)" fill="#12263f"/>
          <path id="Trazado_116535" data-name="Trazado 116535" d="M444.645,120.23a2.549,2.549,0,1,1-2.547-2.436A2.494,2.494,0,0,1,444.645,120.23Z" transform="translate(-347.298 -117.794)" fill="#12263f"/>
          <path id="Trazado_99278" data-name="Trazado 99278" d="M453.091,120.23a2.549,2.549,0,1,1-2.545-2.436A2.493,2.493,0,0,1,453.091,120.23Z" transform="translate(-401.872 -117.794)" fill="#12263f"/>
        </g>
        <g id="Grupo_156327" data-name="Grupo 156327" transform="translate(0 63.252)">
          <path id="Trazado_116550" data-name="Trazado 116550" d="M419.306,120.23a2.549,2.549,0,1,1-2.548-2.436A2.494,2.494,0,0,1,419.306,120.23Z" transform="translate(-414.214 -117.794)" fill="#12263f"/>
          <path id="Trazado_116551" data-name="Trazado 116551" d="M419.306,120.23a2.549,2.549,0,1,1-2.548-2.436A2.494,2.494,0,0,1,419.306,120.23Z" transform="translate(-356.555 -117.794)" fill="#12263f"/>
          <path id="Trazado_116552" data-name="Trazado 116552" d="M427.752,120.23a2.549,2.549,0,1,1-2.545-2.436A2.493,2.493,0,0,1,427.752,120.23Z" transform="translate(-411.129 -117.794)" fill="#12263f"/>
          <path id="Trazado_116553" data-name="Trazado 116553" d="M427.752,120.23a2.549,2.549,0,1,1-2.545-2.436A2.493,2.493,0,0,1,427.752,120.23Z" transform="translate(-353.469 -117.794)" fill="#12263f"/>
          <path id="Trazado_116554" data-name="Trazado 116554" d="M436.2,120.23a2.549,2.549,0,1,1-2.545-2.436A2.493,2.493,0,0,1,436.2,120.23Z" transform="translate(-408.043 -117.794)" fill="#12263f"/>
          <path id="Trazado_116555" data-name="Trazado 116555" d="M436.2,120.23a2.549,2.549,0,1,1-2.545-2.436A2.493,2.493,0,0,1,436.2,120.23Z" transform="translate(-350.384 -117.794)" fill="#12263f"/>
          <path id="Trazado_116556" data-name="Trazado 116556" d="M444.645,120.23a2.549,2.549,0,1,1-2.547-2.436A2.494,2.494,0,0,1,444.645,120.23Z" transform="translate(-404.958 -117.794)" fill="#12263f"/>
          <path id="Trazado_116557" data-name="Trazado 116557" d="M444.645,120.23a2.549,2.549,0,1,1-2.547-2.436A2.494,2.494,0,0,1,444.645,120.23Z" transform="translate(-347.298 -117.794)" fill="#12263f"/>
          <path id="Trazado_116558" data-name="Trazado 116558" d="M453.091,120.23a2.549,2.549,0,1,1-2.545-2.436A2.493,2.493,0,0,1,453.091,120.23Z" transform="translate(-401.872 -117.794)" fill="#12263f"/>
        </g>
        <g id="Grupo_156329" data-name="Grupo 156329" transform="translate(0 37.951)">
          <ellipse id="Elipse_3980" data-name="Elipse 3980" cx="2.546" cy="2.435" rx="2.546" ry="2.435" transform="translate(0 0.002)" fill="#12263f"/>
          <ellipse id="Elipse_4744" data-name="Elipse 4744" cx="2.546" cy="2.435" rx="2.546" ry="2.435" transform="translate(57.659 0.002)" fill="#12263f"/>
          <path id="Trazado_99285" data-name="Trazado 99285" d="M427.752,127.738a2.549,2.549,0,1,1-2.545-2.436A2.491,2.491,0,0,1,427.752,127.738Z" transform="translate(-411.129 -125.302)" fill="#12263f"/>
          <path id="Trazado_116536" data-name="Trazado 116536" d="M427.752,127.738a2.549,2.549,0,1,1-2.545-2.436A2.491,2.491,0,0,1,427.752,127.738Z" transform="translate(-353.469 -125.302)" fill="#12263f"/>
          <ellipse id="Elipse_3981" data-name="Elipse 3981" cx="2.546" cy="2.435" rx="2.546" ry="2.435" transform="translate(23.064 0.002)" fill="#12263f"/>
          <ellipse id="Elipse_4745" data-name="Elipse 4745" cx="2.546" cy="2.435" rx="2.546" ry="2.435" transform="translate(80.723 0.002)" fill="#12263f"/>
          <path id="Trazado_99286" data-name="Trazado 99286" d="M444.645,127.738A2.549,2.549,0,1,1,442.1,125.3,2.492,2.492,0,0,1,444.645,127.738Z" transform="translate(-404.958 -125.302)" fill="#12263f"/>
          <path id="Trazado_116537" data-name="Trazado 116537" d="M444.645,127.738A2.549,2.549,0,1,1,442.1,125.3,2.492,2.492,0,0,1,444.645,127.738Z" transform="translate(-347.298 -125.302)" fill="#12263f"/>
          <path id="Trazado_99287" data-name="Trazado 99287" d="M453.091,127.738a2.549,2.549,0,1,1-2.545-2.436A2.491,2.491,0,0,1,453.091,127.738Z" transform="translate(-401.872 -125.302)" fill="#12263f"/>
        </g>
        <g id="Grupo_156326" data-name="Grupo 156326" transform="translate(0 75.904)">
          <ellipse id="Elipse_4754" data-name="Elipse 4754" cx="2.546" cy="2.435" rx="2.546" ry="2.435" transform="translate(0 0.001)" fill="#12263f"/>
          <ellipse id="Elipse_4750" data-name="Elipse 4750" cx="2.546" cy="2.435" rx="2.546" ry="2.435" transform="translate(57.659 0.001)" fill="#12263f"/>
          <path id="Trazado_116548" data-name="Trazado 116548" d="M427.752,127.738a2.549,2.549,0,1,1-2.545-2.436A2.491,2.491,0,0,1,427.752,127.738Z" transform="translate(-411.129 -125.302)" fill="#12263f"/>
          <path id="Trazado_116542" data-name="Trazado 116542" d="M427.752,127.738a2.549,2.549,0,1,1-2.545-2.436A2.491,2.491,0,0,1,427.752,127.738Z" transform="translate(-353.469 -125.302)" fill="#12263f"/>
          <ellipse id="Elipse_4751" data-name="Elipse 4751" cx="2.546" cy="2.435" rx="2.546" ry="2.435" transform="translate(23.064 0.001)" fill="#12263f"/>
          <ellipse id="Elipse_4752" data-name="Elipse 4752" cx="2.546" cy="2.435" rx="2.546" ry="2.435" transform="translate(80.723 0.001)" fill="#12263f"/>
          <path id="Trazado_116543" data-name="Trazado 116543" d="M444.645,127.738A2.549,2.549,0,1,1,442.1,125.3,2.492,2.492,0,0,1,444.645,127.738Z" transform="translate(-404.958 -125.302)" fill="#12263f"/>
          <path id="Trazado_116544" data-name="Trazado 116544" d="M444.645,127.738A2.549,2.549,0,1,1,442.1,125.3,2.492,2.492,0,0,1,444.645,127.738Z" transform="translate(-347.298 -125.302)" fill="#12263f"/>
          <path id="Trazado_116545" data-name="Trazado 116545" d="M453.091,127.738a2.549,2.549,0,1,1-2.545-2.436A2.491,2.491,0,0,1,453.091,127.738Z" transform="translate(-401.872 -125.302)" fill="#12263f"/>
        </g>
        <g id="Grupo_156328" data-name="Grupo 156328" transform="translate(0 50.602)">
          <ellipse id="Elipse_3985" data-name="Elipse 3985" cx="2.546" cy="2.435" rx="2.546" ry="2.435" transform="translate(0 0.001)" fill="#12263f"/>
          <ellipse id="Elipse_4746" data-name="Elipse 4746" cx="2.546" cy="2.435" rx="2.546" ry="2.435" transform="translate(57.659 0.001)" fill="#12263f"/>
          <path id="Trazado_99291" data-name="Trazado 99291" d="M427.752,135.246a2.549,2.549,0,1,1-2.545-2.436A2.491,2.491,0,0,1,427.752,135.246Z" transform="translate(-411.129 -132.81)" fill="#12263f"/>
          <path id="Trazado_116538" data-name="Trazado 116538" d="M427.752,135.246a2.549,2.549,0,1,1-2.545-2.436A2.491,2.491,0,0,1,427.752,135.246Z" transform="translate(-353.469 -132.81)" fill="#12263f"/>
          <ellipse id="Elipse_3986" data-name="Elipse 3986" cx="2.546" cy="2.435" rx="2.546" ry="2.435" transform="translate(23.064 0.001)" fill="#12263f"/>
          <ellipse id="Elipse_4747" data-name="Elipse 4747" cx="2.546" cy="2.435" rx="2.546" ry="2.435" transform="translate(80.723 0.001)" fill="#12263f"/>
          <path id="Trazado_99292" data-name="Trazado 99292" d="M444.645,135.246a2.549,2.549,0,1,1-2.547-2.436A2.492,2.492,0,0,1,444.645,135.246Z" transform="translate(-404.958 -132.81)" fill="#12263f"/>
          <path id="Trazado_116539" data-name="Trazado 116539" d="M444.645,135.246a2.549,2.549,0,1,1-2.547-2.436A2.492,2.492,0,0,1,444.645,135.246Z" transform="translate(-347.298 -132.81)" fill="#12263f"/>
          <path id="Trazado_99293" data-name="Trazado 99293" d="M453.091,135.246a2.549,2.549,0,1,1-2.545-2.436A2.491,2.491,0,0,1,453.091,135.246Z" transform="translate(-401.872 -132.81)" fill="#12263f"/>
        </g>
      </g>
      <g id="Grupo_1015138" data-name="Grupo 1015138" transform="translate(277.562 595.534)">
        <circle id="Elipse_8447" data-name="Elipse 8447" cx="61.186" cy="61.186" r="61.186" transform="translate(0 0)" fill="#6f88da"/>
        <circle id="Elipse_8448" data-name="Elipse 8448" cx="51.264" cy="51.264" r="51.264" transform="translate(9.922 9.922)" fill="#fff"/>
        <g id="Grupo_1017976" data-name="Grupo 1017976" transform="translate(31.506 27.082)">
          <g id="Grupo_1017975" data-name="Grupo 1017975" clip-path="url(#clip-path)">
            <path id="Trazado_731051" data-name="Trazado 731051" d="M62.209,37.18v.729c-.545.634-1.366.616-2.072.838-1.448.455-2.921.83-4.389,1.222-1.281.342-2.568.661-3.852.991-.134-.021-.3.075-.277.144.041.122.178.108.259-.019,2.548,0,5.1,0,7.645.018a2.927,2.927,0,0,1,2.079.861c.317.3.3.763.606,1.049V55.4a3.228,3.228,0,0,1-2,1.792c-.268.071-.176.266-.194.429-.107.986.16,1.971-.431,2.959-.5.835-1.012,1.478-1.976,1.52-.1-.007-.2-.019-.3-.019q-26.1,0-52.2,0c-.165,0-.371-.1-.489.119H4.5a2.7,2.7,0,0,1-2.2-2.674c0-.566-.034-1.135.009-1.7a.614.614,0,0,0-.516-.74A2.251,2.251,0,0,1,.1,55.045q.009-5.682.015-11.364c0-.11.048-.249-.112-.3v-.122c.4-1.784,1.748-2.178,3.353-2.164,2.933.026,5.867.007,8.8.007h.573a18.613,18.613,0,0,0-1.836-1.136C7.552,37.97,4.176,36.046.8,34.113c-.267-.153-.656-.255-.691-.676q0-.384,0-.768a1.186,1.186,0,0,1,.067-.22c1.09-2.062,2.417-3.988,3.47-6.071A.838.838,0,0,1,4.849,26c.673.319,1.308.706,1.952,1.082,2.868,1.673,5.763,3.3,8.642,4.956,3.114,1.79,6.228,3.58,9.322,5.4.395.233.568.131.827-.137a.757.757,0,0,0,.161-.611c0-2.145.024-4.29-.014-6.434-.011-.616.136-1.031.735-1.23.816.142,1.1.472,1.1,1.282,0,1.477,0,2.955.005,4.432,0,.139-.1.32.143.452.689-.7,1.368-1.425,2.083-2.11a1.321,1.321,0,0,0,.449-1.054c-.018-4.23-.051-8.46,0-12.689a4.814,4.814,0,0,0-5-5.032c-1.334.051-2.671.022-4.007,0-1-.014-1.377-.54-1.072-1.431l.115-.116a.416.416,0,0,1,.553-.238c.519.206.9-.062,1.3-.295a2.77,2.77,0,0,0,1.54-2.359,2.6,2.6,0,0,0-1.34-2.618l-.107-.087c-.539-.056-1.015-.333-1.56-.406a.751.751,0,0,1-.633-.839A.792.792,0,0,1,20.7,5.1a3.771,3.771,0,0,1,.9-.1q7.442.006,14.883,0a6.57,6.57,0,0,0,.668-.012A1.557,1.557,0,0,0,38.521,3.6a1.4,1.4,0,0,0-.829-1.568,3.279,3.279,0,0,0-1.311-.185q-12.605,0-25.211,0a4.125,4.125,0,0,0-.9.087c-.828.187-1.525,1.22-1.241,1.868A1.868,1.868,0,0,0,10.8,5.093a.572.572,0,0,1,.618.557.937.937,0,0,1-1.008,1.169c-1.822.006-3.645-.011-5.467.007A3.018,3.018,0,0,0,2.158,8.314a2.768,2.768,0,0,0,.576,3.418,3.421,3.421,0,0,0,2.289.758q5.437-.01,10.874,0c.738,0,1.087.265,1.119.824s-.365.967-1.033,1.024a2.181,2.181,0,0,0-2.133,2.413,2.5,2.5,0,0,0,2.353,2.1c2.915-.048,5.832-.005,8.748-.018a2.378,2.378,0,0,1,2.622,2.623c.019,1.3.005,2.592,0,3.888,0,.855-.124,1.013-.975,1.271a.867.867,0,0,1-.846-.951c0-1.416,0-2.831,0-4.247,0-.47-.168-.759-.68-.758l-8.8.022h-.243a4.065,4.065,0,0,1-3.763-2.69l.088-.089-.09-.046a1.046,1.046,0,0,1-.264-.846l0-.851a5.7,5.7,0,0,1,.523-1.783c-.055-.033-.087-.069-.12-.069-2.65-.008-5.3-.038-7.95-.005A4.413,4.413,0,0,1,1.5,13.1,5.343,5.343,0,0,1,0,10.571v-.365a.906.906,0,0,0,0-.972V8.748A5.31,5.31,0,0,1,1.687,6.07l.134-.093A4.854,4.854,0,0,1,4.9,5.008c.862-.02,1.724,0,2.621,0A3.431,3.431,0,0,1,8.251.968l.131-.1A4.332,4.332,0,0,1,10.206,0h.122c.118.22.324.119.488.119Q23.6.126,36.381.119c.186,0,.409.1.556-.119h.486c.027.14.148.093.234.125a3.733,3.733,0,0,1,2.353,1.863,3.352,3.352,0,0,1-2.819,4.8c-3.94.06-7.882.029-11.823.036h-.723A10.872,10.872,0,0,1,25.277,8.1a5.185,5.185,0,0,1-.009,3.189c-.065.02-.123.044-.092.132l-.522,1.07c.564.07,1.1.083,1.627.123A6.071,6.071,0,0,1,30.535,14.9a6.642,6.642,0,0,1,1.519,4.432c.046,3.6.013,7.2.019,10.8,0,.2-.089.431.1.615.275-.291.522-.57.788-.83,2.9-2.835,5.669-5.812,8.663-8.557.8-.729.875-.761,1.629-.332l5.225,5.225a1.085,1.085,0,0,1-.332,1.366q-3.063,3.029-6.092,6.092c-.142.143-.389.234-.349.566,1.29-.342,2.58-.614,3.835-1.029,1.342-.444,1.606-.385,2.231.4-.073.744-.318,1.016-1.075,1.21-.628.161-1.254.333-1.883.49-.208.052-.376.07-.276.375.249.762.465,1.536.694,2.305.086.849.447,1.63.6,2.463.038.2.23.241.439.163a18.655,18.655,0,0,1,1.83-.5c2.16-.57,4.309-1.18,6.465-1.764q2.579-.7,5.166-1.371c.319-.083.409-.211.312-.553-.413-1.461-.8-2.929-1.178-4.4-.073-.286-.184-.435-.477-.354-.874.241-1.746.494-2.619.742-1.306.341-2.617.665-3.917,1.029-.741.208-1.434.362-1.913-.458a.993.993,0,0,1,.891-1.158c.748-.144,1.469-.389,2.207-.57,1.885-.461,3.742-1.03,5.62-1.52.455-.119,1.021-.368,1.387.1a2.663,2.663,0,0,1,.542,1.209,18.069,18.069,0,0,0,.674,2.924,16.241,16.241,0,0,0,.949,3.161M12.029,38.4a28.443,28.443,0,0,0,2.608,1.545c.192.113.3.158.449-.118Q16.2,37.794,17.4,35.8c.2-.329.2-.46-.165-.654-.975-.524-1.919-1.108-2.881-1.658-1.538-.88-3.081-1.751-4.621-2.629-1.457-.83-2.953-1.595-4.341-2.543-.371-.253-.65-.257-.848.227a6.382,6.382,0,0,1-.513.859c-.295.825-.918,1.468-1.259,2.262-.161.374-.707.658-.517,1.063.17.362.691.48,1.065.7,1.974,1.142,3.93,2.315,5.919,3.43A27.389,27.389,0,0,0,12.029,38.4M40.82,24.65q-1.913,1.892-3.826,3.786c-1.64,1.633-3.275,3.272-4.825,4.821l2.087,2.231c.463.478.945.939,1.383,1.439.262.3.412.243.663-.014,1.275-1.3,2.57-2.581,3.857-3.869q2.983-2.983,5.965-5.968c.137-.138.369-.226.09-.5-1.161-1.128-2.3-2.28-3.437-3.431-.173-.175-.293-.23-.487-.021-.48.517-.98,1.016-1.472,1.522m-6.647,20.4c-1.055-.638-2.1-1.292-3.168-1.912-2.115-1.23-4.242-2.437-6.36-3.661-1.7-.982-3.392-1.979-5.1-2.956-.155-.089-.337-.347-.547.048-.721,1.354-1.462,2.7-2.258,4.009-.333.549-.088.52.332.519,2.59-.008,5.18.027,7.77-.014a2.4,2.4,0,0,1,2.614,2.62,3.015,3.015,0,0,0,.487,1.852,3.548,3.548,0,0,0,6.3.073c.119-.183.193-.392-.029-.571l-.03-.1Zm15.54,11.211a.135.135,0,0,0,0,.118,1.112,1.112,0,0,1-1.219.85c-.222,0-.445-.012-.668-.012H4.835a2.55,2.55,0,0,1-.3,0c-.316-.038-.428.091-.417.411.021.606.016,1.214,0,1.821a.81.81,0,0,0,.8.881,4.779,4.779,0,0,0,.727.021q25.8.021,51.609.047a.75.75,0,0,0,.832-.6,10.218,10.218,0,0,0,.113-2.042c.043-.418-.092-.557-.528-.549-1.477.027-2.955.009-4.432.011-.589,0-1.023-.2-1.136-.839a.142.142,0,0,0,0-.116c.169-.745.321-.873,1.126-.875,2.085-.005,4.17,0,6.255,0,.664,0,.9-.2.9-.777.006-3.644,0-7.287,0-10.931a.646.646,0,0,0-.692-.74c-1.071-.007-2.143.019-3.214.032-.241-.012-.482-.035-.724-.035q-9,0-18.009,0c-1.157,0-1.136,0-1.179,1.141a3.954,3.954,0,0,1-.514,1.937c-.208.335-.691.5-.609,1.019l-.088.126A5.754,5.754,0,0,1,30.373,49.3l-.112-.1a3.466,3.466,0,0,1-1.1-.262l-.121-.1c-.253.024-.384-.2-.567-.3a5.434,5.434,0,0,1-2.825-4.7c-.05-.9-.028-.917-.922-.917H9.3q-3.249,0-6.5,0c-.508,0-.888.056-.883.746.029,3.38.018,6.761.021,10.141-.065.019-.114.05-.1.13-.006.1-.018.2-.019.3-.011.957.158,1.129,1.114,1.134H48.3c1.036,0,1.1.043,1.412.876M33.4,42.359a4.479,4.479,0,0,1,1.3,1,2.38,2.38,0,0,1,2.477-2.269c1.822-.013,3.645,0,5.467,0H44.09c-.414-1.6-.8-3.141-1.221-4.674-.06-.22-.042-.53-.565-.372-.919.278-1.858.518-2.794.751a1.622,1.622,0,0,0-.822.281c-1.763,1.749-3.517,3.509-5.291,5.284m-6.571-3.782a17.729,17.729,0,0,0,2.018,1.079c.915.446,1.684,1.15,2.606,1.608.242.12.348.167.541-.031q1.2-1.238,2.435-2.451c.2-.2.228-.315.011-.527q-1.666-1.634-3.3-3.3c-.23-.233-.4-.274-.648-.024-1.208,1.216-2.429,2.42-3.662,3.644"/>
            <path id="Trazado_731052" data-name="Trazado 731052" d="M90.983,510.71a.425.425,0,0,1-.019.1H37.988c.119-.218.325-.119.489-.119q26.1-.007,52.2,0c.1,0,.2.012.3.019" transform="translate(-33.371 -448.604)" fill="#626262"/>
            <path id="Trazado_731053" data-name="Trazado 731053" d="M111.582,0c-.146.217-.37.119-.556.119q-12.783.008-25.565,0c-.164,0-.371.1-.488-.119Z" transform="translate(-74.645)" fill="#626262"/>
            <path id="Trazado_731054" data-name="Trazado 731054" d="M0,75.975a.906.906,0,0,1,0,.972Z" transform="translate(0 -66.741)" fill="#020202"/>
            <path id="Trazado_731055" data-name="Trazado 731055" d="M.113,269.549,0,269.526V268.8a.376.376,0,0,0,.115-.016q0,.384,0,.768" transform="translate(0 -236.113)" fill="#020202"/>
            <path id="Trazado_731056" data-name="Trazado 731056" d="M49.311,357.285c-.082-.52.4-.684.609-1.019a3.954,3.954,0,0,0,.514-1.937c.043-1.141.022-1.141,1.179-1.141q9,0,18.009,0c.241,0,.482.023.724.035a32.512,32.512,0,0,1-.088,3.69,8.384,8.384,0,0,1-8.313,7.273c-15.378.048-30.755.016-46.133.014q0-.064-.01-.127c0-3.38.008-6.761-.02-10.141-.006-.69.375-.746.883-.746q3.249,0,6.5,0H38.587c.894,0,.872.022.922.917a5.434,5.434,0,0,0,2.825,4.7c.184.1.315.324.568.3.009.071.039.117.121.1a3.469,3.469,0,0,0,1.1.262c0,.07.033.112.112.1a5.754,5.754,0,0,0,4.987-2.154c.06-.021.11-.048.088-.126" transform="translate(-13.863 -310.26)" fill="#dee4f0"/>
            <path id="Trazado_731057" data-name="Trazado 731057" d="M39.525,42.4c.3-.347.143-.765.161-1.151.019-.419-.02-.84-.034-1.261.85-.258.973-.416.975-1.271,0-1.3.015-2.592,0-3.888A2.378,2.378,0,0,0,38,32.208c-2.916.013-5.832-.03-8.748.018a2.5,2.5,0,0,1-2.353-2.1,2.181,2.181,0,0,1,2.133-2.413c.668-.058,1.066-.452,1.033-1.024s-.382-.823-1.119-.824q-5.437,0-10.874,0a3.421,3.421,0,0,1-2.289-.758,2.768,2.768,0,0,1-.576-3.418A3.018,3.018,0,0,1,17.99,20.2c1.822-.019,3.645,0,5.467-.007a.937.937,0,0,0,1.008-1.169.572.572,0,0,0-.618-.557,1.868,1.868,0,0,1-1.772-1.285c-.283-.648.414-1.681,1.241-1.868a4.126,4.126,0,0,1,.9-.087q12.605-.007,25.211,0a3.281,3.281,0,0,1,1.311.185,1.4,1.4,0,0,1,.829,1.568,1.557,1.557,0,0,1-1.379,1.378,6.537,6.537,0,0,1-.668.012q-7.442,0-14.883,0a3.77,3.77,0,0,0-.9.1.792.792,0,0,0-.646.827.751.751,0,0,0,.633.839c.545.073,1.022.35,1.56.406.007.064.029.109.107.087a2.6,2.6,0,0,1,1.34,2.618,2.771,2.771,0,0,1-1.54,2.359c-.4.233-.785.5-1.3.295a.416.416,0,0,0-.553.238l-.115.116c-.305.891.074,1.417,1.072,1.431,1.335.018,2.673.047,4.007,0a4.814,4.814,0,0,1,5,5.032c-.055,4.229-.022,8.46,0,12.689a1.321,1.321,0,0,1-.449,1.054c-.715.685-1.394,1.408-2.083,2.11-.239-.132-.142-.313-.143-.452-.009-1.477,0-2.955-.006-4.432,0-.81-.286-1.141-1.1-1.282" transform="translate(-13.05 -13.374)" fill="#626262"/>
            <path id="Trazado_731058" data-name="Trazado 731058" d="M81.837,463.829c.114.639.548.84,1.136.839,1.477,0,2.955.016,4.432-.011.437-.008.572.131.528.549a10.218,10.218,0,0,1-.112,2.042.75.75,0,0,1-.832.6q-25.8-.031-51.609-.047a4.782,4.782,0,0,1-.727-.021.81.81,0,0,1-.8-.881c.012-.607.017-1.215,0-1.821-.011-.32.1-.449.417-.411a2.578,2.578,0,0,0,.3,0h42.99c.223,0,.445.014.668.012a1.112,1.112,0,0,0,1.219-.85h2.392" transform="translate(-29.733 -407.455)" fill="#c3cfe6"/>
            <path id="Trazado_731059" data-name="Trazado 731059" d="M15.124,364.227c15.378,0,30.756.034,46.133-.014a8.384,8.384,0,0,0,8.313-7.273,32.54,32.54,0,0,0,.088-3.69c1.071-.013,2.143-.04,3.214-.032a.646.646,0,0,1,.692.74q-.005,5.466,0,10.931c0,.581-.237.776-.9.777-2.085,0-4.17,0-6.255,0-.8,0-.957.13-1.126.875H62.889c-.309-.833-.376-.876-1.412-.876H16.66c-.182,0-.364,0-.547,0-.955-.006-1.125-.178-1.114-1.134,0-.1.012-.2.019-.3h.053Z" transform="translate(-13.176 -310.286)" fill="#c3cfe6"/>
            <path id="Trazado_731060" data-name="Trazado 731060" d="M154.122,307.8c.222.179.148.389.029.571a3.548,3.548,0,0,1-6.3-.073,3.015,3.015,0,0,1-.487-1.852,2.4,2.4,0,0,0-2.614-2.62c-2.589.041-5.18.007-7.77.014-.42,0-.666.03-.333-.519.8-1.311,1.537-2.655,2.258-4.009.21-.4.392-.137.547-.048,1.7.977,3.4,1.974,5.1,2.956,2.118,1.224,4.246,2.431,6.36,3.661,1.066.62,2.112,1.274,3.167,1.912l.046.007" transform="translate(-119.903 -262.745)" fill="#d8d8d8"/>
            <path id="Trazado_731061" data-name="Trazado 731061" d="M382.654,261.542c.873-.248,1.744-.5,2.618-.742.294-.081.4.068.477.354.376,1.471.765,2.939,1.178,4.4.1.342.007.47-.312.553q-2.586.675-5.166,1.371c-2.156.584-4.305,1.195-6.465,1.765a18.623,18.623,0,0,0-1.83.5c-.209.079-.4.04-.439-.163-.156-.833-.518-1.614-.6-2.463a2.454,2.454,0,0,0,.483-.033c2.975-.8,5.953-1.586,8.92-2.412a1.751,1.751,0,0,0,1.356-2.314c-.057-.275-.144-.545-.217-.817" transform="translate(-326.885 -229.083)" fill="#fe8800"/>
            <path id="Trazado_731062" data-name="Trazado 731062" d="M288.415,190.84c.492-.506.992-1,1.472-1.522.194-.209.314-.154.487.021,1.139,1.151,2.276,2.3,3.437,3.43.279.271.047.359-.09.5q-2.981,2.986-5.965,5.968c-1.288,1.288-2.583,2.569-3.857,3.869-.252.257-.4.313-.663.014-.438-.5-.919-.961-1.383-1.439.146-.167.282-.342.438-.5q3.131-3.138,6.268-6.271a2.688,2.688,0,0,0,.848-2.06,3.127,3.127,0,0,0-.99-2.009" transform="translate(-247.595 -166.19)" fill="#fe8800"/>
            <path id="Trazado_731063" data-name="Trazado 731063" d="M28.028,250.933a27.388,27.388,0,0,1-2.792-1.544c-1.989-1.115-3.945-2.288-5.918-3.43-.373-.216-.895-.335-1.065-.7-.191-.405.356-.689.517-1.063.342-.794.964-1.437,1.259-2.262a5.256,5.256,0,0,1,1.247.6c1.989,1.146,3.959,2.326,5.971,3.431,1.964,1.078,2.343,3.091.781,4.966" transform="translate(-15.999 -212.532)" fill="#ffbc00"/>
            <path id="Trazado_731064" data-name="Trazado 731064" d="M41.153,241.86c1.562-1.875,1.184-3.887-.781-4.966-2.012-1.1-3.982-2.285-5.971-3.431a5.256,5.256,0,0,0-1.247-.6,6.377,6.377,0,0,0,.513-.859c.2-.484.477-.48.848-.227,1.388.948,2.884,1.712,4.341,2.543,1.54.877,3.083,1.749,4.621,2.629.962.55,1.906,1.134,2.881,1.658.36.194.362.324.165.654q-1.192,1.992-2.313,4.026c-.151.276-.257.23-.449.118a28.486,28.486,0,0,1-2.608-1.545" transform="translate(-29.124 -203.459)" fill="#fe8800"/>
            <path id="Trazado_731065" data-name="Trazado 731065" d="M273.334,202.814a3.127,3.127,0,0,1,.99,2.009,2.688,2.688,0,0,1-.848,2.06q-3.135,3.134-6.268,6.271c-.156.156-.292.332-.438.5l-2.087-2.231c1.55-1.549,3.184-3.188,4.825-4.821q1.907-1.9,3.825-3.786" transform="translate(-232.514 -178.164)" fill="#ffbc00"/>
            <path id="Trazado_731066" data-name="Trazado 731066" d="M377.427,267.062c.073.272.16.541.217.817a1.751,1.751,0,0,1-1.356,2.314c-2.967.826-5.945,1.615-8.92,2.412a2.452,2.452,0,0,1-.483.033c-.229-.769-.444-1.543-.694-2.305-.1-.305.068-.323.276-.375.629-.157,1.255-.329,1.883-.49.757-.194,1-.466,1.075-1.21l2.172-.625c.479.82,1.172.666,1.913.458,1.3-.365,2.61-.688,3.917-1.029" transform="translate(-321.658 -234.603)" fill="#ffbc00"/>
            <path id="Trazado_731067" data-name="Trazado 731067" d="M274.782,302.561c1.774-1.774,3.528-3.534,5.291-5.284A1.621,1.621,0,0,1,280.9,297c.936-.233,1.875-.473,2.794-.751.523-.158.5.152.565.372.418,1.533.807,3.075,1.221,4.674h-1.452c-1.822,0-3.645-.009-5.467,0a2.379,2.379,0,0,0-2.477,2.269,4.479,4.479,0,0,0-1.3-1" transform="translate(-241.385 -260.201)" fill="#d8d8d8"/>
            <path id="Trazado_731068" data-name="Trazado 731068" d="M220.722,289.827c1.233-1.225,2.453-2.428,3.662-3.644.249-.25.418-.209.648.024q1.638,1.662,3.3,3.3c.217.212.19.33-.011.527q-1.233,1.21-2.435,2.451c-.193.2-.3.151-.541.031-.922-.458-1.691-1.162-2.606-1.608a17.734,17.734,0,0,1-2.018-1.079" transform="translate(-193.895 -251.25)" fill="#d8d8d8"/>
            <path id="Trazado_731069" data-name="Trazado 731069" d="M408.92,462.867h2.389a.142.142,0,0,1,0,.116h-2.392a.135.135,0,0,1,0-.117" transform="translate(-359.207 -406.61)" fill="#007ce7"/>
            <path id="Trazado_731070" data-name="Trazado 731070" d="M96.154,133.808c-.492-.3-.491-.562,0-.851q0,.425,0,.851" transform="translate(-84.144 -116.797)" fill="#fff"/>
            <path id="Trazado_731071" data-name="Trazado 731071" d="M424.972,336.977l-.017.125c-.082.127-.219.14-.259.019-.023-.069.142-.165.276-.144" transform="translate(-373.076 -296.018)" fill="#626262"/>
            <path id="Trazado_731072" data-name="Trazado 731072" d="M132.2,170.159c-.012.077-.024.168-.122.168s-.109-.091-.121-.168Z" transform="translate(-115.919 -149.478)" fill="#fff"/>
            <path id="Trazado_731073" data-name="Trazado 731073" d="M100.983,147.049v-.135l.09.046-.089.089" transform="translate(-88.709 -129.058)" fill="#fff"/>
            <path id="Trazado_731074" data-name="Trazado 731074" d="M166.012,105.138l.115-.116-.115.116" transform="translate(-145.835 -92.257)" fill="#020202"/>
            <path id="Trazado_731075" data-name="Trazado 731075" d="M207.169,92.866l-.092.132c-.031-.087.027-.112.092-.132" transform="translate(-181.901 -81.579)" fill="#fff"/>
            <path id="Trazado_731076" data-name="Trazado 731076" d="M183.116,59.053c-.077.022-.1-.023-.107-.087l.107.087" transform="translate(-160.766 -51.799)" fill="#020202"/>
            <path id="Trazado_731077" data-name="Trazado 731077" d="M281.211,369.981l-.046-.007.016-.09.03.1" transform="translate(-246.992 -324.928)" fill="#020202"/>
            <path id="Trazado_731078" data-name="Trazado 731078" d="M291.018,386.9c.022.078-.028.106-.088.126l.088-.126" transform="translate(-255.57 -339.878)" fill="#020202"/>
            <path id="Trazado_731079" data-name="Trazado 731079" d="M239.034,401.973c-.082.017-.112-.029-.121-.1l.121.1" transform="translate(-209.875 -353.029)" fill="#020202"/>
            <path id="Trazado_731080" data-name="Trazado 731080" d="M249.093,404.953c-.078.014-.107-.028-.112-.1l.112.1" transform="translate(-218.72 -355.648)" fill="#020202"/>
            <path id="Trazado_731081" data-name="Trazado 731081" d="M15.237,442.888l-.053,0h-.053c-.017-.08.032-.111.1-.13l.01.127" transform="translate(-13.289 -388.947)" fill="#007ce7"/>
            <path id="Trazado_731082" data-name="Trazado 731082" d="M13.883,49.211c.02-.066.046-.123.134-.093l-.134.093" transform="translate(-12.196 -43.141)" fill="#020202"/>
            <path id="Trazado_731083" data-name="Trazado 731083" d="M67.888,7.225c.018-.067.045-.122.131-.1l-.131.1" transform="translate(-59.637 -6.256)" fill="#020202"/>
          </g>
        </g>
      </g>
    </g>
  </g>
</svg>
