<svg xmlns="http://www.w3.org/2000/svg" width="436.135" height="151.358" viewBox="0 0 436.135 151.358">
  <g id="Grupo_1014806" data-name="Grupo 1014806" transform="translate(-29.244 -44.124)">
    <g id="Grupo_1014805" data-name="Grupo 1014805" transform="translate(29.244 44.124)">
      <path id="Trazado_728621" data-name="Trazado 728621" d="M2351.9,773.585l-.225-66.518s-.508-4.794-4.687-4.819c-4.459-.026-4.744,4.763-4.744,4.763a.507.507,0,0,0,.52.417.539.539,0,0,0,.56-.411s.22-3.692,3.658-3.672c3.222.019,3.613,3.715,3.613,3.715l-.4,66.514Z" transform="translate(-1952.15 -623.186)" fill="#233862"/>
      <path id="Trazado_728622" data-name="Trazado 728622" d="M2383.27,1083.414l2.774.017-.23-2.9s.026-.4-.534-.429c-.521-.024-1.548-.1-1.648.209-.088.276-.362,3.1-.362,3.1" transform="translate(-1985.797 -933.029)" fill="#233862"/>
      <path id="Trazado_728623" data-name="Trazado 728623" d="M2340.942,682.657l-.2.95a6.1,6.1,0,0,0-5.833,4.987s-.31,2.1,1.2,1.657,1.285-1.51,3.43-2.083,3.542-1.015,3.876-2.571l.36-1.732Z" transform="translate(-1946.121 -607.12)" fill="#ffb27d"/>
      <path id="Trazado_728624" data-name="Trazado 728624" d="M2383.829,454s-1.273,4.887-2.373,9.355c-.443,1.8-.856,3.531-1.149,4.848a11.091,11.091,0,0,0-.406,2.371c.923,1.52-.836,10.743-2.2,14.088-.122.3-.287.644-.486,1.03-1.907,3.684-6.97,10.908-6.97,10.908a6.279,6.279,0,0,1-2.34-.215,3.09,3.09,0,0,1-1.293-1.245c.453-.72,2.319-9.242,4.685-14.013,1.011-2.041,2.6-21.022,4.548-23.567,1.627-2.123,7.987-3.559,7.987-3.559" transform="translate(-1972.134 -419.607)" fill="#4adbd1"/>
      <path id="Trazado_728625" data-name="Trazado 728625" d="M2425.747,527.279c.924,1.52-.835,10.743-2.2,14.088-.121.3-.287.644-.486,1.03-1.755-7.98,1.3-19.251,1.3-19.251a3.7,3.7,0,0,1,1.8,1.762,11.14,11.14,0,0,0-.406,2.371" transform="translate(-2017.98 -476.309)" fill="#2accc1"/>
      <path id="Trazado_728626" data-name="Trazado 728626" d="M2434.723,1048.88s.436,7.215-.926,7.307c-.181.012-6.907-.027-6.907-.027l-8.678-.052a2.967,2.967,0,0,1,2.672-2.54c2.513-.422,6.724-2.161,8.265-5.47,1.62-3.48,5.575.782,5.575.782" transform="translate(-2014.452 -905.686)" fill="#0f2949"/>
      <path id="Trazado_728627" data-name="Trazado 728627" d="M2507.255,1049.31s.436,7.215-.927,7.308c-.181.012-6.907-.028-6.907-.028l-8.677-.052a2.966,2.966,0,0,1,2.672-2.54c2.513-.423,6.724-2.161,8.265-5.47,1.621-3.48,5.575.782,5.575.782" transform="translate(-2073.933 -906.039)" fill="#163560"/>
      <path id="Trazado_728628" data-name="Trazado 728628" d="M2445.53,715.484a94.151,94.151,0,0,1,.431,10.509c-.247,4.942-.428,9.109-.428,9.109-3.265,1.089-9.236-.291-9.236-.291s-2.047-12.5-3.735-22.486c-.757-4.473-1.384-8.341-1.617-10.168-.751-5.9,1.058-37.261,1.058-37.261s8.852-5.6,12.478-2.664,5.851,5.8-.209,37.678c-.46,2.419.82,8.74,1.257,15.574" transform="translate(-2024.745 -589.672)" fill="#314865"/>
      <path id="Trazado_728629" data-name="Trazado 728629" d="M2445.53,715.484a113.22,113.22,0,0,1,.384,11.468c-3.047-3.263-9.047-10.143-13.352-14.627-.757-4.473-1.384-8.341-1.617-10.168-.751-5.9,1.058-37.261,1.058-37.261s8.852-5.6,12.478-2.664,5.851,5.8-.209,37.678c-.46,2.419.82,8.74,1.257,15.574" transform="translate(-2024.745 -589.672)" fill="#12263f"/>
      <path id="Trazado_728630" data-name="Trazado 728630" d="M2481.928,665.274s.605,31.4,1.808,37.233,7.5,32.517,7.5,32.517,6.051.588,9.222-.749c0,0-.128-12.344-1.159-19.6-.963-6.78-2.725-12.985-2.452-15.432,3.593-32.253,1.153-34.935-2.687-37.583s-12.235,3.615-12.235,3.615" transform="translate(-2066.704 -589.365)" fill="#12263f"/>
      <path id="Trazado_728631" data-name="Trazado 728631" d="M2545.793,693.469a6.094,6.094,0,0,0,1.89,7.437s1.741,1.206,2.018-.346-.035-1.013.4-3.19-.091-4.434-1.339-5.422Z" transform="translate(-2118.618 -614.739)" fill="#ffb27d"/>
      <path id="Trazado_728632" data-name="Trazado 728632" d="M2451.778,401.291s2.4,3.694,1.9,7.126l3.531,8.653,6.522-9.843a22.69,22.69,0,0,1-4.637-8.811Z" transform="translate(-2041.978 -374.022)" fill="#ffb27d"/>
      <path id="Trazado_728633" data-name="Trazado 728633" d="M2432.245,367.045s8.814.434,9.006-4.858,2.6-8.8-4-9.3c-5.42-.415-7.237,1.836-7.73,3.586s-.545,10.271,2.72,10.574" transform="translate(-2023.526 -336.642)" fill="#ffb27d"/>
      <path id="Trazado_728634" data-name="Trazado 728634" d="M2437.563,491.662c-1.9.165-4.5.368-7.67.548q-.948.054-1.961.1c-9.557.478-13.344-1.092-13.344-1.092s-.253-.206-.166-1.327c.449-5.775,1.687-7.474,1.545-8.573-.318-2.47-6.185-22.642-6.185-22.642s-.078-6.362,7.014-9.3a16.764,16.764,0,0,1,2.427-.791,2.918,2.918,0,0,0,3.32,1.965,11.352,11.352,0,0,0,6.5-3.2c.178,0,.248.007.248.007a19.569,19.569,0,0,1,.58,2.1c.565,2.5.889,5.136,2.411,7.112a53.923,53.923,0,0,1,3.883,5.752,47.736,47.736,0,0,1,2.357,4.593c6.18,13.878,1.272,24.55-.958,24.746" transform="translate(-2007.539 -414.151)" fill="#4adbd1"/>
      <path id="Trazado_728635" data-name="Trazado 728635" d="M2528.885,557.326c-1.9.165-4.5.368-7.67.548-.831-15.555,5.594-30.453,5.594-30.453a5.563,5.563,0,0,1,.675.566,9.847,9.847,0,0,1,2.358,4.593c1.845,7.062.2,18.508-.958,24.746" transform="translate(-2098.862 -479.815)" fill="#2accc1"/>
      <path id="Trazado_728636" data-name="Trazado 728636" d="M2427.747,402.209s-1.756,6.8,1.15,7.775,10.643.254,10.69-8.094c0,0-4.072,2.4-6.01,2.323s-3.182-1.2-4.979-.335c0,0-.655-.048-.852-1.669" transform="translate(-2021.841 -376.871)" fill="#ebeaea"/>
      <path id="Trazado_728637" data-name="Trazado 728637" d="M2508.995,447.385s6.162.175,9.393,4.431c2.476,3.261,5.01,20.7,4.994,23.318s-2.91,17.081-4.492,18.644a5.926,5.926,0,0,1-2.376-.014,4.806,4.806,0,0,1-2.285-1.126s.878-16.11.887-17.622c.013-2.188-6.749-15.625-6.749-15.625s-3.511-6.4.628-12.006" transform="translate(-2087.246 -414.18)" fill="#4adbd1"/>
      <path id="Trazado_728638" data-name="Trazado 728638" d="M2450.915,347.125a1.53,1.53,0,0,0-.809-.829,9.426,9.426,0,0,0-8.594.153c3.067-4.067,10.407-3.166,11.933.528,2.49,6.031-2.138,7.257-2.138,7.257s-4.6-1.966-1.916-4.381a4.35,4.35,0,0,0,1.468-2.136,2.136,2.136,0,0,0,.057-.592" transform="translate(-2033.559 -329.215)" fill="#ebeaea"/>
      <path id="Trazado_728639" data-name="Trazado 728639" d="M2438.153,418.362a1.984,1.984,0,0,0,1.6.885,1.87,1.87,0,0,0,1.494-.885,8.705,8.705,0,0,0-3.091,0" transform="translate(-2030.805 -390.26)" fill="#fff"/>
      <path id="Trazado_728640" data-name="Trazado 728640" d="M2000.619,1071.336a12.93,12.93,0,0,1,.339-3.168c.338-.791,1.581-4.01,1.581-4.01h4.857a29.748,29.748,0,0,1,.96,3.9c.057.96,0,3.281,0,3.281Z" transform="translate(-1671.996 -919.978)" fill="#233862"/>
      <path id="Trazado_728641" data-name="Trazado 728641" d="M2136.625,1071.336a12.93,12.93,0,0,0-.339-3.168c-.339-.791-1.581-4.01-1.581-4.01h-4.857a29.771,29.771,0,0,0-.96,3.9c-.056.96,0,3.281,0,3.281Z" transform="translate(-1777.165 -919.978)" fill="#233862"/>
      <path id="Trazado_728642" data-name="Trazado 728642" d="M2035.55,349.766a45.464,45.464,0,0,1-.849,7.666l-5.363,3.741,20.189,3.021-4.815-6.652s-1.454-7.1-.691-9.725-8.471,1.948-8.471,1.948" transform="translate(-1695.548 -331.861)" fill="#ffb27d"/>
      <path id="Trazado_728643" data-name="Trazado 728643" d="M2063.7,366.416s1.6,3.843,4.6,3.759,3.691-3.485,3.691-3.485Z" transform="translate(-1723.727 -347.78)" fill="#ed985f"/>
      <path id="Trazado_728644" data-name="Trazado 728644" d="M2044.532,279.408a48.27,48.27,0,0,0-1.648-6.316c-.678-1.468-1.243-8.019,6.268-8.358,0,0,2.88.339,4.462-.621,0,0,0,.96-.4,1.3a4.992,4.992,0,0,1,4.631,1.638c2.033,2.259-1.355,10.165-1.185,12.029Z" transform="translate(-1706.354 -263.883)" fill="#2c3a64"/>
      <path id="Trazado_728645" data-name="Trazado 728645" d="M2065.349,300.709V306a6.251,6.251,0,0,1-.547,2.515h0a8.025,8.025,0,0,1-2.708,3.268,5.21,5.21,0,0,1-2.933,1.067,5.685,5.685,0,0,1-2.788-1.051,7.867,7.867,0,0,1-3.13-3.856l-.008-.024-.019-.067a5.071,5.071,0,0,1-.245-1.534v-5.608a2.237,2.237,0,0,1,2.034-2.385h8.312a2.237,2.237,0,0,1,2.034,2.385" transform="translate(-1714.927 -291.939)" fill="#ffb27d"/>
      <path id="Trazado_728646" data-name="Trazado 728646" d="M2051.708,297.914s.011-3.369,2.68-3.887,8.641,1.642,9.488-.815-11.544-2.414-12.167-.847,0,5.548,0,5.548" transform="translate(-1713.665 -286.151)" fill="#2c3a64"/>
      <path id="Trazado_728647" data-name="Trazado 728647" d="M1999.521,646.414s.85,25.948-.421,40.753.009,35.409.009,35.409a9.609,9.609,0,0,0,8.469,0s4.831-28.6,4.8-35.409c-.032-7.249,5.258-39.622,5.258-39.622Z" transform="translate(-1670.29 -577.398)" fill="#12263f"/>
      <path id="Trazado_728648" data-name="Trazado 728648" d="M2086.588,722.375a9.6,9.6,0,0,1-8.468,0s-4.83-28.6-4.8-35.409c.013-3.062-.922-10.606-2.008-18.3-1.486-10.523-3.251-21.323-3.251-21.323l18.817-1.176s-1.552,25.993-.281,40.8-.01,35.409-.01,35.409" transform="translate(-1727.304 -577.197)" fill="#12263f"/>
      <path id="Trazado_728649" data-name="Trazado 728649" d="M2030.223,452.721a94.174,94.174,0,0,1-15.341,1.554,74.183,74.183,0,0,1-9.421-.72c-3.053-.4-5.242-.834-5.242-.834s-1.626.142-.666-7.876a112.722,112.722,0,0,0,.339-17.281c-.019-.63-.005-1.376.034-2.206.312-6.609,2.311-18.508,3.834-19.146a27.887,27.887,0,0,1,6.267-1.252c0,.078,2.323,3.473,5.079,3.854a9.557,9.557,0,0,0,4.932-3.744,53.7,53.7,0,0,1,7.73,1.491s.289,1.26,1.376,23.129c.432,8.662,3.389,23.06,1.079,23.031" transform="translate(-1670.873 -379.388)" fill="#4adbd1"/>
      <path id="Trazado_728650" data-name="Trazado 728650" d="M2005.46,546.525c-3.053-.4-5.242-.833-5.242-.833s-1.626.142-.666-7.876a112.691,112.691,0,0,0,.339-17.281c-.019-.63,0-1.376.034-2.206.468.749,5.679,9.166,7.082,15.421,1.021,4.563-.519,9.937-1.547,12.776" transform="translate(-1670.873 -472.358)" fill="#2accc1"/>
      <path id="Trazado_728651" data-name="Trazado 728651" d="M2088.14,748.416c.014-3.062-.921-10.606-2.007-18.3A36.208,36.208,0,0,1,2090,721.1c3.473,9.742-1.864,27.314-1.864,27.314" transform="translate(-1742.124 -638.648)" fill="#314865"/>
      <path id="Trazado_728652" data-name="Trazado 728652" d="M1917.214,437.321c-.191.159.476,1.813,1.458,3.968,2.023,4.427,5.383,10.965,5.383,10.965a19.405,19.405,0,0,1-1.02,2.985,71.165,71.165,0,0,1-11.622-11.116c-3.27-4.075-3.941-6.411-3.941-6.411,12.585-25.616,21.441-26.561,21.441-26.561l-1.046,16.929s-10.071,8.756-10.653,9.24" transform="translate(-1595.609 -384.466)" fill="#4adbd1"/>
      <path id="Trazado_728653" data-name="Trazado 728653" d="M1993.808,633.525s3.05-2.824,4.292-1.242,1.469,4.066.508,3.9-2.937-1.073-3.219-.621-1.548,1.315-1.931.63.35-2.663.35-2.663" transform="translate(-1666.032 -565.415)" fill="#ffb27d"/>
      <path id="Trazado_728654" data-name="Trazado 728654" d="M1942.016,589.613A19.407,19.407,0,0,1,1941,592.6a71.146,71.146,0,0,1-11.622-11.116,14.5,14.5,0,0,0,7.259-2.834c2.023,4.427,5.383,10.965,5.383,10.965" transform="translate(-1613.571 -521.825)" fill="#ffb27d"/>
      <path id="Trazado_728655" data-name="Trazado 728655" d="M2173.951,438.858s-.671,2.336-3.94,6.411a71.214,71.214,0,0,1-11.622,11.116,19.389,19.389,0,0,1-1.02-2.985s3.36-6.538,5.382-10.965c.983-2.155,1.65-3.809,1.459-3.968-.453-.376-6.6-5.721-9.349-8.105l-1.3-1.135-.628-16.678s8.439.693,21.023,26.309" transform="translate(-1796.9 -385.612)" fill="#4adbd1"/>
      <path id="Trazado_728656" data-name="Trazado 728656" d="M2156.741,633.525s-3.05-2.824-4.292-1.242-1.468,4.066-.509,3.9,2.937-1.073,3.219-.621,1.548,1.315,1.932.63-.351-2.663-.351-2.663" transform="translate(-1795.604 -565.415)" fill="#ffb27d"/>
      <path id="Trazado_728657" data-name="Trazado 728657" d="M2177.6,589.613a19.366,19.366,0,0,0,1.019,2.985,71.189,71.189,0,0,0,11.623-11.116,14.5,14.5,0,0,1-7.26-2.834c-2.022,4.427-5.382,10.965-5.382,10.965" transform="translate(-1817.137 -521.825)" fill="#ffb27d"/>
      <path id="Trazado_728658" data-name="Trazado 728658" d="M2077.6,349.375v2.331a5.211,5.211,0,0,1-2.933,1.067,5.681,5.681,0,0,1-2.787-1.051v-2.347a2.375,2.375,0,0,1,2.367-2.367h.986a2.374,2.374,0,0,1,2.367,2.367" transform="translate(-1730.435 -331.864)" fill="#2c3a64"/>
      <path id="Trazado_728659" data-name="Trazado 728659" d="M2065.915,351.936c-1.119,2.547-3.728,4.369-5.642,4.336-1.838-.034-4.98-2.1-5.917-4.908l-.008-.024-.02-.067s1.974,1.685,3.28.85h5.485a2.712,2.712,0,0,0,2.821-.187" transform="translate(-1716.041 -335.361)" fill="#2c3a64"/>
      <path id="Trazado_728660" data-name="Trazado 728660" d="M2082.862,354.087h-1.184c-.271,0-.616-.444-.616-.715a1.3,1.3,0,0,1,.616-.271h1.184a.99.99,0,0,1,.731.386.814.814,0,0,1-.731.6" transform="translate(-1737.964 -336.86)" fill="#ffb27d"/>
      <path id="Trazado_728661" data-name="Trazado 728661" d="M2077.753,353.157a2.3,2.3,0,0,0,1.864,1.114,2.186,2.186,0,0,0,1.743-1.114,9.434,9.434,0,0,0-3.607,0" transform="translate(-1735.251 -336.756)" fill="#fff"/>
      <path id="Trazado_728662" data-name="Trazado 728662" d="M1563.942,1070.064a12.942,12.942,0,0,1,.339-3.168c.339-.791,1.582-4.01,1.582-4.01h4.856a29.779,29.779,0,0,1,.96,3.9c.056.96,0,3.282,0,3.282Z" transform="translate(-1313.89 -918.935)" fill="#233862"/>
      <path id="Trazado_728663" data-name="Trazado 728663" d="M1699.948,1070.064a12.928,12.928,0,0,0-.339-3.168c-.339-.791-1.581-4.01-1.581-4.01h-4.857a29.772,29.772,0,0,0-.96,3.9c-.057.96,0,3.282,0,3.282Z" transform="translate(-1419.06 -918.935)" fill="#233862"/>
      <path id="Trazado_728664" data-name="Trazado 728664" d="M1598.873,348.493a45.466,45.466,0,0,1-.849,7.666l-5.363,3.741,20.19,3.021-4.815-6.653s-1.454-7.1-.691-9.725-8.471,1.948-8.471,1.948" transform="translate(-1337.441 -330.817)" fill="#ffb27d"/>
      <path id="Trazado_728665" data-name="Trazado 728665" d="M1627.023,365.144s1.6,3.843,4.6,3.759,3.692-3.485,3.692-3.485Z" transform="translate(-1365.621 -346.737)" fill="#ed985f"/>
      <path id="Trazado_728666" data-name="Trazado 728666" d="M1607.856,278.136a48.256,48.256,0,0,0-1.649-6.316c-.678-1.468-1.242-8.019,6.268-8.358,0,0,2.88.339,4.462-.621,0,0,0,.96-.4,1.3a4.993,4.993,0,0,1,4.631,1.638c2.033,2.259-1.355,10.165-1.186,12.029Z" transform="translate(-1348.248 -262.84)" fill="#2c3a64"/>
      <path id="Trazado_728667" data-name="Trazado 728667" d="M1622.484,311.576c-2.179-.039-6.19-2.94-6.19-6.533v-5.607a2.237,2.237,0,0,1,2.033-2.385h8.313a2.237,2.237,0,0,1,2.033,2.385v5.29c0,3.768-3.691,6.894-6.189,6.85" transform="translate(-1356.822 -290.895)" fill="#ffb27d"/>
      <path id="Trazado_728668" data-name="Trazado 728668" d="M1615.031,296.642s.011-3.369,2.68-3.887,8.641,1.642,9.488-.814-11.543-2.414-12.167-.847,0,5.549,0,5.549" transform="translate(-1355.558 -285.107)" fill="#2c3a64"/>
      <path id="Trazado_728669" data-name="Trazado 728669" d="M1562.845,645.143s.85,25.948-.421,40.753.009,35.409.009,35.409a9.608,9.608,0,0,0,8.468,0s4.831-28.6,4.8-35.409c-.033-7.249,5.258-39.622,5.258-39.622Z" transform="translate(-1312.183 -576.356)" fill="#12263f"/>
      <path id="Trazado_728670" data-name="Trazado 728670" d="M1649.912,721.1a9.6,9.6,0,0,1-8.468,0s-4.83-28.6-4.8-35.409c.013-3.062-.922-10.606-2.008-18.3-1.486-10.523-3.251-21.323-3.251-21.323L1650.2,644.9s-1.552,25.993-.281,40.8-.01,35.409-.01,35.409" transform="translate(-1369.198 -576.155)" fill="#12263f"/>
      <path id="Trazado_728671" data-name="Trazado 728671" d="M1593.546,451.449A94.162,94.162,0,0,1,1578.2,453a74.224,74.224,0,0,1-9.421-.72c-3.053-.4-5.242-.834-5.242-.834s-1.626.142-.666-7.876a112.769,112.769,0,0,0,.339-17.281c-.019-.63-.005-1.376.034-2.206.312-6.609,2.311-18.508,3.834-19.146a27.875,27.875,0,0,1,6.267-1.252c0,.078,2.323,3.473,5.079,3.854a9.554,9.554,0,0,0,4.932-3.744,53.745,53.745,0,0,1,7.731,1.491s.288,1.26,1.376,23.129c.432,8.662,3.388,23.06,1.079,23.031" transform="translate(-1312.766 -378.345)" fill="#fff"/>
      <path id="Trazado_728672" data-name="Trazado 728672" d="M1568.783,545.254c-3.053-.4-5.242-.834-5.242-.834s-1.626.142-.666-7.876a112.771,112.771,0,0,0,.339-17.281c-.019-.63-.005-1.376.034-2.206.468.749,5.679,9.166,7.082,15.421,1.021,4.563-.518,9.937-1.547,12.776" transform="translate(-1312.766 -471.316)" fill="#dfebfd"/>
      <path id="Trazado_728673" data-name="Trazado 728673" d="M1651.463,747.144c.013-3.061-.922-10.606-2.008-18.3a36.22,36.22,0,0,1,3.871-9.017c3.473,9.741-1.863,27.314-1.863,27.314" transform="translate(-1384.017 -637.604)" fill="#314865"/>
      <path id="Trazado_728674" data-name="Trazado 728674" d="M1480.538,436.049c-.191.159.476,1.813,1.458,3.968,2.023,4.427,5.382,10.965,5.382,10.965a19.389,19.389,0,0,1-1.02,2.985,71.159,71.159,0,0,1-11.622-11.116c-3.27-4.075-3.941-6.411-3.941-6.411,12.585-25.616,21.441-26.561,21.441-26.561l-1.046,16.929s-10.07,8.756-10.653,9.24" transform="translate(-1237.504 -383.423)" fill="#fff"/>
      <path id="Trazado_728675" data-name="Trazado 728675" d="M1557.132,632.253s3.05-2.824,4.292-1.242,1.468,4.066.508,3.9-2.937-1.073-3.219-.621-1.547,1.315-1.931.629.35-2.663.35-2.663" transform="translate(-1307.927 -564.371)" fill="#ffb27d"/>
      <path id="Trazado_728676" data-name="Trazado 728676" d="M1505.339,588.34a19.391,19.391,0,0,1-1.02,2.985,71.223,71.223,0,0,1-11.622-11.116,14.5,14.5,0,0,0,7.26-2.834c2.023,4.427,5.383,10.965,5.383,10.965" transform="translate(-1255.464 -520.781)" fill="#ffb27d"/>
      <path id="Trazado_728677" data-name="Trazado 728677" d="M1737.276,437.586s-.671,2.336-3.941,6.411a71.18,71.18,0,0,1-11.623,11.116,19.389,19.389,0,0,1-1.02-2.985s3.36-6.538,5.383-10.965c.983-2.155,1.65-3.809,1.459-3.968-.452-.376-6.6-5.721-9.349-8.105l-1.3-1.135-.629-16.678s8.439.693,21.024,26.309" transform="translate(-1438.795 -384.569)" fill="#fff"/>
      <path id="Trazado_728678" data-name="Trazado 728678" d="M1720.064,632.253s-3.049-2.824-4.292-1.242-1.468,4.066-.508,3.9,2.937-1.073,3.219-.621,1.548,1.315,1.932.629-.35-2.663-.35-2.663" transform="translate(-1437.497 -564.371)" fill="#ffb27d"/>
      <path id="Trazado_728679" data-name="Trazado 728679" d="M1740.928,588.34a19.389,19.389,0,0,0,1.02,2.985,71.163,71.163,0,0,0,11.622-11.116,14.5,14.5,0,0,1-7.26-2.834c-2.023,4.427-5.382,10.965-5.382,10.965" transform="translate(-1459.031 -520.781)" fill="#ffb27d"/>
      <path id="Trazado_728680" data-name="Trazado 728680" d="M1618.787,396.513a2.143,2.143,0,0,0-1.151,1.39s3.6,3.7,5.949,3.755Z" transform="translate(-1357.923 -372.461)" fill="#4adbd1"/>
      <path id="Trazado_728681" data-name="Trazado 728681" d="M1650.7,400.806l4.641-5.332a2.178,2.178,0,0,1,.944,1.668s-3.59,3.805-5.585,3.664" transform="translate(-1385.036 -371.609)" fill="#4adbd1"/>
      <path id="Trazado_728682" data-name="Trazado 728682" d="M1634.335,422.807s-3.542,30.581-2.309,34.308a25.483,25.483,0,0,0,2.161,4.738,1.256,1.256,0,0,0,2.173,0c.941-1.633,2.17-4,2.17-5.2,0-1.943-2.688-33.872-2.688-33.872Z" transform="translate(-1369.51 -394.003)" fill="#4adbd1"/>
      <path id="Trazado_728683" data-name="Trazado 728683" d="M1639.582,414.025a22.321,22.321,0,0,1,3.445-.082.361.361,0,0,1,.276.536c-.366.658-1.111,1.8-1.89,1.8-1.1,0-2.8-2.176-1.831-2.252" transform="translate(-1375.684 -386.72)" fill="#4adbd1"/>
      <path id="Trazado_728684" data-name="Trazado 728684" d="M1641.047,357.043a2.383,2.383,0,0,0,1.864.885,2.218,2.218,0,0,0,1.743-.885,11.829,11.829,0,0,0-3.607,0" transform="translate(-1377.121 -339.974)" fill="#fff"/>
      <path id="Trazado_728685" data-name="Trazado 728685" d="M881.332,599.225l-6.8,3.475-1.363-4.718a14.462,14.462,0,0,0,1.258-4.307,17.965,17.965,0,0,0,.141-3.883l5.541,2.837a10.5,10.5,0,0,0-.221,1.268,9.214,9.214,0,0,0,.1,2.965,4.1,4.1,0,0,0,1.348,2.363" transform="translate(-747.407 -530.964)" fill="#ffb27d"/>
      <path id="Trazado_728686" data-name="Trazado 728686" d="M921.234,559.373s9.054-8.077,9.607-9.187,3.121-11.031,3.121-11.031l2.158.264s-.411,11.9-1.32,14.215-11.574,12.172-11.574,12.172Z" transform="translate(-786.823 -489.438)" fill="#ffb27d"/>
      <path id="Trazado_728687" data-name="Trazado 728687" d="M776.52,548.047s-6.276-8.127-9.331-10.649c0,0-4.178-10.3-4.517-10.981s-2.508.566-2.508.566S761.7,537,763.316,539.966s6.637,12.932,10.179,13.3,3.025-5.221,3.025-5.221" transform="translate(-654.734 -478.826)" fill="#ffb27d"/>
      <path id="Trazado_728688" data-name="Trazado 728688" d="M932.629,1070.228a3.614,3.614,0,0,0,2.28,1.726,3.931,3.931,0,0,1,2.364,1.453.922.922,0,0,1-.741,1.468h-7.974a1.146,1.146,0,0,1-1.141-1.261c.059-.591.122-1.279.149-1.806a3.4,3.4,0,0,1,1.212-2.079Z" transform="translate(-791.889 -924.547)" fill="#2c3a64"/>
      <path id="Trazado_728689" data-name="Trazado 728689" d="M887.527,855.926a7.594,7.594,0,0,1-5.15.448s-5.5-14.071-5.829-20.693q-.022-.4-.014-.76c.111-6.228-5.64-22.445-4.089-25.768s14.084,1.493,14.084,1.493l.249,11.3Z" transform="translate(-746.595 -709.896)" fill="#12263f"/>
      <path id="Trazado_728690" data-name="Trazado 728690" d="M886.778,821.947l-10.23,13.734q-.022-.4-.014-.76c.111-6.228-5.64-22.446-4.089-25.768s14.084,1.493,14.084,1.493Z" transform="translate(-746.595 -709.896)" fill="#314865"/>
      <path id="Trazado_728691" data-name="Trazado 728691" d="M818.212,1070.228a3.613,3.613,0,0,0,2.28,1.726,3.932,3.932,0,0,1,2.364,1.453.922.922,0,0,1-.741,1.468h-7.974a1.147,1.147,0,0,1-1.141-1.261c.059-.591.121-1.279.148-1.806a3.4,3.4,0,0,1,1.213-2.079Z" transform="translate(-698.059 -924.547)" fill="#2c3a64"/>
      <path id="Trazado_728692" data-name="Trazado 728692" d="M829.205,806.466S818.129,847.8,817.79,851.845c0,0-2.16,1.108-5.667-.85,0,0-2.036-18.526,0-23.589s-.4-20.365,4.776-23.817,12.307,2.876,12.307,2.876" transform="translate(-696.602 -705.448)" fill="#12263f"/>
      <path id="Trazado_728693" data-name="Trazado 728693" d="M828.819,628.75c.038-.566,3.443-2.866,3.443-2.866a9.588,9.588,0,0,0-2.019-7.4l-4.1,2.917a2.009,2.009,0,0,0-1.131.336,14.111,14.111,0,0,0-2.721-.055c.03.978-.212,1.925-1.927,2.149-2.283.3-4.324-1.26-5.357-2.319a8.666,8.666,0,0,0-3.117.445,4.661,4.661,0,0,0-1.735-.456l-3.357-3.017s-3.932,1.135-4.553,7.062c0,0,4.415,3.36,4.734,6.014l.121,1.006.428,3.564.753,6.251-2.242,12.451a1.877,1.877,0,0,0-.03.325,1.835,1.835,0,0,0,1.406,1.782s.193.032.548.081c2.377.334,12.026,1.485,19.59-.569a3.673,3.673,0,0,0,2.681-3.844l-1.6-20.086s.151-3.211.189-3.777" transform="translate(-689.241 -554.498)" fill="#4adbd1"/>
      <path id="Trazado_728694" data-name="Trazado 728694" d="M828.174,727.293c-.15,4.343-.576,8.025-3.062,9.4-.355-.049-.548-.081-.548-.081a1.835,1.835,0,0,1-1.406-1.782,1.881,1.881,0,0,1,.03-.325l2.242-12.451-.753-6.251.056-.167s3.63,6.1,3.44,11.657" transform="translate(-706.395 -634.165)" fill="#2accc1"/>
      <path id="Trazado_728695" data-name="Trazado 728695" d="M885.719,614.563c-3.151-.084-5.557-3.187-5.557-3.187l5.461.222a9.221,9.221,0,0,0,.1,2.965" transform="translate(-753.142 -548.664)" fill="#ea9c68"/>
      <path id="Trazado_728696" data-name="Trazado 728696" d="M876.782,559.953s-6.285,1.659-8.453-3.338c-2.34-5.394.227-9.323,2.362-9.588,4.256-.529,6.728,1.094,7.476,2.81s2.083,9.232-1.385,10.117" transform="translate(-742.676 -495.81)" fill="#ffb27d"/>
      <path id="Trazado_728697" data-name="Trazado 728697" d="M905.693,600.062s.263.648,1.921.284c0,0,1.392-.305,1.234-1.038a4.578,4.578,0,0,0-3.155.754" transform="translate(-774.079 -538.733)" fill="#fff"/>
      <path id="Trazado_728698" data-name="Trazado 728698" d="M850.832,538a11.663,11.663,0,0,1-.649-3.318s-1.64-2.091-.685-2.609,1.471.72,1.69.477.561-4.352,1.721-4.222,5.454,1.46,7.336-.163-2.684-7.965-10.423-5.515S843.665,533.7,850.832,538" transform="translate(-724.057 -475.445)" fill="#2c3a64"/>
      <path id="Trazado_728699" data-name="Trazado 728699" d="M851.3,535.766a2.722,2.722,0,0,1,.026-1.792,2.862,2.862,0,0,0,.423,1.486c.4.458-.448.306-.448.306" transform="translate(-729.349 -485.189)" fill="#2c3a64"/>
      <path id="Trazado_728700" data-name="Trazado 728700" d="M846.447,539.846a1.545,1.545,0,0,0-1.409.628,1.232,1.232,0,0,1,1.357.028Z" transform="translate(-724.337 -490)" fill="#2c3a64"/>
      <path id="Trazado_728701" data-name="Trazado 728701" d="M990.1,512.112a4.913,4.913,0,0,0-.26-1.722c-.3-.787-.125-2.83.261-2.715s.213.849.645.763,1.122-2.461,1.684-2.245.97,1.015.8,2.742a12.359,12.359,0,0,1-.97,3.442Z" transform="translate(-842.959 -462.395)" fill="#ffb27d"/>
      <path id="Trazado_728702" data-name="Trazado 728702" d="M754.014,499.241a5.526,5.526,0,0,1-.044-1.958c.183-.93-.407-3.161-.813-2.959s-.073.982-.568.969-1.718-2.512-2.3-2.164-.879,1.311-.355,3.192a13.9,13.9,0,0,0,1.738,3.628Z" transform="translate(-646.124 -451.666)" fill="#ffb27d"/>
      <path id="Trazado_728704" data-name="Trazado 728704" d="M511.676,735.384s-5.308-2.123-9.544.106-8.03,22,4.946,24.513c0,0,12.178,13.282,4.6-24.62" transform="translate(-439.859 -649.611)" fill="#233862"/>
      <path id="Trazado_728705" data-name="Trazado 728705" d="M645.379,906.763l-.324-1.172s-1.556-.156-1.575-.125l.138,3.538a2.58,2.58,0,0,0,1.1-.515l.57-.95a1.741,1.741,0,0,0,.1-.776" transform="translate(-559.045 -789.835)" fill="#ffb27d"/>
      <path id="Trazado_728706" data-name="Trazado 728706" d="M631.6,744.311s1.9-.1,2.967,2.408c2.207,5.2,1.248,16.409,1.115,18.015,0,0,.758,3.188-.368,8.7l-1.406-.078s-2.323-20.839-2.046-22.992a31.008,31.008,0,0,0-.261-6.055" transform="translate(-549.3 -657.68)" fill="#fff"/>
      <path id="Trazado_728707" data-name="Trazado 728707" d="M543.438,1084.663l.72,2.6h6.079s1.81-3.321-6.8-2.6" transform="translate(-477.004 -936.709)" fill="#233862"/>
      <path id="Trazado_728708" data-name="Trazado 728708" d="M615.89,1084.663l.72,2.6h6.079s1.81-3.321-6.8-2.6" transform="translate(-536.42 -936.709)" fill="#233862"/>
      <path id="Trazado_728709" data-name="Trazado 728709" d="M587.946,707.287l-5.7,2.912-.75-3.772a16.34,16.34,0,0,0,.743-3.727,20.008,20.008,0,0,0,.038-3.322l4.647,2.378a9.2,9.2,0,0,0-.216,2.828,3.836,3.836,0,0,0,1.241,2.7" transform="translate(-508.212 -620.833)" fill="#ffb27d"/>
      <path id="Trazado_728710" data-name="Trazado 728710" d="M590.367,872.625l-11.533.91s-1.424,20.2,6.153,38.1l6.8-.456Z" transform="translate(-505.944 -762.907)" fill="#233862"/>
      <path id="Trazado_728711" data-name="Trazado 728711" d="M538.284,878.789s-2.267,11.592-.678,37.584h7.128l4.461-31.587c.143-.923,1.962-2.209,1.962-2.209l.071-3.563Z" transform="translate(-471.758 -767.962)" fill="#12263f"/>
      <path id="Trazado_728712" data-name="Trazado 728712" d="M538.841,748.569l.663,4.7-1.828,9.4a1.413,1.413,0,0,0,1.292,1.68c3.472.237,11.863.585,17.56-1.028a1.652,1.652,0,0,0,1.2-1.719l-1-12.578-.352-4.425-.362-4.547a13.305,13.305,0,0,0-4.754-1.5c.045.7-.19,1.341-1.63,1.5a5.273,5.273,0,0,1-3.9-1.291,1.568,1.568,0,0,0-.19-.206c-1.028.1-2.214.277-3.231.48-.16.032-3.786,7.237-3.786,7.237Z" transform="translate(-472.257 -652.963)" fill="#6f88da"/>
      <path id="Trazado_728713" data-name="Trazado 728713" d="M537.8,763.485s16.139-8.26,8.213-21.747a5.474,5.474,0,0,0-1.815-2.194,7.846,7.846,0,0,0-1.494.25c.823.229,2.011,2.159,2.64,3.912,1.176,3.276,4.087,9.478-7.333,17.647Z" transform="translate(-472.377 -653.772)" fill="#2b478b"/>
      <path id="Trazado_728714" data-name="Trazado 728714" d="M566.635,805.438c.179-.013,1.678.043,1.678.043s.746-2.808,2.815-2.808c0,0,.967-.095.67.688a3.572,3.572,0,0,0-.645,1.352,2.748,2.748,0,0,1-1.715,2.036l-.894.242s-2.379-1.52-1.909-1.554" transform="translate(-495.976 -705.539)" fill="#ffb27d"/>
      <path id="Trazado_728715" data-name="Trazado 728715" d="M590.127,720.152c-1.745.221-4.438-2.26-4.5-2.311,0,0,3.228.026,4.5.081a13.276,13.276,0,0,0,0,2.23" transform="translate(-511.598 -635.973)" fill="#ed975d"/>
      <path id="Trazado_728716" data-name="Trazado 728716" d="M583.811,661.789s-7.938.967-8.107-4.625,3.139-9.214,5.347-9.173c4.4.082,5.13,1.862,5.64,3.715s.773,9.689-2.881,10.083" transform="translate(-503.459 -578.691)" fill="#ffb27d"/>
      <path id="Trazado_728717" data-name="Trazado 728717" d="M612.032,705.825s.145.584,1.6.477c0,0,1.224-.09,1.178-.734a3.939,3.939,0,0,0-2.781.257" transform="translate(-533.256 -625.794)" fill="#fff"/>
      <path id="Trazado_728718" data-name="Trazado 728718" d="M558.357,648.2a10.724,10.724,0,0,1-.591-3.109s-1.587-2.024-.662-2.525,1.424.7,1.636.462.543-4.211,1.665-4.086,6.207,1.573,8.029,0-3.527-7.867-11.015-5.5-6,10.594.939,14.752" transform="translate(-484.387 -566.332)" fill="#2c3a64"/>
      <path id="Trazado_728719" data-name="Trazado 728719" d="M558.919,646.094a2.635,2.635,0,0,1,.025-1.734,2.77,2.77,0,0,0,.409,1.438c.391.443-.434.3-.434.3" transform="translate(-489.582 -575.714)" fill="#2c3a64"/>
      <path id="Trazado_728720" data-name="Trazado 728720" d="M554.225,650.041a1.494,1.494,0,0,0-1.364.607,1.191,1.191,0,0,1,1.312.027Z" transform="translate(-484.731 -580.368)" fill="#2c3a64"/>
      <path id="Trazado_728721" data-name="Trazado 728721" d="M524.465,741.227s-1.358-.076-3.786,3.976c-1.3,2.165-6.831,12.448-3.982,13.565s8.585-.008,10.054-1.563l-.831-2.392s-3.975.18-3.952-.033a17.073,17.073,0,0,1,2.026-3.846c3.882-5.473.471-9.706.471-9.706" transform="translate(-454.415 -655.151)" fill="#fff"/>
      <path id="Trazado_728722" data-name="Trazado 728722" d="M581.977,734.954s-2.793-1.258-3.774-2.616c0,0-1.012.586-1.107,1.308s3.418,1.978,4.881,1.308" transform="translate(-504.604 -647.862)" fill="#fff"/>
      <path id="Trazado_728723" data-name="Trazado 728723" d="M605.541,733.964s-.195,1.96-1.308,2.323c0,0,2.035.146,2.717-1.317,0,0-.7-1.025-1.409-1.006" transform="translate(-526.859 -649.195)" fill="#fff"/>
      <path id="Trazado_728724" data-name="Trazado 728724" d="M609.429,787.448a.352.352,0,1,1-.345-.42.388.388,0,0,1,.345.42" transform="translate(-530.554 -692.712)" fill="#4863be"/>
      <path id="Trazado_728725" data-name="Trazado 728725" d="M609.429,818.715a.352.352,0,1,1-.345-.42.388.388,0,0,1,.345.42" transform="translate(-530.554 -718.353)" fill="#4863be"/>
      <path id="Trazado_728726" data-name="Trazado 728726" d="M609.429,852.447a.352.352,0,1,1-.345-.42.388.388,0,0,1,.345.42" transform="translate(-530.554 -746.015)" fill="#4863be"/>
      <path id="Trazado_728727" data-name="Trazado 728727" d="M645.675,900.845l.372-1.064-1.811-.107.033,1.093Z" transform="translate(-559.665 -785.089)" fill="#fff"/>
      <path id="Trazado_728728" data-name="Trazado 728728" d="M575.938,807.11a8.833,8.833,0,0,0,.227-1.669c-.063-.316.554-.077.553.579a.729.729,0,0,1-.174.4l-.323,1.3Z" transform="translate(-503.656 -707.698)" fill="#ffb27d"/>
      <path id="Trazado_728729" data-name="Trazado 728729" d="M568.551,815.348l-1.621.353.3,1.967h1.2l-.688.978.308.13,1.682-1.629a5.952,5.952,0,0,1-1.179-1.8" transform="translate(-496.269 -715.936)" fill="#d7e9ff"/>
      <path id="Trazado_728730" data-name="Trazado 728730" d="M175.484,1071.933a3.93,3.93,0,0,1-1.18-3.667c.492-2.244,4.695-2.045,10.918-1.407s22.15.836,27.8-.345,7.614.689,8.2,2.263-.787,3.157-.787,3.157Z" transform="translate(-174.213 -921.605)" fill="#12263f"/>
      <path id="Trazado_728731" data-name="Trazado 728731" d="M218.5,954.441s.252-1.274-.141-1.372-.467.811-.467.811-1.279-1.835-2.115-.819,1.634,2.391,1.634,2.391Z" transform="translate(-208.155 -828.619)" fill="#ffb27d"/>
      <path id="Trazado_728732" data-name="Trazado 728732" d="M273.817,918.637c-2.179-.031-6.189-2.414-6.189-5.366v-4.6c0-2.935,3.132-5.009,6.449-5.009,4.872,0,5.93,3.931,5.93,5.009v4.344c0,3.094-3.691,5.662-6.19,5.626" transform="translate(-250.82 -788.356)" fill="#ffb27d"/>
      <path id="Trazado_728733" data-name="Trazado 728733" d="M272.926,996.447h-1.757a5.7,5.7,0,0,1-5.679-5.679v-4.807a5.7,5.7,0,0,1,5.679-5.679h1.757a5.7,5.7,0,0,1,5.679,5.679v4.807a5.7,5.7,0,0,1-5.679,5.679" transform="translate(-249.067 -851.194)" fill="#ffb27d"/>
      <path id="Trazado_728734" data-name="Trazado 728734" d="M236.6,965.721a3.912,3.912,0,0,1-2.48.2c-1.6-.575-3.437-.747-3.8-1.068-.623-.545-3.579-2.723-3.579-2.723l-1.089,1.012s1.945,4.591,3.035,5.291,3.282,3.458,6.225,3.424c1.529-.017,1.693-6.132,1.693-6.132" transform="translate(-216.388 -836.304)" fill="#ffb27d"/>
      <path id="Trazado_728735" data-name="Trazado 728735" d="M289.544,962.68a2.819,2.819,0,0,0,2.066,1.18,2.941,2.941,0,0,0,2.033-1.18,3.989,3.989,0,0,0-4.1,0" transform="translate(-268.793 -836.305)" fill="#fff"/>
      <path id="Trazado_728736" data-name="Trazado 728736" d="M290.684,902.194s-.787,1.525,0,2.508,2.9.393,2.9.393-.836-.344-.836-.689c0,0,1.279.64,1.967-.049s.238-2.8-.426-3.2-3.263-.224-3.607,1.033" transform="translate(-269.44 -786.154)" fill="#2c3a64"/>
      <path id="Trazado_728737" data-name="Trazado 728737" d="M317.841,965.721a3.912,3.912,0,0,0,2.48.2c1.6-.575,3.437-.747,3.8-1.068.622-.545,3.579-2.723,3.579-2.723l1.089,1.012s-1.945,4.591-3.035,5.291-3.282,3.458-6.225,3.424c-1.529-.017-1.693-6.132-1.693-6.132" transform="translate(-291.998 -836.304)" fill="#ffb27d"/>
      <path id="Trazado_728738" data-name="Trazado 728738" d="M372.3,954.441s-.252-1.274.141-1.372.467.811.467.811,1.279-1.835,2.115-.819-1.634,2.391-1.634,2.391Z" transform="translate(-336.592 -828.619)" fill="#ffb27d"/>
      <path id="Trazado_728739" data-name="Trazado 728739" d="M226.633,1034.042s-3.014,2.228-4.663,3.147a12.417,12.417,0,0,0-3.312,2.672c0,.2.349,1.836,1.257,1.967s10.261-.629,11.486-1.462c0,0-2.44-6.276-4.768-6.325" transform="translate(-210.661 -895.281)" fill="#ffb27d"/>
      <path id="Trazado_728740" data-name="Trazado 728740" d="M215.065,1047.187a4.018,4.018,0,0,1,2.827.709.989.989,0,0,0,1.131.049,3.472,3.472,0,0,1,1.963,4.427s-3.433.557-4.018.213-1.9-5.4-1.9-5.4" transform="translate(-207.715 -906.037)" fill="#fff"/>
      <path id="Trazado_728741" data-name="Trazado 728741" d="M212.123,1052.367a2.834,2.834,0,0,1-2.47-1.639c-.689-1.623-.738-3.3.344-3.688a1.932,1.932,0,0,1,2.41.787c.488.738,2.186,4.066-.284,4.541" transform="translate(-202.869 -905.819)" fill="#afcdfb"/>
      <path id="Trazado_728742" data-name="Trazado 728742" d="M317.091,1034.042s3.015,2.228,4.663,3.147a12.418,12.418,0,0,1,3.312,2.672c0,.2-.349,1.836-1.257,1.967s-10.261-.629-11.486-1.462c0,0,2.44-6.276,4.768-6.325" transform="translate(-287.473 -895.281)" fill="#ffb27d"/>
      <path id="Trazado_728743" data-name="Trazado 728743" d="M358.932,1047.187a4.018,4.018,0,0,0-2.827.709.99.99,0,0,1-1.131.049,3.472,3.472,0,0,0-1.963,4.427s3.433.557,4.018.213,1.9-5.4,1.9-5.4" transform="translate(-320.693 -906.037)" fill="#fff"/>
      <path id="Trazado_728744" data-name="Trazado 728744" d="M370.2,1052.367a2.834,2.834,0,0,0,2.47-1.639c.689-1.623.738-3.3-.344-3.688a1.932,1.932,0,0,0-2.41.787c-.488.738-2.186,4.066.284,4.541" transform="translate(-333.863 -905.819)" fill="#afcdfb"/>
      <path id="Trazado_728745" data-name="Trazado 728745" d="M259.959,1022.471s5.246,2.934,13.115.492a7.711,7.711,0,0,1,.9,1.025,2.129,2.129,0,0,1,.408,1.451s-4.657,2.3-5,5.794c0,0-3.91,1.428-5.636-.127,0,0-2.522-5.7-5-6a5.8,5.8,0,0,1,1.214-2.636" transform="translate(-243.535 -885.792)" fill="#fff"/>
      <path id="Trazado_728746" data-name="Trazado 728746" d="M1179.721,1009.014l-1.055,4.438-1.4,5.886h-4.375l-.261-5.638-.2-4.349Z" transform="translate(-992.821 -874.756)" fill="#ffb27d"/>
      <path id="Trazado_728747" data-name="Trazado 728747" d="M1261.649,463.416s3.462-3.7,5.712-.8a30.489,30.489,0,0,0,8.2,7.1c3.454,2.234-3.052,19.742-7.378,19.382s-21.979-14.163-6.533-25.681" transform="translate(-1060.887 -425.759)" fill="#12263f"/>
      <path id="Trazado_728748" data-name="Trazado 728748" d="M1194.207,453.9c.864-.646,8.82-3.377,16.577-.691s-6.008,10.169-6.008,10.169l-4.461.192Z" transform="translate(-1010.681 -418.006)" fill="#2accc1"/>
      <path id="Trazado_728749" data-name="Trazado 728749" d="M1165.382,1072.855a11.642,11.642,0,0,1,.305-2.854c.305-.712,1.424-3.612,1.424-3.612h4.375a26.893,26.893,0,0,1,.865,3.51c.051.865,0,2.956,0,2.956Z" transform="translate(-987.042 -921.807)" fill="#233862"/>
      <path id="Trazado_728750" data-name="Trazado 728750" d="M1287.892,1072.855a11.651,11.651,0,0,0-.305-2.854c-.305-.712-1.425-3.612-1.425-3.612h-4.375a26.825,26.825,0,0,0-.865,3.51c-.051.865,0,2.956,0,2.956Z" transform="translate(-1081.776 -921.807)" fill="#233862"/>
      <path id="Trazado_728751" data-name="Trazado 728751" d="M1196.847,422.886a40.966,40.966,0,0,1-.765,6.905l-4.831,10.414,18.186-4.322-4.337-5.992s-1.309-6.394-.622-8.76-7.631,1.755-7.631,1.755" transform="translate(-1008.257 -392.049)" fill="#ffb27d"/>
      <path id="Trazado_728752" data-name="Trazado 728752" d="M1222.2,437.884s1.438,3.462,4.147,3.385,3.325-3.139,3.325-3.139Z" transform="translate(-1033.64 -406.389)" fill="#ed985f"/>
      <path id="Trazado_728753" data-name="Trazado 728753" d="M1204.938,359.51a43.481,43.481,0,0,0-1.485-5.69c-.61-1.323-1.119-7.223,5.646-7.529,0,0,2.594.305,4.019-.56,0,0,0,.865-.356,1.17a4.5,4.5,0,0,1,4.172,1.475c1.831,2.035-1.221,9.157-1.068,10.835Z" transform="translate(-1017.991 -330.817)" fill="#2c3a64"/>
      <path id="Trazado_728754" data-name="Trazado 728754" d="M1218.115,389.633c-1.963-.034-5.576-2.648-5.576-5.885V378.7a2.015,2.015,0,0,1,1.831-2.149h7.488a2.015,2.015,0,0,1,1.831,2.149v4.765c0,3.394-3.324,6.21-5.575,6.17" transform="translate(-1025.714 -356.09)" fill="#ffb27d"/>
      <path id="Trazado_728755" data-name="Trazado 728755" d="M1211.4,376.18s.01-3.035,2.414-3.5,7.783,1.479,8.546-.734-10.4-2.175-10.96-.763,0,5,0,5" transform="translate(-1024.576 -350.875)" fill="#2c3a64"/>
      <path id="Trazado_728756" data-name="Trazado 728756" d="M1174.057,691.12c1.2-3.747,1.18,15.513-3.653,37.176-.737,3.306-2.389,11.279-3.575,19h-9.9c-.137-6.231-.8-14.929-1.225-21.444a141.815,141.815,0,0,1,2.038-35.746Z" transform="translate(-978.851 -613.224)" fill="#12263f"/>
      <path id="Trazado_728757" data-name="Trazado 728757" d="M1244.407,725.663c-.109,6.244-1.377,14.539-1.492,20.619h-10.046c-.675-4.413-1.747-8.958-2.517-12.625a34.779,34.779,0,0,1-.938-6.12c.011-2.652-1.667-10.3-2.665-17.042,0-.01,0-.019,0-.027-.039-.259-.076-.518-.112-.774a111.928,111.928,0,0,1-.866-18.757l16.951-1.059a349.616,349.616,0,0,1,1.691,35.786" transform="translate(-1036.495 -613.041)" fill="#12263f"/>
      <path id="Trazado_728758" data-name="Trazado 728758" d="M1160.968,733.753s3.814,4.621,14.175,3.954,15.3-2.47,15.3-2.47Z" transform="translate(-983.422 -649.022)" fill="#233862"/>
      <path id="Trazado_728759" data-name="Trazado 728759" d="M1187.275,520.685c-3.385.461-26.409,1.656-29.479-1.483s5.011-45.985,5.011-45.985.915-.265,2.459-.556c.788-.148,1.737-.3,2.813-.432.013.334.279,5.385,4.472,7.471,0,0,5.037-2.018,4.543-7.39-.006-.063-.013-.124-.022-.184.672.072,1.353.165,2.036.283a28.789,28.789,0,0,1,4.168,1.032s7.384,46.783,4,47.242" transform="translate(-980.251 -434.471)" fill="#4adbd1"/>
      <path id="Trazado_728760" data-name="Trazado 728760" d="M1123.413,503.631c-.136.178.782,1.5,2.077,3.192,2.664,3.482,6.926,8.55,6.926,8.55a17.485,17.485,0,0,1-.3,2.826,64.107,64.107,0,0,1-12.435-7.431c-3.689-2.922-4.746-4.839-4.746-4.839,5.915-25.019,13.5-27.624,13.5-27.624l2.476,15.076s-7.087,9.708-7.5,10.251" transform="translate(-945.674 -439.536)" fill="#4adbd1"/>
      <path id="Trazado_728761" data-name="Trazado 728761" d="M1216.327,472.411l-1.526,4.64-2.033,2.986-2.918,1.583-2.748-1.583-4.618-7.375c.787-.148,1.737-.3,2.812-.432a4.786,4.786,0,0,0,.572,1.885,4.535,4.535,0,0,0,8.021.018,3.658,3.658,0,0,0,.423-1.822,1.817,1.817,0,0,0-.021-.184c.672.072,1.353.165,2.036.283" transform="translate(-1017.468 -434.471)" fill="#fff"/>
      <path id="Trazado_728762" data-name="Trazado 728762" d="M1154.05,645.354c0,.049,0,.1-.006.144-.013.317-.031.613-.055.882a4.809,4.809,0,0,1-.486.573,5.154,5.154,0,0,1-.856.694c-.149-.071-.3-.144-.442-.216a61.386,61.386,0,0,1-10.888-6.681,13.074,13.074,0,0,0,5.807-3.946c2.663,3.482,6.926,8.551,6.926,8.551" transform="translate(-967.307 -569.516)" fill="#ffb27d"/>
      <path id="Trazado_728763" data-name="Trazado 728763" d="M1294.827,503.378s-1.021,1.937-4.653,4.929a64.125,64.125,0,0,1-12.291,7.668,17.468,17.468,0,0,1-.351-2.82s4.163-5.148,6.761-8.681c1.262-1.72,2.155-3.056,2.015-3.231-.33-.415-4.773-6.258-6.755-8.865l-.942-1.241,2.509-14.823s7.314,2.161,13.706,27.062" transform="translate(-1079.013 -437.905)" fill="#4adbd1"/>
      <path id="Trazado_728764" data-name="Trazado 728764" d="M1291.069,636.645a61.7,61.7,0,0,1-10.809,6.916l-.376.193a6.956,6.956,0,0,1-1.261-2.5c.084-.1.191-.24.324-.4,1.2-1.492,4.2-5.263,6.24-8.036a13.064,13.064,0,0,0,5.881,3.834" transform="translate(-1079.909 -566.243)" fill="#ffb27d"/>
      <path id="Trazado_728765" data-name="Trazado 728765" d="M1227.1,461.97a40.293,40.293,0,0,0-8.994.1.154.154,0,0,1,0-.017s8.325-5.149,9-.085" transform="translate(-1030.279 -424.313)" fill="#ffb27d"/>
      <path id="Trazado_728766" data-name="Trazado 728766" d="M1220.344,516.484h-.171l-.126-8.024h.432Z" transform="translate(-1031.872 -464.265)" fill="#2accc1"/>
      <path id="Trazado_728767" data-name="Trazado 728767" d="M1219.053,551.505c-.155.235-.505,1.01-.273,1.093a.984.984,0,0,0,.749-.023c.109-.109-.182-1.513-.476-1.07" transform="translate(-1030.769 -499.496)" fill="#2accc1"/>
      <path id="Trazado_728768" data-name="Trazado 728768" d="M1264.142,516.484h-.171l-.125-8.024h.431Z" transform="translate(-1067.789 -464.265)" fill="#2accc1"/>
      <path id="Trazado_728769" data-name="Trazado 728769" d="M1262.851,551.505c-.156.235-.505,1.01-.273,1.093a.984.984,0,0,0,.749-.023c.109-.109-.182-1.513-.476-1.07" transform="translate(-1066.686 -499.496)" fill="#2accc1"/>
      <path id="Trazado_728770" data-name="Trazado 728770" d="M1193.63,471.356l-7.077-6.82s-1.593-1.131.925-2.822,6.152,9.642,6.152,9.642" transform="translate(-1003.996 -425.79)" fill="#2accc1"/>
      <path id="Trazado_728771" data-name="Trazado 728771" d="M1259.636,471.356l7.077-6.82s1.593-1.131-.925-2.822-6.152,9.642-6.152,9.642" transform="translate(-1064.337 -425.79)" fill="#2accc1"/>
      <path id="Trazado_728772" data-name="Trazado 728772" d="M1205.318,672.576a4.369,4.369,0,0,1-3.416-1.022,4.241,4.241,0,0,1-.413-.426,6.762,6.762,0,0,1-1.313-2.714,9.15,9.15,0,0,1-.28-1.787l-.006-.2h-11.43l.007.213a6.406,6.406,0,0,1-.593,3.151,4.5,4.5,0,0,1-.832,1.161,4.8,4.8,0,0,1-1.008.771,6.927,6.927,0,0,1-3.253.852l-.212-.007V677.4h22.971v-4.841Z" transform="translate(-1001.138 -593.81)" fill="#2accc1"/>
      <path id="Trazado_728773" data-name="Trazado 728773" d="M1311.4,565.395s-6.372-8.361-1.328-10.795c2-.966,4.821,10.507,3.31,11.586s-4,2.439-4,2.439Z" transform="translate(-1104.105 -502.057)" fill="#2accc1"/>
      <path id="Trazado_728774" data-name="Trazado 728774" d="M1150.347,563.924s2.214-10.5.271-9.417-4.821,10.507-3.31,11.586,4,2.439,4,2.439Z" transform="translate(-971.874 -501.964)" fill="#2accc1"/>
      <path id="Trazado_728775" data-name="Trazado 728775" d="M1303.742,503.881c-2.91-3.612-4-9.477-3.848-15.53a70.8,70.8,0,0,1,.775-8.79l2.387,1.859a16.5,16.5,0,0,0-1.475,6.944,34.479,34.479,0,0,0,2,14.163Z" transform="translate(-1097.341 -440.567)" fill="#12263f"/>
      <path id="Trazado_728776" data-name="Trazado 728776" d="M1168.173,992.474l-5.127,0c-.454.051-1.164-.613-1.164-1.563a18.859,18.859,0,0,0-.161-2.682c-.66-1.775.322-1.871,1.271-1.871h9.354c.95,0-.505,2.936-.505,3.886l.337,1.245c0,.95-3.055.989-4,.989" transform="translate(-983.864 -856.174)" fill="#233862"/>
      <path id="Trazado_728777" data-name="Trazado 728777" d="M1179.584,1033.679l-1.4,5.886h-4.375l-.26-5.638a9.136,9.136,0,0,0,6.035-.248" transform="translate(-993.74 -894.983)" fill="#fff"/>
      <path id="Trazado_728778" data-name="Trazado 728778" d="M1272.234,1009.014l1.055,4.438,1.4,5.886h4.375l.26-5.638.2-4.349Z" transform="translate(-1074.669 -874.756)" fill="#ffb27d"/>
      <path id="Trazado_728779" data-name="Trazado 728779" d="M1266.143,992.474l5.126,0c.454.051,1.164-.613,1.164-1.563a18.877,18.877,0,0,1,.161-2.682c.659-1.775-.322-1.871-1.271-1.871h-9.354c-.95,0,.505,2.936.505,3.886l-.337,1.245c0,.95,3.055.989,4,.989" transform="translate(-1065.987 -856.174)" fill="#233862"/>
      <path id="Trazado_728780" data-name="Trazado 728780" d="M1278.1,1033.679l1.4,5.886h4.375l.26-5.638a9.137,9.137,0,0,1-6.035-.248" transform="translate(-1079.477 -894.983)" fill="#fff"/>
      <path id="Trazado_728781" data-name="Trazado 728781" d="M1233.166,429.023a2.382,2.382,0,0,0,1.864.885,2.218,2.218,0,0,0,1.742-.885,11.829,11.829,0,0,0-3.607,0" transform="translate(-1042.63 -399.002)" fill="#fff"/>
    </g>
  </g>
</svg>
