<svg xmlns="http://www.w3.org/2000/svg" xmlns:xlink="http://www.w3.org/1999/xlink" width="88.689" height="88.689" viewBox="0 0 88.689 88.689">
  <defs>
    <clipPath id="clip-path">
      <rect id="Rectángulo_35034" data-name="Rectángulo 35034" width="43.108" height="37.058" fill="#ffca28"/>
    </clipPath>
  </defs>
  <g id="Grupo_1018677" data-name="Grupo 1018677" transform="translate(-285 -4917.799)">
    <g id="Grupo_1018509" data-name="Grupo 1018509" transform="translate(285 4917.799)">
      <g id="Grupo_20664" data-name="Grupo 20664" transform="translate(0 0)">
        <path id="Trazado_99075" data-name="Trazado 99075" d="M44.345,0A44.345,44.345,0,1,1,0,44.345,44.345,44.345,0,0,1,44.345,0Z" fill="#12263f"/>
        <path id="Trazado_715274" data-name="Trazado 715274" d="M35.122,0A35.122,35.122,0,1,1,0,35.122,35.122,35.122,0,0,1,35.122,0Z" transform="translate(9.223 9.223)" fill="#f6f6f6"/>
      </g>
    </g>
    <g id="Grupo_157985" data-name="Grupo 157985" transform="translate(307.791 4943.614)">
      <g id="Grupo_157984" data-name="Grupo 157984" clip-path="url(#clip-path)">
        <path id="Trazado_151771" data-name="Trazado 151771" d="M46.458,38.835q-8.609-14.283-17.2-28.575c-.692-1.156-1.657-1.176-2.366.01-4.7,7.874-9.454,15.719-14.19,23.574q-1.573,2.609-3.143,5.218A1.088,1.088,0,0,0,9.8,40.62a1.523,1.523,0,0,0,.89.192q8.694,0,17.388,0,8.652,0,17.3,0a2.8,2.8,0,0,0,.586-.039,1.042,1.042,0,0,0,.752-1.459,3.89,3.89,0,0,0-.266-.476M27.272,18.22a2.2,2.2,0,0,1,2.39.541,1.77,1.77,0,0,1,.291,1.155c-.018,2.975-.254,5.943-.32,8.916-.008.379-.05.759-.026,1.136.06.946-.392,1.33-1.338,1.481a1.967,1.967,0,0,1-.991-.124,1.05,1.05,0,0,1-.726-1.063c-.047-1.767-.108-3.534-.149-4.831-.126-2.15-.184-3.832-.206-5.515a1.526,1.526,0,0,1,1.075-1.695m.843,19.058a2.007,2.007,0,0,1,.008-4.013,2.007,2.007,0,0,1-.008,4.013" transform="translate(-6.519 -6.55)" fill="#6f88da"/>
        <path id="Trazado_151772" data-name="Trazado 151772" d="M28.338,7.6Q26.647,4.8,24.954,1.994A3.793,3.793,0,0,0,21.741,0a3.848,3.848,0,0,0-3.634,2.068C14.205,8.548,10.268,15,6.412,21.505,4.248,25.154,1.805,28.643,0,32.5v1.263a9.1,9.1,0,0,0,.321.936A3.845,3.845,0,0,0,4.1,37.058q17.449,0,34.9,0c.14,0,.281,0,.421-.008a3.719,3.719,0,0,0,2.271-.873,3.856,3.856,0,0,0,.762-5.153Q35.4,19.311,28.338,7.6M39.453,34.22a2.821,2.821,0,0,1-.585.039q-8.652,0-17.3,0-8.694,0-17.388,0a1.521,1.521,0,0,1-.89-.192,1.088,1.088,0,0,1-.247-1.559Q4.6,29.9,6.181,27.293c4.736-7.854,9.488-15.7,14.19-23.574.709-1.187,1.674-1.166,2.366-.011q8.565,14.309,17.2,28.576a3.888,3.888,0,0,1,.266.475,1.042,1.042,0,0,1-.752,1.46" transform="translate(0 0)" fill="#12263f"/>
        <path id="Trazado_151773" data-name="Trazado 151773" d="M65.493,50.357a1.05,1.05,0,0,0,.726,1.063,1.974,1.974,0,0,0,.991.124c.946-.152,1.4-.535,1.338-1.481-.024-.376.018-.757.026-1.136.066-2.974.3-5.941.32-8.916a1.772,1.772,0,0,0-.291-1.155,2.2,2.2,0,0,0-2.39-.541,1.526,1.526,0,0,0-1.075,1.694c.022,1.684.08,3.366.205,5.516.041,1.3.1,3.064.149,4.831" transform="translate(-45.46 -26.645)" fill="#12263f"/>
        <path id="Trazado_151774" data-name="Trazado 151774" d="M66.892,88.431a2.007,2.007,0,0,0-.008,4.013,2.007,2.007,0,0,0,.008-4.013" transform="translate(-45.288 -61.716)" fill="#12263f"/>
      </g>
    </g>
  </g>
</svg>
