<svg xmlns="http://www.w3.org/2000/svg" xmlns:xlink="http://www.w3.org/1999/xlink" width="205" height="101" viewBox="0 0 205 101">
  <defs>
    <clipPath id="clip-path">
      <rect id="Rect치ngulo_35128" data-name="Rect치ngulo 35128" width="205" height="101" transform="translate(-0.037 -0.235)" fill="#fff" stroke="#707070" stroke-width="1"/>
    </clipPath>
  </defs>
  <g id="Grupo_83" data-name="Grupo 83" transform="translate(0.037 0.235)" clip-path="url(#clip-path)">
    <g id="Grupo_158106" data-name="Grupo 158106" transform="translate(18.49 -8.581)">
      <g id="Grupo_158107" data-name="Grupo 158107">
        <path id="Trazado_152836" data-name="Trazado 152836" d="M177.275,75.853H120.2a6.914,6.914,0,0,1-6.894-6.893V36.246a6.915,6.915,0,0,1,6.894-6.894h57.071a6.914,6.914,0,0,1,6.893,6.894V68.96a6.914,6.914,0,0,1-6.893,6.893" transform="translate(-16.545 -4.286)" fill="#f6f6f6"/>
        <path id="Trazado_152837" data-name="Trazado 152837" d="M177.773,29.352H119.707a6.415,6.415,0,0,0-6.4,6.4v.395H184.17v-.395a6.416,6.416,0,0,0-6.4-6.4" transform="translate(-16.545 -4.286)" fill="#1a1a1a"/>
        <path id="Trazado_152838" data-name="Trazado 152838" d="M128.708,96l-2.437,7.427s-2.251-7.519-8.592-9.961-9.822-1.719-9.822-1.719,1.88-1.3,1.636-2.947-2.971-2.96-2.971-2.96l-10.39.372s-2.437.907-2.588,2.725a3.249,3.249,0,0,0,1.294,2.81s-5.574-.284-8.809,1.194S78.313,96.2,75.917,103.43a62.229,62.229,0,0,0-2.629,15.438L62.4,121.632s-3.079,1.864-2.609,3.044l2.225,12.309s2.378,10.3,10.008,10.293,9.6-5.631,9.6-5.631-2.173,16.145-3.889,20.328h47a189.166,189.166,0,0,1-4.526-24.036s-1.062-8.294-.558-11.577c0,0,1,8.913,7.334,10.408s10.192-2.075,12.413-7.327,3.536-14.84,3.994-17.709,2.058-13.193,2.058-13.193.311-2.177-7.466-3.288-8.658-.925-9.278.75" transform="translate(-8.723 -12.534)" fill="#12263f"/>
        <path id="Trazado_152839" data-name="Trazado 152839" d="M80.091,117.762H37.66a6.914,6.914,0,0,1-6.893-6.893V85.547a6.914,6.914,0,0,1,6.893-6.893h42.43a6.913,6.913,0,0,1,6.893,6.893v25.321a6.914,6.914,0,0,1-6.893,6.893" transform="translate(-4.492 -11.484)" fill="#f6f6f6"/>
        <path id="Trazado_152840" data-name="Trazado 152840" d="M98.169,70.744s-2.092-8.073,1.787-9.192a11.552,11.552,0,0,1,3.024-2.33s-3.635-4.46-2.737-6.893,3.457-3.038,6.554-3.072,6.5.908,6.7,3.3-2.91,6.594-2.91,6.594,4.538,1.163,4.749,4.945a26.619,26.619,0,0,1-.313,6.29l-1.05.77-15.058.915Z" transform="translate(-14.252 -7.192)" fill="#1a1a1a"/>
        <path id="Trazado_152841" data-name="Trazado 152841" d="M113.452,78.746s4.158,1.275,4.239-2.652c0,0-.289-3.313-3.858-2.383l-.193-.777a9.37,9.37,0,0,1-6.5-1.949,62.979,62.979,0,0,1-5.464-4.225,49.58,49.58,0,0,1-2.4,5.1l-.005,1.922s-3.372-1.05-3.986,2.311c0,0,.01,2.679,2.157,2.883s2.044-.4,2.044-.4.494,4.135,2.805,5.333l-.224,3.035A6.118,6.118,0,0,0,106.8,88.07c3.1-.367,4.056-1.193,4.056-1.193l-.174-2.966a7.524,7.524,0,0,0,2.773-5.166" transform="translate(-13.913 -9.748)" fill="#fda194"/>
        <path id="Trazado_152842" data-name="Trazado 152842" d="M143.507,98.143s1.776-4.021,1.589-4.93-1.962-2.914-2.841-3.653a1.719,1.719,0,0,1,0-2.717c.888-.5,2.286,0,3.629,1.172s3.016,2.973,3.623,2.95c0,0,4.624-3.489,6.59-3.992s2.892-.61,3.39.2c0,0,1.637.085,2.015,1.245,0,0,1.4-.284,1.9.564s-.187,2.489-1.816,3.629a22.053,22.053,0,0,1-5.942,3.06c-1.817.472-2.537,4.546-2.537,4.546s-6.1-.2-9.6-2.074" transform="translate(-20.674 -12.642)" fill="#fda194"/>
        <path id="Trazado_152843" data-name="Trazado 152843" d="M72.277,124.787l-1.172-4.321s1.773-2.161.746-6.434-3.868-3.379-3.868-3.379a57.356,57.356,0,0,1-2.244-6.489c-.5-2.249-1.933-4.966-3.811-4.6s-2.142,3.367-1.58,5.714,1.8,5.758,1.8,5.758-2.122-1.836-2.921-1.775a3.917,3.917,0,0,0-2.863,1.729,9.257,9.257,0,0,0-.581,2.021,3.24,3.24,0,0,0-1.641,2.463c-.05,1.6,1.062,3.3,5.291,5.875a3.732,3.732,0,0,0,2.992,2.444l.623,3.787a23.831,23.831,0,0,0,4.938-1.032c2.184-.779,4.294-1.758,4.294-1.758" transform="translate(-7.905 -14.532)" fill="#fda194"/>
        <path id="Trazado_152844" data-name="Trazado 152844" d="M189.009,83.382l-12.538-7.76a.775.775,0,0,0-1.183.7l.722,14.729a.775.775,0,0,0,1.168.629l3.389-2a.775.775,0,0,1,1.062.274l4.929,8.359a.776.776,0,0,0,1.062.274L190.3,97a.774.774,0,0,0,.274-1.062l-4.927-8.359a.773.773,0,0,1,.274-1.062l3.072-1.812a.775.775,0,0,0,.015-1.327" transform="translate(-25.594 -11.025)" fill="#12263f"/>
        <path id="Trazado_152845" data-name="Trazado 152845" d="M68.306,96.117a5.579,5.579,0,1,1-5.579-5.579,5.579,5.579,0,0,1,5.579,5.579" transform="translate(-8.344 -13.22)" fill="#6f88da"/>
        <path id="Trazado_152846" data-name="Trazado 152846" d="M191.308,32.918a1.977,1.977,0,1,1-1.977-1.977,1.977,1.977,0,0,1,1.977,1.977" transform="translate(-27.356 -4.518)" fill="#219cd5"/>
        <path id="Trazado_152847" data-name="Trazado 152847" d="M184.422,32.918a1.977,1.977,0,1,1-1.977-1.977,1.977,1.977,0,0,1,1.977,1.977" transform="translate(-26.35 -4.518)" fill="#fff"/>
        <path id="Trazado_152848" data-name="Trazado 152848" d="M177.535,32.918a1.977,1.977,0,1,1-1.977-1.977,1.977,1.977,0,0,1,1.977,1.977" transform="translate(-25.345 -4.518)" fill="#fff"/>
        <path id="Trazado_152849" data-name="Trazado 152849" d="M62.15,127.752l.962.216.92,3.794s-4.009.122-4.235-.967,2.354-3.044,2.354-3.044" transform="translate(-8.729 -18.653)" fill="#1a1a1a"/>
        <path id="Trazado_152850" data-name="Trazado 152850" d="M74.277,124.8l.94,3.623s3.58-1.855,2.746-3.243-3.687-.379-3.687-.379" transform="translate(-10.845 -18.171)" fill="#1a1a1a"/>
        <path id="Trazado_152851" data-name="Trazado 152851" d="M144.459,96.1s-.537,3.062-1.094,3.428-3.139-1.18-2.7-2.427,3.8-1,3.8-1" transform="translate(-20.531 -14.029)" fill="#1a1a1a"/>
        <path id="Trazado_152852" data-name="Trazado 152852" d="M156.446,97.956s-1.337,2.752-1.212,3.863c0,0,3.925.02,4.159-1.51.184-1.212-2.947-2.354-2.947-2.354" transform="translate(-22.665 -14.303)" fill="#1a1a1a"/>
        <path id="Trazado_152853" data-name="Trazado 152853" d="M44.011,89.437a2.263,2.263,0,1,1-2.262-2.262,2.262,2.262,0,0,1,2.262,2.262" transform="translate(-5.765 -12.729)" fill="#1a1a1a"/>
        <path id="Trazado_152854" data-name="Trazado 152854" d="M92.866,101.825A2.262,2.262,0,1,1,90.6,99.563a2.262,2.262,0,0,1,2.262,2.262" transform="translate(-12.899 -14.537)" fill="#1a1a1a"/>
        <rect id="Rect치ngulo_35126" data-name="Rect치ngulo 35126" width="11.003" height="11.003" transform="translate(105.625 37.536)" fill="#4adbd1"/>
        <path id="Trazado_152857" data-name="Trazado 152857" d="M154.367,100.754a.274.274,0,0,1-.265-.307c.027-.175.678-4.281,2.74-4.765,2-.47,7.179-3,7.729-5.554a.866.866,0,0,0-.251-.865,1.535,1.535,0,0,0-1.479-.217,56.822,56.822,0,0,0-5.6,2.913.243.243,0,0,1-.167.033c-.042,0-4.431-.526-6.383,1.587a.267.267,0,0,1-.392-.362c2-2.162,6.074-1.835,6.751-1.763a52.744,52.744,0,0,1,5.63-2.918,2.066,2.066,0,0,1,1.995.335,1.409,1.409,0,0,1,.412,1.369c-.641,2.984-6.39,5.553-8.128,5.962-1.423.335-2.167,3.237-2.334,4.326a.267.267,0,0,1-.263.227" transform="translate(-21.936 -12.911)" fill="#db5349"/>
        <path id="Trazado_152858" data-name="Trazado 152858" d="M153.728,91.749a.267.267,0,0,1-.14-.494c.714-.439,7-4.284,8.279-4.146a1.813,1.813,0,0,1,1.632,1.445.267.267,0,0,1-.526.087,1.28,1.28,0,0,0-1.164-1c-.808-.088-5.3,2.448-7.94,4.068a.273.273,0,0,1-.14.04" transform="translate(-22.407 -12.718)" fill="#db5349"/>
        <path id="Trazado_152859" data-name="Trazado 152859" d="M150.653,91.167a.267.267,0,0,1-.146-.489c.111-.073,2.722-1.786,3.342-2.119.3-.159.651-.367,1.036-.6,1.325-.785,2.974-1.76,4.184-1.822,1.656-.084,2,.974,2.012,1.019a.267.267,0,0,1-.512.148c-.009-.033-.234-.687-1.473-.635-1.078.056-2.732,1.034-3.939,1.749-.393.233-.752.446-1.056.608-.6.322-3.275,2.076-3.3,2.093a.264.264,0,0,1-.146.044" transform="translate(-21.958 -12.577)" fill="#db5349"/>
        <path id="Trazado_152860" data-name="Trazado 152860" d="M103.957,74.905c.213-.033.355.058.417.824.068.855-.154,1.006-.345,1s-.384-.272-.375-.882.024-.9.3-.94" transform="translate(-15.135 -10.936)"/>
        <path id="Trazado_152861" data-name="Trazado 152861" d="M112.506,74.987c.213-.028.354.067.395.835.046.857-.179,1-.371.988s-.377-.281-.352-.892.048-.895.328-.932" transform="translate(-16.379 -10.948)"/>
        <path id="Trazado_152863" data-name="Trazado 152863" d="M97.741,79.254a.267.267,0,0,1-.162-.478l1.6-1.232-1.787-1.322a.267.267,0,0,1,.317-.429l2.071,1.532a.269.269,0,0,1,.108.212.264.264,0,0,1-.1.214L97.9,79.2a.259.259,0,0,1-.162.056" transform="translate(-14.204 -11.059)" fill="#dc5349"/>
        <path id="Trazado_152865" data-name="Trazado 152865" d="M118.625,79.254a.259.259,0,0,1-.163-.056l-1.875-1.448a.264.264,0,0,1-.1-.213.269.269,0,0,1,.108-.212l2.072-1.532a.266.266,0,0,1,.316.429l-1.787,1.322,1.6,1.232a.267.267,0,0,1-.162.478" transform="translate(-17.008 -11.059)" fill="#dc5349"/>
        <path id="Trazado_152866" data-name="Trazado 152866" d="M140.032,139.589c-.284,0-.574-.011-.87-.034-4.577-.359-9.437-3.918-9.347-12.833a.267.267,0,0,1,.534,0c-.086,8.548,4.517,11.957,8.854,12.3,9.717.76,11.973-12.156,12.712-16.4,1.077-6.192,3.48-21.637,3.5-21.793a.267.267,0,0,1,.527.082c-.024.155-2.43,15.6-3.506,21.8-.737,4.236-2.937,16.877-12.408,16.877" transform="translate(-18.954 -14.689)"/>
        <path id="Trazado_152867" data-name="Trazado 152867" d="M133.36,122.559a.273.273,0,0,1-.266-.291,71.16,71.16,0,0,1,1.564-9.479,132.281,132.281,0,0,1,4.658-15.653.266.266,0,0,1,.5.192,131.966,131.966,0,0,0-4.636,15.582,71,71,0,0,0-1.551,9.407.267.267,0,0,1-.266.243" transform="translate(-19.433 -14.158)"/>
        <path id="Trazado_152868" data-name="Trazado 152868" d="M107.124,86.112a7.705,7.705,0,0,1-4.778-1.469,7.4,7.4,0,0,1-2.379-4.587,59.357,59.357,0,0,1-.318-7.375.267.267,0,0,1,.534.009,59.071,59.071,0,0,0,.307,7.262,6.912,6.912,0,0,0,2.188,4.273,7.179,7.179,0,0,0,4.446,1.352.267.267,0,0,1,0,.534" transform="translate(-14.549 -10.574)" fill="#dc5349"/>
        <path id="Trazado_152869" data-name="Trazado 152869" d="M108.357,86.3a.267.267,0,0,1,0-.534A7.176,7.176,0,0,0,112.8,84.41a6.912,6.912,0,0,0,2.188-4.273,43.524,43.524,0,0,0,.267-6.191.267.267,0,0,1,.534-.009,44.067,44.067,0,0,1-.278,6.3,7.4,7.4,0,0,1-2.379,4.587,7.7,7.7,0,0,1-4.777,1.469" transform="translate(-15.783 -10.757)" fill="#dc5349"/>
        <path id="Trazado_152874" data-name="Trazado 152874" d="M80.764,166.055a.274.274,0,0,1-.118-.027.266.266,0,0,1-.121-.357c1.343-2.726,6.541-29.857,4.827-37.634-1.747-7.93,1.058-15.826,1.087-15.906a.267.267,0,1,1,.5.182c-.028.078-2.781,7.834-1.068,15.609,1.731,7.85-3.513,35.233-4.869,37.983a.266.266,0,0,1-.239.149" transform="translate(-11.754 -16.347)"/>
        <path id="Trazado_152875" data-name="Trazado 152875" d="M134.79,166.055a.266.266,0,0,1-.239-.149c-1.355-2.748-6.6-30.129-4.869-37.983,1.713-7.781-1.04-15.531-1.068-15.609a.267.267,0,1,1,.5-.182c.029.079,2.834,7.975,1.087,15.906-1.714,7.781,3.484,34.909,4.828,37.634a.267.267,0,0,1-.121.357.274.274,0,0,1-.118.027" transform="translate(-18.777 -16.347)"/>
        <path id="Trazado_152876" data-name="Trazado 152876" d="M152.9,101.8a25.925,25.925,0,0,1-4.486-.427c-3.944-.714-7.215-2.116-7.956-3.409a1.025,1.025,0,0,1-.11-.891c.529-1.44,2.618-1.449,4.278-1.2a.266.266,0,0,1,.224.3.258.258,0,0,1-.3.225c-1.2-.177-3.272-.3-3.7.858a.512.512,0,0,0,.072.442c.646,1.129,3.91,2.483,7.589,3.15,4.736.853,8.25.3,8.438-.728.086-.477-.779-1.395-2.6-2.223a.267.267,0,0,1,.222-.486c1.521.694,3.082,1.8,2.9,2.8-.2,1.116-2.129,1.584-4.571,1.584" transform="translate(-20.484 -13.98)"/>
        <path id="Trazado_152877" data-name="Trazado 152877" d="M72.8,154.171a9.574,9.574,0,0,1-5.421-1.588c-4.042-2.7-5.61-8.162-6.185-11.182-.243-1.274-.535-3.061-.844-4.951-.272-1.654-.561-3.432-.862-5.132a.267.267,0,0,1,.525-.093c.3,1.7.592,3.483.863,5.139.308,1.886.6,3.67.841,4.937.559,2.938,2.077,8.252,5.957,10.838a9.839,9.839,0,0,0,7.743,1.213,7.75,7.75,0,0,0,6.29-6.829.262.262,0,0,1,.3-.226.266.266,0,0,1,.226.3,8.38,8.38,0,0,1-6.707,7.276,13.262,13.262,0,0,1-2.728.3" transform="translate(-8.686 -19.128)"/>
        <path id="Trazado_152878" data-name="Trazado 152878" d="M83.657,140.2a.267.267,0,0,1-.254-.185c-2.479-7.716-4.991-14.426-5.015-14.492a.266.266,0,1,1,.5-.187c.025.067,2.541,6.787,5.024,14.516a.265.265,0,0,1-.172.335.254.254,0,0,1-.082.014" transform="translate(-11.443 -18.275)"/>
        <path id="Trazado_152879" data-name="Trazado 152879" d="M62.517,131.512c-1.6,0-2.772-.342-3.019-1.157a.267.267,0,0,1,.511-.155c.3,1.005,3.855,1.151,8.466-.243,3.578-1.082,6.665-2.8,7.178-4a.507.507,0,0,0,.021-.447c-.528-1.046-2.211-.845-3.53-.492a.267.267,0,1,1-.137-.515c2.2-.591,3.59-.33,4.144.766a1.029,1.029,0,0,1-.007.9c-.578,1.349-3.739,3.156-7.515,4.3a22.631,22.631,0,0,1-6.11,1.045" transform="translate(-8.686 -18.134)"/>
        <path id="Trazado_152880" data-name="Trazado 152880" d="M59.749,131.017a.267.267,0,0,1-.255-.19c-.284-.937,1.194-2.426,2.728-3.35a.267.267,0,0,1,.275.458c-1.607.968-2.641,2.244-2.492,2.738a.267.267,0,0,1-.178.332.273.273,0,0,1-.078.012" transform="translate(-8.682 -18.608)"/>
        <path id="Trazado_152881" data-name="Trazado 152881" d="M101.806,73.623a.289.289,0,0,1-.091-.015.267.267,0,0,1-.159-.342c.478-1.315,2.306-1.694,3.385-1.452a.267.267,0,0,1,.2.319.264.264,0,0,1-.319.2c-.887-.2-2.412.135-2.768,1.114a.266.266,0,0,1-.25.175" transform="translate(-14.826 -10.476)"/>
        <path id="Trazado_152882" data-name="Trazado 152882" d="M108.607,83.661a4.116,4.116,0,0,1-1.162-.173.267.267,0,0,1,.165-.507,2.836,2.836,0,0,0,2.137-.155,1.933,1.933,0,0,0,.731-1.58A.264.264,0,0,1,110.76,81a.268.268,0,0,1,.25.283,2.437,2.437,0,0,1-.966,1.989,2.546,2.546,0,0,1-1.437.393" transform="translate(-15.661 -11.827)"/>
        <path id="Trazado_152883" data-name="Trazado 152883" d="M106.014,79.924a.262.262,0,0,1-.178-.068,2.807,2.807,0,0,1-.941-1.627,1.038,1.038,0,0,1,.3-.772,1.149,1.149,0,0,1,.841-.367,1.723,1.723,0,0,1,.907.307c.163-1.468.276-3.526-.02-3.977a.267.267,0,0,1,.446-.293c.535.813.132,4.148.046,4.809a.267.267,0,0,1-.454.153,1.563,1.563,0,0,0-.924-.466.629.629,0,0,0-.461.208.493.493,0,0,0-.151.38,2.306,2.306,0,0,0,.763,1.248.265.265,0,0,1,.02.376.261.261,0,0,1-.2.09" transform="translate(-15.316 -10.66)"/>
        <path id="Trazado_152884" data-name="Trazado 152884" d="M101.508,65.269a.269.269,0,0,1-.219-.112l-.859-1.213a.267.267,0,0,1,.436-.308l.859,1.212a.268.268,0,0,1-.062.372.275.275,0,0,1-.155.049" transform="translate(-14.657 -9.275)"/>
        <path id="Trazado_152891" data-name="Trazado 152891" d="M72.967,126.91a.266.266,0,0,1-.257-.2l-1.173-4.321a.266.266,0,0,1,.1-.283c.64-.483,1.66-5.822-.357-8.641-1.036-1.448-6.757-.411-10,1.412-1.408.792-2.073,1.581-1.824,2.163a3.1,3.1,0,0,0,2.02,1.766c1.835.582,4.518.035,6.837-1.395a.266.266,0,1,1,.28.453c-2.447,1.508-5.3,2.079-7.278,1.448a3.654,3.654,0,0,1-2.349-2.065c-.265-.618-.123-1.612,2.053-2.836,3.264-1.835,9.355-3.13,10.694-1.259,2.073,2.9,1.231,8.141.381,9.238l1.133,4.177a.266.266,0,0,1-.187.327.249.249,0,0,1-.07.01" transform="translate(-8.595 -16.389)" fill="#db5349"/>
        <path id="Trazado_152892" data-name="Trazado 152892" d="M65.437,121.954a5.261,5.261,0,0,1-1.1-.122,11.656,11.656,0,0,1-4.565-2.378,16.682,16.682,0,0,1-2.793-2.727A4.137,4.137,0,0,1,55.86,114a2.884,2.884,0,0,1,.232-.971,3.772,3.772,0,0,1,3.109-2.415,3.182,3.182,0,0,1,1.9.888l.174.135c.706.544,1.222.957,1.842,1.477a.266.266,0,0,1-.342.408c-.615-.513-1.126-.923-1.827-1.463l-.177-.137a2.727,2.727,0,0,0-1.582-.774,3.28,3.28,0,0,0-2.606,2.089,2.356,2.356,0,0,0-.191.793,3.515,3.515,0,0,0,1,2.366,16.081,16.081,0,0,0,2.7,2.641,11.165,11.165,0,0,0,4.353,2.278,3.936,3.936,0,0,0,2.158-.082,2.22,2.22,0,0,0,1.066-.763,2.016,2.016,0,0,0-.14-2.251l-.069-.108c-.044-.07-.064-.1-.147-.213a.267.267,0,0,1,.429-.317c.095.127.118.163.169.244l.068.107a2.458,2.458,0,0,1,.124,2.848,2.733,2.733,0,0,1-1.319.955,3.966,3.966,0,0,1-1.348.223" transform="translate(-8.156 -16.15)" fill="#db5349"/>
        <path id="Trazado_152893" data-name="Trazado 152893" d="M63.651,125.151q-.252,0-.515-.024a11.668,11.668,0,0,1-4.816-1.811,16.747,16.747,0,0,1-3.1-2.373,4.143,4.143,0,0,1-1.434-2.576,2.932,2.932,0,0,1,.114-.991,3.65,3.65,0,0,1,1.8-2.346.267.267,0,0,1,.237.478,3.131,3.131,0,0,0-1.528,2.014,2.4,2.4,0,0,0-.094.81,3.522,3.522,0,0,0,1.274,2.23,16.127,16.127,0,0,0,3,2.3,11.169,11.169,0,0,0,4.6,1.74,3.927,3.927,0,0,0,2.132-.34,2.223,2.223,0,0,0,.967-.886,1.35,1.35,0,0,0,.133-1.217.266.266,0,0,1,.5-.172,1.864,1.864,0,0,1-.168,1.644,2.737,2.737,0,0,1-1.2,1.107,4.243,4.243,0,0,1-1.907.418" transform="translate(-7.852 -16.791)" fill="#db5349"/>
        <path id="Trazado_152895" data-name="Trazado 152895" d="M75.562,120.135a.267.267,0,0,1-.266-.261c0-.121-.211-12.292,5.026-20.339C85.6,91.423,97.312,92.5,97.429,92.509a.267.267,0,0,1,.239.292.257.257,0,0,1-.292.238c-.112-.011-11.507-1.05-16.607,6.786-5.149,7.91-4.943,19.917-4.94,20.037a.267.267,0,0,1-.26.272Z" transform="translate(-10.994 -13.5)"/>
        <path id="Trazado_152896" data-name="Trazado 152896" d="M134.452,104.653a.266.266,0,0,1-.253-.184,31.689,31.689,0,0,0-2.42-4.659c-5.1-7.838-15.608-6.851-15.714-6.84a.267.267,0,0,1-.056-.53c.11-.012,10.938-1.032,16.219,7.084A31.346,31.346,0,0,1,134.7,104.3a.269.269,0,0,1-.253.35" transform="translate(-16.904 -13.491)"/>
        <path id="Trazado_152897" data-name="Trazado 152897" d="M41.813,91.383a1.88,1.88,0,1,1,1.88-1.88,1.883,1.883,0,0,1-1.88,1.88m0-3.227A1.347,1.347,0,1,0,43.16,89.5a1.348,1.348,0,0,0-1.347-1.347" transform="translate(-5.831 -12.794)" fill="#fff"/>
        <path id="Trazado_152898" data-name="Trazado 152898" d="M90.692,103.661a1.747,1.747,0,1,1,1.746-1.747,1.749,1.749,0,0,1-1.746,1.747m0-2.96a1.213,1.213,0,1,0,1.213,1.213,1.214,1.214,0,0,0-1.213-1.213" transform="translate(-12.987 -14.626)" fill="#fff"/>
        <path id="Trazado_152899" data-name="Trazado 152899" d="M48.339,108.805a3.7,3.7,0,0,1-2.548-1.041.267.267,0,1,1,.36-.394,3.172,3.172,0,0,0,2.188.9l.132,0a.272.272,0,0,1,.272.262.268.268,0,0,1-.262.272l-.138,0Zm2.748-.8a.267.267,0,0,1-.145-.49,7.139,7.139,0,0,0,1.875-1.886.267.267,0,1,1,.434.31,7.665,7.665,0,0,1-2.018,2.022.265.265,0,0,1-.145.044M44.4,105.569a.266.266,0,0,1-.24-.152,16.82,16.82,0,0,1-.97-2.65.267.267,0,1,1,.514-.145,16.19,16.19,0,0,0,.937,2.565.268.268,0,0,1-.126.356.279.279,0,0,1-.115.026m10.051-1.906a.275.275,0,0,1-.123-.03.267.267,0,0,1-.114-.36c.231-.447.454-.9.677-1.35.189-.383.376-.762.564-1.132a.27.27,0,0,1,.359-.117.267.267,0,0,1,.117.359c-.189.369-.375.746-.562,1.126-.224.453-.449.909-.681,1.36a.268.268,0,0,1-.237.144M42.83,100.25a.269.269,0,0,1-.263-.219c-.155-.864-.289-1.8-.4-2.77a.266.266,0,0,1,.235-.3.272.272,0,0,1,.3.235c.109.963.243,1.884.4,2.735a.269.269,0,0,1-.215.311.31.31,0,0,1-.048,0m-.64-5.526a.266.266,0,0,1-.266-.25c-.1-1.586-.1-2.686-.1-2.805a.267.267,0,1,1,.534,0c0,.119,0,1.2.1,2.772a.268.268,0,0,1-.249.283H42.19" transform="translate(-6.107 -13.346)"/>
        <path id="Trazado_152900" data-name="Trazado 152900" d="M80.316,117.959a4,4,0,0,1-2.208-.706.266.266,0,0,1,.291-.445,3.528,3.528,0,0,0,2.442.581.262.262,0,0,1,.3.226.265.265,0,0,1-.225.3,4.2,4.2,0,0,1-.6.043m2.974-1.291a.267.267,0,0,1-.185-.459,8.412,8.412,0,0,0,1.554-2.181.267.267,0,0,1,.473.247,8.984,8.984,0,0,1-1.657,2.318.269.269,0,0,1-.185.075m-7-1.313a.264.264,0,0,1-.213-.107,19.933,19.933,0,0,1-1.51-2.374.267.267,0,1,1,.467-.257,19.521,19.521,0,0,0,1.468,2.311.266.266,0,0,1-.053.372.262.262,0,0,1-.16.055m9.665-3.5a.269.269,0,0,1-.253-.35c.267-.81.512-1.7.725-2.658a.266.266,0,1,1,.52.116c-.218.97-.466,1.88-.74,2.708a.266.266,0,0,1-.253.184m-12.41-1.32a.268.268,0,0,1-.242-.153c-.39-.827-.773-1.682-1.149-2.537a.266.266,0,0,1,.136-.351.263.263,0,0,1,.351.136c.376.852.756,1.7,1.145,2.524a.268.268,0,0,1-.126.355.275.275,0,0,1-.114.026m13.648-4.1a.273.273,0,0,1-.263-.306c.238-1.6.311-2.739.312-2.751a.267.267,0,1,1,.532.033c0,.012-.074,1.168-.317,2.8a.267.267,0,0,1-.264.227m-15.916-.975a.268.268,0,0,1-.244-.159c-.456-1.025-.826-1.823-1.166-2.511a.266.266,0,0,1,.122-.357.269.269,0,0,1,.357.121c.342.694.715,1.5,1.174,2.53a.266.266,0,0,1-.136.352.256.256,0,0,1-.108.024M68.77,100.5a.267.267,0,0,1-.225-.125q-.2-.323-.411-.613a.267.267,0,0,1,.434-.311q.216.3.428.639a.268.268,0,0,1-.083.368.264.264,0,0,1-.143.042" transform="translate(-9.941 -14.506)"/>
        <path id="Trazado_152902" data-name="Trazado 152902" d="M189.4,34.552a1.563,1.563,0,1,1,1.564-1.564,1.565,1.565,0,0,1-1.564,1.564m0-2.594a1.03,1.03,0,1,0,1.03,1.03,1.031,1.031,0,0,0-1.03-1.03" transform="translate(-27.427 -4.589)"/>
        <path id="Trazado_152903" data-name="Trazado 152903" d="M182.516,34.552a1.563,1.563,0,1,1,1.563-1.564,1.565,1.565,0,0,1-1.563,1.564m0-2.594a1.03,1.03,0,1,0,1.029,1.03,1.031,1.031,0,0,0-1.029-1.03" transform="translate(-26.421 -4.589)"/>
        <path id="Trazado_152904" data-name="Trazado 152904" d="M175.629,34.552a1.563,1.563,0,1,1,1.564-1.564,1.565,1.565,0,0,1-1.564,1.564m0-2.594a1.03,1.03,0,1,0,1.03,1.03,1.03,1.03,0,0,0-1.03-1.03" transform="translate(-25.416 -4.589)"/>
        <path id="Trazado_152908" data-name="Trazado 152908" d="M130.87,71.727H123.7a.266.266,0,0,1-.266-.266V64.293a.266.266,0,0,1,.266-.266h7.168a.266.266,0,0,1,.266.266v7.168a.266.266,0,0,1-.266.266m-6.9-.533H130.6V64.56H123.97Z" transform="translate(-18.023 -9.349)" fill="#785549"/>
        <path id="Trazado_152909" data-name="Trazado 152909" d="M181.147,44.174H148.219a.266.266,0,1,1,0-.533h32.928a.266.266,0,1,1,0,.533" transform="translate(-21.603 -6.372)"/>
        <path id="Trazado_152910" data-name="Trazado 152910" d="M181.147,53.991H148.219a.266.266,0,1,1,0-.533h32.928a.266.266,0,1,1,0,.533" transform="translate(-21.603 -7.806)"/>
        <path id="Trazado_152911" data-name="Trazado 152911" d="M181.147,63.808H148.219a.266.266,0,1,1,0-.533h32.928a.266.266,0,1,1,0,.533" transform="translate(-21.603 -9.239)"/>
        <path id="Trazado_152914" data-name="Trazado 152914" d="M102.079,92.8a.269.269,0,0,1-.111-.025c-1.853-.851-2.959-2.283-2.959-3.832,0-.9.523-2.172,3.009-3.068a.267.267,0,0,1,.18.5c-1.762.635-2.655,1.5-2.655,2.565,0,1.335.99,2.587,2.647,3.348a.267.267,0,0,1-.111.509" transform="translate(-14.457 -12.536)"/>
        <path id="Trazado_152915" data-name="Trazado 152915" d="M108.255,93.724A17.5,17.5,0,0,1,106.1,93.6a.268.268,0,0,1-.231-.3.257.257,0,0,1,.3-.231,16.931,16.931,0,0,0,2.091.122c5.009,0,7.712-2.2,7.712-4.261,0-1.073-1.02-2.015-2.874-2.65a.266.266,0,0,1,.173-.5c2.085.715,3.234,1.835,3.234,3.154,0,2.325-2.89,4.8-8.245,4.8" transform="translate(-15.457 -12.522)"/>
        <path id="Trazado_152916" data-name="Trazado 152916" d="M101.013,96.958a.272.272,0,0,1-.266-.287,9.379,9.379,0,0,0-.313-4.167.268.268,0,0,1,.126-.355.264.264,0,0,1,.354.123c.025.05.6,1.272.365,4.439a.268.268,0,0,1-.266.247" transform="translate(-14.661 -13.451)"/>
        <path id="Trazado_152917" data-name="Trazado 152917" d="M115.982,96.964a.266.266,0,0,1-.266-.247c-.239-3.169.34-4.36.365-4.409a.266.266,0,0,1,.477.238,9.2,9.2,0,0,0-.309,4.131.269.269,0,0,1-.247.286h-.02" transform="translate(-16.888 -13.457)"/>
        <path id="Trazado_152918" data-name="Trazado 152918" d="M87.612,83.462H76.463a.267.267,0,0,1,0-.534H87.612a.267.267,0,0,1,0,.534" transform="translate(-11.126 -12.108)"/>
        <path id="Trazado_152919" data-name="Trazado 152919" d="M88.629,86.819h-5.2a.267.267,0,0,1,0-.534h5.2a.267.267,0,0,1,0,.534" transform="translate(-12.143 -12.599)"/>
        <path id="Trazado_152920" data-name="Trazado 152920" d="M80.888,86.819h-2.98a.267.267,0,1,1,0-.534h2.98a.267.267,0,0,1,0,.534" transform="translate(-11.337 -12.599)"/>
        <path id="Trazado_152921" data-name="Trazado 152921" d="M84.1,42.853a13.6,13.6,0,1,1-13.6-13.6,13.605,13.605,0,0,1,13.6,13.6" transform="translate(-8.308 -4.271)" fill="#ffca28"/>
        <path id="Trazado_152922" data-name="Trazado 152922" d="M71.759,62.884V68.23s.473,2.663,3.958,2.663,4.231-2.38,4.231-2.38l.167-5.625a12.264,12.264,0,0,1-8.355,0" transform="translate(-10.478 -9.182)" fill="#1a1a1a"/>
        <path id="Trazado_152923" data-name="Trazado 152923" d="M76.685,71.115H75.078a3.634,3.634,0,0,1-3.631-3.629v-4.4c0-.091,0-.178.01-.267a.269.269,0,0,1,.118-.2.264.264,0,0,1,.23-.032,13.43,13.43,0,0,0,8.154.009.269.269,0,0,1,.228.032.266.266,0,0,1,.119.2c.009.086.012.173.012.26v4.4a3.635,3.635,0,0,1-3.632,3.629m-4.7-7.914v4.285a3.1,3.1,0,0,0,3.1,3.1h1.607a3.1,3.1,0,0,0,3.1-3.1V63.21a13.975,13.975,0,0,1-7.8-.009" transform="translate(-10.432 -9.137)"/>
        <path id="Trazado_152924" data-name="Trazado 152924" d="M74.285,59.222a13.863,13.863,0,1,1,4.225-.657,13.79,13.79,0,0,1-4.225.657m0-27.21A13.34,13.34,0,1,0,87.622,45.35,13.355,13.355,0,0,0,74.285,32.012" transform="translate(-8.821 -4.596)"/>
        <path id="Trazado_152925" data-name="Trazado 152925" d="M66.951,53.289c-.149,0-.293,0-.427-.009a.267.267,0,0,1,.012-.533,3.928,3.928,0,0,0,2.727-.657,2.942,2.942,0,0,0,.443-.488,4.2,4.2,0,0,1-.887-.851,4.056,4.056,0,0,1-.793-3c.049-.366.384-1.816,1.132-2.225a.845.845,0,0,1,.793-.02c.51.238.7.938.833,1.4l.029.1a6.221,6.221,0,0,1,.234,1.744,6.136,6.136,0,0,1-.61,2.68,8.926,8.926,0,0,0,4.477.791,8.66,8.66,0,0,0,2.828-.486,4.663,4.663,0,0,0,2.25-1.711c-.055-.028-.108-.056-.161-.086a2.721,2.721,0,0,1-1.451-1.951,2.531,2.531,0,0,1,.25-1.382,1.711,1.711,0,0,1,.974-.956.96.96,0,0,1,.886.126c.671.5.7,1.851.7,2.116a4.33,4.33,0,0,1-.44,1.89,12.744,12.744,0,0,0,4.469.563.266.266,0,1,1,0,.532,12.9,12.9,0,0,1-4.734-.627,5.165,5.165,0,0,1-2.556,1.985,9.148,9.148,0,0,1-3,.52,9.384,9.384,0,0,1-4.769-.868,3.454,3.454,0,0,1-.545.605,4,4,0,0,1-2.662.8m2.617-7.34a.316.316,0,0,0-.155.044,3.05,3.05,0,0,0-.859,1.828,3.515,3.515,0,0,0,.687,2.6,3.677,3.677,0,0,0,.744.72,5.616,5.616,0,0,0,.527-2.4,5.689,5.689,0,0,0-.213-1.594l-.03-.105c-.1-.347-.257-.926-.546-1.061a.356.356,0,0,0-.155-.038m10.374.18a.6.6,0,0,0-.182.031,1.239,1.239,0,0,0-.651.674,2,2,0,0,0-.2,1.089,2.193,2.193,0,0,0,1.183,1.551c.055.032.113.061.17.091a3.779,3.779,0,0,0,.395-1.673,2.424,2.424,0,0,0-.482-1.687.364.364,0,0,0-.229-.075" transform="translate(-9.676 -6.631)"/>
        <path id="Trazado_152926" data-name="Trazado 152926" d="M67.274,27.1a.266.266,0,0,1-.249-.173L61.318,11.694a.266.266,0,1,1,.5-.187L67.523,26.74a.265.265,0,0,1-.156.342.256.256,0,0,1-.093.017" transform="translate(-8.951 -1.655)"/>
        <path id="Trazado_152927" data-name="Trazado 152927" d="M42.969,81.981a.266.266,0,0,1-.19-.454L59.785,64.338a.267.267,0,1,1,.379.376L43.159,81.9a.268.268,0,0,1-.19.079" transform="translate(-6.235 -9.383)"/>
        <path id="Trazado_152928" data-name="Trazado 152928" d="M95.405,39.506a.266.266,0,0,1-.132-.5L105.6,33.091a.267.267,0,0,1,.266.463L95.538,39.471a.265.265,0,0,1-.132.035" transform="translate(-13.891 -4.827)"/>
        <path id="Trazado_152929" data-name="Trazado 152929" d="M51.72,52.248H44.671a.266.266,0,0,1,0-.533H51.72a.266.266,0,1,1,0,.533" transform="translate(-6.484 -7.551)"/>
        <path id="Trazado_152930" data-name="Trazado 152930" d="M130.775,8.713a4.357,4.357,0,1,1,4.357-4.356,4.362,4.362,0,0,1-4.357,4.356m0-8.18A3.824,3.824,0,1,0,134.6,4.357,3.828,3.828,0,0,0,130.775.533" transform="translate(-18.459)"/>
        <path id="Trazado_152931" data-name="Trazado 152931" d="M4.357,82.075a4.357,4.357,0,1,1,4.357-4.357,4.362,4.362,0,0,1-4.357,4.357m0-8.18a3.824,3.824,0,1,0,3.824,3.823,3.827,3.827,0,0,0-3.824-3.823" transform="translate(0 -10.712)"/>
        <path id="Trazado_152932" data-name="Trazado 152932" d="M159.966,21.594a.267.267,0,0,1-.227-.126c-.531-.863-1.108-1.706-1.718-2.508a.266.266,0,1,1,.424-.323c.62.816,1.208,1.674,1.749,2.552a.266.266,0,0,1-.227.406m-3.709-4.874a.264.264,0,0,1-.195-.085c-.687-.737-1.42-1.45-2.178-2.119a.266.266,0,1,1,.352-.4c.771.68,1.517,1.4,2.216,2.155a.267.267,0,0,1-.2.448m-4.588-4.053a.266.266,0,0,1-.156-.05c-.811-.588-1.666-1.149-2.54-1.67a.266.266,0,0,1,.272-.458c.888.529,1.757,1.1,2.582,1.7a.266.266,0,0,1-.157.482m-5.258-3.135A.258.258,0,0,1,146.3,9.5c-.9-.435-1.837-.845-2.787-1.217a.266.266,0,1,1,.193-.5c.965.377,1.915.793,2.827,1.234a.266.266,0,0,1-.116.506m-5.7-2.237a.264.264,0,0,1-.079-.012c-.948-.294-1.936-.565-2.937-.805a.267.267,0,1,1,.125-.518c1.012.243,2.011.517,2.971.815a.267.267,0,0,1-.079.521" transform="translate(-20.075 -0.869)"/>
        <path id="Trazado_152933" data-name="Trazado 152933" d="M82.449,25.866a.267.267,0,0,1-.241-.38,25.594,25.594,0,0,1,1.552-2.7.267.267,0,0,1,.449.289,25.979,25.979,0,0,0-1.519,2.639.265.265,0,0,1-.241.154m3.3-5.189a.266.266,0,0,1-.213-.427c.62-.818,1.278-1.623,1.956-2.393a.267.267,0,1,1,.4.353c-.67.759-1.319,1.554-1.931,2.362a.266.266,0,0,1-.213.105M89.8,16.07a.266.266,0,0,1-.187-.457c.734-.721,1.5-1.421,2.283-2.081a.266.266,0,1,1,.343.406c-.769.652-1.528,1.343-2.253,2.056a.265.265,0,0,1-.186.076m4.684-3.957a.267.267,0,0,1-.156-.483c.834-.6,1.7-1.178,2.573-1.709a.266.266,0,1,1,.277.455c-.862.524-1.716,1.091-2.538,1.685a.257.257,0,0,1-.155.051M99.72,8.928a.267.267,0,0,1-.12-.5c.915-.461,1.863-.89,2.812-1.275a.266.266,0,1,1,.2.494c-.936.38-1.869.8-2.772,1.257a.262.262,0,0,1-.12.029m5.676-2.3a.267.267,0,0,1-.08-.521c.975-.307,1.978-.578,2.98-.807a.264.264,0,0,1,.319.2.268.268,0,0,1-.2.319c-.987.226-1.975.494-2.937.8a.29.29,0,0,1-.08.012m5.969-1.371a.267.267,0,0,1-.038-.53c1-.15,2.034-.266,3.064-.342a.264.264,0,0,1,.286.245.267.267,0,0,1-.246.286c-1.017.077-2.035.19-3.027.338a.2.2,0,0,1-.039,0m7.382-.452c-.348-.008-.687-.012-1.023-.012h-.249a.243.243,0,0,1-.269-.265.268.268,0,0,1,.266-.268h.253q.51,0,1.029.012a.266.266,0,0,1-.006.533" transform="translate(-12 -0.622)"/>
        <path id="Trazado_152934" data-name="Trazado 152934" d="M21.719,115.354a.273.273,0,0,1-.149-.045c-.846-.568-1.683-1.185-2.487-1.836a.266.266,0,1,1,.336-.413c.79.64,1.614,1.248,2.448,1.805a.267.267,0,0,1-.149.489M16.952,111.5a.265.265,0,0,1-.185-.075c-.737-.71-1.454-1.462-2.132-2.234a.267.267,0,1,1,.4-.352c.668.762,1.374,1.5,2.1,2.2a.267.267,0,0,1-.185.459M12.913,106.9a.265.265,0,0,1-.214-.108c-.611-.828-1.193-1.691-1.728-2.562a.266.266,0,0,1,.453-.278c.529.857,1.1,1.707,1.7,2.524a.267.267,0,0,1-.214.425M9.7,101.675a.267.267,0,0,1-.238-.147c-.457-.905-.888-1.851-1.282-2.81a.266.266,0,1,1,.493-.2c.389.945.814,1.877,1.266,2.771a.267.267,0,0,1-.119.358.262.262,0,0,1-.12.029M7.369,96.006a.269.269,0,0,1-.254-.184c-.315-.966-.6-1.963-.857-2.965a.266.266,0,0,1,.194-.324.263.263,0,0,1,.323.194c.25.989.535,1.974.847,2.929a.268.268,0,0,1-.171.336.251.251,0,0,1-.083.013m-1.5-5.945a.267.267,0,0,1-.262-.219c-.183-1.006-.335-2.032-.453-3.052a.267.267,0,0,1,.53-.061c.115,1.008.266,2.023.447,3.017a.267.267,0,0,1-.215.31.221.221,0,0,1-.048,0" transform="translate(-0.752 -12.629)"/>
        <path id="Trazado_152935" data-name="Trazado 152935" d="M5.8,66.706a.279.279,0,0,1-.045,0,.266.266,0,0,1-.218-.307c.175-1.02.387-2.036.63-3.021a.267.267,0,1,1,.518.127c-.241.974-.451,1.977-.623,2.984a.268.268,0,0,1-.263.222M7.28,60.755a.29.29,0,0,1-.085-.013.268.268,0,0,1-.169-.337c.325-.985.692-1.956,1.089-2.891a.266.266,0,1,1,.49.208c-.39.921-.752,1.88-1.073,2.85a.268.268,0,0,1-.253.183m2.4-5.639a.272.272,0,0,1-.125-.031.267.267,0,0,1-.11-.36c.488-.917,1.018-1.812,1.576-2.659a.267.267,0,0,1,.446.293c-.549.833-1.071,1.714-1.551,2.617a.267.267,0,0,1-.236.141M13.052,50a.26.26,0,0,1-.167-.059.266.266,0,0,1-.04-.375,29.831,29.831,0,0,1,2.068-2.3.266.266,0,1,1,.377.376,29.625,29.625,0,0,0-2.031,2.261.264.264,0,0,1-.207.1M17.38,45.67a.266.266,0,0,1-.168-.473,28.993,28.993,0,0,1,2.506-1.814.266.266,0,0,1,.289.447,28.541,28.541,0,0,0-2.459,1.781.264.264,0,0,1-.167.059m5.135-3.328a.267.267,0,0,1-.121-.5c.9-.459,1.84-.892,2.81-1.286a.266.266,0,1,1,.2.494c-.954.388-1.885.814-2.766,1.267a.273.273,0,0,1-.122.029m5.673-2.319a.266.266,0,0,1-.081-.52c.949-.3,1.947-.585,2.97-.838a.266.266,0,1,1,.128.517c-1.01.251-2,.529-2.936.828a.272.272,0,0,1-.081.013m5.953-1.488a.266.266,0,0,1-.05-.528c.966-.184,1.988-.354,3.039-.506a.267.267,0,0,1,.076.528c-1.043.15-2.058.319-3.015.5a.248.248,0,0,1-.05,0m6.071-.884a.267.267,0,0,1-.028-.532q1.529-.164,3.062-.284a.255.255,0,0,1,.288.244.268.268,0,0,1-.244.287q-1.527.122-3.05.284l-.028,0m6.117-.5a.266.266,0,0,1-.015-.532q1.538-.095,3.064-.167a.249.249,0,0,1,.28.254.266.266,0,0,1-.253.278q-1.523.074-3.06.167h-.016" transform="translate(-0.808 -5.323)"/>
      </g>
    </g>
  </g>
</svg>
