<svg xmlns="http://www.w3.org/2000/svg" xmlns:xlink="http://www.w3.org/1999/xlink" width="819.572" height="447.833" viewBox="0 0 819.572 447.833">
  <defs>
    <clipPath id="clip-path">
      <rect id="Rectángulo_352591" data-name="Rectángulo 352591" width="819.572" height="447.833" fill="none"/>
    </clipPath>
  </defs>
  <g id="Grupo_1018679" data-name="Grupo 1018679" transform="translate(-390.428 -857.227)">
    <path id="Trazado_732061" data-name="Trazado 732061" d="M346.744,253.6h28.9V388.455H3.187v89.9h801.42v-89.9h-368.6V253.6H461.05l-55.226-78.344Z" transform="translate(389.873 826.701)" fill="#12263f"/>
    <path id="Trazado_732882" data-name="Trazado 732882" d="M0,0H33.392V66.785H0Z" transform="translate(393.06 1138.097)" fill="#034867"/>
    <path id="Trazado_732883" data-name="Trazado 732883" d="M0,0H33.392V101.462H0Z" transform="translate(441.865 1103.42)" fill="#0c6188"/>
    <path id="Trazado_732884" data-name="Trazado 732884" d="M0,0H33.392V138.707H0Z" transform="translate(490.669 1066.174)" fill="#1b7fad"/>
    <path id="Trazado_732885" data-name="Trazado 732885" d="M0,0H33.392V177.237H0Z" transform="translate(539.474 1027.645)" fill="#219cd5"/>
    <path id="Trazado_732886" data-name="Trazado 732886" d="M0,0H33.392V217.052H0Z" transform="translate(588.278 987.83)" fill="#4adbd1"/>
    <path id="Trazado_732887" data-name="Trazado 732887" d="M0,0H33.392V258.15H0Z" transform="translate(637.082 946.732)" fill="#6f88da"/>
    <path id="Trazado_732888" data-name="Trazado 732888" d="M0,0H33.392V294.111H0Z" transform="translate(685.887 910.771)" fill="#12263f"/>
    <path id="Trazado_732889" data-name="Trazado 732889" d="M0,0H33.392V66.785H0Z" transform="translate(1161.087 1138.097)" fill="#034867"/>
    <path id="Trazado_732890" data-name="Trazado 732890" d="M0,0H33.392V101.462H0Z" transform="translate(1112.283 1103.42)" fill="#0c6188"/>
    <path id="Trazado_732891" data-name="Trazado 732891" d="M0,0H33.392V138.707H0Z" transform="translate(1063.479 1066.174)" fill="#1b7fad"/>
    <path id="Trazado_732892" data-name="Trazado 732892" d="M0,0H33.392V177.237H0Z" transform="translate(1014.674 1027.645)" fill="#219cd5"/>
    <path id="Trazado_732893" data-name="Trazado 732893" d="M0,0H33.392V217.052H0Z" transform="translate(965.87 987.83)" fill="#4adbd1"/>
    <path id="Trazado_732894" data-name="Trazado 732894" d="M0,0H33.392V258.15H0Z" transform="translate(917.065 946.732)" fill="#6f88da"/>
    <path id="Trazado_732895" data-name="Trazado 732895" d="M0,0H33.392V294.111H0Z" transform="translate(868.261 910.771)" fill="#12263f"/>
    <path id="Trazado_732896" data-name="Trazado 732896" d="M17.527-2.516A7.119,7.119,0,0,1,14.4-.458,13.111,13.111,0,0,1,9.912.273,8.883,8.883,0,0,1,5.38-.854,7.523,7.523,0,0,1,2.372-4.129,11.524,11.524,0,0,1,1.285-9.174v-1.354a12.239,12.239,0,0,1,1-5.161,7.434,7.434,0,0,1,2.9-3.336A8.349,8.349,0,0,1,9.625-20.18a8.314,8.314,0,0,1,5.537,1.688,7.216,7.216,0,0,1,2.365,4.915H13.535a3.969,3.969,0,0,0-1.21-2.5,3.864,3.864,0,0,0-2.577-.793A3.637,3.637,0,0,0,6.563-15.3a8.267,8.267,0,0,0-1.107,4.676v1.271a7.87,7.87,0,0,0,1.189,4.73,4.073,4.073,0,0,0,3.486,1.6,4.55,4.55,0,0,0,3.295-.984V-7.437H9.693v-3.021h7.834ZM29.162,0a4.388,4.388,0,0,1-.4-1.326,4.781,4.781,0,0,1-3.732,1.6,5.252,5.252,0,0,1-3.6-1.258A4.045,4.045,0,0,1,20-4.156a4.18,4.18,0,0,1,1.743-3.609,8.6,8.6,0,0,1,5.038-1.271H28.6v-.848a2.438,2.438,0,0,0-.526-1.641,2.071,2.071,0,0,0-1.661-.615,2.354,2.354,0,0,0-1.565.479,1.626,1.626,0,0,0-.567,1.313H20.33a3.969,3.969,0,0,1,.793-2.379,5.242,5.242,0,0,1,2.242-1.716,8.172,8.172,0,0,1,3.254-.622,6.456,6.456,0,0,1,4.341,1.374A4.807,4.807,0,0,1,32.566-9.83v6.412a7.072,7.072,0,0,0,.588,3.186V0ZM25.895-2.748a3.4,3.4,0,0,0,1.613-.39A2.559,2.559,0,0,0,28.6-4.184V-6.727H27.125q-2.967,0-3.158,2.051l-.014.232a1.582,1.582,0,0,0,.52,1.217A2.018,2.018,0,0,0,25.895-2.748Zm18.02-8.34a10.735,10.735,0,0,0-1.422-.109A2.894,2.894,0,0,0,39.553-9.68V0H35.6V-14.793h3.732l.109,1.764a3.661,3.661,0,0,1,3.295-2.037,4.14,4.14,0,0,1,1.23.178ZM53.977,0a4.388,4.388,0,0,1-.4-1.326,4.781,4.781,0,0,1-3.732,1.6,5.252,5.252,0,0,1-3.6-1.258,4.045,4.045,0,0,1-1.429-3.172A4.18,4.18,0,0,1,46.56-7.766,8.6,8.6,0,0,1,51.6-9.037h1.818v-.848a2.438,2.438,0,0,0-.526-1.641,2.071,2.071,0,0,0-1.661-.615,2.354,2.354,0,0,0-1.565.479A1.626,1.626,0,0,0,49.1-10.35H45.145a3.969,3.969,0,0,1,.793-2.379,5.242,5.242,0,0,1,2.242-1.716,8.172,8.172,0,0,1,3.254-.622,6.456,6.456,0,0,1,4.341,1.374A4.807,4.807,0,0,1,57.381-9.83v6.412a7.072,7.072,0,0,0,.588,3.186V0ZM50.709-2.748a3.4,3.4,0,0,0,1.613-.39,2.559,2.559,0,0,0,1.094-1.046V-6.727H51.939q-2.967,0-3.158,2.051l-.014.232a1.582,1.582,0,0,0,.52,1.217A2.018,2.018,0,0,0,50.709-2.748ZM64.053-14.793l.123,1.709a5.165,5.165,0,0,1,4.252-1.982,4.292,4.292,0,0,1,3.5,1.381A6.443,6.443,0,0,1,73.1-9.557V0H69.152V-9.461a2.563,2.563,0,0,0-.547-1.825,2.448,2.448,0,0,0-1.818-.567,2.718,2.718,0,0,0-2.5,1.422V0H60.334V-14.793ZM80.828-18.43v3.637h2.529v2.9H80.828v7.383a1.763,1.763,0,0,0,.314,1.176,1.579,1.579,0,0,0,1.2.355,6.3,6.3,0,0,0,1.162-.1V-.082a8.134,8.134,0,0,1-2.393.355q-4.156,0-4.238-4.2v-7.971h-2.16v-2.9h2.16V-18.43ZM89.729,0H85.764V-14.793h3.965Zm-4.2-18.621a1.946,1.946,0,0,1,.595-1.463,2.234,2.234,0,0,1,1.62-.574,2.239,2.239,0,0,1,1.613.574,1.935,1.935,0,0,1,.6,1.463,1.94,1.94,0,0,1-.608,1.477,2.245,2.245,0,0,1-1.606.574,2.245,2.245,0,0,1-1.606-.574A1.94,1.94,0,0,1,85.531-18.621ZM97.521-3.186h7.232V0H92.477V-2.406l6.959-9.2H92.682v-3.186h11.854v2.328ZM115.8,0a4.388,4.388,0,0,1-.4-1.326,4.781,4.781,0,0,1-3.732,1.6,5.252,5.252,0,0,1-3.6-1.258,4.045,4.045,0,0,1-1.429-3.172,4.18,4.18,0,0,1,1.743-3.609,8.6,8.6,0,0,1,5.038-1.271h1.818v-.848a2.438,2.438,0,0,0-.526-1.641,2.071,2.071,0,0,0-1.661-.615,2.354,2.354,0,0,0-1.565.479,1.626,1.626,0,0,0-.567,1.313h-3.951a3.969,3.969,0,0,1,.793-2.379A5.242,5.242,0,0,1,110-14.444a8.172,8.172,0,0,1,3.254-.622,6.456,6.456,0,0,1,4.341,1.374,4.807,4.807,0,0,1,1.606,3.862v6.412a7.072,7.072,0,0,0,.588,3.186V0Zm-3.268-2.748a3.4,3.4,0,0,0,1.613-.39,2.559,2.559,0,0,0,1.094-1.046V-6.727h-1.477q-2.967,0-3.158,2.051l-.014.232a1.582,1.582,0,0,0,.52,1.217A2.018,2.018,0,0,0,112.533-2.748Zm18.02-8.34a10.735,10.735,0,0,0-1.422-.109,2.894,2.894,0,0,0-2.939,1.518V0H122.24V-14.793h3.732l.109,1.764a3.661,3.661,0,0,1,3.295-2.037,4.14,4.14,0,0,1,1.23.178Zm15.025,8.176a2.591,2.591,0,0,0,1.777-.6,2.108,2.108,0,0,0,.711-1.6h3.705a5.068,5.068,0,0,1-.82,2.755,5.413,5.413,0,0,1-2.208,1.941,6.91,6.91,0,0,1-3.1.69,6.422,6.422,0,0,1-5-2.017,7.98,7.98,0,0,1-1.832-5.571v-.26a7.889,7.889,0,0,1,1.818-5.455,6.347,6.347,0,0,1,4.99-2.037,6.222,6.222,0,0,1,4.45,1.579,5.591,5.591,0,0,1,1.7,4.2h-3.705a2.715,2.715,0,0,0-.711-1.876,2.37,2.37,0,0,0-1.8-.722,2.38,2.38,0,0,0-2.085,1.006,5.832,5.832,0,0,0-.7,3.266V-7.2a5.907,5.907,0,0,0,.7,3.286A2.41,2.41,0,0,0,145.578-2.912Zm7.834-4.621a8.773,8.773,0,0,1,.848-3.924,6.205,6.205,0,0,1,2.44-2.666,7.12,7.12,0,0,1,3.7-.943,6.736,6.736,0,0,1,4.888,1.832A7.353,7.353,0,0,1,167.4-8.258l.027,1.012a7.732,7.732,0,0,1-1.9,5.462,6.606,6.606,0,0,1-5.1,2.058,6.639,6.639,0,0,1-5.106-2.051,7.868,7.868,0,0,1-1.907-5.578Zm3.951.28a5.53,5.53,0,0,0,.793,3.225,2.616,2.616,0,0,0,2.27,1.116,2.622,2.622,0,0,0,2.242-1.1,6.051,6.051,0,0,0,.807-3.526,5.474,5.474,0,0,0-.807-3.2,2.622,2.622,0,0,0-2.27-1.136,2.579,2.579,0,0,0-2.242,1.13A6.153,6.153,0,0,0,157.363-7.253Zm16.133-7.54.123,1.709a5.165,5.165,0,0,1,4.252-1.982,4.292,4.292,0,0,1,3.5,1.381,6.443,6.443,0,0,1,1.176,4.129V0H178.6V-9.461a2.563,2.563,0,0,0-.547-1.825,2.448,2.448,0,0,0-1.818-.567,2.718,2.718,0,0,0-2.5,1.422V0h-3.951V-14.793Zm11.43,7.287a8.915,8.915,0,0,1,1.552-5.51,5.035,5.035,0,0,1,4.245-2.051,4.531,4.531,0,0,1,3.568,1.613V-21h3.965V0h-3.568L194.5-1.572A4.65,4.65,0,0,1,190.7.273a5.021,5.021,0,0,1-4.19-2.058A9.2,9.2,0,0,1,184.926-7.506Zm3.951.294a5.84,5.84,0,0,0,.725,3.19,2.36,2.36,0,0,0,2.105,1.109,2.644,2.644,0,0,0,2.584-1.547v-5.847a2.606,2.606,0,0,0-2.557-1.547Q188.877-11.854,188.877-7.212ZM205.488,0h-3.965V-14.793h3.965Zm-4.2-18.621a1.946,1.946,0,0,1,.595-1.463,2.234,2.234,0,0,1,1.62-.574,2.239,2.239,0,0,1,1.613.574,1.934,1.934,0,0,1,.6,1.463,1.94,1.94,0,0,1-.608,1.477,2.245,2.245,0,0,1-1.606.574,2.245,2.245,0,0,1-1.606-.574A1.94,1.94,0,0,1,201.291-18.621Zm13.6,15.709a2.591,2.591,0,0,0,1.777-.6,2.108,2.108,0,0,0,.711-1.6h3.705a5.068,5.068,0,0,1-.82,2.755A5.413,5.413,0,0,1,218.06-.417a6.91,6.91,0,0,1-3.1.69,6.422,6.422,0,0,1-5-2.017,7.98,7.98,0,0,1-1.832-5.571v-.26a7.889,7.889,0,0,1,1.818-5.455,6.347,6.347,0,0,1,4.99-2.037,6.222,6.222,0,0,1,4.45,1.579,5.591,5.591,0,0,1,1.7,4.2h-3.705a2.715,2.715,0,0,0-.711-1.876,2.37,2.37,0,0,0-1.8-.722,2.38,2.38,0,0,0-2.085,1.006,5.832,5.832,0,0,0-.7,3.266V-7.2a5.907,5.907,0,0,0,.7,3.286A2.41,2.41,0,0,0,214.895-2.912ZM227.514,0h-3.965V-14.793h3.965Zm-4.2-18.621a1.946,1.946,0,0,1,.595-1.463,2.234,2.234,0,0,1,1.62-.574,2.239,2.239,0,0,1,1.613.574,1.934,1.934,0,0,1,.6,1.463,1.94,1.94,0,0,1-.608,1.477,2.245,2.245,0,0,1-1.606.574,2.245,2.245,0,0,1-1.606-.574A1.94,1.94,0,0,1,223.316-18.621Zm6.836,11.088A8.773,8.773,0,0,1,231-11.457a6.205,6.205,0,0,1,2.44-2.666,7.12,7.12,0,0,1,3.7-.943,6.736,6.736,0,0,1,4.888,1.832,7.353,7.353,0,0,1,2.112,4.977l.027,1.012a7.732,7.732,0,0,1-1.9,5.462,6.606,6.606,0,0,1-5.1,2.058,6.639,6.639,0,0,1-5.106-2.051,7.868,7.868,0,0,1-1.907-5.578Zm3.951.28a5.53,5.53,0,0,0,.793,3.225,2.616,2.616,0,0,0,2.27,1.116,2.622,2.622,0,0,0,2.242-1.1,6.051,6.051,0,0,0,.807-3.526,5.474,5.474,0,0,0-.807-3.2,2.622,2.622,0,0,0-2.27-1.136,2.579,2.579,0,0,0-2.242,1.13A6.153,6.153,0,0,0,234.1-7.253Zm16.133-7.54.123,1.709a5.165,5.165,0,0,1,4.252-1.982,4.292,4.292,0,0,1,3.5,1.381,6.443,6.443,0,0,1,1.176,4.129V0h-3.951V-9.461a2.563,2.563,0,0,0-.547-1.825,2.448,2.448,0,0,0-1.818-.567,2.718,2.718,0,0,0-2.5,1.422V0h-3.951V-14.793ZM269.09.273a7.262,7.262,0,0,1-5.3-2,7.1,7.1,0,0,1-2.044-5.318v-.383a8.936,8.936,0,0,1,.861-3.985,6.321,6.321,0,0,1,2.44-2.707,6.85,6.85,0,0,1,3.6-.95,6.139,6.139,0,0,1,4.778,1.914,7.778,7.778,0,0,1,1.743,5.428v1.613h-9.42a3.67,3.67,0,0,0,1.155,2.324,3.492,3.492,0,0,0,2.44.875,4.265,4.265,0,0,0,3.568-1.654l1.941,2.174a5.931,5.931,0,0,1-2.406,1.962A7.9,7.9,0,0,1,269.09.273Zm-.451-12.154a2.469,2.469,0,0,0-1.907.8,4.124,4.124,0,0,0-.937,2.28h5.5v-.316a2.942,2.942,0,0,0-.711-2.039A2.547,2.547,0,0,0,268.639-11.881Zm16.789,7.793a1.273,1.273,0,0,0-.718-1.142,8.153,8.153,0,0,0-2.3-.745q-5.277-1.107-5.277-4.484a4.065,4.065,0,0,1,1.634-3.288,6.591,6.591,0,0,1,4.272-1.319,7.093,7.093,0,0,1,4.5,1.326,4.179,4.179,0,0,1,1.688,3.445h-3.951a1.912,1.912,0,0,0-.547-1.4,2.314,2.314,0,0,0-1.709-.554,2.365,2.365,0,0,0-1.545.451,1.424,1.424,0,0,0-.547,1.148,1.217,1.217,0,0,0,.622,1.06,6.4,6.4,0,0,0,2.1.7,17.141,17.141,0,0,1,2.488.663q3.131,1.148,3.131,3.979a3.859,3.859,0,0,1-1.736,3.274A7.49,7.49,0,0,1,283.049.273a7.823,7.823,0,0,1-3.3-.663,5.54,5.54,0,0,1-2.263-1.818,4.225,4.225,0,0,1-.82-2.5h3.746a2.063,2.063,0,0,0,.779,1.613,3.091,3.091,0,0,0,1.941.561,2.861,2.861,0,0,0,1.716-.431A1.34,1.34,0,0,0,285.428-4.088Zm16.994-10.705.123,1.709a5.165,5.165,0,0,1,4.252-1.982,4.292,4.292,0,0,1,3.5,1.381,6.443,6.443,0,0,1,1.176,4.129V0h-3.951V-9.461a2.563,2.563,0,0,0-.547-1.825,2.448,2.448,0,0,0-1.818-.567,2.718,2.718,0,0,0-2.5,1.422V0H298.7V-14.793ZM321.275.273a7.262,7.262,0,0,1-5.3-2,7.1,7.1,0,0,1-2.044-5.318v-.383a8.936,8.936,0,0,1,.861-3.985,6.321,6.321,0,0,1,2.44-2.707,6.85,6.85,0,0,1,3.6-.95,6.139,6.139,0,0,1,4.778,1.914,7.778,7.778,0,0,1,1.743,5.428v1.613h-9.42a3.67,3.67,0,0,0,1.155,2.324,3.492,3.492,0,0,0,2.44.875A4.265,4.265,0,0,0,325.1-4.566l1.941,2.174a5.931,5.931,0,0,1-2.406,1.962A7.9,7.9,0,0,1,321.275.273Zm-.451-12.154a2.469,2.469,0,0,0-1.907.8,4.124,4.124,0,0,0-.937,2.28h5.5v-.316a2.942,2.942,0,0,0-.711-2.039A2.547,2.547,0,0,0,320.824-11.881Zm14.93,8.969a2.591,2.591,0,0,0,1.777-.6,2.108,2.108,0,0,0,.711-1.6h3.705a5.068,5.068,0,0,1-.82,2.755,5.413,5.413,0,0,1-2.208,1.941,6.91,6.91,0,0,1-3.1.69,6.422,6.422,0,0,1-5-2.017,7.98,7.98,0,0,1-1.832-5.571v-.26a7.889,7.889,0,0,1,1.818-5.455,6.347,6.347,0,0,1,4.99-2.037,6.222,6.222,0,0,1,4.45,1.579,5.591,5.591,0,0,1,1.7,4.2h-3.705a2.715,2.715,0,0,0-.711-1.876,2.37,2.37,0,0,0-1.8-.722,2.38,2.38,0,0,0-2.085,1.006,5.833,5.833,0,0,0-.7,3.266V-7.2a5.907,5.907,0,0,0,.7,3.286A2.41,2.41,0,0,0,335.754-2.912ZM351.012.273a7.262,7.262,0,0,1-5.3-2,7.1,7.1,0,0,1-2.044-5.318v-.383a8.936,8.936,0,0,1,.861-3.985,6.321,6.321,0,0,1,2.44-2.707,6.85,6.85,0,0,1,3.6-.95,6.139,6.139,0,0,1,4.778,1.914A7.778,7.778,0,0,1,357.1-7.725v1.613h-9.42a3.67,3.67,0,0,0,1.155,2.324,3.492,3.492,0,0,0,2.44.875,4.265,4.265,0,0,0,3.568-1.654l1.941,2.174a5.931,5.931,0,0,1-2.406,1.962A7.9,7.9,0,0,1,351.012.273Zm-.451-12.154a2.469,2.469,0,0,0-1.907.8,4.124,4.124,0,0,0-.937,2.28h5.5v-.316a2.942,2.942,0,0,0-.711-2.039A2.547,2.547,0,0,0,350.561-11.881ZM367.35-4.088a1.273,1.273,0,0,0-.718-1.142,8.153,8.153,0,0,0-2.3-.745q-5.277-1.107-5.277-4.484a4.065,4.065,0,0,1,1.634-3.288,6.591,6.591,0,0,1,4.272-1.319,7.093,7.093,0,0,1,4.5,1.326,4.179,4.179,0,0,1,1.688,3.445H367.2a1.912,1.912,0,0,0-.547-1.4,2.314,2.314,0,0,0-1.709-.554,2.365,2.365,0,0,0-1.545.451,1.424,1.424,0,0,0-.547,1.148,1.217,1.217,0,0,0,.622,1.06,6.4,6.4,0,0,0,2.1.7,17.141,17.141,0,0,1,2.488.663q3.131,1.148,3.131,3.979a3.859,3.859,0,0,1-1.736,3.274A7.49,7.49,0,0,1,364.971.273a7.823,7.823,0,0,1-3.3-.663,5.54,5.54,0,0,1-2.263-1.818,4.225,4.225,0,0,1-.82-2.5h3.746a2.063,2.063,0,0,0,.779,1.613,3.091,3.091,0,0,0,1.941.561,2.861,2.861,0,0,0,1.716-.431A1.34,1.34,0,0,0,367.35-4.088ZM382.307,0a4.388,4.388,0,0,1-.4-1.326,4.781,4.781,0,0,1-3.732,1.6,5.252,5.252,0,0,1-3.6-1.258,4.045,4.045,0,0,1-1.429-3.172,4.18,4.18,0,0,1,1.743-3.609,8.6,8.6,0,0,1,5.038-1.271h1.818v-.848a2.438,2.438,0,0,0-.526-1.641,2.071,2.071,0,0,0-1.661-.615,2.354,2.354,0,0,0-1.565.479,1.626,1.626,0,0,0-.567,1.313h-3.951a3.969,3.969,0,0,1,.793-2.379,5.242,5.242,0,0,1,2.242-1.716,8.172,8.172,0,0,1,3.254-.622,6.456,6.456,0,0,1,4.341,1.374,4.807,4.807,0,0,1,1.606,3.862v6.412A7.072,7.072,0,0,0,386.3-.232V0Zm-3.268-2.748a3.4,3.4,0,0,0,1.613-.39,2.559,2.559,0,0,0,1.094-1.046V-6.727H380.27q-2.967,0-3.158,2.051l-.014.232a1.582,1.582,0,0,0,.52,1.217A2.018,2.018,0,0,0,379.039-2.748Zm18.02-8.34a10.734,10.734,0,0,0-1.422-.109A2.894,2.894,0,0,0,392.7-9.68V0h-3.951V-14.793h3.732l.109,1.764a3.661,3.661,0,0,1,3.295-2.037,4.14,4.14,0,0,1,1.23.178ZM403.129,0h-3.965V-14.793h3.965Zm-4.2-18.621a1.946,1.946,0,0,1,.595-1.463,2.234,2.234,0,0,1,1.62-.574,2.239,2.239,0,0,1,1.613.574,1.935,1.935,0,0,1,.6,1.463,1.94,1.94,0,0,1-.608,1.477,2.245,2.245,0,0,1-1.606.574,2.245,2.245,0,0,1-1.606-.574A1.94,1.94,0,0,1,398.932-18.621ZM414.955,0a4.388,4.388,0,0,1-.4-1.326,4.781,4.781,0,0,1-3.732,1.6,5.252,5.252,0,0,1-3.6-1.258,4.045,4.045,0,0,1-1.429-3.172,4.18,4.18,0,0,1,1.743-3.609,8.6,8.6,0,0,1,5.038-1.271h1.818v-.848a2.438,2.438,0,0,0-.526-1.641,2.071,2.071,0,0,0-1.661-.615,2.354,2.354,0,0,0-1.565.479,1.626,1.626,0,0,0-.567,1.313h-3.951a3.969,3.969,0,0,1,.793-2.379,5.242,5.242,0,0,1,2.242-1.716,8.172,8.172,0,0,1,3.254-.622,6.456,6.456,0,0,1,4.341,1.374,4.807,4.807,0,0,1,1.606,3.862v6.412a7.072,7.072,0,0,0,.588,3.186V0Zm-3.268-2.748a3.4,3.4,0,0,0,1.613-.39,2.559,2.559,0,0,0,1.094-1.046V-6.727h-1.477q-2.967,0-3.158,2.051l-.014.232a1.582,1.582,0,0,0,.52,1.217A2.018,2.018,0,0,0,411.688-2.748Zm17.719-1.34a1.273,1.273,0,0,0-.718-1.142,8.153,8.153,0,0,0-2.3-.745q-5.277-1.107-5.277-4.484a4.065,4.065,0,0,1,1.634-3.288,6.591,6.591,0,0,1,4.272-1.319,7.093,7.093,0,0,1,4.5,1.326,4.179,4.179,0,0,1,1.688,3.445h-3.951a1.912,1.912,0,0,0-.547-1.4A2.314,2.314,0,0,0,427-12.25a2.365,2.365,0,0,0-1.545.451,1.424,1.424,0,0,0-.547,1.148,1.217,1.217,0,0,0,.622,1.06,6.4,6.4,0,0,0,2.1.7,17.141,17.141,0,0,1,2.488.663q3.131,1.148,3.131,3.979a3.859,3.859,0,0,1-1.736,3.274A7.49,7.49,0,0,1,427.027.273a7.823,7.823,0,0,1-3.3-.663,5.54,5.54,0,0,1-2.263-1.818,4.225,4.225,0,0,1-.82-2.5h3.746a2.063,2.063,0,0,0,.779,1.613,3.091,3.091,0,0,0,1.941.561,2.861,2.861,0,0,0,1.716-.431A1.34,1.34,0,0,0,429.406-4.088ZM456.08-7.26a8.872,8.872,0,0,1-1.552,5.476,4.975,4.975,0,0,1-4.19,2.058,4.609,4.609,0,0,1-3.623-1.559V5.688h-3.951v-20.48h3.664l.137,1.449a4.644,4.644,0,0,1,3.746-1.723,5.009,5.009,0,0,1,4.252,2.023,9.112,9.112,0,0,1,1.518,5.578Zm-3.951-.287a5.822,5.822,0,0,0-.731-3.186,2.382,2.382,0,0,0-2.126-1.121,2.587,2.587,0,0,0-2.557,1.422v6.057A2.631,2.631,0,0,0,449.3-2.912Q452.129-2.912,452.129-7.547ZM467.1,0a4.388,4.388,0,0,1-.4-1.326,4.781,4.781,0,0,1-3.732,1.6,5.252,5.252,0,0,1-3.6-1.258,4.045,4.045,0,0,1-1.429-3.172,4.18,4.18,0,0,1,1.743-3.609,8.6,8.6,0,0,1,5.038-1.271h1.818v-.848a2.438,2.438,0,0,0-.526-1.641,2.071,2.071,0,0,0-1.661-.615,2.354,2.354,0,0,0-1.565.479,1.626,1.626,0,0,0-.567,1.313h-3.951a3.969,3.969,0,0,1,.793-2.379,5.242,5.242,0,0,1,2.242-1.716,8.172,8.172,0,0,1,3.254-.622,6.456,6.456,0,0,1,4.341,1.374A4.807,4.807,0,0,1,470.5-9.83v6.412a7.072,7.072,0,0,0,.588,3.186V0Zm-3.268-2.748a3.4,3.4,0,0,0,1.613-.39,2.559,2.559,0,0,0,1.094-1.046V-6.727h-1.477q-2.967,0-3.158,2.051l-.014.232a1.582,1.582,0,0,0,.52,1.217A2.018,2.018,0,0,0,463.832-2.748Zm18.02-8.34a10.734,10.734,0,0,0-1.422-.109A2.894,2.894,0,0,0,477.49-9.68V0h-3.951V-14.793h3.732l.109,1.764a3.661,3.661,0,0,1,3.295-2.037,4.14,4.14,0,0,1,1.23.178ZM491.914,0a4.388,4.388,0,0,1-.4-1.326,4.781,4.781,0,0,1-3.732,1.6,5.252,5.252,0,0,1-3.6-1.258,4.045,4.045,0,0,1-1.429-3.172A4.18,4.18,0,0,1,484.5-7.766a8.6,8.6,0,0,1,5.038-1.271h1.818v-.848a2.438,2.438,0,0,0-.526-1.641,2.071,2.071,0,0,0-1.661-.615,2.354,2.354,0,0,0-1.565.479,1.626,1.626,0,0,0-.567,1.313h-3.951a3.969,3.969,0,0,1,.793-2.379,5.242,5.242,0,0,1,2.242-1.716,8.172,8.172,0,0,1,3.254-.622,6.456,6.456,0,0,1,4.341,1.374,4.807,4.807,0,0,1,1.606,3.862v6.412a7.072,7.072,0,0,0,.588,3.186V0Zm-3.268-2.748a3.4,3.4,0,0,0,1.613-.39,2.559,2.559,0,0,0,1.094-1.046V-6.727h-1.477q-2.967,0-3.158,2.051l-.014.232a1.582,1.582,0,0,0,.52,1.217A2.018,2.018,0,0,0,488.646-2.748ZM509.5,0h-3.965V-21H509.5Zm11.826,0a4.387,4.387,0,0,1-.4-1.326,4.781,4.781,0,0,1-3.732,1.6,5.252,5.252,0,0,1-3.6-1.258,4.045,4.045,0,0,1-1.429-3.172,4.18,4.18,0,0,1,1.743-3.609,8.6,8.6,0,0,1,5.038-1.271h1.818v-.848a2.438,2.438,0,0,0-.526-1.641,2.071,2.071,0,0,0-1.661-.615,2.354,2.354,0,0,0-1.565.479,1.626,1.626,0,0,0-.567,1.313H512.49a3.969,3.969,0,0,1,.793-2.379,5.242,5.242,0,0,1,2.242-1.716,8.171,8.171,0,0,1,3.254-.622,6.456,6.456,0,0,1,4.341,1.374,4.807,4.807,0,0,1,1.606,3.862v6.412a7.072,7.072,0,0,0,.588,3.186V0Zm-3.268-2.748a3.4,3.4,0,0,0,1.613-.39,2.559,2.559,0,0,0,1.094-1.046V-6.727h-1.477q-2.967,0-3.158,2.051l-.014.232a1.582,1.582,0,0,0,.52,1.217A2.018,2.018,0,0,0,518.055-2.748Z" transform="translate(537 1253.504)" fill="#fff"/>
    <path id="Trazado_732897" data-name="Trazado 732897" d="M13.016-4.1H5.824L4.457,0H.1l7.41-19.906h3.8L18.758,0H14.4ZM6.932-7.424h4.977l-2.5-7.451Zm16.3-11.006v3.637h2.529v2.9H23.231v7.383a1.763,1.763,0,0,0,.314,1.176,1.579,1.579,0,0,0,1.2.355,6.3,6.3,0,0,0,1.162-.1V-.082a8.134,8.134,0,0,1-2.393.355q-4.156,0-4.238-4.2v-7.971H17.12v-2.9h2.16V-18.43ZM33.147.273a7.262,7.262,0,0,1-5.3-2A7.1,7.1,0,0,1,25.8-7.041v-.383a8.936,8.936,0,0,1,.861-3.985,6.321,6.321,0,0,1,2.44-2.707,6.85,6.85,0,0,1,3.6-.95,6.139,6.139,0,0,1,4.778,1.914,7.778,7.778,0,0,1,1.743,5.428v1.613h-9.42a3.671,3.671,0,0,0,1.155,2.324,3.492,3.492,0,0,0,2.44.875,4.265,4.265,0,0,0,3.568-1.654l1.941,2.174A5.931,5.931,0,0,1,36.51-.431,7.9,7.9,0,0,1,33.147.273ZM32.7-11.881a2.469,2.469,0,0,0-1.907.8,4.124,4.124,0,0,0-.937,2.28h5.5v-.316a2.942,2.942,0,0,0-.711-2.039A2.547,2.547,0,0,0,32.7-11.881Zm10.79-2.912.123,1.709a5.165,5.165,0,0,1,4.252-1.982,4.292,4.292,0,0,1,3.5,1.381,6.443,6.443,0,0,1,1.176,4.129V0H48.585V-9.461a2.563,2.563,0,0,0-.547-1.825,2.448,2.448,0,0,0-1.818-.567,2.718,2.718,0,0,0-2.5,1.422V0H39.767V-14.793ZM60.059-2.912a2.591,2.591,0,0,0,1.777-.6,2.108,2.108,0,0,0,.711-1.6h3.705a5.068,5.068,0,0,1-.82,2.755A5.413,5.413,0,0,1,63.224-.417a6.91,6.91,0,0,1-3.1.69,6.422,6.422,0,0,1-5-2.017,7.98,7.98,0,0,1-1.832-5.571v-.26a7.889,7.889,0,0,1,1.818-5.455,6.347,6.347,0,0,1,4.99-2.037,6.222,6.222,0,0,1,4.45,1.579,5.591,5.591,0,0,1,1.7,4.2H62.547a2.715,2.715,0,0,0-.711-1.876,2.37,2.37,0,0,0-1.8-.722,2.38,2.38,0,0,0-2.085,1.006,5.832,5.832,0,0,0-.7,3.266V-7.2a5.907,5.907,0,0,0,.7,3.286A2.41,2.41,0,0,0,60.059-2.912ZM71.054,0H67.089V-14.793h3.965Zm-4.2-18.621a1.946,1.946,0,0,1,.595-1.463,2.234,2.234,0,0,1,1.62-.574,2.239,2.239,0,0,1,1.613.574,1.935,1.935,0,0,1,.6,1.463,1.94,1.94,0,0,1-.608,1.477,2.245,2.245,0,0,1-1.606.574,2.245,2.245,0,0,1-1.606-.574A1.94,1.94,0,0,1,66.857-18.621ZM72.068-7.533a8.773,8.773,0,0,1,.848-3.924,6.205,6.205,0,0,1,2.44-2.666,7.12,7.12,0,0,1,3.7-.943,6.736,6.736,0,0,1,4.888,1.832,7.353,7.353,0,0,1,2.112,4.977l.027,1.012a7.732,7.732,0,0,1-1.9,5.462,6.606,6.606,0,0,1-5.1,2.058,6.639,6.639,0,0,1-5.106-2.051,7.868,7.868,0,0,1-1.907-5.578Zm3.951.28a5.53,5.53,0,0,0,.793,3.225,2.616,2.616,0,0,0,2.27,1.116,2.622,2.622,0,0,0,2.242-1.1,6.051,6.051,0,0,0,.807-3.526,5.474,5.474,0,0,0-.807-3.2,2.622,2.622,0,0,0-2.27-1.136,2.579,2.579,0,0,0-2.242,1.13A6.153,6.153,0,0,0,76.02-7.253ZM79.834-21h4.307l-3.787,4.238H77.141Zm10.694,6.207.123,1.709A5.165,5.165,0,0,1,94.9-15.066a4.292,4.292,0,0,1,3.5,1.381,6.443,6.443,0,0,1,1.176,4.129V0H95.628V-9.461a2.563,2.563,0,0,0-.547-1.825,2.448,2.448,0,0,0-1.818-.567,2.718,2.718,0,0,0-2.5,1.422V0H86.81V-14.793ZM110.919,0h-4.1V-19.906h4.1Zm5.554-14.793.123,1.709a5.165,5.165,0,0,1,4.252-1.982,4.292,4.292,0,0,1,3.5,1.381,6.443,6.443,0,0,1,1.176,4.129V0h-3.951V-9.461a2.563,2.563,0,0,0-.547-1.825,2.448,2.448,0,0,0-1.818-.567,2.718,2.718,0,0,0-2.5,1.422V0h-3.951V-14.793Zm15.151-3.637v3.637h2.529v2.9h-2.529v7.383a1.763,1.763,0,0,0,.314,1.176,1.579,1.579,0,0,0,1.2.355,6.3,6.3,0,0,0,1.162-.1V-.082a8.134,8.134,0,0,1-2.393.355q-4.156,0-4.238-4.2v-7.971h-2.16v-2.9h2.16V-18.43Zm9.915,18.7a7.262,7.262,0,0,1-5.3-2A7.1,7.1,0,0,1,134.2-7.041v-.383a8.936,8.936,0,0,1,.861-3.985,6.321,6.321,0,0,1,2.44-2.707,6.85,6.85,0,0,1,3.6-.95,6.139,6.139,0,0,1,4.778,1.914,7.778,7.778,0,0,1,1.743,5.428v1.613H138.2a3.671,3.671,0,0,0,1.155,2.324,3.492,3.492,0,0,0,2.44.875,4.265,4.265,0,0,0,3.568-1.654l1.941,2.174A5.931,5.931,0,0,1,144.9-.431,7.9,7.9,0,0,1,141.539.273Zm-.451-12.154a2.469,2.469,0,0,0-1.907.8,4.124,4.124,0,0,0-.937,2.28h5.5v-.316a2.942,2.942,0,0,0-.711-2.039A2.547,2.547,0,0,0,141.088-11.881Zm6.579,4.375a8.67,8.67,0,0,1,1.62-5.482,5.25,5.25,0,0,1,4.368-2.078,4.6,4.6,0,0,1,3.787,1.668l.164-1.395h3.582v14.3a6.322,6.322,0,0,1-.882,3.377,5.663,5.663,0,0,1-2.481,2.188,8.723,8.723,0,0,1-3.746.752,8.112,8.112,0,0,1-3.172-.649A5.629,5.629,0,0,1,148.57,3.5l1.75-2.406A4.628,4.628,0,0,0,153.9,2.748a3.388,3.388,0,0,0,2.447-.841,3.154,3.154,0,0,0,.875-2.386v-.793a4.57,4.57,0,0,1-3.6,1.545,5.236,5.236,0,0,1-4.313-2.085,8.667,8.667,0,0,1-1.647-5.53Zm3.951.294a5.4,5.4,0,0,0,.807,3.156,2.566,2.566,0,0,0,2.215,1.143,2.744,2.744,0,0,0,2.584-1.356V-10.5a2.737,2.737,0,0,0-2.557-1.356,2.582,2.582,0,0,0-2.235,1.164A6.085,6.085,0,0,0,151.618-7.212Zm19.294-3.876a10.735,10.735,0,0,0-1.422-.109,2.894,2.894,0,0,0-2.939,1.518V0H162.6V-14.793h3.732l.109,1.764a3.661,3.661,0,0,1,3.295-2.037,4.14,4.14,0,0,1,1.23.178ZM179.351,0a4.388,4.388,0,0,1-.4-1.326,4.781,4.781,0,0,1-3.732,1.6,5.252,5.252,0,0,1-3.6-1.258,4.045,4.045,0,0,1-1.429-3.172,4.18,4.18,0,0,1,1.743-3.609,8.6,8.6,0,0,1,5.038-1.271h1.818v-.848a2.438,2.438,0,0,0-.526-1.641,2.071,2.071,0,0,0-1.661-.615,2.354,2.354,0,0,0-1.565.479,1.626,1.626,0,0,0-.567,1.313h-3.951a3.969,3.969,0,0,1,.793-2.379,5.242,5.242,0,0,1,2.242-1.716,8.172,8.172,0,0,1,3.254-.622,6.456,6.456,0,0,1,4.341,1.374,4.807,4.807,0,0,1,1.606,3.862v6.412a7.072,7.072,0,0,0,.588,3.186V0Zm-3.268-2.748a3.4,3.4,0,0,0,1.613-.39,2.559,2.559,0,0,0,1.094-1.046V-6.727h-1.477q-2.967,0-3.158,2.051l-.014.232a1.582,1.582,0,0,0,.52,1.217A2.018,2.018,0,0,0,176.083-2.748ZM188.336,0h-3.965V-21h3.965Zm13.787.273a7.262,7.262,0,0,1-5.3-2,7.1,7.1,0,0,1-2.044-5.318v-.383a8.936,8.936,0,0,1,.861-3.985,6.321,6.321,0,0,1,2.44-2.707,6.85,6.85,0,0,1,3.6-.95,6.139,6.139,0,0,1,4.778,1.914,7.778,7.778,0,0,1,1.743,5.428v1.613h-9.42a3.671,3.671,0,0,0,1.155,2.324,3.492,3.492,0,0,0,2.44.875,4.265,4.265,0,0,0,3.568-1.654l1.941,2.174a5.931,5.931,0,0,1-2.406,1.962A7.9,7.9,0,0,1,202.124.273Zm-.451-12.154a2.469,2.469,0,0,0-1.907.8,4.124,4.124,0,0,0-.937,2.28h5.5v-.316a2.942,2.942,0,0,0-.711-2.039A2.547,2.547,0,0,0,201.672-11.881Zm10.79-2.912.123,1.709a5.165,5.165,0,0,1,4.252-1.982,4.292,4.292,0,0,1,3.5,1.381,6.443,6.443,0,0,1,1.176,4.129V0h-3.951V-9.461a2.563,2.563,0,0,0-.547-1.825,2.448,2.448,0,0,0-1.818-.567,2.718,2.718,0,0,0-2.5,1.422V0h-3.951V-14.793Zm26.352,9.57a2.1,2.1,0,0,0-.82-1.784,10.76,10.76,0,0,0-2.953-1.312,20.934,20.934,0,0,1-3.377-1.36q-3.391-1.832-3.391-4.936a4.807,4.807,0,0,1,.909-2.878,5.931,5.931,0,0,1,2.611-1.976,9.829,9.829,0,0,1,3.821-.711,8.946,8.946,0,0,1,3.8.772,6.052,6.052,0,0,1,2.591,2.181,5.706,5.706,0,0,1,.923,3.2h-4.1a2.684,2.684,0,0,0-.861-2.126,3.541,3.541,0,0,0-2.42-.759,3.783,3.783,0,0,0-2.338.636,2.005,2.005,0,0,0-.834,1.675,1.921,1.921,0,0,0,.978,1.627,11.044,11.044,0,0,0,2.878,1.23,12.435,12.435,0,0,1,5.1,2.611,5.2,5.2,0,0,1,1.6,3.883A4.791,4.791,0,0,1,240.974-1.2a8.559,8.559,0,0,1-5.264,1.47,10.164,10.164,0,0,1-4.184-.841,6.62,6.62,0,0,1-2.878-2.3,5.9,5.9,0,0,1-.991-3.391h4.115q0,3.295,3.938,3.295a3.83,3.83,0,0,0,2.283-.595A1.935,1.935,0,0,0,238.814-5.223ZM252.393,0a4.388,4.388,0,0,1-.4-1.326,4.781,4.781,0,0,1-3.732,1.6,5.252,5.252,0,0,1-3.6-1.258,4.045,4.045,0,0,1-1.429-3.172,4.18,4.18,0,0,1,1.743-3.609,8.6,8.6,0,0,1,5.038-1.271h1.818v-.848a2.438,2.438,0,0,0-.526-1.641,2.071,2.071,0,0,0-1.661-.615,2.354,2.354,0,0,0-1.565.479,1.626,1.626,0,0,0-.567,1.313h-3.951a3.969,3.969,0,0,1,.793-2.379,5.242,5.242,0,0,1,2.242-1.716,8.172,8.172,0,0,1,3.254-.622,6.456,6.456,0,0,1,4.341,1.374A4.807,4.807,0,0,1,255.8-9.83v6.412a7.072,7.072,0,0,0,.588,3.186V0Zm-3.268-2.748a3.4,3.4,0,0,0,1.613-.39,2.559,2.559,0,0,0,1.094-1.046V-6.727h-1.477q-2.967,0-3.158,2.051l-.014.232a1.582,1.582,0,0,0,.52,1.217A2.018,2.018,0,0,0,249.126-2.748ZM261.379,0h-3.965V-21h3.965Zm10.489-1.5A4.955,4.955,0,0,1,267.821.273a4.673,4.673,0,0,1-3.63-1.367A5.836,5.836,0,0,1,262.913-5.1v-9.693h3.951v9.568q0,2.313,2.105,2.313a2.853,2.853,0,0,0,2.762-1.4V-14.793H275.7V0h-3.719Zm4.569-6a8.915,8.915,0,0,1,1.552-5.51,5.035,5.035,0,0,1,4.245-2.051,4.531,4.531,0,0,1,3.568,1.613V-21h3.965V0H286.2l-.191-1.572a4.65,4.65,0,0,1-3.8,1.846,5.021,5.021,0,0,1-4.19-2.058A9.2,9.2,0,0,1,276.437-7.506Zm3.951.294a5.84,5.84,0,0,0,.725,3.19,2.36,2.36,0,0,0,2.105,1.109A2.644,2.644,0,0,0,285.8-4.459v-5.847a2.606,2.606,0,0,0-2.557-1.547Q280.388-11.854,280.388-7.212Z" transform="translate(654.5 1287.504)" fill="#fff"/>
    <path id="Trazado_732898" data-name="Trazado 732898" d="M17.527-2.516A7.119,7.119,0,0,1,14.4-.458,13.111,13.111,0,0,1,9.912.273,8.883,8.883,0,0,1,5.38-.854,7.523,7.523,0,0,1,2.372-4.129,11.524,11.524,0,0,1,1.285-9.174v-1.354a12.239,12.239,0,0,1,1-5.161,7.434,7.434,0,0,1,2.9-3.336A8.349,8.349,0,0,1,9.625-20.18a8.314,8.314,0,0,1,5.537,1.688,7.216,7.216,0,0,1,2.365,4.915H13.535a3.969,3.969,0,0,0-1.21-2.5,3.864,3.864,0,0,0-2.577-.793A3.637,3.637,0,0,0,6.563-15.3a8.267,8.267,0,0,0-1.107,4.676v1.271a7.87,7.87,0,0,0,1.189,4.73,4.073,4.073,0,0,0,3.486,1.6,4.55,4.55,0,0,0,3.295-.984V-7.437H9.693v-3.021h7.834ZM29.162,0a4.388,4.388,0,0,1-.4-1.326,4.781,4.781,0,0,1-3.732,1.6,5.252,5.252,0,0,1-3.6-1.258A4.045,4.045,0,0,1,20-4.156a4.18,4.18,0,0,1,1.743-3.609,8.6,8.6,0,0,1,5.038-1.271H28.6v-.848a2.438,2.438,0,0,0-.526-1.641,2.071,2.071,0,0,0-1.661-.615,2.354,2.354,0,0,0-1.565.479,1.626,1.626,0,0,0-.567,1.313H20.33a3.969,3.969,0,0,1,.793-2.379,5.242,5.242,0,0,1,2.242-1.716,8.172,8.172,0,0,1,3.254-.622,6.456,6.456,0,0,1,4.341,1.374A4.807,4.807,0,0,1,32.566-9.83v6.412a7.072,7.072,0,0,0,.588,3.186V0ZM25.895-2.748a3.4,3.4,0,0,0,1.613-.39A2.559,2.559,0,0,0,28.6-4.184V-6.727H27.125q-2.967,0-3.158,2.051l-.014.232a1.582,1.582,0,0,0,.52,1.217A2.018,2.018,0,0,0,25.895-2.748ZM39.238-14.793l.123,1.709a5.165,5.165,0,0,1,4.252-1.982,4.292,4.292,0,0,1,3.5,1.381,6.443,6.443,0,0,1,1.176,4.129V0H44.338V-9.461a2.563,2.563,0,0,0-.547-1.825,2.448,2.448,0,0,0-1.818-.567,2.718,2.718,0,0,0-2.5,1.422V0H35.52V-14.793ZM59.855,0a4.388,4.388,0,0,1-.4-1.326,4.781,4.781,0,0,1-3.732,1.6,5.252,5.252,0,0,1-3.6-1.258A4.045,4.045,0,0,1,50.7-4.156a4.18,4.18,0,0,1,1.743-3.609,8.6,8.6,0,0,1,5.038-1.271h1.818v-.848a2.438,2.438,0,0,0-.526-1.641,2.071,2.071,0,0,0-1.661-.615,2.354,2.354,0,0,0-1.565.479,1.626,1.626,0,0,0-.567,1.313H51.023a3.969,3.969,0,0,1,.793-2.379,5.242,5.242,0,0,1,2.242-1.716,8.172,8.172,0,0,1,3.254-.622,6.456,6.456,0,0,1,4.341,1.374A4.807,4.807,0,0,1,63.26-9.83v6.412a7.072,7.072,0,0,0,.588,3.186V0ZM56.588-2.748a3.4,3.4,0,0,0,1.613-.39,2.559,2.559,0,0,0,1.094-1.046V-6.727H57.818q-2.967,0-3.158,2.051l-.014.232a1.582,1.582,0,0,0,.52,1.217A2.018,2.018,0,0,0,56.588-2.748ZM69.932-14.793l.123,1.709a5.165,5.165,0,0,1,4.252-1.982,4.292,4.292,0,0,1,3.5,1.381,6.443,6.443,0,0,1,1.176,4.129V0H75.031V-9.461a2.563,2.563,0,0,0-.547-1.825,2.448,2.448,0,0,0-1.818-.567,2.718,2.718,0,0,0-2.5,1.422V0H66.213V-14.793Zm18.2,11.881a2.591,2.591,0,0,0,1.777-.6,2.108,2.108,0,0,0,.711-1.6h3.705a5.068,5.068,0,0,1-.82,2.755A5.413,5.413,0,0,1,91.294-.417a6.91,6.91,0,0,1-3.1.69,6.422,6.422,0,0,1-5-2.017,7.98,7.98,0,0,1-1.832-5.571v-.26a7.889,7.889,0,0,1,1.818-5.455,6.347,6.347,0,0,1,4.99-2.037,6.222,6.222,0,0,1,4.45,1.579,5.591,5.591,0,0,1,1.7,4.2H90.617a2.715,2.715,0,0,0-.711-1.876,2.37,2.37,0,0,0-1.8-.722,2.38,2.38,0,0,0-2.085,1.006,5.833,5.833,0,0,0-.7,3.266V-7.2a5.907,5.907,0,0,0,.7,3.286A2.41,2.41,0,0,0,88.129-2.912ZM100.748,0H96.783V-14.793h3.965Zm-4.2-18.621a1.946,1.946,0,0,1,.595-1.463,2.234,2.234,0,0,1,1.62-.574,2.239,2.239,0,0,1,1.613.574,1.935,1.935,0,0,1,.6,1.463,1.94,1.94,0,0,1-.608,1.477,2.245,2.245,0,0,1-1.606.574,2.245,2.245,0,0,1-1.606-.574A1.94,1.94,0,0,1,96.551-18.621ZM112.574,0a4.388,4.388,0,0,1-.4-1.326,4.781,4.781,0,0,1-3.732,1.6,5.252,5.252,0,0,1-3.6-1.258,4.045,4.045,0,0,1-1.429-3.172,4.18,4.18,0,0,1,1.743-3.609A8.6,8.6,0,0,1,110.2-9.037h1.818v-.848a2.438,2.438,0,0,0-.526-1.641,2.071,2.071,0,0,0-1.661-.615,2.354,2.354,0,0,0-1.565.479,1.626,1.626,0,0,0-.567,1.313h-3.951a3.969,3.969,0,0,1,.793-2.379,5.242,5.242,0,0,1,2.242-1.716,8.172,8.172,0,0,1,3.254-.622,6.456,6.456,0,0,1,4.341,1.374,4.807,4.807,0,0,1,1.606,3.862v6.412a7.072,7.072,0,0,0,.588,3.186V0Zm-3.268-2.748a3.4,3.4,0,0,0,1.613-.39,2.559,2.559,0,0,0,1.094-1.046V-6.727h-1.477q-2.967,0-3.158,2.051l-.014.232a1.582,1.582,0,0,0,.52,1.217A2.018,2.018,0,0,0,109.307-2.748Zm17.719-1.34a1.273,1.273,0,0,0-.718-1.142,8.153,8.153,0,0,0-2.3-.745q-5.277-1.107-5.277-4.484a4.065,4.065,0,0,1,1.634-3.288,6.591,6.591,0,0,1,4.272-1.319,7.093,7.093,0,0,1,4.5,1.326,4.179,4.179,0,0,1,1.688,3.445h-3.951a1.912,1.912,0,0,0-.547-1.4,2.314,2.314,0,0,0-1.709-.554,2.365,2.365,0,0,0-1.545.451,1.424,1.424,0,0,0-.547,1.148,1.217,1.217,0,0,0,.622,1.06,6.4,6.4,0,0,0,2.1.7,17.141,17.141,0,0,1,2.488.663q3.131,1.148,3.131,3.979a3.859,3.859,0,0,1-1.736,3.274A7.49,7.49,0,0,1,124.646.273a7.823,7.823,0,0,1-3.3-.663,5.54,5.54,0,0,1-2.263-1.818,4.225,4.225,0,0,1-.82-2.5h3.746a2.063,2.063,0,0,0,.779,1.613,3.091,3.091,0,0,0,1.941.561,2.861,2.861,0,0,0,1.716-.431A1.34,1.34,0,0,0,127.025-4.088ZM147.191.273a7.262,7.262,0,0,1-5.3-2,7.1,7.1,0,0,1-2.044-5.318v-.383a8.936,8.936,0,0,1,.861-3.985,6.321,6.321,0,0,1,2.44-2.707,6.85,6.85,0,0,1,3.6-.95,6.139,6.139,0,0,1,4.778,1.914,7.778,7.778,0,0,1,1.743,5.428v1.613h-9.42a3.671,3.671,0,0,0,1.155,2.324,3.492,3.492,0,0,0,2.44.875,4.265,4.265,0,0,0,3.568-1.654l1.941,2.174a5.931,5.931,0,0,1-2.406,1.962A7.9,7.9,0,0,1,147.191.273Zm-.451-12.154a2.469,2.469,0,0,0-1.907.8A4.124,4.124,0,0,0,143.9-8.8h5.5v-.316a2.942,2.942,0,0,0-.711-2.039A2.547,2.547,0,0,0,146.74-11.881Zm12.414-2.912.123,1.709a5.165,5.165,0,0,1,4.252-1.982,4.292,4.292,0,0,1,3.5,1.381,6.443,6.443,0,0,1,1.176,4.129V0h-3.951V-9.461a2.563,2.563,0,0,0-.547-1.825,2.448,2.448,0,0,0-1.818-.567,2.718,2.718,0,0,0-2.5,1.422V0h-3.951V-14.793ZM186.184-4.088a1.273,1.273,0,0,0-.718-1.142,8.153,8.153,0,0,0-2.3-.745q-5.277-1.107-5.277-4.484a4.065,4.065,0,0,1,1.634-3.288,6.591,6.591,0,0,1,4.272-1.319,7.093,7.093,0,0,1,4.5,1.326,4.179,4.179,0,0,1,1.688,3.445h-3.951a1.912,1.912,0,0,0-.547-1.4,2.314,2.314,0,0,0-1.709-.554,2.365,2.365,0,0,0-1.545.451,1.424,1.424,0,0,0-.547,1.148,1.217,1.217,0,0,0,.622,1.06,6.4,6.4,0,0,0,2.1.7,17.142,17.142,0,0,1,2.488.663q3.131,1.148,3.131,3.979a3.859,3.859,0,0,1-1.736,3.274A7.49,7.49,0,0,1,183.8.273a7.823,7.823,0,0,1-3.3-.663,5.54,5.54,0,0,1-2.263-1.818,4.225,4.225,0,0,1-.82-2.5h3.746a2.063,2.063,0,0,0,.779,1.613,3.091,3.091,0,0,0,1.941.561A2.861,2.861,0,0,0,185.6-2.96,1.34,1.34,0,0,0,186.184-4.088ZM201.141,0a4.388,4.388,0,0,1-.4-1.326,4.781,4.781,0,0,1-3.732,1.6,5.252,5.252,0,0,1-3.6-1.258,4.045,4.045,0,0,1-1.429-3.172,4.18,4.18,0,0,1,1.743-3.609,8.6,8.6,0,0,1,5.038-1.271h1.818v-.848a2.438,2.438,0,0,0-.526-1.641,2.071,2.071,0,0,0-1.661-.615,2.354,2.354,0,0,0-1.565.479,1.626,1.626,0,0,0-.567,1.313h-3.951a3.969,3.969,0,0,1,.793-2.379,5.242,5.242,0,0,1,2.242-1.716,8.172,8.172,0,0,1,3.254-.622,6.456,6.456,0,0,1,4.341,1.374,4.807,4.807,0,0,1,1.606,3.862v6.412a7.072,7.072,0,0,0,.588,3.186V0Zm-3.268-2.748a3.4,3.4,0,0,0,1.613-.39,2.559,2.559,0,0,0,1.094-1.046V-6.727H199.1q-2.967,0-3.158,2.051l-.014.232a1.582,1.582,0,0,0,.52,1.217A2.018,2.018,0,0,0,197.873-2.748ZM211.75,0h-3.965V-21h3.965Zm12.113-1.5A4.955,4.955,0,0,1,219.816.273a4.673,4.673,0,0,1-3.63-1.367A5.836,5.836,0,0,1,214.908-5.1v-9.693h3.951v9.568q0,2.313,2.105,2.313a2.853,2.853,0,0,0,2.762-1.4V-14.793h3.965V0h-3.719Zm6.193-6a8.915,8.915,0,0,1,1.552-5.51,5.035,5.035,0,0,1,4.245-2.051,4.531,4.531,0,0,1,3.568,1.613V-21h3.965V0h-3.568l-.191-1.572a4.65,4.65,0,0,1-3.8,1.846,5.021,5.021,0,0,1-4.19-2.058A9.2,9.2,0,0,1,230.057-7.506Zm3.951.294a5.84,5.84,0,0,0,.725,3.19,2.36,2.36,0,0,0,2.105,1.109,2.644,2.644,0,0,0,2.584-1.547v-5.847a2.606,2.606,0,0,0-2.557-1.547Q234.008-11.854,234.008-7.212Z" transform="matrix(0.772, -0.636, 0.636, 0.772, 415.524, 1050.467)" fill="#12263f"/>
    <g id="Grupo_1018568" data-name="Grupo 1018568" transform="translate(390.428 857.227)" clip-path="url(#clip-path)">
      <text id="Carga_de_la_enfermedad" data-name="Carga de la enfermedad" transform="matrix(0.772, 0.636, -0.636, 0.772, 570.329, 18.088)" fill="#12263f" font-size="28" font-family="Roboto-Bold, Roboto" font-weight="700"><tspan x="0" y="0">Carga de la enfermedad</tspan></text>
    </g>
    <path id="Trazado_732899" data-name="Trazado 732899" d="M0,233.747,282.552,0" transform="translate(393.06 860.683)" fill="#fff"/>
    <g id="Grupo_1018570" data-name="Grupo 1018570" transform="translate(390.428 857.227)" clip-path="url(#clip-path)">
      <line id="Línea_3199" data-name="Línea 3199" y1="224.391" x2="271.241" transform="translate(2.632 12.812)" fill="none" stroke="#6f88da" stroke-miterlimit="10" stroke-width="10"/>
    </g>
    <path id="Trazado_732062" data-name="Trazado 732062" d="M318.719,46.013l2.908-30.664-30.665-2.89L305.207.675l30.655,2.9-2.9,30.655Z" transform="translate(339.75 857.109)" fill="#6f88da"/>
    <path id="Trazado_732900" data-name="Trazado 732900" d="M282.552,233.747,0,0" transform="translate(911.928 860.683)" fill="#fff"/>
    <g id="Grupo_1018572" data-name="Grupo 1018572" transform="translate(390.428 857.227)" clip-path="url(#clip-path)">
      <line id="Línea_3201" data-name="Línea 3201" x1="271.241" y1="224.391" transform="translate(532.81 12.812)" fill="none" stroke="#4adbd1" stroke-miterlimit="10" stroke-width="10"/>
    </g>
    <path id="Trazado_732063" data-name="Trazado 732063" d="M676.39,12.46l-30.665,2.89,2.908,30.664L634.387,34.229l-2.9-30.655,30.655-2.9Z" transform="translate(1838.723 1109.486) rotate(180)" fill="#4adbd1"/>
  </g>
</svg>
