<svg xmlns="http://www.w3.org/2000/svg" xmlns:xlink="http://www.w3.org/1999/xlink" width="111" height="111" viewBox="0 0 111 111">
  <defs>
    <clipPath id="clip-path">
      <rect id="Rectángulo_58328" data-name="Rectángulo 58328" width="64.841" height="64.821" fill="#12263f"/>
    </clipPath>
  </defs>
  <g id="Grupo_1018678" data-name="Grupo 1018678" transform="translate(-331 -5712.922)">
    <circle id="Elipse_8520" data-name="Elipse 8520" cx="55.5" cy="55.5" r="55.5" transform="translate(331 5712.922)" fill="#4adbd1"/>
    <g id="Grupo_180441" data-name="Grupo 180441" transform="translate(354.079 5737.836)">
      <g id="Grupo_180440" data-name="Grupo 180440" clip-path="url(#clip-path)">
        <path id="Trazado_231951" data-name="Trazado 231951" d="M12.938,0h49.4c1.842.631,2.512,1.928,2.5,3.853-.047,10.845-.022,21.69-.023,32.534a3.114,3.114,0,0,1-3.343,3.338q-7.35,0-14.7,0H46c0,1.865-.03,3.628.017,5.39.015.563-.183.759-.688.854-.6.112-1.187.29-1.82.449l1.236,2.088L39.11,54.16l-2.1-1.243c-.182.7-.391,1.345-.506,2-.076.434-.284.5-.662.495-1.263-.018-2.526-.007-3.789-.007H30.787c.908,3.157.461,6.271.588,9.412H0v-6.8a2.377,2.377,0,0,0,.118-.368c.971-6.324,4.491-10.585,10.427-12.893.125-.049.244-.11.42-.191-.179-.144-.3-.239-.414-.332a8.3,8.3,0,0,1-.618-12.653,1.59,1.59,0,0,0,.532-1.3q-.018-13.416,0-26.833a4.871,4.871,0,0,1,.1-1.1A3.309,3.309,0,0,1,12.938,0m3.815,29.331a8.3,8.3,0,0,1,5.837,3.633.985.985,0,0,0,.94.5q17.149-.017,34.3-.009h.684V6.315H16.753ZM60.61,4.188V35.564H23.853l.279,2.056h.54q18.327,0,36.655,0c1.031,0,1.383-.368,1.383-1.438q0-16.269,0-32.539c0-1.223-.313-1.532-1.551-1.532H14.116c-1.24,0-1.552.307-1.552,1.53q0,12.709,0,25.417V29.8a7.592,7.592,0,0,1,1.387-.365c.584-.039.681-.3.679-.825q-.025-11.794-.012-23.587V4.188ZM21.94,37.665A6.258,6.258,0,1,0,15.687,43.9a6.308,6.308,0,0,0,6.253-6.232M43.849,44.1v-4.32H39.516c.715,3.4-.183,6.226-3.1,8.163a6.829,6.829,0,0,1-7.866.1c-3.029-1.916-3.969-4.784-3.257-8.267H23.809a8.733,8.733,0,0,1-3.284,4.736c.041.085.045.114.058.119a15.918,15.918,0,0,1,9.373,8.374.534.534,0,0,0,.373.274c1.453.019,2.907.012,4.353.012.2-.76.365-1.456.567-2.141a.9.9,0,0,1,.333-.5c.6-.349,1.2-.592,1.837-.012a9.363,9.363,0,0,0,1.052.65.511.511,0,0,0,.779-.084q1.241-1.3,2.539-2.54a.515.515,0,0,0,.1-.778c-.315-.469-.6-.957-.873-1.453a.936.936,0,0,1-.129-.594,1.467,1.467,0,0,1,1.3-1.322,13.1,13.1,0,0,0,1.661-.416m-35.935,4.5a12.628,12.628,0,0,0-2.989,2.86C2.432,54.669,2,58.4,2.168,62.272c.006.14.281.37.443.382.606.046,1.22-.015,1.826.029.566.041.755-.14.747-.727-.032-2.285-.013-4.57-.013-6.855v-.73h2.2v.841c0,2.263.013,4.526-.01,6.789,0,.5.124.691.659.682,1.784-.03,3.569-.01,5.353-.014a4.95,4.95,0,0,0,.553-.07L7.914,48.609m18.28,5.741v.8c0,2.285.013,4.57-.01,6.854-.005.509.135.713.664.675a12.663,12.663,0,0,1,1.7,0c.5.031.715-.116.683-.655-.042-.716.015-1.437-.015-2.153a15.007,15.007,0,0,0-1.18-5.7A13.532,13.532,0,0,0,23.456,48.6l-6.03,14.028c.28.021.447.045.615.045,1.763,0,3.525-.015,5.288.012.515.008.678-.147.673-.668-.025-2.306-.011-4.613-.011-6.92V54.35Zm6.28-14.624c-1.459,0-2.918.015-4.376-.01-.381-.007-.6.127-.632.474a11.274,11.274,0,0,0-.144,2.568,5.148,5.148,0,0,0,6.38,4.112,5.232,5.232,0,0,0,3.664-6.686.573.573,0,0,0-.646-.469c-1.415.026-2.831.01-4.246.01M20.845,47.057c-.86,2.578-2.586,4.1-4.783,4.166-2.92.085-4.694-1.439-5.567-4.163l-.7.339,5.889,13.685,5.888-13.7-.727-.332M12.68,46.4a3.029,3.029,0,0,0,3.237,2.718,2.869,2.869,0,0,0,2.708-2.735,12.154,12.154,0,0,0-5.945.017" fill="#12263f"/>
        <rect id="Rectángulo_58314" data-name="Rectángulo 58314" width="12.451" height="2.008" transform="translate(48.134 43.966)" fill="#12263f"/>
        <rect id="Rectángulo_58315" data-name="Rectángulo 58315" width="12.456" height="2.01" transform="translate(48.127 48.128)" fill="#12263f"/>
        <rect id="Rectángulo_58316" data-name="Rectángulo 58316" width="1.994" height="2.028" transform="translate(50.238 52.323)" fill="#12263f"/>
        <rect id="Rectángulo_58317" data-name="Rectángulo 58317" width="2.028" height="1.997" transform="translate(54.401 52.328)" fill="#12263f"/>
        <rect id="Rectángulo_58318" data-name="Rectángulo 58318" width="2.005" height="2.01" transform="translate(58.581 52.309)" fill="#12263f"/>
        <path id="Trazado_231952" data-name="Trazado 231952" d="M164.861,87.079V76.7h7.262V74.623h-7.261v-4.18h-4.17v4.1H143.97V64.182h16.68v4.1h4.17V64.172h16.721v10.39H174.3v2.1h7.23V87.079Zm2.126-14.636H179.43V66.277H166.987Zm0,12.548h12.443v-6.17H166.988Zm-20.91-12.546h12.443v-6.17H146.079Z" transform="translate(-125.117 -55.769)" fill="#12263f"/>
        <rect id="Rectángulo_58319" data-name="Rectángulo 58319" width="14.575" height="1.999" transform="translate(18.844 25.132)" fill="#12263f"/>
        <rect id="Rectángulo_58320" data-name="Rectángulo 58320" width="9.328" height="2.013" transform="translate(24.076 29.307)" fill="#12263f"/>
        <rect id="Rectángulo_58321" data-name="Rectángulo 58321" width="2.012" height="2.023" transform="translate(23.046 20.95)" fill="#12263f"/>
        <rect id="Rectángulo_58322" data-name="Rectángulo 58322" width="2.009" height="2.011" transform="translate(27.218 20.962)" fill="#12263f"/>
        <rect id="Rectángulo_58323" data-name="Rectángulo 58323" width="2.006" height="2.034" transform="translate(31.401 20.941)" fill="#12263f"/>
        <rect id="Rectángulo_58324" data-name="Rectángulo 58324" width="4.147" height="2.034" transform="translate(48.121 12.574)" fill="#12263f"/>
        <rect id="Rectángulo_58325" data-name="Rectángulo 58325" width="2.049" height="2.026" transform="translate(43.943 12.578)" fill="#12263f"/>
        <rect id="Rectángulo_58326" data-name="Rectángulo 58326" width="8.287" height="2.037" transform="translate(43.949 25.13)" fill="#12263f"/>
        <rect id="Rectángulo_58327" data-name="Rectángulo 58327" width="9.374" height="2.033" transform="translate(23.007 12.575)" fill="#12263f"/>
      </g>
    </g>
  </g>
</svg>
