<svg xmlns="http://www.w3.org/2000/svg" xmlns:xlink="http://www.w3.org/1999/xlink" width="136.934" height="135.983" viewBox="0 0 136.934 135.983">
  <defs>
    <clipPath id="clip-path">
      <rect id="Rectángulo_352511" data-name="Rectángulo 352511" width="64.442" height="64.404" fill="#12263f"/>
    </clipPath>
  </defs>
  <g id="Grupo_1015162" data-name="Grupo 1015162" transform="translate(-263 -595.534)">
    <g id="Grupo_156356" data-name="Grupo 156356" transform="translate(263 650.743)">
      <g id="Grupo_156332" data-name="Grupo 156332" transform="translate(0 0)">
        <path id="Trazado_99257" data-name="Trazado 99257" d="M419.306,105.213a2.549,2.549,0,1,1-2.548-2.434A2.492,2.492,0,0,1,419.306,105.213Z" transform="translate(-414.214 -102.779)" fill="#12263f"/>
        <path id="Trazado_116526" data-name="Trazado 116526" d="M419.306,105.213a2.549,2.549,0,1,1-2.548-2.434A2.492,2.492,0,0,1,419.306,105.213Z" transform="translate(-356.555 -102.779)" fill="#12263f"/>
        <path id="Trazado_99258" data-name="Trazado 99258" d="M427.752,105.213a2.549,2.549,0,1,1-2.545-2.434A2.492,2.492,0,0,1,427.752,105.213Z" transform="translate(-411.129 -102.779)" fill="#12263f"/>
        <path id="Trazado_116527" data-name="Trazado 116527" d="M427.752,105.213a2.549,2.549,0,1,1-2.545-2.434A2.492,2.492,0,0,1,427.752,105.213Z" transform="translate(-353.469 -102.779)" fill="#12263f"/>
        <path id="Trazado_99259" data-name="Trazado 99259" d="M436.2,105.213a2.549,2.549,0,1,1-2.545-2.434A2.492,2.492,0,0,1,436.2,105.213Z" transform="translate(-408.043 -102.779)" fill="#12263f"/>
        <path id="Trazado_116531" data-name="Trazado 116531" d="M436.2,105.213a2.549,2.549,0,1,1-2.545-2.434A2.492,2.492,0,0,1,436.2,105.213Z" transform="translate(-350.384 -102.779)" fill="#12263f"/>
        <path id="Trazado_99260" data-name="Trazado 99260" d="M444.645,105.213a2.549,2.549,0,1,1-2.547-2.434A2.492,2.492,0,0,1,444.645,105.213Z" transform="translate(-404.958 -102.779)" fill="#12263f"/>
        <path id="Trazado_116532" data-name="Trazado 116532" d="M444.645,105.213a2.549,2.549,0,1,1-2.547-2.434A2.492,2.492,0,0,1,444.645,105.213Z" transform="translate(-347.298 -102.779)" fill="#12263f"/>
        <path id="Trazado_99261" data-name="Trazado 99261" d="M453.091,105.213a2.549,2.549,0,1,1-2.545-2.434A2.492,2.492,0,0,1,453.091,105.213Z" transform="translate(-401.872 -102.779)" fill="#12263f"/>
      </g>
      <g id="Grupo_156331" data-name="Grupo 156331" transform="translate(0 12.649)">
        <ellipse id="Elipse_3975" data-name="Elipse 3975" cx="2.546" cy="2.435" rx="2.546" ry="2.435" transform="translate(0 0.001)" fill="#12263f"/>
        <ellipse id="Elipse_4742" data-name="Elipse 4742" cx="2.546" cy="2.435" rx="2.546" ry="2.435" transform="translate(57.659 0.001)" fill="#12263f"/>
        <path id="Trazado_99268" data-name="Trazado 99268" d="M427.752,112.721a2.549,2.549,0,1,1-2.545-2.434A2.493,2.493,0,0,1,427.752,112.721Z" transform="translate(-411.129 -110.287)" fill="#12263f"/>
        <path id="Trazado_116528" data-name="Trazado 116528" d="M427.752,112.721a2.549,2.549,0,1,1-2.545-2.434A2.493,2.493,0,0,1,427.752,112.721Z" transform="translate(-353.469 -110.287)" fill="#12263f"/>
        <ellipse id="Elipse_3976" data-name="Elipse 3976" cx="2.546" cy="2.435" rx="2.546" ry="2.435" transform="translate(23.064 0.001)" fill="#12263f"/>
        <ellipse id="Elipse_4743" data-name="Elipse 4743" cx="2.546" cy="2.435" rx="2.546" ry="2.435" transform="translate(80.723 0.001)" fill="#12263f"/>
        <path id="Trazado_99269" data-name="Trazado 99269" d="M444.645,112.721a2.549,2.549,0,1,1-2.547-2.434A2.494,2.494,0,0,1,444.645,112.721Z" transform="translate(-404.958 -110.287)" fill="#12263f"/>
        <path id="Trazado_116533" data-name="Trazado 116533" d="M444.645,112.721a2.549,2.549,0,1,1-2.547-2.434A2.494,2.494,0,0,1,444.645,112.721Z" transform="translate(-347.298 -110.287)" fill="#12263f"/>
        <path id="Trazado_99270" data-name="Trazado 99270" d="M453.091,112.721a2.549,2.549,0,1,1-2.545-2.434A2.493,2.493,0,0,1,453.091,112.721Z" transform="translate(-401.872 -110.287)" fill="#12263f"/>
      </g>
      <g id="Grupo_156330" data-name="Grupo 156330" transform="translate(0 25.3)">
        <path id="Trazado_99274" data-name="Trazado 99274" d="M419.306,120.23a2.549,2.549,0,1,1-2.548-2.436A2.494,2.494,0,0,1,419.306,120.23Z" transform="translate(-414.214 -117.794)" fill="#12263f"/>
        <path id="Trazado_116529" data-name="Trazado 116529" d="M419.306,120.23a2.549,2.549,0,1,1-2.548-2.436A2.494,2.494,0,0,1,419.306,120.23Z" transform="translate(-356.555 -117.794)" fill="#12263f"/>
        <path id="Trazado_99275" data-name="Trazado 99275" d="M427.752,120.23a2.549,2.549,0,1,1-2.545-2.436A2.493,2.493,0,0,1,427.752,120.23Z" transform="translate(-411.129 -117.794)" fill="#12263f"/>
        <path id="Trazado_116530" data-name="Trazado 116530" d="M427.752,120.23a2.549,2.549,0,1,1-2.545-2.436A2.493,2.493,0,0,1,427.752,120.23Z" transform="translate(-353.469 -117.794)" fill="#12263f"/>
        <path id="Trazado_99276" data-name="Trazado 99276" d="M436.2,120.23a2.549,2.549,0,1,1-2.545-2.436A2.493,2.493,0,0,1,436.2,120.23Z" transform="translate(-408.043 -117.794)" fill="#12263f"/>
        <path id="Trazado_116534" data-name="Trazado 116534" d="M436.2,120.23a2.549,2.549,0,1,1-2.545-2.436A2.493,2.493,0,0,1,436.2,120.23Z" transform="translate(-350.384 -117.794)" fill="#12263f"/>
        <path id="Trazado_99277" data-name="Trazado 99277" d="M444.645,120.23a2.549,2.549,0,1,1-2.547-2.436A2.494,2.494,0,0,1,444.645,120.23Z" transform="translate(-404.958 -117.794)" fill="#12263f"/>
        <path id="Trazado_116535" data-name="Trazado 116535" d="M444.645,120.23a2.549,2.549,0,1,1-2.547-2.436A2.494,2.494,0,0,1,444.645,120.23Z" transform="translate(-347.298 -117.794)" fill="#12263f"/>
        <path id="Trazado_99278" data-name="Trazado 99278" d="M453.091,120.23a2.549,2.549,0,1,1-2.545-2.436A2.493,2.493,0,0,1,453.091,120.23Z" transform="translate(-401.872 -117.794)" fill="#12263f"/>
      </g>
      <g id="Grupo_156327" data-name="Grupo 156327" transform="translate(0 63.252)">
        <path id="Trazado_116550" data-name="Trazado 116550" d="M419.306,120.23a2.549,2.549,0,1,1-2.548-2.436A2.494,2.494,0,0,1,419.306,120.23Z" transform="translate(-414.214 -117.794)" fill="#12263f"/>
        <path id="Trazado_116551" data-name="Trazado 116551" d="M419.306,120.23a2.549,2.549,0,1,1-2.548-2.436A2.494,2.494,0,0,1,419.306,120.23Z" transform="translate(-356.555 -117.794)" fill="#12263f"/>
        <path id="Trazado_116552" data-name="Trazado 116552" d="M427.752,120.23a2.549,2.549,0,1,1-2.545-2.436A2.493,2.493,0,0,1,427.752,120.23Z" transform="translate(-411.129 -117.794)" fill="#12263f"/>
        <path id="Trazado_116553" data-name="Trazado 116553" d="M427.752,120.23a2.549,2.549,0,1,1-2.545-2.436A2.493,2.493,0,0,1,427.752,120.23Z" transform="translate(-353.469 -117.794)" fill="#12263f"/>
        <path id="Trazado_116554" data-name="Trazado 116554" d="M436.2,120.23a2.549,2.549,0,1,1-2.545-2.436A2.493,2.493,0,0,1,436.2,120.23Z" transform="translate(-408.043 -117.794)" fill="#12263f"/>
        <path id="Trazado_116555" data-name="Trazado 116555" d="M436.2,120.23a2.549,2.549,0,1,1-2.545-2.436A2.493,2.493,0,0,1,436.2,120.23Z" transform="translate(-350.384 -117.794)" fill="#12263f"/>
        <path id="Trazado_116556" data-name="Trazado 116556" d="M444.645,120.23a2.549,2.549,0,1,1-2.547-2.436A2.494,2.494,0,0,1,444.645,120.23Z" transform="translate(-404.958 -117.794)" fill="#12263f"/>
        <path id="Trazado_116557" data-name="Trazado 116557" d="M444.645,120.23a2.549,2.549,0,1,1-2.547-2.436A2.494,2.494,0,0,1,444.645,120.23Z" transform="translate(-347.298 -117.794)" fill="#12263f"/>
        <path id="Trazado_116558" data-name="Trazado 116558" d="M453.091,120.23a2.549,2.549,0,1,1-2.545-2.436A2.493,2.493,0,0,1,453.091,120.23Z" transform="translate(-401.872 -117.794)" fill="#12263f"/>
      </g>
      <g id="Grupo_156329" data-name="Grupo 156329" transform="translate(0 37.951)">
        <ellipse id="Elipse_3980" data-name="Elipse 3980" cx="2.546" cy="2.435" rx="2.546" ry="2.435" transform="translate(0 0.002)" fill="#12263f"/>
        <ellipse id="Elipse_4744" data-name="Elipse 4744" cx="2.546" cy="2.435" rx="2.546" ry="2.435" transform="translate(57.659 0.002)" fill="#12263f"/>
        <path id="Trazado_99285" data-name="Trazado 99285" d="M427.752,127.738a2.549,2.549,0,1,1-2.545-2.436A2.491,2.491,0,0,1,427.752,127.738Z" transform="translate(-411.129 -125.302)" fill="#12263f"/>
        <path id="Trazado_116536" data-name="Trazado 116536" d="M427.752,127.738a2.549,2.549,0,1,1-2.545-2.436A2.491,2.491,0,0,1,427.752,127.738Z" transform="translate(-353.469 -125.302)" fill="#12263f"/>
        <ellipse id="Elipse_3981" data-name="Elipse 3981" cx="2.546" cy="2.435" rx="2.546" ry="2.435" transform="translate(23.064 0.002)" fill="#12263f"/>
        <ellipse id="Elipse_4745" data-name="Elipse 4745" cx="2.546" cy="2.435" rx="2.546" ry="2.435" transform="translate(80.723 0.002)" fill="#12263f"/>
        <path id="Trazado_99286" data-name="Trazado 99286" d="M444.645,127.738A2.549,2.549,0,1,1,442.1,125.3,2.492,2.492,0,0,1,444.645,127.738Z" transform="translate(-404.958 -125.302)" fill="#12263f"/>
        <path id="Trazado_116537" data-name="Trazado 116537" d="M444.645,127.738A2.549,2.549,0,1,1,442.1,125.3,2.492,2.492,0,0,1,444.645,127.738Z" transform="translate(-347.298 -125.302)" fill="#12263f"/>
        <path id="Trazado_99287" data-name="Trazado 99287" d="M453.091,127.738a2.549,2.549,0,1,1-2.545-2.436A2.491,2.491,0,0,1,453.091,127.738Z" transform="translate(-401.872 -125.302)" fill="#12263f"/>
      </g>
      <g id="Grupo_156326" data-name="Grupo 156326" transform="translate(0 75.904)">
        <ellipse id="Elipse_4754" data-name="Elipse 4754" cx="2.546" cy="2.435" rx="2.546" ry="2.435" transform="translate(0 0.001)" fill="#12263f"/>
        <ellipse id="Elipse_4750" data-name="Elipse 4750" cx="2.546" cy="2.435" rx="2.546" ry="2.435" transform="translate(57.659 0.001)" fill="#12263f"/>
        <path id="Trazado_116548" data-name="Trazado 116548" d="M427.752,127.738a2.549,2.549,0,1,1-2.545-2.436A2.491,2.491,0,0,1,427.752,127.738Z" transform="translate(-411.129 -125.302)" fill="#12263f"/>
        <path id="Trazado_116542" data-name="Trazado 116542" d="M427.752,127.738a2.549,2.549,0,1,1-2.545-2.436A2.491,2.491,0,0,1,427.752,127.738Z" transform="translate(-353.469 -125.302)" fill="#12263f"/>
        <ellipse id="Elipse_4751" data-name="Elipse 4751" cx="2.546" cy="2.435" rx="2.546" ry="2.435" transform="translate(23.064 0.001)" fill="#12263f"/>
        <ellipse id="Elipse_4752" data-name="Elipse 4752" cx="2.546" cy="2.435" rx="2.546" ry="2.435" transform="translate(80.723 0.001)" fill="#12263f"/>
        <path id="Trazado_116543" data-name="Trazado 116543" d="M444.645,127.738A2.549,2.549,0,1,1,442.1,125.3,2.492,2.492,0,0,1,444.645,127.738Z" transform="translate(-404.958 -125.302)" fill="#12263f"/>
        <path id="Trazado_116544" data-name="Trazado 116544" d="M444.645,127.738A2.549,2.549,0,1,1,442.1,125.3,2.492,2.492,0,0,1,444.645,127.738Z" transform="translate(-347.298 -125.302)" fill="#12263f"/>
        <path id="Trazado_116545" data-name="Trazado 116545" d="M453.091,127.738a2.549,2.549,0,1,1-2.545-2.436A2.491,2.491,0,0,1,453.091,127.738Z" transform="translate(-401.872 -125.302)" fill="#12263f"/>
      </g>
      <g id="Grupo_156328" data-name="Grupo 156328" transform="translate(0 50.602)">
        <ellipse id="Elipse_3985" data-name="Elipse 3985" cx="2.546" cy="2.435" rx="2.546" ry="2.435" transform="translate(0 0.001)" fill="#12263f"/>
        <ellipse id="Elipse_4746" data-name="Elipse 4746" cx="2.546" cy="2.435" rx="2.546" ry="2.435" transform="translate(57.659 0.001)" fill="#12263f"/>
        <path id="Trazado_99291" data-name="Trazado 99291" d="M427.752,135.246a2.549,2.549,0,1,1-2.545-2.436A2.491,2.491,0,0,1,427.752,135.246Z" transform="translate(-411.129 -132.81)" fill="#12263f"/>
        <path id="Trazado_116538" data-name="Trazado 116538" d="M427.752,135.246a2.549,2.549,0,1,1-2.545-2.436A2.491,2.491,0,0,1,427.752,135.246Z" transform="translate(-353.469 -132.81)" fill="#12263f"/>
        <ellipse id="Elipse_3986" data-name="Elipse 3986" cx="2.546" cy="2.435" rx="2.546" ry="2.435" transform="translate(23.064 0.001)" fill="#12263f"/>
        <ellipse id="Elipse_4747" data-name="Elipse 4747" cx="2.546" cy="2.435" rx="2.546" ry="2.435" transform="translate(80.723 0.001)" fill="#12263f"/>
        <path id="Trazado_99292" data-name="Trazado 99292" d="M444.645,135.246a2.549,2.549,0,1,1-2.547-2.436A2.492,2.492,0,0,1,444.645,135.246Z" transform="translate(-404.958 -132.81)" fill="#12263f"/>
        <path id="Trazado_116539" data-name="Trazado 116539" d="M444.645,135.246a2.549,2.549,0,1,1-2.547-2.436A2.492,2.492,0,0,1,444.645,135.246Z" transform="translate(-347.298 -132.81)" fill="#12263f"/>
        <path id="Trazado_99293" data-name="Trazado 99293" d="M453.091,135.246a2.549,2.549,0,1,1-2.545-2.436A2.491,2.491,0,0,1,453.091,135.246Z" transform="translate(-401.872 -132.81)" fill="#12263f"/>
      </g>
    </g>
    <g id="Grupo_1015138" data-name="Grupo 1015138" transform="translate(277.562 595.534)">
      <circle id="Elipse_8447" data-name="Elipse 8447" cx="61.186" cy="61.186" r="61.186" transform="translate(0 0)" fill="#6f88da"/>
      <circle id="Elipse_8448" data-name="Elipse 8448" cx="51.264" cy="51.264" r="51.264" transform="translate(9.922 9.922)" fill="#fff"/>
      <g id="Grupo_1018518" data-name="Grupo 1018518" transform="translate(28.965 28.985)">
        <g id="Grupo_1018517" data-name="Grupo 1018517" clip-path="url(#clip-path)">
          <path id="Trazado_731546" data-name="Trazado 731546" d="M0,25.471c.153-.741.27-1.492.464-2.222a13.959,13.959,0,0,1,13.606-10.4h.518A41.869,41.869,0,0,1,16.74,8.59c3.985-6.1,9.693-9.124,16.939-8.512,7.7.651,12.957,4.883,15.75,12.1a.872.872,0,0,0,.986.687A13.94,13.94,0,0,1,60.5,36.515a1.464,1.464,0,0,0-.351.922c-.023,3.691.025,7.382-.027,11.072a5.3,5.3,0,0,1-5.25,5.145c-2.482.035-4.966.023-7.448,0a1.671,1.671,0,0,0-1.347.54c-1.746,1.8-3.532,3.553-5.3,5.329-.394.4-.8.742-1.409.5-.637-.247-.717-.774-.712-1.372.015-1.631.005-3.262.005-4.993-.4,0-.77.007-1.14,0a5.356,5.356,0,0,1-5.3-5.317c-.027-2.259-.006-4.518-.007-6.778v-.755H26.853c0,1.032-.008,2.073.013,3.113,0,.107.157.263.275.309a4.112,4.112,0,0,1,2.907,4.211,4.214,4.214,0,0,1-3.2,4.024v.766c0,1.857,0,3.713,0,5.57,0,.917-.39,1.3-1.313,1.3-1.23.007-2.462.033-3.69-.016a2.557,2.557,0,0,1-1.238-.377c-2.362-1.534-4.7-3.108-7.043-4.667-.183-.122-.372-.234-.63-.4-.018.25-.044.436-.044.622,0,1.678-.07,3.359.016,5.032.1,2.009-.61,3.423-2.568,4.1H8.995c-1.949-.68-2.662-2.084-2.57-4.095.09-1.962.02-3.932.02-5.9v-.748c-.423,0-.755,0-1.087,0a5.411,5.411,0,0,1-3.7-1.492A6.258,6.258,0,0,1,0,49.1V47.488a.726.726,0,0,0,.1-.17,5.351,5.351,0,0,1,5.6-4.393c1.43,0,2.864-.062,4.29.02a3.839,3.839,0,0,0,2.779-.853c.552-.444,1.173-.8,1.762-1.2a1.525,1.525,0,0,0-.671-.118,13.961,13.961,0,0,1-13.39-10.4C.271,29.647.153,28.9,0,28.156V25.471m59.263,9.146a11.547,11.547,0,0,0,3.014-7.2A11.809,11.809,0,0,0,49.191,15.072a1.143,1.143,0,0,1-1.389-.947c-.052-.171-.093-.345-.144-.516A16.034,16.034,0,0,0,29.86,2.3C23.109,3.458,18.718,7.432,16.674,13.975c-.292.934-.613,1.18-1.539,1.08a11.814,11.814,0,1,0-1.242,23.569,16.294,16.294,0,0,0,4.007-.088,11.519,11.519,0,0,0,2.883-1.791,1.531,1.531,0,0,1,.742-.252q2.114-.036,4.228,0A1.05,1.05,0,0,1,26.845,37.6c.017.326,0,.654,0,.98H32.22c0-.2.009-.359,0-.513a5.546,5.546,0,0,1,5.951-5.912c5.3.116,10.6.063,15.906.013a5.788,5.788,0,0,1,5.187,2.45M40.812,56.437c1.515-1.516,2.915-2.893,4.283-4.3a1.96,1.96,0,0,1,1.543-.631c2.683.024,5.366.02,8.049.006a3.2,3.2,0,0,0,3.3-3.241q.028-5.366,0-10.733a3.177,3.177,0,0,0-3.2-3.2q-8.62-.024-17.24,0A3.164,3.164,0,0,0,34.377,37.5q-.036,5.433,0,10.867a3.2,3.2,0,0,0,3.129,3.141c.223.008.447.008.671,0,2.66-.056,2.685,0,2.636,2.668-.013.689,0,1.378,0,2.254m-20.461.545V39.6c-2.452,1.634-4.833,3.21-7.193,4.817a.929.929,0,0,0-.258.677c-.019,2.123,0,4.246-.022,6.368a.893.893,0,0,0,.466.861c1.85,1.209,3.685,2.443,5.525,3.668l1.482.987m-9.637-11.91c-1.836,0-3.6-.017-5.36,0a3.217,3.217,0,0,0,.023,6.434c1.652.02,3.3.006,4.956,0a2.848,2.848,0,0,0,.381-.052Zm13.959-6.4H22.605V57.924h2.067ZM8.592,53.691c0,2.461,0,4.848,0,7.235,0,.837.413,1.331,1.081,1.325s1.063-.5,1.065-1.342q.006-3.381,0-6.763a4.556,4.556,0,0,0-.045-.455Zm18.317-7.162v3.554a2.068,2.068,0,0,0,0-3.554" transform="translate(0 0)" fill="#12263f"/>
          <path id="Trazado_731547" data-name="Trazado 731547" d="M73,48.052a5.788,5.788,0,0,0-5.187-2.45c-5.3.05-10.606.1-15.906-.013A5.546,5.546,0,0,0,45.96,51.5c.011.154,0,.309,0,.512H40.589c0-.326.014-.653,0-.98a1.05,1.05,0,0,0-1.092-1.111q-2.114-.033-4.228,0a1.531,1.531,0,0,0-.742.252,11.518,11.518,0,0,1-2.883,1.791,16.293,16.293,0,0,1-4.007.088A11.814,11.814,0,1,1,28.876,28.49c.927.1,1.247-.146,1.539-1.08C32.459,20.866,36.85,16.892,43.6,15.737A16.034,16.034,0,0,1,61.4,27.042c.051.171.092.345.144.516a1.143,1.143,0,0,0,1.389.947A11.809,11.809,0,0,1,76.018,40.854,11.547,11.547,0,0,1,73,48.052m-31.34-18.5c0-.3,0-.475,0-.65-.01-1.24-.311-1.542-1.545-1.542q-2.818,0-5.636,0c-1.055,0-1.409.354-1.41,1.406q0,4.462,0,8.924c0,1.856,0,3.713,0,5.569,0,.8.362,1.264,1.064,1.272q3.22.036,6.441,0a1.048,1.048,0,0,0,1.08-1.122c.016-.327,0-.656,0-1.155.578.18,1.036.3,1.481.467a6.713,6.713,0,0,0,1.914.712c3.711.068,7.425.058,11.137.021a2.645,2.645,0,0,0,2.35-3.873.805.805,0,0,1,.013-.846,2.388,2.388,0,0,0,.009-2.317.913.913,0,0,1,.017-.972,2.319,2.319,0,0,0,.008-2.194,1.017,1.017,0,0,1-.009-1.035,2.606,2.606,0,0,0-1.768-3.682,5.942,5.942,0,0,0-1.329-.1c-1.018-.013-2.036,0-3.082,0,0-.794.014-1.486,0-2.177a3.221,3.221,0,0,0-3.156-3.187c-.693-.019-1.387-.015-2.08,0a1.085,1.085,0,0,0-1.2,1.208c-.014.693.011,1.387-.009,2.08a3.151,3.151,0,0,1-2.471,3.038,13.962,13.962,0,0,1-1.82.16" transform="translate(-13.741 -13.434)" fill="#dee4f0"/>
          <path id="Trazado_731548" data-name="Trazado 731548" d="M261.85,277.269c0-.875-.011-1.565,0-2.254.049-2.669.025-2.724-2.636-2.668-.223,0-.447.005-.671,0a3.2,3.2,0,0,1-3.129-3.141q-.041-5.433,0-10.867a3.164,3.164,0,0,1,3.168-3.164q8.62-.029,17.24,0a3.177,3.177,0,0,1,3.2,3.2q.033,5.366,0,10.733a3.2,3.2,0,0,1-3.3,3.241c-2.683.014-5.367.018-8.05-.006a1.959,1.959,0,0,0-1.543.631c-1.368,1.408-2.768,2.784-4.283,4.3m8.118-18.883c-1.9,0-3.8,0-5.7,0-.846,0-1.336.4-1.334,1.075s.493,1.069,1.34,1.069q5.637,0,11.275,0c.843,0,1.337-.408,1.335-1.076s-.493-1.066-1.342-1.068c-1.857,0-3.714,0-5.57,0m-.064,4.3c-1.879,0-3.758,0-5.637,0-.848,0-1.337.4-1.337,1.072s.491,1.072,1.337,1.073q5.638.005,11.275,0c.845,0,1.338-.4,1.338-1.073s-.491-1.07-1.338-1.072c-1.879,0-3.758,0-5.637,0m.068,4.3c-1.9,0-3.8,0-5.7,0-.848,0-1.337.4-1.338,1.071s.491,1.073,1.336,1.074q5.637,0,11.275,0c.845,0,1.339-.4,1.339-1.072s-.491-1.071-1.337-1.073c-1.857,0-3.713,0-5.57,0m-10.844-6.453v.008c.156,0,.313.005.47,0a1.075,1.075,0,1,0,.006-2.143,6.987,6.987,0,0,0-1.072.013,1.019,1.019,0,0,0-.967,1.021,1.053,1.053,0,0,0,.961,1.1,4.869,4.869,0,0,0,.6,0m0,4.3v.009c.157,0,.313.005.47,0a1.075,1.075,0,1,0,.015-2.143,8.211,8.211,0,0,0-1.072.01,1.064,1.064,0,0,0-.015,2.119,3.784,3.784,0,0,0,.6,0m.034,2.158c-1.09,0-1.6.347-1.6,1.08s.513,1.068,1.612,1.068,1.6-.35,1.6-1.081-.509-1.066-1.612-1.066" transform="translate(-221.039 -220.832)" fill="#727997"/>
          <path id="Trazado_731549" data-name="Trazado 731549" d="M103.2,311.763l-1.482-.987c-1.84-1.225-3.675-2.459-5.525-3.668a.893.893,0,0,1-.466-.861c.022-2.123,0-4.246.022-6.368A.928.928,0,0,1,96,299.2c2.361-1.606,4.742-3.183,7.193-4.817Z" transform="translate(-82.845 -254.782)" fill="#e8e8e8"/>
          <path id="Trazado_731550" data-name="Trazado 731550" d="M24.543,335v6.389a2.829,2.829,0,0,1-.381.052c-1.652,0-3.3.018-4.956,0A3.217,3.217,0,0,1,19.183,335c1.762-.021,3.524,0,5.36,0" transform="translate(-13.83 -289.925)" fill="#ffca28"/>
          <rect id="Rectángulo_352509" data-name="Rectángulo 352509" width="2.067" height="19.249" transform="translate(22.605 38.675)" fill="#6f88da"/>
          <path id="Trazado_731551" data-name="Trazado 731551" d="M63.86,399.1h2.1a4.557,4.557,0,0,1,.046.455q0,3.381,0,6.763c0,.845-.4,1.336-1.065,1.342s-1.079-.488-1.081-1.325c0-2.387,0-4.774,0-7.235" transform="translate(-55.268 -345.41)" fill="#4adbd1"/>
          <path id="Trazado_731552" data-name="Trazado 731552" d="M200.025,345.864a2.068,2.068,0,0,1,0,3.554Z" transform="translate(-173.116 -299.335)" fill="#ffca28"/>
          <path id="Trazado_731553" data-name="Trazado 731553" d="M152.285,78.022a13.964,13.964,0,0,0,1.82-.16,3.151,3.151,0,0,0,2.471-3.038c.02-.693,0-1.387.009-2.08a1.085,1.085,0,0,1,1.2-1.208c.693-.014,1.387-.017,2.08,0a3.221,3.221,0,0,1,3.156,3.187c.017.691,0,1.384,0,2.177,1.045,0,2.064-.009,3.082,0a5.935,5.935,0,0,1,1.329.1,2.606,2.606,0,0,1,1.768,3.682,1.018,1.018,0,0,0,.008,1.035,2.319,2.319,0,0,1-.008,2.194.913.913,0,0,0-.017.972,2.388,2.388,0,0,1-.009,2.317.805.805,0,0,0-.013.846,2.645,2.645,0,0,1-2.35,3.873c-3.712.036-7.426.047-11.137-.021a6.713,6.713,0,0,1-1.914-.712c-.445-.162-.9-.286-1.481-.467,0,.5.013.827,0,1.155A1.048,1.048,0,0,1,151.2,93q-3.22.029-6.441,0c-.7-.008-1.061-.473-1.064-1.272-.007-1.856,0-3.713,0-5.569q0-4.462,0-8.924c0-1.052.355-1.4,1.41-1.406q2.818,0,5.636,0c1.234,0,1.535.3,1.545,1.542,0,.175,0,.351,0,.65m.033,10.752c1.2-.315,2.087.374,3.051.814a1.92,1.92,0,0,0,.761.195c3.465.013,6.931.018,10.4-.011a.945.945,0,0,0,.744-.445c.131-.44-.241-.565-.642-.634a1.062,1.062,0,0,1-.02-2.1c.359-.065.691-.124.694-.559s-.322-.5-.685-.567a1.062,1.062,0,0,1,0-2.1c.363-.066.743-.153.657-.561-.047-.222-.411-.442-.677-.54a1.109,1.109,0,0,1-.876-1.051,1,1,0,0,1,.906-1.071c.4-.067.772-.195.64-.635a.958.958,0,0,0-.747-.443c-1.43-.043-2.861-.017-4.292-.022-.97,0-1.346-.373-1.353-1.329s.012-1.923-.007-2.884a1.066,1.066,0,0,0-1.12-1.152c-.326-.016-.653,0-1.038,0a5.588,5.588,0,0,1-6.4,6.432ZM150.091,78.03h-4.215v12.8h4.215Z" transform="translate(-124.361 -61.903)" fill="#12263f"/>
          <path id="Trazado_731554" data-name="Trazado 731554" d="M318.432,279.146c1.857,0,3.714,0,5.57,0,.848,0,1.339.4,1.342,1.068s-.491,1.076-1.335,1.076q-5.637.005-11.275,0c-.848,0-1.338-.4-1.341-1.07s.488-1.073,1.334-1.075c1.9,0,3.8,0,5.7,0" transform="translate(-269.502 -241.592)" fill="#fff"/>
          <path id="Trazado_731555" data-name="Trazado 731555" d="M318.369,311.081c1.879,0,3.758,0,5.637,0,.847,0,1.338.4,1.338,1.072s-.493,1.072-1.338,1.073q-5.637,0-11.275,0c-.846,0-1.337-.4-1.337-1.073s.49-1.07,1.337-1.072c1.879,0,3.758,0,5.637,0" transform="translate(-269.502 -269.23)" fill="#fff"/>
          <path id="Trazado_731556" data-name="Trazado 731556" d="M318.436,343.014c1.857,0,3.714,0,5.57,0,.846,0,1.338.4,1.337,1.072s-.494,1.071-1.339,1.072q-5.637,0-11.275,0c-.846,0-1.337-.4-1.336-1.074s.49-1.069,1.338-1.071c1.9,0,3.8,0,5.7,0" transform="translate(-269.502 -296.867)" fill="#fff"/>
          <path id="Trazado_731557" data-name="Trazado 731557" d="M273.056,281.22a4.873,4.873,0,0,1-.6,0,1.053,1.053,0,0,1-.961-1.1,1.019,1.019,0,0,1,.967-1.021,6.983,6.983,0,0,1,1.072-.013,1.075,1.075,0,1,1-.006,2.143c-.156.006-.313,0-.47,0v-.008" transform="translate(-234.966 -241.527)" fill="#fff"/>
          <path id="Trazado_731558" data-name="Trazado 731558" d="M273.056,313.166a3.785,3.785,0,0,1-.6-.005,1.064,1.064,0,0,1,.015-2.119,8.217,8.217,0,0,1,1.072-.01,1.075,1.075,0,1,1-.015,2.142c-.156.006-.313,0-.469,0v-.009" transform="translate(-234.971 -269.178)" fill="#fff"/>
          <path id="Trazado_731559" data-name="Trazado 731559" d="M273.075,343.02c1.1,0,1.607.333,1.612,1.066s-.512,1.081-1.6,1.081-1.607-.337-1.612-1.068.508-1.08,1.6-1.08" transform="translate(-234.955 -296.874)" fill="#fff"/>
          <rect id="Rectángulo_352510" data-name="Rectángulo 352510" width="4.215" height="12.804" transform="translate(21.514 16.127)" fill="#ffca28"/>
        </g>
      </g>
    </g>
  </g>
</svg>
