<svg xmlns="http://www.w3.org/2000/svg" xmlns:xlink="http://www.w3.org/1999/xlink" width="136.934" height="135.983" viewBox="0 0 136.934 135.983">
  <defs>
    <clipPath id="clip-path">
      <rect id="Rectángulo_352528" data-name="Rectángulo 352528" width="61.865" height="67.142" fill="#12263f"/>
    </clipPath>
  </defs>
  <g id="Grupo_1018522" data-name="Grupo 1018522" transform="translate(-263 -595.534)">
    <g id="Grupo_156356" data-name="Grupo 156356" transform="translate(263 650.743)">
      <g id="Grupo_156332" data-name="Grupo 156332" transform="translate(0 0)">
        <path id="Trazado_99257" data-name="Trazado 99257" d="M419.306,105.213a2.549,2.549,0,1,1-2.548-2.434A2.492,2.492,0,0,1,419.306,105.213Z" transform="translate(-414.214 -102.779)" fill="#12263f"/>
        <path id="Trazado_116526" data-name="Trazado 116526" d="M419.306,105.213a2.549,2.549,0,1,1-2.548-2.434A2.492,2.492,0,0,1,419.306,105.213Z" transform="translate(-356.555 -102.779)" fill="#12263f"/>
        <path id="Trazado_99258" data-name="Trazado 99258" d="M427.752,105.213a2.549,2.549,0,1,1-2.545-2.434A2.492,2.492,0,0,1,427.752,105.213Z" transform="translate(-411.129 -102.779)" fill="#12263f"/>
        <path id="Trazado_116527" data-name="Trazado 116527" d="M427.752,105.213a2.549,2.549,0,1,1-2.545-2.434A2.492,2.492,0,0,1,427.752,105.213Z" transform="translate(-353.469 -102.779)" fill="#12263f"/>
        <path id="Trazado_99259" data-name="Trazado 99259" d="M436.2,105.213a2.549,2.549,0,1,1-2.545-2.434A2.492,2.492,0,0,1,436.2,105.213Z" transform="translate(-408.043 -102.779)" fill="#12263f"/>
        <path id="Trazado_116531" data-name="Trazado 116531" d="M436.2,105.213a2.549,2.549,0,1,1-2.545-2.434A2.492,2.492,0,0,1,436.2,105.213Z" transform="translate(-350.384 -102.779)" fill="#12263f"/>
        <path id="Trazado_99260" data-name="Trazado 99260" d="M444.645,105.213a2.549,2.549,0,1,1-2.547-2.434A2.492,2.492,0,0,1,444.645,105.213Z" transform="translate(-404.958 -102.779)" fill="#12263f"/>
        <path id="Trazado_116532" data-name="Trazado 116532" d="M444.645,105.213a2.549,2.549,0,1,1-2.547-2.434A2.492,2.492,0,0,1,444.645,105.213Z" transform="translate(-347.298 -102.779)" fill="#12263f"/>
        <path id="Trazado_99261" data-name="Trazado 99261" d="M453.091,105.213a2.549,2.549,0,1,1-2.545-2.434A2.492,2.492,0,0,1,453.091,105.213Z" transform="translate(-401.872 -102.779)" fill="#12263f"/>
      </g>
      <g id="Grupo_156331" data-name="Grupo 156331" transform="translate(0 12.649)">
        <ellipse id="Elipse_3975" data-name="Elipse 3975" cx="2.546" cy="2.435" rx="2.546" ry="2.435" transform="translate(0 0.001)" fill="#12263f"/>
        <ellipse id="Elipse_4742" data-name="Elipse 4742" cx="2.546" cy="2.435" rx="2.546" ry="2.435" transform="translate(57.659 0.001)" fill="#12263f"/>
        <path id="Trazado_99268" data-name="Trazado 99268" d="M427.752,112.721a2.549,2.549,0,1,1-2.545-2.434A2.493,2.493,0,0,1,427.752,112.721Z" transform="translate(-411.129 -110.287)" fill="#12263f"/>
        <path id="Trazado_116528" data-name="Trazado 116528" d="M427.752,112.721a2.549,2.549,0,1,1-2.545-2.434A2.493,2.493,0,0,1,427.752,112.721Z" transform="translate(-353.469 -110.287)" fill="#12263f"/>
        <ellipse id="Elipse_3976" data-name="Elipse 3976" cx="2.546" cy="2.435" rx="2.546" ry="2.435" transform="translate(23.064 0.001)" fill="#12263f"/>
        <ellipse id="Elipse_4743" data-name="Elipse 4743" cx="2.546" cy="2.435" rx="2.546" ry="2.435" transform="translate(80.723 0.001)" fill="#12263f"/>
        <path id="Trazado_99269" data-name="Trazado 99269" d="M444.645,112.721a2.549,2.549,0,1,1-2.547-2.434A2.494,2.494,0,0,1,444.645,112.721Z" transform="translate(-404.958 -110.287)" fill="#12263f"/>
        <path id="Trazado_116533" data-name="Trazado 116533" d="M444.645,112.721a2.549,2.549,0,1,1-2.547-2.434A2.494,2.494,0,0,1,444.645,112.721Z" transform="translate(-347.298 -110.287)" fill="#12263f"/>
        <path id="Trazado_99270" data-name="Trazado 99270" d="M453.091,112.721a2.549,2.549,0,1,1-2.545-2.434A2.493,2.493,0,0,1,453.091,112.721Z" transform="translate(-401.872 -110.287)" fill="#12263f"/>
      </g>
      <g id="Grupo_156330" data-name="Grupo 156330" transform="translate(0 25.3)">
        <path id="Trazado_99274" data-name="Trazado 99274" d="M419.306,120.23a2.549,2.549,0,1,1-2.548-2.436A2.494,2.494,0,0,1,419.306,120.23Z" transform="translate(-414.214 -117.794)" fill="#12263f"/>
        <path id="Trazado_116529" data-name="Trazado 116529" d="M419.306,120.23a2.549,2.549,0,1,1-2.548-2.436A2.494,2.494,0,0,1,419.306,120.23Z" transform="translate(-356.555 -117.794)" fill="#12263f"/>
        <path id="Trazado_99275" data-name="Trazado 99275" d="M427.752,120.23a2.549,2.549,0,1,1-2.545-2.436A2.493,2.493,0,0,1,427.752,120.23Z" transform="translate(-411.129 -117.794)" fill="#12263f"/>
        <path id="Trazado_116530" data-name="Trazado 116530" d="M427.752,120.23a2.549,2.549,0,1,1-2.545-2.436A2.493,2.493,0,0,1,427.752,120.23Z" transform="translate(-353.469 -117.794)" fill="#12263f"/>
        <path id="Trazado_99276" data-name="Trazado 99276" d="M436.2,120.23a2.549,2.549,0,1,1-2.545-2.436A2.493,2.493,0,0,1,436.2,120.23Z" transform="translate(-408.043 -117.794)" fill="#12263f"/>
        <path id="Trazado_116534" data-name="Trazado 116534" d="M436.2,120.23a2.549,2.549,0,1,1-2.545-2.436A2.493,2.493,0,0,1,436.2,120.23Z" transform="translate(-350.384 -117.794)" fill="#12263f"/>
        <path id="Trazado_99277" data-name="Trazado 99277" d="M444.645,120.23a2.549,2.549,0,1,1-2.547-2.436A2.494,2.494,0,0,1,444.645,120.23Z" transform="translate(-404.958 -117.794)" fill="#12263f"/>
        <path id="Trazado_116535" data-name="Trazado 116535" d="M444.645,120.23a2.549,2.549,0,1,1-2.547-2.436A2.494,2.494,0,0,1,444.645,120.23Z" transform="translate(-347.298 -117.794)" fill="#12263f"/>
        <path id="Trazado_99278" data-name="Trazado 99278" d="M453.091,120.23a2.549,2.549,0,1,1-2.545-2.436A2.493,2.493,0,0,1,453.091,120.23Z" transform="translate(-401.872 -117.794)" fill="#12263f"/>
      </g>
      <g id="Grupo_156327" data-name="Grupo 156327" transform="translate(0 63.252)">
        <path id="Trazado_116550" data-name="Trazado 116550" d="M419.306,120.23a2.549,2.549,0,1,1-2.548-2.436A2.494,2.494,0,0,1,419.306,120.23Z" transform="translate(-414.214 -117.794)" fill="#12263f"/>
        <path id="Trazado_116551" data-name="Trazado 116551" d="M419.306,120.23a2.549,2.549,0,1,1-2.548-2.436A2.494,2.494,0,0,1,419.306,120.23Z" transform="translate(-356.555 -117.794)" fill="#12263f"/>
        <path id="Trazado_116552" data-name="Trazado 116552" d="M427.752,120.23a2.549,2.549,0,1,1-2.545-2.436A2.493,2.493,0,0,1,427.752,120.23Z" transform="translate(-411.129 -117.794)" fill="#12263f"/>
        <path id="Trazado_116553" data-name="Trazado 116553" d="M427.752,120.23a2.549,2.549,0,1,1-2.545-2.436A2.493,2.493,0,0,1,427.752,120.23Z" transform="translate(-353.469 -117.794)" fill="#12263f"/>
        <path id="Trazado_116554" data-name="Trazado 116554" d="M436.2,120.23a2.549,2.549,0,1,1-2.545-2.436A2.493,2.493,0,0,1,436.2,120.23Z" transform="translate(-408.043 -117.794)" fill="#12263f"/>
        <path id="Trazado_116555" data-name="Trazado 116555" d="M436.2,120.23a2.549,2.549,0,1,1-2.545-2.436A2.493,2.493,0,0,1,436.2,120.23Z" transform="translate(-350.384 -117.794)" fill="#12263f"/>
        <path id="Trazado_116556" data-name="Trazado 116556" d="M444.645,120.23a2.549,2.549,0,1,1-2.547-2.436A2.494,2.494,0,0,1,444.645,120.23Z" transform="translate(-404.958 -117.794)" fill="#12263f"/>
        <path id="Trazado_116557" data-name="Trazado 116557" d="M444.645,120.23a2.549,2.549,0,1,1-2.547-2.436A2.494,2.494,0,0,1,444.645,120.23Z" transform="translate(-347.298 -117.794)" fill="#12263f"/>
        <path id="Trazado_116558" data-name="Trazado 116558" d="M453.091,120.23a2.549,2.549,0,1,1-2.545-2.436A2.493,2.493,0,0,1,453.091,120.23Z" transform="translate(-401.872 -117.794)" fill="#12263f"/>
      </g>
      <g id="Grupo_156329" data-name="Grupo 156329" transform="translate(0 37.951)">
        <ellipse id="Elipse_3980" data-name="Elipse 3980" cx="2.546" cy="2.435" rx="2.546" ry="2.435" transform="translate(0 0.002)" fill="#12263f"/>
        <ellipse id="Elipse_4744" data-name="Elipse 4744" cx="2.546" cy="2.435" rx="2.546" ry="2.435" transform="translate(57.659 0.002)" fill="#12263f"/>
        <path id="Trazado_99285" data-name="Trazado 99285" d="M427.752,127.738a2.549,2.549,0,1,1-2.545-2.436A2.491,2.491,0,0,1,427.752,127.738Z" transform="translate(-411.129 -125.302)" fill="#12263f"/>
        <path id="Trazado_116536" data-name="Trazado 116536" d="M427.752,127.738a2.549,2.549,0,1,1-2.545-2.436A2.491,2.491,0,0,1,427.752,127.738Z" transform="translate(-353.469 -125.302)" fill="#12263f"/>
        <ellipse id="Elipse_3981" data-name="Elipse 3981" cx="2.546" cy="2.435" rx="2.546" ry="2.435" transform="translate(23.064 0.002)" fill="#12263f"/>
        <ellipse id="Elipse_4745" data-name="Elipse 4745" cx="2.546" cy="2.435" rx="2.546" ry="2.435" transform="translate(80.723 0.002)" fill="#12263f"/>
        <path id="Trazado_99286" data-name="Trazado 99286" d="M444.645,127.738A2.549,2.549,0,1,1,442.1,125.3,2.492,2.492,0,0,1,444.645,127.738Z" transform="translate(-404.958 -125.302)" fill="#12263f"/>
        <path id="Trazado_116537" data-name="Trazado 116537" d="M444.645,127.738A2.549,2.549,0,1,1,442.1,125.3,2.492,2.492,0,0,1,444.645,127.738Z" transform="translate(-347.298 -125.302)" fill="#12263f"/>
        <path id="Trazado_99287" data-name="Trazado 99287" d="M453.091,127.738a2.549,2.549,0,1,1-2.545-2.436A2.491,2.491,0,0,1,453.091,127.738Z" transform="translate(-401.872 -125.302)" fill="#12263f"/>
      </g>
      <g id="Grupo_156326" data-name="Grupo 156326" transform="translate(0 75.904)">
        <ellipse id="Elipse_4754" data-name="Elipse 4754" cx="2.546" cy="2.435" rx="2.546" ry="2.435" transform="translate(0 0.001)" fill="#12263f"/>
        <ellipse id="Elipse_4750" data-name="Elipse 4750" cx="2.546" cy="2.435" rx="2.546" ry="2.435" transform="translate(57.659 0.001)" fill="#12263f"/>
        <path id="Trazado_116548" data-name="Trazado 116548" d="M427.752,127.738a2.549,2.549,0,1,1-2.545-2.436A2.491,2.491,0,0,1,427.752,127.738Z" transform="translate(-411.129 -125.302)" fill="#12263f"/>
        <path id="Trazado_116542" data-name="Trazado 116542" d="M427.752,127.738a2.549,2.549,0,1,1-2.545-2.436A2.491,2.491,0,0,1,427.752,127.738Z" transform="translate(-353.469 -125.302)" fill="#12263f"/>
        <ellipse id="Elipse_4751" data-name="Elipse 4751" cx="2.546" cy="2.435" rx="2.546" ry="2.435" transform="translate(23.064 0.001)" fill="#12263f"/>
        <ellipse id="Elipse_4752" data-name="Elipse 4752" cx="2.546" cy="2.435" rx="2.546" ry="2.435" transform="translate(80.723 0.001)" fill="#12263f"/>
        <path id="Trazado_116543" data-name="Trazado 116543" d="M444.645,127.738A2.549,2.549,0,1,1,442.1,125.3,2.492,2.492,0,0,1,444.645,127.738Z" transform="translate(-404.958 -125.302)" fill="#12263f"/>
        <path id="Trazado_116544" data-name="Trazado 116544" d="M444.645,127.738A2.549,2.549,0,1,1,442.1,125.3,2.492,2.492,0,0,1,444.645,127.738Z" transform="translate(-347.298 -125.302)" fill="#12263f"/>
        <path id="Trazado_116545" data-name="Trazado 116545" d="M453.091,127.738a2.549,2.549,0,1,1-2.545-2.436A2.491,2.491,0,0,1,453.091,127.738Z" transform="translate(-401.872 -125.302)" fill="#12263f"/>
      </g>
      <g id="Grupo_156328" data-name="Grupo 156328" transform="translate(0 50.602)">
        <ellipse id="Elipse_3985" data-name="Elipse 3985" cx="2.546" cy="2.435" rx="2.546" ry="2.435" transform="translate(0 0.001)" fill="#12263f"/>
        <ellipse id="Elipse_4746" data-name="Elipse 4746" cx="2.546" cy="2.435" rx="2.546" ry="2.435" transform="translate(57.659 0.001)" fill="#12263f"/>
        <path id="Trazado_99291" data-name="Trazado 99291" d="M427.752,135.246a2.549,2.549,0,1,1-2.545-2.436A2.491,2.491,0,0,1,427.752,135.246Z" transform="translate(-411.129 -132.81)" fill="#12263f"/>
        <path id="Trazado_116538" data-name="Trazado 116538" d="M427.752,135.246a2.549,2.549,0,1,1-2.545-2.436A2.491,2.491,0,0,1,427.752,135.246Z" transform="translate(-353.469 -132.81)" fill="#12263f"/>
        <ellipse id="Elipse_3986" data-name="Elipse 3986" cx="2.546" cy="2.435" rx="2.546" ry="2.435" transform="translate(23.064 0.001)" fill="#12263f"/>
        <ellipse id="Elipse_4747" data-name="Elipse 4747" cx="2.546" cy="2.435" rx="2.546" ry="2.435" transform="translate(80.723 0.001)" fill="#12263f"/>
        <path id="Trazado_99292" data-name="Trazado 99292" d="M444.645,135.246a2.549,2.549,0,1,1-2.547-2.436A2.492,2.492,0,0,1,444.645,135.246Z" transform="translate(-404.958 -132.81)" fill="#12263f"/>
        <path id="Trazado_116539" data-name="Trazado 116539" d="M444.645,135.246a2.549,2.549,0,1,1-2.547-2.436A2.492,2.492,0,0,1,444.645,135.246Z" transform="translate(-347.298 -132.81)" fill="#12263f"/>
        <path id="Trazado_99293" data-name="Trazado 99293" d="M453.091,135.246a2.549,2.549,0,1,1-2.545-2.436A2.491,2.491,0,0,1,453.091,135.246Z" transform="translate(-401.872 -132.81)" fill="#12263f"/>
      </g>
    </g>
    <g id="Grupo_1015138" data-name="Grupo 1015138" transform="translate(277.562 595.534)">
      <circle id="Elipse_8447" data-name="Elipse 8447" cx="61.186" cy="61.186" r="61.186" transform="translate(0 0)" fill="#6f88da"/>
      <circle id="Elipse_8448" data-name="Elipse 8448" cx="51.264" cy="51.264" r="51.264" transform="translate(9.922 9.922)" fill="#fff"/>
      <g id="Grupo_1018532" data-name="Grupo 1018532" transform="translate(30.905 25.826)">
        <g id="Grupo_1018532-2" data-name="Grupo 1018532" clip-path="url(#clip-path)">
          <path id="Trazado_731565" data-name="Trazado 731565" d="M55.1,82.595h-4c-.024-.848-.622-.866-1.243-.866q-8.3,0-16.595.007a.911.911,0,0,1-1.041-.661,13.322,13.322,0,0,0-1.659-3.191c-.236-.3-.181-.408.144-.469q.925-.174,1.854-.326c.592-.1,1.026-.615.85-1.106-.206-.572-.62-.566-1.169-.423a22.951,22.951,0,0,1-5.359.842,32.1,32.1,0,0,0-7.226.921c-3.081.774-6.413-2.492-5.346-5.545a3.308,3.308,0,0,0-1.222-4.252,1.872,1.872,0,0,1-.343-.342c-.4-.475-.562-.9,0-1.432.71-.67.559-1.153-.352-1.452-.959-.315-1.1-.792-.462-1.582.118-.146.265-.269.391-.41a1.838,1.838,0,0,0-.375-2.9c-.487-.308-1.012-.52-1.518-.78-1.152-.591-2.189-1.42-1.223-3.067a16.189,16.189,0,0,1,3.173-4.127,12.75,12.75,0,0,0,1.894-2.357,8,8,0,0,0,1.45-4.977c-.081-1.958-.081-3.913-.116-5.87a3.255,3.255,0,0,1,.042-1.042,2.856,2.856,0,0,0-.213-2.354,10.459,10.459,0,0,1,.822-3.431c.492.1.764-.112,1.009-.551a24.877,24.877,0,0,1,4.192-5.535c.643-.638,1.315-1.243,1.994-1.843a14.286,14.286,0,0,1,2.932-2.111A18.272,18.272,0,0,1,31.156,19.3q0,2.1.005,4.2A10.666,10.666,0,0,0,25.354,27.4a5.51,5.51,0,0,1-1.8,1.56,9.27,9.27,0,0,0-4.224,4.718c-.086.024-.163.054-.118.17l-.2.809c-.1.014-.162.05-.132.165-.343.764.19,1.652-.341,2.4a.573.573,0,0,0,0,.474,10.4,10.4,0,0,1,.3,1.952,7.508,7.508,0,0,0,2.924,4.8A2.088,2.088,0,0,1,22.8,46.539c-.1,1.4-.048,2.8-.015,4.206a1.354,1.354,0,0,1-.477,1.112c-.9.854-1.8,1.712-2.622,2.639a1.231,1.231,0,0,1-1.44.376,2.585,2.585,0,0,0-3.141,1.573,2.951,2.951,0,0,0,.779,3.476,2.928,2.928,0,0,0,4.555-3.342.635.635,0,0,1,.2-.809c1.1-1.077,2.166-2.182,3.27-3.251a1.411,1.411,0,0,0,.477-1.126c-.024-1.618,0-3.237-.013-4.855,0-.437,0-.612.573-.416a17.222,17.222,0,0,0,3.618.72l.115.123c.012,1.614.037,3.228.026,4.842a.741.741,0,0,0,.61.806.786.786,0,0,0,.85-.45,1.514,1.514,0,0,0,.15-.775c-.009-1.238.038-2.478-.021-3.713-.032-.679.123-1.014.85-.886,0,.458.011.917.006,1.376a8.765,8.765,0,0,0,1.806,5.8,5.23,5.23,0,0,0,2.879,2.073c.011.781.064,1.564.021,2.342a1.933,1.933,0,0,0,.683,1.695c.842.755,1.585,1.619,2.423,2.379.576.523.9,1.015.484,1.8a1.428,1.428,0,0,0-.018.875,3.276,3.276,0,0,0,2.775,2.567,2.772,2.772,0,0,0,1.687-.547A3.611,3.611,0,0,0,45.067,65.5,2.719,2.719,0,0,0,42.1,61.931a2.439,2.439,0,0,1-2.474-1.068,5.419,5.419,0,0,0-.861-.851A2.871,2.871,0,0,1,37.5,56.845q12.308,0,24.615.005c.361,0,.773-.125,1.032.279-.547,1.362-1.126,2.712-1.636,4.088a72.612,72.612,0,0,0-2.856,9.891,58.863,58.863,0,0,0-1.43,9.577c-.052,1.063-.083,1.117-1.126,1.088-.614-.017-.988.158-1.006.822M56.72,61.207c0-1.159,0-1.94,0-2.721a.879.879,0,0,0-.913-.97c-.5,0-.752.373-.7.939.052.588-.073,1.2.027,1.774a4.51,4.51,0,0,1-1.984,4.7,1.094,1.094,0,0,1-1.071.289,2.9,2.9,0,1,0,.2,5.5A2.8,2.8,0,0,0,54,66.974c-.121-.407-.1-.617.2-.864.208-.169.365-.4.578-.562,1.579-1.192,2.452-2.669,1.949-4.341M30.315,56.965c0-.619.034-1.241-.01-1.857a.843.843,0,0,0-.941-.861c-.642,0-.643.429-.647.862-.009,1.1-.025,2.208.007,3.311a.73.73,0,0,1-.508.818,2.874,2.874,0,0,0,.225,5.37,2.74,2.74,0,0,0,3.533-1.4,2.534,2.534,0,0,0-.716-3.513c-1.082-.6-.933-1.378-.942-2.249,0-.162,0-.323,0-.485m11.8,13c-.413-.043-.606.194-.774.538A5.346,5.346,0,0,1,39.713,72.4a13.393,13.393,0,0,1-3.965,2.141.693.693,0,0,0-.487.991c.16.313.376.707,1,.477A17.849,17.849,0,0,0,40.1,74.137a6.376,6.376,0,0,0,2.723-3.107c.238-.69-.018-1.083-.706-1.068" transform="translate(-7.399 -16.177)" fill="#dee4f0"/>
          <path id="Trazado_731566" data-name="Trazado 731566" d="M210.856,19.455c.467.671.949,1.332,1.394,2.017.154.237.4.438.4.762a1.169,1.169,0,0,0-.1,1.3,36.349,36.349,0,0,1,1.525,3.742,20.959,20.959,0,0,1,.816,5.341,20.643,20.643,0,0,1-.286,4.931,28.867,28.867,0,0,1-1.18,4.59,10.728,10.728,0,0,1-5.974-2.115c-.4-.3-.853-.577-.965-1.132.367-.39.735-.778,1.1-1.17.28-.3.685-.558.813-.914.732-2.049,1.608-4.059.984-6.361a6.3,6.3,0,0,0-1.126-2.758A8.012,8.012,0,0,1,206.32,23.9a4.658,4.658,0,0,0-.345-.95,10.227,10.227,0,0,0-7.447-5.739,19.621,19.621,0,0,1-4.621-1.407,10.51,10.51,0,0,0-4.518-.9c-1.021-.018-1.981.287-2.98.317a14.186,14.186,0,0,1-1.782-4.958c.265-.011.469-.2.757-.2a35.353,35.353,0,0,1,8.66.651,33.107,33.107,0,0,1,11.283,5.024c.034.084.066.169.186.129.169.121.345.234.505.365a25.485,25.485,0,0,1,3.314,2.946c.605.7.818.788,1.524.274" transform="translate(-154.716 -8.433)" fill="#dee4f0"/>
          <path id="Trazado_731567" data-name="Trazado 731567" d="M5.082,152.831a6.88,6.88,0,0,1,.463-1.977,1.125,1.125,0,0,0-.4-1.377,4.347,4.347,0,0,1-1.727-2.316,1.042,1.042,0,0,1-.046-.624c.378-.8-.105-1.23-.644-1.653-.086-.21.106-.5-.178-.652a3.318,3.318,0,0,1,.96-2.5c.513-.5.45-.742-.251-1a5.94,5.94,0,0,1-2.167-1.238c-1.458-1.414-1.342-3.253-.31-5.008,1.384-2.354,3.616-3.983,4.962-6.317a8.067,8.067,0,0,0,.916-5.083,21.459,21.459,0,0,1,.047-5.307c.081-.575.093-1.155.18-1.733.115-.755.46-1.006,1.158-.93a2.857,2.857,0,0,1,.213,2.354,3.254,3.254,0,0,0-.042,1.042c.035,1.956.035,3.912.116,5.87a8,8,0,0,1-1.45,4.977,12.762,12.762,0,0,1-1.894,2.357,16.19,16.19,0,0,0-3.173,4.127c-.966,1.646.071,2.475,1.223,3.067.506.26,1.032.471,1.518.779a1.838,1.838,0,0,1,.375,2.9c-.126.14-.273.263-.391.41-.638.79-.5,1.267.462,1.581.911.3,1.062.782.352,1.452-.566.534-.4.957,0,1.433a1.865,1.865,0,0,0,.343.342,3.308,3.308,0,0,1,1.222,4.252c-1.067,3.053,2.265,6.319,5.346,5.545a32.118,32.118,0,0,1,7.226-.921,22.956,22.956,0,0,0,5.359-.842c.549-.144.963-.15,1.169.422.176.491-.257,1.009-.85,1.106q-.929.152-1.854.326c-.325.061-.38.173-.144.469a13.318,13.318,0,0,1,1.659,3.191.911.911,0,0,0,1.041.661q8.3-.015,16.595-.007c.621,0,1.218.018,1.242.866-.129.651-.609.72-1.153.719q-3.84-.009-7.68,0c-3.287,0-6.575-.009-9.863.007a1.189,1.189,0,0,1-1.368-.9,26.289,26.289,0,0,0-1.312-2.838,2.532,2.532,0,0,0-2.448-1.509,36.023,36.023,0,0,0-7.394.774,6.045,6.045,0,0,1-7.364-6.045,2.019,2.019,0,0,0-.036-.239" transform="translate(0.001 -96.448)" fill="#12263f"/>
          <path id="Trazado_731568" data-name="Trazado 731568" d="M305.424,104.9a28.847,28.847,0,0,0,1.18-4.59,20.661,20.661,0,0,0,.286-4.931,20.973,20.973,0,0,0-.816-5.341A36.332,36.332,0,0,0,304.55,86.3a1.17,1.17,0,0,1,.1-1.3c.667-.154,1.01.181,1.3.749a35.341,35.341,0,0,1,1.641,3.931,25.92,25.92,0,0,1,.807,4.537c-.177.825.3,1.606.163,2.428q-.023.321-.046.642c-.279.107-.331.268-.116.493a23.19,23.19,0,0,1-.523,4.206c-.241.019-.478.04-.163.332a5.24,5.24,0,0,1-.322,1.612c-.187.055-.145.194-.12.327l-.051.479c-.187.059-.146.2-.113.331a8.027,8.027,0,0,0-.622,1.835c.016.323-.518.371-.379.756l-.329,1.122c-.087.024-.163.056-.12.171l-.366.962c-.087.024-.163.057-.121.172l-.759,1.651c-.094.2-.279.364-.259.614l0,0c-.088.023-.161.056-.121.17l-.272.679c-.094.2-.281.366-.255.617a1.641,1.641,0,0,0-.323.8c-.149.138-.418.2-.315.5q-.216.677-.43,1.354c-.04.2-.3.336-.2.59-.815,2.231-1.5,4.5-2.1,6.8l-.062.475a30.888,30.888,0,0,0-1.125,5.181,24.989,24.989,0,0,0-.615,3.759,35.867,35.867,0,0,0-.344,4.355.68.68,0,0,1-.738.691c-.724.027-1.45.013-2.175,0-.442-.008-.693-.225-.665-.7.018-.664.392-.839,1.006-.822,1.042.029,1.073-.025,1.125-1.088a58.859,58.859,0,0,1,1.43-9.577,72.608,72.608,0,0,1,2.856-9.891c.51-1.375,1.089-2.726,1.636-4.088a47.838,47.838,0,0,0,2.423-5.479c.165-.593.355-1.179.533-1.768" transform="translate(-246.715 -71.196)" fill="#12263f"/>
          <path id="Trazado_731569" data-name="Trazado 731569" d="M94.157,7.307A33.109,33.109,0,0,0,82.873,2.283a35.352,35.352,0,0,0-8.66-.651c-.288,0-.492.189-.757.2a6.1,6.1,0,0,0-2.735.325c-1.137.333-2.4.23-3.418.97a18.272,18.272,0,0,0-4.766,2.062A14.281,14.281,0,0,0,59.605,7.3c-.679.6-1.351,1.2-1.994,1.843a24.869,24.869,0,0,0-4.192,5.535c-.246.439-.518.65-1.009.551a1.083,1.083,0,0,1-.192-1.586A21.5,21.5,0,0,1,55.489,9.17a15.032,15.032,0,0,1,1.917-2.028l.179-.127,2.129-1.8c1.256-.618,2.348-1.507,3.606-2.129a27.819,27.819,0,0,1,7.4-2.536C71.635.383,72.6.275,73.529.14A26.53,26.53,0,0,1,77.986.047a28.655,28.655,0,0,1,10.3,2.295,32.328,32.328,0,0,1,7.689,4.338,21.668,21.668,0,0,1,3.674,3.409.685.685,0,0,1,.034.933c-.706.514-.919.43-1.524-.274A25.482,25.482,0,0,0,94.848,7.8c-.161-.132-.337-.244-.506-.365Z" transform="translate(-43.545 0.001)" fill="#12263f"/>
          <path id="Trazado_731570" data-name="Trazado 731570" d="M70.245,40.268c1-.031,1.959-.335,2.98-.317a10.507,10.507,0,0,1,4.518.9,19.627,19.627,0,0,0,4.621,1.407A10.227,10.227,0,0,1,89.811,48a4.674,4.674,0,0,1,.345.95,8.009,8.009,0,0,0,1.936,3.784,6.3,6.3,0,0,1,1.125,2.758c.624,2.3-.251,4.313-.984,6.362-.127.356-.533.614-.813.914-.365.391-.733.78-1.1,1.17a6.645,6.645,0,0,1-1.951,1.3c-.437.16-.5.424-.5.836.022,1.538.014,3.076.006,4.614,0,.661-.488,1.271-.976,1.17-.58-.119-.632-.61-.627-1.114.011-1.263,0-2.526,0-3.8a.969.969,0,0,0-.588.256,4.989,4.989,0,0,1-2.117,1.152c-.624.132-.6.553-.512,1a16.906,16.906,0,0,0,.9,2.9c.307.786-.039,1.207-.885,1.255-1.532.087-3.049-.239-4.575-.157A1.816,1.816,0,0,1,76.8,72.5a22.471,22.471,0,0,0-4.779-5.189c0-.267-.133-.227-.293-.134a1.631,1.631,0,0,0-1.4-.492,3.549,3.549,0,0,1-1.544-.133c-.129-.033-.152.033-.13.14l0,7.451a2.871,2.871,0,0,0,1.258,3.167,5.411,5.411,0,0,1,.861.851,2.439,2.439,0,0,0,2.474,1.068,2.719,2.719,0,0,1,2.971,3.574,3.61,3.61,0,0,1-1.173,1.642A2.771,2.771,0,0,1,73.361,85a3.276,3.276,0,0,1-2.775-2.567,1.428,1.428,0,0,1,.018-.875c.418-.786.092-1.278-.484-1.8-.838-.76-1.581-1.624-2.423-2.379a1.933,1.933,0,0,1-.683-1.695c.043-.778-.01-1.561-.021-2.342.011-2.266.017-4.531.038-6.8,0-.312-.105-.4-.4-.537a11.16,11.16,0,0,1-2.857-1.63c-.388-.348-.885-.689-1.47-.286-.728-.129-.883.207-.85.886.059,1.235.012,2.475.021,3.714a1.516,1.516,0,0,1-.149.775.786.786,0,0,1-.85.45.741.741,0,0,1-.61-.806c.011-1.614-.014-3.228-.026-4.842.034-.109-.012-.143-.115-.123a17.208,17.208,0,0,1-3.618-.72c-.572-.2-.575-.022-.573.416.009,1.618-.011,3.237.013,4.855a1.412,1.412,0,0,1-.477,1.126c-1.1,1.069-2.173,2.175-3.27,3.251a.635.635,0,0,0-.2.809,2.928,2.928,0,0,1-4.555,3.342,2.951,2.951,0,0,1-.779-3.476,2.584,2.584,0,0,1,3.141-1.573,1.232,1.232,0,0,0,1.44-.376c.821-.927,1.723-1.784,2.622-2.638a1.354,1.354,0,0,0,.477-1.112c-.033-1.4-.089-2.811.014-4.206a2.088,2.088,0,0,0-1.047-2.094,7.508,7.508,0,0,1-2.924-4.8,10.382,10.382,0,0,0-.3-1.952.573.573,0,0,1,0-.474c.53-.748,0-1.635.341-2.4l.132-.165.2-.809.118-.17a9.272,9.272,0,0,1,4.224-4.718,5.51,5.51,0,0,0,1.8-1.56,10.667,10.667,0,0,1,5.808-3.894,13.228,13.228,0,0,1,5.122-.025c.377.066.76.343,1.147.113a12.366,12.366,0,0,1,1.661-.626M49.85,75.819a1.158,1.158,0,0,0,.132-1.587,1.223,1.223,0,0,0-1.753-.391c-.772.72-.854,1.229-.306,1.893s1.158.7,1.927.084M72.7,80.983a1.364,1.364,0,0,0-.142,2.023,1.266,1.266,0,0,0,1.9-.116,1.22,1.22,0,0,0,.055-1.723,1.372,1.372,0,0,0-1.81-.183M80.768,46.59l-.121-.13a.815.815,0,0,1-.2-.665,2.4,2.4,0,0,0-.9-2.111,8.486,8.486,0,0,0-2.515-1.464c-1.885-.835-3.87-.589-5.832-.613-.206,0-.528-.152-.608.18-.069.291.259.35.411.518.642.712,1.63,1.192,1.64,2.346-.438.358-.843.957-1.433.194a.316.316,0,0,0-.172-.328.785.785,0,0,1-.13-.012,3.833,3.833,0,0,0-.5-.613c-.666-.54-1.316-1.4-2.046-1.486-.976-.109-1.969-.291-2.96-.31a8.62,8.62,0,0,0-6.774,2.558c-.576.615-1.52,1.179-1.313,2.3a3.337,3.337,0,0,0,1.226,3.1c.554.486.3.918-.124,1.346-.45.457-.694.016-.985-.2a5.75,5.75,0,0,1-.472-.432.192.192,0,0,0-.094-.1c-.642-.5-.644-1.338-1.04-1.968a1.643,1.643,0,0,0-.014-.481c-.156-.464-.215-.869-.9-.32a9.783,9.783,0,0,0-3.1,3.88,8.475,8.475,0,0,0-.375,4.219,6.686,6.686,0,0,0,3.536,5.249,11.947,11.947,0,0,0,6.262,1.226c.179-.007.416.1.523-.083.133-.224-.1-.4-.207-.566-2.093-3.342-1.422-6.257.623-8.778a7.318,7.318,0,0,1,6.573-2.711,1.293,1.293,0,0,0,1.043-.293c.429-.4.869-.783,1.256-1.218a.6.6,0,0,1,.905-.124c.355.234.506.489.257.912a3.917,3.917,0,0,1-1.046,1.294c-.466.316-.4.446-.1.82A2.563,2.563,0,0,1,71,55.182a.726.726,0,0,1-1.044.116c-.345-.271-.291-.572-.1-.957a1.539,1.539,0,0,0-.614-2.22,2.43,2.43,0,0,0-1.694-.3A7.206,7.206,0,0,0,64.364,53.1a5.927,5.927,0,0,0-1.913,6.983,8.344,8.344,0,0,0,4.7,4.422,6.051,6.051,0,0,0,8.33-3.48l.1-.162c.187-.449-.012-.954.218-1.4a6.377,6.377,0,0,1,4.572-3.527c1.955-.386,3.808.2,4.353,2.611.12.53.054.873-.425,1.012a.8.8,0,0,1-1.1-.631c-.316-1.174-.678-1.463-1.838-1.453a4.413,4.413,0,0,0-3.7,2.027,2.358,2.358,0,0,0,.844,3.627c1.539.651,3.027.114,2.9-1.831a2.613,2.613,0,0,1,.007-.646c.077-.4.182-.792.742-.76a.8.8,0,0,1,.857.757,8.008,8.008,0,0,1,.009,1.212A3.258,3.258,0,0,1,80.551,64.9a4.284,4.284,0,0,1-3.887-1.249c-.265-.29-.357-.467-.738,0a7.464,7.464,0,0,1-3.009,2.33,1.813,1.813,0,0,0,.285.308,21.2,21.2,0,0,1,4.613,4.859,1.213,1.213,0,0,0,1.337.55,2.477,2.477,0,0,1,1.139.062l.169.115a7.159,7.159,0,0,1,1.093-.147c.6.008.6-.261.4-.7a1.87,1.87,0,0,1-.263-.74c.02-.754-.225-1.469-.263-2.206a.8.8,0,0,1,.667-.927,5.976,5.976,0,0,0,4-2.733l.174-.111a6.534,6.534,0,0,0,4.718-3.75c1.933-3.6.9-8.113-3.582-9.061-.4-.009-.807-.013-1.211-.028a2.717,2.717,0,0,0-1.875.294c-.375.263-.8.487-1.175.773a.65.65,0,0,1-.86.028.821.821,0,0,1-.372-.9c.071-.311.34-.474.568-.653a8.213,8.213,0,0,1,3.154-1.189,9.235,9.235,0,0,1,2.509.326c.472.159.862.116.587-.66a8.64,8.64,0,0,0-3.175-4.265,8.522,8.522,0,0,0-4-1.547,2.952,2.952,0,0,1,.511,2.149c0,.868-.452,1.132-1.3.762" transform="translate(-38.552 -33.478)" fill="#12263f"/>
          <path id="Trazado_731571" data-name="Trazado 731571" d="M185.944,190.625a3.549,3.549,0,0,0,1.544.133,1.63,1.63,0,0,1,1.4.492c.011.235.171.142.293.134a22.475,22.475,0,0,1,4.779,5.189,1.816,1.816,0,0,0,1.694.848c1.526-.082,3.043.244,4.575.157.846-.048,1.192-.469.885-1.255a16.921,16.921,0,0,1-.9-2.9c-.088-.45-.112-.872.512-1a4.989,4.989,0,0,0,2.117-1.152.97.97,0,0,1,.588-.256c0,1.277.007,2.541,0,3.8,0,.5.047,1,.627,1.115.488.1.973-.509.976-1.17.008-1.538.016-3.076-.006-4.614-.006-.412.061-.677.5-.836a6.649,6.649,0,0,0,1.951-1.3c.112.555.563.832.965,1.132a10.729,10.729,0,0,0,5.974,2.115c-.178.589-.369,1.175-.533,1.768a47.854,47.854,0,0,1-2.423,5.479c-.259-.4-.671-.279-1.032-.279q-12.308-.008-24.615-.005l0-7.45.13-.14" transform="translate(-155.711 -157.547)" fill="#6f88da"/>
          <path id="Trazado_731572" data-name="Trazado 731572" d="M261.265,258.859c.5,1.672-.37,3.148-1.949,4.341-.213.161-.371.393-.578.563-.3.247-.319.457-.2.864a2.8,2.8,0,0,1-1.722,3.743,2.9,2.9,0,1,1-.2-5.5,1.094,1.094,0,0,0,1.071-.29,4.51,4.51,0,0,0,1.984-4.7c-.1-.575.026-1.186-.027-1.774-.051-.566.2-.938.7-.939a.879.879,0,0,1,.913.97c0,.781,0,1.562,0,2.721m-4.507,7.661a1.222,1.222,0,0,0,.1-1.717,1.259,1.259,0,0,0-1.714-.255c-.782.766-.852,1.215-.292,1.879s1.1.7,1.911.094" transform="translate(-211.944 -213.829)" fill="#12263f"/>
          <path id="Trazado_731573" data-name="Trazado 731573" d="M146.6,188c.585-.4,1.082-.062,1.47.285a11.154,11.154,0,0,0,2.857,1.63c.3.139.4.225.4.537-.021,2.266-.027,4.531-.038,6.8a5.231,5.231,0,0,1-2.879-2.073,8.766,8.766,0,0,1-1.806-5.8c.005-.458,0-.917-.006-1.376" transform="translate(-122.849 -157.386)" fill="#6f88da"/>
          <path id="Trazado_731574" data-name="Trazado 731574" d="M121.5,237.711c0,.162,0,.323,0,.485.009.871-.14,1.651.942,2.249a2.534,2.534,0,0,1,.716,3.513,2.74,2.74,0,0,1-3.533,1.4,2.874,2.874,0,0,1-.225-5.37.73.73,0,0,0,.508-.818c-.032-1.1-.016-2.207-.007-3.311,0-.433.005-.867.647-.862a.843.843,0,0,1,.941.861c.044.616.01,1.238.011,1.857m.174,5.7a1.368,1.368,0,0,0-.15-1.732,1.123,1.123,0,0,0-1.638-.058c-.788.679-.867,1.287-.232,1.938.543.556,1.232.754,2.02-.148" transform="translate(-98.583 -196.922)" fill="#12263f"/>
          <path id="Trazado_731575" data-name="Trazado 731575" d="M178.422,331.964c.689-.014.944.379.706,1.069a6.377,6.377,0,0,1-2.723,3.107,17.85,17.85,0,0,1-3.842,1.876c-.622.23-.839-.164-1-.477a.693.693,0,0,1,.487-.99,13.392,13.392,0,0,0,3.965-2.141,5.348,5.348,0,0,0,1.632-1.906c.168-.343.36-.581.773-.538" transform="translate(-143.704 -278.179)" fill="#12263f"/>
          <path id="Trazado_731576" data-name="Trazado 731576" d="M130.669,189.243c.1-.019.149.014.115.123l-.115-.123" transform="translate(-109.5 -158.58)" fill="#12263f"/>
          <path id="Trazado_731577" data-name="Trazado 731577" d="M70.938,114.059l-.132.165c-.03-.114.037-.151.132-.165" transform="translate(-59.329 -95.581)" fill="#12263f"/>
          <path id="Trazado_731578" data-name="Trazado 731578" d="M72.964,108.019l-.118.17c-.046-.116.032-.146.118-.17" transform="translate(-61.033 -90.519)" fill="#12263f"/>
          <path id="Trazado_731579" data-name="Trazado 731579" d="M360.717,239.128c-.042-.115.034-.148.121-.172l-.121.172" transform="translate(-302.268 -200.243)" fill="#12263f"/>
          <path id="Trazado_731580" data-name="Trazado 731580" d="M363.721,232.137c-.043-.115.033-.147.12-.171l-.12.171" transform="translate(-304.785 -194.386)" fill="#12263f"/>
          <path id="Trazado_731581" data-name="Trazado 731581" d="M103,84.575a6.051,6.051,0,0,1-8.33,3.48,8.343,8.343,0,0,1-4.7-4.422,5.926,5.926,0,0,1,1.912-6.983,7.205,7.205,0,0,1,3.186-1.277,2.429,2.429,0,0,1,1.694.3,1.539,1.539,0,0,1,.614,2.22c-.194.385-.248.686.1.957a.726.726,0,0,0,1.044-.116,2.563,2.563,0,0,0,.066-3.448c-.3-.374-.367-.5.1-.82a3.915,3.915,0,0,0,1.046-1.294c.249-.422.1-.678-.257-.911a.6.6,0,0,0-.906.123c-.387.435-.827.822-1.256,1.218a1.293,1.293,0,0,1-1.043.293,7.319,7.319,0,0,0-6.573,2.711c-2.046,2.521-2.716,5.436-.623,8.779.106.17.34.342.207.566-.106.179-.344.076-.523.084a11.949,11.949,0,0,1-6.262-1.226,6.686,6.686,0,0,1-3.536-5.249,8.475,8.475,0,0,1,.375-4.219c1.389-.959,3.017-1.607,4.013-3.079.4.63.4,1.468,1.039,1.968-.032.092,0,.127.094.1a5.67,5.67,0,0,0,.472.432c.291.215.535.656.985.2.421-.428.678-.86.124-1.346a3.336,3.336,0,0,1-1.226-3.1,16.464,16.464,0,0,1,4.37-1.626A11.85,11.85,0,0,1,92.895,69a2.678,2.678,0,0,0-1.141.313,6.717,6.717,0,0,0-2.7,3.741c-.156.437.251.777.665.952.4.167.65.006.816-.389a11.342,11.342,0,0,1,.75-1.579,2.26,2.26,0,0,1,2.066-1.39,4.091,4.091,0,0,1,2.486,1.265c.418.354.818.611,1.238.138a.874.874,0,0,0-.139-1.334,7.472,7.472,0,0,0-2.411-1.54c.19-.208.468-.231.7-.343,1.016-.485,2.185-.318,3.2-.773a.781.781,0,0,0,.13.012c.039.119.012.272.172.328.59.763,1,.164,1.433-.194l.991.052a4.027,4.027,0,0,0-.13,3.448,5.349,5.349,0,0,0,2.944,2.831,1.1,1.1,0,0,1,.283,2.024,2.219,2.219,0,0,0-.558.432c-.226.314-.435.639-.116,1.012a.744.744,0,0,0,1.008.165c1.01-.535,1.873-1.164,1.77-2.5-.03-.393.059-.8.592-.788a4.158,4.158,0,0,0,2.364-1.013.837.837,0,0,0,.294-1.3c-.358-.485-.776-.351-1.238.007a3.59,3.59,0,0,1-4.866-.262,3.346,3.346,0,0,1-1-3.607,7.552,7.552,0,0,1,2.62,1.189,1.485,1.485,0,0,0,.893.281,9.843,9.843,0,0,1,5.194,1.474,3.958,3.958,0,0,1,1.941,1.727A8.212,8.212,0,0,0,110,74.568c-.228.179-.5.342-.568.653a.821.821,0,0,0,.372.9.65.65,0,0,0,.86-.028c.373-.287.8-.51,1.175-.773a2.715,2.715,0,0,1,1.875-.294c.4.014.807.019,1.211.027a.5.5,0,0,0-.018.458,17.388,17.388,0,0,1,.756,2.7,2.613,2.613,0,0,0,.842,1.564,7.376,7.376,0,0,1,2,4.339,6.534,6.534,0,0,1-4.718,3.749c-.109-.042-.144.03-.174.112a5.976,5.976,0,0,1-4,2.733.8.8,0,0,0-.667.927c.037.738.282,1.453.263,2.206a1.867,1.867,0,0,0,.263.741c.2.435.2.7-.4.7a7.174,7.174,0,0,0-1.093.147c-.031-.075-.064-.148-.169-.115a2.479,2.479,0,0,0-1.139-.062,1.212,1.212,0,0,1-1.337-.55,21.2,21.2,0,0,0-4.613-4.859,1.813,1.813,0,0,1-.285-.308,7.467,7.467,0,0,0,3.009-2.33c.381-.471.473-.294.738,0a4.284,4.284,0,0,0,3.887,1.249,3.258,3.258,0,0,0,2.484-3.038,8.03,8.03,0,0,0-.009-1.212.8.8,0,0,0-.857-.757c-.56-.032-.664.357-.742.76a2.607,2.607,0,0,0-.007.646c.122,1.946-1.365,2.482-2.9,1.831a2.358,2.358,0,0,1-.844-3.627,4.414,4.414,0,0,1,3.7-2.027c1.16-.01,1.523.278,1.838,1.453a.8.8,0,0,0,1.1.631c.479-.139.545-.482.425-1.011-.545-2.408-2.4-3-4.353-2.612a6.378,6.378,0,0,0-4.572,3.527c-.23.447-.031.952-.218,1.4-.069.032-.143.061-.1.162M88.867,75.929c.067-.478-.123-.69-.591-.8a.686.686,0,0,0-.875.417,6.247,6.247,0,0,1-.492.909c-1.057,1.425-1.938,2.237-3.748.92a6.581,6.581,0,0,0-1.282-.79c-.4-.167-.858-.309-1.153.289-.281.57.03.82.427,1.087.351.236.667.533,1.036.731,1.087.581,2.084,1.318,3.507.795a4.915,4.915,0,0,0,1.876-1.25,4.034,4.034,0,0,0,1.3-2.313" transform="translate(-66.069 -57.032)" fill="#ffca28"/>
          <path id="Trazado_731582" data-name="Trazado 731582" d="M212.778,58.208a3.959,3.959,0,0,0-1.941-1.727,9.844,9.844,0,0,0-5.194-1.474,1.485,1.485,0,0,1-.893-.281,7.551,7.551,0,0,0-2.62-1.189c-.248-.755-.735-.791-1.349-.451l-.991-.052c-.01-1.154-1-1.634-1.64-2.346-.151-.168-.48-.227-.411-.518.079-.333.4-.183.608-.18,1.961.024,3.946-.222,5.832.613a8.486,8.486,0,0,1,2.515,1.464,2.394,2.394,0,0,1,.9,2.111.815.815,0,0,0,.2.665c-.032.11.017.145.121.13.847.37,1.3.106,1.3-.762a2.952,2.952,0,0,0-.511-2.149,8.522,8.522,0,0,1,4,1.547,8.639,8.639,0,0,1,3.175,4.265c.274.776-.116.819-.587.66a9.235,9.235,0,0,0-2.509-.326" transform="translate(-165.695 -41.861)" fill="#4adbd1"/>
          <path id="Trazado_731583" data-name="Trazado 731583" d="M129.252,55.582c-1.019.455-2.187.288-3.2.773-.235.112-.513.135-.7.343a7.321,7.321,0,0,0-1.626-.175,11.852,11.852,0,0,0-3.694-.114,16.462,16.462,0,0,0-4.37,1.626c-.207-1.126.737-1.69,1.314-2.3a8.62,8.62,0,0,1,6.774-2.559c.991.019,1.984.2,2.96.31.73.081,1.38.946,2.046,1.486a3.826,3.826,0,0,1,.5.613" transform="translate(-96.894 -44.556)" fill="#4adbd1"/>
          <path id="Trazado_731584" data-name="Trazado 731584" d="M304.8,120.32a7.376,7.376,0,0,0-2-4.339,2.613,2.613,0,0,1-.842-1.564,17.424,17.424,0,0,0-.756-2.7.494.494,0,0,1,.018-.458c4.477.948,5.515,5.46,3.582,9.061" transform="translate(-252.362 -93.234)" fill="#4adbd1"/>
          <path id="Trazado_731585" data-name="Trazado 731585" d="M85.864,88.492c-1,1.472-2.623,2.12-4.013,3.079a9.782,9.782,0,0,1,3.1-3.88c.682-.549.741-.144.9.319a1.649,1.649,0,0,1,.014.481" transform="translate(-68.591 -73.263)" fill="#4adbd1"/>
          <path id="Trazado_731586" data-name="Trazado 731586" d="M209.805,295.13a1.266,1.266,0,0,1-1.9.116,1.364,1.364,0,0,1,.142-2.023,2.815,2.815,0,0,1,1.755,1.906" transform="translate(-173.903 -245.72)" fill="#4adbd1"/>
          <path id="Trazado_731587" data-name="Trazado 731587" d="M57.938,251.124c-.769.613-1.374.587-1.927-.084s-.466-1.173.306-1.893c.623.592,1.471,1,1.621,1.977" transform="translate(-46.641 -208.783)" fill="#4adbd1"/>
          <path id="Trazado_731588" data-name="Trazado 731588" d="M212.529,293.828a2.815,2.815,0,0,0-1.755-1.906,1.372,1.372,0,0,1,1.81.183,1.22,1.22,0,0,1-.055,1.723" transform="translate(-176.627 -244.417)" fill="#4adbd1"/>
          <path id="Trazado_731589" data-name="Trazado 731589" d="M61.347,250c-.15-.979-1-1.386-1.621-1.977a1.223,1.223,0,0,1,1.753.391A1.158,1.158,0,0,1,61.347,250" transform="translate(-50.05 -207.662)" fill="#4adbd1"/>
          <path id="Trazado_731590" data-name="Trazado 731590" d="M205.1,207.8c-.122.008-.283.1-.294-.134.161-.093.3-.133.294.134" transform="translate(-171.625 -173.964)" fill="#12263f"/>
          <path id="Trazado_731591" data-name="Trazado 731591" d="M200.71,68.463c-.16-.056-.133-.209-.172-.328a.316.316,0,0,1,.172.328" transform="translate(-168.049 -57.097)" fill="#12263f"/>
          <path id="Trazado_731592" data-name="Trazado 731592" d="M185.907,204.129l-.13.14c-.022-.107,0-.173.13-.14" transform="translate(-155.674 -171.051)" fill="#12263f"/>
          <path id="Trazado_731593" data-name="Trazado 731593" d="M257.63,236.259c.1-.033.138.04.169.115l-.169-.115" transform="translate(-215.892 -197.976)" fill="#12263f"/>
          <path id="Trazado_731594" data-name="Trazado 731594" d="M293.468,190.379c.03-.081.065-.154.174-.112l-.174.112" transform="translate(-245.924 -159.432)" fill="#12263f"/>
          <path id="Trazado_731595" data-name="Trazado 731595" d="M227.9,169.176c-.041-.1.034-.13.1-.162l-.1.162" transform="translate(-190.967 -141.632)" fill="#12263f"/>
          <path id="Trazado_731596" data-name="Trazado 731596" d="M113.067,106.249c-.1.025-.126-.01-.094-.1a.194.194,0,0,1,.094.1" transform="translate(-94.66 -88.95)" fill="#12263f"/>
          <path id="Trazado_731597" data-name="Trazado 731597" d="M259.9,80.264c-.1.015-.152-.02-.121-.13l.121.13" transform="translate(-217.689 -67.152)" fill="#12263f"/>
          <path id="Trazado_731598" data-name="Trazado 731598" d="M264.838,315.038c-.814.6-1.345.578-1.911-.094s-.49-1.113.292-1.879c.654.563,1.533.942,1.619,1.972" transform="translate(-220.024 -262.347)" fill="#4adbd1"/>
          <path id="Trazado_731599" data-name="Trazado 731599" d="M268.245,313.933c-.086-1.03-.964-1.409-1.619-1.972a1.259,1.259,0,0,1,1.714.255,1.222,1.222,0,0,1-.1,1.717" transform="translate(-223.431 -261.241)" fill="#4adbd1"/>
          <path id="Trazado_731600" data-name="Trazado 731600" d="M129.884,277.682c-.788.9-1.477.7-2.02.148-.635-.651-.556-1.259.232-1.938a3.275,3.275,0,0,1,1.788,1.79" transform="translate(-106.793 -231.195)" fill="#4adbd1"/>
          <path id="Trazado_731601" data-name="Trazado 731601" d="M133.277,275.977a3.275,3.275,0,0,0-1.788-1.79,1.123,1.123,0,0,1,1.638.057,1.368,1.368,0,0,1,.15,1.732" transform="translate(-110.187 -229.491)" fill="#4adbd1"/>
          <path id="Trazado_731602" data-name="Trazado 731602" d="M214.207,68.216c.614-.341,1.1-.3,1.349.451a3.346,3.346,0,0,0,1,3.607,3.59,3.59,0,0,0,4.866.262c.462-.358.88-.492,1.238-.007a.837.837,0,0,1-.294,1.3A4.159,4.159,0,0,1,220,74.84c-.532-.015-.622.4-.592.788.1,1.337-.759,1.966-1.77,2.5a.744.744,0,0,1-1.008-.165c-.318-.373-.11-.7.116-1.012a2.217,2.217,0,0,1,.558-.432,1.1,1.1,0,0,0-.283-2.024,5.349,5.349,0,0,1-2.944-2.832,4.027,4.027,0,0,1,.13-3.448" transform="translate(-179.122 -56.991)" fill="#12263f"/>
          <path id="Trazado_731603" data-name="Trazado 731603" d="M145.526,73.868a7.32,7.32,0,0,1,1.626.175,7.471,7.471,0,0,1,2.411,1.54.874.874,0,0,1,.139,1.334c-.419.473-.819.215-1.238-.138a4.09,4.09,0,0,0-2.486-1.266,2.26,2.26,0,0,0-2.066,1.39,11.345,11.345,0,0,0-.75,1.579c-.166.394-.42.556-.816.389-.414-.175-.821-.515-.665-.952a6.716,6.716,0,0,1,2.7-3.741,2.679,2.679,0,0,1,1.141-.313" transform="translate(-118.7 -61.901)" fill="#12263f"/>
          <path id="Trazado_731604" data-name="Trazado 731604" d="M98.057,112.372a4.034,4.034,0,0,1-1.3,2.313,4.915,4.915,0,0,1-1.876,1.25c-1.422.523-2.42-.214-3.506-.795a12.678,12.678,0,0,1-1.036-.731c-.4-.267-.708-.517-.427-1.087.295-.6.755-.456,1.153-.289a6.581,6.581,0,0,1,1.282.79c1.809,1.317,2.69.5,3.748-.92a6.248,6.248,0,0,0,.492-.909.686.686,0,0,1,.875-.417c.467.105.658.318.591.8" transform="translate(-75.259 -93.474)" fill="#12263f"/>
        </g>
      </g>
    </g>
  </g>
</svg>
