<svg xmlns="http://www.w3.org/2000/svg" xmlns:xlink="http://www.w3.org/1999/xlink" width="73.484" height="73.484" viewBox="0 0 73.484 73.484">
  <defs>
    <clipPath id="clip-path">
      <rect id="Rect치ngulo_352567" data-name="Rect치ngulo 352567" width="43.94" height="43.835" fill="none"/>
    </clipPath>
  </defs>
  <g id="Grupo_1018685" data-name="Grupo 1018685" transform="translate(-1346.516 -8577.787)">
    <g id="Trazado_718107" data-name="Trazado 718107" transform="translate(1346.516 8577.787)" fill="#fff">
      <path d="M 36.7421875 71.984375 C 31.98386573791504 71.984375 27.36866569519043 71.05278778076172 23.02479934692383 69.21548461914062 C 18.82836532592773 67.44054412841797 15.05926513671875 64.89924621582031 11.82219886779785 61.66217803955078 C 8.585131645202637 58.42510986328125 6.043831825256348 54.65602111816406 4.268887519836426 50.45957565307617 C 2.43158745765686 46.1157112121582 1.499998569488525 41.50051116943359 1.499998569488525 36.7421875 C 1.499998569488525 31.98386573791504 2.43158745765686 27.36866569519043 4.268887519836426 23.02479934692383 C 6.043831825256348 18.82836532592773 8.585131645202637 15.05926513671875 11.82219886779785 11.82219886779785 C 15.05926513671875 8.585131645202637 18.82836532592773 6.043831825256348 23.02479934692383 4.268887519836426 C 27.36866569519043 2.43158745765686 31.98386573791504 1.499998569488525 36.7421875 1.499998569488525 C 41.50051116943359 1.499998569488525 46.1157112121582 2.43158745765686 50.45957565307617 4.268887519836426 C 54.65602111816406 6.043831825256348 58.42510986328125 8.585131645202637 61.66217803955078 11.82219886779785 C 64.89924621582031 15.05926513671875 67.44054412841797 18.82836532592773 69.21548461914062 23.02479934692383 C 71.05278778076172 27.36866569519043 71.984375 31.98386573791504 71.984375 36.7421875 C 71.984375 41.50051116943359 71.05278778076172 46.1157112121582 69.21548461914062 50.45957565307617 C 67.44054412841797 54.65602111816406 64.89924621582031 58.42510986328125 61.66217803955078 61.66217803955078 C 58.42510986328125 64.89924621582031 54.65602111816406 67.44054412841797 50.45957565307617 69.21548461914062 C 46.1157112121582 71.05278778076172 41.50051116943359 71.984375 36.7421875 71.984375 Z" stroke="none"/>
      <path d="M 36.7421875 3 C 32.18569183349609 3 27.76709365844727 3.891716003417969 23.60912704467773 5.650398254394531 C 19.59148025512695 7.349716186523438 15.98264694213867 9.783069610595703 12.88285827636719 12.88285827636719 C 9.783069610595703 15.98264694213867 7.349716186523438 19.59148025512695 5.650398254394531 23.60912704467773 C 3.891716003417969 27.76709365844727 3 32.18569183349609 3 36.7421875 C 3 41.29868316650391 3.891716003417969 45.71728134155273 5.650398254394531 49.875244140625 C 7.349716186523438 53.89289093017578 9.783069610595703 57.50172805786133 12.88285827636719 60.60151672363281 C 15.98264694213867 63.7013053894043 19.59148025512695 66.13465881347656 23.60912704467773 67.83397674560547 C 27.76709365844727 69.59265899658203 32.18569183349609 70.484375 36.7421875 70.484375 C 41.29868316650391 70.484375 45.71728134155273 69.59265899658203 49.875244140625 67.83397674560547 C 53.89289093017578 66.13465881347656 57.50172805786133 63.7013053894043 60.60151672363281 60.60151672363281 C 63.7013053894043 57.50172805786133 66.13465881347656 53.89289093017578 67.83397674560547 49.875244140625 C 69.59265899658203 45.71728134155273 70.484375 41.29868316650391 70.484375 36.7421875 C 70.484375 32.18569183349609 69.59265899658203 27.76709365844727 67.83397674560547 23.60912704467773 C 66.13465881347656 19.59148025512695 63.7013053894043 15.98264694213867 60.60151672363281 12.88285827636719 C 57.50172805786133 9.783069610595703 53.89289093017578 7.349716186523438 49.875244140625 5.650398254394531 C 45.71728134155273 3.891716003417969 41.29868316650391 3 36.7421875 3 M 36.7421875 0 C 57.03433990478516 0 73.484375 16.45003509521484 73.484375 36.7421875 C 73.484375 57.03433990478516 57.03433990478516 73.484375 36.7421875 73.484375 C 16.45003509521484 73.484375 0 57.03433990478516 0 36.7421875 C 0 16.45003509521484 16.45003509521484 0 36.7421875 0 Z" stroke="none" fill="#4adbd1"/>
    </g>
    <g id="Grupo_1018558" data-name="Grupo 1018558" transform="translate(1361.288 8592.611)">
      <g id="Grupo_1018558-2" data-name="Grupo 1018558" clip-path="url(#clip-path)">
        <path id="Trazado_731877" data-name="Trazado 731877" d="M20.758,43.849c-.261-.069-.523-.134-.783-.209a3.665,3.665,0,0,1-2.642-4.192c.116-.812.273-1.619.449-2.421a5.246,5.246,0,0,1,2.7-3.566c1.406-.776,2.887-1.419,4.344-2.1,1.018-.476,2.054-.912,3.074-1.385a2.28,2.28,0,0,0,.468-.388,1.756,1.756,0,0,1,.3-.267c1.056-.537,2.117-1.064,3.2-1.605a1.477,1.477,0,0,0-.5-1.569,6.323,6.323,0,0,1-1.7-2.454.444.444,0,0,0-.5-.329,3.5,3.5,0,0,1-3.341-1.823,3.571,3.571,0,0,1,.074-3.775,1.349,1.349,0,0,0,.154-.64,19.516,19.516,0,0,1,.354-4.628A11.619,11.619,0,0,1,36.536,3.743c.723-.068,1.457-.006,2.183-.043a.743.743,0,0,0,.491-.279,7.843,7.843,0,0,1,6.854-3.4,8.054,8.054,0,0,1,7.687,8.888,7.841,7.841,0,0,1-2.052,4.48c-.613.674-1.233,1.341-1.837,2,.448.842.356,1.132-.43,1.46v1.39c.38.116.724.3.707.787-.016.437-.3.638-.723.735,0,.289,0,.576,0,.863a1.9,1.9,0,0,1-1.167,1.849c-.235.105-.328.23-.3.475.014.1-.005.213,0,.319.124,1.479-.887,2.608-2.816,2.251a.51.51,0,0,0-.615.213,2.727,2.727,0,0,1-.337.371c-.655.67-.656.67-.594,1.617.868.43,1.748.838,2.6,1.3a9.418,9.418,0,0,1,1.027.77,1.924,1.924,0,0,0,.356.193c2.022.91,4.048,1.811,6.067,2.729a8.207,8.207,0,0,1,2.893,2.024,4.755,4.755,0,0,1,1.106,2.122c.19.876.386,1.754.5,2.641a3.667,3.667,0,0,1-3.177,4.267,1.53,1.53,0,0,0-.25.088H20.758m14-8.628c-.267.332-.448.555-.627.78-.589.742-.993.735-1.571-.035-1.133-1.508-2.27-3.013-3.387-4.532a.424.424,0,0,0-.63-.166c-1.711.786-3.439,1.537-5.149,2.327a22.66,22.66,0,0,0-2.383,1.234,3.972,3.972,0,0,0-1.883,2.787c-.107.6-.226,1.195-.33,1.794a2.319,2.319,0,0,0,2.434,2.964c4.213.029,8.426.009,12.638.017.268,0,.359-.091.41-.352.37-1.894.764-3.784,1.13-5.679a.834.834,0,0,0-.149-.517,5.79,5.79,0,0,0-.5-.624M42.1,16.886c-.773-.311-.862-.6-.466-1.526l-1.822-1.935a14.653,14.653,0,0,1-4.512,1.93c-1.592.352-3.21.582-4.85.871a47.348,47.348,0,0,0,.031,4.912,6.239,6.239,0,0,0,4.6,5.6,10,10,0,0,0,4.206.207,6.233,6.233,0,0,0,4.156-2.227.8.8,0,0,0,.195-.477c0-.423-.069-.845-.071-1.268a.452.452,0,0,0-.3-.478A1.912,1.912,0,0,1,42.1,20.64v-.834c-.414-.132-.728-.345-.717-.823.011-.453.311-.658.7-.777,0-.09.012-.166.013-.241,0-.35,0-.7,0-1.079m4.442-2.948c0,.289.018.58,0,.867-.029.364.091.481.478.516a1.581,1.581,0,0,0,1.691-.842A16.08,16.08,0,0,1,50.6,12.328a6.409,6.409,0,0,0-.24-8.909,6.244,6.244,0,0,0-5.354-1.86,6.557,6.557,0,0,0-5.822,6.18,6.626,6.626,0,0,0,2.05,5.042,8.636,8.636,0,0,1,1.477,1.666,1.568,1.568,0,0,0,1.861.874c.34-.054.438-.153.428-.474-.018-.578.021-1.158-.018-1.734a1.179,1.179,0,0,0-.279-.673c-.5-.547-1.055-1.052-1.581-1.58A.776.776,0,1,1,44.2,9.76c.442.418.883.838,1.309,1.272.192.2.333.2.527,0,.426-.434.866-.855,1.308-1.273a.794.794,0,1,1,1.1,1.119A13.565,13.565,0,0,1,47.4,11.9a1.89,1.89,0,0,0-.853,2.041m5.8,28.439c.732,0,1.388.037,2.038-.007a2.308,2.308,0,0,0,2.288-2.929c-.1-.614-.229-1.225-.339-1.839a4.032,4.032,0,0,0-1.816-2.733,10.84,10.84,0,0,0-1.466-.829c-2.03-.931-4.074-1.83-6.1-2.761-.319-.146-.467-.078-.663.187-1.146,1.555-2.31,3.1-3.472,4.641-.435.578-.922.577-1.38.011-.216-.267-.434-.532-.7-.864a8.015,8.015,0,0,0-.581.659.59.59,0,0,0-.093.409q.563,2.887,1.157,5.768c.022.107.139.277.215.279.708.022,1.416.013,2.152.013,0-.716,0-1.369,0-2.022,0-.635.256-.9.879-.9q3.491,0,6.981,0c.652,0,.9.255.9.919s0,1.3,0,1.993M33.4,27.749a1.318,1.318,0,0,0,.589,1.551,7.15,7.15,0,0,1,1.324,1.112,2.908,2.908,0,0,0,2.723.985c.178-.028.37.025.545-.012a1.453,1.453,0,0,0,.607-.227c.828-.668,1.633-1.363,2.449-2.045a.988.988,0,0,0,.372-1.306,12.127,12.127,0,0,1-8.609-.058M29,17.548a2.125,2.125,0,0,0-2.024,1.293,2.079,2.079,0,0,0,.327,2.306A1.97,1.97,0,0,0,29,21.9Zm14.6.69h4.34v-1.4H43.6Zm-.018,1.513c0,.326,0,.613,0,.9a.483.483,0,0,0,.5.534c1.138.014,2.276.024,3.412-.017.161-.006.4-.275.447-.462a3.99,3.99,0,0,0,.02-.955ZM27.556,16.327c.713-.14.709-.14.715-.8a10.876,10.876,0,0,1,4.191-8.778c.077-.062.147-.133.281-.256a10.017,10.017,0,0,0-5.186,9.834m9.2,21.1-.537,2.7c.964-.265,1.834-.5,2.7-.749a.253.253,0,0,0,.142-.2c-.1-.568-.22-1.133-.343-1.739-.956.813-1.032.813-1.963-.015M49.6,40.96c-1.381,0-2.762.007-4.143-.005-.306,0-.383.116-.387.4-.012.92.013.949.94.791.075-.013.15-.021.225-.033A8.7,8.7,0,0,0,49.6,40.96M33.422,8.042A1.667,1.667,0,0,0,31.975,9.25c-.169.587.185.975.777.853a1.829,1.829,0,0,0,1.281-1.357.559.559,0,0,0-.611-.7M39.1,33.16a1.6,1.6,0,0,0-.451-.228,3.147,3.147,0,0,0-.862,0,1.055,1.055,0,0,0-.573.278c-.309.332-.556.72-.848,1.069a.334.334,0,0,0,.018.54c.176.172.316.25.541.079.627-.478,1.266-.94,1.895-1.415a2.36,2.36,0,0,0,.28-.324m5.928-10.483c.1.471-.231,1.023.259,1.319a1.108,1.108,0,0,0,.973,0c.477-.3.169-.848.249-1.318ZM30.379,30.643l1.76-.886.013-.146c-.175-.055-.388-.2-.519-.148-.513.21-1,.483-1.528.748l.274.432m4.676-22.99c-.16-.112-.269-.226-.3-.206a3.76,3.76,0,0,0-.448.327c.071.076.175.23.207.216a4.3,4.3,0,0,0,.546-.337" transform="translate(-15.706 -0.014)"/>
        <path id="Trazado_731878" data-name="Trazado 731878" d="M452.372,175.675c-.119.885-.179,1.784-.372,2.653-.276,1.242-.634,2.467-.988,3.689-.157.541-.524.723-.961.563s-.571-.529-.38-1.057A20.491,20.491,0,0,0,449.8,167.8c-.054-.158-.117-.313-.162-.474a.712.712,0,0,1,.41-.937.7.7,0,0,1,.94.477,28.393,28.393,0,0,1,.818,2.794c.225,1.067.328,2.159.487,3.24.02.133.054.264.081.4Z" transform="translate(-408.432 -151.115)"/>
        <path id="Trazado_731879" data-name="Trazado 731879" d="M39.58,2.863A12.652,12.652,0,0,1,39,4.231a1.012,1.012,0,0,0,.152,1.333c.52.593.962,1.254,1.447,1.879a.744.744,0,0,1-.869,1.2c-1.738-.682-3.481-1.354-5.22-2.035-.57-.223-.782-.538-.543-1.1a4.764,4.764,0,0,0-.255-4.31,1.1,1.1,0,0,1-.105-.655.67.67,0,0,1,.958-.473Q36.847,1.158,39.1,2.3c.2.1.314.365.476.562M37.716,6.188a3.822,3.822,0,0,0-.261-.358,1.1,1.1,0,0,1-.189-1.412,5.471,5.471,0,0,0,.355-.836c.035-.1.021-.314-.042-.35-.607-.345-1.229-.663-1.784-.956a8.971,8.971,0,0,1,.092,1.543,10.574,10.574,0,0,1-.409,1.587l2.238.78" transform="translate(-30.519 0.001)"/>
        <path id="Trazado_731880" data-name="Trazado 731880" d="M.129,174.453A22.13,22.13,0,0,1,1.5,166.861a.719.719,0,1,1,1.36.447c-.033.117-.084.229-.112.347-.338,1.432-.771,2.849-.987,4.3a19.267,19.267,0,0,0,.911,9.086c.049.144.1.286.15.43.186.561.045.943-.4,1.086s-.772-.048-.949-.6a20.268,20.268,0,0,1-.759-2.577c-.293-1.627-.48-3.272-.711-4.91l.129-.019" transform="translate(0 -151.082)"/>
        <path id="Trazado_731881" data-name="Trazado 731881" d="M41.281,203.34a19.075,19.075,0,0,1,.581-4.515c.1-.388.28-.68.724-.692.526-.014.794.418.679,1.035-.164.881-.35,1.76-.453,2.649a15.7,15.7,0,0,0,.426,5.658c.1.4.166.794-.281,1.042a.706.706,0,0,1-1.069-.529,18.155,18.155,0,0,1-.606-4.648" transform="translate(-37.502 -179.996)"/>
        <path id="Trazado_731882" data-name="Trazado 731882" d="M420.086,203.383a18.744,18.744,0,0,1-.6,4.513,1.117,1.117,0,0,1-.476.653.746.746,0,0,1-.7-.112,1.037,1.037,0,0,1-.223-.762c.12-.933.344-1.852.454-2.786a15.849,15.849,0,0,0-.407-5.568c-.021-.089-.05-.176-.063-.266a.706.706,0,0,1,.5-.888.679.679,0,0,1,.875.574c.2.95.379,1.907.52,2.868.086.585.084,1.182.121,1.774" transform="translate(-379.783 -180.003)"/>
        <path id="Trazado_731883" data-name="Trazado 731883" d="M81,234.472c.034-.477.057-.948.1-1.416a.691.691,0,0,1,.719-.671.709.709,0,0,1,.707.74c.007.91.008,1.821,0,2.732a.7.7,0,0,1-.685.714.678.678,0,0,1-.736-.648c-.049-.483-.071-.97-.105-1.451" transform="translate(-73.588 -211.112)"/>
        <path id="Trazado_731884" data-name="Trazado 731884" d="M385.133,234.513c-.033.463-.056.918-.1,1.372a.688.688,0,0,1-.752.682.714.714,0,0,1-.676-.771q0-1.32,0-2.641a.722.722,0,0,1,.675-.773.694.694,0,0,1,.754.681c.046.484.069.97.1,1.45" transform="translate(-348.485 -211.107)"/>
        <path id="Trazado_731885" data-name="Trazado 731885" d="M49.228,344.62a5.791,5.791,0,0,1,.5.624.834.834,0,0,1,.149.517c-.366,1.9-.76,3.785-1.13,5.679-.051.26-.142.352-.41.352-4.213-.008-8.426.011-12.638-.017a2.318,2.318,0,0,1-2.434-2.964c.1-.6.223-1.2.33-1.794a3.971,3.971,0,0,1,1.883-2.787,22.632,22.632,0,0,1,2.383-1.235c1.709-.791,3.437-1.541,5.148-2.327a.424.424,0,0,1,.63.166c1.118,1.519,2.255,3.024,3.387,4.532.578.77.982.777,1.571.035.179-.225.359-.448.627-.78" transform="translate(-30.173 -309.414)" fill="#d2e1f1"/>
        <path id="Trazado_731886" data-name="Trazado 731886" d="M172.211,149.966c0,.38,0,.73,0,1.079,0,.075-.008.15-.013.241-.392.118-.692.324-.7.776-.011.477.3.69.717.823v.834a1.912,1.912,0,0,0,1.163,1.854.452.452,0,0,1,.3.478c0,.423.073.846.072,1.268a.8.8,0,0,1-.2.477,6.233,6.233,0,0,1-4.156,2.227,10.006,10.006,0,0,1-4.206-.207,6.239,6.239,0,0,1-4.6-5.6,47.351,47.351,0,0,1-.031-4.912c1.639-.289,3.258-.519,4.85-.871a14.653,14.653,0,0,0,4.512-1.93l1.822,1.935c-.4.927-.307,1.214.466,1.526" transform="translate(-145.815 -133.094)" fill="#fff"/>
        <path id="Trazado_731887" data-name="Trazado 731887" d="M263.816,28.89a1.891,1.891,0,0,1,.853-2.041,13.534,13.534,0,0,0,1.048-1.015.794.794,0,1,0-1.1-1.119c-.442.418-.882.839-1.308,1.273-.194.2-.335.192-.527,0-.426-.434-.867-.854-1.309-1.272a.776.776,0,1,0-1.072,1.1c.525.529,1.076,1.033,1.581,1.58a1.179,1.179,0,0,1,.279.673c.039.576,0,1.156.018,1.734.01.321-.088.419-.428.474a1.568,1.568,0,0,1-1.861-.874,8.634,8.634,0,0,0-1.477-1.666,6.626,6.626,0,0,1-2.05-5.042,6.557,6.557,0,0,1,5.822-6.18,6.244,6.244,0,0,1,5.354,1.86,6.41,6.41,0,0,1,.24,8.909,16.079,16.079,0,0,0-1.894,2.152,1.581,1.581,0,0,1-1.691.842c-.386-.035-.507-.152-.478-.516.023-.287,0-.578,0-.867m-1.284-11.04a4.987,4.987,0,0,0-3.9,2.491.734.734,0,0,0,.2,1.076.72.72,0,0,0,1.07-.219,3.79,3.79,0,0,1,3.262-1.84.646.646,0,0,0,.644-.644c.066-.586-.26-.873-1.273-.865m-3.85,4.383a.758.758,0,1,0,.737.755.738.738,0,0,0-.737-.755" transform="translate(-232.978 -14.966)" fill="#ffca28"/>
        <path id="Trazado_731888" data-name="Trazado 731888" d="M278.2,351.883c0-.692,0-1.343,0-1.993s-.251-.919-.9-.919q-3.491,0-6.981,0c-.622,0-.874.261-.879.9,0,.653,0,1.305,0,2.022-.736,0-1.445.009-2.152-.013-.077,0-.193-.172-.215-.279q-.592-2.881-1.157-5.768a.59.59,0,0,1,.093-.409,8.005,8.005,0,0,1,.581-.659c.27.331.487.6.7.863.458.566.945.567,1.38-.011,1.162-1.543,2.326-3.086,3.472-4.641.2-.265.344-.333.663-.187,2.029.932,4.074,1.83,6.1,2.761a10.823,10.823,0,0,1,1.466.829,4.032,4.032,0,0,1,1.816,2.733c.11.613.235,1.224.339,1.839a2.308,2.308,0,0,1-2.288,2.929c-.651.044-1.306.007-2.038.007" transform="translate(-241.565 -309.52)" fill="#d2e1f1"/>
        <path id="Trazado_731889" data-name="Trazado 731889" d="M192.839,302.974a12.127,12.127,0,0,0,8.609.058.989.989,0,0,1-.372,1.306c-.816.682-1.622,1.377-2.449,2.045a1.453,1.453,0,0,1-.607.227c-.175.036-.367-.017-.545.011a2.908,2.908,0,0,1-2.723-.985,7.144,7.144,0,0,0-1.324-1.112,1.318,1.318,0,0,1-.589-1.551" transform="translate(-175.14 -275.239)" fill="#fff"/>
        <path id="Trazado_731890" data-name="Trazado 731890" d="M123.037,191.53v4.352a1.97,1.97,0,0,1-1.7-.753,2.08,2.08,0,0,1-.327-2.306,2.125,2.125,0,0,1,2.024-1.293" transform="translate(-109.745 -173.997)" fill="#fff"/>
        <rect id="Rect치ngulo_352566" data-name="Rect치ngulo 352566" width="4.34" height="1.404" transform="translate(27.889 16.819)" fill="#4adbd1"/>
        <path id="Trazado_731891" data-name="Trazado 731891" d="M304.442,215.589h4.381a3.991,3.991,0,0,1-.02.955c-.048.187-.286.456-.447.462-1.136.04-2.275.031-3.413.017a.483.483,0,0,1-.5-.534c0-.286,0-.573,0-.9" transform="translate(-276.572 -195.853)" fill="#6f88da"/>
        <path id="Trazado_731892" data-name="Trazado 731892" d="M128.88,80.608a10.017,10.017,0,0,1,5.186-9.834c-.134.122-.2.193-.281.256a10.876,10.876,0,0,0-4.191,8.778c-.006.66,0,.66-.715.8" transform="translate(-117.03 -64.295)" fill="#fff"/>
        <path id="Trazado_731893" data-name="Trazado 731893" d="M224.6,408.675c.931.828,1.007.828,1.963.015.122.606.242,1.171.342,1.739a.252.252,0,0,1-.142.2c-.867.249-1.737.484-2.7.749l.537-2.7" transform="translate(-203.549 -371.264)" fill="#fff"/>
        <path id="Trazado_731894" data-name="Trazado 731894" d="M325.273,447.233a8.7,8.7,0,0,1-3.365,1.156c-.075.013-.15.021-.225.033-.927.158-.952.129-.94-.791,0-.287.081-.406.387-.4,1.381.012,2.762.005,4.143.005" transform="translate(-291.38 -406.287)" fill="#fff"/>
        <path id="Trazado_731895" data-name="Trazado 731895" d="M178.748,87.689a.559.559,0,0,1,.611.7,1.829,1.829,0,0,1-1.281,1.357c-.592.122-.945-.266-.777-.853a1.667,1.667,0,0,1,1.447-1.208" transform="translate(-161.033 -79.662)" fill="#fff"/>
        <path id="Trazado_731896" data-name="Trazado 731896" d="M227.115,359.524a2.352,2.352,0,0,1-.28.324c-.629.475-1.268.937-1.895,1.415-.225.171-.364.093-.541-.079a.334.334,0,0,1-.018-.54c.292-.349.539-.737.848-1.069a1.056,1.056,0,0,1,.573-.278,3.147,3.147,0,0,1,.862,0,1.6,1.6,0,0,1,.451.228" transform="translate(-203.724 -326.379)" fill="#fff"/>
        <path id="Trazado_731897" data-name="Trazado 731897" d="M320.085,247.563h1.48c-.08.47.229,1.017-.249,1.318a1.108,1.108,0,0,1-.973,0c-.49-.3-.163-.849-.259-1.319" transform="translate(-290.766 -224.9)" fill="#727997"/>
        <path id="Trazado_731898" data-name="Trazado 731898" d="M157.572,322.756l-.274-.432c.527-.265,1.015-.538,1.528-.748.131-.054.344.093.519.148q-.007.073-.013.145l-1.76.886" transform="translate(-142.899 -292.127)" fill="#fff"/>
        <path id="Trazado_731899" data-name="Trazado 731899" d="M203.893,81.369a4.3,4.3,0,0,1-.546.337c-.031.014-.136-.14-.207-.216a3.76,3.76,0,0,1,.448-.327c.036-.02.144.094.3.206" transform="translate(-184.544 -73.731)" fill="#fff"/>
        <path id="Trazado_731900" data-name="Trazado 731900" d="M56.406,28.795l-2.238-.78a10.575,10.575,0,0,0,.409-1.587,8.972,8.972,0,0,0-.092-1.543c.555.293,1.177.611,1.784.956.063.036.077.245.042.35a5.471,5.471,0,0,1-.355.836,1.1,1.1,0,0,0,.189,1.412,3.822,3.822,0,0,1,.261.358" transform="translate(-49.209 -22.606)" fill="#ffca28"/>
        <path id="Trazado_731901" data-name="Trazado 731901" d="M282.62,31.5c1.013-.008,1.339.279,1.273.865a.646.646,0,0,1-.644.644,3.79,3.79,0,0,0-3.262,1.84.72.72,0,0,1-1.07.219.734.734,0,0,1-.2-1.076,4.987,4.987,0,0,1,3.9-2.491" transform="translate(-253.066 -28.617)"/>
        <path id="Trazado_731902" data-name="Trazado 731902" d="M273.068,79.381a.758.758,0,1,1-.777.761.734.734,0,0,1,.777-.761" transform="translate(-247.365 -72.114)"/>
      </g>
    </g>
  </g>
</svg>
