<svg xmlns="http://www.w3.org/2000/svg" xmlns:xlink="http://www.w3.org/1999/xlink" width="72.433" height="72.433" viewBox="0 0 72.433 72.433">
  <defs>
    <clipPath id="clip-path">
      <rect id="Rectángulo_352565" data-name="Rectángulo 352565" width="46.508" height="44.448" fill="none"/>
    </clipPath>
  </defs>
  <g id="Grupo_1018684" data-name="Grupo 1018684" transform="translate(-705 -8581.209)">
    <g id="Trazado_718059" data-name="Trazado 718059" transform="translate(705 8581.209)" fill="#fff">
      <path d="M 36.21630859375 70.9326171875 C 31.52897453308105 70.9326171875 26.98265266418457 70.01493072509766 22.7036190032959 68.20505523681641 C 18.56979751586914 66.45659637451172 14.85694217681885 63.95322036743164 11.66817569732666 60.76445388793945 C 8.479397773742676 57.57567596435547 5.976019859313965 53.86281967163086 4.227564334869385 49.72900772094727 C 2.417686462402344 45.44997406005859 1.499997496604919 40.90364074707031 1.499997496604919 36.21630859375 C 1.499997496604919 31.52897453308105 2.417686462402344 26.98265266418457 4.227564334869385 22.7036190032959 C 5.976019859313965 18.56979751586914 8.479397773742676 14.85694217681885 11.66817569732666 11.66817569732666 C 14.85694217681885 8.479397773742676 18.56979751586914 5.976019859313965 22.7036190032959 4.227564334869385 C 26.98265266418457 2.417686462402344 31.52897453308105 1.499997496604919 36.21630859375 1.499997496604919 C 40.90364074707031 1.499997496604919 45.44997406005859 2.417686462402344 49.72900772094727 4.227564334869385 C 53.86281967163086 5.976019859313965 57.57567596435547 8.479397773742676 60.76445388793945 11.66817569732666 C 63.95322036743164 14.85694217681885 66.45659637451172 18.56979751586914 68.20505523681641 22.7036190032959 C 70.01493072509766 26.98265266418457 70.9326171875 31.52897453308105 70.9326171875 36.21630859375 C 70.9326171875 40.90364074707031 70.01493072509766 45.44997406005859 68.20505523681641 49.72900772094727 C 66.45659637451172 53.86281967163086 63.95322036743164 57.57567596435547 60.76445388793945 60.76445388793945 C 57.57567596435547 63.95322036743164 53.86281967163086 66.45659637451172 49.72900772094727 68.20505523681641 C 45.44997406005859 70.01493072509766 40.90364074707031 70.9326171875 36.21630859375 70.9326171875 Z" stroke="none"/>
      <path d="M 36.21630859375 3 C 31.73081588745117 3 27.38108444213867 3.877822875976562 23.28794479370117 5.60906982421875 C 19.33292007446289 7.281906127929688 15.78033065795898 9.677333831787109 12.72882461547852 12.72882461547852 C 9.677333831787109 15.78033065795898 7.281906127929688 19.33292007446289 5.60906982421875 23.28794479370117 C 3.877822875976562 27.38108444213867 3 31.73081588745117 3 36.21630859375 C 3 40.70180511474609 3.877822875976562 45.05153274536133 5.60906982421875 49.14467239379883 C 7.281906127929688 53.09969711303711 9.677333831787109 56.65228271484375 12.72882461547852 59.70378875732422 C 15.78033065795898 62.75528717041016 19.33292007446289 65.15071105957031 23.28794479370117 66.82354736328125 C 27.38108444213867 68.55479431152344 31.73081588745117 69.4326171875 36.21630859375 69.4326171875 C 40.70180511474609 69.4326171875 45.05153274536133 68.55479431152344 49.14467239379883 66.82354736328125 C 53.09969711303711 65.15071105957031 56.65228271484375 62.75528717041016 59.70378875732422 59.70378875732422 C 62.75528717041016 56.65228271484375 65.15071105957031 53.09969711303711 66.82354736328125 49.14467239379883 C 68.55479431152344 45.05153274536133 69.4326171875 40.70180511474609 69.4326171875 36.21630859375 C 69.4326171875 31.73081588745117 68.55479431152344 27.38108444213867 66.82354736328125 23.28794479370117 C 65.15071105957031 19.33292007446289 62.75528717041016 15.78033065795898 59.70378875732422 12.72882461547852 C 56.65228271484375 9.677333831787109 53.09969711303711 7.281906127929688 49.14467239379883 5.60906982421875 C 45.05153274536133 3.877822875976562 40.70180511474609 3 36.21630859375 3 M 36.21630859375 0 C 56.21802520751953 0 72.4326171875 16.21459197998047 72.4326171875 36.21630859375 C 72.4326171875 56.21802520751953 56.21802520751953 72.4326171875 36.21630859375 72.4326171875 C 16.21459197998047 72.4326171875 0 56.21802520751953 0 36.21630859375 C 0 16.21459197998047 16.21459197998047 0 36.21630859375 0 Z" stroke="none" fill="#6f88da"/>
    </g>
    <g id="Grupo_1018557" data-name="Grupo 1018557" transform="translate(717.962 8595.201)">
      <g id="Grupo_1018556" data-name="Grupo 1018556" clip-path="url(#clip-path)">
        <path id="Trazado_731857" data-name="Trazado 731857" d="M33.738,24.943a.605.605,0,0,1,.435-.683,6,6,0,0,1,1.6-.484c.3-.032.533-.242.853-.217.162.012.236-.2.235-.382,0-.68-.01-1.36,0-2.04,0-.226-.082-.279-.292-.277-.68.009-1.361.016-2.04-.007a6,6,0,0,1-3.462-1.326,6.409,6.409,0,0,1-2.493-4.269,6.18,6.18,0,0,1,.02-2.339,2.176,2.176,0,0,1,2.211-1.7c.738-.046,1.481-.025,2.221,0,.323.01.454-.053.436-.414-.035-.723-.044-1.451-.014-2.174a3.126,3.126,0,0,1,.86-1.922,2.287,2.287,0,0,1,.69-.634c.178-.085.114-.147.029-.286A5.092,5.092,0,0,1,34.153,3.9,3.273,3.273,0,0,1,34.8,1.34,3.142,3.142,0,0,1,37.515,0a3.263,3.263,0,0,1,2.972,1.752,3.267,3.267,0,0,1-.144,3.48,1.724,1.724,0,0,1-.154.216c-.441.49-.438.484.086.874a3.278,3.278,0,0,1,1.249,2.2,14.4,14.4,0,0,1,.076,2.339c0,.271.06.367.349.358.695-.022,1.391.006,2.086-.01a2.308,2.308,0,0,1,2.387,1.762c.006.032.056.057.085.085v2.267c-.263.145-.169.425-.223.639a6.4,6.4,0,0,1-2.822,3.886,5.862,5.862,0,0,1-3.535,1.018c-.468-.021-.937,0-1.406-.006-.189,0-.31.01-.3.257.017.559.01,1.118,0,1.677,0,.2.057.286.263.217,1.24-.417,2.54-.629,3.762-1.112a2.833,2.833,0,0,1,3.309,1.183,2.174,2.174,0,0,1,.139,1.053,2.427,2.427,0,0,1-1.716,2.187c-1.29.382-2.587.747-3.89,1.083-.768.2-1.5.526-2.282.666a.711.711,0,0,1-.39.022c-.179-.083-.251-.048-.349.115s-.3.14-.463.187c-2.149.61-4.292,1.238-6.439,1.857-.561.162-1.13.289-1.686.474-.2.066-.216.092-.164.289.268,1.011.513,2.028.763,3.044a.9.9,0,0,1-.454,1.125c-.526,0-.759-.209-.892-.785-.273-1.188-.542-2.377-.821-3.563-.312-1.327-.633-2.653-.953-3.978a1.54,1.54,0,0,0-.476-.974c-.962-.762-2.039-.458-3.095-.387a1.476,1.476,0,0,0-1.336.329,2.023,2.023,0,0,0-.471.938c-.373,1.51-.716,3.027-1.076,4.54-.367,1.543-.741,3.084-1.109,4.626-.392,1.644-.743,3.3-1.182,4.929a1.678,1.678,0,0,0,1.809,2.292,2.628,2.628,0,0,1,.841-.071c2.629,0,5.259-.021,7.888.009a1.508,1.508,0,0,0,1.563-2.019c-.315-1.3-.574-2.612-.938-3.9-.132-.466.052-.734.534-.914.646.034.652.05.82.728.32,1.3.717,2.58.961,3.891a2.83,2.83,0,0,1-2.747,3.558c-3.2.025-6.407,0-9.611,0a2.9,2.9,0,0,1-2.586-2.625,14.534,14.534,0,0,1,.608-3.183c.342-1.536.745-3.059,1.115-4.59.039-.16.02-.238-.211-.164-.748.241-1.508.445-2.268.649-.536.144-.75.041-.973-.425.017-.632.11-.749.708-.917q1.446-.406,2.89-.816c.13-.037.282-.068.3-.228.092-.675.381-1.309.433-2.06-.849.346-1.712.475-2.547.733-1.921.594-3.867,1.107-5.8,1.653-.854.241-1.707.485-2.561.723-.747.207-1.472.484-2.235.642a11.244,11.244,0,0,0-1.149.363c-.363.09-.732.162-1.087.275a.972.972,0,1,0,.475,1.886A4.638,4.638,0,0,0,4.6,36a1.113,1.113,0,0,0,.482-.1,8.008,8.008,0,0,1,1.424-.427,8.47,8.47,0,0,0,1.336-.324c.654-.193,1.3-.422,1.959-.587.688-.172,1.353-.416,2.06-.545.676-.123.77-.185,1.2.343-.055.7-.111.663-.911.933-.886.3-1.792.512-2.682.786-.736.226-1.488.4-2.229.607-1.111.314-2.216.652-3.329.958A2.35,2.35,0,0,1,.868,35.82a2.478,2.478,0,0,1,1.96-2.733c.805-.181,1.6-.432,2.391-.654.83-.232,1.656-.478,2.49-.691a.291.291,0,0,0,.257-.343c0-.952-.007-1.9,0-2.857,0-.2-.064-.256-.258-.251-.483.012-.967.008-1.451,0a6.1,6.1,0,0,1-3.624-1.286A6.443,6.443,0,0,1,.194,23.273a6.913,6.913,0,0,1-.076-2.909,1.992,1.992,0,0,1,2.113-1.709,23.093,23.093,0,0,1,2.312-.007c.322.009.455-.051.433-.412-.035-.572,0-1.148-.011-1.723a3.384,3.384,0,0,1,1.542-3c.242-.168.164-.234.022-.4a3.258,3.258,0,0,1-.4-4.14,3.378,3.378,0,0,1,4.942-.833,3.351,3.351,0,0,1,.4,4.97c-.18.189-.18.241.051.42a3.862,3.862,0,0,1,1.586,3.083c.012.574.013,1.149,0,1.723-.007.242.075.306.308.3.725-.013,1.451.007,2.177-.007a2.389,2.389,0,0,1,2.413,2.289,7.2,7.2,0,0,1-1.249,4.65,6.307,6.307,0,0,1-4.124,2.632,18.7,18.7,0,0,1-2.924.075c-.322.008-.4.09-.392.4.024.725.03,1.452,0,2.176-.016.357.159.383.4.313,1.049-.3,2.09-.635,3.14-.932,1.276-.36,2.564-.678,3.837-1.05.642-.188,1.282-.379,1.932-.533.13-.031.107-.106.127-.191.179-.734.376-1.465.544-2.2a2.6,2.6,0,0,1,2.324-2.133,10.24,10.24,0,0,1,3.566.071,2.571,2.571,0,0,1,1.9,1.71c.087.226.155.286.42.206,1.294-.391,2.6-.731,3.9-1.118.709-.212.948-.179,1.319.317-.019.628-.111.8-.748.92a17.711,17.711,0,0,0-1.945.567c-.715.221-1.443.4-2.166.6-.291.078-.377.234-.282.528A6.483,6.483,0,0,1,27.9,29.1c.042.328.2.348.418.25.654-.292,1.384-.265,2.051-.566a12.944,12.944,0,0,1,2.242-.654c.63-.155,1.281-.287,1.888-.47.829-.252,1.677-.493,2.492-.819a5.786,5.786,0,0,1,1.227-.353,13.767,13.767,0,0,0,2-.476c1.006-.316,2.015-.63,3.038-.879.686-.167,1.177-.631,1.072-1.171-.14-.724-.581-.948-1.419-.76-.564.127-1.111.313-1.671.454a9.294,9.294,0,0,0-1.032.238c-.929.345-1.9.564-2.844.879a9.513,9.513,0,0,1-1.148.214c-.454.094-.874.357-1.328.448-.661.132-.876.154-1.149-.486m1.117-13.771.006.028.028-.013a4.784,4.784,0,0,0,1.1-.014c1.339.01,2.678.018,4.017.034.211,0,.246-.1.244-.276-.007-.617.022-1.236-.01-1.852a2.279,2.279,0,0,0-1.374-2.067,3.9,3.9,0,0,0-1.886-.2,2.091,2.091,0,0,0-2.063,1.631,10.725,10.725,0,0,0-.064,2.727m2.584-5.747a2.056,2.056,0,0,0,1.826-1.037,2.034,2.034,0,1,0-3.813-1.044,2.086,2.086,0,0,0,1.987,2.081M8.87,8.812a2.037,2.037,0,0,0-1.9,2.039,2.045,2.045,0,1,0,4.086-.166A2.031,2.031,0,0,0,8.87,8.812M3.062,20.046c-.257,0-.514-.009-.771,0a.827.827,0,0,0-.861.845c-.009.317,0,.635,0,.952A4.875,4.875,0,0,0,3.4,25.859a3.672,3.672,0,0,0,2.009.91,1.354,1.354,0,0,0,.728.167c1.421-.006,2.842-.03,4.261.01.627.017,1.255-.038,1.875-.055a4.235,4.235,0,0,0,2.6-1.229,5.4,5.4,0,0,0,1.777-4.47c-.025-.855-.324-1.174-1.174-1.174q-5.985,0-11.969,0c-.15,0-.3.018-.45.028M33.9,19.321a1.958,1.958,0,0,0,1,.178c1.751,0,3.5.009,5.253,0a4.893,4.893,0,0,0,3.324-1.357,5.413,5.413,0,0,0,1.673-4.332c-.013-.934-.284-1.223-1.2-1.223q-5.955,0-11.91,0c-.165,0-.33.018-.5.027-.12,0-.241-.009-.361-.009-1.022,0-1.236.242-1.271,1.275a5.6,5.6,0,0,0,1.317,3.954A4.127,4.127,0,0,0,33.9,19.321m-24.887-.7v.005c.8,0,1.6-.006,2.4,0,.243,0,.356-.062.348-.331-.016-.588.025-1.178-.013-1.764a2.269,2.269,0,0,0-1.512-2.151,4.057,4.057,0,0,0-2.083-.1,2.21,2.21,0,0,0-1.825,2.255c.025.587.017,1.177,0,1.764-.008.262.08.332.333.327.784-.015,1.569-.005,2.353-.005" transform="translate(0 0)"/>
        <path id="Trazado_731858" data-name="Trazado 731858" d="M213.448,290.028c-.482.179-.666.448-.534.913.364,1.288.622,2.6.938,3.9a1.508,1.508,0,0,1-1.563,2.018c-2.629-.03-5.259-.009-7.888-.009a2.628,2.628,0,0,0-.841.071.735.735,0,0,0-.088-.2,2.1,2.1,0,0,1-.4-1.958c.543-2.354,1.115-4.7,1.679-7.05.321-1.339.649-2.677.974-4.015a4.512,4.512,0,0,0,.117.7,2.055,2.055,0,0,0,1.643,1.459,1.762,1.762,0,0,0,1.85-.748,1.921,1.921,0,0,0,.319-2.147,2.079,2.079,0,0,0-1.882-1.164,1.893,1.893,0,0,0-1.846,1.194,13.626,13.626,0,0,1,1-3.725c1.056-.071,2.132-.375,3.095.386a1.539,1.539,0,0,1,.476.974c.32,1.326.64,2.651.953,3.978.279,1.187.548,2.375.822,3.563.133.576.366.781.892.785l.287,1.074" transform="translate(-184.536 -253.769)" fill="#ffca28"/>
        <path id="Trazado_731859" data-name="Trazado 731859" d="M309.267,256.25c.272.64.488.618,1.149.486.454-.091.874-.354,1.328-.448a9.474,9.474,0,0,0,1.148-.214c.941-.315,1.916-.533,2.844-.879a9.3,9.3,0,0,1,1.032-.238c.56-.141,1.107-.327,1.671-.454.838-.188,1.279.036,1.419.76.1.54-.386,1-1.072,1.171-1.024.249-2.033.562-3.038.879a13.78,13.78,0,0,1-2,.476,5.791,5.791,0,0,0-1.227.353c-.816.326-1.663.568-2.492.819-.606.184-1.257.315-1.888.47a12.936,12.936,0,0,0-2.242.654c-.667.3-1.4.274-2.051.566-.219.1-.376.078-.418-.25a6.471,6.471,0,0,0-.309-1.164c-.1-.294-.01-.45.282-.528.724-.193,1.451-.374,2.166-.6a17.717,17.717,0,0,1,1.945-.567c.637-.12.729-.292.748-.92.334-.13.736-.079,1.005-.378" transform="translate(-275.529 -231.307)" fill="#b0c0d2"/>
        <path id="Trazado_731860" data-name="Trazado 731860" d="M53.513,335.166c-.426-.528-.52-.466-1.2-.343-.707.129-1.372.373-2.06.545-.661.165-1.305.394-1.959.587a8.47,8.47,0,0,1-1.336.324,8.009,8.009,0,0,0-1.424.427,1.112,1.112,0,0,1-.482.1A2.207,2.207,0,0,1,44.515,335a11.251,11.251,0,0,1,1.149-.363c.763-.158,1.488-.434,2.235-.642.855-.237,1.708-.482,2.561-.723,1.936-.546,3.882-1.058,5.8-1.653.835-.258,1.7-.386,2.547-.733-.053.751-.342,1.385-.433,2.06-.022.16-.173.191-.3.228q-1.445.409-2.89.816c-.6.168-.691.285-.708.917l-.963.263" transform="translate(-40.453 -300.801)" fill="#b0c0d2"/>
        <path id="Trazado_731861" data-name="Trazado 731861" d="M344.909,138.449c.165-.009.33-.027.5-.027q5.955,0,11.91,0c.916,0,1.188.289,1.2,1.223a5.413,5.413,0,0,1-1.673,4.332,4.894,4.894,0,0,1-3.324,1.357c-1.751.012-3.5,0-5.253,0a1.958,1.958,0,0,1-1-.178c0-.1-.061-.154-.135-.216a7.571,7.571,0,0,1-1.1-1.056,6.062,6.062,0,0,1-1.118-5.436" transform="translate(-313.365 -125.836)" fill="#7d727c"/>
        <path id="Trazado_731862" data-name="Trazado 731862" d="M31.568,220.2c.15-.01.3-.028.45-.028q5.985,0,11.969,0c.85,0,1.15.319,1.174,1.174a5.4,5.4,0,0,1-1.777,4.47,4.234,4.234,0,0,1-2.6,1.229c-.62.017-1.248.072-1.875.055-1.42-.039-2.841-.016-4.261-.01a1.354,1.354,0,0,1-.728-.167c0-.244-.228-.308-.368-.416a5.976,5.976,0,0,1-1.979-6.307" transform="translate(-28.506 -200.156)" fill="#7d727c"/>
        <path id="Trazado_731863" data-name="Trazado 731863" d="M192.4,284.684c-.325,1.338-.652,2.676-.974,4.015-.564,2.349-1.136,4.7-1.679,7.05a2.1,2.1,0,0,0,.4,1.958.734.734,0,0,1,.088.2,1.678,1.678,0,0,1-1.809-2.293c.44-1.631.79-3.285,1.182-4.929.368-1.542.742-3.083,1.109-4.626.359-1.513.7-3.03,1.076-4.54a2.025,2.025,0,0,1,.471-.938,1.476,1.476,0,0,1,1.336-.329,13.629,13.629,0,0,0-1,3.725l-.2.706" transform="translate(-171.21 -254.754)" fill="#ffca28"/>
        <path id="Trazado_731864" data-name="Trazado 731864" d="M72.238,160.581c-.784,0-1.569-.009-2.353.005-.253,0-.341-.065-.333-.327.018-.588.027-1.177,0-1.764a2.21,2.21,0,0,1,1.825-2.255,4.057,4.057,0,0,1,2.083.1,2.269,2.269,0,0,1,1.512,2.151c.038.586,0,1.176.013,1.764.008.268-.105.334-.348.331-.8-.009-1.6,0-2.4,0v-.005" transform="translate(-63.228 -141.958)" fill="#ffb245"/>
        <path id="Trazado_731865" data-name="Trazado 731865" d="M396.61,74.71a3.9,3.9,0,0,1,1.886.2,2.279,2.279,0,0,1,1.374,2.067c.032.616,0,1.235.01,1.852,0,.18-.033.278-.244.276-1.339-.017-2.678-.024-4.017-.034,0-.543.028-1.088-.011-1.628a3.176,3.176,0,0,1,1-2.731" transform="translate(-359.629 -67.896)" fill="#2ad1f6"/>
        <path id="Trazado_731866" data-name="Trazado 731866" d="M90.088,96.856A2.031,2.031,0,0,1,92.27,98.73a2.086,2.086,0,0,1-2.092,2.177c-.005-.133-.1-.21-.18-.3a2.643,2.643,0,0,1-.372-2.935c.141-.278.308-.544.463-.815" transform="translate(-81.218 -88.045)" fill="#d28157"/>
        <path id="Trazado_731867" data-name="Trazado 731867" d="M403.662,15.039a2.006,2.006,0,0,1,1.738,3.02,2.056,2.056,0,0,1-1.826,1.037,5.406,5.406,0,0,1-.716-1.279,2.689,2.689,0,0,1,.8-2.779" transform="translate(-366.135 -13.672)" fill="#ffbead"/>
        <path id="Trazado_731868" data-name="Trazado 731868" d="M17.338,220.432a5.976,5.976,0,0,0,1.979,6.307c.141.109.367.172.368.416a3.671,3.671,0,0,1-2.009-.91,4.875,4.875,0,0,1-1.973-4.021c0-.317-.006-.635,0-.952a.828.828,0,0,1,.861-.845c.257,0,.514,0,.771,0" transform="translate(-14.276 -200.387)" fill="#635865"/>
        <path id="Trazado_731869" data-name="Trazado 731869" d="M330.613,138.642a6.062,6.062,0,0,0,1.118,5.436,7.572,7.572,0,0,0,1.1,1.056c.074.062.138.114.135.216a4.127,4.127,0,0,1-2.667-1.488,5.6,5.6,0,0,1-1.317-3.954c.034-1.033.249-1.278,1.271-1.275.12,0,.241.006.361.009" transform="translate(-299.069 -126.029)" fill="#635865"/>
        <path id="Trazado_731870" data-name="Trazado 731870" d="M384.949,74.944a3.177,3.177,0,0,0-1,2.731c.04.54.01,1.085.011,1.628a4.782,4.782,0,0,1-1.1.014l-.009-.024-.024.009a10.73,10.73,0,0,1,.064-2.727,2.091,2.091,0,0,1,2.063-1.631" transform="translate(-347.968 -68.131)" fill="#01b7ed"/>
        <path id="Trazado_731871" data-name="Trazado 731871" d="M392,15.019a2.689,2.689,0,0,0-.8,2.779,5.406,5.406,0,0,0,.716,1.279A2.086,2.086,0,0,1,389.928,17,2.02,2.02,0,0,1,392,15.019" transform="translate(-354.476 -13.652)" fill="#f19988"/>
        <path id="Trazado_731872" data-name="Trazado 731872" d="M78.51,96.921c-.155.271-.322.537-.463.815a2.643,2.643,0,0,0,.372,2.935c.079.09.175.167.18.3a2.071,2.071,0,0,1-1.993-2.012,2.037,2.037,0,0,1,1.9-2.039" transform="translate(-69.64 -88.11)" fill="#b56645"/>
        <path id="Trazado_731873" data-name="Trazado 731873" d="M26.333,376.127a2.207,2.207,0,0,0,.541,1.808,4.639,4.639,0,0,1-1.153.353.972.972,0,1,1-.475-1.886c.355-.114.724-.185,1.087-.275" transform="translate(-22.271 -341.932)" fill="#b0c0d2"/>
        <path id="Trazado_731874" data-name="Trazado 731874" d="M383.384,122.8l.024-.009.009.024-.028.013Z" transform="translate(-348.529 -111.626)" fill="#635865"/>
        <path id="Trazado_731875" data-name="Trazado 731875" d="M233.041,310.169l.2-.706a1.893,1.893,0,0,1,1.846-1.194,2.079,2.079,0,0,1,1.882,1.163,1.921,1.921,0,0,1-.319,2.147,1.762,1.762,0,0,1-1.85.748,2.055,2.055,0,0,1-1.643-1.459,4.512,4.512,0,0,1-.117-.7m2.1.813a.775.775,0,0,0,.692-.854c-.022-.381-.37-.471-.687-.5a.685.685,0,0,0-.732.633.838.838,0,0,0,.727.721" transform="translate(-211.854 -280.24)"/>
        <path id="Trazado_731876" data-name="Trazado 731876" d="M248.915,324.575a.838.838,0,0,1-.727-.721.685.685,0,0,1,.732-.633c.317.03.664.12.687.5a.775.775,0,0,1-.692.854" transform="translate(-225.624 -293.833)" fill="#7d727c"/>
      </g>
    </g>
  </g>
</svg>
