<svg xmlns="http://www.w3.org/2000/svg" xmlns:xlink="http://www.w3.org/1999/xlink" width="136.934" height="135.982" viewBox="0 0 136.934 135.982">
  <defs>
    <clipPath id="clip-path">
      <rect id="Rectángulo_352635" data-name="Rectángulo 352635" width="68.052" height="63.786" fill="none"/>
    </clipPath>
  </defs>
  <g id="Grupo_1018621" data-name="Grupo 1018621" transform="translate(-263 -595.533)">
    <g id="Grupo_156356" data-name="Grupo 156356" transform="translate(263 650.743)">
      <g id="Grupo_156332" data-name="Grupo 156332" transform="translate(0 0)">
        <path id="Trazado_99257" data-name="Trazado 99257" d="M419.306,105.213a2.549,2.549,0,1,1-2.548-2.434A2.492,2.492,0,0,1,419.306,105.213Z" transform="translate(-414.214 -102.779)" fill="#12263f"/>
        <path id="Trazado_116526" data-name="Trazado 116526" d="M419.306,105.213a2.549,2.549,0,1,1-2.548-2.434A2.492,2.492,0,0,1,419.306,105.213Z" transform="translate(-356.555 -102.779)" fill="#12263f"/>
        <path id="Trazado_99258" data-name="Trazado 99258" d="M427.752,105.213a2.549,2.549,0,1,1-2.545-2.434A2.492,2.492,0,0,1,427.752,105.213Z" transform="translate(-411.129 -102.779)" fill="#12263f"/>
        <path id="Trazado_116527" data-name="Trazado 116527" d="M427.752,105.213a2.549,2.549,0,1,1-2.545-2.434A2.492,2.492,0,0,1,427.752,105.213Z" transform="translate(-353.469 -102.779)" fill="#12263f"/>
        <path id="Trazado_99259" data-name="Trazado 99259" d="M436.2,105.213a2.549,2.549,0,1,1-2.545-2.434A2.492,2.492,0,0,1,436.2,105.213Z" transform="translate(-408.043 -102.779)" fill="#12263f"/>
        <path id="Trazado_116531" data-name="Trazado 116531" d="M436.2,105.213a2.549,2.549,0,1,1-2.545-2.434A2.492,2.492,0,0,1,436.2,105.213Z" transform="translate(-350.384 -102.779)" fill="#12263f"/>
        <path id="Trazado_99260" data-name="Trazado 99260" d="M444.645,105.213a2.549,2.549,0,1,1-2.547-2.434A2.492,2.492,0,0,1,444.645,105.213Z" transform="translate(-404.958 -102.779)" fill="#12263f"/>
        <path id="Trazado_116532" data-name="Trazado 116532" d="M444.645,105.213a2.549,2.549,0,1,1-2.547-2.434A2.492,2.492,0,0,1,444.645,105.213Z" transform="translate(-347.298 -102.779)" fill="#12263f"/>
        <path id="Trazado_99261" data-name="Trazado 99261" d="M453.091,105.213a2.549,2.549,0,1,1-2.545-2.434A2.492,2.492,0,0,1,453.091,105.213Z" transform="translate(-401.872 -102.779)" fill="#12263f"/>
      </g>
      <g id="Grupo_156331" data-name="Grupo 156331" transform="translate(0 12.649)">
        <ellipse id="Elipse_3975" data-name="Elipse 3975" cx="2.546" cy="2.435" rx="2.546" ry="2.435" transform="translate(0 0.001)" fill="#12263f"/>
        <ellipse id="Elipse_4742" data-name="Elipse 4742" cx="2.546" cy="2.435" rx="2.546" ry="2.435" transform="translate(57.659 0.001)" fill="#12263f"/>
        <path id="Trazado_99268" data-name="Trazado 99268" d="M427.752,112.721a2.549,2.549,0,1,1-2.545-2.434A2.493,2.493,0,0,1,427.752,112.721Z" transform="translate(-411.129 -110.287)" fill="#12263f"/>
        <path id="Trazado_116528" data-name="Trazado 116528" d="M427.752,112.721a2.549,2.549,0,1,1-2.545-2.434A2.493,2.493,0,0,1,427.752,112.721Z" transform="translate(-353.469 -110.287)" fill="#12263f"/>
        <ellipse id="Elipse_3976" data-name="Elipse 3976" cx="2.546" cy="2.435" rx="2.546" ry="2.435" transform="translate(23.064 0.001)" fill="#12263f"/>
        <ellipse id="Elipse_4743" data-name="Elipse 4743" cx="2.546" cy="2.435" rx="2.546" ry="2.435" transform="translate(80.723 0.001)" fill="#12263f"/>
        <path id="Trazado_99269" data-name="Trazado 99269" d="M444.645,112.721a2.549,2.549,0,1,1-2.547-2.434A2.494,2.494,0,0,1,444.645,112.721Z" transform="translate(-404.958 -110.287)" fill="#12263f"/>
        <path id="Trazado_116533" data-name="Trazado 116533" d="M444.645,112.721a2.549,2.549,0,1,1-2.547-2.434A2.494,2.494,0,0,1,444.645,112.721Z" transform="translate(-347.298 -110.287)" fill="#12263f"/>
        <path id="Trazado_99270" data-name="Trazado 99270" d="M453.091,112.721a2.549,2.549,0,1,1-2.545-2.434A2.493,2.493,0,0,1,453.091,112.721Z" transform="translate(-401.872 -110.287)" fill="#12263f"/>
      </g>
      <g id="Grupo_156330" data-name="Grupo 156330" transform="translate(0 25.3)">
        <path id="Trazado_99274" data-name="Trazado 99274" d="M419.306,120.23a2.549,2.549,0,1,1-2.548-2.436A2.494,2.494,0,0,1,419.306,120.23Z" transform="translate(-414.214 -117.794)" fill="#12263f"/>
        <path id="Trazado_116529" data-name="Trazado 116529" d="M419.306,120.23a2.549,2.549,0,1,1-2.548-2.436A2.494,2.494,0,0,1,419.306,120.23Z" transform="translate(-356.555 -117.794)" fill="#12263f"/>
        <path id="Trazado_99275" data-name="Trazado 99275" d="M427.752,120.23a2.549,2.549,0,1,1-2.545-2.436A2.493,2.493,0,0,1,427.752,120.23Z" transform="translate(-411.129 -117.794)" fill="#12263f"/>
        <path id="Trazado_116530" data-name="Trazado 116530" d="M427.752,120.23a2.549,2.549,0,1,1-2.545-2.436A2.493,2.493,0,0,1,427.752,120.23Z" transform="translate(-353.469 -117.794)" fill="#12263f"/>
        <path id="Trazado_99276" data-name="Trazado 99276" d="M436.2,120.23a2.549,2.549,0,1,1-2.545-2.436A2.493,2.493,0,0,1,436.2,120.23Z" transform="translate(-408.043 -117.794)" fill="#12263f"/>
        <path id="Trazado_116534" data-name="Trazado 116534" d="M436.2,120.23a2.549,2.549,0,1,1-2.545-2.436A2.493,2.493,0,0,1,436.2,120.23Z" transform="translate(-350.384 -117.794)" fill="#12263f"/>
        <path id="Trazado_99277" data-name="Trazado 99277" d="M444.645,120.23a2.549,2.549,0,1,1-2.547-2.436A2.494,2.494,0,0,1,444.645,120.23Z" transform="translate(-404.958 -117.794)" fill="#12263f"/>
        <path id="Trazado_116535" data-name="Trazado 116535" d="M444.645,120.23a2.549,2.549,0,1,1-2.547-2.436A2.494,2.494,0,0,1,444.645,120.23Z" transform="translate(-347.298 -117.794)" fill="#12263f"/>
        <path id="Trazado_99278" data-name="Trazado 99278" d="M453.091,120.23a2.549,2.549,0,1,1-2.545-2.436A2.493,2.493,0,0,1,453.091,120.23Z" transform="translate(-401.872 -117.794)" fill="#12263f"/>
      </g>
      <g id="Grupo_156327" data-name="Grupo 156327" transform="translate(0 63.252)">
        <path id="Trazado_116550" data-name="Trazado 116550" d="M419.306,120.23a2.549,2.549,0,1,1-2.548-2.436A2.494,2.494,0,0,1,419.306,120.23Z" transform="translate(-414.214 -117.794)" fill="#12263f"/>
        <path id="Trazado_116551" data-name="Trazado 116551" d="M419.306,120.23a2.549,2.549,0,1,1-2.548-2.436A2.494,2.494,0,0,1,419.306,120.23Z" transform="translate(-356.555 -117.794)" fill="#12263f"/>
        <path id="Trazado_116552" data-name="Trazado 116552" d="M427.752,120.23a2.549,2.549,0,1,1-2.545-2.436A2.493,2.493,0,0,1,427.752,120.23Z" transform="translate(-411.129 -117.794)" fill="#12263f"/>
        <path id="Trazado_116553" data-name="Trazado 116553" d="M427.752,120.23a2.549,2.549,0,1,1-2.545-2.436A2.493,2.493,0,0,1,427.752,120.23Z" transform="translate(-353.469 -117.794)" fill="#12263f"/>
        <path id="Trazado_116554" data-name="Trazado 116554" d="M436.2,120.23a2.549,2.549,0,1,1-2.545-2.436A2.493,2.493,0,0,1,436.2,120.23Z" transform="translate(-408.043 -117.794)" fill="#12263f"/>
        <path id="Trazado_116555" data-name="Trazado 116555" d="M436.2,120.23a2.549,2.549,0,1,1-2.545-2.436A2.493,2.493,0,0,1,436.2,120.23Z" transform="translate(-350.384 -117.794)" fill="#12263f"/>
        <path id="Trazado_116556" data-name="Trazado 116556" d="M444.645,120.23a2.549,2.549,0,1,1-2.547-2.436A2.494,2.494,0,0,1,444.645,120.23Z" transform="translate(-404.958 -117.794)" fill="#12263f"/>
        <path id="Trazado_116557" data-name="Trazado 116557" d="M444.645,120.23a2.549,2.549,0,1,1-2.547-2.436A2.494,2.494,0,0,1,444.645,120.23Z" transform="translate(-347.298 -117.794)" fill="#12263f"/>
        <path id="Trazado_116558" data-name="Trazado 116558" d="M453.091,120.23a2.549,2.549,0,1,1-2.545-2.436A2.493,2.493,0,0,1,453.091,120.23Z" transform="translate(-401.872 -117.794)" fill="#12263f"/>
      </g>
      <g id="Grupo_156329" data-name="Grupo 156329" transform="translate(0 37.951)">
        <ellipse id="Elipse_3980" data-name="Elipse 3980" cx="2.546" cy="2.435" rx="2.546" ry="2.435" transform="translate(0 0.002)" fill="#12263f"/>
        <ellipse id="Elipse_4744" data-name="Elipse 4744" cx="2.546" cy="2.435" rx="2.546" ry="2.435" transform="translate(57.659 0.002)" fill="#12263f"/>
        <path id="Trazado_99285" data-name="Trazado 99285" d="M427.752,127.738a2.549,2.549,0,1,1-2.545-2.436A2.491,2.491,0,0,1,427.752,127.738Z" transform="translate(-411.129 -125.302)" fill="#12263f"/>
        <path id="Trazado_116536" data-name="Trazado 116536" d="M427.752,127.738a2.549,2.549,0,1,1-2.545-2.436A2.491,2.491,0,0,1,427.752,127.738Z" transform="translate(-353.469 -125.302)" fill="#12263f"/>
        <ellipse id="Elipse_3981" data-name="Elipse 3981" cx="2.546" cy="2.435" rx="2.546" ry="2.435" transform="translate(23.064 0.002)" fill="#12263f"/>
        <ellipse id="Elipse_4745" data-name="Elipse 4745" cx="2.546" cy="2.435" rx="2.546" ry="2.435" transform="translate(80.723 0.002)" fill="#12263f"/>
        <path id="Trazado_99286" data-name="Trazado 99286" d="M444.645,127.738A2.549,2.549,0,1,1,442.1,125.3,2.492,2.492,0,0,1,444.645,127.738Z" transform="translate(-404.958 -125.302)" fill="#12263f"/>
        <path id="Trazado_116537" data-name="Trazado 116537" d="M444.645,127.738A2.549,2.549,0,1,1,442.1,125.3,2.492,2.492,0,0,1,444.645,127.738Z" transform="translate(-347.298 -125.302)" fill="#12263f"/>
        <path id="Trazado_99287" data-name="Trazado 99287" d="M453.091,127.738a2.549,2.549,0,1,1-2.545-2.436A2.491,2.491,0,0,1,453.091,127.738Z" transform="translate(-401.872 -125.302)" fill="#12263f"/>
      </g>
      <g id="Grupo_156326" data-name="Grupo 156326" transform="translate(0 75.904)">
        <ellipse id="Elipse_4754" data-name="Elipse 4754" cx="2.546" cy="2.435" rx="2.546" ry="2.435" transform="translate(0 0.001)" fill="#12263f"/>
        <ellipse id="Elipse_4750" data-name="Elipse 4750" cx="2.546" cy="2.435" rx="2.546" ry="2.435" transform="translate(57.659 0.001)" fill="#12263f"/>
        <path id="Trazado_116548" data-name="Trazado 116548" d="M427.752,127.738a2.549,2.549,0,1,1-2.545-2.436A2.491,2.491,0,0,1,427.752,127.738Z" transform="translate(-411.129 -125.302)" fill="#12263f"/>
        <path id="Trazado_116542" data-name="Trazado 116542" d="M427.752,127.738a2.549,2.549,0,1,1-2.545-2.436A2.491,2.491,0,0,1,427.752,127.738Z" transform="translate(-353.469 -125.302)" fill="#12263f"/>
        <ellipse id="Elipse_4751" data-name="Elipse 4751" cx="2.546" cy="2.435" rx="2.546" ry="2.435" transform="translate(23.064 0.001)" fill="#12263f"/>
        <ellipse id="Elipse_4752" data-name="Elipse 4752" cx="2.546" cy="2.435" rx="2.546" ry="2.435" transform="translate(80.723 0.001)" fill="#12263f"/>
        <path id="Trazado_116543" data-name="Trazado 116543" d="M444.645,127.738A2.549,2.549,0,1,1,442.1,125.3,2.492,2.492,0,0,1,444.645,127.738Z" transform="translate(-404.958 -125.302)" fill="#12263f"/>
        <path id="Trazado_116544" data-name="Trazado 116544" d="M444.645,127.738A2.549,2.549,0,1,1,442.1,125.3,2.492,2.492,0,0,1,444.645,127.738Z" transform="translate(-347.298 -125.302)" fill="#12263f"/>
        <path id="Trazado_116545" data-name="Trazado 116545" d="M453.091,127.738a2.549,2.549,0,1,1-2.545-2.436A2.491,2.491,0,0,1,453.091,127.738Z" transform="translate(-401.872 -125.302)" fill="#12263f"/>
      </g>
      <g id="Grupo_156328" data-name="Grupo 156328" transform="translate(0 50.602)">
        <ellipse id="Elipse_3985" data-name="Elipse 3985" cx="2.546" cy="2.435" rx="2.546" ry="2.435" transform="translate(0 0.001)" fill="#12263f"/>
        <ellipse id="Elipse_4746" data-name="Elipse 4746" cx="2.546" cy="2.435" rx="2.546" ry="2.435" transform="translate(57.659 0.001)" fill="#12263f"/>
        <path id="Trazado_99291" data-name="Trazado 99291" d="M427.752,135.246a2.549,2.549,0,1,1-2.545-2.436A2.491,2.491,0,0,1,427.752,135.246Z" transform="translate(-411.129 -132.81)" fill="#12263f"/>
        <path id="Trazado_116538" data-name="Trazado 116538" d="M427.752,135.246a2.549,2.549,0,1,1-2.545-2.436A2.491,2.491,0,0,1,427.752,135.246Z" transform="translate(-353.469 -132.81)" fill="#12263f"/>
        <ellipse id="Elipse_3986" data-name="Elipse 3986" cx="2.546" cy="2.435" rx="2.546" ry="2.435" transform="translate(23.064 0.001)" fill="#12263f"/>
        <ellipse id="Elipse_4747" data-name="Elipse 4747" cx="2.546" cy="2.435" rx="2.546" ry="2.435" transform="translate(80.723 0.001)" fill="#12263f"/>
        <path id="Trazado_99292" data-name="Trazado 99292" d="M444.645,135.246a2.549,2.549,0,1,1-2.547-2.436A2.492,2.492,0,0,1,444.645,135.246Z" transform="translate(-404.958 -132.81)" fill="#12263f"/>
        <path id="Trazado_116539" data-name="Trazado 116539" d="M444.645,135.246a2.549,2.549,0,1,1-2.547-2.436A2.492,2.492,0,0,1,444.645,135.246Z" transform="translate(-347.298 -132.81)" fill="#12263f"/>
        <path id="Trazado_99293" data-name="Trazado 99293" d="M453.091,135.246a2.549,2.549,0,1,1-2.545-2.436A2.491,2.491,0,0,1,453.091,135.246Z" transform="translate(-401.872 -132.81)" fill="#12263f"/>
      </g>
    </g>
    <g id="Grupo_1015138" data-name="Grupo 1015138" transform="translate(277.562 595.534)">
      <circle id="Elipse_8447" data-name="Elipse 8447" cx="61.186" cy="61.186" r="61.186" transform="translate(0 0)" fill="#6f88da"/>
      <circle id="Elipse_8448" data-name="Elipse 8448" cx="51.264" cy="51.264" r="51.264" transform="translate(9.922 9.922)" fill="#fff"/>
      <g id="Grupo_1018627" data-name="Grupo 1018627" transform="translate(23.506 26.285)">
        <g id="Grupo_1018626" data-name="Grupo 1018626" clip-path="url(#clip-path)">
          <path id="Trazado_732490" data-name="Trazado 732490" d="M23.818,65.875h-.284c-.142-.183-.284-.185-.425,0H22.4c-.047-.044-.089-.121-.141-.127a9.017,9.017,0,0,1-7.519-8.756,2.467,2.467,0,0,0-.086-1.234c-.164-.265-.7-.04-1.068-.092-.18-.026-.352-.107-.531-.135A8.365,8.365,0,0,1,7.576,52.2a8.791,8.791,0,0,1-1.281-8.979c.095-.247.167-.351-.2-.477a8.5,8.5,0,0,1-3.159-1.91A8.9,8.9,0,0,1,.287,36.493c.072-.128.264-.255,0-.387-.2-.134-.055-.448-.292-.564v-.992q.219-.142,0-.284v-.283q.219-.142,0-.284v-.992a2.846,2.846,0,0,0,.445-1.335,2.934,2.934,0,0,1,.826-1.77v-.168a4.507,4.507,0,0,1,1-1.292c.1.025.135-.011.11-.11a7.066,7.066,0,0,1,3.535-2.372c.495-.165.494-.238.37-.664a10.094,10.094,0,0,1-.6-3.768c.067-.763.268-1.5.29-2.264.227-.082.084-.287.142-.425a23.818,23.818,0,0,1,1.421-2.55l.519-.433a1.248,1.248,0,0,1,.456-.46c.1.028.13-.009.106-.1l.1-.168.367-.386,2.4-1.312c.271.124.463-.145.709-.145a9.883,9.883,0,0,1,2.143-.373c.432-.061.412-.24.411-.529,0-.729.008-1.458.014-2.186.165-.05.127-.172.1-.29.046-.281.254-.528.172-.835a1.593,1.593,0,0,0,.292-.719c.223-.084.054-.335.194-.454l.233-.537.852-1.275a1.044,1.044,0,0,0,.415-.429L18.273,4.21l.155-.106,1.152-.733a.817.817,0,0,0,.567-.283,6.084,6.084,0,0,0,1.689-.564,13.845,13.845,0,0,1,3.966.109l1.837.607.431.243,1.412.891a.955.955,0,0,0,.43.412,1.734,1.734,0,0,0,.567.564,1.6,1.6,0,0,0,.564.577L32.22,8.042l.27.851.336,1.769.918-.805c.1.025.136-.013.113-.112a4.645,4.645,0,0,1,1.022-.933A17.547,17.547,0,0,1,40.735,5.5a11.57,11.57,0,0,1,4.646-.83c1.241.113,2.488.141,3.73.365A24.878,24.878,0,0,1,56.4,7.281a6.779,6.779,0,0,0,3.734.769c.612-.04,1.228-.008,1.842-.007,1.051,0,1.528.473,1.536,1.525.007.85.021,1.7-.008,2.551-.012.376.1.48.473.468.826-.027,1.654-.009,2.48-.008,1.141,0,1.592.454,1.592,1.611q0,23.915,0,47.83c0,1.132-.465,1.587-1.6,1.587H47.382q-7.761,0-15.521-.007c-.241,0-.542.132-.726-.129-.537-.761-.97-.291-1.4.109a8.562,8.562,0,0,1-4.355,2.18c-.151,0-.338-.124-.426.115h-.425a.475.475,0,0,0-.709,0m-2.7-12.91c-.077.02-.134.056-.114.15a8.507,8.507,0,0,1-3.385,2.029.675.675,0,0,0-.578.953.137.137,0,0,0,.005.135q0,.5-.005,1,0,.138,0,.275a6.415,6.415,0,0,0,3.018,4.984,5.988,5.988,0,0,0,3.055,1.087l.558.005a5.347,5.347,0,0,0,1.463-.065,6.959,6.959,0,0,0,4.728-3.738,5.244,5.244,0,0,0-.206-5.351,4.93,4.93,0,0,0-2.7-2.171,1.169,1.169,0,0,1-.844-1.469c.172-.581.7-.813,1.438-.653a7.4,7.4,0,0,1,1.866.835c.424.225.661.721,1.172.819v-12.4a3.7,3.7,0,0,0-2.2,3.4,1.276,1.276,0,0,1-.609,1.321,1.027,1.027,0,0,1-1.644-.614,4.093,4.093,0,0,1,.011-1.688,6.985,6.985,0,0,1,3.967-4.855.8.8,0,0,0,.529-.855q-.037-3.081,0-6.163a.909.909,0,0,0-.53-.927,7.737,7.737,0,0,1-4.009-7.454,1.02,1.02,0,0,1,.685-.967,1.064,1.064,0,0,1,1.15.269c.515.429.416,1,.428,1.561a5.217,5.217,0,0,0,1.724,3.713c.126.123.217.391.427.3.235-.1.11-.375.11-.567.007-4.7.017-9.4-.007-14.1a8.065,8.065,0,0,0-.286-2.127,6.859,6.859,0,0,0-8.684-4.686,6.157,6.157,0,0,0-2.831,1.8A6.994,6.994,0,0,0,17,12.338a.8.8,0,0,0,.6.8A8.733,8.733,0,0,1,22.4,16.867a9.825,9.825,0,0,1,1.408,4.66,1.286,1.286,0,0,1-1.1,1.252,1.042,1.042,0,0,1-1.144-1.05c-.016-.309-.122-.594-.15-.89a6.419,6.419,0,0,0-3.393-5.117,5.1,5.1,0,0,0-2.015-.827,10.609,10.609,0,0,0-2.664.086,8.335,8.335,0,0,0-2.78,1.115,5.241,5.241,0,0,0-1.339,1.487,6.924,6.924,0,0,0-1.15,5.59,9.785,9.785,0,0,0,1.311,2.876l-.045.417c-.486.476-.841,1.093-1.709,1.045a2.835,2.835,0,0,0-1.059.248,8.3,8.3,0,0,0-3.027,2.156l-.112.031.11.068L3.4,30.29c-.078.018-.134.052-.113.146C2.774,31.469,2.1,32.455,2.294,33.7q0,.138,0,.276v.291q0,.138,0,.276a5.368,5.368,0,0,0,.993,3.266c-.022.095.035.129.113.148a.4.4,0,0,0,.033.136c-.026.1.031.128.11.145l.283.279.139.156.9.981c-.033.1.008.124.1.107a2.561,2.561,0,0,1,.7.257,3.932,3.932,0,0,0,2.106.855c.763.038,1.1.535,1.573.908l.044.415a10.541,10.541,0,0,0-1.218,2.646,2.491,2.491,0,0,0-.19,1.192l-.013.274q0,.287,0,.573a.129.129,0,0,0,0,.136,4.572,4.572,0,0,0,.054,1.035A6.9,6.9,0,0,0,10.7,52.106a5.389,5.389,0,0,0,3.338,1.266l.559,0h.567a6.181,6.181,0,0,0,4.594-2.253,5.423,5.423,0,0,0,1.653-3.947c.07-.026.129-.059.106-.15.011-.14.032-.28.032-.42a1.059,1.059,0,0,1,.787-1.106,1.2,1.2,0,0,1,1.273.531c.355.4.071.832.071,1.252a7.55,7.55,0,0,1-.8,3.184,11.036,11.036,0,0,1-1.62,2.387c-.094-.019-.131.038-.151.116ZM54.3,16.377a24.1,24.1,0,0,0-2.475,1.586,1.234,1.234,0,0,1-1.288.174A1.144,1.144,0,0,1,49.9,16.93c.009-2.951-.014-5.9.022-8.854a.624.624,0,0,0-.578-.732,22.507,22.507,0,0,0-4.959-.305,13.7,13.7,0,0,0-6.66,2.472,30.507,30.507,0,0,0-4.266,3.835,1.825,1.825,0,0,0-.579,1.423c-.167,14.664.379,29.333-.267,43.994-.006.144-.1.361.108.428a.45.45,0,0,0,.517-.11,3.584,3.584,0,0,1,.364-.325c.1.025.133-.012.11-.108a1.716,1.716,0,0,1,.172-.219A19.346,19.346,0,0,1,40.562,54.3a12.415,12.415,0,0,1,4.723-.865,34.555,34.555,0,0,1,3.871.361,23.883,23.883,0,0,1,6.859,2.051,8.635,8.635,0,0,0,4.459.984c.646-.035.79-.185.789-.814q-.028-22-.014-44.01c0-1.719,0-1.7-1.71-1.709-.484,0-.573.152-.568.594.022,2.008.02,4.016.006,6.024A1.238,1.238,0,0,1,57.1,18.069c-.816-.6-1.72-1.068-2.517-1.693-.014-.091-.027-.2-.142-.2s-.128.106-.142.2M65.784,38.164v-21.9c0-1.418,0-1.38-1.435-1.435-.671-.026-.853.133-.851.832q.035,22.077.018,44.154c0,1.528,0,1.5,1.541,1.539.578.015.744-.12.742-.724-.023-7.489-.015-14.978-.015-22.467M34.134,61.317c.223.012.315.021.406.021H60.678c.094,0,.189-.006.283,0,.212.015.293-.081.287-.29-.018-.633.164-1.372-.106-1.865-.193-.352-1-.082-1.537-.111a6.387,6.387,0,0,0-.991,0,3.433,3.433,0,0,1-2.059-.493,21,21,0,0,0-3.543-1.5,24.638,24.638,0,0,0-5.1-1.16A14.618,14.618,0,0,0,42.6,56a18.623,18.623,0,0,0-8.467,5.319M52.2,14.973c.147-.117.211-.177.282-.225,1.979-1.334,1.773-1.415,3.516-.121.072.054.182.063.244.124.414.41.469.17.468-.24-.006-1.392-.009-2.783,0-4.175a.608.608,0,0,0-.391-.647A30.541,30.541,0,0,0,52.2,8.042Z" transform="translate(0 -2.089)"/>
          <path id="Trazado_732491" data-name="Trazado 732491" d="M153.622.435q0-.217,0-.435h3.97q0,.272,0,.543a13.85,13.85,0,0,0-3.966-.109" transform="translate(-131.786)" fill="#fff"/>
          <path id="Trazado_732492" data-name="Trazado 732492" d="M.287,239.724l-.287-.1v-.283l.292,0c.259.132.067.259-.005.387" transform="translate(0 -205.321)" fill="#fcfcfc"/>
          <path id="Trazado_732493" data-name="Trazado 732493" d="M.292,235.932l-.292,0v-.567c.236.116.091.43.292.564" transform="translate(0 -201.916)" fill="#fff"/>
          <path id="Trazado_732494" data-name="Trazado 732494" d="M167.584,447.835a.475.475,0,0,1,.709,0Z" transform="translate(-143.766 -384.049)" fill="#020202"/>
          <path id="Trazado_732495" data-name="Trazado 732495" d="M162.6,447.96c.142-.185.284-.183.425,0Z" transform="translate(-139.487 -384.174)" fill="#020202"/>
          <path id="Trazado_732496" data-name="Trazado 732496" d="M175.991,447.8v.115h-.425c.087-.239.275-.11.426-.115" transform="translate(-150.612 -384.129)" fill="#fcfcfc"/>
          <path id="Trazado_732497" data-name="Trazado 732497" d="M0,222.4q.219.142,0,.284Z" transform="translate(0 -190.793)" fill="#020202"/>
          <path id="Trazado_732498" data-name="Trazado 732498" d="M0,226.392q.219.142,0,.284Z" transform="translate(0 -194.216)" fill="#020202"/>
          <path id="Trazado_732499" data-name="Trazado 732499" d="M230.291,86.336a3.565,3.565,0,0,0-.364.325.45.45,0,0,1-.517.11c-.211-.068-.114-.285-.108-.428.645-14.661.1-29.33.267-43.994a1.825,1.825,0,0,1,.579-1.423,30.506,30.506,0,0,1,4.266-3.835,13.706,13.706,0,0,1,6.66-2.472,22.509,22.509,0,0,1,4.959.305.624.624,0,0,1,.578.732c-.036,2.951-.013,5.9-.022,8.854a1.144,1.144,0,0,0,.636,1.206,1.234,1.234,0,0,0,1.288-.174,24.056,24.056,0,0,1,2.475-1.586h.284c.8.625,1.7,1.089,2.517,1.693a1.238,1.238,0,0,0,1.873-1.155c.014-2.008.017-4.016-.006-6.024,0-.442.084-.6.568-.594,1.71.011,1.711-.01,1.711,1.709q0,22.005.014,44.01c0,.629-.143.779-.789.814a8.632,8.632,0,0,1-4.459-.984,23.88,23.88,0,0,0-6.859-2.051,34.552,34.552,0,0,0-3.871-.361,12.411,12.411,0,0,0-4.722.865,19.345,19.345,0,0,0-6.677,4.131,1.693,1.693,0,0,0-.172.219l-.11.108m13.389-14.427q-5.275,0-10.55,0c-.864,0-1.315.439-1.276,1.207.036.706.477,1.057,1.356,1.057q10.479,0,20.959,0a2.812,2.812,0,0,0,.424-.008,1.126,1.126,0,0,0-.009-2.25,4.191,4.191,0,0,0-.566-.009H243.679m-3.953-11.34q3.291,0,6.582,0a1.163,1.163,0,1,0-.025-2.265q-6.546,0-13.092,0c-.914,0-1.346.377-1.339,1.145.007.747.453,1.119,1.363,1.121q3.255,0,6.511,0M238.576,65.1c-1.792,0-3.585,0-5.377,0-.906,0-1.349.381-1.346,1.137s.451,1.128,1.355,1.129q3.714,0,7.429,0,1.769,0,3.538,0a1.245,1.245,0,0,0,1.242-.933c.178-.536-.219-.878-.592-1.16a1.288,1.288,0,0,0-.8-.18c-1.816.011-3.632.006-5.448.006M248.868,51.5c-1.863,0-3.726.007-5.589,0a1.077,1.077,0,0,0-1.151.717,1.162,1.162,0,0,0,1.2,1.57c3.608-.039,7.217-.015,10.825-.016.838,0,1.5-.5,1.505-1.125a1.346,1.346,0,0,0-1.488-1.142q-2.653,0-5.306,0M238.02,46.961c1.627,0,3.254,0,4.881,0a1.163,1.163,0,1,0-.015-2.265q-4.881,0-9.762,0c-.841,0-1.276.4-1.272,1.139s.443,1.122,1.287,1.125c1.627.006,3.254,0,4.881,0M251.6,67.373c.919,0,1.838.01,2.756,0a1.315,1.315,0,0,0,1.305-1.108,1.3,1.3,0,0,0-1.33-1.154q-2.721-.013-5.442,0a1.13,1.13,0,1,0,.025,2.259c.895.012,1.79,0,2.685,0M235.748,51.5c-.9,0-1.79-.008-2.685,0a1.133,1.133,0,1,0-.008,2.261q2.686.014,5.371,0a1.15,1.15,0,1,0,.007-2.263c-.895-.01-1.79,0-2.686,0m17,9.066v0h1.624c.024,0,.047,0,.071,0a1.331,1.331,0,0,0,1.217-1.126,1.286,1.286,0,0,0-1.2-1.133c-1.129-.022-2.259-.019-3.389,0a1.126,1.126,0,0,0-.014,2.249c.564.023,1.129,0,1.694,0" transform="translate(-196.688 -29.668)" fill="#e8eef2"/>
          <path id="Trazado_732500" data-name="Trazado 732500" d="M36.758,77.062A5.989,5.989,0,0,1,33.7,75.976a6.414,6.414,0,0,1-3.018-4.984c.125-.092.124-.183,0-.275q0-.5.005-1c.015-.014.044-.032.042-.04a.586.586,0,0,0-.047-.095.675.675,0,0,1,.578-.953A8.508,8.508,0,0,0,34.648,66.6l.114-.15,0,0,.151-.116a11.026,11.026,0,0,0,1.62-2.387,7.55,7.55,0,0,0,.8-3.184c0-.42.285-.85-.071-1.252a1.2,1.2,0,0,0-1.273-.531,1.059,1.059,0,0,0-.787,1.106c0,.14-.02.28-.032.42l-.106.15A5.423,5.423,0,0,1,33.4,64.609a6.18,6.18,0,0,1-4.593,2.252.248.248,0,0,0-.418,0h-.149a.379.379,0,0,0-.559,0,5.389,5.389,0,0,1-3.338-1.266,6.9,6.9,0,0,1-2.678-4.052,4.572,4.572,0,0,1-.054-1.035c.015-.014.045-.032.043-.04a.585.585,0,0,0-.047-.1V59.8c.125-.086.13-.177.013-.274a2.492,2.492,0,0,1,.19-1.192,10.541,10.541,0,0,1,1.218-2.646c.151-.156.157-.3-.044-.415-.478-.374-.811-.871-1.574-.908a3.933,3.933,0,0,1-2.106-.855,2.561,2.561,0,0,0-.7-.257l-.1-.107-.9-.981L17.47,52l-.283-.279-.11-.145a.4.4,0,0,1-.033-.136l-.113-.148a5.368,5.368,0,0,1-.993-3.266c.128-.092.126-.184,0-.276v-.291c.128-.092.126-.184,0-.276-.19-1.247.48-2.233.994-3.266l.113-.146.144-.276q0-.049,0-.1a8.3,8.3,0,0,1,3.027-2.156A2.835,2.835,0,0,1,21.276,41c.868.048,1.223-.569,1.709-1.045.2-.119.195-.261.045-.417a9.784,9.784,0,0,1-1.311-2.876,6.924,6.924,0,0,1,1.149-5.59,5.243,5.243,0,0,1,1.339-1.487,8.335,8.335,0,0,1,2.78-1.115,10.609,10.609,0,0,1,2.664-.086,5.1,5.1,0,0,1,2.015.827,6.419,6.419,0,0,1,3.393,5.117c.029.3.134.582.151.89a1.042,1.042,0,0,0,1.144,1.05,1.286,1.286,0,0,0,1.1-1.252,9.825,9.825,0,0,0-1.408-4.66,8.733,8.733,0,0,0-4.794-3.727.8.8,0,0,1-.6-.8,6.994,6.994,0,0,1,1.806-5.576,6.157,6.157,0,0,1,2.831-1.8,6.859,6.859,0,0,1,8.684,4.686,8.065,8.065,0,0,1,.286,2.127c.025,4.7.014,9.4.007,14.1,0,.192.125.465-.11.567-.21.091-.3-.178-.427-.3A5.217,5.217,0,0,1,42,35.907c-.012-.558.087-1.132-.428-1.561a1.064,1.064,0,0,0-1.15-.269,1.021,1.021,0,0,0-.685.967A7.737,7.737,0,0,0,43.748,42.5a.909.909,0,0,1,.53.927q-.037,3.081,0,6.163a.8.8,0,0,1-.529.855A6.985,6.985,0,0,0,39.783,55.3a4.088,4.088,0,0,0-.011,1.688,1.027,1.027,0,0,0,1.643.614,1.276,1.276,0,0,0,.609-1.321,3.7,3.7,0,0,1,2.2-3.4v12.4c-.511-.1-.747-.593-1.172-.819a7.394,7.394,0,0,0-1.866-.835c-.738-.16-1.266.072-1.437.653a1.169,1.169,0,0,0,.844,1.469,4.931,4.931,0,0,1,2.7,2.171,5.244,5.244,0,0,1,.206,5.351A6.958,6.958,0,0,1,38.779,77a5.347,5.347,0,0,1-1.463.065.379.379,0,0,0-.558-.005M31.653,43.631c0,.153-.031.315.113.431a2.69,2.69,0,0,0,.092.552A1.016,1.016,0,0,0,33,45.328c.515-.059,1.137-.695,1.034-1.143s-.059-.879-.128-1.31a6.935,6.935,0,0,0-6.775-5.464.983.983,0,0,0-.881.583c-.42.839.083,1.585,1.149,1.7.116.145.278.113.431.114a.982.982,0,0,0,.52.149,2.937,2.937,0,0,1,1.618.673,4.549,4.549,0,0,1,1.684,3m-3.235,7.942a.25.25,0,0,0,0-.418,2.032,2.032,0,0,0-.172-.6,1.217,1.217,0,0,0-1.216-.665.935.935,0,0,0-.858.8,3.7,3.7,0,0,0,.074,1.654c1.028,3.008,2.813,4.357,5.957,4.319A5.348,5.348,0,0,0,36.036,54.7a5.969,5.969,0,0,0,1.419-3.468,1.325,1.325,0,0,0-1.068-1.352,1.074,1.074,0,0,0-1.182.943,7.415,7.415,0,0,1-.309,1.482,3.4,3.4,0,0,1-3.653,2.084,3.252,3.252,0,0,1-2.825-2.819M36.539,27.2a3.591,3.591,0,0,0,.664-.076c1.982-.658,3.366-1.8,3.542-4.051.06-.761-.217-1.394-.879-1.527a1.151,1.151,0,0,0-1.293,1.134,2.243,2.243,0,0,1-2.12,2.25c-.858.05-1.271.433-1.256,1.166s.455,1.095,1.34,1.1" transform="translate(-13.644 -15.574)" fill="#6f88da"/>
          <path id="Trazado_732501" data-name="Trazado 732501" d="M449.051,112.957c0,7.489-.008,14.978.015,22.467,0,.6-.164.738-.742.724-1.541-.04-1.541-.011-1.541-1.539q0-22.077-.018-44.154c0-.7.181-.858.852-.832,1.433.055,1.435.016,1.435,1.435Z" transform="translate(-383.268 -76.882)" fill="#727997"/>
          <path id="Trazado_732502" data-name="Trazado 732502" d="M240.167,382.916a18.625,18.625,0,0,1,8.467-5.319,14.621,14.621,0,0,1,5.313-.075,24.629,24.629,0,0,1,5.1,1.16,20.988,20.988,0,0,1,3.543,1.5,3.434,3.434,0,0,0,2.059.493,6.389,6.389,0,0,1,.991,0c.534.029,1.344-.241,1.537.111.27.493.087,1.231.106,1.865.006.209-.075.3-.287.29-.094-.007-.189,0-.283,0H240.573c-.091,0-.183-.009-.406-.021" transform="translate(-206.033 -323.688)" fill="#d0d2d4"/>
          <path id="Trazado_732503" data-name="Trazado 732503" d="M367.292,48.812V41.881a30.542,30.542,0,0,1,4.123,1.647.608.608,0,0,1,.391.647c-.013,1.391-.009,2.783,0,4.175,0,.41-.054.651-.468.24-.062-.061-.172-.07-.244-.124-1.743-1.293-1.537-1.213-3.516.121-.072.048-.136.108-.282.225" transform="translate(-315.09 -35.929)" fill="#ffca28"/>
          <path id="Trazado_732504" data-name="Trazado 732504" d="M226.7,41.856a.538.538,0,0,1,.605.453c.091.289-.11.36-.335.4l-.271-.851" transform="translate(-194.476 -35.903)" fill="#fff"/>
          <path id="Trazado_732505" data-name="Trazado 732505" d="M214.458,22.942c.363.021.855-.084.564.577a1.6,1.6,0,0,1-.564-.577" transform="translate(-183.978 -19.681)" fill="#fff"/>
          <path id="Trazado_732506" data-name="Trazado 732506" d="M80.8,75.078c.153-.456.368-.607.709-.145-.246,0-.437.269-.709.145" transform="translate(-69.315 -64.043)" fill="#fff"/>
          <path id="Trazado_732507" data-name="Trazado 732507" d="M137.073,6.493c-.155-.106-.148-.222-.014-.336.209-.179.392-.024.581.053a.817.817,0,0,1-.567.283" transform="translate(-117.492 -5.211)" fill="#fff"/>
          <path id="Trazado_732508" data-name="Trazado 732508" d="M207.445,14.623c.026-.108.03-.278.184-.233.34.1.22.407.246.645a.955.955,0,0,1-.43-.412" transform="translate(-177.961 -12.339)" fill="#fff"/>
          <path id="Trazado_732509" data-name="Trazado 732509" d="M104.994,42.642c-.179-.352-.248-.659.292-.719a1.593,1.593,0,0,1-.292.719" transform="translate(-89.959 -35.965)" fill="#fff"/>
          <path id="Trazado_732510" data-name="Trazado 732510" d="M194.477,6.636c.025-.106.02-.264.174-.239.271.045.249.279.257.482l-.431-.243" transform="translate(-166.837 -5.486)" fill="#fff"/>
          <path id="Trazado_732511" data-name="Trazado 732511" d="M52.7,95.177c-.107-.393-.094-.4.519-.433l-.519.433" transform="translate(-45.163 -81.278)" fill="#fff"/>
          <path id="Trazado_732512" data-name="Trazado 732512" d="M116.392,23.389c-.147-.348-.106-.39.415-.429a1.044,1.044,0,0,1-.415.429" transform="translate(-99.787 -19.697)" fill="#fff"/>
          <path id="Trazado_732513" data-name="Trazado 732513" d="M61.142,86.887c-.044-.287-.094-.579.367-.386l-.367.386" transform="translate(-52.429 -74.154)" fill="#fff"/>
          <path id="Trazado_732514" data-name="Trazado 732514" d="M41.092,116.156c-.254-.242-.178-.375.142-.425-.058.138.085.344-.142.425" transform="translate(-35.121 -99.282)" fill="#fff"/>
          <path id="Trazado_732515" data-name="Trazado 732515" d="M108.872,35.485c-.068-.242-.139-.486.233-.537l-.233.537" transform="translate(-93.352 -29.981)" fill="#fff"/>
          <path id="Trazado_732516" data-name="Trazado 732516" d="M162.627,431.906a.379.379,0,0,1,.558.005l-.558-.005" transform="translate(-139.513 -370.418)" fill="#fd8b8f"/>
          <path id="Trazado_732517" data-name="Trazado 732517" d="M382.333,99.336h-.284c.014-.091.027-.2.142-.2s.128.106.142.2" transform="translate(-327.749 -85.049)" fill="#020202"/>
          <path id="Trazado_732518" data-name="Trazado 732518" d="M103.126,53.147c-.229-.189-.1-.251.1-.29.025.117.063.239-.1.29" transform="translate(-88.365 -45.345)" fill="#fff"/>
          <path id="Trazado_732519" data-name="Trazado 732519" d="M98.782,360.1a.379.379,0,0,1,.559,0l-.559,0" transform="translate(-84.742 -308.814)" fill="#fb898d"/>
          <path id="Trazado_732520" data-name="Trazado 732520" d="M65.768,168.574c.15.157.158.3-.045.417l.045-.417" transform="translate(-56.382 -144.615)" fill="#fb898d"/>
          <path id="Trazado_732521" data-name="Trazado 732521" d="M103.762,360.169a.248.248,0,0,1,.418,0h-.418" transform="translate(-89.015 -308.881)" fill="#fb898d"/>
          <path id="Trazado_732522" data-name="Trazado 732522" d="M65.726,279.282c.2.119.195.259.044.415l-.044-.415" transform="translate(-56.385 -239.588)" fill="#fb898d"/>
          <path id="Trazado_732523" data-name="Trazado 732523" d="M16.137,222.424c.126.092.128.184,0,.276q0-.138,0-.276" transform="translate(-13.843 -190.811)" fill="#fd8b8f"/>
          <path id="Trazado_732524" data-name="Trazado 732524" d="M16.138,226.414c.126.092.128.184,0,.276q0-.138,0-.276" transform="translate(-13.844 -194.234)" fill="#fd8b8f"/>
          <path id="Trazado_732525" data-name="Trazado 732525" d="M119.9,387.983c.124.092.125.184,0,.275q0-.138,0-.275" transform="translate(-102.858 -332.84)" fill="#fd8b8f"/>
          <path id="Trazado_732526" data-name="Trazado 732526" d="M56.05,309.208c.117.1.112.188-.013.274l.013-.274" transform="translate(-48.073 -265.261)" fill="#fd8b8f"/>
          <path id="Trazado_732527" data-name="Trazado 732527" d="M34.14,264.315l.1.107c-.09.017-.131-.011-.1-.107" transform="translate(-29.278 -226.749)" fill="#fb898d"/>
          <path id="Trazado_732528" data-name="Trazado 732528" d="M237.421,53.983l.113-.112c.023.1-.014.136-.113.112" transform="translate(-203.677 -46.214)" fill="#fcfcfc"/>
          <path id="Trazado_732529" data-name="Trazado 732529" d="M128.57,14.214c.024-.076.053-.145.155-.106l-.155.106" transform="translate(-110.297 -12.093)" fill="#010101"/>
          <path id="Trazado_732530" data-name="Trazado 732530" d="M55.936,315.169a.588.588,0,0,1,.048.1c0,.008-.028.027-.043.04a.13.13,0,0,1,0-.136" transform="translate(-47.972 -270.375)" fill="#fd8b8f"/>
          <path id="Trazado_732531" data-name="Trazado 732531" d="M150.655,316.328l.106-.15c.023.092-.037.125-.106.15" transform="translate(-129.243 -271.241)" fill="#fd8b8f"/>
          <path id="Trazado_732532" data-name="Trazado 732532" d="M148.706,357.163l-.151.116c.02-.078.057-.134.151-.116" transform="translate(-127.441 -306.398)" fill="#fd8b8f"/>
          <path id="Trazado_732533" data-name="Trazado 732533" d="M147.877,357.963l-.114.15c-.019-.094.037-.13.114-.15" transform="translate(-126.758 -307.087)" fill="#fd8b8f"/>
          <path id="Trazado_732534" data-name="Trazado 732534" d="M26.92,256.318l.139.156-.139-.156" transform="translate(-23.094 -219.888)" fill="#fb898d"/>
          <path id="Trazado_732535" data-name="Trazado 732535" d="M24.111,253.336l.11.145c-.079-.016-.137-.049-.11-.145" transform="translate(-20.679 -217.33)" fill="#fb898d"/>
          <path id="Trazado_732536" data-name="Trazado 732536" d="M23.1,251.338l.113.148c-.078-.019-.135-.053-.113-.148" transform="translate(-19.811 -215.616)" fill="#fb898d"/>
          <path id="Trazado_732537" data-name="Trazado 732537" d="M119.811,380a.574.574,0,0,1,.047.095c0,.008-.027.026-.042.04a.137.137,0,0,1-.005-.135" transform="translate(-102.769 -325.99)" fill="#fd8b8f"/>
          <path id="Trazado_732538" data-name="Trazado 732538" d="M59.868,90.882l.106-.1c.024.1-.01.132-.106.1" transform="translate(-51.359 -77.876)" fill="#fff"/>
          <path id="Trazado_732539" data-name="Trazado 732539" d="M236.426,398.055l.11-.108c.023.1-.013.134-.11.108" transform="translate(-202.823 -341.388)" fill="#e5ebee"/>
          <path id="Trazado_732540" data-name="Trazado 732540" d="M15.971,182.637l.11-.11c.025.1-.012.135-.11.11" transform="translate(-13.701 -156.585)" fill="#fcfcfc"/>
          <path id="Trazado_732541" data-name="Trazado 732541" d="M8.3,192.56l-.107-.108.107-.06v.168" transform="translate(-7.029 -165.048)" fill="#020202"/>
          <path id="Trazado_732542" data-name="Trazado 732542" d="M24.273,195.777c0,.033,0,.066,0,.1l-.11-.068.112-.031" transform="translate(-20.727 -167.952)" fill="#fb898d"/>
          <path id="Trazado_732543" data-name="Trazado 732543" d="M23.214,198.418l-.113.146c-.022-.094.035-.128.113-.146" transform="translate(-19.814 -170.217)" fill="#fb898d"/>
          <path id="Trazado_732544" data-name="Trazado 732544" d="M259.234,297.17h10.338a4.171,4.171,0,0,1,.566.009,1.126,1.126,0,0,1,.009,2.25,2.815,2.815,0,0,1-.424.008q-10.479,0-20.959,0c-.878,0-1.319-.351-1.356-1.057-.04-.768.412-1.206,1.276-1.207q5.275-.007,10.55,0" transform="translate(-212.243 -254.929)"/>
          <path id="Trazado_732545" data-name="Trazado 732545" d="M255.289,203.722q-3.255,0-6.511,0c-.911,0-1.357-.374-1.363-1.121-.007-.767.425-1.144,1.339-1.145q6.546,0,13.092,0a1.163,1.163,0,1,1,.025,2.265q-3.291.007-6.582,0" transform="translate(-212.25 -172.821)"/>
          <path id="Trazado_732546" data-name="Trazado 732546" d="M254.139,249.295c1.816,0,3.632.005,5.448-.006a1.288,1.288,0,0,1,.8.18c.373.282.77.624.592,1.16a1.245,1.245,0,0,1-1.242.933q-1.769,0-3.538,0-3.714,0-7.429,0c-.9,0-1.353-.381-1.355-1.129s.44-1.135,1.346-1.137c1.792,0,3.585,0,5.377,0" transform="translate(-212.251 -213.858)"/>
          <path id="Trazado_732547" data-name="Trazado 732547" d="M325.985,153.564q2.653,0,5.306,0a1.346,1.346,0,0,1,1.488,1.142c-.007.627-.668,1.125-1.505,1.125-3.609,0-7.217-.023-10.825.016a1.162,1.162,0,0,1-1.2-1.57,1.077,1.077,0,0,1,1.151-.717c1.863.012,3.726,0,5.589,0" transform="translate(-273.806 -131.735)"/>
          <path id="Trazado_732548" data-name="Trazado 732548" d="M253.583,107.976c-1.627,0-3.254,0-4.881,0-.843,0-1.283-.4-1.287-1.125s.431-1.138,1.272-1.139q4.881-.007,9.762,0a1.163,1.163,0,1,1,.014,2.265c-1.627,0-3.254,0-4.881,0" transform="translate(-212.25 -90.683)"/>
          <path id="Trazado_732549" data-name="Trazado 732549" d="M363,251.575c-.9,0-1.79.009-2.685,0a1.13,1.13,0,1,1-.025-2.259q2.721-.017,5.442,0a1.3,1.3,0,0,1,1.33,1.154,1.316,1.316,0,0,1-1.305,1.108c-.919.013-1.837,0-2.756,0" transform="translate(-308.092 -213.872)" fill="#010101"/>
          <path id="Trazado_732550" data-name="Trazado 732550" d="M251.31,153.57c.9,0,1.79-.007,2.686,0a1.15,1.15,0,1,1-.007,2.263q-2.686.011-5.371,0a1.133,1.133,0,1,1,.007-2.261c.9-.01,1.79,0,2.685,0" transform="translate(-212.25 -131.741)" fill="#010101"/>
          <path id="Trazado_732551" data-name="Trazado 732551" d="M377.849,203.675c-.565,0-1.13.018-1.694,0a1.126,1.126,0,0,1,.014-2.249c1.129-.021,2.259-.024,3.389,0a1.286,1.286,0,0,1,1.2,1.133,1.331,1.331,0,0,1-1.217,1.126c-.023,0-.047,0-.071,0h-1.624v0" transform="translate(-321.786 -172.779)" fill="#010101"/>
          <path id="Trazado_732552" data-name="Trazado 732552" d="M90.021,243.027a3.252,3.252,0,0,0,2.825,2.819,3.4,3.4,0,0,0,3.653-2.084,7.4,7.4,0,0,0,.309-1.482,1.074,1.074,0,0,1,1.182-.943,1.325,1.325,0,0,1,1.068,1.352,5.969,5.969,0,0,1-1.419,3.468,5.347,5.347,0,0,1-3.837,1.963c-3.144.038-4.929-1.31-5.957-4.319a3.7,3.7,0,0,1-.074-1.654.934.934,0,0,1,.858-.8,1.217,1.217,0,0,1,1.216.665,2.039,2.039,0,0,1,.172.6q0,.209,0,.418" transform="translate(-75.247 -207.027)" fill="#020101"/>
          <path id="Trazado_732553" data-name="Trazado 732553" d="M88.952,155.889c-1.066-.116-1.57-.863-1.15-1.7a.983.983,0,0,1,.881-.583,6.935,6.935,0,0,1,6.775,5.464c.068.431.026.869.127,1.31s-.519,1.084-1.034,1.143a1.016,1.016,0,0,1-1.143-.714,2.69,2.69,0,0,1-.092-.552c.013-.157.077-.327-.113-.431a4.549,4.549,0,0,0-1.683-3,2.937,2.937,0,0,0-1.618-.673.981.981,0,0,1-.52-.149c-.1-.191-.274-.126-.431-.114" transform="translate(-75.196 -131.768)" fill="#020101"/>
          <path id="Trazado_732554" data-name="Trazado 732554" d="M152.994,47.538c-.886-.009-1.325-.377-1.34-1.1s.4-1.116,1.256-1.166a2.243,2.243,0,0,0,2.12-2.25,1.151,1.151,0,0,1,1.292-1.134c.662.133.938.766.879,1.527-.176,2.254-1.56,3.393-3.542,4.051a3.59,3.59,0,0,1-.664.076" transform="translate(-130.099 -35.915)" fill="#020101"/>
          <path id="Trazado_732555" data-name="Trazado 732555" d="M126.694,197.407c.19.1.126.274.113.431-.144-.116-.112-.277-.113-.431" transform="translate(-108.685 -169.35)" fill="#fd8b8f"/>
          <path id="Trazado_732556" data-name="Trazado 732556" d="M96.783,169.591c.157-.012.328-.078.432.114-.154,0-.316.031-.432-.114" transform="translate(-83.027 -145.47)" fill="#fd8b8f"/>
          <path id="Trazado_732557" data-name="Trazado 732557" d="M103.921,250.769q0-.209,0-.418a.25.25,0,0,1,0,.418" transform="translate(-89.148 -214.769)" fill="#fd8b8f"/>
        </g>
      </g>
    </g>
  </g>
</svg>
