<svg xmlns="http://www.w3.org/2000/svg" xmlns:xlink="http://www.w3.org/1999/xlink" width="88.689" height="88.689" viewBox="0 0 88.689 88.689">
  <defs>
    <clipPath id="clip-path">
      <rect id="Rectángulo_352617" data-name="Rectángulo 352617" width="45.125" height="45.118" fill="#12263f"/>
    </clipPath>
  </defs>
  <g id="Grupo_1018692" data-name="Grupo 1018692" transform="translate(-285 -14868.793)">
    <g id="Grupo_1018612" data-name="Grupo 1018612" transform="translate(285 14868.793)">
      <g id="Grupo_20664" data-name="Grupo 20664" transform="translate(0 0)">
        <path id="Trazado_99075" data-name="Trazado 99075" d="M44.345,0A44.345,44.345,0,1,1,0,44.345,44.345,44.345,0,0,1,44.345,0Z" fill="#4adbd1"/>
        <path id="Trazado_715274" data-name="Trazado 715274" d="M35.122,0A35.122,35.122,0,1,1,0,35.122,35.122,35.122,0,0,1,35.122,0Z" transform="translate(9.223 9.223)" fill="#f6f6f6"/>
      </g>
    </g>
    <g id="Grupo_1018617" data-name="Grupo 1018617" transform="translate(308.782 14891.862)">
      <path id="Trazado_732354" data-name="Trazado 732354" d="M96.994,281.925h1.393V280.54H96.994Zm2.923,0H101.3v-1.389H99.918Zm-4.43-1.379h-1.4v1.375h1.4Zm-4.3,1.377h1.373v-1.389H91.189Z" transform="translate(-83.139 -255.769)" fill="#12263f"/>
      <g id="Grupo_1018616" data-name="Grupo 1018616">
        <g id="Grupo_1018615" data-name="Grupo 1018615" clip-path="url(#clip-path)">
          <path id="Trazado_732355" data-name="Trazado 732355" d="M45.125,19.121c-.132.658-.217,1.33-.4,1.972a10.836,10.836,0,0,1-5.969,7.014c-.118.057-.238.111-.38.177a5.993,5.993,0,0,0,.187.614.4.4,0,0,0,.221.212c1.949.568,2.5,1.954,1.439,3.642a2.224,2.224,0,0,1,0,2.9,2.23,2.23,0,0,1,.007,2.9c1.278,1.612.124,4.006-2.384,3.67,0,.236.006.464,0,.692a2.165,2.165,0,0,1-2.255,2.2c-.9.007-1.792,0-2.688,0A2.182,2.182,0,0,1,30.575,42.8c0-.175,0-.35,0-.584a6.9,6.9,0,0,1-3.368-.444c-.989-.558-1.9-1.255-2.885-1.916a2.6,2.6,0,0,1-2.372.9Q11.288,40.734.624,40.748h-.6V29.1H.558q10.817,0,21.635-.006a2.458,2.458,0,0,1,2.181.975c1.33-1.026,2.516-2.28,4.46-2.373a11.144,11.144,0,0,1-5.328-7.311c-.134-.007-.263-.019-.392-.019-2.526,0-5.053,0-7.579-.008-.3,0-.452.068-.506.383a9.193,9.193,0,0,1-.279,1.108,1.93,1.93,0,0,1-3.236.868c-.715-.675-1.385-1.4-2.1-2.073a1.044,1.044,0,0,0-.641-.267c-1.659-.022-3.319-.009-4.979-.013A3.624,3.624,0,0,1,0,16.566Q0,10.222,0,3.878A3.631,3.631,0,0,1,2.976.066.443.443,0,0,0,3.086,0h30.23a.43.43,0,0,0,.108.067,3.644,3.644,0,0,1,2.971,3.817c0,1.072.013,2.144-.008,3.215-.006.31.093.412.391.493a10.76,10.76,0,0,1,7.907,7.584c.2.651.3,1.337.44,2.007ZM34.878,7.292a.91.91,0,0,0,.039-.164c0-1.072.007-2.144.005-3.216a2.186,2.186,0,0,0-2.445-2.444H3.924A2.188,2.188,0,0,0,1.467,3.9q0,6.278,0,12.556a2.218,2.218,0,0,0,2.487,2.465c1.821,0,3.643-.008,5.464.012a.975.975,0,0,1,.606.251c.806.772,1.583,1.574,2.377,2.358.435.431.842.318.993-.269.164-.639.338-1.276.472-1.922.069-.334.208-.44.556-.438,2.791.016,5.582.009,8.372.009h.5A10.828,10.828,0,0,1,26.478,10.5a10.725,10.725,0,0,1,8.4-3.207M12.19,30.609c-3.391,0-6.781.006-10.172-.008-.376,0-.506.083-.5.484q.027,3.852,0,7.7c0,.356.09.48.466.479q10.15-.016,20.3-.009c.707,0,.954-.25.954-.949q0-3.368,0-6.736c0-.752-.214-.966-.963-.966H12.19M43.634,18.19A9.429,9.429,0,1,0,34.2,27.637a9.437,9.437,0,0,0,9.437-9.446M37.078,29.149a1.412,1.412,0,0,0-.194-.03c-2.568,0-5.137-.008-7.706,0a3.553,3.553,0,0,0-2.242.786c-.644.51-1.291,1.017-1.919,1.546a.706.706,0,0,0-.24.466q-.024,3.015,0,6.031a.592.592,0,0,0,.183.4c.7.58,1.407,1.154,2.133,1.7a4.843,4.843,0,0,0,3.441.639V33.147a5.664,5.664,0,0,1-3.576,1.043V32.756c.116-.011.189-.023.261-.025a4.22,4.22,0,0,0,3.526-1.921.7.7,0,0,1,.5-.242c1.438-.019,2.877,0,4.315-.014a1.417,1.417,0,0,0,1.525-1.406M36.37,42.263c-2.742-.227-3.511-1.452-2.416-3.728a2.269,2.269,0,0,1,.015-2.893,2.24,2.24,0,0,1-.035-2.851c-.142-.718-.619-.792-1.172-.728a.484.484,0,0,1-.132,0c-.448-.073-.567.118-.565.56.018,3.227.01,6.454.01,9.681,0,.22,0,.441.009.66a.605.605,0,0,0,.642.636c.983.012,1.966.006,2.949,0a.612.612,0,0,0,.648-.539,6.011,6.011,0,0,0,.046-.8m.736-1.537c.468,0,.936.01,1.4,0a.715.715,0,0,0,.778-.711.73.73,0,0,0-.793-.7q-1.382-.012-2.764,0a.7.7,0,0,0-.768.716.685.685,0,0,0,.739.695c.468.014.936,0,1.4,0m.029-7.236c-.468,0-.936-.007-1.4,0a.7.7,0,0,0-.767.715.683.683,0,0,0,.74.693q1.4.017,2.808,0a.711.711,0,0,0,.778-.71.729.729,0,0,0-.794-.7c-.453-.008-.907,0-1.36,0m-.042,4.322v0c.5,0,1,.013,1.5,0a.692.692,0,0,0,.7-.7.706.706,0,0,0-.707-.7q-1.454-.022-2.908,0a.7.7,0,1,0,.009,1.4c.47.014.94,0,1.41,0m-.6-5.825c.715,0,1.431.012,2.146,0a.587.587,0,0,0,.62-.608.942.942,0,0,0-.393-.689.811.811,0,0,0-.768.063,4.409,4.409,0,0,1-1.605,1.239" transform="translate(0)" fill="#12263f"/>
          <rect id="Rectángulo_352613" data-name="Rectángulo 352613" width="1.393" height="1.385" transform="translate(13.856 24.771)" fill="#12263f"/>
          <rect id="Rectángulo_352614" data-name="Rectángulo 352614" width="1.381" height="1.389" transform="translate(16.779 24.767)" fill="#12263f"/>
          <rect id="Rectángulo_352615" data-name="Rectángulo 352615" width="1.401" height="1.375" transform="translate(10.948 24.777)" fill="#12263f"/>
          <rect id="Rectángulo_352616" data-name="Rectángulo 352616" width="1.373" height="1.389" transform="translate(8.05 24.765)" fill="#12263f"/>
          <path id="Trazado_732356" data-name="Trazado 732356" d="M169.274,41.313H167.8c0-.838-.008-1.668.012-2.5,0-.086.158-.191.263-.247.493-.259,1-.5,1.49-.757a1.962,1.962,0,0,0-.866-3.746c-1.463-.048-2.134.546-2.378,2.137H164.9a3.288,3.288,0,0,1,.639-2.176,3.767,3.767,0,0,1,4.1-1.312,3.393,3.393,0,0,1,2.515,3.013,3.3,3.3,0,0,1-1.527,3.165.912.912,0,0,1-.266.154,1.385,1.385,0,0,0-1.092,1.825,2.705,2.705,0,0,1,0,.443" transform="translate(-150.337 -29.69)" fill="#12263f"/>
          <path id="Trazado_732357" data-name="Trazado 732357" d="M185.8,150.588a2.178,2.178,0,1,1-2.2-2.155,2.168,2.168,0,0,1,2.2,2.155m-1.53.025a.608.608,0,0,0-.657-.651.649.649,0,0,0,0,1.3.612.612,0,0,0,.661-.646" transform="translate(-165.428 -135.329)" fill="#12263f"/>
          <path id="Trazado_732358" data-name="Trazado 732358" d="M304.515,131.171a8.022,8.022,0,1,1,8.017-8.046,8.041,8.041,0,0,1-8.017,8.046m6.512-7.99a6.522,6.522,0,1,0-6.546,6.508,6.53,6.53,0,0,0,6.546-6.508" transform="translate(-270.301 -104.964)" fill="#12263f"/>
          <path id="Trazado_732359" data-name="Trazado 732359" d="M357.78,155.561h-1.508c0-.582-.014-1.149.012-1.714.005-.109.152-.234.262-.312.431-.305.882-.581,1.308-.893a1.6,1.6,0,0,0,.532-1.786,1.325,1.325,0,0,0-1.112-1.055,1.394,1.394,0,0,0-1.655,1.085c-.059.287-.166.362-.429.35-.349-.016-.7,0-1.134,0a7.688,7.688,0,0,1,.158-.891,2.975,2.975,0,1,1,4.224,3.7,1.26,1.26,0,0,0-.659,1.522" transform="translate(-322.8 -135.196)" fill="#12263f"/>
          <path id="Trazado_732360" data-name="Trazado 732360" d="M379.9,247.232a.732.732,0,1,1-.719.724.717.717,0,0,1,.719-.724" transform="translate(-345.704 -225.406)" fill="#12263f"/>
        </g>
      </g>
    </g>
  </g>
</svg>
